<?xml version="1.0" encoding="utf-8" ?><svg xmlns="http://www.w3.org/2000/svg" xmlns:xlink="http://www.w3.org/1999/xlink" width="707" height="1068" viewBox="0 0 707 1068"><path fill="#094CCB" transform="scale(1.02336 1.02336)" d="M139.101 185.278C139.374 184.142 139.511 184.136 140.31 183.313C141.962 183.408 141.942 183.763 143.434 184.843C145.354 183.689 144.717 183.693 146.624 183.794C148.032 184.859 148.09 185.458 148.521 187.28C150.554 186.493 149.868 186.414 151.59 186.971C154.246 189.832 153.505 196.896 153.357 200.821L153.339 201.313C155.245 200.386 156.959 199.337 159.057 199.297L160.269 199.856C161.439 204.534 153.29 212.013 150.163 215.186C150.577 219.119 151.519 226.806 152.861 230.446L153.094 231.415L154.627 232.554C160.481 237.46 165.855 242.852 172.149 247.034L176.8 241.852C176.511 251.565 174.744 296.701 176.589 303.259C187.73 303.978 199.228 305.549 210.351 305.275C210.559 288.445 219.706 288.076 233.966 287.417L237.713 284.805C238.632 283.973 239.963 282.367 240.832 281.388L243.993 277.64C244.168 271.1 244.702 265.35 245.316 258.861C245.429 259.598 245.607 260.323 245.849 261.028C246.458 262.789 246.985 263.756 248.567 264.578C254.103 265.292 260.307 255.527 265.167 252.842L265.901 253.282C267.416 252.8 273.741 246.528 275.91 245.166C285.983 238.842 296.312 231.026 306.64 225.238C317.167 219.339 331.143 219.445 342.342 218.592C350.734 217.953 389.877 220.777 394.502 217.651C396.714 218.911 400.645 218.601 403.231 218.54L402.64 221.222C407.826 221.361 416.866 221.575 422.163 221.164C424.194 220.718 424.457 221.246 426.389 220.19L426.751 218.7L444.718 218.634C446.096 219.804 448.217 221.701 449.616 222.674C471.75 218.912 515.324 218.235 534.423 232.015C536.177 233.282 537.751 234.78 539.104 236.469C548.731 240.38 551.731 239.637 555.83 249.282C547.692 248.131 538.633 246.686 530.484 246.181C536.565 253.075 542.446 260.141 548.122 267.371C554.144 274.932 561.604 285.457 569.131 291.342C571.757 293.395 577.489 294.501 580.849 295.265C582.948 297.67 589.901 307.366 591.169 310.178C593.511 313.889 595.657 317.781 597.223 321.894L597.95 326.016L598.263 329.225L598.402 333.523C599.403 345.852 601.831 356.32 603.384 368.338C604.138 374.173 602.759 385.242 602.073 391.062C600.211 403.544 599.198 408.272 587.676 414.565C587.158 441.049 577.662 464.638 546.119 460.04C537.755 458.821 535.721 457.232 528.519 454.549C513.134 455.357 494.487 455.05 478.965 455.116C455.963 455.027 432.962 455.375 409.973 456.158C400.096 479.386 389.728 481.893 366.023 480.666C354.586 485.061 328.636 485.839 315.43 485.866C262.741 485.97 208.688 485.155 156.455 478.045C151.504 477.371 145.269 470.605 142.352 466.819C114.044 430.075 93.7454 387.301 86.3885 341.287C83.8705 325.739 83.1118 312.737 82.6511 297.332C89.9141 298.121 101.991 297.272 109.182 296.634C109.151 300.816 108.387 314.31 111.241 316.872C114.12 310.941 112.218 294.17 112.615 286.834C113.018 279.387 113.379 271.271 113.615 263.809C113.842 253.327 113.951 242.843 113.943 232.358C122.954 232.376 127.682 233.362 137.211 232.343C135.753 220.126 133.025 207.359 132.875 195.143C132.84 192.274 133.725 189.459 135.968 187.543C136.948 186.918 138.14 185.984 139.101 185.278ZM498.922 229.753L498.079 226.316C493.847 222.978 463.052 223.546 457.1 226.594C466.702 227.946 489.527 230.07 498.922 229.753Z"/><path fill="#E3E3E2" transform="scale(1.02336 1.02336)" d="M139.101 185.278C139.374 184.142 139.511 184.136 140.31 183.313C141.962 183.408 141.942 183.763 143.434 184.843C145.354 183.689 144.717 183.693 146.624 183.794C148.032 184.859 148.09 185.458 148.521 187.28C150.554 186.493 149.868 186.414 151.59 186.971C154.246 189.832 153.505 196.896 153.357 200.821L153.339 201.313C155.245 200.386 156.959 199.337 159.057 199.297L160.269 199.856C161.439 204.534 153.29 212.013 150.163 215.186C150.577 219.119 151.519 226.806 152.861 230.446L153.094 231.415L154.627 232.554C160.481 237.46 165.855 242.852 172.149 247.034L176.8 241.852C176.511 251.565 174.744 296.701 176.589 303.259C177.049 310.132 176.8 315.242 176.184 322.133C166.368 327.598 157.493 331.858 149.185 339.511C150.827 345.43 152.942 352.339 154.346 358.23C155.196 361.775 156.442 365.924 155.993 369.511L155.869 372.129L156.115 373.01C155.238 373.253 154.694 373.401 153.786 373.566C148.401 372.61 145.841 371.268 141.839 367.621C138.696 367.591 138.004 367.578 135.022 366.686C132.384 376.045 129.718 386.412 129.96 396.247C129.961 398.979 129.838 402.967 130.011 405.597C129.882 411.895 129.704 418.191 129.475 424.486C135.501 424.517 145.674 424.288 151.246 425.42C154.507 419.249 158.692 409.892 165.911 407.692C177.518 404.155 254.498 407.306 270.222 409.39C273.792 409.863 277.362 410.454 280.566 412.189C288.113 416.276 294.155 423.981 299.817 430.278C305.132 436.62 308.528 438.633 315.444 442.91C321.172 442.95 330.648 442.766 336.134 443.398C339.592 465.329 343.155 475.038 366.023 480.666C354.586 485.061 328.636 485.839 315.43 485.866C262.741 485.97 208.688 485.155 156.455 478.045C151.504 477.371 145.269 470.605 142.352 466.819C114.044 430.075 93.7454 387.301 86.3885 341.287C83.8705 325.739 83.1118 312.737 82.6511 297.332C89.9141 298.121 101.991 297.272 109.182 296.634C109.151 300.816 108.387 314.31 111.241 316.872C114.12 310.941 112.218 294.17 112.615 286.834C113.018 279.387 113.379 271.271 113.615 263.809C113.842 253.327 113.951 242.843 113.943 232.358C122.954 232.376 127.682 233.362 137.211 232.343C135.753 220.126 133.025 207.359 132.875 195.143C132.84 192.274 133.725 189.459 135.968 187.543C136.948 186.918 138.14 185.984 139.101 185.278Z"/><path fill="#BABECA" transform="scale(1.02336 1.02336)" d="M151.246 425.42C154.507 419.249 158.692 409.892 165.911 407.692C177.518 404.155 254.498 407.306 270.222 409.39C273.792 409.863 277.362 410.454 280.566 412.189C288.113 416.276 294.155 423.981 299.817 430.278C305.132 436.62 308.528 438.633 315.444 442.91C309.289 443.062 303.506 442.777 297.371 442.512C291.555 442.456 274.216 441.155 268.554 441.027C261.067 440.858 225.439 440.477 219.359 438.764C218.544 438.462 216.847 438.282 215.922 438.145C203.333 436.224 186.534 437.949 173.562 437.28C167.327 436.959 161.231 438.083 154.972 436.481C148.683 434.872 150.018 430.106 151.246 425.42Z"/><path fill="#1A191B" transform="scale(1.02336 1.02336)" d="M215.922 438.145C229.745 437.942 243.7 438.137 257.529 438.955C269.573 439.668 281.984 439.39 293.972 440.745C295.373 440.904 296.388 441.523 297.371 442.512C291.555 442.456 274.216 441.155 268.554 441.027C261.067 440.858 225.439 440.477 219.359 438.764C218.544 438.462 216.847 438.282 215.922 438.145Z"/><path fill="#1C283F" transform="scale(1.02336 1.02336)" d="M175.504 413.082C186.786 412.446 200.056 413.784 211.58 413.898C229.533 414.074 247.709 414.736 265.587 416.301C275.4 417.16 280.741 425.523 286.137 432.758L268.423 432.782L264.651 429.126C258.855 427.341 248.513 426.497 244.868 432.376C240.622 432.214 236.294 431.952 232.042 431.738L228.206 427.717C224.039 427.398 214.231 426.404 210.685 427.773C209.877 428.696 209.351 429.237 208.459 430.077C205.931 430.665 200.154 430.261 197.323 430.165L194.466 426.669C189.564 426.039 183.789 426.078 178.774 425.986C175.956 429.262 168.243 432.048 165.207 429.665C155.443 422.001 169.568 414.168 175.504 413.082Z"/><path fill="#1C283F" transform="scale(1.02336 1.02336)" d="M129.475 424.486C135.501 424.517 145.674 424.288 151.246 425.42C150.018 430.106 148.683 434.872 154.972 436.481C161.231 438.083 167.327 436.959 173.562 437.28C186.534 437.949 203.333 436.224 215.922 438.145C216.847 438.282 218.544 438.462 219.359 438.764C213.97 461.928 207.869 474.015 181.517 473.773C151.341 473.495 146.765 461.973 140.991 435.208C140.012 434.905 139.044 434.569 138.088 434.201C132.784 432.109 131.593 429.476 129.475 424.486Z"/><path fill="#F2B494" transform="scale(1.02336 1.02336)" d="M139.101 185.278C139.374 184.142 139.511 184.136 140.31 183.313C141.962 183.408 141.942 183.763 143.434 184.843C145.354 183.689 144.717 183.693 146.624 183.794C148.032 184.859 148.09 185.458 148.521 187.28C150.554 186.493 149.868 186.414 151.59 186.971C154.246 189.832 153.505 196.896 153.357 200.821L153.339 201.313C155.245 200.386 156.959 199.337 159.057 199.297L160.269 199.856C161.439 204.534 153.29 212.013 150.163 215.186C150.577 219.119 151.519 226.806 152.861 230.446L153.094 231.415L154.627 232.554C160.481 237.46 165.855 242.852 172.149 247.034C169.151 251.027 159.594 265.365 154.827 265.446C139.014 265.715 138.418 243.637 137.211 232.343C135.753 220.126 133.025 207.359 132.875 195.143C132.84 192.274 133.725 189.459 135.968 187.543C136.948 186.918 138.14 185.984 139.101 185.278Z"/><path fill="#F8C7AF" transform="scale(1.02336 1.02336)" d="M139.101 185.278C140.516 187.579 140.347 195.309 138.329 197.404C136.717 196.049 136.535 189.912 135.968 187.543C136.948 186.918 138.14 185.984 139.101 185.278Z"/><path fill="#D8A186" transform="scale(1.02336 1.02336)" d="M143.434 184.843C145.354 183.689 144.717 183.693 146.624 183.794C148.032 184.859 148.09 185.458 148.521 187.28C145.416 191.411 147.384 193.965 145.114 195.764L144.103 195.789C144.85 192.25 145.24 188.11 143.434 184.843Z"/><path fill="#F8C7AF" transform="scale(1.02336 1.02336)" d="M143.434 184.843C145.24 188.11 144.85 192.25 144.103 195.789C142.138 193.346 141.448 187.484 143.434 184.843Z"/><path fill="#C79179" transform="scale(1.02336 1.02336)" d="M153.094 231.415L154.627 232.554C154.921 235.715 157.576 243.698 158.62 247.047C155.466 241.059 154.443 237.843 153.094 231.415Z"/><path fill="#1C283F" transform="scale(1.02336 1.02336)" d="M139.099 355.887C141.114 357.182 140.828 359.234 143.517 361.161L145.925 360.647C147.946 364.017 148.641 364.527 152.237 366.185L152.515 366.234L153.571 365.066C154.319 367.333 154.588 367.645 155.993 369.511L155.869 372.129L156.115 373.01C155.238 373.253 154.694 373.401 153.786 373.566C148.401 372.61 145.841 371.268 141.839 367.621C138.696 367.591 138.004 367.578 135.022 366.686L137.445 359.947C137.586 359.4 138.812 356.584 139.099 355.887Z"/><path fill="#A49B99" transform="scale(1.02336 1.02336)" d="M137.445 359.947C137.586 359.4 138.812 356.584 139.099 355.887C141.011 366.771 145.722 368.935 155.869 372.129L156.115 373.01C155.238 373.253 154.694 373.401 153.786 373.566C148.401 372.61 145.841 371.268 141.839 367.621C138.696 367.591 138.004 367.578 135.022 366.686L137.445 359.947Z"/><path fill="#1747AE" transform="scale(1.02336 1.02336)" d="M137.445 359.947C139.015 362.443 140.481 365.003 141.839 367.621C138.696 367.591 138.004 367.578 135.022 366.686L137.445 359.947Z"/><path fill="#E3E3E2" transform="scale(1.02336 1.02336)" d="M150.107 354.709C151.462 357.841 153.064 361.7 153.571 365.066L152.515 366.234L152.237 366.185C148.641 364.527 147.946 364.017 145.925 360.647C145.729 358.637 145.626 357.247 146.573 355.49C148.079 354.661 147.421 354.744 148.996 355.052L150.107 354.709Z"/><path fill="#656467" transform="scale(1.02336 1.02336)" d="M150.107 354.709C151.462 357.841 153.064 361.7 153.571 365.066L152.515 366.234L152.237 366.185C152.386 361.361 151.148 359.331 148.996 355.052L150.107 354.709Z"/><path fill="#434246" transform="scale(1.02336 1.02336)" d="M143.517 361.161C145.89 355.858 142.703 352.48 142.636 347.566L143.273 346.943C147.276 347.801 148.632 351.353 150.107 354.709L148.996 355.052C147.421 354.744 148.079 354.661 146.573 355.49C145.626 357.247 145.729 358.637 145.925 360.647L143.517 361.161Z"/><path fill="#1C283F" transform="scale(1.02336 1.02336)" d="M535.576 407.617C538.278 392.919 549.34 355.533 568.168 354.374C588.817 353.103 588.842 381.005 589.636 395.541C593.109 394.607 598.604 392.391 602.073 391.062C600.211 403.544 599.198 408.272 587.676 414.565C587.158 441.049 577.662 464.638 546.119 460.04C537.755 458.821 535.721 457.232 528.519 454.549C513.134 455.357 494.487 455.05 478.965 455.116C455.963 455.027 432.962 455.375 409.973 456.158C400.096 479.386 389.728 481.893 366.023 480.666C343.155 475.038 339.592 465.329 336.134 443.398C330.648 442.766 321.172 442.95 315.444 442.91C308.528 438.633 305.132 436.62 299.817 430.278C313.618 428.925 338.867 430.138 353.994 430.265C354.061 428.93 354.149 427.596 354.257 426.264C355.885 406.51 367.544 359.435 395.151 362.69C420.138 365.637 418.961 404.387 416.725 423.244C441.598 421.178 466.798 416.495 491.569 413.396C506.317 411.551 520.687 408.844 535.576 407.617Z"/><path fill="#E3E3E2" transform="scale(1.02336 1.02336)" d="M414.202 437.446C442.005 435.93 469.809 431.661 497.531 428.955C504.491 428.275 511.65 427.448 518.572 426.51C520.301 441.581 521.137 442.061 528.773 453.719L528.519 454.549C513.134 455.357 494.487 455.05 478.965 455.116C455.963 455.027 432.962 455.375 409.973 456.158C411.622 449.605 413.343 444.191 414.202 437.446Z"/><path fill="#BABECA" transform="scale(1.02336 1.02336)" d="M390.28 388.968C398.787 390.316 403.796 395.802 406.189 404.197C410.827 420.474 410.697 444.442 399.841 458.244C396.994 461.864 394.134 463.025 390.001 464.307C365.644 462.154 367.323 408.457 380.223 394.78C383.699 391.095 385.648 390.443 390.28 388.968Z"/><path fill="#1C283F" transform="scale(1.02336 1.02336)" d="M391.387 436.543C394.092 441.349 395.94 446.601 397.847 451.761C398.184 457.14 392.259 461.514 387.574 459.326C386.603 458.075 386.45 457.468 386.971 455.841C388.131 448.177 388.85 443.803 391.387 436.543Z"/><path fill="#434246" transform="scale(1.02336 1.02336)" d="M397.847 451.761C398.184 457.14 392.259 461.514 387.574 459.326C386.603 458.075 386.45 457.468 386.971 455.841C389.827 457.483 396.091 453.967 397.847 451.761Z"/><path fill="#1C283F" transform="scale(1.02336 1.02336)" d="M381.963 398.391C384.864 400.435 387.86 416.609 385.009 420.164C383.239 420.613 383.798 420.476 381.766 419.755C378.983 418.062 377.613 417.093 375.083 415.04C376.547 407.534 377.392 404.701 381.963 398.391Z"/><path fill="#1C283F" transform="scale(1.02336 1.02336)" d="M404.071 423.553C404.61 423.646 404.784 423.81 405.297 424.075C406.79 428.748 403.976 440.385 402.916 445.33L400.199 441.706C394.053 431.641 391.97 428.803 404.071 423.553Z"/><path fill="#1C283F" transform="scale(1.02336 1.02336)" d="M373.817 428.18C387.128 428.407 384.145 433.362 379.616 442.646C378.715 444.097 377.319 445.988 376.318 447.437C374.168 440.153 373.146 435.875 373.817 428.18Z"/><path fill="#1C283F" transform="scale(1.02336 1.02336)" d="M396.978 396.011C400.021 399.783 402.837 406.61 404.677 411.148L399.979 415.275C399.015 416.272 398.532 416.687 397.431 417.532C395.417 417.436 395.428 416.969 393.602 415.602C395.034 409.495 395.794 402.335 396.978 396.011Z"/><path fill="#434246" transform="scale(1.02336 1.02336)" d="M389.379 393.301C393.224 395.644 390.819 410.663 390.264 414.93C390.039 415.287 390.214 415.096 389.595 415.328C388.773 412.148 389.232 396.845 389.379 393.301Z"/><path fill="#E3E3E2" transform="scale(1.02336 1.02336)" d="M387.789 434.027C385.359 430.181 387.847 428.286 391.817 428.455C392.685 430.384 393.043 430.926 392.871 433.107C391.962 434.667 392.528 434.194 390.665 434.802C389.597 434.581 388.802 434.465 387.789 434.027Z"/><path fill="#434246" transform="scale(1.02336 1.02336)" d="M387.789 434.027C387.989 437.18 383.445 450.603 382.169 454.046C382.209 449.531 384.898 437.086 387.789 434.027Z"/><path fill="#BABECA" transform="scale(1.02336 1.02336)" d="M565.416 378.17C583.293 379.571 584.864 409.64 582.155 423.202C580.134 433.319 577.078 440.721 568.442 446.616C550.17 446.037 548.709 413.634 551.808 400.306C554.14 390.273 556.798 383.87 565.416 378.17Z"/><path fill="#1C283F" transform="scale(1.02336 1.02336)" d="M567.322 421.816C570.524 423.993 572.597 433.26 573.647 436.992L569.154 440.963C567.726 441.5 567.68 441.498 566.19 441.293C561.52 437.477 565.501 426.654 567.322 421.816Z"/><path fill="#1C283F" transform="scale(1.02336 1.02336)" d="M578.242 409.274C578.533 409.342 579.142 409.705 579.441 409.864C580.543 412.968 579.848 425.941 576.668 427.454L575.718 426.446C575.175 425.529 574.64 424.607 574.114 423.681C569.616 415.741 569.771 413.202 578.242 409.274Z"/><path fill="#1C283F" transform="scale(1.02336 1.02336)" d="M552.945 412.288C565.502 412.332 561.371 419.345 558.019 427.224L555.473 431.877C553.46 425.204 552.968 419.175 552.945 412.288Z"/><path fill="#1C283F" transform="scale(1.02336 1.02336)" d="M560.207 387.279C561.916 390.329 565.686 404.512 561.64 406.097L560.042 405.357L554.023 400.914C555.15 395.565 556.944 391.604 560.207 387.279Z"/><path fill="#1C283F" transform="scale(1.02336 1.02336)" d="M572.399 386.202C575.906 388.525 577.684 394.854 578.987 398.74L573.65 403.501L569.355 406.625C570.793 400.097 570.901 392.882 572.399 386.202Z"/><path fill="#E3E3E2" transform="scale(1.02336 1.02336)" d="M578.339 401.619C579.785 402.525 579.935 403.501 579.832 405.032C578.386 407.95 574.457 409.251 571.526 410.47L570.59 410.211L570.624 409.309C572.397 406.455 575.569 403.509 578.339 401.619Z"/><path fill="#1A191B" transform="scale(1.02336 1.02336)" d="M566.22 383.084L567.204 384.129C568.403 388.607 567.375 395.621 566.902 400.321L566.671 400.459C565.654 399.268 566.169 385.713 566.22 383.084Z"/><path fill="#656467" transform="scale(1.02336 1.02336)" d="M563.837 418.322C564.682 420.159 560.515 433.672 559.651 436.807C558.628 433.385 562.545 422.246 563.837 418.322Z"/><path fill="#8996AF" transform="scale(1.02336 1.02336)" d="M394.502 217.651C396.714 218.911 400.645 218.601 403.231 218.54L402.64 221.222C407.826 221.361 416.866 221.575 422.163 221.164C428.004 221.16 438.492 219.5 441.559 225.266C436.44 231.218 432.268 240.032 428.422 244.163L426.31 247.841C422.059 257.656 418.127 267.605 414.518 277.673C412.783 282.515 410.919 287.309 408.926 292.051C407.672 294.924 402.649 305.906 402.16 308.288C396.318 306.701 378.412 306.486 371.794 306.242C354.1 305.59 336.021 305.78 318.333 304.392C312.174 304.668 286.391 304.804 281.724 303.879C273.006 303.581 264.121 303.997 255.333 303.734C253.226 303.864 250.605 303.948 248.578 304.333L243.345 304.494C239.827 304.489 232.8 304.737 229.83 303.222C228.343 304.076 226.651 303.951 224.877 304.033C228.551 299.812 237.352 290.076 237.713 284.805C238.632 283.973 239.963 282.367 240.832 281.388L243.993 277.64C244.168 271.1 244.702 265.35 245.316 258.861C245.429 259.598 245.607 260.323 245.849 261.028C246.458 262.789 246.985 263.756 248.567 264.578C254.103 265.292 260.307 255.527 265.167 252.842L265.901 253.282C267.416 252.8 273.741 246.528 275.91 245.166C285.983 238.842 296.312 231.026 306.64 225.238C317.167 219.339 331.143 219.445 342.342 218.592C350.734 217.953 389.877 220.777 394.502 217.651Z"/><path fill="#094CCB" transform="scale(1.02336 1.02336)" d="M394.502 217.651C396.714 218.911 400.645 218.601 403.231 218.54L402.64 221.222C407.826 221.361 416.866 221.575 422.163 221.164C428.004 221.16 438.492 219.5 441.559 225.266C436.44 231.218 432.268 240.032 428.422 244.163C407.313 240.727 377.25 240.499 355.731 240.58L338.141 240.543C332.676 240.198 327.554 239.86 322.093 240.475C314.411 260.452 306.846 280.286 300.672 300.809C295.446 300.906 285.979 300.734 281.724 303.879C273.006 303.581 264.121 303.997 255.333 303.734C253.226 303.864 250.605 303.948 248.578 304.333L243.345 304.494C239.827 304.489 232.8 304.737 229.83 303.222C228.343 304.076 226.651 303.951 224.877 304.033C228.551 299.812 237.352 290.076 237.713 284.805C238.632 283.973 239.963 282.367 240.832 281.388L243.993 277.64C244.168 271.1 244.702 265.35 245.316 258.861C245.429 259.598 245.607 260.323 245.849 261.028C246.458 262.789 246.985 263.756 248.567 264.578C254.103 265.292 260.307 255.527 265.167 252.842L265.901 253.282C267.416 252.8 273.741 246.528 275.91 245.166C285.983 238.842 296.312 231.026 306.64 225.238C317.167 219.339 331.143 219.445 342.342 218.592C350.734 217.953 389.877 220.777 394.502 217.651Z"/><path fill="#E3E3E2" transform="scale(1.02336 1.02336)" d="M295.073 242.09C300.482 241.014 316.106 240.709 322.093 240.475C314.411 260.452 306.846 280.286 300.672 300.809C295.446 300.906 285.979 300.734 281.724 303.879C273.006 303.581 264.121 303.997 255.333 303.734C253.335 303.548 253.117 303.858 251.722 302.737C251.81 299.676 254.893 297.732 255.88 294.877C256.477 293.147 256.151 289.425 256.408 287.47C256.747 284.889 259.329 280.455 260.606 278.115C265.217 269.666 271.956 259.664 279.643 253.73C284.874 249.693 289.802 246.46 295.073 242.09Z"/><path fill="#1C283F" transform="scale(1.02336 1.02336)" d="M394.502 217.651C396.714 218.911 400.645 218.601 403.231 218.54L402.64 221.222L401.509 221.749L401.475 222.452L403.333 223.997C399.871 225.408 380.003 225.261 376.152 224.448C374.838 225.078 373.787 225.311 372.34 225.438C355.315 226.931 338.265 227.818 321.271 229.728C317.445 230.157 312.084 230.966 308.342 230.865C301.686 234.268 293.152 237.516 287.663 242.12L295.073 242.09C289.802 246.46 284.874 249.693 279.643 253.73C271.956 259.664 265.217 269.666 260.606 278.115C259.329 280.455 256.747 284.889 256.408 287.47C256.151 289.425 256.477 293.147 255.88 294.877C254.893 297.732 251.81 299.676 251.722 302.737C253.117 303.858 253.335 303.548 255.333 303.734C253.226 303.864 250.605 303.948 248.578 304.333L243.345 304.494C239.827 304.489 232.8 304.737 229.83 303.222C228.343 304.076 226.651 303.951 224.877 304.033C228.551 299.812 237.352 290.076 237.713 284.805C238.632 283.973 239.963 282.367 240.832 281.388L243.993 277.64C244.168 271.1 244.702 265.35 245.316 258.861C245.429 259.598 245.607 260.323 245.849 261.028C246.458 262.789 246.985 263.756 248.567 264.578C254.103 265.292 260.307 255.527 265.167 252.842L265.901 253.282C267.416 252.8 273.741 246.528 275.91 245.166C285.983 238.842 296.312 231.026 306.64 225.238C317.167 219.339 331.143 219.445 342.342 218.592C350.734 217.953 389.877 220.777 394.502 217.651Z"/><defs><linearGradient id="gradient_0" gradientUnits="userSpaceOnUse" x1="281.5704" y1="278.61743" x2="241.13371" y2="267.30457"><stop offset="0" stop-color="#BEBFC5"/><stop offset="1" stop-color="#E0D4D2"/></linearGradient></defs><path fill="url(#gradient_0)" transform="scale(1.02336 1.02336)" d="M287.663 242.12L295.073 242.09C289.802 246.46 284.874 249.693 279.643 253.73C271.956 259.664 265.217 269.666 260.606 278.115C259.329 280.455 256.747 284.889 256.408 287.47C256.151 289.425 256.477 293.147 255.88 294.877C254.893 297.732 251.81 299.676 251.722 302.737C253.117 303.858 253.335 303.548 255.333 303.734C253.226 303.864 250.605 303.948 248.578 304.333L243.345 304.494C239.827 304.489 232.8 304.737 229.83 303.222C248.151 282.562 265.487 258.659 287.663 242.12Z"/><path fill="#E3E3E2" transform="scale(1.02336 1.02336)" d="M308.342 230.865C309.269 230.101 311.517 228.309 312.475 227.845C326.042 221.283 362.661 220.704 376.152 224.448C374.838 225.078 373.787 225.311 372.34 225.438C355.315 226.931 338.265 227.818 321.271 229.728C317.445 230.157 312.084 230.966 308.342 230.865Z"/><path fill="#D7AFBD" transform="scale(1.02336 1.02336)" d="M265.167 252.842L265.901 253.282C264.138 257.171 248.043 273.3 243.993 277.64C244.168 271.1 244.702 265.35 245.316 258.861C245.429 259.598 245.607 260.323 245.849 261.028C246.458 262.789 246.985 263.756 248.567 264.578C254.103 265.292 260.307 255.527 265.167 252.842Z"/><path fill="#E3E3E2" transform="scale(1.02336 1.02336)" d="M422.163 221.164C428.004 221.16 438.492 219.5 441.559 225.266C433.054 226.431 412.595 224.241 403.333 223.997L401.475 222.452L401.509 221.749L402.64 221.222C407.826 221.361 416.866 221.575 422.163 221.164Z"/><path fill="#BABECA" transform="scale(1.02336 1.02336)" d="M355.731 240.58C377.25 240.499 407.313 240.727 428.422 244.163L426.31 247.841C422.059 257.656 418.127 267.605 414.518 277.673C412.783 282.515 410.919 287.309 408.926 292.051C398.86 287.363 390.662 283.319 380.012 289.142C376.036 287.369 372.166 285.099 367.949 284.483C366.92 284.332 366.608 284.127 365.786 283.548C365.612 280.17 374.159 278.082 375.043 274.783C376.123 270.748 375.426 265.07 374.866 261.007C374.642 260.498 374.406 259.994 374.158 259.496C372.385 255.971 370.454 254.95 366.902 253.807L365.16 253.797C366.432 250.022 366.332 247.394 366.22 243.456C361.258 244.409 357.229 246.372 355.731 240.58Z"/><path fill="#E3E3E2" transform="scale(1.02336 1.02336)" d="M416.616 247.778C419.848 247.763 423.079 247.784 426.31 247.841C422.059 257.656 418.127 267.605 414.518 277.673C410.697 274.975 409.836 267.668 409.947 263.38C410.133 256.173 411.542 252.658 416.616 247.778Z"/><path fill="#E3E3E2" transform="scale(1.02336 1.02336)" d="M366.902 253.807C367.342 251.484 367.763 247.95 369.05 246.135L370.116 245.495C373.787 247.014 376.046 258.827 374.866 261.007C374.642 260.498 374.406 259.994 374.158 259.496C372.385 255.971 370.454 254.95 366.902 253.807Z"/><defs><linearGradient id="gradient_1" gradientUnits="userSpaceOnUse" x1="297.07953" y1="267.21371" x2="342.56384" y2="283.49548"><stop offset="0" stop-color="#A2A9BB"/><stop offset="1" stop-color="#D5D6DA"/></linearGradient></defs><path fill="url(#gradient_1)" transform="scale(1.02336 1.02336)" d="M322.093 240.475C327.554 239.86 332.676 240.198 338.141 240.543C337.287 244.227 334.87 253.356 335.859 256.875C333.955 261.18 333.034 268.423 334.66 273.097C336.549 278.522 343.552 280.343 344.401 282.607C340.386 288.659 327.767 282.721 324.665 304.143C322.836 304.201 320.074 304.207 318.333 304.392C312.174 304.668 286.391 304.804 281.724 303.879C285.979 300.734 295.446 300.906 300.672 300.809C306.846 280.286 314.411 260.452 322.093 240.475Z"/><path fill="#E3E3E2" transform="scale(1.02336 1.02336)" d="M338.141 240.543L355.731 240.58C357.229 246.372 361.258 244.409 366.22 243.456C366.332 247.394 366.432 250.022 365.16 253.797C356.038 254.1 343.579 252.384 335.859 256.875C334.87 253.356 337.287 244.227 338.141 240.543Z"/><path fill="#E3E3E2" transform="scale(1.02336 1.02336)" d="M346.399 280.322C350.464 280.22 357.176 279.645 360.956 281.183C362.426 281.782 362.375 282.877 362.704 284.239C358.78 284.528 351.931 285.516 348.373 283.763C346.913 283.044 346.846 281.801 346.399 280.322Z"/><defs><linearGradient id="gradient_2" gradientUnits="userSpaceOnUse" x1="188.30104" y1="382.86414" x2="200.90273" y2="345.5643"><stop offset="0" stop-color="#CECEE1"/><stop offset="1" stop-color="#FFFCF6"/></linearGradient></defs><path fill="url(#gradient_2)" transform="scale(1.02336 1.02336)" d="M217.04 351.047C224.352 350.362 227.614 351.288 233.184 356.13C231.839 358.609 232.415 359.815 233.095 362.533C236.273 364.484 237.395 364.391 241.111 364.908C238.378 365.009 238.584 364.604 236.541 365.873C235.261 367.922 235.877 370.732 236.148 373.212L239.036 373.834C235.741 374.936 229.275 377.596 232.007 382.039C228.435 383.248 225.283 384.4 221.57 385.134C214.804 386.273 209.828 381.676 204.779 381.089C191.134 379.502 178.164 378.221 164.592 375.917C162.878 375.452 162.043 374.121 160.823 372.718C159.149 373.16 155.405 373.951 153.786 373.566C154.694 373.401 155.238 373.253 156.115 373.01L155.869 372.129L155.993 369.511C156.442 365.924 155.196 361.775 154.346 358.23C156.521 356.459 156.999 356.126 158.536 353.791C160.284 354.917 161.541 355.036 163.547 355.436C177.549 355.042 193.704 355.424 207.848 355.45C211.33 353.345 213.248 352.432 217.04 351.047Z"/><path fill="#1C283F" transform="scale(1.02336 1.02336)" d="M160.028 362.388C173.655 362.823 189.899 362.949 203.34 363.824L202.87 371.589C194.702 371.535 170.02 370.839 163.029 369.077C159.584 366.675 159.905 366.593 160.028 362.388Z"/><path fill="#BABECA" transform="scale(1.02336 1.02336)" d="M217.04 351.047C224.352 350.362 227.614 351.288 233.184 356.13C231.839 358.609 232.415 359.815 233.095 362.533C236.273 364.484 237.395 364.391 241.111 364.908C238.378 365.009 238.584 364.604 236.541 365.873C235.261 367.922 235.877 370.732 236.148 373.212L239.036 373.834C235.741 374.936 229.275 377.596 232.007 382.039C228.435 383.248 225.283 384.4 221.57 385.134C223.861 381.759 229.68 380.858 227.656 375.102C230.673 370.22 229.142 365.975 227.727 360.875C231.545 355.704 221.24 351.374 217.04 351.047Z"/><path fill="#8996AF" transform="scale(1.02336 1.02336)" d="M233.095 362.533C236.273 364.484 237.395 364.391 241.111 364.908C238.378 365.009 238.584 364.604 236.541 365.873C235.261 367.922 235.877 370.732 236.148 373.212C234.669 373.242 234.354 373.195 232.889 372.932C229.473 369.996 230.891 365.87 233.095 362.533Z"/><path fill="#1C283F" transform="scale(1.02336 1.02336)" d="M218.813 353.953C223.336 355.626 224.862 356.869 227.727 360.875C229.142 365.975 230.673 370.22 227.656 375.102C222.57 370.524 220.003 368.962 218.759 362.167L217.029 362.144C217.316 360.483 217.362 357.371 217.438 355.584C217.841 355.273 218.464 354.398 218.813 353.953Z"/><path fill="#E3E3E2" transform="scale(1.02336 1.02336)" d="M217.438 355.584C217.841 355.273 218.464 354.398 218.813 353.953C218.682 356.948 218.619 359.182 218.759 362.167L217.029 362.144C217.316 360.483 217.362 357.371 217.438 355.584Z"/><path fill="#1C283F" transform="scale(1.02336 1.02336)" d="M217.029 362.144C215.914 365.141 214.14 367.848 211.838 370.067C210.28 371.566 208.6 373.016 206.385 372.971C200.986 368.637 211.415 350.567 217.438 355.584C217.362 357.371 217.316 360.483 217.029 362.144Z"/><path fill="#1747AE" transform="scale(1.02336 1.02336)" d="M154.346 358.23C156.521 356.459 156.999 356.126 158.536 353.791C160.284 354.917 161.541 355.036 163.547 355.436C160.506 356.294 158.103 356.741 158.484 360.371C159.043 361.19 159.311 361.7 160.028 362.388C159.905 366.593 159.584 366.675 163.029 369.077C161.875 370.467 161.342 370.962 160.823 372.718C159.149 373.16 155.405 373.951 153.786 373.566C154.694 373.401 155.238 373.253 156.115 373.01L155.869 372.129L155.993 369.511C156.442 365.924 155.196 361.775 154.346 358.23Z"/><path fill="#1C283F" transform="scale(1.02336 1.02336)" d="M215.286 372.088C220.728 371.983 223.042 374.211 227.099 377.638C224.102 380.15 222.515 380.938 218.962 382.547C217.703 382.729 216.426 382.758 215.16 382.633C211.293 382.283 209.318 379.64 207.036 376.888L215.286 372.088Z"/><path fill="#1C283F" transform="scale(1.02336 1.02336)" d="M160.132 358.141C171.328 357.185 190.054 357.746 201.34 358.926C202.844 359.084 203.112 359.692 203.753 360.678C197.969 362.06 163.939 361.712 160.132 358.141Z"/><path fill="#1C283F" transform="scale(1.02336 1.02336)" d="M164.032 372.348C171.318 371.591 193.347 374.288 201.215 375.522C202.976 375.798 203.389 376.838 204.107 378.132C198.669 378.55 166.551 375.295 164.032 372.348Z"/><path fill="#1C283F" transform="scale(1.02336 1.02336)" d="M163.49 347.643C180.133 347.222 281.282 344.479 289.931 352.65C291.478 354.112 291.545 356.572 291.779 358.561C291.513 360.493 291.347 363.487 289.574 364.655C289.191 367.565 287.981 370.528 286.432 373.011C278.098 372.247 247.122 372.71 239.036 373.834L236.148 373.212C235.877 370.732 235.261 367.922 236.541 365.873C238.584 364.604 238.378 365.009 241.111 364.908C237.395 364.391 236.273 364.484 233.095 362.533C232.415 359.815 231.839 358.609 233.184 356.13C227.614 351.288 224.352 350.362 217.04 351.047C213.248 352.432 211.33 353.345 207.848 355.45C193.704 355.424 177.549 355.042 163.547 355.436C161.541 355.036 160.284 354.917 158.536 353.791C160.393 351.115 161.26 349.997 163.49 347.643Z"/><path fill="#E3E3E2" transform="scale(1.02336 1.02336)" d="M233.184 356.13C251.6 357.231 273.591 355.832 291.779 358.561C291.513 360.493 291.347 363.487 289.574 364.655C289.191 367.565 287.981 370.528 286.432 373.011C278.098 372.247 247.122 372.71 239.036 373.834L236.148 373.212C235.877 370.732 235.261 367.922 236.541 365.873C238.584 364.604 238.378 365.009 241.111 364.908C237.395 364.391 236.273 364.484 233.095 362.533C232.415 359.815 231.839 358.609 233.184 356.13Z"/><path fill="#1C283F" transform="scale(1.02336 1.02336)" d="M241.111 364.908C254.239 365.727 275.93 364.869 289.574 364.655C289.191 367.565 287.981 370.528 286.432 373.011C278.098 372.247 247.122 372.71 239.036 373.834L236.148 373.212C235.877 370.732 235.261 367.922 236.541 365.873C238.584 364.604 238.378 365.009 241.111 364.908Z"/><path fill="#1C283F" transform="scale(1.02336 1.02336)" d="M236.5 359.54C249.8 358.424 273.245 360.118 287.222 360.681C288.836 360.746 289.252 361.19 289.997 362.214C279.97 363.703 249.367 363.531 238.175 361.88C237.039 361.713 236.889 360.58 236.5 359.54Z"/><path fill="#1C283F" transform="scale(1.02336 1.02336)" d="M239.036 373.834C247.122 372.71 278.098 372.247 286.432 373.011C285.793 375.561 285.136 377.102 283.384 379.165C269.913 396.011 163.621 391.28 164.592 375.917C178.164 378.221 191.134 379.502 204.779 381.089C209.828 381.676 214.804 386.273 221.57 385.134C225.283 384.4 228.435 383.248 232.007 382.039C229.275 377.596 235.741 374.936 239.036 373.834Z"/><path fill="#E3E3E2" transform="scale(1.02336 1.02336)" d="M239.036 373.834C247.122 372.71 278.098 372.247 286.432 373.011C285.793 375.561 285.136 377.102 283.384 379.165C266.243 379.834 249.115 380.792 232.007 382.039C229.275 377.596 235.741 374.936 239.036 373.834Z"/><path fill="#1C283F" transform="scale(1.02336 1.02336)" d="M258.09 375.475C264.037 375.099 276.797 374.464 282.198 375.976L282.262 376.483L282.16 376.158C279.763 378.303 263.149 378.183 258.743 378.279C254.692 378.458 238.482 380.305 236.135 377.834C239.67 375.719 253.291 375.624 258.09 375.475Z"/><path fill="#1C283F" transform="scale(1.02336 1.02336)" d="M444.718 218.634C446.096 219.804 448.217 221.701 449.616 222.674C471.75 218.912 515.324 218.235 534.423 232.015C536.177 233.282 537.751 234.78 539.104 236.469C535.011 236.821 505.127 230.969 498.922 229.753L498.079 226.316C493.847 222.978 463.052 223.546 457.1 226.594C449.911 226.07 435.35 238.602 431.412 244.818C425.08 254.813 411.65 305.63 402.16 308.288C402.649 305.906 407.672 294.924 408.926 292.051C410.919 287.309 412.783 282.515 414.518 277.673C418.127 267.605 422.059 257.656 426.31 247.841L428.422 244.163C432.268 240.032 436.44 231.218 441.559 225.266C438.492 219.5 428.004 221.16 422.163 221.164C424.194 220.718 424.457 221.246 426.389 220.19L426.751 218.7L444.718 218.634Z"/><path fill="#1C283F" transform="scale(1.02336 1.02336)" d="M129.96 396.247C138.474 382.44 152.583 390.578 162.012 398.808C157.16 407.082 148.003 420.86 136.348 414.81C131.548 412.319 132.422 409.006 130.011 405.597C129.838 402.967 129.961 398.979 129.96 396.247Z"/><path fill="#1C283F" transform="scale(1.02336 1.02336)" d="M176.589 303.259C187.73 303.978 199.228 305.549 210.351 305.275L213.212 305.465L213.347 306.067C208.684 309.408 182.628 319.889 176.184 322.133C176.8 315.242 177.049 310.132 176.589 303.259Z"/><path fill="#1C283F" transform="scale(1.02336 1.02336)" d="M229.83 303.222C232.8 304.737 239.827 304.489 243.345 304.494L248.578 304.333C251.954 305.737 255.09 306.234 258.477 307.394C244.897 314.1 224.519 313.057 209.623 311.773C213.323 310.416 215.512 309.583 219.394 308.759C221.474 306.244 222.108 305.892 224.877 304.033C226.651 303.951 228.343 304.076 229.83 303.222Z"/><path fill="#1747AE" transform="scale(1.02336 1.02336)" d="M229.83 303.222C232.8 304.737 239.827 304.489 243.345 304.494C235.815 305.687 226.781 308.252 219.394 308.759C221.474 306.244 222.108 305.892 224.877 304.033C226.651 303.951 228.343 304.076 229.83 303.222Z"/><path fill="#DF4641" transform="scale(1.02336 1.02336)" d="M591.169 310.178C593.511 313.889 595.657 317.781 597.223 321.894L597.95 326.016L598.263 329.225C594.617 330.131 588.326 331.321 585.121 332.282C587.946 325.059 586.306 319.686 591.169 310.178Z"/><path fill="#F2B494" transform="scale(1.02336 1.02336)" d="M597.95 326.016C595.644 326.474 590.202 328.047 589.089 325.391C590.554 322.919 594.529 322.496 597.223 321.894L597.95 326.016Z"/><path fill="#E3E3E2" transform="scale(1.02336 1.02336)" d="M585.121 332.282C588.326 331.321 594.617 330.131 598.263 329.225L598.402 333.523C594.723 333.281 587.556 334.543 585.419 333.363L585.121 332.282Z"/><path fill="#1C283F" transform="scale(1.02336 1.02336)" d="M471.233 238.862C482.09 238.132 502.125 238.138 512.401 240.925C522.525 243.67 531.93 262.054 537.115 270.936C541.837 279.024 547.184 289.128 551.799 297.883C532.669 302.165 507.571 303.09 487.043 307.062C464.08 311.307 441.074 315.315 418.029 319.087C421.139 299.933 431.675 263.449 443.435 247.443C448.678 240.306 462.698 239.352 471.233 238.862Z"/><path fill="#D8A186" transform="scale(1.02336 1.02336)" d="M460.699 242.303C464.335 240.678 472.857 237.781 475.779 241.426C476.191 242.943 476.25 243.316 476.313 244.886C476.359 249.032 479.185 262.918 480.049 267.85C481.159 274.193 482.113 284.791 483.467 290.668C484.51 295.471 485.437 300.299 486.247 305.148C479.567 306.077 471.613 307.016 465.128 308.52C459.86 309.224 447.876 310.315 442.632 309.567C438.131 309.211 433.619 309.018 429.104 308.988C428.948 300.425 429.46 296.356 434.001 289.171L431.545 281.976C433.237 276.047 435.517 270.067 437.628 264.256C439.378 259.204 439.821 255.843 445.397 253.982L446.755 253.389L445.682 252.23C444.709 246.562 456.325 243.777 460.699 242.303Z"/><path fill="#E3E3E2" transform="scale(1.02336 1.02336)" d="M474.4 258.893C474.61 254.546 475.258 249.58 475.738 245.203L476.313 244.886C476.359 249.032 479.185 262.918 480.049 267.85C481.159 274.193 482.113 284.791 483.467 290.668C484.51 295.471 485.437 300.299 486.247 305.148C479.567 306.077 471.613 307.016 465.128 308.52C459.86 309.224 447.876 310.315 442.632 309.567C438.131 309.211 433.619 309.018 429.104 308.988C428.948 300.425 429.46 296.356 434.001 289.171C434.997 288.966 438.107 287.581 439.222 287.113C441.794 288.727 443.868 289.572 447.025 289.495C448.904 289.746 452.775 290.162 454.436 290.63C459.135 287.65 459.689 288.556 464.295 283.681C465.506 282.256 465.967 280.761 466.679 279.021C468.474 269.752 475.489 273.227 474.4 258.893Z"/><path fill="#094CCB" transform="scale(1.02336 1.02336)" d="M434.001 289.171C434.997 288.966 438.107 287.581 439.222 287.113C441.794 288.727 443.868 289.572 447.025 289.495C448.904 289.746 452.775 290.162 454.436 290.63C457.485 292.442 460.016 294.022 463.304 295.419L464.031 297.313L463.293 299.148L463.622 302.402C462.141 303.455 460.959 303.197 458.895 303.373C460.812 303.63 462.247 303.868 464.204 303.813L464.316 306.281L465.128 308.52C459.86 309.224 447.876 310.315 442.632 309.567C438.131 309.211 433.619 309.018 429.104 308.988C428.948 300.425 429.46 296.356 434.001 289.171Z"/><path fill="#1747AE" transform="scale(1.02336 1.02336)" d="M448.292 303.394L458.895 303.373C460.812 303.63 462.247 303.868 464.204 303.813L464.316 306.281L465.128 308.52C459.86 309.224 447.876 310.315 442.632 309.567C442.734 308.001 443.453 305.958 443.915 304.404C445.122 304.045 447.01 303.684 448.292 303.394Z"/><path fill="#8996AF" transform="scale(1.02336 1.02336)" d="M448.292 303.394L458.895 303.373C460.812 303.63 462.247 303.868 464.204 303.813L464.316 306.281C457.906 306.061 449.934 306.121 443.915 304.404C445.122 304.045 447.01 303.684 448.292 303.394Z"/><path fill="#8996AF" transform="scale(1.02336 1.02336)" d="M447.97 301.701C451.024 299.075 459.329 299.253 463.293 299.148L463.622 302.402C462.141 303.455 460.959 303.197 458.895 303.373L448.292 303.394L447.97 301.701Z"/><path fill="#0B1132" transform="scale(1.02336 1.02336)" d="M447.97 301.701C453.189 301.9 458.406 302.133 463.622 302.402C462.141 303.455 460.959 303.197 458.895 303.373L448.292 303.394L447.97 301.701Z"/><path fill="#434246" transform="scale(1.02336 1.02336)" d="M468.784 285.83C471.561 287.165 480.052 291.527 482.751 291.608L483.467 290.668C484.51 295.471 485.437 300.299 486.247 305.148C479.567 306.077 471.613 307.016 465.128 308.52L464.316 306.281L464.204 303.813C462.247 303.868 460.812 303.63 458.895 303.373C460.959 303.197 462.141 303.455 463.622 302.402L463.293 299.148L464.031 297.313L463.304 295.419C464.876 292.067 466.854 288.989 468.784 285.83Z"/><path fill="#1C283F" transform="scale(1.02336 1.02336)" d="M464.031 297.313C469.355 294.919 472.57 293.905 478.443 292.878C474.044 297.467 470.211 301.248 464.204 303.813C462.247 303.868 460.812 303.63 458.895 303.373C460.959 303.197 462.141 303.455 463.622 302.402L463.293 299.148L464.031 297.313Z"/><path fill="#E3E3E2" transform="scale(1.02336 1.02336)" d="M437.628 264.256L438.888 264.607C439.957 270.87 440.256 274.469 444.29 279.531C444.958 280.369 447.255 283.409 447.603 284.347L447.217 284.694C448.327 286.506 447.658 287.434 447.025 289.495C443.868 289.572 441.794 288.727 439.222 287.113C438.107 287.581 434.997 288.966 434.001 289.171L431.545 281.976C433.237 276.047 435.517 270.067 437.628 264.256Z"/><path fill="#09308C" transform="scale(1.02336 1.02336)" d="M447.217 284.694C448.327 286.506 447.658 287.434 447.025 289.495C443.868 289.572 441.794 288.727 439.222 287.113C441.593 286.21 444.726 285.407 447.217 284.694Z"/><path fill="#434246" transform="scale(1.02336 1.02336)" d="M460.699 242.303C464.335 240.678 472.857 237.781 475.779 241.426C476.191 242.943 476.25 243.316 476.313 244.886L475.738 245.203C475.258 249.58 474.61 254.546 474.4 258.893C473.91 259.044 473.425 259.21 472.945 259.389C469.311 260.762 468.677 262.5 467.209 265.835C466.391 255.948 467.617 249.807 460.699 242.303Z"/><path fill="#C79179" transform="scale(1.02336 1.02336)" d="M449.983 284.263C453.008 285.748 460.725 284.214 464.295 283.681C459.689 288.556 459.135 287.65 454.436 290.63C452.775 290.162 448.904 289.746 447.025 289.495C447.658 287.434 448.327 286.506 447.217 284.694L447.603 284.347L449.983 284.263Z"/><path fill="#C79179" transform="scale(1.02336 1.02336)" d="M446.755 253.389C449.925 256.188 448.948 260.208 447.348 263.572L446.743 262.355L446.646 261.069L445.942 260.519L442.86 261.068C441.268 262.923 440.998 263.269 438.888 264.607L437.628 264.256C439.378 259.204 439.821 255.843 445.397 253.982L446.755 253.389Z"/><path fill="#A49B99" transform="scale(1.02336 1.02336)" d="M437.628 264.256C439.378 259.204 439.821 255.843 445.397 253.982C444.169 256.661 440.937 258.577 442.86 261.068C441.268 262.923 440.998 263.269 438.888 264.607L437.628 264.256Z"/><path fill="#B47F6B" transform="scale(1.02336 1.02336)" d="M449.983 284.263C454.269 282.789 462.678 279.598 466.679 279.021C465.967 280.761 465.506 282.256 464.295 283.681C460.725 284.214 453.008 285.748 449.983 284.263Z"/><path fill="#B47F6B" transform="scale(1.02336 1.02336)" d="M446.743 262.355L447.348 263.572C447.511 265.295 448.083 265.829 447.753 267.813L447.042 268.24C445.405 265.718 445.926 265.165 446.743 262.355Z"/><path fill="#5C2D24" transform="scale(1.02336 1.02336)" d="M451.888 251.945C454.387 251.788 458.482 251.572 459.3 254.502C455.913 255.058 453.628 255.461 451.888 251.945Z"/><path fill="#E3E3E2" transform="scale(1.02336 1.02336)" d="M486.299 241.549C496.47 241.487 503.654 242.215 513.684 243.33C515.513 249.886 529.453 293.782 526.88 298.041L524.819 298.541C517.525 299.034 508.491 300.604 501.25 301.849C496.676 281.53 490.627 261.159 486.299 241.549Z"/><path fill="#E3E3E2" transform="scale(1.02336 1.02336)" d="M518.449 249.56C523.315 252.666 548.198 291.692 545.619 296.013C541.101 296.73 535.964 297.252 531.383 297.821C527.969 281.395 522.532 265.762 518.449 249.56Z"/><path fill="#1C283F" transform="scale(1.02336 1.02336)" d="M311.874 349.361C319.628 346.148 340.111 341.951 348.318 344.052C352.248 344.118 354.901 344.373 358.554 345.952C359.506 347.283 360.201 347.812 359.914 349.651C359.07 355.066 352.917 361.463 348.815 364.493C346.995 365.577 345.092 366.807 343.153 367.617L342.756 367.911C342.006 368.986 340.813 370.745 339.698 371.376C327.779 378.124 313.49 379.265 300.542 377.492L298.534 376.294C295.8 372.575 298.66 364.032 304.343 364.189C305.933 361.652 307.338 359.825 309.176 357.447L303.538 353.054C306.854 351.279 308.263 350.539 311.874 349.361Z"/><path fill="#E3E3E2" transform="scale(1.02336 1.02336)" d="M311.874 349.361C319.628 346.148 340.111 341.951 348.318 344.052C352.248 344.118 354.901 344.373 358.554 345.952C355.824 346.973 353.039 348.054 350.282 348.981C340.49 350.844 331.354 352.671 321.694 355.27C316.561 356.895 312.458 357.65 309.504 362.35C304.469 368.423 304.657 370.731 298.217 376.186C300.247 371.949 302.034 368.274 304.343 364.189C305.933 361.652 307.338 359.825 309.176 357.447L303.538 353.054C306.854 351.279 308.263 350.539 311.874 349.361Z"/><path fill="#677498" transform="scale(1.02336 1.02336)" d="M311.874 349.361C319.628 346.148 340.111 341.951 348.318 344.052C336.019 348.057 322.156 351.252 310.351 356.113L309.176 357.447L303.538 353.054C306.854 351.279 308.263 350.539 311.874 349.361Z"/><path fill="#8996AF" transform="scale(1.02336 1.02336)" d="M311.874 349.361C312.134 352.756 309.706 352.919 310.351 356.113L309.176 357.447L303.538 353.054C306.854 351.279 308.263 350.539 311.874 349.361Z"/><path fill="#677498" transform="scale(1.02336 1.02336)" d="M298.217 376.186C304.657 370.731 304.469 368.423 309.504 362.35C309.108 365.443 308.492 366.619 307.246 369.52C307.981 379.4 320.936 372.145 325.027 368.639L325.959 369.543L325.319 370.157L325.763 370.811C329.198 371.093 336.68 368.531 340.19 367.427L343.153 367.617L342.756 367.911C342.006 368.986 340.813 370.745 339.698 371.376C327.779 378.124 313.49 379.265 300.542 377.492L298.534 376.294C295.8 372.575 298.66 364.032 304.343 364.189C302.034 368.274 300.247 371.949 298.217 376.186Z"/><path fill="#1747AE" transform="scale(1.02336 1.02336)" d="M300.542 377.492C311.991 377.123 322.643 374.257 333.348 370.494C336.218 369.486 339.762 368.2 342.756 367.911C342.006 368.986 340.813 370.745 339.698 371.376C327.779 378.124 313.49 379.265 300.542 377.492Z"/><defs><linearGradient id="gradient_3" gradientUnits="userSpaceOnUse" x1="315.02005" y1="369.94144" x2="320.02954" y2="358.49588"><stop offset="0" stop-color="#AEADBD"/><stop offset="1" stop-color="#D3D1D5"/></linearGradient></defs><path fill="url(#gradient_3)" transform="scale(1.02336 1.02336)" d="M309.504 362.35C312.458 357.65 316.561 356.895 321.694 355.27L322.699 358.035C328.592 366.736 317.893 371.401 310.134 369.554L307.246 369.52C308.492 366.619 309.108 365.443 309.504 362.35Z"/><path fill="#434246" transform="scale(1.02336 1.02336)" d="M309.504 362.35C312.458 357.65 316.561 356.895 321.694 355.27L322.699 358.035C318.261 359.454 313.594 360.953 311.344 365.482C310.701 366.756 310.291 368.135 310.134 369.554L307.246 369.52C308.492 366.619 309.108 365.443 309.504 362.35Z"/><path fill="#F3A140" transform="scale(1.02336 1.02336)" d="M358.554 345.952C359.506 347.283 360.201 347.812 359.914 349.651C359.07 355.066 352.917 361.463 348.815 364.493C347.524 358.437 351.816 357.472 350.006 350.199L350.282 348.981C353.039 348.054 355.824 346.973 358.554 345.952Z"/><path fill="#D8A186" transform="scale(1.02336 1.02336)" d="M350.006 350.199C351.816 357.472 347.524 358.437 348.815 364.493C346.995 365.577 345.092 366.807 343.153 367.617L340.19 367.427C343.427 362.257 346.857 355.648 350.006 350.199Z"/><path fill="#BABECA" transform="scale(1.02336 1.02336)" d="M325.027 368.639C325.571 366.813 325.749 365.353 327.186 364.227L327.88 364.571C328.191 366.752 327.383 367.957 325.959 369.543L325.027 368.639Z"/><defs><linearGradient id="gradient_4" gradientUnits="userSpaceOnUse" x1="337.41141" y1="360.7305" x2="338.82507" y2="353.37561"><stop offset="0" stop-color="#BBB9C7"/><stop offset="1" stop-color="#D2D0D1"/></linearGradient></defs><path fill="url(#gradient_4)" transform="scale(1.02336 1.02336)" d="M332.277 357.663C335.395 354.935 339.159 351.494 343.204 354.658C344.818 358.11 341.875 360.892 339.725 363.315C333.35 367.037 328.6 364.984 332.277 357.663Z"/><path fill="#8996AF" transform="scale(1.02336 1.02336)" d="M339.725 363.315C333.35 367.037 328.6 364.984 332.277 357.663C335.206 359.678 336.991 360.97 339.725 363.315Z"/><path fill="#1C283F" transform="scale(1.02336 1.02336)" d="M311.558 393.73C319.381 392.485 330.174 393.853 335.35 399.924C350.174 417.313 334.085 421.229 319.893 420.825C302.057 420.45 297.836 416.194 287.454 402.024C295.966 396.143 301.492 394.917 311.558 393.73Z"/><path fill="#1C283F" transform="scale(1.02336 1.02336)" d="M314.104 308.532C327.585 307.726 346.448 308.283 359.599 311.219C355.287 312.815 352.359 313.947 347.866 314.942C335.117 315.906 315.704 314.157 302.422 313.247C306.324 311.517 310.125 310.064 314.104 308.532Z"/><path fill="#1747AE" transform="scale(1.02336 1.02336)" d="M480.809 325.634C482.999 321.004 489.939 316.622 494.37 320.993C494.23 323.652 494.129 324.186 495.094 326.653C491.791 330.837 480.374 334.669 480.018 327.902L480.809 325.634Z"/><path fill="#09308C" transform="scale(1.02336 1.02336)" d="M480.018 327.902C483.629 326.837 491.42 326.232 495.094 326.653C491.791 330.837 480.374 334.669 480.018 327.902Z"/><path fill="#09308C" transform="scale(1.02336 1.02336)" d="M480.809 325.634C482.999 321.004 489.939 316.622 494.37 320.993C491.548 322.826 484.334 324.651 480.809 325.634Z"/><path fill="#1747AE" transform="scale(1.02336 1.02336)" d="M540.152 315.986C543.677 311.645 547.699 309.167 553.076 312.066C553.067 314.176 553.136 315.485 553.338 317.576C550.027 321.667 543.044 326.283 539.744 319.544L540.152 315.986Z"/><path fill="#09308C" transform="scale(1.02336 1.02336)" d="M539.744 319.544C542.169 318.652 551.024 316.704 553.338 317.576C550.027 321.667 543.044 326.283 539.744 319.544Z"/><path fill="#09308C" transform="scale(1.02336 1.02336)" d="M540.152 315.986C543.677 311.645 547.699 309.167 553.076 312.066C548.82 314.798 545.309 316.019 540.152 315.986Z"/><path fill="#BABECA" transform="scale(1.02336 1.02336)" d="M223.646 333.231C225.325 333.506 226.004 333.862 226.957 335.021L226.759 336.142C225.335 338.126 224.302 338.481 222.127 339.588C220.18 339.226 218.706 338.807 218.983 336.684C220.321 334.739 221.543 334.31 223.646 333.231Z"/><path fill="#1747AE" transform="scale(1.02336 1.02336)" d="M421.512 324.009L422.493 324.818C424.464 329.012 427.032 343.311 427.426 348.282C426.85 347.979 426.208 347.296 426.129 346.646C425.2 338.984 422.89 331.507 421.512 324.009Z"/><path fill="#DF4641" transform="scale(1.02336 1.02336)" d="M201.256 185.64C207.928 185.806 213.957 192.331 221.376 187.445L221.837 190.163C236.633 195.15 243.821 196.928 251.17 212.283C254.817 219.902 259.47 229.541 260.868 237.974C261.904 244.486 262.444 246.666 265.167 252.842C260.307 255.527 254.103 265.292 248.567 264.578C246.985 263.756 246.458 262.789 245.849 261.028C245.607 260.323 245.429 259.598 245.316 258.861C244.702 265.35 244.168 271.1 243.993 277.64L240.832 281.388C239.963 282.367 238.632 283.973 237.713 284.805L233.966 287.417C219.706 288.076 210.559 288.445 210.351 305.275C199.228 305.549 187.73 303.978 176.589 303.259C174.744 296.701 176.511 251.565 176.8 241.852L172.149 247.034C165.855 242.852 160.481 237.46 154.627 232.554L153.094 231.415L152.861 230.446C161.249 216.103 170.26 199.028 186.346 192.649C191.079 190.772 196.136 189.662 200.777 187.789L201.085 187.662L201.256 185.64Z"/><path fill="#F2B494" transform="scale(1.02336 1.02336)" d="M241.627 250.371C242.242 249.477 251.584 244.881 253.937 243.165C256.167 241.539 258.552 239.832 260.868 237.974C261.904 244.486 262.444 246.666 265.167 252.842C260.307 255.527 254.103 265.292 248.567 264.578C246.985 263.756 246.458 262.789 245.849 261.028C245.607 260.323 245.429 259.598 245.316 258.861C245.048 257.341 244.708 255.835 244.298 254.347C243.737 252.298 243.399 251.378 241.627 250.371Z"/><path fill="#F2B494" transform="scale(1.02336 1.02336)" d="M201.256 185.64C207.928 185.806 213.957 192.331 221.376 187.445L221.837 190.163C221.517 191.655 220.906 193.662 220.06 194.957C218.653 197.076 216.415 198.5 213.899 198.874C206.549 199.99 201.92 194.524 201.085 187.662L201.256 185.64Z"/><path fill="#E3E3E2" transform="scale(1.02336 1.02336)" d="M241.627 250.371C243.399 251.378 243.737 252.298 244.298 254.347C244.708 255.835 245.048 257.341 245.316 258.861C244.702 265.35 244.168 271.1 243.993 277.64L240.832 281.388C240.616 274.682 240.86 256.448 241.627 250.371Z"/><path fill="#F2B494" transform="scale(1.02336 1.02336)" d="M191.815 154.945C190.755 142.285 187.515 138.703 197.645 129.45C209.304 118.801 213.396 121.655 227.838 123.594C230.485 123.949 234.901 121.915 238.321 122.149C241.915 124.169 238.678 126.538 240.471 129.034C241.197 130.046 243.233 130.467 243.962 132.93C243.914 135.536 241.707 138.475 240.246 140.672C239.704 146.156 239.098 155.749 238 160.765C236.753 172.221 233.731 182.072 221.867 186.571L221.376 187.445C213.957 192.331 207.928 185.806 201.256 185.64C201.181 181.154 200.526 176.175 200.429 171.284C194.508 163.414 190.775 168.954 191.815 154.945Z"/><path fill="#1C283F" transform="scale(1.02336 1.02336)" d="M191.815 154.945C190.755 142.285 187.515 138.703 197.645 129.45C209.304 118.801 213.396 121.655 227.838 123.594C230.485 123.949 234.901 121.915 238.321 122.149C241.915 124.169 238.678 126.538 240.471 129.034C241.197 130.046 243.233 130.467 243.962 132.93C243.914 135.536 241.707 138.475 240.246 140.672C238.936 141.653 235.943 144.059 234.6 144.522C224.452 145.76 215.932 143.235 206.467 139.928C205.769 147.315 205.403 152.773 202.148 159.653L199.878 155.663C198.157 155.424 193.555 154.677 192.051 154.761L191.815 154.945Z"/><path fill="#D8A186" transform="scale(1.02336 1.02336)" d="M200.429 171.284C202.881 173.785 207.029 178.238 209.687 180.177C213.345 182.845 218.676 182.598 221.867 186.571L221.376 187.445C213.957 192.331 207.928 185.806 201.256 185.64C201.181 181.154 200.526 176.175 200.429 171.284Z"/><path fill="#656467" transform="scale(1.02336 1.02336)" d="M234.6 144.522C235.943 144.059 238.936 141.653 240.246 140.672C239.704 146.156 239.098 155.749 238 160.765C236.988 158.036 237.013 154.225 234.873 152.663L235.467 151.212C236.676 148.851 237.409 145.84 234.6 144.522Z"/><path fill="#5C2D24" transform="scale(1.02336 1.02336)" d="M234.873 152.663C232.096 153.469 230.628 154.055 228.699 151.808L228.933 150.653L230.247 149.855C232.139 149.503 233.7 150.428 235.467 151.212L234.873 152.663Z"/><path fill="#D8A186" transform="scale(1.02336 1.02336)" d="M217.45 175.397C217.554 171.922 223.333 172.79 225.474 173.828C226.323 175.076 226.182 174.439 226.249 175.715C224.664 178.103 223.868 179.765 220.863 179.339C219.132 178.139 218.598 177.115 217.45 175.397Z"/><path fill="#5C2D24" transform="scale(1.02336 1.02336)" d="M217.45 175.397C217.554 171.922 223.333 172.79 225.474 173.828C226.323 175.076 226.182 174.439 226.249 175.715C222.836 175.981 220.82 175.816 217.45 175.397Z"/><path fill="#5C2D24" transform="scale(1.02336 1.02336)" d="M214.016 149.43L217.152 149.355C218.694 150.207 218.504 149.787 219.012 151.081C217.751 152.386 218.02 151.991 215.939 152.496C213.925 152.821 212.191 153.417 210.698 151.823C211.797 150.172 212.099 150.388 214.016 149.43Z"/><path fill="#5C2D24" transform="scale(1.02336 1.02336)" d="M228.024 155.593C229.732 155.879 229.813 155.866 231.151 156.899C232.196 158.646 231.867 160.014 231.736 162.101C229.873 161.648 229.398 161.704 228.195 160.354C227.476 158.661 227.816 157.452 228.024 155.593Z"/><path fill="#5C2D24" transform="scale(1.02336 1.02336)" d="M213.808 155.52C215.413 155.99 215.462 156.063 216.777 157.147C217.765 158.756 217.554 159.97 217.506 161.837C215.092 161.683 215 161.681 213.622 160.123C213.184 158.233 213.458 157.384 213.808 155.52Z"/><path fill="#C79179" transform="scale(1.02336 1.02336)" d="M224.263 160.394C225.965 162.563 225.617 165.456 225.205 167.994L224.479 167.982C223.95 165.864 224.198 162.681 224.263 160.394Z"/><path fill="#C79179" transform="scale(1.02336 1.02336)" d="M217.084 168.964C219.199 168.601 221.599 168.318 223.478 169.474C221.184 169.854 219.164 170.057 217.084 168.964Z"/><path fill="#F3A140" transform="scale(1.02336 1.02336)" d="M402.136 191.205C409.057 191.219 415.978 191.181 422.899 191.088C431.162 190.918 437.464 188.245 439.508 197.928C440.887 204.459 442.553 212.388 444.718 218.634L426.751 218.7L426.389 220.19C424.457 221.246 424.194 220.718 422.163 221.164C416.866 221.575 407.826 221.361 402.64 221.222L403.231 218.54C400.645 218.601 396.714 218.911 394.502 217.651C396.802 208.544 398.85 200.036 402.136 191.205Z"/><path fill="#1A191B" transform="scale(1.02336 1.02336)" d="M403.231 218.54C410.756 218.362 419.318 218.033 426.751 218.7L426.389 220.19C424.457 221.246 424.194 220.718 422.163 221.164C416.866 221.575 407.826 221.361 402.64 221.222L403.231 218.54Z"/><path fill="#E3E3E2" transform="scale(1.02336 1.02336)" d="M415.612 195.941C418.646 195.614 422.768 195.439 424.954 197.941L424.724 198.918C423.179 200.127 421.63 200.08 419.626 200.325C419.5 204.824 419.085 209.362 418.732 213.852C417.303 214.725 416.992 214.712 415.656 213.979C412.794 208.459 418.902 204.269 410.113 197.796L410.037 197.17C411.721 196.053 413.534 196.129 415.612 195.941Z"/><path fill="#E3E3E2" fill-opacity="0.93725491" transform="scale(1.02336 1.02336)" d="M416.419 479.682C426.568 479.288 438.405 477.311 448.51 476.081C460.172 474.777 471.863 473.737 483.572 472.96L487.946 473.513C484.467 474.07 480.564 474.464 477.046 474.648C456.745 475.715 436.518 479.348 416.325 480.83L416.419 479.682Z"/><path fill="#E3E3E2" transform="scale(1.02336 1.02336)" d="M571.163 211.867C574.629 212.317 576.529 212.496 577.886 215.811C577.867 217.98 577.383 218.583 576.345 220.418C569.446 221.946 569.438 216.814 571.163 211.867Z"/><path fill="#E3E3E2" transform="scale(1.02336 1.02336)" d="M572.149 243.92C578.92 245.754 578.235 248.667 575.615 254.005C569.967 252.432 569.773 248.439 572.149 243.92Z"/><path fill="#E3E3E2" fill-opacity="0.84313726" transform="scale(1.02336 1.02336)" d="M483.572 472.96C485.98 472.506 495.611 471.876 498.469 471.602C508.459 470.674 518.433 469.582 528.388 468.328L527.5 469.436C522.093 470.245 492.487 473.942 487.946 473.513L483.572 472.96Z"/><path fill="#E3E3E2" fill-opacity="0.80784315" transform="scale(1.02336 1.02336)" d="M416.325 480.83C413.136 481.434 400.739 482.319 398.032 481.125L398.237 481.086L398.272 481.441C399.461 480.569 413.473 479.993 416.419 479.682L416.325 480.83Z"/><path fill="#E3E3E2" fill-opacity="0.76862746" transform="scale(1.02336 1.02336)" d="M528.388 468.328C532.777 467.353 536.122 466.46 540.635 466.389C536.024 467.456 532.247 468.707 527.5 469.436L528.388 468.328Z"/></svg>