<?xml version="1.0" encoding="utf-8" ?><svg xmlns="http://www.w3.org/2000/svg" xmlns:xlink="http://www.w3.org/1999/xlink" width="632" height="632" viewBox="0 0 632 632"><path d="M310.648 150.951C398.722 145.592 474.466 212.643 479.831 300.716C485.196 388.79 418.15 464.538 330.077 469.909C241.996 475.28 166.239 408.227 160.873 320.145C155.508 232.063 222.566 156.311 310.648 150.951Z"/><path fill="white" d="M313.188 159.482C396.639 155.514 467.508 219.941 471.488 303.391C475.468 386.841 411.051 457.719 327.602 461.712C244.135 465.705 173.238 401.272 169.258 317.805C165.277 234.337 229.721 163.45 313.188 159.482Z"/><path fill="#9F6361" d="M311.613 188.541C379.884 183.203 439.537 234.265 444.793 302.543C450.049 370.821 398.914 430.412 330.63 435.585C262.463 440.75 202.995 389.722 197.748 321.56C192.501 253.399 243.458 193.87 311.613 188.541Z"/><path fill="white" d="M328.818 278.598C316.125 276.233 306.966 279.027 295.095 283.752C292.024 284.974 288.495 287.447 285.291 288.068C278.359 289.41 271.041 290.15 264.041 291.133L242.59 294.273C237.598 295.005 231.573 296.238 226.596 295.784C221.56 295.325 219.428 288.946 220.525 284.582C233.573 232.698 287.683 199.948 339.625 209.791C367.713 215.122 392.537 231.38 408.649 254.997C412.834 261.187 416.166 267.687 418.985 274.595C421.833 281.577 424.105 288.155 416.407 293.037L415.913 293.343C408.004 293.711 389.782 291.008 381.202 290.148C374.635 289.537 368.071 288.886 361.512 288.195C358.41 287.874 354.641 287.633 351.64 287.01C348.704 286.401 344.617 283.434 341.861 282.556C340.561 283.064 336.187 281.101 334.253 280.574L334.327 281.076C335.79 281.889 336.994 282.205 338.72 283.261L338.909 283.778L338.789 284.032C333.746 281.456 331.91 280.747 326.373 279.966C327.123 279.687 327.562 279.691 327.907 279.16L327.135 278.666L328.818 278.598Z"/><path fill="#9F6361" d="M326.373 279.966C327.123 279.687 327.562 279.691 327.907 279.16L327.135 278.666L328.818 278.598C332.835 279.347 338.184 280.742 341.861 282.556C340.561 283.064 336.187 281.101 334.253 280.574L334.327 281.076C335.79 281.889 336.994 282.205 338.72 283.261L338.909 283.778L338.789 284.032C333.746 281.456 331.91 280.747 326.373 279.966Z"/><defs><linearGradient id="gradient_0" gradientUnits="userSpaceOnUse" x1="291.29462" y1="314.86899" x2="401.6694" y2="305.24481"><stop offset="0" stop-color="#f6e6e4"/><stop offset="1" stop-color="#fff9f9"/></linearGradient></defs><path fill="url(#gradient_0)" d="M307.68 283.424C316.478 280.599 316.64 279.589 326.373 279.966C331.91 280.747 333.746 281.456 338.789 284.032C348.362 290.765 351.999 289.838 363.275 291.118L395.901 294.665C396.849 294.851 397.575 294.944 398.467 295.334C398.089 296.003 398.294 295.698 397.319 296.093C384.928 295.145 372.343 295.162 359.932 294.159C357.815 293.988 355.316 293.783 353.208 293.758C353.957 297.202 355.103 300.453 355.823 303.806C356.953 309.069 356.527 315.556 356.224 321.016C365.442 320.186 374.656 319.3 383.864 318.358C388.837 317.865 395.178 317.103 400.091 316.909C401.278 316.938 401.725 316.917 402.864 317.183C403.187 317.852 403.143 317.519 403.067 318.17C394.535 320.343 385.908 322.013 377.324 323.921C369.133 325.742 360.002 326.768 352.138 329.437C351.435 329.675 344.592 337.063 342.737 338.499L343.146 340.201C343.47 341.833 342.427 350.854 342.236 353.018L339.405 386.007C338.726 394.049 336.935 405.832 339.261 413.351C332.756 413.686 323.649 414.487 317.587 411.843C315.82 406.544 314.666 398.475 313.508 392.844L306.42 359.051C305.804 356.059 303.674 344.175 302.283 342.147L301.783 341.964C299.684 344.88 302.227 352.363 302.929 355.842C304.653 364.822 306.528 373.772 308.553 382.689C309.237 385.817 311.145 394.145 311.38 397.108C311.214 398.823 311.508 398.909 310.596 399.926C307.986 386.955 305.15 374.03 302.092 361.157C300.769 355.411 297.913 340.558 295.239 335.885C293.503 332.855 290.825 330.474 287.614 329.104C280.395 326.008 270.649 326.266 263.041 324.774C259.286 324.038 237.489 320.761 235.963 319.052C238.186 317.988 280.354 321.086 285.638 321.414C283.733 311.297 284.457 304.394 286.684 294.589C276.209 295.52 263.912 296.652 253.487 297.207C252.601 297.151 251.914 297.092 251.035 296.984L250.765 296.538L251.341 295.823L273.574 292.58C279.003 291.82 284.241 291.47 289.549 289.935C293.335 288.84 301.974 282.036 305.142 283.141C305.996 282.925 306.148 282.864 307.015 282.831L307.68 283.424Z"/><path fill="white" d="M305.142 283.141C305.996 282.925 306.148 282.864 307.015 282.831L307.68 283.424C291.263 292.669 285.701 311.002 295.056 327.547C299.502 335.286 306.828 340.952 315.437 343.309C325.75 346.122 334.062 344.417 342.737 338.499L343.146 340.201C343.47 341.833 342.427 350.854 342.236 353.018L339.405 386.007C338.726 394.049 336.935 405.832 339.261 413.351C332.756 413.686 323.649 414.487 317.587 411.843C315.82 406.544 314.666 398.475 313.508 392.844L306.42 359.051C305.804 356.059 303.674 344.175 302.283 342.147L301.783 341.964C299.684 344.88 302.227 352.363 302.929 355.842C304.653 364.822 306.528 373.772 308.553 382.689C309.237 385.817 311.145 394.145 311.38 397.108C311.214 398.823 311.508 398.909 310.596 399.926C307.986 386.955 305.15 374.03 302.092 361.157C300.769 355.411 297.913 340.558 295.239 335.885C293.503 332.855 290.825 330.474 287.614 329.104C280.395 326.008 270.649 326.266 263.041 324.774C259.286 324.038 237.489 320.761 235.963 319.052C238.186 317.988 280.354 321.086 285.638 321.414C283.733 311.297 284.457 304.394 286.684 294.589C276.209 295.52 263.912 296.652 253.487 297.207C252.601 297.151 251.914 297.092 251.035 296.984L250.765 296.538L251.341 295.823L273.574 292.58C279.003 291.82 284.241 291.47 289.549 289.935C293.335 288.84 301.974 282.036 305.142 283.141Z"/><path fill="#9F6361" d="M305.142 283.141C305.996 282.925 306.148 282.864 307.015 282.831L307.68 283.424C291.263 292.669 285.701 311.002 295.056 327.547C299.502 335.286 306.828 340.952 315.437 343.309C325.75 346.122 334.062 344.417 342.737 338.499L343.146 340.201C342.225 340.739 341.299 341.267 340.367 341.786C332.523 346.143 323.247 347.133 314.66 344.532C305.833 341.942 297.486 335.603 293.143 327.442C288.882 319.413 287.981 310.021 290.637 301.328C292.855 294.084 298.425 286.74 305.142 283.141Z"/><path fill="#9F6361" d="M318.744 357.701C321.752 357.592 326.26 357.608 329.181 357.911L328.393 387.743C328.428 389.282 328.545 391.329 328.387 392.82C328.638 395.604 328.607 398.566 328.634 401.373L322.305 401.459C322.026 399.635 321.953 397.92 321.824 396.085C320.92 383.264 319.539 370.537 318.744 357.701Z"/><defs><linearGradient id="gradient_1" gradientUnits="userSpaceOnUse" x1="324.12302" y1="384.59555" x2="328.63736" y2="383.96381"><stop offset="0" stop-color="#9F6361"/><stop offset="1" stop-color="#9F6361"/></linearGradient></defs><path fill="url(#gradient_1)" d="M325.621 369.144L325.778 369.871L325.736 369.771L325.971 370.703C326.04 369.338 325.826 369.648 326.52 368.715L326.845 368.756L326.862 370.256C327.392 369.7 326.741 368.393 327.208 367.897C328.967 372.386 325.71 384.348 328.393 387.743C328.428 389.282 328.545 391.329 328.387 392.82C328.204 394.913 327.392 397.872 327.941 399.321L327.689 399.78C326.709 399.899 327.161 399.984 326.287 399.503C326.872 397.116 326.456 393.826 325.654 391.509C325.405 385.049 324.83 378.311 324.672 371.974C324.859 372.694 325.022 373.286 325.249 374.001C325.556 373.581 325.567 370.12 325.621 369.144Z"/><path fill="#f1d7d4" d="M325.654 391.509C325.731 393.244 325.957 396.026 325.43 397.611C323.376 393.458 324.298 373.304 323.002 367.648C322.576 365.792 321.742 359.368 324.319 358.974C326.489 360.657 326.834 364.826 325.383 366.882C325.354 367.994 325.313 368.024 325.621 369.144C325.567 370.12 325.556 373.581 325.249 374.001C325.022 373.286 324.859 372.694 324.672 371.974C324.83 378.311 325.405 385.049 325.654 391.509Z"/><path fill="#7f4f4d" d="M324.672 371.974C324.573 368.701 323.437 363.229 324.115 360.482C325.078 361.375 325.229 365.416 325.383 366.882C325.354 367.994 325.313 368.024 325.621 369.144C325.567 370.12 325.556 373.581 325.249 374.001C325.022 373.286 324.859 372.694 324.672 371.974Z"/><path fill="#9F6361" d="M319.293 281.727C336.113 279.364 351.645 291.138 353.914 307.971C356.182 324.805 344.321 340.271 327.474 342.444C310.762 344.6 295.446 332.853 293.196 316.153C290.945 299.453 302.605 284.071 319.293 281.727Z"/><path fill="white" d="M320.368 283.246C336.251 281.433 350.598 292.832 352.421 308.714C354.244 324.595 342.854 338.949 326.974 340.783C311.079 342.618 296.709 331.215 294.884 315.319C293.059 299.423 304.472 285.06 320.368 283.246Z"/><path fill="white" d="M313.54 321.041C308.106 311.337 316.553 300.364 326.825 303.713C328.325 304.372 328.479 304.404 329.686 305.46C332.206 307.89 333.727 310.411 333.828 314.048C333.906 317.146 332.724 320.143 330.552 322.353C328.987 323.97 327.388 324.832 325.297 325.594C324.091 325.681 322.784 325.803 321.586 325.857L321.305 325.817C317.721 325.266 315.652 323.923 313.54 321.041Z"/><path fill="white" d="M329.363 307.072L329.128 306.412L329.686 305.46C332.206 307.89 333.727 310.411 333.828 314.048C333.906 317.146 332.724 320.143 330.552 322.353C328.987 323.97 327.388 324.832 325.297 325.594C324.091 325.681 322.784 325.803 321.586 325.857C320.995 324.945 321.151 325.444 321.198 324.282C318.465 319.633 326.506 311.087 329.363 307.072Z"/><path fill="#9F6361" d="M329.363 307.072L329.128 306.412L329.686 305.46C332.206 307.89 333.727 310.411 333.828 314.048C333.906 317.146 332.724 320.143 330.552 322.353C328.987 323.97 327.388 324.832 325.297 325.594L324.08 324.279C332.762 321.918 333.002 313.94 329.363 307.072Z"/><path fill="#9F6361" d="M321.198 324.282L324.08 324.279L325.297 325.594C324.091 325.681 322.784 325.803 321.586 325.857C320.995 324.945 321.151 325.444 321.198 324.282Z"/><path fill="#9F6361" d="M326.825 303.713C328.325 304.372 328.479 304.404 329.686 305.46L329.128 306.412L329.363 307.072C326.506 311.087 318.465 319.633 321.198 324.282C321.151 325.444 320.995 324.945 321.586 325.857L321.305 325.817C317.721 325.266 315.652 323.923 313.54 321.041C314.448 321.506 314.691 321.718 315.721 321.701L315.718 321.26C317.994 319.536 324.6 308.084 325.21 305.286C324.494 304.686 323.979 304.831 322.858 304.691C324.732 303.935 324.939 305.352 326.825 303.713Z"/><path fill="#9F6361" d="M313.54 321.041C308.106 311.337 316.553 300.364 326.825 303.713C324.939 305.352 324.732 303.935 322.858 304.691C316.623 305.822 312.485 310.085 313.86 316.699C314.183 318.324 314.813 319.872 315.718 321.26L315.721 321.701C314.691 321.718 314.448 321.506 313.54 321.041Z"/><path fill="white" d="M413.154 319.187C436.89 317.073 413.7 361.347 408.115 369.739C397.844 385.208 383.695 397.712 367.081 406.004C362.149 408.463 357.337 410.553 351.912 411.65C346.992 412.112 344.452 411.248 341.399 407.311C340.825 403.528 341.696 399.491 342.312 395.718C344.999 379.277 346.452 362.614 349.756 346.284C352.495 333.403 361.708 330.466 373.207 327.955C386.384 325.078 399.873 321.093 413.154 319.187Z"/><path fill="white" d="M224.803 321.282L224.958 321.277C230.512 321.057 243.34 324.117 249.355 325.16C255.998 326.312 262.808 327.395 269.482 328.474C272.855 334.281 276.105 338.073 281.889 341.648C284.636 343.347 289.824 346.054 291.087 349.088C293.776 355.547 295.423 362.532 297.62 369.172C300.687 378.442 303.903 387.612 306.31 397.09C307.296 400.951 308.581 404.738 309.102 408.71C307.397 411.87 306.822 412.601 303.293 413.475C296.727 413.508 291.732 411.764 285.649 409.482C266.371 402.073 249.636 389.266 237.446 372.594C230.413 363.164 225.091 352.573 221.719 341.303C219.52 334.185 217.634 326.502 224.803 321.282Z"/><path fill="white" d="M248.224 228.886C249.326 229.457 249.762 229.755 250.215 230.761C249.849 231.668 243.121 238.144 241.969 239.379C195.062 289.66 209.148 370.049 267.88 404.035C270.345 405.461 272.796 406.874 275.273 408.032C277.6 409.12 291.945 414.47 289.341 418.389L288.044 418.641C282.735 417.786 277.92 415.261 273.18 412.827C255.178 403.785 239.799 390.273 228.513 373.585C212.289 349.587 206.078 320.201 211.203 291.69C214.781 272.628 223.096 255.938 235.653 241.3C239.468 236.854 243.366 232.231 248.224 228.886Z"/><path fill="white" d="M409.739 244.078C411.288 244.387 414.274 249.435 415.203 250.821C423.463 263.141 428.657 276.439 431.225 291.036C436.66 321.253 429.783 352.388 412.125 377.504C402.549 390.96 390.215 402.221 375.944 410.535C373.068 412.227 368.667 414.756 365.398 415.318C364.643 415.089 364.581 415.029 363.89 414.627C362.217 410.617 377.204 403.601 380.637 401.328C404.371 385.621 420.872 361.109 426.495 333.21C431.125 310.231 428.131 286.848 418.364 265.455C415.311 258.769 410.622 252.054 406.549 245.915C407.548 245.3 408.709 244.669 409.739 244.078Z"/><path fill="white" d="M313.151 190.841C313.217 190.835 313.283 190.828 313.348 190.822C343.67 188.945 373.56 198.744 396.886 218.208C398.734 219.771 409.208 229.242 409.361 230.997L408.806 231.606C408.564 231.66 408.322 231.714 408.079 231.768C406.208 230.699 400.476 225.347 399.181 224.218C384.927 211.876 368.065 202.92 349.858 198.022C348.215 197.579 346.559 197.184 344.893 196.837C316.945 191.121 287.874 195.523 262.872 209.259C257.441 212.205 252.429 215.488 247.591 219.302C246.966 219.795 246.171 219.813 245.406 219.63C244.47 218.843 244.708 219.316 244.503 218.257C246.561 215.577 252.662 211.697 255.706 209.784C272.953 198.731 292.713 192.215 313.151 190.841Z"/><path fill="white" d="M316.163 197.94C345.04 196.441 373.592 207.166 395.472 225.822C397.114 227.223 406.337 234.214 403.956 236.195C402.373 236.154 399.011 232.6 397.659 231.4C393.32 227.546 388.775 223.931 384.044 220.572C373.231 212.882 360.426 207.536 347.652 204.138C320.968 197.589 292.814 200.927 268.401 213.534C264.651 215.465 260.993 217.568 257.438 219.836C255.621 221.015 253.04 223.352 251.046 223.772C249.99 223.396 250.403 223.722 249.812 222.699C249.953 222.327 249.96 222.138 250.267 221.886C268.789 206.714 292.51 199.299 316.163 197.94Z"/><defs><linearGradient id="gradient_2" gradientUnits="userSpaceOnUse" x1="328.64661" y1="413.73376" x2="329.64478" y2="429.48434"><stop offset="0" stop-color="#f1deda"/><stop offset="1" stop-color="white"/></linearGradient></defs><path fill="url(#gradient_2)" d="M270.088 417.308C305.456 431.667 341.412 430.549 376.308 415.783C381.14 413.739 386.074 410.241 391.111 409.024C385.702 413.269 379.542 416.31 373.333 419.156C351.834 429.011 330.101 432.342 306.569 429.532C293.319 427.897 280.448 423.995 268.52 417.998C268.867 417.802 269.685 417.481 270.088 417.308Z"/><path fill="#f1d7d4" d="M400.91 299.719C402.869 298.143 405.481 297.637 407.887 298.369C411.23 299.385 413.45 302.549 413.268 306.038C413.086 309.527 410.55 312.443 407.12 313.107C403.69 313.77 400.249 312.011 398.779 308.842C397.309 305.672 398.188 301.909 400.91 299.719Z"/><path fill="#9F6361" d="M401.797 310.889C399.845 309.449 398.863 307.039 399.252 304.646C399.64 302.252 401.335 300.277 403.642 299.528C405.948 298.78 408.48 299.384 410.2 301.093C412.604 303.483 412.756 307.323 410.549 309.896C408.342 312.468 404.524 312.902 401.797 310.889Z"/><path fill="#9F6361" d="M407.52 302.011C408.208 301.583 408.914 301.71 409.723 301.717L410.2 301.093C412.604 303.483 412.756 307.323 410.549 309.896C408.342 312.468 404.524 312.902 401.797 310.889C403.837 310.867 406.655 311.096 407.289 308.747C409.733 306.565 409.553 304.433 407.52 302.011Z"/><path fill="#f5e3e1" d="M407.52 302.011C409.553 304.433 409.733 306.565 407.289 308.747C405.181 308.226 403.778 307.891 403.186 305.599C403.503 302.825 405.152 302.546 407.52 302.011Z"/><path fill="#f1d7d4" d="M234.247 300.778C238.296 299.976 242.228 302.607 243.031 306.656C243.834 310.704 241.204 314.637 237.157 315.442C233.106 316.247 229.17 313.615 228.367 309.565C227.563 305.514 230.196 301.58 234.247 300.778Z"/><path fill="#9F6361" d="M235.008 301.834C238.408 301.44 241.506 303.818 242.003 307.205C242.501 310.591 240.218 313.76 236.848 314.361C234.575 314.766 232.262 313.902 230.811 312.106C229.36 310.311 229.001 307.867 229.874 305.73C230.747 303.593 232.714 302.1 235.008 301.834Z"/><path fill="white" d="M235.658 305.661C238.498 305.93 239.864 309.538 236.63 311.58C234.996 311.326 233.951 311.136 233.438 309.359C233.604 307.413 234.172 306.973 235.658 305.661Z"/><path fill="white" d="M411.977 234.625C412.898 234.569 413.228 234.599 414.127 234.666L414.402 234.999C413.874 235.455 411.902 236.381 411.186 236.709C408.101 238.122 406.432 240.563 404.46 243.235L403.646 243.178C399.393 239.786 409.473 235.417 411.977 234.625Z"/><defs><linearGradient id="gradient_3" gradientUnits="userSpaceOnUse" x1="405.41229" y1="295.49475" x2="402.55972" y2="298.77228"><stop offset="0" stop-color="#9F6361"/><stop offset="1" stop-color="#9F6361"/></linearGradient></defs><path fill="url(#gradient_3)" d="M395.901 294.665C398.335 294.693 405.597 295.017 407.585 295.987L407.619 296.484L407.093 296.709L407.923 297.143C408.026 297.923 408.081 297.661 407.887 298.369C405.481 297.637 402.869 298.143 400.91 299.719C400.692 298.041 400.301 297.442 399.106 296.278L397.319 296.093C398.294 295.698 398.089 296.003 398.467 295.334C397.575 294.944 396.849 294.851 395.901 294.665Z"/><path fill="#f1d7d4" d="M395.901 294.665C398.335 294.693 405.597 295.017 407.585 295.987L407.619 296.484L407.093 296.709C405.145 296.778 401.352 296.373 399.106 296.278L397.319 296.093C398.294 295.698 398.089 296.003 398.467 295.334C397.575 294.944 396.849 294.851 395.901 294.665Z"/><path fill="#f5e3e1" d="M233.527 298.603C237.471 297.304 246.789 296.396 251.341 295.823L250.765 296.538L251.035 296.984C251.914 297.092 252.601 297.151 253.487 297.207C250.307 297.906 236.553 298.876 233.527 298.603Z"/><path fill="#f5e3e1" d="M311.38 397.108C312.327 401.482 313.652 406.385 313.509 410.784C311.91 407.133 311.362 403.805 310.596 399.926C311.508 398.909 311.214 398.823 311.38 397.108Z"/><path fill="#f1d7d4" d="M239.857 221.797C240.6 221.966 240.325 221.776 240.74 222.273C240.065 223.677 235.193 227.777 233.701 229.09L233.337 229.122C233.46 227.747 238.589 222.95 239.857 221.797Z"/><path fill="white" d="M400.091 316.909C403.184 316.364 405.359 316.347 408.48 316.562C406.701 317.173 404.914 317.878 403.067 318.17C403.143 317.519 403.187 317.852 402.864 317.183C401.725 316.917 401.278 316.938 400.091 316.909Z"/><path fill="#f1d7d4" d="M264.305 415.396C266.569 415.959 267.899 416.464 270.088 417.308C269.685 417.481 268.867 417.802 268.52 417.998C266.732 417.184 265.879 416.519 264.305 415.396Z"/><path d="M469.209 205.41C471.705 206.076 486.037 216.924 489.64 218.842C493.097 221.152 494.447 227.155 496.294 230.605C505.348 247.507 510.798 263.921 513.949 282.91C522.028 332.109 510.135 382.497 480.911 422.891C457.371 455.719 421.802 481.74 383.487 494.764C364.931 501.072 348.06 503.606 328.885 506.747C335.576 508.763 341.295 510.215 348.129 511.776C348.061 512.973 348.061 514.303 348.033 515.513C346.025 514.875 342.155 513.919 339.913 513.348C333.681 511.761 325.924 508.907 319.601 508.586C317.711 508.489 311.501 510.193 309.396 510.654C304.471 511.734 298.083 514.101 293.225 514.852L292.753 514.492L292.703 512.155C293.791 510.575 308.261 507.751 311.345 506.953C301.022 504.661 290.134 503.885 279.322 501.161C230.433 488.841 192.544 466.343 162.215 425.599C137.929 393.201 124.791 353.806 124.769 313.315C124.841 302.506 125.709 295.194 127.254 284.565C129.169 271.523 134.889 249.322 142.188 238.361C141.201 242.657 139.106 247.689 137.59 251.933C135.945 256.612 134.498 261.359 133.255 266.16C125.313 297.519 125.605 330.397 134.104 361.609C146.701 407.944 179.464 450.577 221.105 474.752C245.583 488.962 272.347 496.903 300.047 501.806C304.859 502.658 315.97 504.516 320.602 504.361C326.331 504.169 336.416 502.277 342.325 501.148C352.326 499.237 363.803 497.074 373.597 494.372C420.852 481.332 465.568 446.771 489.737 404.074C511.741 364.938 518.863 319.169 509.79 275.197C508.554 269.376 506.878 262.83 505.093 257.157C503.109 250.851 500.605 244.804 498.828 238.379C491.554 235.091 484.494 230.876 477.394 227.178C476.224 224.697 474.567 219.922 473.55 217.229C472.264 213.822 470.171 208.794 469.209 205.41Z"/><path d="M178.563 475.875C180.96 476.837 183.795 479.921 186.932 481.466C193.084 479.715 203.332 477.954 210.088 476.505C215.428 479.364 218.723 482.072 224.84 484.948C216.654 485.948 206.66 489.373 198.28 490.714C202.038 492.586 204.864 494.845 208.465 496.943C214.203 494.836 221.514 492.829 227.588 490.73C229.168 490.181 231.049 489.668 232.677 489.185C237.925 491.142 243.051 493.615 248.429 495.586C244.95 496.543 222.839 505.063 222.849 505.066C213.534 501.523 183.781 483.34 178.563 475.875Z"/><path fill="#9F6361" d="M209.83 152.415L210.134 152.489L210.348 152.873C209.836 156.672 207.512 163.741 206.352 167.524C211.09 170.708 215.012 173.786 219.468 177.345C214.113 177.445 208.803 177.759 203.438 177.65C202.353 182.654 201.076 187.614 199.61 192.519C197.231 187.911 194.989 183.234 192.887 178.494L190.017 178.528C185.398 178.767 180.602 178.875 175.966 179.044C178.707 176.232 185.669 170.679 188.989 167.868C187.051 163.809 184.581 156.994 182.843 152.668C186.85 154.669 193.563 158.803 197.28 161.378C201.52 158.248 205.449 155.346 209.83 152.415Z"/><path fill="#9F6361" d="M223.353 126.35C225.893 127.999 232.821 135.071 235.055 137.439C239.444 135.14 245.35 132.611 249.933 130.615C247.62 135.439 245.108 140.166 242.405 144.782C246.191 148.946 249.863 152.971 253.884 156.911C249.956 155.955 244.103 155.567 239.543 154.638L238.216 154.396C237.045 155.066 231.601 167.143 230.433 169.451C229.385 163.892 227.856 158.644 227.048 152.931C222.988 152.465 214.001 150.968 210.207 149.842C215.346 147.252 220.23 144.613 225.477 142.215C224.449 138.264 223.699 130.52 223.353 126.35Z"/><path fill="#9F6361" d="M416.241 126.467C416.501 128.828 414.818 139.637 414.362 142.309C418.976 144.348 425.033 147.634 429.653 149.987C425.251 151.138 417.204 152.425 412.671 152.948C412.124 157.82 410.641 164.35 409.593 169.18C408.426 166.728 403.074 155.813 401.743 154.442L400.802 154.475C395.873 155.433 390.926 156.215 385.992 157.195C389.542 153.473 393.853 148.901 397.055 144.95C394.711 140.269 392.231 135.471 390.077 130.715C394.979 132.925 399.86 135.184 404.717 137.49C408.089 133.737 412.477 129.85 416.241 126.467Z"/><path fill="#9F6361" d="M269.416 108.568C270.783 110.139 277.744 120.463 278.906 122.377C283.444 120.785 290.381 119.279 295.188 118.08C292.653 121.975 287.566 127.322 284.306 130.91C287.336 134.474 290.112 140.572 293.307 144.777C289.354 143.757 286.267 142.549 282.534 141.02C281.09 140.377 279.624 139.658 278.191 138.979C274.491 143.173 270.935 147.578 267.199 151.825C267.83 146.859 267.348 141.244 268.088 135.501C263.439 133.983 256.828 131.29 252.56 129.052C256.626 128.318 263.625 126 268.223 124.866C268.264 121.257 268.621 111.918 269.416 108.568Z"/><path fill="#9F6361" d="M319.898 102.012C320.855 102.777 325.006 114.904 325.761 116.953C330.601 116.578 336.632 116.704 341.575 116.698C338.016 120.051 332.217 124.142 328.152 126.95C329.928 131.967 331.728 138.2 333.018 143.361C328.959 140.532 323.667 136.066 319.634 132.916C316.443 136.036 309.995 140.546 306.333 143.218C308.298 138.056 309.694 132.296 311.648 126.95C306.444 123.343 302.535 120.629 297.743 116.5L314.769 116.702C315.603 112.969 318.448 105.86 319.898 102.012Z"/><path fill="#9F6361" d="M429.958 152.36C431.49 153.131 440.447 159.871 442.407 161.309C446.473 159.132 452.951 154.691 456.968 153.035C454.94 157.606 453.459 162.764 451.346 167.646C455.516 171.541 459.731 175.386 463.992 179.181C460.422 178.781 455.024 178.701 451.241 178.492L447.168 178.129C445.077 182.92 443.011 187.663 440.418 192.208C439.218 187.284 437.754 182.489 436.559 177.423C431.283 177.319 426.071 177.017 420.777 177.071C423.719 174.267 430.275 169.652 433.749 167.414C432.446 162.776 430.726 157.063 429.958 152.36Z"/><path fill="#9F6361" d="M370.546 109.162C371.465 110.299 371.517 122.952 371.543 125.274C376.401 126.269 381.974 128.452 387.245 129.61C382.486 131.881 376.743 133.858 371.773 135.657C372.273 140.884 372.178 147.71 372.857 152.307C369.267 147.851 365.734 143.396 361.926 139.121C360.97 139.664 359.639 140.233 358.617 140.707C354.363 142.636 350.745 143.809 346.303 145.274C349.779 141.134 352.426 135.527 355.696 130.905C351.886 126.773 348.184 122.542 344.596 118.216C349.624 119.239 356.484 120.887 361.297 122.332C363.818 118.057 367.596 113.42 370.546 109.162Z"/><path d="M125.272 222.374C125.9 222.767 126.26 226.518 126.816 228C128.842 233.396 131.663 238.881 135.191 243.43C133.667 248.347 131.359 253.581 130.066 258.456C124.613 251.589 121.854 246.964 118.312 239.049C117.767 241.91 116.482 245.409 116.359 248.244C116.149 253.048 120.528 258.068 123.371 261.758C124.8 263.621 126.123 265.029 127.725 266.753C126.19 271.618 125.143 276.624 124.6 281.697C119.955 277.864 112.985 270.068 110.619 264.694C111.442 252.54 120.12 233.103 125.272 222.374Z"/><path d="M133.066 422.226L133.953 421.897C136.285 424.266 153.505 425.626 157.562 425.801C159.981 429.118 163.891 434.613 166.496 437.653C159.506 437.395 150.678 437.129 143.754 436.371C144.614 438.461 147.751 441.755 148.118 443.016C151.537 444.404 168.509 444.391 172.642 444.402C176.37 448.45 179.379 451.801 183.78 455.173C180.593 455.257 160.903 455.467 159.673 456.164L159.78 456.895L159.545 457.357C156.105 453.025 151.574 448.654 147.833 443.983C146.147 441.988 144.468 439.317 142.994 437.11C140.262 433.758 135.045 425.952 133.066 422.226Z"/><path d="M170.619 205.555L170.796 205.846C170.577 208.023 163.795 224.821 162.545 227.924C159.764 229.828 146.362 236.823 143.304 238.029L143.097 237.669C143.087 235.843 148.622 222.343 149.728 219.416C156.81 214.888 163.349 210.074 170.619 205.555Z"/><path d="M141.207 198.001C141.496 198.27 141.746 198.656 141.817 199.05C143.019 205.716 143.806 213.797 146.504 220.047C144.138 225.964 141.648 231.236 139.673 237.365L138.413 234.748C136.544 231.049 134.82 227.413 133.446 223.495C132.384 220.468 131.667 216.958 130.383 214.069C133.283 209.197 137.909 202.734 141.207 198.001Z"/><path d="M430.44 475.819C439.562 477.84 446.029 479.716 455.59 480.693C456.864 479.938 457.972 479.14 459.399 478.819C458.451 481.014 447.571 487.593 444.904 489.144L441.246 491.189L442.383 490.742C440.096 489.908 435.326 488.882 432.779 488.264C427.261 486.898 421.73 485.587 416.186 484.331C420.631 481.863 426.304 478.725 430.44 475.819Z"/><path d="M257.019 499.337C261.913 499.877 267.604 503.34 274.772 503.902C266.096 507.267 257.041 512.327 248.767 515.287C245.875 514.538 243.302 513.714 240.468 512.8C235.56 511.127 228.052 508.862 224.039 505.711C226.664 506.411 230.545 508.172 233.193 509.279C240.837 506.533 249.533 502.635 257.019 499.337Z"/><path d="M364.148 504.026C371.698 503.029 375.965 501.134 383.052 499.288C391.649 502.697 397.934 505.711 406.929 508.804L407.785 509.841C402.079 511.675 397.343 513.731 391.362 515.104C383.264 511.635 372.335 506.705 364.148 504.026Z"/><path d="M494.611 441.273L495.08 441.398C494.742 442.934 482.18 457.115 480.508 458.086C481.037 456.75 481.878 456.042 482.871 454.984C477.999 455.38 469.905 455.028 464.819 454.944C462.43 454.824 459.901 454.846 457.497 454.828C461.489 450.743 465.041 447.014 468.831 442.737C473.599 443.895 490.354 443.609 494.611 441.273Z"/><path d="M451.138 460.696C456.929 461.527 472.768 462.18 478.366 460.553C474.759 464.372 469.784 469.376 465.949 472.849L465.491 473.34C460.373 473.654 444.008 471.381 438.412 470.64C442.801 467.442 446.873 464.048 451.138 460.696Z"/><path d="M188.743 460.813C193.639 463.782 197.739 468.239 203.376 471.407C199.304 471.466 193.948 472.212 189.823 472.711C185.577 473.226 180.684 473.638 176.529 474.29C172.518 470.612 168.734 466.761 164.779 463.035L165.078 462.133C169.253 462.251 184.585 461.351 188.743 460.813Z"/><path d="M407.512 488.863L431.647 496.423C433.547 495.55 434.741 495.004 436.735 494.347C432.063 498.091 426.4 500.297 420.947 502.707C419.848 503.273 418.139 503.962 416.965 504.48C414.352 503.104 410.237 501.847 407.365 500.779L392.701 495.18C397.258 494.035 402.967 490.863 407.512 488.863Z"/><path d="M499.708 198.011C501.647 199.427 508.677 211.008 510.604 213.904C507.939 221.055 506.712 225.725 503.535 233.069C503.046 234.157 502.578 235.014 502.006 236.063C500.799 231.716 496.685 223.848 494.617 219.725C497.526 211.414 498.087 206.483 499.708 198.011Z"/><path d="M108.435 265.317C109.23 266.111 110.096 272.415 111.298 274.584C114.246 279.903 118.681 284.167 122.895 288.422C122.775 290.735 122.567 301.571 121.41 302.841L120.691 302.488C115.043 297.844 110.215 293.08 104.815 288.244C106.354 281.786 106.439 272.915 108.435 265.317Z"/><path d="M536.086 290.881L536.393 291.125C537.524 293.273 537.825 309.926 537.823 313.279C534.044 316.71 524.85 323.221 520.519 326.206C520.16 326.481 520.399 326.375 519.741 326.295C519.306 325.037 519.816 313.464 519.886 311.148C526.666 306.196 535.966 299.926 536.086 290.881Z"/><path d="M520.116 398.515L520.802 398.735C518.945 403.255 515.561 409.213 513.153 413.621C509.258 414.276 504.942 415.278 501.003 416.016C497.397 416.691 491.975 417.527 488.684 418.616C491.545 413.92 494.326 409.175 497.027 404.385C504.05 403.463 513.582 401.031 520.116 398.515Z"/><path d="M104.559 291.475C105.705 292.641 105.087 294.774 105.582 296.031C107.729 301.473 117.101 309.009 121.584 311.957C121.557 314.182 122.251 326.257 121.592 327.409C115.425 323.497 109.375 318.427 103.603 313.938C103.673 307.05 103.991 298.353 104.559 291.475Z"/><path d="M524.816 244.548C526.832 246.071 530.593 261.726 531.365 264.966C528.263 268.835 522.68 275.207 519.149 278.635L518.842 278.915C518.243 279.452 517.587 280.226 516.935 280.191C515.944 275.534 514.891 270.89 513.776 266.261C518.639 259.654 524.581 252.837 524.816 244.548Z"/><path d="M536.821 319.174L537.433 319.754C537.836 323.452 537.018 335.755 536.668 339.717C530.811 343.632 522.978 347.926 516.715 351.628C516.09 350.392 518.188 338.459 518.59 336.226C522.574 334.411 532.91 326.986 536.422 324.168L536.821 319.174Z"/><path d="M105.505 346.343C106.656 347.153 106.591 349.764 106.721 351.125C110.446 353.718 123.515 360.147 127.62 361.895C128.633 366.354 130.382 371.515 131.182 375.567C129.314 374.974 125.647 373.338 123.726 372.553C118.682 370.512 113.652 368.436 108.636 366.326C107.165 359.729 105.496 353.117 105.505 346.343Z"/><path d="M104.023 319.607C104.699 320.463 104.831 323.181 104.984 324.502C108.364 327.591 112.027 330.356 115.925 332.758C118.031 334.077 121.213 335.765 123.022 337.291C123.283 342.409 123.998 347.494 125.16 352.485C121.85 350.662 118.469 348.408 115.178 346.472C111.589 344.36 107.856 342.273 104.381 340.001C104.345 335.735 103.142 322.881 104.023 319.607Z"/><path d="M532.698 269.3C534.094 273.103 535.09 283.383 536.255 288.144C532.352 291.089 524.744 298.314 520.566 301.885C520.489 301.96 520.043 302.215 519.932 302.281C519.133 301.424 518.284 289.597 518.043 287.419C522.171 283.745 531.468 274.479 532.698 269.3Z"/><path d="M508.59 420.919C508.801 420.973 509.013 421.027 509.224 421.082C508.723 423.17 501.144 433.314 499.488 435.376C496.507 435.421 492.338 435.962 489.272 436.225C485.039 436.588 480.794 436.789 476.546 436.829C476.137 436.91 476.404 436.879 475.742 436.811C475.786 435.243 482.004 427.376 483.441 425.345C490.103 425.266 502.53 423.754 508.59 420.919Z"/><path d="M121.082 399.942L121.888 399.678C129.677 401.959 136.781 403.97 144.771 405.368C146.969 409.422 150.173 414.402 152.067 418.164C149.119 417.569 131.02 414.18 129.24 414.639L128.935 414.796C126.742 412.719 122.365 403.058 121.082 399.942Z"/><path d="M528.514 376.112C529.046 374.377 529.271 373.542 530.134 371.901L530.335 371.904C529.535 375.854 526.507 386.925 524.347 390.233L523.628 390.8C516.25 392.639 508.715 394.899 501.274 396.822C503.282 393.441 505.328 387.167 506.695 383.317C514.076 381.254 521.357 378.849 528.514 376.112Z"/><path d="M535.245 348.033L535.529 348.436C535.802 351.351 533.17 362.338 532.316 365.504C526.06 368.82 517.555 371.825 510.844 374.312C510.83 374.293 510.812 374.275 510.803 374.253C510.28 372.915 513.17 363.194 513.66 361.271C520.376 357.969 527.535 354.577 534.122 351.11L535.245 348.033Z"/><path d="M472.559 237.616C473.768 237.776 479.715 239.5 481.308 239.96C486.448 241.446 490.489 242.335 495.744 243.267C496.807 246.043 501.13 257.03 501.38 259.223C495.157 257.431 484.69 252.483 478.158 249.884C477.054 247.313 473.155 239.5 472.559 237.616Z"/><path d="M116.943 391.166C115.511 387.641 111.349 376.28 111.069 372.915L111.357 372.888C112.37 374.513 112.321 374.985 113.01 376.552C118.224 379.175 128.865 382.793 134.655 384.076C136.595 388.754 138.332 392.948 140.578 397.472C133.073 395.503 125.191 392.983 117.817 391.179L116.943 391.166Z"/><path d="M514.841 221.991C516.19 222.77 522.087 236.797 523.024 239.357C520.483 244.283 516.055 251.376 512.868 255.946L512.012 257.17L511.556 257.174C509.975 252.313 508.148 247.288 506.466 242.452C510.154 236.565 514.085 228.998 514.841 221.991Z"/><path d="M488.739 300.891C495.114 304.526 503.544 310.488 509.539 313.41C509.667 317.95 509.53 323.067 509.509 327.65C503.295 323.977 495.237 317.915 489.083 313.72C488.925 309.83 488.62 304.714 488.739 300.891Z"/><path d="M488.601 321.448C490.133 322.371 496.219 327.534 497.96 328.942C501.168 331.539 505.567 334.662 508.487 337.297C507.53 341.206 506.882 345.283 506.183 349.253L506.018 350.073L505.598 350.242C501.601 347.291 491.38 337.363 487.403 333.663C487.909 329.602 488.309 325.53 488.601 321.448Z"/><path d="M153.935 280.209C154.371 281.267 152.841 291.204 152.608 292.92C145.83 296.222 139.503 300.65 132.175 304.155C131.58 303.197 132.888 291.976 133.137 289.994C139.707 287.189 147.404 283.314 153.935 280.209Z"/><path d="M486.572 279.907C487.785 280.369 489.204 281.13 490.398 281.717C496.157 284.544 501.857 287.214 507.798 289.649C508.515 294.006 508.834 299.312 509.022 303.743C505.026 302.012 490.86 294.551 487.992 291.923C487.658 289.24 486.545 282.148 486.572 279.907Z"/><path d="M151.772 301.173C152.397 301.991 151.894 311.741 151.842 313.436C145.69 318.363 138.716 323.079 132.142 327.429C131.403 326.309 131.727 315.383 131.749 313.486C137.374 310.668 146.273 304.669 151.772 301.173Z"/><path d="M254.165 465.721C258.231 466.951 262.106 468.826 266.415 469.918C268.389 476.492 272.523 486.934 276.103 492.632C273.902 492.457 263.349 488.908 260.81 488.074C258.72 481.714 255.603 472.271 254.165 465.721Z"/><path d="M152.043 321.484C152.848 322.18 153.277 332.135 153.391 333.809C150.764 335.997 136.425 350.297 135.411 350.363C134.234 345.847 133.835 341.857 132.78 337.559C139.397 332.44 145.822 327.078 152.043 321.484Z"/><path d="M480.788 258.374C488.444 261.361 495.898 265.008 503.883 267.212C504.59 271.722 505.729 276.317 506.482 280.907C504.954 280.447 503.022 279.476 501.539 278.809C495.989 276.312 490.306 274.041 484.759 271.553C483.328 267.486 482.006 262.552 480.788 258.374Z"/><path d="M158.92 258.312C159.273 258.435 159.086 258.321 159.361 258.803C158.469 262.696 156.853 267.814 155.486 271.552C150.863 274.377 140.482 278.707 135.298 280.621L134.9 280.578C134.855 279.748 136.626 270.335 136.761 267.731C144.014 264.858 151.67 261.38 158.92 258.312Z"/><path d="M438.918 430.164L439.275 430.326C440.234 437.922 440.276 446.343 441.413 454.638C438.462 457.349 434.526 460.217 431.305 462.635C430.441 463.263 430.464 463.493 429.648 463.436C429.463 462.227 429.897 459.968 430 458.618C430.557 451.267 430.476 443.87 430.516 436.497C432.362 435.385 436.984 431.658 438.918 430.164Z"/><path d="M386.043 465.755C386.816 467.443 381.145 485.206 380.224 487.95C375.463 489.584 370.961 491.093 366.056 492.239C365.727 491.989 365.892 492.169 365.689 491.606C369.73 484.994 371.397 477.86 374.286 470.759C377.041 468.791 382.748 466.928 386.043 465.755Z"/><path d="M217.273 444.812C219.389 445.81 225.03 449.541 227.196 450.92C228.489 459.72 230.407 468.417 232.935 476.945C231.127 476.689 222.046 471.016 219.741 469.731C219.538 461.784 217.449 453.272 217.273 444.812Z"/><path d="M405.102 456.412L405.421 456.859C404.072 465.618 402.509 472.018 400.306 480.556C395.962 482.664 392.993 483.967 388.339 485.348L388.086 485.018C389.65 477.572 392.744 469.704 393.891 462.026C397.673 460.196 401.482 458.547 405.102 456.412Z"/><path d="M166.327 238.275C166.586 238.43 166.419 238.309 166.732 238.745C165.6 241.888 163.14 247.202 161.583 250.161C158.224 252.095 144.606 256.549 140.005 258.25L139.734 258.177C139.66 258.015 139.586 257.853 139.512 257.691C140.877 254.339 143.148 247.374 144.057 244.242C151.561 242.565 158.99 240.574 166.327 238.275Z"/><path d="M201.517 430.58C202.925 431.257 208.554 436.036 210.058 437.272C209.948 444.07 210.449 451.361 211.254 458.122C211.475 459.979 212.953 463.784 212.695 465.132L212.011 464.816C207.318 461.361 203.874 458.61 199.479 454.773C200.834 452.338 201.614 434.026 201.517 430.58Z"/><path d="M165.219 379.465C165.947 380.151 169.628 387.971 170.301 389.331C167.772 395.833 163.315 407.589 162.171 414.177C161.31 413.641 161.275 413.273 160.714 412.314C158.302 408.407 156.017 404.759 153.879 400.697C157.525 394.661 162.196 385.923 165.219 379.465Z"/><path d="M174.987 397.676C175.663 398.27 180.644 405.988 181.458 407.217C179.486 414.661 177.964 423.232 176.689 430.799C177.497 432.087 179.775 434.364 179.944 435.443C178.765 434.863 177.998 434.068 177.01 433.195C174.822 431.162 166.845 421.914 166.011 419.38L166.375 419.275L167.917 420.404C170.417 413.924 172.991 404.374 174.987 397.676Z"/><path d="M486.506 341.796C487.574 342.495 494.096 349.788 495.412 351.204C498.175 354.177 501.006 356.982 503.957 359.866C503.139 363.044 501.742 366.75 500.649 369.895C500.394 370.692 500.339 371.242 499.662 371.687C497.404 370.682 486.506 356.122 484.304 352.94C485.254 349.974 486.034 344.906 486.506 341.796Z"/><path d="M187.107 415.154C188.65 416.023 193.25 421.166 194.693 422.718C194.248 431.724 193.158 440.407 192.969 449.41L192.586 449.549L191.719 448.87C189.511 446.796 183.76 441.327 182.483 438.968C184.202 434.632 186.401 420.173 187.107 415.154Z"/><path d="M235.542 456.796C238.154 457.837 243.82 461.032 247.024 462.51C249.19 470.827 251.405 477.632 253.709 485.66C251.269 485.246 243.08 481.42 240.494 480.221C238.954 472.558 236.488 464.294 235.542 456.796Z"/><path d="M453.226 415.002C454.127 415.972 458.26 434.838 459.346 437.895C456.806 440.99 453.637 444.085 450.702 446.812L448.544 448.651C448.535 444.645 446.993 426.51 446.11 422.922C448.679 420.205 450.825 417.873 453.226 415.002Z"/><path d="M474.76 379.697C475.244 380.032 485.905 396.925 487.984 399.64C486.141 402.853 484.132 406.124 482.231 409.315C481.716 410.273 481.549 410.526 480.9 411.403L480.559 411.329C477.176 404.326 473.619 396.641 470.156 389.812C471.594 386.332 473.385 383.479 474.76 379.697Z"/><path d="M423.135 445.644C423.869 446.617 422.461 466.19 422.223 468.97C419.224 470.289 412.429 474.456 409.02 476.226C409.004 476.207 408.983 476.191 408.973 476.169C408.497 475.047 411.129 466.892 411.577 464.871C412.553 460.469 413.217 456.013 413.828 451.549C416.739 449.53 420.106 447.529 423.135 445.644Z"/><path d="M465.148 397.969C465.641 398.471 474.246 417.228 475.358 419.366C473.339 422.22 470.547 425.562 468.365 428.481L466.48 430.849C463.89 423.25 462.067 415.144 459.361 407.302C460.304 405.335 463.798 400.192 465.148 397.969Z"/><path d="M481.719 361.316C482.732 362.183 486.054 366.538 487.066 367.834C490.421 372.133 493.647 376.345 497.173 380.525C496.071 383.567 493.767 388.366 492.397 391.44C492.152 392.161 492.195 392.019 491.792 392.678C491.577 392.573 479.693 373.511 478.561 371.673C479.689 368.202 480.813 364.856 481.719 361.316Z"/><path d="M153.566 341.799C154.25 342.669 155.408 351.151 155.722 352.983C151.927 359.032 146.129 366.204 141.892 372.405L141.451 372.379L141.021 371.483C139.808 367.67 138.318 363.833 137.071 359.91C143.453 353.568 147.615 348.466 153.566 341.799Z"/><path d="M158.095 361.22C158.609 361.628 161.083 370.653 161.658 372.229C159.575 376.686 156.35 381.084 154.047 385.472C153.318 386.862 150.918 392.36 149.761 392.525L149.37 391.774C147.853 389.198 145.503 383.555 144.24 380.674C149.188 373.954 153.506 368.291 158.095 361.22Z"/><path fill="#4d3c3b" d="M116.943 391.166L117.817 391.179C118.418 393.272 120.589 397.959 121.888 399.678L121.082 399.942C119.651 397.809 117.959 393.622 116.943 391.166Z"/><path d="M406.929 508.804C409.826 508.053 412.419 506.596 415.09 506.09C412.557 507.494 410.454 508.682 407.785 509.841L406.929 508.804Z"/><path fill="#4d3c3b" d="M128.935 414.796L129.24 414.639C130.222 416.68 132.658 419.746 133.953 421.897L133.066 422.226C132.342 421.4 129.606 416.081 128.935 414.796Z"/><path fill="#4d3c3b" d="M159.78 456.895C161.464 458.548 163.379 460.613 165.078 462.133L164.779 463.035C162.579 460.958 161.401 459.719 159.545 457.357L159.78 456.895Z"/><path fill="#4d3c3b" d="M523.628 390.8L524.347 390.233C523.688 392.625 522.112 396.658 520.802 398.735L520.116 398.515C520.846 397.109 523.393 392.145 523.628 390.8Z"/></svg>