<?xml version="1.0" encoding="utf-8" ?><svg xmlns="http://www.w3.org/2000/svg" xmlns:xlink="http://www.w3.org/1999/xlink" width="914" height="800" viewBox="0 0 914 800"><path fill="#152440" transform="scale(4.21044 4.21044)" d="M58.7366 72.4416C58.8107 72.8079 58.7706 72.6839 59.1221 72.9778C61.6737 73.2564 68.064 72.5874 71.0093 72.5454C77.6436 72.4313 84.359 71.5767 90.9667 71.3442C109.51 70.6917 127.994 71.869 146.508 72.55C148.607 72.6272 152.408 72.977 154.264 72.7075L154.518 72.2074C157.263 72.9048 159.371 75.7031 162.787 75.308C163.94 75.1747 169.047 72.9602 169.215 73.0817C173.658 73.3957 180.493 72.1091 182.935 75.4151C187.443 81.5173 190.015 89.1598 189.406 96.6056C189.253 98.2799 189.053 99.9494 188.805 101.612C187.468 115.611 182.307 125.472 174.399 136.607C172.14 124.639 164.606 114.805 152.302 112.239C145.364 110.855 138.161 112.297 132.291 116.246C121.084 123.687 117.945 139.3 125.676 150.266C130.884 157.654 138.555 161.347 147.152 162.977C141.054 168.431 127.901 172.798 119.951 174.09C105.586 176.495 90.8311 174.692 77.468 168.898C74.03 167.426 70.0346 165.478 66.9927 163.286C72.8542 161.199 78.32 159.775 83.1015 155.394C88.1972 150.708 91.6791 144.827 92.0792 137.82C92.867 124.025 81.5899 112.551 68.0191 111.806C60.9583 111.477 54.048 113.919 48.7618 118.611C43.1782 123.657 40.3251 130.702 39.9622 138.139C29.9994 125.656 24.5996 114.399 24.2376 98.1342C24.1884 95.0114 24.3219 92.0831 24.4593 88.9708C26.6331 83.2597 27.2554 77.6998 32.4928 73.5637C34.8729 73.318 43.0479 73.5959 44.0162 72.6806C44.7981 72.8993 46.6283 74.26 47.6371 74.7056C52.1967 76.7194 54.831 73.8201 58.7366 72.4416Z"/><path fill="#2E56A7" transform="scale(4.21044 4.21044)" d="M58.7366 72.4416C58.8107 72.8079 58.7706 72.6839 59.1221 72.9778C61.6737 73.2564 68.064 72.5874 71.0093 72.5454C77.6436 72.4313 84.359 71.5767 90.9667 71.3442C109.51 70.6917 127.994 71.869 146.508 72.55C148.607 72.6272 152.408 72.977 154.264 72.7075L154.518 72.2074C157.263 72.9048 159.371 75.7031 162.787 75.308C163.94 75.1747 169.047 72.9602 169.215 73.0817C173.658 73.3957 180.493 72.1091 182.935 75.4151C187.443 81.5173 190.015 89.1598 189.406 96.6056C189.253 98.2799 189.053 99.9494 188.805 101.612C188.583 100.196 188.617 99.6909 188.71 98.2528L69.2169 98.2322C54.2463 98.1921 39.2001 98.3329 24.2376 98.1342C24.1884 95.0114 24.3219 92.0831 24.4593 88.9708C26.6331 83.2597 27.2554 77.6998 32.4928 73.5637C34.8729 73.318 43.0479 73.5959 44.0162 72.6806C44.7981 72.8993 46.6283 74.26 47.6371 74.7056C52.1967 76.7194 54.831 73.8201 58.7366 72.4416Z"/><path fill="#EFF2FB" transform="scale(4.21044 4.21044)" d="M24.4593 88.9708C25.8708 88.6295 34.761 88.7414 36.6329 88.7389L66.5269 88.7435L188.156 88.7528C188.572 91.4703 188.934 95.5006 188.71 98.2528L69.2169 98.2322C54.2463 98.1921 39.2001 98.3329 24.2376 98.1342C24.1884 95.0114 24.3219 92.0831 24.4593 88.9708Z"/><path fill="#EFF2FB" transform="scale(4.21044 4.21044)" d="M99.8709 27.6481C108.952 26.5801 121.735 28.2512 130.717 30.0958C133.367 30.64 147.932 34.4783 149.031 36.151C148.263 37.1725 146.928 38.506 145.994 39.4101C142.28 43.0064 139.252 47.2645 135.692 50.9732C133.163 50.3603 130.469 49.4347 127.908 48.7465C122.571 47.3128 118.035 46.6268 112.563 46.2579C97.6393 45.4442 90.6858 47.2646 76.6539 50.996C71.9915 45.1165 68.5257 41.7776 63.7015 36.3873L63.9277 35.8232C66.2185 33.9644 80.7344 30.6009 84.0439 29.7782C88.4105 28.6927 95.2604 28.0955 99.8709 27.6481Z"/><path fill="#152440" transform="scale(4.21044 4.21044)" d="M154.518 72.2074C150.749 68.9192 143.343 58.0922 142.363 53.4124C141.906 51.2309 155.537 35.2764 158.072 34.4676C158.816 35.1187 164.386 47.7432 164.901 49.2949C167.608 57.4536 174.504 64.8201 169.215 73.0817C169.047 72.9602 163.94 75.1747 162.787 75.308C159.371 75.7031 157.263 72.9048 154.518 72.2074Z"/><path fill="#152440" transform="scale(4.21044 4.21044)" d="M54.1614 34.1518C57.8725 37.1132 68.7487 49.7927 71.08 53.7881C69.9524 57.7058 62.1166 70.0295 58.7366 72.4416C54.831 73.8201 52.1967 76.7194 47.6371 74.7056C46.6283 74.26 44.7981 72.8993 44.0162 72.6806C43.162 71.5989 42.0231 66.8007 42.3771 65.3769C44.3727 57.3516 48.2056 49.3865 51.1992 41.6801C52.2224 39.0462 53.0845 36.6231 54.1614 34.1518Z"/></svg>