<?xml version="1.0" encoding="utf-8" ?><svg xmlns="http://www.w3.org/2000/svg" xmlns:xlink="http://www.w3.org/1999/xlink" width="217" height="190" viewBox="0 0 217 190"><path fill="#3D88F3" d="M0 0L217 0L217 190L0 190L0 0Z"/><path fill="#152441" d="M57.7699 72.9433C58.9196 73.969 83.877 71.8274 88.7103 71.5924C105.59 70.7716 124.156 71.6794 141.201 72.6481C142.646 72.7303 155.363 73.4813 155.965 72.9863C161.237 75.6933 163.348 76.0835 168.828 73.0193C168.945 73.1287 169.086 73.2606 169.252 73.415C172.694 73.6986 177.992 73.3997 181.232 73.6235C185.969 78.0737 187.146 82.5895 188.028 88.7962C188.61 90.0916 188.578 96.7104 188.5 98.2647C187.815 109.913 185.684 118.234 179.75 128.542C177.98 131.615 175.754 134.416 173.952 137.526C173.349 129.841 170.359 123.482 164.587 118.297C159.408 113.72 152.652 111.336 145.748 111.648C122.859 112.902 112.59 140.539 130.367 155.522C134.956 159.39 142.118 162.957 148.215 162.55C135.895 170.03 125.944 174.069 111.237 174.746C94.2846 175.526 80.8907 171.672 66.4774 162.892C72.5289 162.213 79.7795 158.869 84.1623 154.662C89.1429 149.967 92.0063 143.452 92.0977 136.608C92.321 122.906 80.5772 112.013 67.0829 111.843C59.9341 111.794 53.053 114.559 47.9257 119.541C42.533 124.848 40.2807 131.098 40.2409 138.54C29.7734 125.825 25.1373 114.568 24.5502 98.23C26.7111 98.2586 28.8723 98.2443 31.0326 98.1871C29.5239 98.0278 26.1049 98.088 24.4537 98.0753C24.4819 95.251 24.4903 91.6513 24.9189 88.8586C26.0594 83.7564 28.0965 76.7281 32.5702 73.6622C35.0079 73.4928 43.4552 73.7426 44.8834 73.2394C50.5766 76.3846 52.1494 75.634 57.7699 72.9433Z"/><path fill="#2E56A7" d="M57.7699 72.9433C58.9196 73.969 83.877 71.8274 88.7103 71.5924C105.59 70.7716 124.156 71.6794 141.201 72.6481C142.646 72.7303 155.363 73.4813 155.965 72.9863C161.237 75.6933 163.348 76.0835 168.828 73.0193C168.945 73.1287 169.086 73.2606 169.252 73.415C172.694 73.6986 177.992 73.3997 181.232 73.6235C185.969 78.0737 187.146 82.5895 188.028 88.7962C188.61 90.0916 188.578 96.7104 188.5 98.2647L31.0326 98.1871C29.5239 98.0278 26.1049 98.088 24.4537 98.0753C24.4819 95.251 24.4903 91.6513 24.9189 88.8586C26.0594 83.7564 28.0965 76.7281 32.5702 73.6622C35.0079 73.4928 43.4552 73.7426 44.8834 73.2394C50.5766 76.3846 52.1494 75.634 57.7699 72.9433Z"/><path fill="#EEF2FC" d="M24.9189 88.8586C32.1819 88.6302 40.0698 88.7408 47.3591 88.7376L85.8467 88.7581L188.028 88.7962C188.61 90.0916 188.578 96.7104 188.5 98.2647L31.0326 98.1871C29.5239 98.0278 26.1049 98.088 24.4537 98.0753C24.4819 95.251 24.4903 91.6513 24.9189 88.8586Z"/><path fill="#EEF2FC" d="M104.248 27.612C120.988 27.0953 133.82 30.7908 149.319 35.8678C144.502 40.6117 139.961 45.6272 135.717 50.89C126.955 47.5846 117.709 45.7431 108.349 45.4394C98.5945 45.3337 85.8914 47.0794 76.8759 50.8607C73.2025 46.1693 67.6116 40.1106 63.1591 35.9825C67.7039 34.6612 72.1783 32.9089 76.8819 31.6139C86.2717 29.0288 94.5454 28.0851 104.248 27.612Z"/><path fill="#152441" d="M142.086 53.0614C147.789 45.0735 151.25 40.7484 158.377 33.7458C160.893 40.8849 164.636 47.9376 167.391 55.04C169.714 61.0281 174.148 67.1762 168.828 73.0193C163.348 76.0835 161.237 75.6933 155.965 72.9863C150.614 69.1921 144.134 59.1736 142.086 53.0614Z"/><path fill="#152441" d="M44.8834 73.2394C43.2433 71.4275 41.9249 67.5411 42.5561 65.2037C45.4478 54.495 50.6756 44.2242 54.168 33.6671C60.7601 40.6786 65.6591 46.0083 71.2505 53.813C68.7221 59.4293 62.768 69.3157 57.7699 72.9433C52.1494 75.634 50.5766 76.3846 44.8834 73.2394Z"/></svg>