<?xml version="1.0" encoding="utf-8" ?><svg xmlns="http://www.w3.org/2000/svg" xmlns:xlink="http://www.w3.org/1999/xlink" width="1024" height="1536" viewBox="0 0 1024 1536"><path fill="#25445B" d="M177.77 637.621C146.332 634.446 150.601 610.64 150.76 586.415L150.833 541.027C150.872 499.099 150.821 457.172 150.773 415.246C150.77 412.212 151.421 405.213 152.83 402.423C156.139 395.87 163.881 389.525 171.508 389.2C184.69 388.114 197.623 388.483 210.685 388.514L276.532 388.58L375.842 388.548C392.598 388.53 409.481 388.174 426.219 388.581C445.118 389.041 452.476 403.851 451.272 420.905C461.652 418.628 480.809 417.15 491.194 416.6C568.67 413.041 645.311 433.861 710.332 476.128C725.784 486.053 740.371 497.264 753.936 509.642C805.329 554.698 840.664 613.145 861.836 677.646C864.765 690.016 868.482 702.456 871.254 714.747C881.012 757.627 880.264 835.346 866.758 876.829C862.304 898.009 852.622 921.293 843.959 941.277C841.483 946.538 838.993 952.116 836.163 957.173C832.52 963.892 823.964 979.294 819.151 985.053C811.891 995.099 804.201 1006.06 796.118 1015.39C755.021 1067.76 690.135 1110.03 627.208 1130.68C533.753 1160.98 432.048 1152.58 344.84 1107.34C274.193 1071.15 217.278 1012.91 182.727 941.459C174.212 923.676 168.542 907.365 162.489 888.8C149.242 849.982 143.27 784.083 149.724 743.442C150.784 731.301 154.492 714.499 157.036 702.288C160.501 682.962 170.734 656.144 177.77 637.621Z"/><path fill="#D6F0F4" d="M177.77 637.621C146.332 634.446 150.601 610.64 150.76 586.415L150.833 541.027C150.872 499.099 150.821 457.172 150.773 415.246C150.77 412.212 151.421 405.213 152.83 402.423C156.139 395.87 163.881 389.525 171.508 389.2C184.69 388.114 197.623 388.483 210.685 388.514L276.532 388.58L375.842 388.548C392.598 388.53 409.481 388.174 426.219 388.581C445.118 389.041 452.476 403.851 451.272 420.905C461.652 418.628 480.809 417.15 491.194 416.6C568.67 413.041 645.311 433.861 710.332 476.128C725.784 486.053 740.371 497.264 753.936 509.642C805.329 554.698 840.664 613.145 861.836 677.646C835.456 716.511 810.975 753.708 783.743 792.176C774.163 788.466 754.186 785.077 742.396 781.527C732.751 815.018 666.571 836.895 660.066 789.049L660.107 787.488L660.264 784.371C659.867 782.182 659.654 778.787 659.436 776.484C655.619 777.571 641.398 777.673 636.7 777.742C625.42 777.907 610.267 778.235 601.768 769.717C592.646 760.575 592.787 741.351 592.654 728.995C529.35 727.073 462.672 727.852 399.028 728.082C397.453 703.386 397.934 683.145 367.848 681.396C367.146 659.757 356.229 647.451 335.059 641.72C330.984 640.617 326.586 640.339 322.506 639.253L322.11 639.144L317.059 637.328C312.941 636.802 305.373 637.147 301.094 637.33C273.152 636.595 245.195 636.6 217.254 637.344C204.999 637.188 189.868 636.889 177.77 637.621Z"/><path fill="#97BBD2" d="M177.77 637.621C146.332 634.446 150.601 610.64 150.76 586.415L150.833 541.027C150.872 499.099 150.821 457.172 150.773 415.246C150.77 412.212 151.421 405.213 152.83 402.423C156.139 395.87 163.881 389.525 171.508 389.2C184.69 388.114 197.623 388.483 210.685 388.514L276.532 388.58L375.842 388.548C392.598 388.53 409.481 388.174 426.219 388.581C445.118 389.041 452.476 403.851 451.272 420.905C450.473 426.281 450.669 444.137 450.798 450.171C451.083 463.518 450.48 478.445 450.966 491.621C450.546 532.132 450.975 573.17 450.945 613.731C449.414 629.051 441.241 635.465 426.203 636.856C412.105 638.16 396.887 637.433 382.719 637.31L317.059 637.328C312.941 636.802 305.373 637.147 301.094 637.33C273.152 636.595 245.195 636.6 217.254 637.344C204.999 637.188 189.868 636.889 177.77 637.621Z"/><path fill="#FEFEFE" d="M173.874 628.627C163.931 627.276 159.068 621.116 158.669 611.427C158.13 598.36 158.43 584.898 158.424 571.816L158.378 493.813L158.341 440.854C158.33 431.325 157.773 421.894 158.895 412.421C160.288 400.669 166.118 397.715 177.244 397.487C197.207 397.077 217.178 397.256 237.143 397.271L345.544 397.281L402.397 397.253C410.497 397.249 424.351 396.902 431.807 397.96C447.56 400.194 443.385 439.18 443.352 450.614L443.289 508.877L443.295 577.811C443.295 589.531 447.266 619.644 435.801 626.495C429.62 630.187 411.787 629.204 404.004 629.093C387.161 629.588 368.565 629.158 351.521 629.115L257.733 628.967C242.17 628.942 226.606 629.023 211.044 629.208C199.952 629.349 184.73 629.882 173.874 628.627Z"/><path fill="#D6F0F4" d="M173.874 628.627C175.767 628.558 180.751 628.732 181.794 627.234C194.674 608.74 208.755 606.399 220.34 628.359L354.275 628.397C361.731 628.412 398.877 627.961 404.004 629.093C387.161 629.588 368.565 629.158 351.521 629.115L257.733 628.967C242.17 628.942 226.606 629.023 211.044 629.208C199.952 629.349 184.73 629.882 173.874 628.627Z"/><path fill="#BFE0EB" d="M220.582 435.783C220.666 430.243 220.726 421.655 227.814 420.66C234.864 422.178 234.535 430.093 234.773 435.824L314.325 435.812C314.641 429.634 314.463 422.132 322.592 422.13C328.531 424.909 327.988 430.059 328.016 435.727C353.225 435.498 356.588 438.639 356.376 464.226L356.277 472.693L356.356 539.843C356.365 552.665 356.898 566.372 355.175 579.092C354.574 583.535 349.379 589.446 344.586 589.771C329.212 590.817 313.5 590.428 298.05 590.419L205.195 590.335C199.964 587.278 198.287 585.53 195.068 580.384C195.01 546.337 193.902 507.041 195.023 473.324C194.452 463.734 191.998 447.143 199.703 439.777C205.021 434.693 213.724 435.653 220.582 435.783Z"/><path fill="#285FF6" d="M220.582 435.783C220.666 430.243 220.726 421.655 227.814 420.66C234.864 422.178 234.535 430.093 234.773 435.824L314.325 435.812C314.641 429.634 314.463 422.132 322.592 422.13C328.531 424.909 327.988 430.059 328.016 435.727C353.225 435.498 356.588 438.639 356.376 464.226L356.277 472.693C342.257 474.273 315.169 473.866 300.323 473.856L195.023 473.324C194.452 463.734 191.998 447.143 199.703 439.777C205.021 434.693 213.724 435.653 220.582 435.783Z"/><path fill="#97BBD2" d="M220.582 435.783C220.666 430.243 220.726 421.655 227.814 420.66C234.864 422.178 234.535 430.093 234.773 435.824C234.933 442.546 236.114 456.171 227.385 457.934C219.536 455.165 220.529 442.447 220.582 435.783Z"/><path fill="#97BBD2" d="M314.325 435.812C314.641 429.634 314.463 422.132 322.592 422.13C328.531 424.909 327.988 430.059 328.016 435.727C328.292 442.116 329.245 451.849 321.812 454.6C313.217 453.106 314.154 442.337 314.325 435.812Z"/><path fill="#97BBD2" d="M264.073 492.086C288.219 491.398 291.437 489.763 288.588 517.861C288.294 520.757 287.622 521.879 285.828 524.189C261.967 524.986 257.783 527.172 260.654 498.853C260.986 495.573 261.705 494.453 264.073 492.086Z"/><path fill="#97BBD2" d="M307.53 492.138C329.249 490.966 334.249 489.647 332.669 515.555C332.453 519.1 330.954 521.446 328.891 524.196C324.365 524.355 309.139 525.577 306.554 522.496C301.779 516.804 302.579 497.268 307.53 492.138Z"/><path fill="#97BBD2" d="M220.863 492.132C225.389 491.991 240.64 490.612 243.205 494.342C247.29 500.282 246.948 519.013 241.619 524.196C224.026 524.778 213.683 527.725 216.636 505.246C217.428 499.217 216.307 496.921 220.863 492.132Z"/><path fill="#97BBD2" d="M263.981 536.37C269.516 536.278 281.592 534.971 285.643 538.43C291.487 543.419 290.232 562.843 285.666 568.346C267.033 569.28 258.278 571.692 260.215 548.854C260.696 543.191 260.002 541.109 263.981 536.37Z"/><path fill="#FEAC44" d="M220.835 536.464C225.86 536.324 240.607 534.712 243.332 539.146C247.232 545.492 247.323 563.233 241.361 568.019C236.881 568.259 222.529 569.62 219.599 566.109C214.494 559.992 214.935 541.796 220.835 536.464Z"/><path fill="#97BBD2" d="M309.223 536.594C314.362 536.271 320.494 535.758 325.516 536.502C336.349 538.106 335.239 563.387 327.646 568.212C302.764 569.673 301.216 567.524 305.235 540.722C305.629 538.098 307.16 537.709 309.223 536.594Z"/><path fill="#285FF6" d="M390.478 546.38C407.343 545.062 422.066 557.704 423.309 574.571C424.551 591.438 411.841 606.1 394.964 607.267C378.194 608.427 363.641 595.817 362.406 579.056C361.171 562.296 373.719 547.69 390.478 546.38Z"/><path fill="#FEFEFE" d="M404.166 563.728C407.083 564.173 407.919 564.37 408.566 567.319C407.055 575.194 394.522 585.414 387.978 590.087C386.181 588.702 384.223 586.829 382.517 585.282C379.393 582.319 376.275 580.072 377.43 575.529C381.878 571.948 385.193 576.188 388.399 579.378C393.136 574.256 399.117 568.668 404.166 563.728Z"/><path fill="#BFE0EB" d="M451.272 420.905C461.652 418.628 480.809 417.15 491.194 416.6C568.67 413.041 645.311 433.861 710.332 476.128C725.784 486.053 740.371 497.264 753.936 509.642C805.329 554.698 840.664 613.145 861.836 677.646C835.456 716.511 810.975 753.708 783.743 792.176C774.163 788.466 754.186 785.077 742.396 781.527L738.325 777.613C781.078 777.899 791.661 776.104 791.918 730.52L821.435 730.545C810.273 694.326 791.553 601.983 766.419 577.395C754.889 566.115 738.589 558.841 723.201 554.611C696.789 547.352 668.73 545.991 641.517 544.151C578.308 539.879 515.004 539.783 451.687 540.573L451.824 586.466C451.839 593.09 452.192 607.97 450.945 613.731C450.975 573.17 450.546 532.132 450.966 491.621C450.48 478.445 451.083 463.518 450.798 450.171C450.669 444.137 450.473 426.281 451.272 420.905Z"/><path fill="#D6F0F4" d="M451.272 420.905C461.652 418.628 480.809 417.15 491.194 416.6C568.67 413.041 645.311 433.861 710.332 476.128C725.784 486.053 740.371 497.264 753.936 509.642C745.1 511.113 729.285 508.979 719.806 508.432C700.307 507.306 680.209 505.091 660.745 504.327C591.083 501.867 521.372 501.115 451.673 502.074C451.621 498.284 451.359 495.4 450.966 491.621C450.48 478.445 451.083 463.518 450.798 450.171C450.669 444.137 450.473 426.281 451.272 420.905Z"/><path fill="#FEC4AC" d="M620.148 633.84C647.567 641.619 684.614 639.012 710.976 628.518C711.794 649.973 714.112 671.651 728.721 688.628C734.742 678.72 743.022 664.711 756.719 672.93C757.026 673.116 757.329 673.308 757.628 673.506C760.407 676.953 760.917 677.549 762.502 681.644C792.136 687.815 790.956 703.871 791.918 730.52C791.661 776.104 781.078 777.899 738.325 777.613L742.396 781.527C732.751 815.018 666.571 836.895 660.066 789.049L660.107 787.488L660.264 784.371C659.867 782.182 659.654 778.787 659.436 776.484C655.619 777.571 641.398 777.673 636.7 777.742C625.42 777.907 610.267 778.235 601.768 769.717C592.646 760.575 592.787 741.351 592.654 728.995C593.105 704.575 591.944 690.927 617.328 681.883C617.365 677.386 617.725 668.81 616.817 664.737C618.023 652.594 617.946 646.428 620.148 633.84Z"/><path fill="#97BBD2" d="M762.502 681.644C792.136 687.815 790.956 703.871 791.918 730.52C791.661 776.104 781.078 777.899 738.325 777.613C735.571 754.619 734.958 740.114 734.893 717.307C757.49 716.768 760.782 701.531 762.502 681.644Z"/><path fill="#97BBD2" d="M592.654 728.995C593.105 704.575 591.944 690.927 617.328 681.883C617.884 709.515 619.912 745.898 640.66 767.045C648.189 774.72 653.16 773.1 659.436 776.484C655.619 777.571 641.398 777.673 636.7 777.742C625.42 777.907 610.267 778.235 601.768 769.717C592.646 760.575 592.787 741.351 592.654 728.995Z"/><path fill="#FE987A" d="M659.436 776.484C664.222 774.891 669.748 775.573 674.763 774.65C692.102 771.458 704.18 763.4 717.016 752.031C704.167 775.518 688.067 787.493 660.264 784.371C659.867 782.182 659.654 778.787 659.436 776.484Z"/><path fill="#FE987A" d="M651.492 684.554C655.896 690.598 644.805 706.476 646.237 713.854C647.672 721.251 654.377 719.46 658.821 722.524L657.914 723.266C630.664 721.512 643.918 699.306 651.492 684.554Z"/><path fill="#262A30" d="M674.741 654.14C681.912 653.672 693.841 653.374 697.407 661.199C696.266 662.641 696.607 662.176 694.096 662.482C688.221 661.699 673.866 662.671 670.863 657.884C671.991 655.339 672.163 655.805 674.741 654.14Z"/><path fill="#FE987A" d="M683.751 731.073L685.96 731.447L686.438 732.614L685.591 734.512C679.326 740.138 664.836 741.378 656.584 741.788C654.589 741.049 654.557 741.164 653.205 739.612C654.585 736.073 669.82 736.781 674.678 735.027C679.022 733.457 679.28 733.519 683.751 731.073Z"/><path fill="#262A30" d="M631.397 654.848C636.393 654.557 641.02 653.661 643.831 658.673C643.052 663.544 637.262 662.062 633.659 661.514C630.009 662.263 623.7 664.539 622.145 660.209C624.115 656.622 627.62 655.958 631.397 654.848Z"/><path fill="#262A30" d="M677.053 677.601C687.362 679.904 687.72 684.392 682.432 692.709C671.529 691.285 672.148 685.182 677.053 677.601Z"/><path fill="#262A30" d="M631.535 677.727C641.499 680.314 641.444 685.013 636.565 692.652C625.533 691.6 626.245 685.004 631.535 677.727Z"/><path fill="#FE987A" d="M744.479 682.914C745.868 683.011 745.955 683.164 747.244 683.75C747.393 686.322 741.169 693.123 738.808 700.365L738.01 701.295L737.365 700.174C737.456 693.671 740.41 687.819 744.479 682.914Z"/><path fill="#262A30" d="M610.508 629.56C597.084 616.334 597.37 594.596 610.632 580.933C623.327 567.853 647.687 567.599 664.792 567.646C699.477 569.314 729.287 566.132 748.742 600.32C780.502 611.431 772.97 651.514 757.628 673.506C757.329 673.308 757.026 673.116 756.719 672.93C743.022 664.711 734.742 678.72 728.721 688.628C714.112 671.651 711.794 649.973 710.976 628.518C684.614 639.012 647.567 641.619 620.148 633.84C617.946 646.428 618.023 652.594 616.817 664.737C611.536 651.276 612.181 643.111 610.508 629.56Z"/><path fill="#F53E40" d="M861.836 677.646C864.765 690.016 868.482 702.456 871.254 714.747C881.012 757.627 880.264 835.346 866.758 876.829C862.304 898.009 852.622 921.293 843.959 941.277C839.357 941.526 835.508 941.689 830.93 942.436C824.637 930.638 814.41 911.753 802.78 905.044L798.579 903.625C791.464 903.922 787.863 904.956 782.332 909.584C775.969 914.94 766.214 922.841 760.936 928.883C747.964 921.303 740.136 917.844 726.099 912.937C721.859 918.349 675.543 973.368 674.887 975.241L675.093 976.117C666.79 976.893 663.09 977.365 655.165 979.342C647.95 981.143 633.16 986.189 626.016 986.758C620.207 988.636 615.944 989.337 609.965 990.425L604.296 991.277L597.523 992.746C586.252 995.328 563.842 993.898 553.062 989.462C551.056 997.772 548.37 1007.9 548.094 1016.4C540.048 1020.39 524.28 1023.02 514.946 1024.91C517.478 1014.45 520.493 993.823 523.187 982.344C525.99 970.397 539.385 930.046 539.499 922.534C540.289 916.019 543.157 908.237 545.273 901.835C553.242 882.146 558.107 864.106 567.686 844.358C586.668 805.223 623.709 801.695 660.066 789.049C666.571 836.895 732.751 815.018 742.396 781.527C754.186 785.077 774.163 788.466 783.743 792.176C810.975 753.708 835.456 716.511 861.836 677.646Z"/><path fill="#25445B" d="M861.836 677.646C864.765 690.016 868.482 702.456 871.254 714.747C881.012 757.627 880.264 835.346 866.758 876.829C862.304 898.009 852.622 921.293 843.959 941.277C839.357 941.526 835.508 941.689 830.93 942.436C824.637 930.638 814.41 911.753 802.78 905.044L798.579 903.625C791.464 903.922 787.863 904.956 782.332 909.584C771.204 901.878 757.623 894.483 744.776 890.12C740.242 889.387 719.792 883.175 714.485 881.655C738.013 852.173 761.101 822.344 783.743 792.176C810.975 753.708 835.456 716.511 861.836 677.646Z"/><path fill="#F53E40" d="M813.643 800.03C836.35 812.713 838.977 818.636 852.433 839.067C857.942 852.145 862.503 863.193 866.758 876.829C862.304 898.009 852.622 921.293 843.959 941.277C839.357 941.526 835.508 941.689 830.93 942.436C824.637 930.638 814.41 911.753 802.78 905.044L798.579 903.625C791.464 903.922 787.863 904.956 782.332 909.584C771.204 901.878 757.623 894.483 744.776 890.12C768.586 860.752 791.551 830.71 813.643 800.03Z"/><path fill="#F0292A" d="M797.95 871.226C801.208 879.655 805.842 896.576 802.78 905.044L798.579 903.625C800.556 891.66 798.483 883.027 797.95 871.226Z"/><path fill="#BFE0EB" d="M871.254 714.747C881.012 757.627 880.264 835.346 866.758 876.829C862.503 863.193 857.942 852.145 852.433 839.067C838.977 818.636 836.35 812.713 813.643 800.03L817.294 795.13C835.446 768.447 853.433 741.652 871.254 714.747Z"/><path fill="#97BBD2" d="M817.294 795.13C839.491 803.636 848.784 815.285 852.433 839.067C838.977 818.636 836.35 812.713 813.643 800.03L817.294 795.13Z"/><path fill="#FEC4AC" d="M557.163 931.89C568.382 912.512 574.727 904.848 594.696 920.668C600.475 925.595 607.788 931.81 612.831 937.54C615.468 945.053 613.209 961.507 603.979 954.849L602.248 955.775C603.141 958.942 603.339 960.436 602.136 963.581C598.613 972.792 599.502 983.358 597.523 992.746C586.252 995.328 563.842 993.898 553.062 989.462C551.056 997.772 548.37 1007.9 548.094 1016.4C540.048 1020.39 524.28 1023.02 514.946 1024.91C517.478 1014.45 520.493 993.823 523.187 982.344C525.99 970.397 539.385 930.046 539.499 922.534C543.671 924.625 547.039 926.356 551.065 928.796L557.163 931.89Z"/><path fill="#FE987A" d="M551.065 928.796L557.163 931.89C553.302 938.101 548.54 949.568 545.672 956.703C539.11 973.027 534.457 979.819 523.285 993.128C527.587 983.018 534.691 973.645 538.923 963.816C543.646 952.845 546.222 939.757 551.065 928.796Z"/><path fill="#FE987A" d="M602.248 955.775C597.941 951.469 581.305 937.869 578.955 934.263C586.693 936.231 598.635 948.431 603.979 954.849L602.248 955.775Z"/><path fill="#FE987A" d="M571.416 953.992C577.243 955.477 590.908 966.388 596.465 970.499C597.988 971.625 598.336 973.443 598.457 975.266L597.124 975.443C592.47 973.197 574.788 958.238 571.416 953.992Z"/><path fill="#FE987A" d="M560.361 973.461C567.523 974.537 579.395 980.237 586.086 983.278C586.148 986.924 585.865 990.261 585.604 993.89C583.199 991.65 584.934 988.217 584.146 986.723C580.787 980.352 568.022 979.088 560.96 973.908L560.361 973.461Z"/><path fill="#F53E40" d="M612.831 937.54C632.338 924.758 666.147 906.065 690.488 908.63C701.79 910.757 714.493 911.455 726.099 912.937C721.859 918.349 675.543 973.368 674.887 975.241L675.093 976.117C666.79 976.893 663.09 977.365 655.165 979.342C647.95 981.143 633.16 986.189 626.016 986.758C620.207 988.636 615.944 989.337 609.965 990.425L604.296 991.277L597.523 992.746C599.502 983.358 598.613 972.792 602.136 963.581C603.339 960.436 603.141 958.942 602.248 955.775L603.979 954.849C613.209 961.507 615.468 945.053 612.831 937.54Z"/><path fill="#25445B" d="M690.488 908.63C701.79 910.757 714.493 911.455 726.099 912.937C721.859 918.349 675.543 973.368 674.887 975.241L675.093 976.117C666.79 976.893 663.09 977.365 655.165 979.342C647.95 981.143 633.16 986.189 626.016 986.758C631.931 977.87 638.58 970.831 645.321 962.735C660.162 944.91 677.144 927.539 690.488 908.63Z"/><path fill="#F0292A" d="M607.492 961.221C610.567 972.648 610.18 978.754 609.965 990.425L604.296 991.277C605.58 981.011 606.695 971.567 607.492 961.221Z"/><path fill="#262A30" d="M607.771 908.838C608.307 908.438 608.844 908.042 609.385 907.65C640.727 884.914 676.128 875.572 714.485 881.655C719.792 883.175 740.242 889.387 744.776 890.12C757.623 894.483 771.204 901.878 782.332 909.584C775.969 914.94 766.214 922.841 760.936 928.883C747.964 921.303 740.136 917.844 726.099 912.937C714.493 911.455 701.79 910.757 690.488 908.63C666.147 906.065 632.338 924.758 612.831 937.54C607.788 931.81 600.475 925.595 594.696 920.668C597.183 918.277 599.936 915.841 602.494 913.496L607.771 908.838Z"/><path fill="#F0292A" d="M609.144 867.997C609.309 880.647 607.006 897.416 607.771 908.838L602.494 913.496C602.162 895.021 602.448 885.631 609.144 867.997Z"/><path fill="#BFE0EB" d="M399.028 728.082C462.672 727.852 529.35 727.073 592.654 728.995C592.787 741.351 592.646 760.575 601.768 769.717C610.267 778.235 625.42 777.907 636.7 777.742C641.398 777.673 655.619 777.571 659.436 776.484C659.654 778.787 659.867 782.182 660.264 784.371L660.107 787.488L660.066 789.049C623.709 801.695 586.668 805.223 567.686 844.358C558.107 864.106 553.242 882.146 545.273 901.835C543.157 908.237 540.289 916.019 539.499 922.534C539.385 930.046 525.99 970.397 523.187 982.344C520.493 993.823 517.478 1014.45 514.946 1024.91C491.933 1029.03 475.384 1032.37 452.09 1034.44L450.636 1020.71C448.832 1014.21 446.998 999.052 445.989 991.796L438.893 939.526C437.973 932.604 436.528 918.852 434.314 912.681L434.304 912.227C443.94 903.493 438.556 897.751 429.746 892.261C435.898 889.149 442.023 885.985 448.121 882.769C455.582 877.854 482.173 870.225 478.019 859.117C470.005 851.451 455.06 859.528 446.524 863.457C440.561 865.756 433.889 868.17 428.063 870.648C427.888 869.947 427.707 869.247 427.518 868.549C420.691 843.341 405.613 828.563 380.71 820.657C365.826 815.932 355.952 814.745 342 806.752C342.974 806.382 343.94 805.994 344.899 805.588C353.75 801.806 356.335 795.897 359.754 787.48L361.205 777.784C398.655 778.064 398.283 758.781 399.028 728.082Z"/><path fill="#97BBD2" d="M359.754 787.48C385.223 787.212 408.181 785.23 428.344 804.77C443.886 819.832 445.852 842.728 446.524 863.457C440.561 865.756 433.889 868.17 428.063 870.648C427.888 869.947 427.707 869.247 427.518 868.549C420.691 843.341 405.613 828.563 380.71 820.657C365.826 815.932 355.952 814.745 342 806.752C342.974 806.382 343.94 805.994 344.899 805.588C353.75 801.806 356.335 795.897 359.754 787.48Z"/><path fill="#97BBD2" d="M545.273 901.835C544.528 898.601 544.304 890.369 544.499 886.835C546.059 858.6 541.272 825.424 563.136 803.907C569.681 797.477 577.746 792.805 586.58 790.325C601.915 786.004 642.055 787.445 660.107 787.488L660.066 789.049C623.709 801.695 586.668 805.223 567.686 844.358C558.107 864.106 553.242 882.146 545.273 901.835Z"/><path fill="#97BBD2" d="M429.746 892.261C435.898 889.149 442.023 885.985 448.121 882.769C449.033 895.911 454.389 1021.69 452.75 1024.72L450.636 1020.71C448.832 1014.21 446.998 999.052 445.989 991.796L438.893 939.526C437.973 932.604 436.528 918.852 434.314 912.681L434.304 912.227C443.94 903.493 438.556 897.751 429.746 892.261Z"/><path fill="#FEC4AC" d="M217.254 637.344C245.195 636.6 273.152 636.595 301.094 637.33C305.373 637.147 312.941 636.802 317.059 637.328L322.11 639.144L322.506 639.253C326.586 640.339 330.984 640.617 335.059 641.72C356.229 647.451 367.146 659.757 367.848 681.396C397.934 683.145 397.453 703.386 399.028 728.082C398.283 758.781 398.655 778.064 361.205 777.784L359.754 787.48C356.335 795.897 353.75 801.806 344.899 805.588C343.94 805.994 342.974 806.382 342 806.752L339.993 807.339C338.578 807.791 335.578 808.65 334.385 809.258C329.784 813.378 327.799 814.955 322.55 818.269C321.487 818.768 320.411 819.24 319.324 819.684C300.238 827.557 275.322 809.476 268.369 791.906C268.93 790.315 268.978 789.17 269.163 787.515C253.671 786.872 233.691 787.492 217.843 787.513C197.249 759.636 177.764 729.973 157.036 702.288C160.501 682.962 170.734 656.144 177.77 637.621C189.868 636.889 204.999 637.188 217.254 637.344Z"/><path fill="#BFE0EB" d="M217.254 637.344C245.195 636.6 273.152 636.595 301.094 637.33L296.056 639.125C277.266 642.497 272.333 643.333 258.144 656.609C247.682 666.397 244.275 666.669 240.385 681.499C241.403 697.053 243.023 702.874 248.815 717.429C240.032 731.058 241.792 748.863 255.927 758.674C258.958 760.778 262.469 760.651 266.078 760.731C266.463 766.703 266.913 771.769 267.655 777.708C268.06 780.986 268.381 784.312 269.163 787.515C253.671 786.872 233.691 787.492 217.843 787.513C197.249 759.636 177.764 729.973 157.036 702.288C160.501 682.962 170.734 656.144 177.77 637.621C189.868 636.889 204.999 637.188 217.254 637.344Z"/><path fill="#D6F0F4" d="M217.254 637.344C245.195 636.6 273.152 636.595 301.094 637.33L296.056 639.125C277.266 642.497 272.333 643.333 258.144 656.609C247.682 666.397 244.275 666.669 240.385 681.499C218.077 688.727 214.737 699.885 214.333 722.427C213.219 724.557 213.603 728.641 213.62 731.265C204.813 731.169 195.757 731.339 186.929 731.397C190.936 721.123 194.982 704.772 198.417 693.594C204.351 674.73 210.631 655.977 217.254 637.344Z"/><path fill="#97BBD2" d="M240.385 681.499C241.403 697.053 243.023 702.874 248.815 717.429C240.032 731.058 241.792 748.863 255.927 758.674C258.958 760.778 262.469 760.651 266.078 760.731C266.463 766.703 266.913 771.769 267.655 777.708C262.811 777.739 257.967 777.735 253.124 777.697C243.389 777.595 230.171 777.037 223.047 769.583C213.632 759.732 214.068 735.664 214.333 722.427C214.737 699.885 218.077 688.727 240.385 681.499Z"/><path fill="#8DA0A7" d="M301.094 637.33C305.373 637.147 312.941 636.802 317.059 637.328L322.11 639.144L322.506 639.253C326.586 640.339 330.984 640.617 335.059 641.72C356.229 647.451 367.146 659.757 367.848 681.396C366.69 687.043 364.153 697.868 362.069 703.17C360.215 693.491 357.76 682.765 353.613 673.756C331.342 679.331 302.552 679.772 280.227 674.626C276.538 694.681 273.898 705.776 266.941 725.162C260.76 717.45 259.072 715 248.815 717.429C243.023 702.874 241.403 697.053 240.385 681.499C244.275 666.669 247.682 666.397 258.144 656.609C272.333 643.333 277.266 642.497 296.056 639.125L301.094 637.33Z"/><path fill="#FEFEFE" d="M301.094 637.33C305.373 637.147 312.941 636.802 317.059 637.328L322.11 639.144C313.121 638.827 305.017 638.942 296.056 639.125L301.094 637.33Z"/><path fill="#97BBD2" d="M367.848 681.396C397.934 683.145 397.453 703.386 399.028 728.082C398.283 758.781 398.655 778.064 361.205 777.784C365.413 752.775 364.034 728.273 362.069 703.17C364.153 697.868 366.69 687.043 367.848 681.396Z"/><path fill="#FE987A" d="M283.575 792.884C300.165 803.603 314.115 809.223 334.385 809.258C329.784 813.378 327.799 814.955 322.55 818.269C317.35 813.37 304.044 813.04 297.087 809.589C288.431 805.296 286.665 801.509 283.575 792.884Z"/><path fill="#262A30" d="M312.03 774.051C317.902 773.924 326.58 772.83 331.155 776.17C332.584 778.832 332.206 777.731 331.794 781.439C323.802 781.733 311.666 784.704 312.03 774.051Z"/><path fill="#8DA0A7" d="M298.3 704.493C303.202 704.123 315.626 702.963 317.787 708.608L317.5 708.626L316.308 710.295L313.762 710.242C308.547 710.603 297.904 711.67 293.504 708.642L293.321 707.333C294.831 705.523 296.037 705.329 298.3 704.493Z"/><path fill="#FE987A" d="M329.513 728.612C331.874 729.805 335.303 734.979 336.448 737.424C340.98 747.096 341.568 754.944 331.063 759.708C330.278 759.609 328.772 759.205 327.937 759.01C327.546 757.204 332.492 757.082 334.213 753.653C337.186 747.73 331.664 735.113 329.513 728.612Z"/><path fill="#262A30" d="M305.064 721.871C315.057 723.673 313.891 729.263 309.596 736.197C299.239 734.349 300.583 728.97 305.064 721.871Z"/><path fill="#262A30" d="M343.173 721.867C352.685 724.928 350.327 730.913 345.401 736.783C336.459 732.428 337.909 728.522 343.173 721.867Z"/><path fill="#8DA0A7" d="M333.115 704.292C338.952 704.246 346.159 703.636 351.349 706.06C353.05 708.142 352.68 707.078 352.396 710.205C346.759 710.532 338.83 711.753 334.056 709.103C332.33 706.644 332.689 707.854 333.115 704.292Z"/><path fill="#FE987A" d="M251.393 727.288C263.166 727.506 262.867 742.565 262.361 750.929C260.015 747.802 261.168 740.95 259.089 737.309C256.252 732.339 252.789 734.304 251.531 727.984L251.393 727.288Z"/><path fill="#FE987A" d="M301.064 770.762C302.724 774.22 300.493 776.416 301.459 782.464C297.872 779.003 299.514 774.627 301.064 770.762Z"/><path fill="#F53E40" d="M782.332 909.584C787.863 904.956 791.464 903.922 798.579 903.625L802.78 905.044C814.41 911.753 824.637 930.638 830.93 942.436C835.508 941.689 839.357 941.526 843.959 941.277C841.483 946.538 838.993 952.116 836.163 957.173C832.52 963.892 823.964 979.294 819.151 985.053C813.733 986.561 810.574 987.424 804.83 987.929L804.947 999.043C778.836 995.417 757.84 991.316 733.215 981.909C715.593 975.176 693.748 975.121 675.093 976.117L674.887 975.241C675.543 973.368 721.859 918.349 726.099 912.937C740.136 917.844 747.964 921.303 760.936 928.883C766.214 922.841 775.969 914.94 782.332 909.584Z"/><path fill="#FEC4AC" d="M782.332 909.584C787.863 904.956 791.464 903.922 798.579 903.625L802.78 905.044C814.41 911.753 824.637 930.638 830.93 942.436C835.508 941.689 839.357 941.526 843.959 941.277C841.483 946.538 838.993 952.116 836.163 957.173C832.52 963.892 823.964 979.294 819.151 985.053C813.733 986.561 810.574 987.424 804.83 987.929C794.756 987.618 795.105 986.445 790.309 978.082C771.671 970.066 783.011 961.554 794.001 954.328L791.405 953.427C782.627 960.544 769.315 967.683 770.41 949.327L769.695 948.32C758.403 954.451 757.292 937.014 760.936 928.883C766.214 922.841 775.969 914.94 782.332 909.584Z"/><path fill="#FE987A" d="M830.93 942.436C835.508 941.689 839.357 941.526 843.959 941.277C841.483 946.538 838.993 952.116 836.163 957.173C834.1 952.993 832.388 946.986 830.93 942.436Z"/><path fill="#FE987A" d="M769.695 948.32C773.09 939.805 785.483 929.846 793.432 926.354C794.646 925.827 795.878 925.341 797.125 924.898C789.345 931.048 776.655 941.526 770.41 949.327L769.695 948.32Z"/><path fill="#FE987A" d="M791.405 953.427C794.66 950.748 800.002 946.181 804.05 945.034L804.198 945.725C801.38 948.972 797.457 951.702 794.001 954.328L791.405 953.427Z"/><path fill="#FE987A" d="M814.664 964.662L814.215 965.825C808.155 969.962 798.447 974.174 791.672 977.146L791.668 976.481C793.851 972.545 809.913 966.541 814.664 964.662Z"/><path fill="#262A30" d="M675.093 976.117C693.748 975.121 715.593 975.176 733.215 981.909C757.84 991.316 778.836 995.417 804.947 999.043L804.83 987.929C810.574 987.424 813.733 986.561 819.151 985.053C811.891 995.099 804.201 1006.06 796.118 1015.39C790.915 1011.64 771.978 1013.08 764.442 1012.01C693.691 1001.91 618.467 1003.33 548.094 1016.4C548.37 1007.9 551.056 997.772 553.062 989.462C563.842 993.898 586.252 995.328 597.523 992.746L604.296 991.277L609.965 990.425C615.944 989.337 620.207 988.636 626.016 986.758C633.16 986.189 647.95 981.143 655.165 979.342C663.09 977.365 666.79 976.893 675.093 976.117Z"/><path fill="#FEC4AC" d="M446.524 863.457C455.06 859.528 470.005 851.451 478.019 859.117C482.173 870.225 455.582 877.854 448.121 882.769C442.023 885.985 435.898 889.149 429.746 892.261C438.556 897.751 443.94 903.493 434.304 912.227L434.314 912.681L433.451 913.119C434.01 921.519 433.815 923.311 428.264 929.983C428.065 930.469 427.387 932.028 427.308 932.436C425.437 948.631 416.87 949.295 403.731 944.063C390.775 953.088 386.918 953.937 371.534 954.259C369.84 937.901 367.081 929.782 358.273 915.995C372.032 906.719 382.877 894.104 396.71 884.91C406.724 878.253 416.802 874.623 428.063 870.648C433.889 868.17 440.561 865.756 446.524 863.457Z"/><path fill="#FE987A" d="M427.308 932.436C426.391 926.467 421.72 922.345 417.744 917.697C423.105 916.043 426.989 926.199 428.264 929.983C428.065 930.469 427.387 932.028 427.308 932.436Z"/><path fill="#FE987A" d="M433.451 913.119C429.496 911.835 421.983 903.434 419.528 899.634C425.043 903.638 429.284 907.638 434.304 912.227L434.314 912.681L433.451 913.119Z"/><path fill="#FE987A" d="M417.35 888.136C421.8 888.221 424.513 888.154 427.247 891.809C423.146 891.356 418.911 892.133 417.35 888.136Z"/><path fill="#D6F0F4" d="M268.369 791.906C275.322 809.476 300.238 827.557 319.324 819.684C320.411 819.24 321.487 818.768 322.55 818.269C327.799 814.955 329.784 813.378 334.385 809.258C335.578 808.65 338.578 807.791 339.993 807.339C338.837 842.739 335.604 879.748 333.463 915.224C327.86 896.947 325.184 871.936 319.743 851.392L324.93 836.777C321.097 832.158 316.72 827.338 312.741 822.793C308.178 828.436 304.669 833.288 300.508 839.247C302.559 843.801 306.14 849.979 308.602 854.516C303.117 868.268 301.904 880.226 301.605 894.811C297.337 889.757 286.554 877.332 284.181 872.579C279.384 862.974 260.321 804.078 262.336 797.463C264.005 796.868 266.923 793.418 268.369 791.906Z"/><path fill="#BFE0EB" d="M149.724 743.442L189.321 799.35C161.933 813.006 163.088 849.129 162.456 875.399L163.31 875.648L165.516 873.695C164.963 877.388 164.045 885.803 162.489 888.8C149.242 849.982 143.27 784.083 149.724 743.442Z"/><path fill="#97BBD2" d="M165.516 873.695L163.31 875.648L162.456 875.399C163.088 849.129 161.933 813.006 189.321 799.35L207.21 825.286C184.08 835.099 170.677 848.304 165.516 873.695Z"/><path fill="#97BBD2" d="M269.163 787.515C268.978 789.17 268.93 790.315 268.369 791.906C266.923 793.418 264.005 796.868 262.336 797.463C259.98 797.975 255.607 801.702 253.976 803.449C248.601 807.651 243.649 811.551 238.005 815.389C235.666 810.56 221.64 792.533 217.843 787.513C233.691 787.492 253.671 786.872 269.163 787.515Z"/><path fill="#262A30" d="M253.976 803.449C253.879 806.862 253.029 810.139 252.629 813.518C251.702 821.341 252.26 829.137 253.222 836.933C248.497 830.799 242.017 821.993 238.005 815.389C243.649 811.551 248.601 807.651 253.976 803.449Z"/><path fill="#285FF6" d="M886.48 1346.59C921.005 1344.44 950.712 1370.74 952.75 1405.26C954.787 1439.78 928.38 1469.39 893.841 1471.31C859.472 1473.22 830.033 1446.97 828.006 1412.62C825.978 1378.26 852.125 1348.74 886.48 1346.59Z"/><path fill="#FEFEFE" d="M880.08 1387.84C888.504 1389.12 898.336 1401.58 904.199 1407.97C898.885 1413.9 892.364 1420.28 886.741 1426.03C884.665 1427.97 884.195 1428.31 881.619 1427.1L881.274 1425.32C883.071 1420.11 892.327 1412.14 896.513 1408.14C891.152 1402.75 880.779 1395.07 880.08 1387.84Z"/><path fill="#262A30" d="M701.296 87.2935C714.577 83.9959 728.016 92.0873 731.312 105.365C734.608 118.643 726.513 132.078 713.231 135.371C699.953 138.663 686.519 130.572 683.223 117.297C679.928 104.023 688.019 90.5903 701.296 87.2935ZM709.981 125.21C715.05 124.206 719.175 120.533 720.757 115.615C722.339 110.698 721.129 105.309 717.597 101.539C714.065 97.7693 708.766 96.2106 703.755 97.4676C696.27 99.3451 691.647 106.847 693.337 114.374C695.027 121.902 702.412 126.71 709.981 125.21Z"/><path fill="#262A30" d="M509.876 259.868C518.504 257.83 527.56 260.609 533.559 267.135C539.558 273.661 541.564 282.917 538.806 291.341C536.048 299.764 528.955 306.042 520.257 307.758C507.15 310.343 494.386 301.959 491.557 288.906C488.728 275.853 496.875 262.939 509.876 259.868ZM519.382 297.176C526.704 295.068 531.016 287.516 529.109 280.141C527.203 272.766 519.77 268.249 512.344 269.952C507.356 271.096 503.382 274.859 501.969 279.776C500.555 284.694 501.925 289.991 505.545 293.608C509.165 297.225 514.464 298.592 519.382 297.176Z"/><path fill="#262A30" d="M347.793 87.8069C357.655 87.565 372.561 86.1432 380.602 92.3561C392.479 101.532 391.121 117.149 382.785 128.002C371.899 136.898 361.672 135.296 347.973 135.202C348.242 120.449 348.306 102.414 347.793 87.8069ZM358.73 125.28C365.176 125.357 369.62 125.832 375.095 121.833C385.524 104.717 375.138 97.9525 358.704 96.9186L358.73 125.28Z"/><path fill="#262A30" d="M640.904 173.954C650.749 173.666 665.415 172.668 673.357 178.656C685.577 187.87 683.012 203.437 675.275 214.197C663.999 223.248 655.325 221.577 641.165 221.308C640.814 205.815 641.063 189.58 640.904 173.954ZM651.378 212.14C658.394 211.686 661.76 212.115 667.763 208.268C678.287 191.429 667.912 183.689 651.255 183.649C651.209 192.915 650.972 202.946 651.378 212.14Z"/><path fill="#262A30" d="M218.59 174.041L229.6 173.998C228.455 178.742 226.324 184.797 224.8 189.55C221.667 200.02 218.701 211.096 215.088 221.353L206.597 221.456C203.377 210.488 200.234 199.497 197.17 188.484C193.884 197.751 190.261 211.512 187.403 221.234L178.585 221.352C173.69 205.647 169.055 189.862 164.681 174.004L175.127 174.133C178.114 183.446 180.481 194.885 183.419 204.741C186.404 194.524 189.495 184.339 192.691 174.186L201.94 174.163C204.587 184.132 207.41 194.054 210.408 203.923C213.271 194 215.998 184.038 218.59 174.041Z"/><path fill="#262A30" d="M738.972 87.8048L749.066 87.7207C756.125 97.5354 762.999 107.482 769.685 117.554C769.848 107.676 769.836 97.7968 769.65 87.9195L780.157 87.7491L780.154 135.011L770.562 134.928C763.636 125.309 756.801 115.624 750.059 105.876C749.281 113.435 749.928 126.854 750.087 134.858L738.993 134.827C738.818 119.241 738.966 103.41 738.972 87.8048Z"/><path fill="#262A30" d="M555.883 259.815C577.683 258.756 593.322 272.691 572.564 289.034C577.406 295.108 581.142 300.281 585.562 306.682C581.76 306.81 575.744 307.5 572.705 305.616C569.615 301.29 565.359 294.659 561.099 291.864C555.759 291.894 557.234 302.799 557.321 306.824L546.933 306.768C547.048 291.251 547.058 275.734 546.965 260.218L555.883 259.815ZM557.435 282.169C562.261 282.083 565.509 282.218 570.126 280.65C573.83 269.32 566.579 269.523 557.435 269.959L557.435 282.169Z"/><path fill="#262A30" d="M447.059 174.068C458.431 173.894 482.087 171.042 481.229 189.224C480.918 195.828 477.297 199.163 472.565 203.254C475.861 208.32 483.498 215.504 482.898 220.462C480.644 222.094 479.972 221.531 476.706 221.587C468.017 219.961 464.384 204.876 458.738 205.871C456.21 210.018 456.896 216.487 456.994 221.423L447.056 221.295C447.367 205.772 447.161 189.608 447.059 174.068ZM457.115 196.88C460.682 196.724 465.995 196.782 469.144 195.537C474.303 183.963 466.729 184.03 457.147 183.776C457.099 188.032 456.951 192.658 457.115 196.88Z"/><path fill="#262A30" d="M218.283 260.206L228.907 260.242L228.899 306.615C226.84 306.906 221.547 306.803 219.215 306.817C212.218 297.49 205.46 287.986 198.948 278.314C198.689 287.557 198.847 297.463 198.827 306.757L188.173 306.744L188.202 260.325L198.539 260.253C204.568 268.198 212.586 280.958 218.337 289.532L218.283 260.206Z"/><path fill="#262A30" d="M316.771 260.192C325.761 260.123 342.553 258.391 347.885 266.035C354.68 275.776 349.855 282.924 342.369 289.128C346.113 293.588 351.431 301.26 354.588 306.12L354.187 306.708L347.52 307.176C338.805 306.462 336.207 292.956 328.648 291.738L327.509 292.879C326.745 296.565 327.005 302.833 327.026 306.786L316.535 306.753C317.183 292.17 316.773 274.97 316.771 260.192ZM327.004 282.15C332.281 282.082 334.558 282.279 339.673 280.703C343.253 269.364 335.803 269.862 326.917 269.925L327.004 282.15Z"/><path fill="#262A30" d="M322.624 173.973L333.18 173.932C332.659 189.503 333.442 205.775 333.017 221.487L322.615 221.507C322.953 215.046 322.729 209.011 322.558 202.552L304.109 202.506C304.199 208.877 304.185 215.249 304.069 221.619L292.946 221.449C293.636 207.253 293.08 188.622 293.016 174.018L304.139 173.962L304.207 192.898L322.816 192.799C322.871 186.523 322.806 180.246 322.624 173.973Z"/><path fill="#262A30" d="M225.933 87.1427C242.67 86.462 248.217 89.4811 254.736 105.008L243.964 105.011C240.918 101.384 236.433 96.5482 231.227 96.8226C213.558 97.7536 213.155 128.32 233.441 125.287C238.269 124.565 240.208 122.63 243.055 118.996L244.453 117.54C247.711 116.377 251.32 116.81 254.827 116.935C254.309 118.601 253.741 120.25 253.125 121.882C248.188 134.603 235.304 139.634 222.833 134.391C216.116 131.609 210.823 126.212 208.174 119.443C201.908 103.512 211.535 92.6729 225.933 87.1427Z"/><path fill="#262A30" d="M290.101 87.7937L300.826 87.7433C300.506 94.2486 301.505 131.77 299.833 134.908L289.876 135.013C290.104 128.849 289.954 122.348 289.914 116.155L270.776 116.16C270.056 123.343 270.205 128.027 270.807 135.028L259.971 135.09L259.99 87.81L270.285 87.7509C270.136 94.3833 270.222 100.008 270.483 106.64L290.113 106.664L290.101 87.7937Z"/><path fill="#262A30" d="M376.319 173.398C391.815 172.655 398.024 177.448 404.125 191.418L393.52 191.518C370.245 166.14 354.428 209.276 381.815 212.249C385.376 212.635 389.455 208.681 391.73 206.063L393.123 204.436C396.233 203.452 400.521 203.883 403.866 204.013C403.206 205.661 402.499 207.291 401.746 208.899C395.812 221.302 383.063 226.655 370.594 220.082C364.398 216.834 359.758 211.242 357.71 204.554C352.916 188.437 361.306 177.964 376.319 173.398Z"/><path fill="#262A30" d="M423.503 259.649C439.047 259.182 445.441 262.506 450.472 277.485L440.472 277.334C437.42 274.122 432.304 268.825 427.745 269.332C402.079 272.184 418.827 315.602 439.69 290.779C441.873 289.203 446.992 289.204 449.341 290.442C452.558 297.176 439.136 306.355 433.524 307.917C428.636 309.278 421.276 307.66 416.833 305.427C411.035 302.502 406.666 297.359 404.716 291.166C399.65 275.337 408.881 264.333 423.503 259.649Z"/><path fill="#262A30" d="M424.914 87.8758L435.095 87.7349L435.042 96.2844C435.18 106.235 436.823 125.222 429.712 130.31C407.368 146.296 392.203 127.139 395.956 103.849C396.381 101.214 396.036 89.9378 396.05 87.9053L406.631 87.8569C406.226 97.4008 403.934 123.017 415.353 126.504C427.488 125.798 425.127 96.1767 424.914 87.8758Z"/><path fill="#262A30" d="M613.749 87.1636C628.18 86.6666 631.95 88.7688 637.401 102.078C635.919 102.151 630.786 102.461 629.711 101.92C624.551 99.3255 619.088 92.4581 613.544 98.9794C615.212 105.688 633.879 107.218 636.619 117.074C639.743 128.311 631.932 132.61 622.956 135.98C616.575 135.781 600.909 132.332 600.778 124.288C600.743 122.7 601.35 121.165 602.461 120.03C606.976 115.467 616.417 127.798 621.695 127.047C625.398 126.52 626.34 122.78 625.642 119.619C623.235 115.612 616.928 114.433 612.521 113.107C595.793 108.074 600.061 92.9978 613.749 87.1636Z"/><path fill="#262A30" d="M178.467 87.1872C187.542 86.6 203.426 90.0678 200.269 102.468C192.359 104.67 184.036 89.5473 178.147 99.7705C179.194 103.935 187.749 105.787 191.65 107.963C209.463 117.897 204.761 128.32 189.138 135.67C188.795 135.704 188.451 135.731 188.107 135.752C180.966 136.174 175.589 135.123 169.975 130.438C167.404 128.291 165.061 122.032 167.644 119.613C174.736 120.637 184.06 128.684 190.644 124.778C191.581 120.067 188.233 118.227 184.522 116.722C168.749 110.327 155.333 97.2389 178.467 87.1872Z"/><path fill="#262A30" d="M799.76 87.1161C808.74 86.5924 816.21 88.3237 821.37 97.2881C822.2 98.73 821.628 99.9127 821.078 101.306C818.341 102.661 817.178 102.041 813.761 101.86C808.312 97.0337 805.501 93.4046 798.894 98.8236C797.191 105.27 819.234 106.684 822.094 115.898C825.383 126.495 818.744 131.754 809.748 135.897C803.609 136.019 782.503 132.728 788.02 120.553C790.511 115.054 802.65 127.905 809.455 126.646C814.864 122.149 809.856 116.052 804.491 115.204C786.709 112.395 779.952 94.8874 799.76 87.1161Z"/><path fill="#262A30" d="M654.234 87.1525C662.299 86.7109 682.09 90.5066 675.599 102.218C668.954 104.539 660.984 92.422 654.808 97.4126C652.896 103.28 659.625 104.344 664.237 106.545C672.757 110.611 674.642 111.681 678.727 120.482C675.764 129.913 673.493 132.276 664.023 135.716C650.635 136.362 645.437 133.126 641.453 120.204L652.131 120.172C656.129 126.091 661.764 131.33 666.856 122.866C667.532 112.757 636.323 114.392 643.306 97.5695C646.032 91.003 648.085 89.9464 654.234 87.1525Z"/><path fill="#262A30" d="M386.551 260.239L396.512 260.248L396.66 269.063C396.83 278.774 398.479 295.322 391.624 302.817C384.862 309.746 369.817 309.575 363.302 302.592C357.655 296.54 358.838 283.82 358.788 276.027C358.755 271.005 358.956 265.405 359.055 260.276L369.22 260.281C369.093 269.004 367.153 292.087 372.954 295.92C391.596 308.24 386.73 264.697 386.551 260.239Z"/><path fill="#262A30" d="M601.367 259.629C609.529 259.367 624.388 263.36 621.455 274.032C615.614 276.236 605.629 265.543 599.797 270.289L599.611 272.15C601.375 275.962 603.302 276.285 607.088 277.867C615.127 281.226 629.82 288.022 621.585 298.83C617.131 304.676 613.691 306.826 606.356 307.982C605.63 307.883 604.967 307.771 604.25 307.665C599.883 307.061 595.737 305.371 592.193 302.75C589.143 300.455 585.25 295.305 588.062 291.692C594.32 290.382 601.269 297.083 608.278 298.822C611.156 297.785 612.108 296.294 612.568 293.484C608.904 285.649 580.454 284.623 589.027 268.123C591.931 262.532 595.781 261.365 601.367 259.629Z"/><path fill="#262A30" d="M249.133 259.645C257.172 259.134 272.956 263.015 269.415 273.939C260.513 275.742 257.496 266.161 250.25 269.181C248.661 271 248.576 271.268 248.374 273.68C251.205 280.495 283.803 280.537 268.953 300.831C264.906 306.362 262.943 306.629 256.452 307.84C249.355 307.26 232.358 303.063 236.39 292.874C245.379 286.627 251.823 306.173 260.759 295.703C261.868 287.973 241.296 286.528 237.978 277.664C234.166 267.478 240.813 263.409 249.133 259.645Z"/><path fill="#262A30" d="M565.678 87.7887C571.896 87.7566 588.777 87.3005 594.101 88.219C595.654 90.5754 594.853 93.5263 593.488 95.7255C589.271 98.5981 581.427 97.3283 576.128 97.0206L576.094 106.377C581.618 106.733 587.15 106.972 592.684 107.093C592.878 109.905 593.147 111.158 592.371 113.897C586.547 119.257 579.565 111.172 575.674 117.625C575.769 120.279 575.485 121.903 577.14 123.871C582.183 127.321 589.681 125.794 596.052 125.381L596.211 135.02L565.599 135.006C565.758 119.268 565.784 103.528 565.678 87.7887Z"/><path fill="#262A30" d="M507.285 87.7648L507.207 96.8093L488.049 97.0448L488.351 106.34C492.099 106.277 502.323 105.503 504.585 107.937C505.191 110.788 505.164 111.136 504.41 113.954C498.924 119.884 490.708 109.62 487.834 119.007C487.988 121.105 487.958 121.7 488.618 123.667C492.611 127.176 502.355 125.716 507.891 125.449L507.975 134.997L477.929 135.08L477.954 87.845L507.285 87.7648Z"/><path fill="#262A30" d="M409.607 174.032L437.989 174.017L438.13 183.653L419.892 183.736L419.947 192.786C424.92 192.669 428.919 192.516 433.906 192.993C437.128 195.543 437.494 198.211 435.137 201.584C429.851 203.823 423.139 199.04 419.744 203.935C419.736 204.723 419.74 205.511 419.754 206.298C419.939 214.905 432.639 212.339 438.912 212.094L438.868 221.344L409.68 221.373L409.607 174.032Z"/><path fill="#262A30" d="M603.906 174.021L632.333 173.937L632.287 183.741L613.635 183.741L613.616 192.863C617.949 192.767 626.197 192.143 629.772 193.934C630.578 196.55 630.513 196.926 630.086 199.646C625.184 205.999 615.433 196.034 613.206 206.298C613.694 209.666 613.432 211.673 617.336 212.191C622.163 212.83 628.245 212.21 633.128 212.003L633.084 221.337L603.41 221.313C603.216 211.758 602.893 182.414 603.906 174.021Z"/><path fill="#262A30" d="M309.91 87.9996C317.213 87.8714 332.069 87.1318 338.55 88.1932L339.173 89.1363C339.407 91.9134 339.674 92.7466 338.2 95.0415C334.227 98.3674 325.651 97.1445 320.195 96.9739L320.336 106.5C323.092 106.448 325.849 106.413 328.605 106.395C332.025 106.384 334.385 105.97 336.547 108.123C337.326 110.599 337.201 110.965 336.532 113.496C332.299 118.518 328.057 113.436 321.825 115.552C319.83 117.574 320.376 117.614 319.928 120.842C320.157 122.606 320.264 122.69 320.939 124.263C325.782 126.938 334.227 125.733 339.927 125.405L339.749 135.014L309.949 135.022C310.21 120.664 310.496 102.165 309.91 87.9996Z"/><path fill="#262A30" d="M547.772 173.957C557.498 174.022 567.225 173.978 576.95 173.825L576.855 183.817L557.736 183.758C557.607 187.54 557.682 191.326 557.726 195.11C562.456 194.825 568.608 193.787 572.507 195.974C574.576 198.789 573.96 198.427 574.311 202.377C571.567 205.052 562.138 204.279 557.975 204.248L557.961 221.346L547.515 221.358C547.979 205.86 547.759 189.521 547.772 173.957Z"/><path fill="#262A30" d="M485.296 174.017L522.134 174.006L522.111 183.798L509.359 183.794L509.218 208.96L509.491 221.487L498.539 221.473C499.091 208.988 498.858 196.258 498.782 183.746L485.282 183.743L485.296 174.017Z"/><path fill="#262A30" d="M251.364 173.946C263.033 174.185 275.625 173.936 287.368 173.927L287.275 183.744L275.247 183.811L275.229 208.875L275.194 221.335L264.757 221.31C264.839 208.813 264.848 196.316 264.785 183.819L251.958 183.778C252.068 180.115 251.759 177.599 251.364 173.946Z"/><path fill="#262A30" d="M274.822 260.16C285.146 260.697 300.043 260.259 310.712 260.274L310.787 269.908L298.598 269.858L298.564 295.687L298.587 306.803L287.933 306.821C288.464 294.893 287.803 282.149 288.174 269.859L275.045 269.956L274.822 260.16Z"/><path fill="#262A30" d="M453.126 260.128C458.36 260.27 486.255 259.3 488.803 261.02C489.083 264.206 489.391 267.044 487.022 269.355C484.169 270.501 479.449 270.02 476.219 269.897C476.069 277.949 476.139 286.241 476.105 294.315L476.127 306.746L466.191 306.717C465.884 294.701 466.016 281.961 465.939 269.887L453.173 269.93L453.126 260.128Z"/><path fill="#262A30" d="M443.999 87.9775L455.052 87.7576C455.361 99.8674 455.126 113.108 455.179 125.314L471.74 125.305L471.723 135.006L444.083 134.917C444.236 119.271 444.208 103.623 443.999 87.9775Z"/><path fill="#262A30" d="M532.004 87.9088L543.087 87.8346C542.819 100.151 542.971 113.018 542.953 125.378L560.226 125.381L560.165 135.007L531.937 134.956C532.94 124.816 532.08 99.1444 532.004 87.9088Z"/><path fill="#262A30" d="M168.132 260.181L179.173 260.226L179.135 306.875L168.3 306.76C167.907 291.683 168.176 275.36 168.132 260.181Z"/><path fill="#262A30" d="M234.734 174.054L246.037 173.912C246.045 180.763 246.471 217.144 245.525 220.972L243.997 221.298C241.323 221.345 237.618 221.666 235.537 220.249C233.67 208.663 236.716 186.539 234.862 174.819L234.734 174.054Z"/><path fill="#262A30" d="M583.499 174.019L594.075 173.92L594.101 221.409L583.537 221.402L583.499 174.019Z"/><path fill="#262A30" d="M527.495 174.053L537.958 173.951L537.991 221.626L527.61 221.486C527.474 209.419 528.627 183.97 527.495 174.053Z"/><path fill="#D6F0F4" d="M511.95 1316.71C517.692 1315.99 522.95 1320 523.777 1325.73C524.605 1331.45 520.698 1336.79 514.989 1337.73C511.194 1338.36 507.356 1336.88 504.956 1333.88C502.556 1330.87 501.968 1326.8 503.419 1323.24C504.87 1319.68 508.133 1317.18 511.95 1316.71Z"/><path fill="#262A30" d="M557.302 1317.41C560.922 1316.33 564.843 1317.27 567.569 1319.89C570.294 1322.51 571.403 1326.38 570.471 1330.04C569.539 1333.7 566.712 1336.58 563.067 1337.58C557.525 1339.09 551.796 1335.86 550.217 1330.34C548.638 1324.82 551.797 1319.05 557.302 1317.41Z"/><path fill="#D6F0F4" d="M462.451 1317.42C467.84 1315.74 473.589 1318.65 475.415 1323.99C477.24 1329.34 474.477 1335.16 469.184 1337.12C465.634 1338.44 461.649 1337.73 458.775 1335.26C455.902 1332.8 454.593 1328.97 455.357 1325.26C456.121 1321.55 458.837 1318.55 462.451 1317.42Z"/><path fill="#262A30" d="M148.686 1390.23C149.912 1391.31 149.827 1391.63 150.261 1393.2C148.726 1398.69 140.925 1404.81 136.553 1408.81C140.731 1412.82 149.644 1420.01 149.807 1425.29L148.316 1426.75C142.376 1421.01 136.094 1415.16 130.711 1408.93L148.686 1390.23Z"/></svg>