<?xml version="1.0" encoding="utf-8" ?><svg xmlns="http://www.w3.org/2000/svg" xmlns:xlink="http://www.w3.org/1999/xlink" width="1024" height="1536" viewBox="0 0 1024 1536"><path fill="#E0EDEF" d="M164.521 623.571C165.661 614.439 164.921 580.4 164.928 569.366L164.905 453.838C164.9 449.481 164.592 444.257 164.889 439.998C166.266 420.309 158.039 389.325 187.189 389.144C225.693 388.906 263.819 389.148 302.138 389.062L460.919 388.693C480.692 388.724 510.435 388.292 530.468 390.445C534.842 390.916 540.2 399.707 542.326 403.879C604.442 410.74 677.405 433.062 728.452 469.335C734.295 473.002 741.312 477.939 746.675 482.308C790.369 513.884 832.385 565.574 854.227 614.946C857.588 622.381 865.027 638.294 866.958 645.536C875.775 666.212 880.598 687.772 884.39 709.828C902.541 815.407 874.903 929.482 806.24 1012.51C800.592 1020.27 789.921 1032.54 782.84 1039.51C774.527 1050.89 768.45 1062.88 755.887 1069.66C752.122 1071.7 747.342 1073.27 744.424 1074.9C678.463 1122.43 611.511 1148.57 529.739 1153.48C435.137 1159.16 333.255 1122.54 262.447 1059.94C217.449 1020.62 182.383 971.223 160.11 915.779C122.241 821.742 123.831 716.423 164.521 623.571Z"/><path fill="#CADCE5" d="M728.452 469.335C734.295 473.002 741.312 477.939 746.675 482.308C790.369 513.884 832.385 565.574 854.227 614.946C857.588 622.381 865.027 638.294 866.958 645.536C875.775 666.212 880.598 687.772 884.39 709.828C902.541 815.407 874.903 929.482 806.24 1012.51C800.592 1020.27 789.921 1032.54 782.84 1039.51C784.14 1032.95 788.707 1022.11 791.33 1015.48C795.745 1004.33 798.984 995.413 801.99 983.766C776.833 979.906 749.839 973.088 724.38 968.373L718.893 976.526L716.278 979.447C688.073 958.014 646.524 930.249 623.191 904.802C591.059 869.759 582.99 862.125 538.74 842.353C554.242 821.14 573.388 811.193 597.728 802.182L597.957 763.972C587.141 743.252 584.214 728.983 582.405 705.444C581.853 698.269 580.934 685.602 579.348 678.979C575.548 671.107 574.397 663.093 573.605 654.555C568.328 648.374 563.575 641.514 562.468 633.325C559.147 608.754 577.758 597.735 597.701 591.967C598.295 552.625 597.297 509.687 597.204 470.075C626.91 470.528 656.62 470.661 686.329 470.474C696.033 470.442 720.309 470.865 728.452 469.335Z"/><path fill="#EC5757" d="M630.891 794.963C628.774 812.527 639.272 827.166 657.401 828.59C678.141 830.219 693.176 814.817 700.342 796.795C701.603 793.623 703.316 787.147 705.72 785.488C712.781 787.612 720.837 789.676 727.664 791.936C741.065 795.455 751.426 799.505 764.343 804.419C788.645 816.129 809.506 825.875 818.99 853.921C829.416 884.75 825.481 919.559 822.462 951.378C821.52 961.304 820.13 977.132 818.206 986.616C814.455 985.862 810.153 984.887 806.42 984.31C806.354 993.583 806.132 1003.28 806.24 1012.51C800.592 1020.27 789.921 1032.54 782.84 1039.51C784.14 1032.95 788.707 1022.11 791.33 1015.48C795.745 1004.33 798.984 995.413 801.99 983.766C776.833 979.906 749.839 973.088 724.38 968.373L718.893 976.526L716.278 979.447C688.073 958.014 646.524 930.249 623.191 904.802C591.059 869.759 582.99 862.125 538.74 842.353C554.242 821.14 573.388 811.193 597.728 802.182C602.501 800.532 607.247 798.809 611.967 797.015C617.565 795.095 623.184 793.241 628.825 791.452C630.714 793.39 630.326 792.493 630.891 794.963Z"/><path fill="#D14E4D" d="M735.214 878.013L736.746 879.761C737.527 887.469 721.347 960.896 717.557 971.406C716.88 970.982 716.459 970.393 715.885 969.767C715.068 964.331 732.092 884.397 735.214 878.013Z"/><path fill="#FCBAA9" d="M612.04 590.054C653.899 581.848 695.45 575.16 713.071 617.482C713.529 618.583 723.005 627.544 725.903 632.272C730.091 645.424 728.479 654.489 725.616 667.472C723.555 673.086 720.395 682.434 717.862 687.49C720.922 698.409 724.048 707.716 718.103 718.796C714.074 726.305 707.885 728.207 699.839 728.707C700.207 736.58 701.548 779.452 704.034 784.691L705.72 785.488C703.316 787.147 701.603 793.623 700.342 796.795C693.176 814.817 678.141 830.219 657.401 828.59C639.272 827.166 628.774 812.527 630.891 794.963C630.326 792.493 630.714 793.39 628.825 791.452C623.184 793.241 617.565 795.095 611.967 797.015C607.247 798.809 602.501 800.532 597.728 802.182L597.957 763.972C587.141 743.252 584.214 728.983 582.405 705.444C581.853 698.269 580.934 685.602 579.348 678.979C575.548 671.107 574.397 663.093 573.605 654.555C568.328 648.374 563.575 641.514 562.468 633.325C559.147 608.754 577.758 597.735 597.701 591.967L612.04 590.054Z"/><path fill="#2B2B2F" d="M612.04 590.054C653.899 581.848 695.45 575.16 713.071 617.482C713.529 618.583 723.005 627.544 725.903 632.272C730.091 645.424 728.479 654.489 725.616 667.472C723.555 673.086 720.395 682.434 717.862 687.49C704.955 673.585 696.144 691.001 690.768 701.467C678.673 682.06 676.617 671.272 676.698 649.038C650.59 659.153 607.606 660.986 580.316 654.955C580.268 661.408 580.454 673.08 579.348 678.979C575.548 671.107 574.397 663.093 573.605 654.555C568.328 648.374 563.575 641.514 562.468 633.325C559.147 608.754 577.758 597.735 597.701 591.967L612.04 590.054Z"/><path fill="#F09684" d="M677.136 763.415C670.993 779.612 649.607 802.062 630.891 794.963C630.326 792.493 630.714 793.39 628.825 791.452C630.97 790.858 631.57 788.228 632.402 786.327C634.188 784.785 641.565 784.042 644.447 783.435C658.298 780.517 667.453 773.581 677.136 763.415Z"/><path fill="#CADCE5" d="M597.957 763.972C602.361 770.022 605.31 773.933 611.281 778.767C611.226 782.82 610.697 793.673 611.967 797.015C607.247 798.809 602.501 800.532 597.728 802.182L597.957 763.972Z"/><path fill="#E0EDEF" d="M611.281 778.767C616.26 781.412 620.412 783.17 625.873 784.535C627.401 784.917 631.298 785.595 632.402 786.327C631.57 788.228 630.97 790.858 628.825 791.452C623.184 793.241 617.565 795.095 611.967 797.015C610.697 793.673 611.226 782.82 611.281 778.767Z"/><path fill="#F09684" d="M614.298 692.79C625.621 700.567 609.908 719.85 614.101 728.32C618.765 730.233 622.356 725.43 627.113 729.362L627.421 732.639C607.246 738.163 606.635 727.84 610.195 711.988C611.615 705.665 612.663 699.188 614.298 692.79Z"/><path fill="#F09684" d="M648.711 737.803C650.543 739.442 650.853 739.666 651.333 742.048C649.594 751.715 628.004 752.983 620.295 752.068C618.613 750.41 618.023 749.371 618.634 747.232C622.436 745.233 628.011 747.109 632.205 748.12C641.116 745.161 641.744 744.143 648.711 737.803Z"/><path fill="#2B2B2F" d="M639.27 672.164C643.726 671.915 659.692 671.02 656.799 679.655C654.42 680.498 655.563 680.509 653.255 679.739C648.472 679.329 635.738 680.671 632.594 676.626L632.974 675.147C635.425 673.239 636.399 673.058 639.27 672.164Z"/><path fill="#2B2B2F" d="M593.368 674.347C598.09 674.108 603.231 673.428 605.637 678.53L604.872 679.957C602.302 681.639 600.328 681.298 597.198 681.295C593.082 682.125 590.666 683.133 587.316 680.05L587.325 678.389C588.947 675.992 590.749 675.496 593.368 674.347Z"/><path fill="#2B2B2F" d="M644.934 690.226C653.768 693.158 650.903 700.403 647.656 706.322C638.677 702.539 640.724 696.837 644.934 690.226Z"/><path fill="#2B2B2F" d="M596.107 691.637C605.315 693.322 602.825 700.945 600.424 707.113C590.603 705.053 593.401 698.323 596.107 691.637Z"/><path fill="#F09684" d="M707.633 692.646C709.658 693.38 708.959 692.735 709.92 694.506C708.968 697.822 705.025 703.747 703.087 707.7C701.764 708.324 702.488 708.136 700.769 707.766C699.364 702.898 704.689 696.17 707.633 692.646Z"/><path fill="#E0EDEF" d="M610.907 483.105L727.77 483.011C727.765 498.705 729.463 627.477 725.903 632.272C723.005 627.544 713.529 618.583 713.071 617.482C695.45 575.16 653.899 581.848 612.04 590.054C609.156 581.947 611.115 498.231 610.907 483.105Z"/><path fill="#E0EDEF" d="M866.027 802.526C867.764 763.981 864.948 723.524 866.137 684.85C866.395 676.436 864.597 652.441 866.958 645.536C875.775 666.212 880.598 687.772 884.39 709.828C902.541 815.407 874.903 929.482 806.24 1012.51C806.132 1003.28 806.354 993.583 806.42 984.31C810.153 984.887 814.455 985.862 818.206 986.616C820.13 977.132 821.52 961.304 822.462 951.378C825.481 919.559 829.416 884.75 818.99 853.921C809.506 825.875 788.645 816.129 764.343 804.419C769.755 800.694 850.922 802.413 866.027 802.526Z"/><path fill="#E0EDEF" d="M738.915 638.991L738.861 535.111C738.853 523.337 738.082 494.422 739.331 484.356C741.049 482.692 744.099 482.673 746.675 482.308C790.369 513.884 832.385 565.574 854.227 614.946C852.228 619.416 852.949 633.117 853.016 638.814L738.915 638.991Z"/><path fill="#E0EDEF" d="M725.616 667.472C729.673 672.559 726.98 762.837 727.829 775.694C728.013 778.483 727.758 788.637 727.664 791.936C720.837 789.676 712.781 787.612 705.72 785.488L704.034 784.691C701.548 779.452 700.207 736.58 699.839 728.707C707.885 728.207 714.074 726.305 718.103 718.796C724.048 707.716 720.922 698.409 717.862 687.49C720.395 682.434 723.555 673.086 725.616 667.472Z"/><path fill="#E0EDEF" d="M738.968 650.402C776.982 650.032 814.998 649.983 853.013 650.252L852.951 789.666C815.164 790.116 776.643 789.756 738.796 789.786L738.968 650.402Z"/><path fill="#88B1E6" d="M164.521 623.571C165.661 614.439 164.921 580.4 164.928 569.366L164.905 453.838C164.9 449.481 164.592 444.257 164.889 439.998C166.266 420.309 158.039 389.325 187.189 389.144C225.693 388.906 263.819 389.148 302.138 389.062L460.919 388.693C480.692 388.724 510.435 388.292 530.468 390.445C534.842 390.916 540.2 399.707 542.326 403.879C543.777 421.111 543.147 443.941 543.143 461.75L543.114 556.276L543.167 640.439C543.213 656.723 543.461 673.056 542.735 689.321C541.685 712.855 511.9 708.997 495.296 708.861L457.096 708.705C432.85 708.45 408.201 708.68 383.925 708.697C339.384 709.27 296.57 708.719 252.183 708.696L211.077 708.881C198.76 708.959 169.804 712.024 166.406 695.006C162.048 673.178 167.242 646.594 164.626 624.411L164.521 623.571Z"/><path fill="#FEFEFE" d="M185.513 393.227C254.361 391.986 325.197 393.057 394.156 393.04L476.143 393.001C490.696 392.997 505.307 392.811 519.842 393.261C527.065 393.484 536.401 396.735 537.516 404.976C539.192 417.372 538.661 430.49 538.656 443.032L538.632 508.314L538.595 624.047C538.607 644.66 538.825 665.287 538.461 685.894C538.271 696.675 533.289 702.052 523.065 704.32L298.477 704.256L226.503 704.333C213.149 704.352 199.755 704.526 186.424 704.069C181.125 704.137 172.432 700.877 171.399 694.853C167.58 672.564 169.191 646.742 169.225 624.126L169.34 516.808L169.283 452.518C169.168 439.712 168.664 426.819 168.95 414.028C169.226 401.689 173.985 396.175 185.513 393.227Z"/><path fill="#1555FE" d="M249.05 602.64L373.197 602.481L458.443 602.943C472.815 603.03 487.32 602.948 501.623 603.831C505.18 604.051 508.808 609.413 509.42 612.827C511.757 625.861 514.796 668.876 505.905 678.205C501.484 682.842 466.816 681.36 458.924 681.213C439.071 680.639 417.071 681.063 397.009 681.061L290.567 681.136C280.506 681.178 206.806 682.433 202.223 678.195C192.863 669.539 197.349 624.726 198.229 609.855C201.843 606.403 203.01 605.662 207.344 603.076L249.05 602.64Z"/><path fill="#FEFEFE" d="M337.453 630.333C343.991 628.503 350.772 632.336 352.573 638.881C354.374 645.426 350.509 652.188 343.954 653.959C337.441 655.718 330.731 651.884 328.941 645.381C327.152 638.878 330.956 632.152 337.453 630.333Z"/><path fill="#1555FE" d="M339.381 632.701C351.848 634.809 350.798 644.504 342.244 651.49C329.575 648.737 330.213 640.027 339.381 632.701Z"/><path fill="#FEFEFE" d="M363.166 630.734C369.489 628.37 376.53 631.592 378.873 637.922C381.215 644.252 377.967 651.28 371.627 653.6C365.319 655.908 358.332 652.681 356.001 646.382C353.67 640.083 356.874 633.086 363.166 630.734Z"/><path fill="#1555FE" d="M365.69 632.7C377.538 634.414 378.318 644.09 369.194 651.196C356.594 650.837 357.266 639.909 365.69 632.7Z"/><path fill="#FEFEFE" d="M307.814 630.01C309.494 629.95 311.175 629.921 312.856 629.924C315.955 629.943 320.646 630.374 323.099 632.821C326.466 636.178 321.787 640.419 322.529 642.115C324.309 646.185 325.221 646.418 324.888 651.437C317.706 654.832 315.615 654.238 307.723 654.011L307.814 630.01Z"/><path fill="#1555FE" d="M311.388 643.276C314.763 643.34 317.206 643.176 319.819 645.165C321.215 647.404 320.929 647.982 320.716 650.784C317.771 651.004 315.259 651.646 312.866 650.182C311.25 648.044 311.518 646.053 311.388 643.276Z"/><path fill="#1555FE" d="M311.7 633.185C314.402 633.372 315.464 633.366 318.071 634.235C320.178 636.691 319.564 636.048 320.12 639.626C317.23 639.885 315.23 640.397 312.714 639.106C311.237 637.067 311.598 635.766 311.7 633.185Z"/><path fill="#FEFEFE" d="M384.239 629.345C390.296 630.8 388.612 636.458 388.301 641.607C394.108 635.285 396.769 633.047 403.867 628.645C400.761 634.182 398.224 636.872 394.011 641.44L401.138 649.838C402.477 651.596 402.462 651.476 402.527 653.666L401.468 654.225C398.188 652.854 394.661 647.293 391.037 644.25C389.391 645.559 388.129 651.017 386.222 654.277L385.182 654.129C383.35 648.749 384.079 635.634 384.239 629.345Z"/><path fill="#E0EDEF" d="M197.448 560.908C196.603 536.435 197.534 511.787 197.204 487.295C197.089 478.731 197.186 470.105 197.154 461.547C197.127 453.931 196.933 446.227 197.742 438.665C198.163 434.734 199.198 430.47 202.049 427.571C208.705 420.38 216.483 420.667 225.609 420.422C247.415 419.836 269.271 420.071 291.087 420.197C304.43 420.274 318.14 419.776 331.411 420.949C334.415 421.215 340.941 422.293 343.151 424.384C350.044 430.904 351.279 441.519 351.234 450.546C351.13 471.1 350.918 491.57 350.982 512.148C351.03 527.329 351.454 542.952 350.849 558.105C350.722 561.274 349.595 565.846 348.126 568.69C341.318 584.371 307.088 580.351 292.725 579.868C292.937 563.333 292.9 546.795 292.615 530.26L291.4 529.746L290.114 531.102C286.133 535.997 276.432 543.925 274.837 546.337L273.871 546.379C266.629 540.992 260.414 536.988 253.8 530.773L252.591 531.157C255.288 546.813 258.708 564.349 260.721 579.911L248.259 579.9C227.611 580.795 204.453 585.664 197.448 560.908Z"/><path fill="#FECEC2" d="M252.935 489.083C268.695 463.814 248.419 446.706 284.514 458.19C287.703 459.205 296.588 453.026 301.71 456.612C305.431 461.434 305.773 470.235 306.601 476.485L305.298 478.545L305.327 479.172C310.102 498.481 304.928 515.604 291.4 529.746L290.114 531.102C286.133 535.997 276.432 543.925 274.837 546.337L273.871 546.379C266.629 540.992 260.414 536.988 253.8 530.773C252.232 526.369 251.608 519.825 250.992 515.052C250.666 514.297 248.862 506.272 248.55 504.948C237.401 498.849 233.083 492.686 240.945 480.561C247.28 481.014 249.349 484.511 252.935 489.083Z"/><path fill="#FCBAA9" d="M250.992 515.052L251.482 515.481C261.069 524.015 263.608 532.471 279.226 531.113C281.379 530.926 288.439 530.256 290.114 531.102C286.133 535.997 276.432 543.925 274.837 546.337L273.871 546.379C266.629 540.992 260.414 536.988 253.8 530.773C252.232 526.369 251.608 519.825 250.992 515.052Z"/><path fill="#848389" d="M305.327 479.172C301.452 479.265 296.427 480.26 294.256 476.662L294.982 475.233C299.697 472.793 302.369 474.593 305.298 478.545L305.327 479.172Z"/><path fill="#848389" d="M268.91 474.761C272.473 474.573 277.584 474.163 279.678 477.42L278.843 479.111C275.229 479.29 268.924 480.872 267.493 477.327L268.91 474.761Z"/><path fill="#F09684" d="M288.919 485.777C291.66 489.484 290.718 500.509 289.129 504.75C286.665 499.667 287.399 490.947 288.919 485.777Z"/><path fill="#F09684" d="M276.297 507.926C281.555 508.95 287.496 507.801 291.247 508.923L290.891 510.192C284.725 512.788 281.145 512.926 276.297 507.926Z"/><path fill="#3D5879" d="M246.525 535.755C247.838 534.131 250.535 531.864 252.591 531.157C255.288 546.813 258.708 564.349 260.721 579.911L248.259 579.9C227.611 580.795 204.453 585.664 197.448 560.908C203.421 549.646 233.554 541.14 246.525 535.755Z"/><path fill="#1555FE" d="M246.525 535.755C247.838 534.131 250.535 531.864 252.591 531.157C255.288 546.813 258.708 564.349 260.721 579.911L248.259 579.9C248.849 567 249.431 565.691 236.965 560.564C240.823 552.912 245.707 544.215 246.525 535.755Z"/><path fill="#3D5879" d="M292.615 530.26C295.839 532.278 306.216 539.371 308.796 540.386C332.046 549.539 333.999 546.578 348.126 568.69C341.318 584.371 307.088 580.351 292.725 579.868C292.937 563.333 292.9 546.795 292.615 530.26Z"/><path fill="#848389" d="M240.945 480.561C239.867 463.057 241.999 448.279 259.765 440.479C289.1 427.6 320.93 440.502 306.601 476.485C305.773 470.235 305.431 461.434 301.71 456.612C296.588 453.026 287.703 459.205 284.514 458.19C248.419 446.706 268.695 463.814 252.935 489.083C249.349 484.511 247.28 481.014 240.945 480.561Z"/><path fill="#2B2B2F" d="M391.237 432.796C407.424 432.485 418.863 438.517 409.009 455.991C401.846 459.63 399.026 459.116 391.088 458.991L391.237 432.796Z"/><path fill="#FEFEFE" d="M394.714 435.543C407.085 437.584 412.532 440.948 406.17 453.678C402.359 455.687 400.17 456.909 396.361 454.641C393.195 450.162 394.478 441.306 394.714 435.543Z"/><path fill="#2B2B2F" d="M273.871 546.379L274.837 546.337C277.596 547.855 281.873 551.027 284.596 552.929L281.11 560.761C282.566 566.689 283.691 573.763 284.795 579.864L269.991 579.918L271.057 560.158L264.873 553.415C267.851 551.184 270.924 548.686 273.871 546.379Z"/><path fill="#2B2B2F" d="M498.573 439.393C501.54 439.406 504.043 440.356 506.771 441.343L509.258 440.115L510.318 440.528C516.862 449.711 508.774 478.379 493.415 462.655L493.667 461.775C497.789 460.078 500.459 465.298 506.486 462.212C507.645 460.172 507.61 460.297 507.5 457.95C505.508 457.32 502.117 458.551 499.703 459.104C488.169 455.712 492.17 445.863 498.573 439.393Z"/><path fill="#FEFEFE" d="M499.554 442.95C509.69 444.015 508.617 448.879 504.839 456.165C494.718 455.471 495.306 450.104 499.554 442.95Z"/><path fill="#2B2B2F" d="M464.726 483.72C468.854 483.584 473.223 484.047 476.167 487.288C477.689 488.941 478.47 491.144 478.328 493.386C478.023 498.049 475.483 500.525 472.303 503.388C458.16 505.078 456.313 493.456 464.726 483.72Z"/><path fill="#FEFEFE" d="M466.945 486.35C476.429 489.197 475.58 493.614 470.807 500.611C467.345 500.037 465.562 499.57 463.759 496.438C462.866 491.716 464.315 490.207 466.945 486.35Z"/><path fill="#2B2B2F" d="M404.755 483.641C409.972 483.578 417.533 485.164 418.306 491.402C415.068 496.122 407.214 493.354 403.226 496.378C404.235 499.5 407.576 500.779 410.595 499.517C412.674 498.285 413.761 497.699 416.091 498.351L415.701 499.927C406.362 510.578 390.042 498.388 404.755 483.641Z"/><path fill="#FEFEFE" d="M405.944 486.473C409.388 486.865 411.247 487.18 413.073 490.187L412.298 491.851C409.646 491.839 406.618 492.193 404.502 490.892C404.015 488.669 404.364 489.141 405.944 486.473Z"/><path fill="#444348" d="M435.238 542.172C448.2 542.511 450.065 549.34 442.708 559.169C429.932 561.221 429.16 550.94 435.238 542.172Z"/><path fill="#FEFEFE" d="M436.556 544.097C446.545 545.242 445.019 550.908 441.029 557.52C431.969 556.184 432.639 550.359 436.556 544.097Z"/><path fill="#2B2B2F" d="M427.091 483.013C429.892 483.317 436.009 484.241 435.365 487.963C433.087 488.822 430.072 487.45 426.828 487.019L425.786 487.959C426.825 493.326 436.378 492.95 437.043 499.489C435.104 502.37 432.708 502.818 429.445 503.88C428.827 503.783 428.211 503.677 427.597 503.562C424.615 503.01 423.104 502.645 421.437 500.227L421.744 498.761C425.917 497.463 429.501 502.589 432.297 498.692C429.907 494.029 419.611 494.042 421.041 487.041C422.695 484.726 424.477 484.232 427.091 483.013Z"/><path fill="#2B2B2F" d="M491.097 482.928C500.358 483.411 501.599 500.099 496.971 502.572C492.872 497.954 500.254 489.12 488.236 486.68C484.467 491.145 487.294 500.195 484.761 503.427C481.076 500.775 478.919 488.45 484.954 484.867C487.948 484.877 488.582 484.534 491.097 482.928Z"/><path fill="#2B2B2F" d="M479.942 439.851C489.955 435.769 491.528 454.216 486.871 458.341C481.873 455.121 489.443 451.667 482.396 442.547C472.998 440.467 477.966 456.006 474.06 458.929C470.172 456.435 471.456 446.194 472.743 442.266C473.099 441.177 478.383 440.316 479.942 439.851Z"/><path fill="#2B2B2F" d="M445.882 482.995C449.248 483.373 452.667 484.189 455.172 486.552L455.026 487.926C451.438 489.427 447.797 484.894 444.961 488.347C447.185 492.777 457.019 493.316 455.878 500.006C454.249 502.337 452.554 502.776 449.97 503.871C446.686 503.538 445.671 503.539 442.551 502.147C440.771 500.079 440.94 500.91 441.023 498.746C443.403 497.685 445.913 499.204 449.021 500.206C451.331 499.721 450.479 500.32 451.753 498.488C449.622 494.001 441.127 494.811 440.732 487.75C441.96 485.078 443.354 484.577 445.882 482.995Z"/><path fill="#2B2B2F" d="M440.479 439.249C446.29 441.122 447.596 449.107 449.326 454.522C450.472 450.394 452.637 441.732 457.118 440.246C457.854 442.247 457.724 441.215 457.31 443.467C455.726 448.546 454.375 454.325 449.772 457.007C443.464 457.108 440.97 444.339 440.479 439.249Z"/><path fill="#2B2B2F" d="M391.081 474.879C392.708 475.23 392.59 475.217 393.856 476.316C396.575 483.028 395.183 495.675 394.706 503.168L393.078 503.221L391.868 502.029C389.73 496.449 390.834 481.611 391.081 474.879Z"/><path fill="#444348" d="M451.683 541.982C455.911 546.11 451.17 556.986 459.159 557.453C462.382 554.157 461.776 547.598 463.434 543.19L464.465 543.099L465.012 545.062C465.098 548.884 465.637 555.377 464.062 558.676C458.565 556.071 456.646 560.909 451.579 555.973C450.28 552.329 451.244 545.937 451.683 541.982Z"/><path fill="#444348" d="M413.385 534.256C418.121 537.119 413.677 538.29 415.912 543.342C417.947 543.093 419.921 542.575 421.874 542.337C428.27 541.559 427.868 554.57 425.3 557.015C424.226 554.316 424.49 551.215 424.469 548.23C424.205 546.862 422.856 544.826 422.064 543.662C420.54 543.323 421.309 543.402 419.641 543.885C415.818 547.588 414.903 553.42 413.831 558.48C413.02 550.925 413.295 541.968 413.385 534.256Z"/><path fill="#2B2B2F" d="M425.099 439.922L425.725 439.747L426.779 440.63C425.879 444.111 422.174 444.643 420.988 447.475C419.272 451.574 421.914 454.161 419.84 459.023C418.026 459.189 418.769 459.448 417.472 458.463C416.339 453.777 415.588 447.56 417.636 442.901C418.153 441.726 423.029 440.668 425.099 439.922Z"/><path fill="#2B2B2F" d="M462.455 439.012L464.368 440.365C466.95 444.75 466.267 454.982 465.255 459.867L463.362 458.748C460.568 454.549 461.953 443.995 462.455 439.012Z"/><path fill="#2B2B2F" d="M432.452 439.016L434.363 440.364C437.128 444.822 435.877 454.518 435.559 459.942L433.476 458.854C430.465 454.607 431.932 444.143 432.452 439.016Z"/><path fill="#2B2B2F" d="M394.912 536.002L396.1 536.265C397.638 538.733 397.56 554.223 395.185 556.354L394.873 554.258C394.983 551.001 395.363 544.085 394.776 540.815C394.524 539.412 391.814 541.552 389.371 540.51C390.808 538.646 392.949 537.377 394.912 536.002Z"/><path fill="#444348" d="M470.622 542.335L472.532 543.387C474.178 543.311 474.951 543.136 476.486 543.781C473.909 546.84 473.08 547.506 473.002 551.089C472.886 553.836 473.009 554.297 471.876 556.71C469.785 553.947 470.424 545.968 470.622 542.335Z"/><path fill="#FCBAA9" d="M529.384 858.609C524.388 855.095 509.028 850.298 507.731 846.868C499.929 826.234 535.687 841.651 537.835 842.151L538.74 842.353C582.99 862.125 591.059 869.759 623.191 904.802C646.524 930.249 688.073 958.014 716.278 979.447L718.893 976.526L724.38 968.373C749.839 973.088 776.833 979.906 801.99 983.766C798.984 995.413 795.745 1004.33 791.33 1015.48C788.707 1022.11 784.14 1032.95 782.84 1039.51C774.527 1050.89 768.45 1062.88 755.887 1069.66C752.122 1071.7 747.342 1073.27 744.424 1074.9C726.12 1073.81 719.567 1069.32 704.39 1059.77L561.205 1059.81C560.882 1035.66 562 1011.81 561.876 987.708C562.52 982.702 562.278 980.217 561.73 975.229L560.068 974.697C548.768 968.984 509.73 957.852 496.424 954.381L494.578 953.627C497.221 947.876 505.475 919.492 509.289 916.816C514.831 916.551 515.699 915.754 519.88 912.428C520.042 911.999 520.196 911.566 520.342 911.131C522.636 904.158 519.653 897.228 516.555 890.954C520.36 879.991 524.641 869.199 529.384 858.609Z"/><path fill="#EC5757" d="M529.384 858.609C535.816 860.352 547.319 868.449 552.92 872.508C548.735 874.752 547.247 875.45 543.807 878.63C534.767 885.712 532.32 889.228 536.551 900.562L537.788 902.994C537.803 909.146 537.723 913.787 542.98 918.027C544.774 919.283 544.421 918.503 544.758 920.121C548.521 932.917 556.834 943.397 571.533 939.026C573.3 938.511 575.028 937.868 576.702 937.102C585.341 943.175 588.955 945.766 599.519 948.346C618.407 968.223 633.318 989.821 651.472 1009.6C661.445 1020.43 671.87 1030.84 682.717 1040.8C689.457 1046.89 698.108 1053.68 704.39 1059.77L561.205 1059.81C560.882 1035.66 562 1011.81 561.876 987.708C562.52 982.702 562.278 980.217 561.73 975.229L560.068 974.697C548.768 968.984 509.73 957.852 496.424 954.381L494.578 953.627C497.221 947.876 505.475 919.492 509.289 916.816C514.831 916.551 515.699 915.754 519.88 912.428C520.042 911.999 520.196 911.566 520.342 911.131C522.636 904.158 519.653 897.228 516.555 890.954C520.36 879.991 524.641 869.199 529.384 858.609Z"/><path fill="#D14E4D" d="M560.068 974.697C560.049 967.87 559.2 946.38 562.368 941.79L563.717 941.465C565.654 944.279 563.755 968.295 563.085 973.509C562.737 973.97 562.116 974.866 561.73 975.229L560.068 974.697Z"/><path fill="#F09684" d="M718.893 976.526C728.067 983.905 740.823 993.552 748.287 1002.28C740.405 999.004 721.064 985.37 716.278 979.447L718.893 976.526Z"/><path fill="#F09684" d="M536.551 900.562C548.432 894.763 556.587 890.632 569.29 886.808C558.082 897.593 547.623 896.527 537.788 902.994L536.551 900.562Z"/><path fill="#F09684" d="M542.98 918.027C551.272 912.868 559.488 907.335 568.716 904.155C563.485 908.791 560.818 910.977 554.524 914.417C552.88 915.316 545.659 919.354 544.758 920.121C544.421 918.503 544.774 919.283 542.98 918.027Z"/><path fill="#F09684" d="M552.92 872.508C555.903 871.935 557.881 871.237 560.721 872.171L560.866 873.291C556.251 876.767 549.517 878.475 543.807 878.63C547.247 875.45 548.735 874.752 552.92 872.508Z"/><path fill="#F09684" d="M564.018 925.483C571.86 925.287 574.854 929.368 575.952 936.492C572.857 935.278 566.137 928.221 564.018 925.483Z"/><path fill="#3D5879" d="M262.447 1059.94C292.286 1059.24 323.903 1059.91 353.937 1059.85C397.079 1059.42 440.225 1059.41 483.367 1059.82C498.916 1068.47 505.944 1066.82 521.991 1059.78C534.568 1059.8 548.769 1060.16 561.205 1059.81L704.39 1059.77C719.567 1069.32 726.12 1073.81 744.424 1074.9C678.463 1122.43 611.511 1148.57 529.739 1153.48C435.137 1159.16 333.255 1122.54 262.447 1059.94Z"/><path fill="#FCBAA9" d="M422.932 847.036C432.164 846.025 465.512 841.075 468.474 854.509C469.101 857.353 466.011 861.543 464.422 864.031C476.289 867.166 478.953 866.439 476.93 879.746C478.711 882.049 480.872 884.715 482.517 887.054C481.267 889.373 479.469 892.578 478.631 895.104C477.471 898.605 481.188 904.243 479.532 906.896C477.032 910.902 470.825 910.846 471.174 916.01C483.644 916.89 496.746 916.067 509.289 916.816C505.475 919.492 497.221 947.876 494.578 953.627L496.424 954.381C509.73 957.852 548.768 968.984 560.068 974.697L561.73 975.229C562.278 980.217 562.52 982.702 561.876 987.708C562 1011.81 560.882 1035.66 561.205 1059.81C548.769 1060.16 534.568 1059.8 521.991 1059.78C505.944 1066.82 498.916 1068.47 483.367 1059.82C480.255 1056.64 471.431 1047.59 469.326 1043.5C441.712 989.878 419.654 930.452 408.412 871.157C406.307 860.056 412.562 850.901 422.932 847.036Z"/><path fill="#E0EDEF" d="M561.876 987.708C562 1011.81 560.882 1035.66 561.205 1059.81C548.769 1060.16 534.568 1059.8 521.991 1059.78C542.411 1042.36 544.779 1026.43 555.078 1002.8C556.813 998.825 559.742 990.989 561.876 987.708Z"/><path fill="#E0EDEF" d="M471.174 916.01C483.644 916.89 496.746 916.067 509.289 916.816C505.475 919.492 497.221 947.876 494.578 953.627L493.094 954.56C485.218 943.907 478.499 927.744 471.174 916.01Z"/><path fill="#F09684" d="M493.094 954.56L494.578 953.627L496.424 954.381C500.29 963.994 524.836 995.49 523.711 1001.83L522.475 1001.53C514.67 994.622 497.739 964.268 493.094 954.56Z"/><path fill="#F09684" d="M474.746 879.347C475.136 879.588 475.031 879.795 475.221 880.498C471.284 884.297 440.654 887.308 433.833 888.104L433.197 886.671C436.304 883.892 467.968 880.264 474.746 879.347Z"/><path fill="#F09684" d="M469.208 896.358C470.496 896.265 471.909 896.343 473.213 896.37L473.836 897.187C471.114 899.955 450.775 904.401 445.817 905.638C443.548 906.037 443.217 906.245 441.147 905.486L441.447 904.457C447.275 901.112 462.041 898.015 469.208 896.358Z"/><path fill="#F09684" d="M461.369 863.588L462.03 863.59L462.516 864.285C456.573 867.749 434.743 868.974 426.822 869.602L425.886 868.314C429.149 865.341 455.216 864.054 461.369 863.588Z"/><path fill="#F09684" d="M459.936 916.943C463.805 919.235 462.926 923.871 462.194 927.481C458.159 925.129 458.926 920.745 459.936 916.943Z"/><path fill="#FEFEFE" d="M411.753 790.935C413.915 788.407 416.951 787.838 420.123 787.563C426.862 786.979 433.622 788.211 440.351 788.45C449.299 788.766 458.661 787.913 467.512 789.271C470.716 789.762 474.387 790.628 476.962 792.713C485.412 799.555 503.832 856.837 508.51 870.055C510.853 876.673 512.864 885.037 516.555 890.954C519.653 897.228 522.636 904.158 520.342 911.131C520.196 911.566 520.042 911.999 519.88 912.428C515.699 915.754 514.831 916.551 509.289 916.816C496.746 916.067 483.644 916.89 471.174 916.01C470.825 910.846 477.032 910.902 479.532 906.896C481.188 904.243 477.471 898.605 478.631 895.104C479.469 892.578 481.267 889.373 482.517 887.054C480.872 884.715 478.711 882.049 476.93 879.746C478.953 866.439 476.289 867.166 464.422 864.031C466.011 861.543 469.101 857.353 468.474 854.509C465.512 841.075 432.164 846.025 422.932 847.036C416.839 832.66 410.112 815.433 405.106 800.636C406.866 796.969 408.383 793.342 411.753 790.935Z"/><path fill="#CADCE5" d="M411.753 790.935C413.915 788.407 416.951 787.838 420.123 787.563C426.862 786.979 433.622 788.211 440.351 788.45C449.299 788.766 458.661 787.913 467.512 789.271C470.716 789.762 474.387 790.628 476.962 792.713C485.412 799.555 503.832 856.837 508.51 870.055C510.853 876.673 512.864 885.037 516.555 890.954C519.653 897.228 522.636 904.158 520.342 911.131C520.196 911.566 520.042 911.999 519.88 912.428C507.855 889.553 481.941 809.074 471.31 797.41C469.786 795.738 468.267 794.445 466.079 793.729C453.874 789.736 425.912 791.653 411.753 790.935Z"/><path fill="#CADCE5" d="M383.925 708.697C408.201 708.68 432.85 708.45 457.096 708.705C453.816 729.284 449.739 757.837 448.371 778.147C428.421 754.593 405.232 731.286 383.925 708.697Z"/><path fill="#1555FE" d="M882.06 1367.66C915.571 1363.21 946.312 1386.85 950.613 1420.37C954.913 1453.89 931.133 1484.52 897.584 1488.68C864.243 1492.8 833.838 1469.21 829.564 1435.89C825.291 1402.58 848.756 1372.08 882.06 1367.66Z"/><path fill="#FEFEFE" d="M884.951 1408.83C891.211 1410.72 901.427 1423.17 905.898 1428.28L888.9 1445.45C887.689 1446.24 887.768 1446.1 886.366 1446.58L884.9 1445.65L884.599 1443.79C886.382 1438.61 894.235 1431.94 898.355 1428.03C892.776 1422.81 883.548 1416.82 884.951 1408.83Z"/><path fill="#2B2B2F" d="M731.372 80.6359C745.245 77.5541 758.982 86.3293 762.013 100.21C765.045 114.09 756.217 127.791 742.322 130.771C728.499 133.735 714.881 124.965 711.866 111.157C708.85 97.3483 717.572 83.7018 731.372 80.6359ZM739.287 122.365C759.395 114.588 754.27 89.1997 734.774 89.1986C728.897 91.9856 724.855 94.6338 722.582 101.165C721.13 105.292 721.451 109.835 723.47 113.716C726.504 119.551 732.956 122.315 739.287 122.365Z"/><path fill="#2B2B2F" d="M352.237 80.6597C366.136 77.5498 379.906 86.3601 382.904 100.28C385.902 114.2 376.978 127.896 363.03 130.78C349.242 133.631 335.734 124.833 332.77 111.071C329.807 97.3102 338.497 83.7341 352.237 80.6597ZM360.614 122.306C370.464 118.116 376.283 109.026 371.539 98.5958C369.699 94.5332 366.219 91.4432 361.967 90.0952C359.975 89.4483 357.263 89.1735 355.195 89.252C349.559 92.1078 345.997 94.1258 343.782 100.61C342.349 104.826 342.609 109.433 344.507 113.461C347.619 119.955 353.704 122.493 360.614 122.306Z"/><path fill="#2B2B2F" d="M178.009 80.5873C185.428 80.814 191.749 80.8222 198.423 84.5284C210.031 90.9741 213.679 105.839 207.43 117.32C204.618 122.489 202.517 124.381 197.685 127.582C188.366 131.703 177.348 130.688 167.221 130.467L167.194 81.0157L178.009 80.5873ZM177.311 121.558C184.509 121.579 190.065 122.028 195.982 117.307C207.356 98.8377 195.79 89.5447 177.263 89.882C177.11 99.904 176.789 111.648 177.311 121.558Z"/><path fill="#2B2B2F" d="M769.752 81.0224L781.899 81.0023C788.429 89.3081 796.681 102.31 802.787 111.421C803.032 101.573 802.822 91.0334 802.798 81.1341L813.196 81.0423C813.256 96.074 813.437 111.788 813.136 126.838C813.08 129.608 812.624 129.648 811.012 130.946C810.23 130.922 806.468 130.779 806.059 130.556C798.391 126.366 784.556 102.909 780.282 96.0069L780.249 130.509L769.859 130.501L769.752 81.0224Z"/><path fill="#2B2B2F" d="M489.714 80.5836C504.175 80.4993 515.488 79.3942 519.342 96.0843C517.517 104.942 516.079 106.104 508.771 111.27C512.873 117.605 516.849 124.02 520.697 130.512C514.939 130.738 512.255 131.646 508.049 128.389C505.906 124.115 500.083 109.968 494.172 112.711C490.958 117.472 491.948 124.677 492.1 130.522L482.225 130.501C482.282 114.234 482.243 97.9679 482.11 81.7022C484.178 80.6116 487.255 80.7225 489.714 80.5836ZM492.174 104.097C496.954 103.863 503.058 104 507.326 102.154C514.02 89.3541 501.026 89.2885 492.093 89.2861L492.174 104.097Z"/><path fill="#2B2B2F" d="M585.021 81.0091L618.387 80.9407L618.359 90.0414L595.051 90.017L595.232 101.082C601.873 101.106 608.514 100.991 615.151 100.735L615.178 110.25L594.967 110.278L595.069 121.418L618.829 121.351L618.769 130.524L585.101 130.497L585.021 81.0091Z"/><path fill="#2B2B2F" d="M298.873 80.3981C314.132 79.3783 320.073 81.9753 326.501 96.023L317.919 98.721C297.556 70.3864 276.807 112.519 300.216 121.653C303.988 123.124 310.927 120.205 314.326 118.151L317.773 112.847C320.874 113.782 323.805 115.088 326.793 116.34C321.054 128.974 308.458 135.154 295.321 129.537C288.553 126.641 283.247 121.126 280.617 114.252C274.214 97.4289 283.675 86.2708 298.873 80.3981Z"/><path fill="#2B2B2F" d="M833.71 80.3341C847.077 79.541 850.879 80.6374 857.631 92.6461L849.065 95.6879L848.767 95.3544C845.75 91.9867 842.875 88.3636 837.942 88.4366C834.147 88.4927 832.063 91.0449 832.287 94.6616C837.719 103.189 861.857 101.181 858.358 118.562C856.759 126.506 849.251 129.432 842.361 131.223C829.298 131.398 826.397 128.511 819.426 118.321L829.317 115.196C833.397 121.431 844.131 126.613 848.506 119.146C848.583 117.986 848.529 115.363 847.749 114.829C839.532 109.224 828.065 108.956 822.404 99.8118C816.593 90.4232 826.424 83.9443 833.71 80.3341Z"/><path fill="#2B2B2F" d="M440.898 81.045C448.53 80.8561 466.369 79.7273 472.789 81.743C475.013 83.8459 475.472 84.8816 474.15 87.5653C468.605 91.6523 457.403 90.3634 450.712 89.9273L450.562 101.218L470.271 101.233L470.342 110.136C463.818 110.112 457.212 110.219 450.68 110.273C450.523 113.911 450.639 117.825 450.68 121.492C457.502 121.505 469.178 119.128 473.848 124.117C474.468 126.624 474.21 127.057 473.27 129.503C470.51 131.446 445.639 130.508 441.129 130.479C440.636 114.667 440.956 97.0263 440.898 81.045Z"/><path fill="#2B2B2F" d="M637.857 80.3315C650.933 79.7948 654.545 81.1084 661.084 92.8969L652.893 95.2863C650.36 93.1541 644.267 87.6753 640.607 87.7747C636.703 87.8808 635.008 91.4244 635.66 95.1571C639.643 102.681 659.617 100.866 661.541 111.167C663.797 123.242 655.248 128.762 645.429 131.242C633.024 131.57 628.368 128.552 622.522 117.868C625.676 116.93 629.076 116.301 632.307 115.625C635.806 119.597 645.374 128.1 650.955 119.21C652.532 116.699 649.772 112.223 646.754 111.28C635.012 107.61 620.806 106.22 625.641 89.5553C627.019 84.8673 633.407 82.1095 637.857 80.3315Z"/><path fill="#2B2B2F" d="M680.495 80.3696C694.192 79.4898 697.445 81.0435 704.941 92.5413C701.897 93.5761 698.374 94.0298 695.161 94.5656C693.25 92.5268 689.61 88.1964 686.728 88.1997C682.616 88.2044 679.026 90.062 679.232 94.4968C681.503 98.1708 686.783 99.715 690.76 101.1C711.006 108.151 711.994 124.512 690.277 131.131C677.567 131.504 672.115 129.295 666.657 117.753L676.333 115.396C680.024 121.438 690.713 126.359 694.979 119.669C695.914 105.158 674.441 111.759 670.384 102.109C665.569 90.6551 671.252 84.7768 680.495 80.3696Z"/><path fill="#2B2B2F" d="M249.832 80.3278C263.514 79.5454 266.077 81.2471 273.421 92.4377L264.552 95.0318C263.138 93.7149 261.696 92.4286 260.227 91.1737C256.199 87.7905 251.403 85.4625 247.29 90.9365C246.215 92.3676 246.597 92.3983 246.899 94.0985C250.572 99.0188 257.164 99.7613 262.458 102.181C281.85 111.043 276.956 125.56 258.508 131.246C245.818 131.557 241.644 128.755 234.891 118.222L243.399 115.541C245.6 117.653 247.875 119.887 250.562 121.373C254.781 123.705 262.305 122.785 264.584 118.239C262.632 110.184 241.62 108.469 237.758 99.1755C233.637 89.2628 242.055 83.8443 249.832 80.3278Z"/><path fill="#2B2B2F" d="M386.512 81.0038L397.551 80.779C401.658 92.8634 406.429 105.446 410.779 117.502C414.962 105.317 419.276 93.1778 423.722 81.0861L434.338 81.0885L430.638 91.3688L416.269 130.497L404.87 130.497C399.985 119.453 390.201 92.7321 386.512 81.0038Z"/><path fill="#2B2B2F" d="M546.859 81.0605L556.706 81.0415L556.661 121.18C563.711 120.85 572.126 121.008 579.281 120.959L579.273 130.359C570.417 130.951 555.958 130.503 546.658 130.473C547.294 114.84 546.872 96.8653 546.859 81.0605Z"/><path fill="#2B2B2F" d="M217.741 81.2053L227.98 81.0822L228.024 130.472L217.648 130.488C218.183 114.668 217.787 97.1487 217.741 81.2053Z"/><path fill="#444348" d="M871.918 181.661L873.726 182.469C875.855 187.177 875.868 211.233 873.596 215.828L872.433 216.115L870.898 213.641C868.854 213.642 867.054 215.646 864.403 216.902C861.331 216.964 860.967 216.801 858.201 215.432C853.105 209.413 851.356 196.435 860.026 192.454C863.363 190.922 868.016 193.634 871.209 195.046C871.728 190.767 871.775 186.005 871.918 181.661ZM865.61 213.217C874.314 208.44 872.689 198.216 862.662 195.4C855.369 201.376 855.182 212.792 865.61 213.217Z"/><path fill="#444348" d="M250.435 180.914L252.247 181.921C254.027 185.308 254.698 213.002 252.608 215.917C247.851 215.94 251.294 212.684 247.395 214.457C242.587 216.643 241.915 216.997 236.96 215.506C226.805 202.331 235.959 185.402 249.8 195.787C249.879 190.638 249.915 186.062 250.435 180.914ZM245.223 213.303C251.896 205.545 252.398 197.748 240.83 195.432C234.534 202.9 233.056 211.904 245.223 213.303Z"/><path fill="#444348" d="M377.385 239.74C381.501 242.966 381.173 270.967 378.346 274.994L377.279 274.934L375.552 272.517C370.7 275.869 368.352 275.985 362.992 274.275C359.121 269.058 357.204 261.799 360.847 255.888C362.12 253.854 364.153 252.412 366.494 251.882C370.667 250.941 373.054 252.742 376.516 254.817C376.549 250.194 376.326 244.11 377.385 239.74ZM372.365 271.89C377.863 263.731 379.11 255.476 366.515 254.862C360.945 262.625 360.072 272.675 372.365 271.89Z"/><path fill="#444348" d="M237.112 240.326C238.434 241.401 239.734 242.29 239.749 244.258C239.782 248.546 242.517 274.939 237.937 275.485L236.256 272.382C229.578 274.279 231.879 276.951 223.412 274.419C221.867 272.419 220.506 269.606 219.29 267.334C219.545 255.396 223.237 246.275 236.282 254.688C237.108 249.201 237.083 245.809 237.112 240.326ZM232.165 272.041C234.647 268.985 236.77 266.411 236.454 262.121C236.32 260.07 235.303 258.177 233.664 256.935C231.741 255.449 229.189 254.97 226.844 254.673C221.637 262.061 219.895 272.924 232.165 272.041Z"/><path fill="#CADCE5" d="M461.85 1324.07C468.08 1323.22 473.844 1327.51 474.834 1333.71C475.824 1339.92 471.677 1345.78 465.494 1346.92C461.362 1347.68 457.143 1346.14 454.471 1342.9C451.798 1339.66 451.091 1335.22 452.624 1331.31C454.156 1327.4 457.687 1324.63 461.85 1324.07Z"/><path fill="#CADCE5" d="M558.498 1324.22C564.611 1323.23 570.41 1327.25 571.621 1333.33C572.833 1339.4 569.021 1345.34 562.997 1346.77C558.899 1347.74 554.597 1346.4 551.781 1343.27C548.964 1340.14 548.083 1335.72 549.483 1331.75C550.883 1327.78 554.341 1324.89 558.498 1324.22Z"/><path fill="#444348" d="M701.644 192.805C703.156 192.721 704.671 192.7 706.184 192.743C719.289 193.165 719.878 207.615 710.405 216.007C695.474 219.744 689.834 203.612 701.644 192.805ZM708.009 213.612C714.723 206.327 715.578 196.456 703.67 195.466C696.923 203.396 696.01 210.975 708.009 213.612Z"/><path fill="#444348" d="M400.427 192.735C416.899 191.781 420.538 207.919 407.267 216.708L406.415 216.662C390.92 215.763 389.102 202.214 400.427 192.735ZM406.719 213.398C413.977 205.854 412.975 196.962 401.732 195.533C394.648 203.688 394.193 211.993 406.719 213.398Z"/><path fill="#2B2B2F" d="M511.121 1324.19C517.205 1323.67 522.63 1328.01 523.46 1334.06C524.29 1340.11 520.235 1345.74 514.236 1346.88C510.071 1347.67 505.81 1346.1 503.155 1342.8C500.499 1339.5 499.882 1335 501.549 1331.1C503.217 1327.21 506.897 1324.55 511.121 1324.19Z"/><path fill="#444348" d="M342.332 251.263C352.183 250.845 353.006 256.541 354.757 264.648C348.872 264.497 340.699 263.219 336.572 267.836L337.09 269.209C342.298 272.943 344.292 272.461 349.357 269.714C351.62 269.269 351.055 269.027 352.793 269.825L352.63 271.371C341.909 285.255 320.975 264.147 342.332 251.263ZM347.15 261.369L349.537 260.801L350.123 259.664C348.716 256.143 344.826 254.939 341.333 254.769C339.419 257.155 338.596 257.382 338.257 260.109C340.711 262.124 343.841 261.548 347.15 261.369Z"/><path fill="#444348" d="M688.124 251.209C694.743 251.246 698.499 254.151 701.101 260.089C700.72 266.094 690.586 264.509 685.412 264.936C683.796 265.983 683.088 266.972 683.702 268.832C687.575 272.619 691.424 272.237 695.876 270.322L696.949 269.359L697.999 269.814L697.955 271.902C691.005 285.59 666.499 263.727 688.124 251.209ZM693.785 261.207L695.978 260.692L696.575 259.343C695.05 256.02 690.834 254.959 687.483 254.841C685.581 257.334 685.05 257.2 684.811 260.019C687.426 262.109 690.361 261.481 693.785 261.207Z"/><path fill="#444348" d="M431.453 251.19C438.053 251.253 445.276 255.826 444.212 262.88C440.881 266.301 435.388 263.824 429.079 264.698C426.809 266.263 427.309 265.438 426.631 267.743C428.386 271.37 433.998 272.167 437.585 271.488L440.531 269.835L441.752 270.274L441.72 271.957C432.428 285.549 411.327 262.469 431.453 251.19Z"/><path fill="#444348" d="M615.492 251.144C620.937 252.086 628.14 255.356 627.704 261.925C623.349 267.028 615.585 262.734 610.947 266.002C610.032 268.477 609.937 267.596 610.81 269.567C615.129 272.875 619.133 272.423 623.616 270.173L624.459 269.307L625.254 269.746L625.032 271.771C622.327 276.051 618.125 276.723 613.387 275.303C611.034 274.592 609.077 272.946 607.972 270.751C603.926 262.902 608.127 255.009 615.492 251.144Z"/><path fill="#444348" d="M277.541 192.772C296.989 190.857 293.584 215.123 288.618 215.95L287.777 213.787C285.015 211.543 285.207 217.92 275.142 215.952C273.838 215.01 272.397 212.748 271.848 211.262C269.68 205.387 283.219 202.689 286.552 201.661C287.621 200.115 287.329 200.746 287.054 198.39C282.222 194.323 278.169 198.811 274.006 197.054C274.608 195.059 275.946 194.204 277.541 192.772ZM281.423 213.757C284.236 212.121 287.25 210.622 287.462 206.992C285.474 204.708 284.181 205.327 281.212 205.678C277.826 207.535 278.11 206.762 276.33 209.732L276.346 211.583C278.023 213.211 278.59 213.73 281.423 213.757Z"/><path fill="#444348" d="M508.65 192.846C510.099 192.646 513.695 192.335 515.117 192.694C522.61 194.586 527.2 210.722 520.058 215.037C514.259 215.597 509.974 216.774 504.727 214.663C498.894 198.502 517.011 208.184 518.174 198.584C514.835 194.042 508.859 198.92 505.258 196.979C505.981 194.716 506.723 194.599 508.65 192.846ZM512.503 213.836C515.473 212.187 516.32 211.873 518.241 208.915L518.526 207.014C516.472 204.686 515.185 205.306 512.142 205.651C509.458 206.754 509.029 206.728 507.609 209.069C507.392 211.819 507.072 210.771 508.699 212.843C510.19 213.472 510.874 213.913 512.503 213.836Z"/><path fill="#444348" d="M838.088 192.071C847.247 193.259 847.606 197.224 850.312 205.01C844.526 204.966 836.955 203.979 832.381 207.566C830.87 212.813 840.227 213.853 845.405 210.869C846.046 210.422 845.706 210.61 846.839 210.771L847.169 212.113C844.788 217.116 838.336 218.044 834.125 215.593C824.237 209.837 827.198 194.897 838.088 192.071Z"/><path fill="#444348" d="M809.258 192.807C820.832 192.185 821.267 195.033 824.709 205.249C819.803 204.892 807.278 203.077 806.724 209.97C809.163 212.808 812.642 213.186 816.139 213.171C817.401 212.424 818.659 211.799 819.962 211.133L821.159 211.549L820.981 213.04C818.706 215.36 815.644 216.708 812.463 217.019C805.09 217.757 802.818 209.955 802.713 204.092C802.63 199.517 806.161 195.718 809.258 192.807ZM816.307 202.431L818.694 201.644L819.366 200.275C817.809 196.866 814.669 195.916 811.104 195.509C808.905 197.86 808.395 197.68 807.736 200.575C809.811 202.66 811.906 202.426 814.957 202.436C815.407 202.438 815.857 202.437 816.307 202.431Z"/><path fill="#444348" d="M328.354 192.8C339.561 191.748 340.75 195.495 343.073 205.504C337.812 204.539 329.635 203.286 326.155 208.454C326.366 213.118 331.925 213.214 335.568 213.236C337.354 211.778 337.542 211.543 339.645 210.704L340.571 211.509C336.316 225.894 309.203 209.429 328.354 192.8ZM335.896 202.35L338.022 201.465C338.884 197.196 333.083 195.887 329.781 195.613C327.685 197.886 326.989 197.914 326.421 200.664C328.783 202.869 332.547 202.378 335.896 202.35Z"/><path fill="#444348" d="M175.748 251.458C183.783 252.401 185.517 255.53 187.207 263.533C188.058 267.56 186.718 271.111 184.215 274.342L183.277 274.407L182.368 271.652C176.597 275.662 176.353 277.303 168.832 273.809C162.77 260.572 179.654 265.262 182.119 258.601C179.75 253.095 173.817 258.034 168.55 255.913L169.058 254.62C171.33 252.215 172.6 252.166 175.748 251.458Z"/><path fill="#444348" d="M639.944 251.289C648.113 251.685 650.236 254.786 651.898 262.698C652.628 266.177 651.601 270.611 649.524 273.368C647.952 275.619 647.733 273.225 646.763 273.403C640.687 274.517 638.412 277.582 632.626 272.543C630.887 261.214 640.086 264.339 646.639 260.453C647.331 258.443 647.316 259.32 646.252 257.001C643.083 255.324 638.196 256.131 634.497 256.426L634.067 255.56C636.128 252.812 636.915 252.605 639.944 251.289Z"/><path fill="#444348" d="M502.217 251.038C508.395 254.374 509.176 264.534 510.554 270.882L510.679 270.473C511.912 266.435 514.335 255.999 517.796 254.158C521.748 256.304 524.1 265.493 525.707 270.082C526.598 266.114 528.997 254.33 532.51 252.385L533.537 253.232L533.508 255.915C532.36 260.27 529.982 274.431 524.159 272.941C520.438 268.779 519.629 263.214 518.291 257.787C516.761 262.423 514.445 271.906 510.528 274.318L508.933 273.905C505.75 270.2 502.267 255.729 502.217 251.038Z"/><path fill="#2B2B2F" d="M307.953 240.184C313.009 242.446 311.612 249.39 311.405 254.13C329.164 243.841 329.47 268.091 325.127 273.713L324.162 273.245C322.885 270.059 323.29 264.785 323.334 261.163C322.317 257.897 321.005 254.537 317.029 255.026C307.332 256.221 314.279 270.416 310.014 275.23L308.925 274.919C306.917 271.664 307.813 245.388 307.953 240.184Z"/><path fill="#444348" d="M478.59 180.893C485.073 185.392 479.569 189.287 482.021 194.601C503.864 186.746 498.258 212.499 494.724 214.643C493.369 212.503 493.639 204.453 493.546 201.219C491.778 196.771 491.576 196.485 487.104 195.889C478.857 199.446 482.862 212.354 479.614 215.727C476.62 210.942 477.951 187.269 478.59 180.893Z"/><path fill="#444348" d="M569.318 273.843C567.882 268.59 567.882 247.533 569.891 242.083L570.793 242.099C572.325 245.471 572.229 249.944 572.41 253.728C575.513 252.731 579.203 251.255 582.388 252.25C589.778 254.558 588.616 269.393 586.402 274.823C583.599 271.637 585.212 258.757 579.644 253.811C575.237 253.275 572.388 260.035 571.785 263.78C572.039 267.374 572.427 269.884 571.522 273.383L570.361 274.487L569.318 273.843Z"/><path fill="#2B2B2F" d="M569.318 273.843C569.509 270.214 568.625 267.046 569.943 263.829L571.785 263.78C572.039 267.374 572.427 269.884 571.522 273.383L570.361 274.487L569.318 273.843Z"/><path fill="#2B2B2F" d="M169.553 183.312C175.172 183.106 183.89 182.545 188.802 185.174C186.334 187.43 176.933 186.757 173.255 186.703L173.276 198.917C179.045 198.982 184.1 198.878 189.811 199.848C185.981 204.092 178.916 202.826 173.479 202.625C173.486 206.533 173.49 208.787 172.958 212.645L171.853 213.31L172.278 214.712L172.737 212.485L172.276 214.715L171.499 214.183C169.069 205.388 169.588 192.736 169.553 183.312Z"/><path fill="#2B2B2F" d="M131.816 1409.72C133.406 1410.98 132.807 1410.2 133.527 1412.24C132.15 1417.29 123.752 1424.17 119.719 1427.92C123.694 1431.56 131.789 1438.26 133.601 1443.43C134.117 1444.9 133.269 1445.54 132.405 1446.82C126.217 1441.53 119.346 1434 113.91 1427.99C118.391 1422.63 126.795 1414.69 131.816 1409.72Z"/><path fill="#444348" d="M670.361 191.981C676.308 193.956 678.934 206.963 680.885 212.889C683.188 205.7 684.102 200.317 689.085 194.302L689.971 194.715C690.284 198.274 688.397 202.315 687.113 205.76C685.118 212.062 682.169 222.84 674.649 224.685L673.53 223.843C674.616 221.158 676.107 220.763 678.769 218.788C676.974 210.303 671.174 198.054 670.361 191.981Z"/><path fill="#444348" d="M722.316 191.819C728.874 195.655 722.552 213.304 731.941 213.645C737.411 210.465 736.358 199.796 739.833 193.248L740.596 193.44C741.536 196.061 741.383 198.388 741.452 201.188C741.571 204.699 741.843 213.782 739.663 216.129C738.74 215.332 738.463 215.079 737.736 214.137L737.165 213.388C720.131 224.441 721.065 202.297 722.316 191.819Z"/><path fill="#444348" d="M885.258 192.845C889.434 192.244 897.826 191.997 898.03 197.634C895.618 199.08 891.87 195.085 886.849 196.387C884.984 197.947 885.14 197.332 884.688 199.262C888.943 204.137 908.847 204.892 894.54 216.556C889.8 216.869 883.478 217.088 881.299 211.698C883.456 210.76 889.378 212.64 893.617 212.492C895.6 211.155 895.07 212.034 895.529 209.948C891.756 205.232 882.458 206.103 881.042 198.632C881.708 195.91 883.23 194.857 885.258 192.845Z"/><path fill="#444348" d="M598.538 192.241C602.912 194.783 603.21 213.806 599.055 216.111L597.225 214.055C593.961 215.147 590 216.574 586.645 215.668C583.057 213.138 582.323 207.752 581.243 203.466C581.363 199.762 581.087 196.917 583.718 194.137C586.445 196.928 584.272 209.746 590 212.916C599.889 213.055 596.602 199.489 598.538 192.241Z"/><path fill="#444348" d="M639.958 192.898C643.952 192.313 652.276 191.91 652.714 197.268C650.565 198.971 646.67 195.661 641.493 196.548C639.46 197.846 640.032 196.978 639.418 199.01C642.886 204.026 664.833 206.445 648.264 216.52C644.402 216.696 639.067 216.273 636.924 212.515C641.283 210.775 646.575 214.298 649.409 210.618C646.228 205.486 636.673 206.016 635.964 197.775C636.95 195.1 637.771 194.713 639.958 192.898Z"/><path fill="#444348" d="M378.209 192.103C382.255 192.599 386.059 193.062 387.564 197.423C383.678 199.069 381.627 194.317 375.063 197.32L374.706 198.649C377.79 202.778 385.41 204.132 388.591 209.517C388.868 214.47 384.527 215.672 380.466 216.801C375.676 216.092 373.797 215.653 370.063 212.105L370.334 211.715L370.66 212.83L370.088 211.862C374.636 210.22 378.941 214.585 384.758 211.114L383.989 212.035L384.61 210.802C381.551 207.083 373.792 205.071 370.129 199.956C369.427 195.001 373.976 193.207 378.209 192.103Z"/><path fill="#444348" d="M561.909 192.765C565.74 192.458 575.033 192.534 575.096 197.642C572.289 198.57 567.926 195.09 563.227 196.48C561.488 197.93 561.743 197.287 561.297 199.144C565.343 204.051 576.441 202.903 575.808 211.282C574.386 214.159 572.705 214.933 570.058 216.66C565.652 216.814 560.122 216.429 558.451 211.851L557.324 212.271L558.206 213.329L557.75 211.975C558.614 211.82 567.699 212.446 569.8 212.483C571.699 211.132 571.219 211.996 571.624 210.02C567.716 205.037 558.403 206.145 557.733 198.244C558.626 195.514 559.842 194.681 561.909 192.765Z"/><path fill="#444348" d="M202.866 251.111C215.118 253.27 217.292 273.446 210.245 274.815C207.044 269.325 214.112 257.251 201.815 255.082L200.953 254.934C195.545 261.771 198.007 265.751 195.813 273.769L194.706 273.69C194.607 273.343 194.517 272.994 194.434 272.643C193.536 268.888 191.805 257.437 193.791 254.203C197.372 252.269 196.913 254.947 202.866 251.111Z"/><path fill="#444348" d="M387.239 250.846C394.613 255.731 386.011 266.22 394.095 271.944C405.148 273.846 400.572 259.069 402.971 252.085L404.36 251.75C406.005 254.018 405.547 254.054 405.832 257.062C405.916 261.59 406.603 271.261 404.881 274.902L403.824 275.265L401.577 273.014C399.148 273.304 393.943 279.143 390.433 274.497C385.492 267.958 386.624 258.498 387.239 250.846Z"/><path fill="#444348" d="M663.48 251.184C667.866 251.318 672.546 252.062 674.009 256.76C669.191 258.534 667.292 252.113 661.287 256.692C660.91 262.596 676.137 262.09 675.263 270.708C673.758 273.226 672.455 273.756 669.982 275.221C665.931 276.21 658.661 275.964 658.037 270.741C661.542 269.17 666.336 274.427 670.449 270.604C670.53 263.719 655.056 264.261 657.12 255.819C659.121 253.209 660.62 252.668 663.48 251.184Z"/><path fill="#444348" d="M207.686 191.831C208.815 192.733 209.644 193.341 210.835 194.163C214.185 193.326 219.977 192.119 223.033 194.018C227.228 196.624 227.374 212.056 224.977 215.14L223.907 214.343C222.476 211.256 222.702 207.441 222.623 203.96C222.015 200.094 222.199 197.968 218.711 195.83C216.122 195.671 215.635 195.564 213.338 196.702C207.565 202.43 214.14 212.76 207.912 215.857L207.222 214.915C206.685 209.183 206.559 197.346 207.686 191.831Z"/><path fill="#444348" d="M351.423 192.9C355.936 192.304 360.544 191.9 363.578 196.173C361.804 197.24 354.54 195.923 351.434 197.839C351.293 203.992 367.556 203.227 365.57 211.841C363.425 214.658 362.547 214.968 359.462 216.634C355.525 216.703 348.192 216.514 348.111 211.502C351.08 210.104 359.393 215.865 361.667 209.901C357.676 204.961 339.695 204.113 351.423 192.9Z"/><path fill="#444348" d="M267.5 251.379C270.945 251.948 275.624 252.977 276.817 256.553C274.75 258.358 265.144 252.443 263.335 257.597C265.876 261.38 272.937 262.733 276.975 267.732C278.26 272.871 274.333 274.117 270.232 275.81C266.502 275.467 262.84 275.04 259.937 272.465L259.962 271.119C263.849 269.601 271.351 274.433 272.965 269.726C270.097 265.449 262.663 263.869 259.328 258.387C259.057 253.274 263.234 252.523 267.5 251.379Z"/><path fill="#2B2B2F" d="M778.583 191.813L781.225 194.226C785.928 194.407 791.166 192.144 795.02 195.227C798.589 200.869 796.912 212.139 796.113 218.787C793.288 211.531 793.394 208.534 793.446 200.872C792.962 198.923 792.797 198.811 791.587 197.153C789.285 195.794 788.869 195.796 786.182 195.605C777.886 199.142 784.598 211.738 779.638 216.63C776.901 213.323 777.714 196.244 778.583 191.813Z"/><path fill="#444348" d="M290.613 251.12C292.475 251.271 294.309 251.664 296.069 252.289C298.634 253.184 300.026 254.611 301.138 256.982C298.724 258.366 293.702 254.207 288.311 256.918C283.454 261.693 285.12 272.833 295.479 272.183C296.798 270.44 296.924 270.042 298.818 269.119L300.039 269.685L300.044 271.427C292.574 286.266 270.139 263.727 290.613 251.12Z"/><path fill="#444348" d="M622.69 185.488C623.958 186.007 624.136 186.447 625.016 187.511C625.258 189.432 625.237 191.097 626.421 192.577C628.288 192.802 628.838 192.741 630.463 193.756L630.592 194.807C629.136 195.573 627.688 196.355 626.248 197.151C623.463 208.032 625.05 208.947 632.139 215.806C617.179 217.261 623.381 206.362 621.664 197.104C621.534 196.402 618.608 195.786 617.782 195.54L618.135 193.775C619.696 193.118 620.123 192.945 621.616 192.028L622.69 185.488Z"/><path fill="#444348" d="M553.842 244.076C554.957 244.552 555.355 245.121 556.214 245.992C557.172 254.291 558.889 249.604 562.149 253.132L561.525 254.687L558.207 255.517C554.655 259.968 555.819 263.581 557.411 268.521C558.611 272.248 560.24 272.287 563.442 273.821C559.719 275.52 559.127 276.204 555.438 274.303C550.549 268.007 556.64 259.022 551.168 254.524L551.095 252.846C553.551 249.172 553.836 248.495 553.842 244.076Z"/><path fill="#444348" d="M477.344 244.185C481.817 247.208 478.735 247.624 481.023 251.764C481.319 252.299 482.924 251.177 485.005 253.202C476.825 261.174 477.164 268.506 487.1 274.29C473.475 278.987 477.383 265.572 476.724 257.91C476.521 255.542 474.576 256.062 473.608 253.218C477.764 251.019 476.769 248.786 477.344 244.185Z"/><path fill="#444348" d="M463.4 185.419C464.639 186.24 464.466 186.184 465.508 187.279C466.642 196.422 468.14 190.653 471.291 194.196C470.271 197.408 467.178 195.26 466.462 197.263C463.497 205.555 465.33 211.106 472.796 214.893C469.231 216.322 468.485 216.682 465.126 215.21C461.044 210.476 464.088 203.001 462.408 197.282C461.061 196.269 460.158 195.844 459.657 194.257C462.624 190.686 463.059 190.053 463.4 185.419Z"/><path fill="#444348" d="M532.531 185.465C533.887 186.111 533.839 186.302 534.754 187.542C535.371 195.882 537.058 190.852 540.375 194.244L539.854 195.541L536.557 196.157C534.092 198.63 533.519 201.567 534.434 204.973C536.223 211.634 536.27 211.699 541.868 214.98C538.051 216.428 537.305 216.84 533.93 214.906C530.51 210.431 532.536 202.808 531.622 196.74C529.909 196.118 529.744 196.167 528.317 194.946L528.49 193.533C532.753 191.752 531.808 189.953 532.531 185.465Z"/><path fill="#2B2B2F" d="M414.718 239.668C415.196 240.043 416.042 241.011 416.497 241.497C418.907 249.475 417.609 267.971 416.966 276.5C416.128 276.001 415.701 275.489 414.968 274.798C413.25 270.006 413.614 244.998 414.718 239.668Z"/><path fill="#444348" d="M425.334 195.273C428.09 194.028 432.121 191.943 435.057 193.37C442.238 196.862 442.611 208.964 439.416 215.123L438.225 215.76C433.401 210.946 442.211 190.992 426.324 197.135L425.334 195.273Z"/><path fill="#2B2B2F" d="M312.827 181.15C317.059 184.407 315.2 209.986 315.005 216.441C313.524 216.537 314.254 216.679 312.885 215.577C311.254 210.815 311.747 186.451 312.827 181.15Z"/><path fill="#444348" d="M426.324 197.135C423.808 204.644 424.759 207.368 424.254 214.877C424.2 215.67 423.456 215.721 422.491 216.136L421.378 215.134C420.51 210.262 419.77 197.712 422.13 193.514L423.387 193.211L425.334 195.273L426.324 197.135Z"/><path fill="#2B2B2F" d="M463.171 250.682C464.116 251.253 464.741 251.829 465.591 252.526C468.129 257.853 466.737 270.07 466.236 276.421L464.05 274.847C461.758 270.574 462.94 256.294 463.171 250.682Z"/><path fill="#444348" d="M609.827 191.792C615.044 194.606 612.898 211.775 612.654 217.265L610.269 215.645C607.963 211.22 608.646 196.807 609.827 191.792Z"/><path fill="#2B2B2F" d="M751.029 218.205C749.5 213.161 746.829 196.924 750.396 192.865C752.445 194.002 751.797 193.629 753.014 196.171C753.541 197.986 753.066 197.23 754.532 198.485C752.621 202.689 752.12 212.543 751.029 218.205Z"/><path fill="#2B2B2F" d="M195.815 191.692L197.972 193.212C200.019 198.09 198.901 211.512 198.633 217.484C193.089 212.563 195.064 198.655 195.815 191.692Z"/><path fill="#2B2B2F" d="M708.667 242.453C709.336 242.78 710.32 243.467 710.979 243.893C713.369 248.931 712.129 260.499 711.26 266.078L709.534 264.887C707.06 260.114 708.257 248.049 708.667 242.453Z"/><path fill="#2B2B2F" d="M540.204 250.981L542.363 252.452C545.027 257.615 543.513 269.599 543.051 275.628C542.134 275.702 542.195 275.505 541.127 275.025C539.243 271.509 540.104 256.016 540.204 250.981Z"/><path fill="#2B2B2F" fill-opacity="0.98431373" d="M753.014 196.171C755.077 194.311 755.527 193.636 758.19 192.96L758.97 193.658C758.239 195.948 756.492 196.916 754.532 198.485C753.066 197.23 753.541 197.986 753.014 196.171Z"/></svg>