<?xml version="1.0" encoding="utf-8" ?><svg xmlns="http://www.w3.org/2000/svg" xmlns:xlink="http://www.w3.org/1999/xlink" width="1024" height="1536" viewBox="0 0 1024 1536"><path fill="#E0ECED" d="M164.524 627.586C164.221 624.954 164.76 614.946 164.835 611.939C164.996 603.246 165.058 594.552 165.021 585.858L164.995 473.523C164.982 459.995 159.862 395.415 175.206 391.793C210.469 383.469 254.095 387.981 290.876 387.851C336.549 387.247 382.225 386.926 427.902 386.889C457.305 386.83 486.578 385.826 515.797 389.008C531.69 390.739 534.877 388.103 542.54 404.171C543.201 404.519 544.855 405.263 545.594 405.277C558.224 405.51 570.519 408.049 582.863 410.58C625.919 419.412 668.277 433.771 706.694 455.275C713.236 458.943 720.37 464.238 726.813 468.464C733.085 471.628 740.885 477.641 746.393 482.011C785.028 511.118 817.264 547.857 841.097 589.945C844.285 595.515 852.208 609.791 854.313 615.591C858.078 622.806 865.669 639.742 867.105 647.583C872.745 660.381 876.717 675.284 879.937 688.966C896.753 763.472 891.134 841.287 863.79 912.606C857.944 927.616 830.49 987.323 818.081 995.707L816.843 994.583C816.908 992.541 817.993 988.813 818.529 986.689C814.895 985.97 810.149 984.881 806.571 984.378C806.306 993.775 806.173 1003.18 806.171 1012.58C800.365 1020.28 790.549 1032.36 783.502 1038.94C768.56 1059.32 768.382 1064.59 744.155 1074.9C679.057 1122.2 612.365 1148.09 531.561 1153.25C436.135 1159.34 334.097 1123.31 262.523 1060.04C253.168 1048.87 238.147 1035.12 227.68 1023.33C196.017 987.391 171.371 945.833 155.017 900.814C129.407 827.687 126.728 748.488 147.337 673.798C150.165 663.601 154.204 648.192 158.566 638.918C160.643 641.031 161.541 648.008 162.208 651.308C163.037 645.028 163.328 643.271 162.723 636.925C162.812 634.821 164.014 629.905 164.524 627.586Z"/><path fill="#89B2E7" d="M164.524 627.586C164.221 624.954 164.76 614.946 164.835 611.939C164.996 603.246 165.058 594.552 165.021 585.858L164.995 473.523C164.982 459.995 159.862 395.415 175.206 391.793C210.469 383.469 254.095 387.981 290.876 387.851C336.549 387.247 382.225 386.926 427.902 386.889C457.305 386.83 486.578 385.826 515.797 389.008C531.69 390.739 534.877 388.103 542.54 404.171C543.448 466.708 543.643 529.253 543.123 591.794L543.168 651.769C543.199 664.907 543.543 678.053 542.42 691.158C541.134 706.17 524.95 709.188 512.609 709.129C494.105 709.041 475.6 708.775 457.087 708.717C433.259 708.128 407.647 708.554 383.749 708.718C340.489 709.019 297.228 709.026 253.968 708.737L214.471 708.892C206.259 708.972 197.828 709.488 189.649 708.742C183.719 708.201 176.955 707.336 172.07 703.586C158.559 693.216 167.241 645.342 164.642 628.33L164.524 627.586Z"/><path fill="#FEFEFE" d="M235.36 392.636C290.832 391.731 349.928 392.958 405.727 392.962L478.196 392.953C490.959 392.953 504.212 392.77 516.948 393.232C521.757 393.407 529.607 394.34 533.249 397.547C537.594 401.374 538.3 408.975 538.452 414.565C538.954 432.986 538.683 451.799 538.651 470.236L538.644 570.678L538.658 648.579C538.656 661.891 538.807 675.25 538.263 688.544C537.927 696.757 530.945 703.448 522.88 703.926C505.7 704.944 488.008 704.374 470.74 704.289L283.806 704.285L222.244 704.323C211.13 704.327 199.874 704.609 188.784 704.058C177.545 703.501 171.858 701.686 170.52 689.648C167.916 666.226 169 642.827 169.179 619.332L169.32 535.233L169.234 457.951C169.097 442.647 168.45 427.406 169.09 412.123C169.773 395.793 182.198 392.935 195.947 392.895C209.093 392.856 222.248 392.715 235.36 392.636Z"/><path fill="#1355FE" d="M258.292 602.626C312.177 602.313 366.065 602.38 419.949 602.827L468.873 602.994C479.465 603.045 490.082 603.171 500.656 603.807C504.785 604.055 506.951 607.477 508.419 611.182C512.672 621.915 514.265 670.995 505.68 677.804C498.008 683.888 460.326 681.274 448.399 680.945L304.841 681.073C275.871 681.154 246.767 681.871 217.844 680.568C213.666 680.38 203.271 679.765 201.212 676.537C192.879 663.472 197.194 624.464 198.181 609.799C201.35 606.896 203.588 605.486 207.206 603.106C224.076 602.74 241.384 602.782 258.292 602.626Z"/><path fill="#FEFEFE" d="M337.452 630.336C343.84 628.544 350.492 632.166 352.453 638.502C354.414 644.838 350.97 651.583 344.687 653.711C340.471 655.14 335.812 654.167 332.519 651.172C329.227 648.177 327.82 643.632 328.845 639.301C329.871 634.97 333.166 631.537 337.452 630.336Z"/><path fill="#1355FE" d="M339.109 632.714C352.478 635.287 349.976 643.2 342.692 651.243C328.573 650.004 331.837 640.267 339.109 632.714Z"/><path fill="#FEFEFE" d="M364.568 630.335C370.963 628.798 377.421 632.625 379.143 638.971C380.864 645.318 377.226 651.882 370.931 653.787C366.693 655.069 362.093 653.947 358.922 650.857C355.751 647.767 354.512 643.198 355.686 638.93C356.86 634.661 360.263 631.369 364.568 630.335Z"/><path fill="#1355FE" d="M365.518 632.758C378.712 634.495 376.938 643.68 369.237 651.361C355.483 649.204 358.259 641 365.518 632.758Z"/><path fill="#FEFEFE" d="M307.732 629.953C311.37 629.973 319.505 629.587 322.117 631.489C322.407 632.037 324.736 651.288 324.69 651.685C317.679 654.364 315.081 654.192 307.659 653.974L307.732 629.953Z"/><path fill="#1355FE" d="M310.968 643.199C313.958 643.315 316.311 643.16 318.926 644.664C320.97 646.699 320.895 647.928 321.265 650.727C318.266 651.116 315.653 651.502 313.127 649.942C311.291 647.634 311.38 646.144 310.968 643.199Z"/><path fill="#1355FE" d="M311.44 632.828C314.188 633.176 315.514 633.198 318.026 634.511C319.864 636.475 319.746 637.179 320.247 639.974C317.465 639.93 315.225 640.218 312.911 638.832C311.335 636.841 311.567 635.417 311.44 632.828Z"/><path fill="#FEFEFE" d="M388.512 641.182C393.977 635.264 398.309 632.228 404.793 627.785C400.885 633.431 398.522 636.406 393.954 641.539L399.762 648.312C402.163 651.306 401.774 650.086 402.293 653.346L401.208 653.674C397.262 651.185 394.082 647.412 390.735 644.034C389.685 646.682 388.187 652.31 385.195 652.737C383.111 649.675 384.09 634.148 384.188 629.373C386.207 630.05 386.322 630.333 387.862 631.913C389.132 634.884 388.652 637.864 388.512 641.182Z"/><path fill="#E0ECED" d="M197.606 560.173C196.439 537.447 197.522 514.252 197.27 491.467C197.149 480.579 197.067 469.397 197.188 458.547C197.294 449.12 195.98 434.763 202.279 427.448C208.37 420.376 217.064 420.831 225.607 420.372C245.731 419.876 265.724 420.006 285.872 420.024C300.883 420.036 315.506 419.687 330.56 421.027C344.463 422.264 349.462 428.419 350.694 442.283C352.231 459.563 350.454 477.493 350.932 494.853C350.973 514.785 351.392 534.641 350.947 554.512C350.844 559.1 349.857 564.447 348.123 568.708C339.605 584.369 307.887 580.882 292.658 579.772C292.859 563.346 292.813 546.918 292.519 530.494L291.431 529.808L290.228 531.141C285.652 536.117 278.231 542.316 274.77 546.445L273.838 546.58C267.144 541.604 259.889 536.442 253.785 530.831L252.673 531.232C255.366 546.352 259.067 564.874 260.724 579.878L248.28 579.836C234.686 580.884 215.1 583.041 204.232 573.593C200.961 570.749 197.818 564.396 197.606 560.173Z"/><path fill="#FECEC3" d="M253.004 489.097C266.48 464.738 250.106 447.859 285.524 458.523C304.913 452.094 304.144 458.167 306.661 475.723C301.91 484.647 316.95 500.087 291.431 529.808L290.228 531.141C285.652 536.117 278.231 542.316 274.77 546.445L273.838 546.58C267.144 541.604 259.889 536.442 253.785 530.831C252.176 526.407 251.577 519.968 251.178 515.244C250.529 514.05 248.895 506.876 248.454 505.084C236.627 497.631 234.054 493.258 240.936 480.446C247.17 481.219 249.422 484.575 253.004 489.097Z"/><path fill="#FDB9AA" d="M251.178 515.244C253.215 518.927 263.212 528.055 268.455 529.566C276.269 531.817 284.551 529.924 290.228 531.141C285.652 536.117 278.231 542.316 274.77 546.445L273.838 546.58C267.144 541.604 259.889 536.442 253.785 530.831C252.176 526.407 251.577 519.968 251.178 515.244Z"/><path fill="#858387" d="M267.934 474.75C272.552 474.617 278.418 473.432 279.582 478.959C276.09 479.383 272.126 480.266 269.039 478.901C267.474 476.839 267.894 477.759 267.934 474.75Z"/><path fill="#858387" d="M296.373 473.74C300.154 474.091 302.738 474.775 304.694 478.155L303.822 479.438C300.918 479.395 297.412 479.497 295.202 477.696C294.769 475.344 294.707 476.284 296.373 473.74Z"/><path fill="#F29585" d="M288.738 486.418C292.077 490.512 290.343 499.628 289.056 504.398C286.605 498.884 287.703 492.127 288.738 486.418Z"/><path fill="#F29585" d="M276.399 508.444C280.137 508.381 287.358 507.916 290.57 509.028L290.809 510.629C283.846 512.554 282.37 512.611 276.399 508.444Z"/><path fill="#3C5878" d="M246.586 535.601C249.053 532.995 249.414 532.723 252.673 531.232C255.366 546.352 259.067 564.874 260.724 579.878L248.28 579.836C234.686 580.884 215.1 583.041 204.232 573.593C200.961 570.749 197.818 564.396 197.606 560.173C208.426 548.043 230.942 541.844 246.586 535.601Z"/><path fill="#1355FE" d="M246.586 535.601C249.053 532.995 249.414 532.723 252.673 531.232C255.366 546.352 259.067 564.874 260.724 579.878L248.28 579.836C248.778 566.673 248.51 566.042 236.968 560.452C241.535 551.71 244.771 545.405 246.586 535.601Z"/><path fill="#3C5878" d="M292.519 530.494C296.056 532.472 305.89 539.028 308.446 540.065C331.363 549.368 333.98 547.186 348.123 568.708C339.605 584.369 307.887 580.882 292.658 579.772C292.859 563.346 292.813 546.918 292.519 530.494Z"/><path fill="#858387" d="M240.936 480.446C240.515 463.596 241.545 449.005 258.843 440.843C287.041 427.538 320.893 439.674 306.661 475.723C304.144 458.167 304.913 452.094 285.524 458.523C250.106 447.859 266.48 464.738 253.004 489.097C249.422 484.575 247.17 481.219 240.936 480.446Z"/><path fill="#2C2C2E" d="M391.287 432.693C408.433 432.535 417.331 438.211 409.034 456.041C401.411 459.429 399.294 459.16 391.047 458.996L391.287 432.693Z"/><path fill="#FEFEFE" d="M394.66 435.469C407.711 437.387 411.295 441.014 406.293 453.567C391.697 461.595 394.281 444.038 394.66 435.469Z"/><path fill="#2C2C2E" d="M273.838 546.58L274.77 546.445C277.307 547.717 282.009 551.198 284.533 552.964L281.067 560.876C282.439 565.951 283.788 574.407 284.801 579.799L270.011 579.824L271.012 560.037L264.873 553.41C267.734 551.119 270.899 548.806 273.838 546.58Z"/><path fill="#2C2C2E" d="M498.437 439.291C500.402 439.671 509.636 440.756 510.008 441.318C516.92 451.768 509.341 475.964 493.231 462.687C496.856 459.411 499.148 464.083 504.613 462.931C506.798 461.482 506.338 462.192 507.433 460.054C503.317 456.008 481.332 460.926 498.437 439.291Z"/><path fill="#FEFEFE" d="M499.5 442.844C509.628 444.569 508.265 448.815 504.786 456.38C495.137 453.939 495.156 451.618 499.5 442.844Z"/><path fill="#2C2C2E" d="M464.546 483.674C478.625 483.744 482.326 492.257 473.184 502.78C468.959 505.018 461.331 503.744 460.561 497.969C459.63 490.987 460.995 489.006 464.546 483.674Z"/><path fill="#FEFEFE" d="M466.835 486.287C468.112 486.726 469.357 487.251 470.564 487.857C476.723 490.916 473.26 496.498 470.887 500.731C467.366 500.12 465.748 499.552 463.909 496.409C462.998 491.763 464.387 490.184 466.835 486.287Z"/><path fill="#2C2C2E" d="M404.59 483.552C409.497 483.709 416.845 484.88 417.973 490.559C416.118 494.485 408.609 494.42 403.996 496.818L403.918 498.058C406.236 500.097 407.793 500.068 410.376 499.244C412.787 498.369 413.593 498.135 415.707 498.902L415.267 500.113C401.864 511.573 393.875 496.621 404.59 483.552Z"/><path fill="#FEFEFE" d="M405.27 486.365C408.291 486.757 408.869 486.769 411.503 488.241C412.934 490.583 412.737 489.522 412.387 492.115C409.695 492.032 407.527 492.252 405.222 490.983C404.155 488.727 404.492 489.445 405.27 486.365Z"/><path fill="#2C2C2E" d="M435.142 542.098C449.059 542.661 448.849 549.108 442.87 559.402C428.739 559.942 430.133 552.046 435.142 542.098Z"/><path fill="#FEFEFE" d="M436.199 544.113C446.318 545.448 444.608 550.253 441.271 557.357C440.128 557.189 439.001 556.925 437.902 556.567C431.649 554.539 434.436 548.274 436.199 544.113Z"/><path fill="#2C2C2E" d="M426.549 482.932C429.46 483.185 435.054 483.908 435.024 487.524C433.775 488.264 428.628 487.7 426.639 487.646L426.042 488.467C428.966 493.698 438.131 495.127 436.063 500.708C433.917 502.627 432.215 502.927 429.478 503.823C426.115 503.4 421.667 503.052 421.925 499.074C424.378 498.267 427.047 499.593 430.498 499.906L431.757 498.85C429.45 494.093 421.666 494.683 421.349 487.478C422.531 484.835 423.98 484.397 426.549 482.932Z"/><path fill="#2C2C2E" d="M491.086 483.251C499.659 482.798 501.226 495.506 497.151 501.053C493.697 498.02 499.311 491.259 489.466 486.707L488.697 486.356C484.125 491.382 487.328 500.103 484.49 502.946C479.958 498.845 478.91 487.094 486.803 484.622L491.086 483.251Z"/><path fill="#2C2C2E" d="M445.427 482.931C448.883 483.303 453.054 484.064 455.063 487.053C453.188 488.48 449.723 487.056 445.62 487.744L445.514 488.835C448.836 492.961 455.591 494.102 455.826 499.343C454.674 501.862 453.289 502.382 450.934 503.757C447.566 503.896 441.306 503.373 441.224 499.164C444.841 497.693 447.957 501.009 451.228 499.46C450.351 492.617 441.154 495.108 440.863 488.06C441.915 485.416 443.232 484.663 445.427 482.931Z"/><path fill="#2C2C2E" d="M480.57 439.575C491.742 438.025 490.554 453.793 486.297 456.953C483.547 450.41 487.832 448.974 481.837 442.107L481.289 441.485C473.969 445.243 478.336 449.954 473.456 457.314L472.626 456.879C470.765 450.335 471.553 448.466 472.562 441.912C474.892 441.114 478.134 440.282 480.57 439.575Z"/><path fill="#2C2C2E" d="M440.671 439.264C446.27 441.948 447.54 448.516 449.24 453.963C450.285 450.68 453.135 441.036 457.068 440.916L457.631 442.786C456.01 447.957 454.767 454.253 449.041 456.121C442.075 454.911 441.178 445.224 440.671 439.264Z"/><path fill="#2C2C2E" d="M391.044 474.927C392.398 475.289 392.709 475.767 393.762 476.715C396.805 483.955 395.261 495.078 394.491 502.995C388.346 502.359 390.831 480.403 391.044 474.927Z"/><path fill="#2C2C2E" d="M451.761 542.753C456.062 546.914 450.926 553.938 458.129 557.543L459.546 556.971C461.882 553.288 461.595 548.739 463.462 544.087L465.014 543.973C465.128 548.492 466.295 553.322 464.13 556.485C459.838 558.525 455.631 559.244 451.928 556.016C449.937 551.619 451.056 547.525 451.761 542.753Z"/><path fill="#2C2C2E" d="M413.29 542.952C413.198 540.283 412.913 538.591 413.871 536.102L414.844 535.817C415.929 538.505 415.318 539.991 414.684 542.775C416.256 542.851 418.414 543.029 419.939 542.942C423.358 542.253 422.117 542.033 424.837 543.376C427.492 546.808 427.746 551.685 425.963 555.563L425.041 555.624C423.448 549.71 426.262 547.294 420.759 543.1C415.904 547.17 415.217 552.05 413.66 557.984C413.355 553.157 413.375 547.823 413.29 542.952Z"/><path fill="#2C2C2E" d="M423.215 440.21C425.467 440.177 425.019 439.825 426.346 440.948C425.703 443.223 422.26 446.007 420.344 447.832C420.482 451.239 420.555 454.648 420.565 458.058C419.037 458.933 419.855 458.759 418.005 458.441C415.662 454.455 415.624 449.021 417.23 444.739C418.43 441.537 420.359 441.37 423.215 440.21Z"/><path fill="#2C2C2E" d="M432.505 439.029C437.452 442.531 436.647 455.169 435.005 460.312C429.707 454.54 431.69 446.229 432.505 439.029Z"/><path fill="#2C2C2E" d="M462.511 439.032C467.78 442.653 466.365 454.854 464.91 460.17C459.743 454.996 461.781 445.711 462.511 439.032Z"/><path fill="#2C2C2E" d="M394.712 536.006L395.998 536.724C397.868 540.54 397.1 550.746 395.856 554.585L395.093 554.077C395.184 550.895 395.828 543.482 394.377 541.065L390.342 540.375L390.365 539.54L394.712 536.006Z"/><path fill="#2C2C2E" d="M470.426 542.897C472.183 542.968 473.368 542.824 474.858 543.728C475.258 545.52 473.249 548.661 472.74 552.492L472.637 553.301C472.55 554.691 472.677 554.202 472.018 555.415C469.827 553.033 470.374 546.165 470.426 542.897Z"/><path fill="#CADBE3" d="M726.813 468.464C733.085 471.628 740.885 477.641 746.393 482.011C785.028 511.118 817.264 547.857 841.097 589.945C844.285 595.515 852.208 609.791 854.313 615.591C858.078 622.806 865.669 639.742 867.105 647.583C872.745 660.381 876.717 675.284 879.937 688.966C896.753 763.472 891.134 841.287 863.79 912.606C857.944 927.616 830.49 987.323 818.081 995.707L816.843 994.583C816.908 992.541 817.993 988.813 818.529 986.689C818.793 979.568 820.508 970.56 821.155 963.117C824.184 928.264 830.202 890.243 819.649 856.203C810.452 826.533 789.965 817.319 764.928 804.511C763.213 804.09 754.392 800.697 752.054 799.818C743.24 796.507 736.163 794.204 727.079 791.783L705.742 785.491C703.598 787.977 699.753 797.45 698.58 800.872C688.26 830.986 638.322 843.214 630.748 804.116C629.519 799.087 631.563 795.535 629.326 791.419L612.085 797.109L597.526 802.338C598.067 790.637 597.767 776.106 597.854 764.18C591.242 748.884 588.504 745.364 585.023 728.238C582.807 717.333 581.883 685.077 578.827 678.094C575.292 669.437 574.556 663.55 573.644 654.535C548.94 626.135 565.164 600.952 597.909 592.025L597.156 470.196C612.385 470.329 719.989 471.871 726.813 468.464Z"/><path fill="#FDB9AA" d="M612.082 590.005C637.49 585.491 671.746 577.783 694.545 593.557C704.843 600.683 708.259 609.388 715.018 619.211C717.507 622.829 722.25 627.979 725.296 631.398C730.398 643.253 728.369 656.829 725.074 668.935C723.002 674.391 720.197 682.388 717.774 687.429C722.901 706.179 724.74 726.277 699.878 728.668C699.996 737.516 701.062 779.146 704.386 784.863L705.742 785.491C703.598 787.977 699.753 797.45 698.58 800.872C688.26 830.986 638.322 843.214 630.748 804.116C629.519 799.087 631.563 795.535 629.326 791.419L612.085 797.109L597.526 802.338C598.067 790.637 597.767 776.106 597.854 764.18C591.242 748.884 588.504 745.364 585.023 728.238C582.807 717.333 581.883 685.077 578.827 678.094C575.292 669.437 574.556 663.55 573.644 654.535C548.94 626.135 565.164 600.952 597.909 592.025L612.082 590.005Z"/><path fill="#2C2C2E" d="M612.082 590.005C637.49 585.491 671.746 577.783 694.545 593.557C704.843 600.683 708.259 609.388 715.018 619.211C717.507 622.829 722.25 627.979 725.296 631.398C730.398 643.253 728.369 656.829 725.074 668.935C723.002 674.391 720.197 682.388 717.774 687.429C704.564 673.92 696.299 691.106 690.664 701.366C678.612 682.393 676.845 670.621 676.685 648.94C647.753 659.784 610.488 660.507 580.302 655.011C580.332 659.853 580.76 674.238 578.827 678.094C575.292 669.437 574.556 663.55 573.644 654.535C548.94 626.135 565.164 600.952 597.909 592.025L612.082 590.005Z"/><path fill="#F29585" d="M632.651 786.052C637.418 784.094 642.511 783.963 647.484 782.707C659.697 779.621 668.665 771.725 677.56 763.305C667.908 781.517 654.396 798.841 631.6 795.589C630.631 797.614 630.815 801.676 630.748 804.116C629.519 799.087 631.563 795.535 629.326 791.419C630.919 790.247 631.755 787.912 632.651 786.052Z"/><path fill="#CADBE3" d="M597.854 764.18C602.483 769.927 605.622 773.917 611.279 778.803C611.242 782.498 610.8 794.217 612.085 797.109L597.526 802.338C598.067 790.637 597.767 776.106 597.854 764.18Z"/><path fill="#E0ECED" d="M611.279 778.803C619.461 782.905 623.692 784.112 632.651 786.052C631.755 787.912 630.919 790.247 629.326 791.419L612.085 797.109C610.8 794.217 611.242 782.498 611.279 778.803Z"/><path fill="#F29585" d="M614.312 692.757C624.736 701.495 611.718 717.119 613.364 726.172C617.118 731.23 622.309 726.504 626.801 729.205C627.566 731.405 627.469 730.5 626.457 733.127C621.229 733.973 613.24 735.488 610.313 730.038C605.768 721.578 612.207 701.878 614.312 692.757Z"/><path fill="#F29585" d="M648.791 737.869C650.095 738.776 650.503 739.88 651.271 741.289C651.059 751.642 627.524 752.324 619.979 752.231C618.513 749.42 618.453 750.314 618.81 747.674C622.66 745.19 627.751 747.037 632.526 748.003C640.797 745.009 642.245 743.49 648.791 737.869Z"/><path fill="#2C2C2E" d="M638.303 672.174C643.135 671.914 658.363 670.805 656.411 679.387C654.475 680.406 655.49 680.273 653.248 679.607C649.292 679.641 633.925 680.585 633.114 675.66C634.431 673.631 636.05 673.21 638.303 672.174Z"/><path fill="#2C2C2E" d="M592.668 674.346C597.051 674.055 604.363 673.821 605.24 679.445C603.682 681.05 603.072 680.904 600.698 681.228C595.849 681.285 592.663 682.875 587.878 680.173L587.533 678.771C588.889 676.19 590.12 675.814 592.668 674.346Z"/><path fill="#2C2C2E" d="M644.82 690.183C653.735 693.768 650.811 699.431 647.818 706.321C638.803 702.103 640.87 697.608 644.82 690.183Z"/><path fill="#2C2C2E" d="M596.181 691.479C605.429 694.551 602.694 700.47 600.199 707.649C591.058 703.305 592.996 699.85 596.181 691.479Z"/><path fill="#F29585" d="M707.538 692.653L709.124 693.549C709.895 697.47 705.049 704.151 702.803 707.908C701.753 707.841 701.903 707.737 700.87 707.21C699.319 702.72 704.943 695.995 707.538 692.653Z"/><path fill="#E0ECED" d="M610.843 483.104L727.699 483.008C727.878 512.206 729.012 595.228 726.6 629.61C726.588 629.774 725.465 631.165 725.296 631.398C722.25 627.979 717.507 622.829 715.018 619.211C708.259 609.388 704.843 600.683 694.545 593.557C671.746 577.783 637.49 585.491 612.082 590.005C609.112 581.032 610.574 498.631 610.843 483.104Z"/><path fill="#E0ECED" d="M738.922 638.996C738.933 623.605 737.855 489.4 739.98 484.339C742.043 482.553 743.681 482.531 746.393 482.011C785.028 511.118 817.264 547.857 841.097 589.945C844.285 595.515 852.208 609.791 854.313 615.591C852.4 621.703 852.908 632.279 852.946 638.885L738.922 638.996Z"/><path fill="#E0ECED" d="M867.105 647.583C872.745 660.381 876.717 675.284 879.937 688.966C896.753 763.472 891.134 841.287 863.79 912.606C857.944 927.616 830.49 987.323 818.081 995.707L816.843 994.583C816.908 992.541 817.993 988.813 818.529 986.689C818.793 979.568 820.508 970.56 821.155 963.117C824.184 928.264 830.202 890.243 819.649 856.203C810.452 826.533 789.965 817.319 764.928 804.511C773.866 800.388 853.16 802.364 865.907 802.532C866.918 790.437 866.555 774.658 866.519 762.318L865.988 685.802C866.014 673.787 864.745 658.951 867.105 647.583Z"/><path fill="#E0ECED" d="M725.074 668.935C729.051 673.486 727.643 722.363 727.775 731.132C728.053 749.458 727.574 769.951 727.686 788.571C727.686 789.491 727.388 790.904 727.079 791.783L705.742 785.491L704.386 784.863C701.062 779.146 699.996 737.516 699.878 728.668C724.74 726.277 722.901 706.179 717.774 687.429C720.197 682.388 723.002 674.391 725.074 668.935Z"/><path fill="#E0ECED" d="M738.96 650.289L852.951 650.277L852.975 789.698L738.818 789.797L738.96 650.289Z"/><path fill="#ED5656" d="M705.742 785.491L727.079 791.783C736.163 794.204 743.24 796.507 752.054 799.818C754.392 800.697 763.213 804.09 764.928 804.511C789.965 817.319 810.452 826.533 819.649 856.203C830.202 890.243 824.184 928.264 821.155 963.117C820.508 970.56 818.793 979.568 818.529 986.689C814.895 985.97 810.149 984.881 806.571 984.378C806.306 993.775 806.173 1003.18 806.171 1012.58C800.365 1020.28 790.549 1032.36 783.502 1038.94C784.216 1031.9 792.212 1013.6 794.955 1006.15C798.098 997.619 799.779 992.595 802.048 983.541C780.031 980.848 747.172 972.877 724.346 968.201L718.862 976.368L716.212 979.449C714.244 977.733 712.131 976.21 710.042 974.647C689.694 959.426 668.771 944.879 649.189 928.667C640.667 921.708 632.553 914.266 624.885 906.377C590.28 870.542 584.863 863.308 538.757 842.22C555.316 820.637 572.251 811.53 597.526 802.338L612.085 797.109L629.326 791.419C631.563 795.535 629.519 799.087 630.748 804.116C638.322 843.214 688.26 830.986 698.58 800.872C699.753 797.45 703.598 787.977 705.742 785.491Z"/><path fill="#D24D4C" d="M735.157 878.545L736.163 879.41C738.37 886.464 721.073 961.054 717.34 971.039C713.213 966.057 731.387 889.756 735.157 878.545Z"/><path fill="#FDB9AA" d="M529.344 858.593C523.884 854.913 512.173 852.168 508.83 847.646C502.714 839.372 508.915 835.095 517.31 836.313C525.701 837.531 531.465 840.739 538.757 842.22C584.863 863.308 590.28 870.542 624.885 906.377C632.553 914.266 640.667 921.708 649.189 928.667C668.771 944.879 689.694 959.426 710.042 974.647C712.131 976.21 714.244 977.733 716.212 979.449L718.862 976.368L724.346 968.201C747.172 972.877 780.031 980.848 802.048 983.541C799.779 992.595 798.098 997.619 794.955 1006.15C792.212 1013.6 784.216 1031.9 783.502 1038.94C768.56 1059.32 768.382 1064.59 744.155 1074.9C727.155 1074.23 718.117 1068.29 704.362 1059.78L561.279 1059.81C561.134 1035.96 561.975 1012.23 561.878 988.326C562.556 983.129 562.411 980.265 561.623 975.151L560.233 974.774C549.275 968.706 509.657 957.945 496.567 954.255L494.798 953.264C498.583 944.347 503.796 923.68 509.368 916.923C514.507 916.526 516.002 915.389 519.933 912.463C522.718 904.153 520.247 898.349 516.563 890.894C520.444 879.981 524.707 869.207 529.344 858.593Z"/><path fill="#ED5656" d="M529.344 858.593C536.292 860.865 546.736 867.802 552.579 872.485C549.21 874.466 546.55 875.813 543.79 878.6C535.047 885.725 532.358 889.151 536.462 900.462L537.723 903.078C537.915 909.499 537.8 913.259 542.827 918.089C543.769 919.014 544.622 919.581 544.804 920.834C551.12 936.72 559.071 944.639 576.65 937.135C584.948 942.888 589.424 945.791 599.545 948.447C618.681 968.937 634.261 991.025 653.041 1011.31C662.426 1021.4 672.222 1031.1 682.403 1040.39C689.326 1046.61 697.862 1053.41 704.362 1059.78L561.279 1059.81C561.134 1035.96 561.975 1012.23 561.878 988.326C562.556 983.129 562.411 980.265 561.623 975.151L560.233 974.774C549.275 968.706 509.657 957.945 496.567 954.255L494.798 953.264C498.583 944.347 503.796 923.68 509.368 916.923C514.507 916.526 516.002 915.389 519.933 912.463C522.718 904.153 520.247 898.349 516.563 890.894C520.444 879.981 524.707 869.207 529.344 858.593Z"/><path fill="#D24D4C" d="M560.233 974.774C559.802 965.324 559.49 951.116 562.578 942.278L563.256 942.379L563.553 943.472L562.567 943.415L562.512 943.798L563.755 944.639C564.384 950.316 564.987 971.266 561.623 975.151L560.233 974.774Z"/><path fill="#F29585" d="M716.212 979.449L718.862 976.368C729.218 984.909 740.105 993.072 749.075 1003.03C741.219 998.567 721.628 986.868 716.212 979.449Z"/><path fill="#F29585" d="M568.368 886.896C559.4 897.359 545.785 896.872 537.723 903.078L536.462 900.462C547.667 895.094 556.543 890.984 568.368 886.896Z"/><path fill="#F29585" d="M569.415 903.699C563.272 908.98 546.191 918.991 544.804 920.834C544.622 919.581 543.769 919.014 542.827 918.089C552.565 911.882 558.774 907.984 569.415 903.699Z"/><path fill="#F29585" d="M552.579 872.485C557.305 871.915 559.051 871.697 563.742 872.062C556.261 875.992 552.526 877.945 543.79 878.6C546.55 875.813 549.21 874.466 552.579 872.485Z"/><path fill="#F29585" d="M563.977 925.34C572.18 925.644 574.12 928.941 575.993 936.227C571.525 934.134 567.219 929.067 563.977 925.34Z"/><path fill="#3C5878" d="M262.523 1060.04C328.985 1058.4 396.381 1060.65 462.907 1059.76C469.552 1059.67 476.737 1059.67 483.38 1059.9C498.733 1068.34 506.145 1066.79 521.941 1059.92C534.494 1059.93 548.873 1060.26 561.279 1059.81L704.362 1059.78C718.117 1068.29 727.155 1074.23 744.155 1074.9C679.057 1122.2 612.365 1148.09 531.561 1153.25C436.135 1159.34 334.097 1123.31 262.523 1060.04Z"/><path fill="#FDB9AA" d="M422.933 847.013C435.099 845.745 480.016 839.229 464.462 864.012C476.262 867.044 478.014 866.8 477.005 879.875L482.404 887.079C480.956 890.001 479.398 893.033 478.028 895.976C482.323 913.453 475.002 905.429 470.571 915.444C478.56 917.926 499.665 915.532 509.368 916.923C503.796 923.68 498.583 944.347 494.798 953.264L496.567 954.255C509.657 957.945 549.275 968.706 560.233 974.774L561.623 975.151C562.411 980.265 562.556 983.129 561.878 988.326C561.975 1012.23 561.134 1035.96 561.279 1059.81C548.873 1060.26 534.494 1059.93 521.941 1059.92C506.145 1066.79 498.733 1068.34 483.38 1059.9C469.489 1045.39 471.255 1047.72 462.373 1029.62C440.614 985.539 423.945 939.13 412.688 891.283C408.354 872.731 401.532 856.855 422.933 847.013Z"/><path fill="#E0ECED" d="M521.941 1059.92C541.002 1042.52 544.292 1029.12 553.617 1005.9C555.55 1001.08 559.055 992.486 561.878 988.326C561.975 1012.23 561.134 1035.96 561.279 1059.81C548.873 1060.26 534.494 1059.93 521.941 1059.92Z"/><path fill="#E0ECED" d="M470.571 915.444C478.56 917.926 499.665 915.532 509.368 916.923C503.796 923.68 498.583 944.347 494.798 953.264L493.109 953.594C488.516 950.553 475.722 922.955 470.571 915.444Z"/><path fill="#F29585" d="M493.109 953.594L494.798 953.264L496.567 954.255C502.18 968.449 517.373 983.922 525.096 1003.78C514.83 994.465 497.369 966 493.109 953.594Z"/><path fill="#F29585" d="M470.044 880.045C471.653 879.618 472.125 879.759 473.739 879.922L473.678 880.954C467.768 884.238 447.374 886.546 440.203 887.347C437.897 887.718 436.583 887.729 434.239 887.757L433.761 887.009C437.804 883.656 463.781 880.75 470.044 880.045Z"/><path fill="#F29585" d="M469.457 896.449C471.079 896.214 471.284 896.344 472.862 896.628L473.027 897.654C467.463 900.785 451.262 904.269 444.357 905.899L442.753 905.91L441.86 904.989C445.287 901.373 463.95 897.595 469.457 896.449Z"/><path fill="#F29585" d="M450.062 864.431C454.867 863.89 460.315 863.958 465.196 863.893C455.898 866.777 447.001 868.007 437.342 868.625C434.788 868.991 428.875 870.177 427.038 868.145C432.751 865.628 443.711 864.96 450.062 864.431Z"/><path fill="#F29585" d="M459.894 917.001C463.757 920.294 463.025 922.844 462.183 927.32C458.111 924.66 459.17 921.004 459.894 917.001Z"/><path fill="#FEFEFE" d="M426.219 791.146C436.638 791.147 462.866 789.332 470.217 796.568C481.561 807.736 502.173 869.852 509.683 889.09C512.61 896.587 515.498 905.777 519.933 912.463C516.002 915.389 514.507 916.526 509.368 916.923C499.665 915.532 478.56 917.926 470.571 915.444C475.002 905.429 482.323 913.453 478.028 895.976C479.398 893.033 480.956 890.001 482.404 887.079L477.005 879.875C478.014 866.8 476.262 867.044 464.462 864.012C480.016 839.229 435.099 845.745 422.933 847.013C416.44 831.644 410.44 816.072 404.943 800.319C411.386 788.464 413.442 791.386 426.219 791.146Z"/><path fill="#CADBE3" d="M383.749 708.718C407.647 708.554 433.259 708.128 457.087 708.717C453.268 731.733 450.382 754.893 448.437 778.143C427.502 754.424 405.932 731.274 383.749 708.718Z"/><path fill="#CADBE3" d="M410.844 790.276C413.889 789.209 416.902 788.2 420.13 787.892C428.183 787.122 436.436 788.405 444.494 788.663C451.319 788.882 458.323 788.245 465.096 789.061C468.305 789.448 471.571 790.238 474.481 791.672C485.768 797.236 503.272 855.366 508.088 869.429C510.389 876.15 512.401 885.203 516.563 890.894C520.247 898.349 522.718 904.153 519.933 912.463C515.498 905.777 512.61 896.587 509.683 889.09C502.173 869.852 481.561 807.736 470.217 796.568C462.866 789.332 436.638 791.147 426.219 791.146C420.709 790.635 416.347 790.419 410.844 790.276Z"/><path fill="#858387" fill-opacity="0.98431373" d="M886.173 205.432C889.874 205.379 896.868 207.12 899.118 210.231L898.534 211.37C891.494 213.734 887.72 214.324 886.173 205.432Z"/><path fill="#E0ECED" fill-opacity="0.83529413" d="M158.566 638.918C159.418 637.965 161.382 637.434 162.723 636.925C163.328 643.271 163.037 645.028 162.208 651.308C161.541 648.008 160.643 641.031 158.566 638.918Z"/><path fill="#E0ECED" fill-opacity="0.32941177" d="M818.081 995.707C816.53 996.923 816.149 998.487 813.84 1000.16L813.342 999.644C814.334 997.034 814.937 996.618 816.843 994.583L818.081 995.707Z"/></svg>