<?xml version="1.0" encoding="utf-8" ?><svg xmlns="http://www.w3.org/2000/svg" xmlns:xlink="http://www.w3.org/1999/xlink" width="1024" height="1024" viewBox="0 0 1024 1024"><path fill="#FCFDFD" d="M251.418 255.085C251.394 252.063 250.83 244.753 252.5 242.797C259.074 240.962 284.404 241.684 292.956 241.71L343.415 241.698L448.158 241.457C469.833 241.468 499.559 240.998 520.967 242.283C569.043 245.041 616.265 256.187 660.499 275.218C683.192 284.984 704.794 296.763 724.673 311.533C771.89 346.342 806.196 395.861 822.194 452.299C829.414 478.148 830.561 508.228 828.548 534.868C828.734 549.858 826.247 561.014 823.098 575.584C812.272 625.669 788.415 663.232 752.87 699.783C747.243 705.487 741.386 710.958 735.314 716.185C731.432 719.468 725.909 723.727 722.384 727.022C714.316 732.358 706.895 738.53 698.593 743.493C685.61 751.255 672.399 759.618 658.752 766.135C614.577 787.234 566.188 798.818 517.781 804.827C491.868 807.822 458.635 808.455 432.489 808.806C392.311 809.084 352.132 809.132 311.954 808.95C292.129 808.89 271.322 808.467 251.567 809.01C251.499 801.154 251.428 795.406 250.498 787.563L250.467 718.438L250.454 701.846C250.527 684.624 250.494 667.401 250.353 650.18L250.383 643.492C250.523 638.764 250.415 633.473 250.42 628.699C251.34 628.751 252.261 628.797 253.182 628.837C264.622 629.325 278.367 629.015 290 629.085L360.211 629.614C446.628 630.376 542.843 636.681 612.515 575.493C630.886 559.359 651.187 528.595 652.084 503.713L652.09 503.056C652.109 500.507 652.293 495.513 651.742 493.208C638.637 438.4 591.567 404.062 539.256 390.542C514.118 384.045 494.182 384.182 468.69 384.096L422.847 383.932L253.179 384.04C251.908 367.941 251.444 361.494 251.62 344.986L251.458 318.872L251.468 311.407L251.443 266.129C251.415 262.448 251.407 258.767 251.418 255.085Z"/><path fill="#FCFDFD" d="M251.458 318.872C271.365 318.201 292.494 318.457 312.475 318.363C340.669 318.041 368.866 318.016 397.061 318.289C488.529 319.406 584.856 315.454 656.533 382.018C724.909 445.515 723.519 543.882 660.059 609.824C591.1 681.481 491.209 698.747 396.249 701.346C347.656 702.282 299.052 702.449 250.454 701.846C250.527 684.624 250.494 667.401 250.353 650.18L250.383 643.492C250.523 638.764 250.415 633.473 250.42 628.699C251.34 628.751 252.261 628.797 253.182 628.837C264.622 629.325 278.367 629.015 290 629.085L360.211 629.614C446.628 630.376 542.843 636.681 612.515 575.493C630.886 559.359 651.187 528.595 652.084 503.713L652.09 503.056C652.109 500.507 652.293 495.513 651.742 493.208C638.637 438.4 591.567 404.062 539.256 390.542C514.118 384.045 494.182 384.182 468.69 384.096L422.847 383.932L253.179 384.04C251.908 367.941 251.444 361.494 251.62 344.986L251.458 318.872Z"/><defs><linearGradient id="gradient_0" gradientUnits="userSpaceOnUse" x1="569.79395" y1="342.70581" x2="339.58209" y2="504.37"><stop offset="0" stop-color="#092D74"/><stop offset="1" stop-color="#245AAE"/></linearGradient></defs><path fill="url(#gradient_0)" d="M251.62 344.986C252.028 350.974 252.01 358.818 251.851 364.885L395.274 364.958L451.42 364.951C499.371 364.962 543.232 365.973 586.503 390.313C598.3 396.822 609.165 404.892 618.805 414.304C639.254 434.658 653.05 461.329 652.849 490.588C652.83 493.439 652.641 501.078 652.084 503.713L652.09 503.056C652.109 500.507 652.293 495.513 651.742 493.208C638.637 438.4 591.567 404.062 539.256 390.542C514.118 384.045 494.182 384.182 468.69 384.096L422.847 383.932L253.179 384.04C251.908 367.941 251.444 361.494 251.62 344.986Z"/><path fill="#326AAB" d="M250.383 643.492L361.92 644.527L403.189 644.752C407.639 644.788 417.735 644.582 421.871 645.004C424.398 645.663 426.69 645.664 429.276 645.745L428.391 645.985C427.987 647.56 427.93 647.457 428.431 648.985C430.285 650.25 433.514 649.126 436.527 649.825C376.877 651.57 316.856 649.78 257.218 650.126C254.982 650.136 252.57 650.097 250.353 650.18L250.383 643.492Z"/><path fill="#BFCADF" d="M521.875 637.67C537.418 634.04 549.449 631.396 564.781 626.145C575.158 622.59 585.206 617.013 595.123 614.325C600.038 612.993 601.599 611.075 605.915 608.489L606.114 609.145C602.666 614.658 583.9 621.28 577.857 625.737C576.434 626.786 567.714 629.27 565.343 630.384C551.336 636.968 537.544 640.525 522.214 642.344C508.551 643.965 494.544 647.439 480.854 649.216C439.804 653.351 398.57 653.302 357.355 653.245C347.271 653.22 337.496 652.626 327.193 652.754C313.083 652.929 298.603 652.826 284.515 652.432C282.456 652.374 275.69 652.378 274.406 652.094C277.383 651.594 280.757 652.478 283.798 651.213C277.005 649.891 262.872 651.591 257.218 650.126C316.856 649.78 376.877 651.57 436.527 649.825C460.281 649.057 483.951 646.597 507.356 642.463C511.152 641.786 518.351 640.705 521.712 639.132L521.875 637.67Z"/><defs><linearGradient id="gradient_1" gradientUnits="userSpaceOnUse" x1="475.51706" y1="633.83466" x2="473.47775" y2="653.71613"><stop offset="0" stop-color="#7798CE"/><stop offset="1" stop-color="#3568B6"/></linearGradient></defs><path fill="url(#gradient_1)" d="M421.871 645.004C457.068 644.055 486.469 644.351 521.875 637.67L521.712 639.132C518.351 640.705 511.152 641.786 507.356 642.463C483.951 646.597 460.281 649.057 436.527 649.825C433.514 649.126 430.285 650.25 428.431 648.985C427.93 647.457 427.987 647.56 428.391 645.985L429.276 645.745C426.69 645.664 424.398 645.663 421.871 645.004Z"/><path fill="#326AAB" d="M630.549 592.486L636.828 597.588C630.534 602.697 623.762 608.983 617.26 614.379L617.06 614.563C615.743 614.442 612.766 610.882 611.503 609.597C617.896 604.356 624.937 598.487 630.549 592.486Z"/><path fill="#326AAB" d="M595.209 621.021C596.493 622.414 598.561 625.232 599.804 626.814C592.342 631.834 585.08 635.815 577.156 640.031C576.117 639.404 573.607 635.339 572.794 634.12C578.87 631.533 589.679 624.741 595.209 621.021Z"/><path fill="#326AAB" d="M553.573 643.472L554.357 643.396C555.676 644.451 556.805 647.623 557.557 649.33C549.594 652.614 541.706 655.458 533.678 658.544L532.834 658.541C531.723 657.293 530.613 653.878 529.953 652.159C538.038 649.699 545.745 646.629 553.573 643.472Z"/><path fill="#5A91C7" d="M509.065 658.59L509.962 658.842C510.777 660.791 511.171 662.987 511.644 665.063C503.528 667.138 495.344 668.939 487.107 670.462C486.511 670.53 486.188 670.418 485.571 670.325C484.663 668.813 484.461 666.116 484.183 664.278C492.421 662.707 500.932 660.61 509.065 658.59Z"/><path fill="#5A91C7" d="M458.985 667.702C460.36 667.454 460.619 667.498 462.036 667.542C463.571 669.18 463.331 671.419 463.565 673.955C456.428 674.714 449.279 675.358 442.121 675.885C440.422 676.089 438.559 676.564 437.148 675.78C436.153 674.207 436.426 671.569 436.412 669.587C443.696 669.329 451.669 668.415 458.985 667.702Z"/><path fill="#326AAB" d="M657.187 559.593C658.324 560.119 662.346 562.573 663.608 563.306C658.83 570.319 654.688 576.036 649.366 582.607C648.007 582.257 644.524 579.728 643.129 578.801C647.126 573.795 654.507 565.076 657.187 559.593Z"/><path fill="#5A91C7" d="M414.473 671.43L414.593 677.692C409.745 678.071 404.105 678.217 399.192 678.45L388.458 678.631L388.166 672.125C393.182 672.063 398.197 671.948 403.211 671.781C406.902 671.589 410.765 671.537 414.473 671.43Z"/><path fill="#5A91C7" d="M366.489 672.853L366.49 679.113L341.442 679.125L341.337 672.987C349.721 672.986 358.105 672.941 366.489 672.853Z"/><path fill="#326AAB" d="M672.783 524.452C674.503 524.955 677.129 525.453 678.945 525.859C676.804 534.385 674.948 538.842 671.428 546.728C669.999 545.968 667.121 544.839 665.534 544.156C668.42 537.273 670.775 531.688 672.783 524.452Z"/><path fill="#5A91C7" d="M297.519 672.61C303.09 672.934 315.91 672.386 320.516 673.236C321.285 674.952 321.02 677.014 320.976 678.947L297.516 678.705L297.519 672.61Z"/><path fill="#326AAB" d="M656.128 414.976C658.862 416.638 666.599 430.246 668.695 433.996L663.619 436L662.767 436.118C658.97 429.917 655.655 424.269 651.436 418.327L656.128 414.976Z"/><path fill="#326AAB" d="M628.187 386.427C634.731 391.763 639.406 395.837 645.424 401.649L640.912 405.52C635.256 400.449 630.45 395.655 624.466 390.862L628.187 386.427Z"/><path fill="#326AAB" d="M511.914 342.324C518.78 342.857 528.451 344.356 535.166 345.724L534.254 351.125L511.483 347.752L511.914 342.324Z"/><path fill="#326AAB" d="M554.232 349.862C562.399 352.134 568.843 353.954 576.665 357.199L574.708 361.794C573.033 361.915 556.326 356.363 552.76 355.329C553.333 353.564 553.77 351.669 554.232 349.862Z"/><path fill="#326AAB" d="M674.901 449.662C676.848 451.158 680.229 467.148 680.944 470.288L675.116 471.02C674.855 470.737 670.068 453.326 669.25 451.051L674.901 449.662Z"/><path fill="#326AAB" d="M676.53 487.423L682.87 487.376C683.052 494.507 682.642 501.385 682.298 508.507L675.905 508.27C676.682 501.349 676.579 494.375 676.53 487.423Z"/><path fill="#326AAB" d="M425.493 338.09L448.84 338.539L448.506 344.124C443.522 344.042 430.099 344.081 425.95 343.332C425.219 341.848 425.46 339.824 425.493 338.09Z"/><path fill="#326AAB" d="M593.807 364.662C601.282 368.34 606.791 371.49 613.815 376L610.33 380.018C607.517 379.3 594.976 371.611 590.921 369.628L593.807 364.662Z"/><path fill="#326AAB" d="M383.791 337.729L405.763 337.919C405.788 340.24 405.779 341.234 405.435 343.517C400.558 343.505 387.494 343.834 383.568 343.177C382.784 341.791 383.014 340.149 383.019 338.482L383.791 337.729Z"/><path fill="#326AAB" d="M468.681 339.24C473.539 339.425 487.214 339.731 491.517 340.718C492.206 342.172 491.885 344.247 491.793 345.946C485.531 345.242 474.727 345.505 469.098 344.358C468.357 343.133 468.641 340.812 468.681 339.24Z"/><path fill="#5A91C7" d="M340.83 338.015C345.783 337.992 358.947 337.615 363.033 338.238C363.7 339.664 363.503 341.837 363.495 343.505C358.817 343.498 345.171 343.875 341.467 343.255C340.607 341.839 340.833 339.767 340.83 338.015Z"/><path fill="#5A91C7" d="M312.361 338.246C315.235 338.261 317.537 337.707 320.317 338.369C323.472 340.846 321.078 343.852 318.13 343.89C315.36 343.926 312.094 343.775 309.317 343.722C305.548 343.696 300.524 345.476 299.435 341.213C300.623 336.626 308.196 338.203 312.361 338.246Z"/><path fill="#5A91C7" d="M267.417 338.525C272.004 338.595 277.454 337.44 280.815 339.167C281.945 341.121 281.517 341.184 281.487 343.85C276.839 343.846 271.598 345.089 268.194 343.323C267.021 341.371 267.451 341.207 267.417 338.525Z"/><path fill="#5A91C7" d="M267.387 672.477L279.509 672.52L279.421 678.411L267.488 678.406L267.387 672.477Z"/><defs><linearGradient id="gradient_2" gradientUnits="userSpaceOnUse" x1="727.32263" y1="524.92938" x2="245.78204" y2="509.70779"><stop offset="0" stop-color="#113E92"/><stop offset="1" stop-color="#2B5EBB"/></linearGradient></defs><path fill="url(#gradient_2)" d="M251.468 311.407C304.809 311.609 359.305 310.086 412.772 309.518C507.7 308.51 606.971 307.511 678.814 379.895C750.485 452.105 743.499 557.795 671.764 626.121C645.676 650.97 616.384 669.516 582.968 683.104C476.046 728.346 362.986 716.409 250.467 718.438L250.454 701.846C299.052 702.449 347.656 702.282 396.249 701.346C491.209 698.747 591.1 681.481 660.059 609.824C723.519 543.882 724.909 445.515 656.533 382.018C584.856 315.454 488.529 319.406 397.061 318.289C368.866 318.016 340.669 318.041 312.475 318.363C292.494 318.457 271.365 318.201 251.458 318.872L251.468 311.407Z"/><defs><linearGradient id="gradient_3" gradientUnits="userSpaceOnUse" x1="805.98206" y1="519.22223" x2="249.3196" y2="513.42609"><stop offset="0" stop-color="#0E3B8B"/><stop offset="1" stop-color="#2B5DB8"/></linearGradient></defs><path fill="url(#gradient_3)" d="M251.418 255.085C268.955 255.54 287.982 255.093 305.682 255.049L427.246 254.535C455.052 254.517 484.16 253.748 511.734 255.721C597.838 261.88 683.225 287.546 743.811 352.09C784.496 395.066 808.708 450.711 807.419 510.292C806.045 573.792 773.695 632.293 727.317 674.465C640.437 753.467 512.155 779.168 398.221 775.915L398.408 775.364C400.931 775.241 401.359 775.262 403.732 774.554C428.766 772.833 452.845 771.424 477.764 767.978C569.031 755.358 657.886 725.025 724.493 659.033C814.213 570.142 815.905 436.553 723.047 349.431C633.52 265.434 514.377 263.132 398.963 265.38C350.032 266.169 300.406 265.016 251.443 266.129C251.415 262.448 251.407 258.767 251.418 255.085Z"/><defs><linearGradient id="gradient_4" gradientUnits="userSpaceOnUse" x1="532.19263" y1="819.50079" x2="544.08112" y2="542.42511"><stop offset="0" stop-color="#113D94"/><stop offset="1" stop-color="#2B5EA7"/></linearGradient></defs><path fill="url(#gradient_4)" d="M828.548 534.868C828.734 549.858 826.247 561.014 823.098 575.584C812.272 625.669 788.415 663.232 752.87 699.783C747.243 705.487 741.386 710.958 735.314 716.185C731.432 719.468 725.909 723.727 722.384 727.022C714.316 732.358 706.895 738.53 698.593 743.493C685.61 751.255 672.399 759.618 658.752 766.135C614.577 787.234 566.188 798.818 517.781 804.827C491.868 807.822 458.635 808.455 432.489 808.806C392.311 809.084 352.132 809.132 311.954 808.95C292.129 808.89 271.322 808.467 251.567 809.01C251.499 801.154 251.428 795.406 250.498 787.563L379.79 787.784C402.077 787.765 425.098 787.887 447.361 787.301C533.869 785.193 620.981 769.577 695.429 723.424C759.366 683.787 810.827 624.568 825.999 549.508C826.945 544.832 827.338 539.958 828.435 535.33L828.548 534.868Z"/><path fill="#5A91C7" d="M378.794 775.074C387.139 775.042 395.371 774.466 403.732 774.554C401.359 775.262 400.931 775.241 398.408 775.364L398.221 775.915C391.919 776.415 379.714 775.974 372.991 775.918C375.402 775.767 376.427 775.589 378.794 775.074Z"/><path fill="#BFCADF" d="M372.991 775.918C368.605 776.256 353.749 776.154 349.639 775.487L349.828 775.253C358.646 774.894 370.003 774.843 378.794 775.074C376.427 775.589 375.402 775.767 372.991 775.918Z"/><path fill="#326AAB" d="M750.838 547.3L758.908 549.044C756.443 557.357 753.859 564.863 750.972 573.054C748.248 572.165 745.538 571.236 742.841 570.269C745.963 562.948 748.45 554.89 750.838 547.3Z"/><path fill="#326AAB" d="M756.479 506.481L764.948 506.535C764.429 515.183 763.847 522.885 762.626 531.454C759.767 531.019 756.883 530.795 754.002 530.527C755.681 523.322 756.075 513.957 756.479 506.481Z"/><path fill="#326AAB" d="M759.702 464.721L760.22 464.683C761.667 466.145 764.056 486.004 764.467 489.372L757.375 489.56L756.55 489.548C755.998 488.663 752.948 468.818 752.292 465.626L759.702 464.721Z"/><path fill="#326AAB" d="M679.861 653.551C681.634 655.249 683.508 657.359 685.206 659.174C677.778 665.326 671.911 669.547 663.907 674.962C663.173 674.484 659.649 670.349 658.789 669.374C666.283 664.316 672.777 659.171 679.861 653.551Z"/><path fill="#326AAB" d="M735.149 586.193C737.254 586.973 740.632 588.584 742.779 589.532C738.815 596.754 734.033 604.133 729.646 611.159L722.206 607.406C726.944 600.291 731.342 593.879 735.149 586.193Z"/><path fill="#326AAB" d="M710.962 622.026C713.292 623.379 715.6 624.769 717.884 626.198C712.221 632.919 706.068 639.255 699.92 645.527C698.617 644.757 695.257 641.642 693.954 640.491C700.076 634.248 705.355 628.704 710.962 622.026Z"/><path fill="#326AAB" d="M722.856 385.653C725.884 388.572 735.337 403.066 738.168 407.348L731.433 410.836C728.059 407.602 720.475 394.87 716.453 390L722.856 385.653Z"/><path fill="#326AAB" d="M642.524 680.55C643.821 681.747 645.995 684.994 647.117 686.562C640.096 690.929 631.602 695.357 624.23 699.058L623.332 699.283C621.814 697.74 620.664 695.224 619.608 693.255C626.48 690.153 635.795 684.46 642.524 680.55Z"/><path fill="#326AAB" d="M690.441 352.867C697.253 358.758 703.871 364.872 710.283 371.197L704.859 375.646L704.496 375.725C702.319 374.657 688.947 361.128 685.359 358.25C687.049 356.581 688.804 354.617 690.441 352.867Z"/><path fill="#326AAB" d="M745.947 423.582C747.914 425.807 754.539 443.363 755.824 446.963L748.356 448.886C748.461 448.953 739.952 428.815 738.814 426.474C741.251 425.598 743.565 424.59 745.947 423.582Z"/><path fill="#326AAB" d="M601.301 701.99C602.662 703.955 603.39 706.325 604.243 708.588C597.001 712 586.819 715.606 579.281 718.445C578.443 716.268 577.498 714.12 576.581 711.974C584.242 709.174 593.893 705.29 601.301 701.99Z"/><path fill="#326AAB" d="M557.069 718.567L557.47 718.662C558.473 719.673 559.248 723.431 559.682 725.031C551.414 727.469 543.096 729.733 534.734 731.823L534.385 731.821C533.121 730.768 532.627 727.48 532.089 725.524C540.445 723.309 548.772 720.99 557.069 718.567Z"/><path fill="#326AAB" d="M652.356 326.808C654.022 328.015 658.398 330.42 660.508 331.717C665.476 334.769 669.8 337.739 674.561 341.098C672.905 342.746 671.82 344.303 670.424 346.161C670.041 346.176 650.476 333.465 648.351 332.094C649.69 330.594 651.146 328.469 652.356 326.808Z"/><path fill="#5A91C7" d="M511.985 730.23C512.632 731.021 513.304 735.393 513.569 736.729C505.156 738.543 496.685 740.078 488.17 741.331C487.147 740.303 486.778 736.477 486.437 734.675C492.681 734.284 505.372 731.495 511.985 730.23Z"/><path fill="#326AAB" d="M610.078 306.838C616.631 310.25 626.647 313.368 634.813 317.578L631.43 323.111C623.255 319.84 615.853 316.321 607.342 313.064C608.574 310.84 609.175 309.181 610.078 306.838Z"/><path fill="#5A91C7" d="M463.801 738.216C464.992 737.962 464.927 737.9 466.043 738.346C466.91 739.937 466.683 742.467 466.7 744.379C459.149 745.573 450.777 746.325 443.119 747.156L441.277 746.953C440.063 745.337 440.192 742.923 439.993 740.716C447.352 740.295 456.429 739.054 463.801 738.216Z"/><path fill="#326AAB" d="M565.312 294.32C573.567 296.137 583.233 298.176 591.194 300.837L589.082 307.053C582.377 304.553 570.669 302.018 563.582 300.516C564.272 298.561 564.788 296.342 565.312 294.32Z"/><path fill="#5A91C7" d="M412.521 742.791C414.78 742.587 417.357 742.517 419.648 742.399L420.049 748.84C413.434 749.092 406.742 749.481 400.124 749.816L393.982 750.031L393.573 743.548C399.897 743.555 406.218 743.302 412.521 742.791Z"/><path fill="#326AAB" d="M519.589 287.274C528.356 288.032 537.081 289.213 545.733 290.813L544.66 296.674C538.554 296.363 525.454 294.2 519.038 293.34C519.359 291.486 519.454 289.182 519.589 287.274Z"/><path fill="#326AAB" d="M473.808 284.484C481.723 284.492 491.307 285.225 499.391 285.6L499.165 291.814C490.717 291.467 482.272 291.071 473.829 290.624L473.808 284.484Z"/><path fill="#5A91C7" d="M360.361 744.762L373.002 744.446L373.04 750.697L360.25 750.912L347.809 751.014L347.684 744.86L360.361 744.762Z"/><path fill="#326AAB" d="M428.396 283.876C436.526 283.82 444.655 283.834 452.784 283.919L452.851 289.997C444.728 290.008 436.605 289.931 428.483 289.766L428.396 283.876Z"/><path fill="#5A91C7" d="M302.107 744.59C310.405 744.822 318.706 744.879 327.007 744.761L327.02 750.865L302.233 750.503L302.107 744.59Z"/><path fill="#5A91C7" d="M388.172 284.267C394.649 284.107 401.129 284.025 407.609 284.019C407.654 285.81 407.943 287.952 407.11 289.425C405.725 290.342 403.648 290.022 401.875 289.969C397.528 289.908 386.683 291.403 383.923 288.357C383.581 286.706 383.7 286.64 384.061 285.042C385.472 283.902 385.84 284.323 388.172 284.267Z"/><path fill="#5A91C7" d="M350.708 284.774C355.018 284.576 359.606 284.56 363.941 284.469L363.942 290.379L354.125 290.422L340.72 290.639L340.697 285.033L350.708 284.774Z"/><path fill="#5A91C7" d="M305.164 285.763L321.265 285.5C321.373 287.307 321.697 288.9 320.947 290.481C319.459 291.609 316.817 291.305 314.805 291.316C311.268 291.407 303.097 291.769 299.923 291.217C299.3 289.826 299.462 287.502 299.452 285.871L305.164 285.763Z"/><path fill="#5A91C7" d="M267.423 744.163C272.147 744.376 277.182 744.141 281.85 744.73C282.383 746.37 282.133 748.345 282.093 750.166C277.45 750.03 271.419 751.137 268.148 749.384C266.991 747.398 267.405 746.705 267.423 744.163Z"/><path fill="#5A91C7" d="M267.502 286.502C272.298 286.578 277.003 285.452 280.615 287.037C281.838 288.837 281.383 289.04 281.404 291.705C276.874 291.827 271.548 293.146 268.205 291.338C267.08 289.357 267.505 289.164 267.502 286.502Z"/></svg>