<?xml version="1.0" encoding="utf-8" ?><svg xmlns="http://www.w3.org/2000/svg" xmlns:xlink="http://www.w3.org/1999/xlink" width="632" height="632" viewBox="0 0 632 632"><path transform="scale(0.617188 0.617188)" d="M509.578 244.265C652.556 239.065 772.632 350.852 777.656 493.837C782.679 636.822 670.743 756.76 527.752 761.607C385.011 766.445 265.327 654.748 260.313 512.012C255.299 369.277 366.848 249.455 509.578 244.265ZM529.256 748.213C664.509 742.583 769.604 628.4 764.025 493.145C758.445 357.89 644.302 252.752 509.045 258.281C373.716 263.814 268.511 378.03 274.093 513.356C279.676 648.683 393.931 753.845 529.256 748.213Z"/><path fill="#9F6361" transform="scale(0.617188 0.617188)" d="M507.984 305.203C618.664 298.269 713.986 382.42 720.83 493.105C727.675 603.789 643.447 699.044 532.757 705.799C422.193 712.546 327.071 628.436 320.234 517.877C313.397 407.319 397.431 312.129 507.984 305.203ZM520.23 449.993C532.025 450.681 546.407 453.232 556.731 458.858C569.205 465.656 572.443 465.441 586.202 466.928C597.241 468.102 608.287 469.216 619.338 470.271C631.947 471.575 661.342 476.075 673.299 475.346C685.925 467.702 684.085 458.497 679.485 446.498C675.82 436.94 671.263 428.092 665.944 419.36C641.836 380.35 603.318 352.419 558.748 341.626C546.772 338.755 528.779 336.513 516.231 337.217C468.917 338.964 427.322 357.217 394.98 391.988C379.555 408.433 367.826 427.986 360.58 449.337C355.838 463.509 352.807 481.965 375.115 479.516C388.831 478.01 402.464 475.107 416.185 473.545C431.415 471.358 446.901 469.677 461.956 466.637C469.153 465.184 471.325 462.611 477.285 460.114C491.326 454.23 504.93 449.924 520.23 449.993ZM492.87 669.414C496.959 667.941 498.277 666.875 500.183 662.853C500.397 662.398 500.606 661.94 500.809 661.481C497.155 639.449 487.604 615.841 481.154 594.483C478.267 584.92 475.42 574.985 471.546 565.818C470.145 562.658 467.373 560.384 464.655 558.387C450.519 549.649 445.309 547.407 437.128 532.454C426.502 530.458 414.833 528.725 404.138 526.882C394.356 525.196 373.212 519.833 364.004 520.538C352.726 529.946 355.692 541.221 359.399 553.487C366.791 577.137 379.165 598.928 395.689 617.392C413.393 637.164 435.922 652.554 460.523 662.412C469.756 666.112 482.761 671.004 492.87 669.414ZM647.649 480.099C649.821 480.174 658.92 480.978 660.09 480.004C656.315 478.079 639.819 477.005 634.598 476.452L592.769 472.004C584.934 471.196 576.776 470.505 568.992 469.494C557.222 467.964 549.82 458.977 538.183 455.517C523.6 451.179 509.644 453.653 496.409 460.589C485.535 467.415 476.533 477.184 473.041 489.791C459.818 534.545 509.395 574.213 550.04 551.631C551.656 550.733 553.243 549.717 554.807 548.727C558.66 545.537 568.042 535.036 570.829 533.889C579.076 530.497 594.54 528.339 603.457 526.379C622.668 522.155 643.726 518.783 662.465 513.037C637.691 511.955 603.156 518.952 577.41 520.067C578.163 500.378 578.163 494.495 571.797 475.896C580.49 476.094 591.085 477.145 599.96 477.638L647.649 480.099ZM514.717 667.515C527.921 671.879 536.798 669.97 549.757 669.987C545.924 656.68 549.887 627.609 551.207 612.561C552.36 598.22 553.618 583.888 554.98 569.565C555.256 566.669 556.777 553.208 556.121 551.375C545.716 557.258 537.323 560.553 525.252 560.392C487.405 559.891 461.088 526.27 470.67 489.572C474.356 475.125 482.462 467.251 493.823 458.562C484.762 458.846 475.48 468.227 466.401 470.038C445.735 474.159 424.434 476.169 403.585 479.59C395.499 480.916 390.276 481.26 382.227 483.215L381.845 483.789L381.627 483.399L381.314 483.77C387.531 484.142 407.464 481.932 415.019 481.283C430.731 479.933 448.924 479.37 464.302 477.334C461.611 491.769 459.048 505.891 462.777 520.612C437.6 518.992 405.678 515.488 380.982 516.675C391.57 521.318 421.748 526.007 434.585 527.418C479.412 532.346 477.854 536.333 487.489 577.734C492.11 597.18 496.501 616.679 500.662 636.229C502.326 643.978 505.273 660.077 508.347 666.602C507.533 655.678 503.704 637.323 501.35 626.271C498.235 612.199 495.263 598.096 492.432 583.964C491.321 578.646 485.798 559.009 488.813 554.78C491.932 556.852 495.902 579.695 497.023 585L507.287 634.384C508.884 642.29 511.956 660.936 514.717 667.515ZM563.616 330.991C592.769 338.347 617.769 351.912 640.548 371.708C643.511 374.283 651.488 383.357 654.828 382.375C655.803 376.451 641.49 366.585 637.113 362.981C603.957 335.683 553.472 316.568 510.044 320.79C479.079 323.182 449.557 330.935 422.809 347.073C418.28 349.806 406.742 356.743 405.303 361.385L405.789 361.963C410.455 361.656 419.017 355.163 423.415 352.493C462.778 328.59 509.686 320.238 554.879 329.179C557.31 329.659 561.365 330.203 563.616 330.991ZM435.892 677.184C476.429 699.686 531.458 702.877 575.626 689.971C592.732 684.973 609.905 678.063 625.014 668.547C626.611 667.541 631.161 664.705 632.011 663.133L631.307 663.021C624.287 666.219 617.457 669.946 610.447 673.036C566.057 692.599 515.93 698.232 468.682 686.427C456.439 683.368 444.48 678.785 432.616 674.481C433.038 675.462 434.84 676.449 435.892 677.184ZM645.163 495.249C645.199 501.488 649.979 506.675 656.195 507.217C662.411 507.759 668.017 503.479 669.133 497.34C670.248 491.201 666.505 485.223 660.496 483.544C656.886 482.536 653.012 483.26 650.01 485.505C646.94 487.8 645.142 491.416 645.163 495.249ZM569.117 666.848C577.582 665.69 585.481 662.285 593.112 658.562C617.423 646.761 638.605 629.388 654.936 607.856C669.376 588.765 680.853 563.915 685.805 540.507C688.228 529.051 685.199 515.627 670.823 516.681C648.855 519.935 626.558 526.842 604.838 531.276C586.963 534.925 571.471 540.037 567.257 559.672C561.571 584.108 559.43 609.122 555.605 633.9C554.448 641.388 552.674 649.218 553.173 656.743C554.006 665.065 561.728 668.034 569.117 666.848ZM519.423 308.746C477.475 309.937 439.744 321.249 405.304 345.705C401.945 348.09 398.832 350.029 396.37 353.412C396.651 354.87 396.389 354.168 397.642 355.385C401.67 356.567 406.904 350.896 410.135 348.609C415.494 344.882 421.059 341.46 426.803 338.36C466.784 316.878 512.977 309.922 557.511 318.676C591.558 324.695 626.747 345.17 652.205 367.964C654.503 370.022 659.281 374.991 662.189 375.134L662.917 374.541C662.886 371.792 656.259 365.711 653.935 363.434C617.899 328.431 569.66 308.819 519.423 308.746ZM591.138 672.961C607.627 670.126 636.526 646.766 648.789 634.374C655.433 627.625 661.527 620.355 667.011 612.634C695.703 572.266 707.213 522.166 699.018 473.323C694.989 449.618 686.147 426.99 673.037 406.833C671.091 403.832 666.597 397.127 663.931 394.991L658.672 398.617C664.881 407.765 671.266 416.768 676.147 426.705C693.217 461.461 698.368 500.709 691.167 538.62C682.406 583.57 656.207 623.224 618.297 648.916C612.64 652.769 586.894 665.236 589.734 672.035L591.138 672.961ZM402.427 370.4C395.326 375.568 388.615 382.9 382.833 389.566C361.034 414.697 346.828 443.295 341.579 476.292C334.044 524.061 346.047 572.852 374.884 611.673C392.418 635.746 413.39 653.443 439.703 667.365C448.722 672.136 456.845 676.119 466.958 678.263C469.034 677.468 468.42 678.149 469.19 676.472C468.133 669.997 451.126 663.451 445.179 660.62C350.253 615.428 316.148 493.177 376.99 406.38C381.881 399.403 387.287 392.801 393.163 386.63C396.591 383.061 400.272 379.654 403.633 376.045C405.101 374.468 405.134 374.539 405.027 373.018C404.049 371.845 403.691 371.313 402.427 370.4ZM655.964 393.192C661.445 386.085 663.83 384.833 671.68 380.392L665.771 380.517C662.774 381.892 649.916 387.48 653.029 392.734C653.648 393.778 654.259 394.009 655.328 394.243C655.559 393.905 655.872 393.544 655.964 393.192ZM383.788 510.925C388.026 510.289 391.585 507.403 393.081 503.388C394.578 499.372 393.778 494.861 390.99 491.606C388.203 488.351 383.869 486.866 379.671 487.728C373.416 489.011 369.321 495.044 370.437 501.331C371.553 507.618 377.473 511.872 383.788 510.925Z"/><path fill="#9F6361" transform="scale(0.617188 0.617188)" d="M476.332 493.043C482.775 468.442 506.791 452.709 531.918 456.629C557.045 460.55 575.127 482.851 573.769 508.246C572.41 533.64 552.053 553.886 526.651 555.104C501.25 556.322 479.048 538.117 475.266 512.969C474.267 506.323 474.629 499.544 476.332 493.043ZM477.665 500.619C477.15 511.432 478.741 520.504 484.48 529.922C490.876 540.579 501.284 548.222 513.367 551.135C525.739 554.02 538.75 551.858 549.524 545.126C560.008 538.54 567.395 528.006 570.016 515.906C572.82 503.549 570.521 490.583 563.641 479.943C556.901 469.666 546.38 462.462 534.361 459.894C508.438 454.309 484.341 470.219 478.619 496.012L477.665 500.619Z"/><defs><linearGradient id="gradient_0" gradientUnits="userSpaceOnUse" x1="518.42993" y1="507.23239" x2="538.04895" y2="516.39514"><stop offset="0" stop-color="#9F6361"/><stop offset="1" stop-color="#8c5552"/></linearGradient></defs><path fill="url(#gradient_0)" transform="scale(0.617188 0.617188)" d="M510.462 522.536C504.423 516.716 503.178 507.508 507.452 500.293C511.727 493.078 520.401 489.748 528.406 492.248C535.539 494.476 540.568 500.862 541.061 508.318C541.555 515.775 537.412 522.767 530.635 525.916C523.858 529.065 515.842 527.722 510.462 522.536ZM526.961 494.541C525.215 493.511 521.096 493.694 519.269 494.417C507.205 499.197 505.421 510.428 511.646 520.423C517.478 514.925 523.816 501.841 526.961 494.541ZM523.857 525.644C534.303 522.777 539.148 515.514 536.472 504.21C536.077 502.542 534.202 498.634 532.8 497.726C529.396 502.701 514.191 520.753 521.189 525.434L523.857 525.644Z"/><path fill="#9F6361" transform="scale(0.617188 0.617188)" d="M510.462 522.536C504.423 516.716 503.178 507.508 507.452 500.293C511.727 493.078 520.401 489.748 528.406 492.248C527.641 492.976 527.607 492.992 526.939 493.834L526.961 494.541C525.215 493.511 521.096 493.694 519.269 494.417C507.205 499.197 505.421 510.428 511.646 520.423C511.249 521.049 510.636 521.848 510.462 522.536Z"/><path fill="#8c5552" transform="scale(0.617188 0.617188)" d="M476.332 493.043C477.059 494.355 477.36 495.137 478.619 496.012L477.665 500.619C473.727 503.626 476.795 507.746 475.266 512.969C474.267 506.323 474.629 499.544 476.332 493.043Z"/><path fill="#9F6361" transform="scale(0.617188 0.617188)" d="M516.429 579.484C522.065 579.525 527.7 579.625 533.333 579.782C532.744 585.363 532.752 596.174 532.642 602.059C532.313 617.994 532.255 633.933 532.468 649.87C531.276 650.751 524.124 650.448 522.158 650.442C521.27 627.39 517.106 602.246 516.429 579.484ZM526.06 604.443C525.64 601.025 523.741 587.3 525.66 585.317C526.868 586.494 526.662 586.935 527.223 588.826C527.569 590.278 527.657 591.288 528.385 592.545C528.683 589.643 528.396 582.927 525.001 581.959C521.293 584.187 524.179 603.015 524.411 607.409C524.938 617.413 524.944 628.121 525.985 638.031C526.271 641.02 526.844 643.974 527.694 646.853C527.629 638.46 527.397 631.216 526.794 622.854C526.459 618.207 525.716 608.844 526.06 604.443Z"/><path fill="#001C0F" transform="scale(0.617188 0.617188)" d="M526.06 604.443C525.64 601.025 523.741 587.3 525.66 585.317C526.868 586.494 526.662 586.935 527.223 588.826C525.967 593.771 528.592 600.046 526.06 604.443Z"/><path fill="#D0FAF0" fill-opacity="0.019607844" transform="scale(0.617188 0.617188)" d="M650.01 485.505C653.012 483.26 656.886 482.536 660.496 483.544C666.505 485.223 670.248 491.201 669.133 497.34C668.017 503.479 662.411 507.759 656.195 507.217C649.979 506.675 645.199 501.488 645.163 495.249C645.142 491.416 646.94 487.8 650.01 485.505ZM660.437 489.387C651.126 490.395 650.872 498.561 660.076 500.223C663.404 495.56 663.48 494.358 660.437 489.387Z"/><path fill="#9F6361" transform="scale(0.617188 0.617188)" d="M652.937 505.18C649.097 503.507 646.596 499.737 646.546 495.549C646.497 491.36 648.908 487.532 652.708 485.769C656.507 484.005 660.987 484.634 664.154 487.375C666.66 489.543 668.013 492.755 667.814 496.063C667.614 499.37 665.886 502.396 663.139 504.248C660.121 506.283 656.273 506.634 652.937 505.18ZM660.437 489.387C651.126 490.395 650.872 498.561 660.076 500.223C663.404 495.56 663.48 494.358 660.437 489.387Z"/><path fill="#8c5552" transform="scale(0.617188 0.617188)" d="M664.154 487.375C666.66 489.543 668.013 492.755 667.814 496.063C667.614 499.37 665.886 502.396 663.139 504.248C660.121 506.283 656.273 506.634 652.937 505.18C654.567 503.858 654.458 503.883 656.491 503.431C658.432 502.349 658.971 502.063 660.076 500.223C663.404 495.56 663.48 494.358 660.437 489.387C662.263 488.855 662.952 488.845 664.154 487.375Z"/><path fill="#9F6361" transform="scale(0.617188 0.617188)" d="M652.937 505.18C654.567 503.858 654.458 503.883 656.491 503.431C658.404 504.863 660.771 504.463 663.139 504.248C660.121 506.283 656.273 506.634 652.937 505.18Z"/><path fill="#D0FAF0" fill-opacity="0.019607844" transform="scale(0.617188 0.617188)" d="M379.671 487.728C383.869 486.866 388.203 488.351 390.99 491.606C393.778 494.861 394.578 499.372 393.081 503.388C391.585 507.403 388.026 510.289 383.788 510.925C377.473 511.872 371.553 507.618 370.437 501.331C369.321 495.044 373.416 489.011 379.671 487.728ZM383.563 505.373C387.392 501.55 387.888 495.944 381.49 495.269C376.728 499.843 377.324 503.087 383.563 505.373Z"/><path fill="#9F6361" transform="scale(0.617188 0.617188)" d="M379.29 489.246C384.797 487.811 390.433 491.076 391.929 496.567C393.424 502.058 390.222 507.73 384.749 509.286C381.153 510.309 377.285 509.32 374.622 506.698C371.958 504.075 370.909 500.224 371.875 496.613C372.841 493.002 375.673 490.188 379.29 489.246ZM383.563 505.373C387.392 501.55 387.888 495.944 381.49 495.269C376.728 499.843 377.324 503.087 383.563 505.373Z"/><path fill="#9F6361" transform="scale(0.617188 0.617188)" d="M470.67 489.572C472.165 490.011 471.591 490.025 473.041 489.791C459.818 534.545 509.395 574.213 550.04 551.631C551.656 550.733 553.243 549.717 554.807 548.727L556.121 551.375C545.716 557.258 537.323 560.553 525.252 560.392C487.405 559.891 461.088 526.27 470.67 489.572Z"/><path fill="#9F6361" transform="scale(0.617188 0.617188)" d="M470.67 489.572C474.356 475.125 482.462 467.251 493.823 458.562L496.409 460.589C485.535 467.415 476.533 477.184 473.041 489.791C471.591 490.025 472.165 490.011 470.67 489.572Z"/><path fill="#8c5552" transform="scale(0.617188 0.617188)" d="M660.09 480.004L660.496 483.544C656.886 482.536 653.012 483.26 650.01 485.505C649.233 483.698 648.446 481.897 647.649 480.099C649.821 480.174 658.92 480.978 660.09 480.004Z"/><path fill="#D0FAF0" transform="scale(0.617188 0.617188)" d="M388.829 359.347L389.634 360.143C388.377 363.23 381.689 368.405 378.845 370.814L378.469 370.774L378.488 370.043C381.426 366.023 385.057 362.576 388.829 359.347Z"/><path fill="#9F6361" transform="scale(0.617188 0.617188)" d="M162.26 882.594L208.875 882.595C249.145 882.995 250.276 898.702 248.931 934.04C248.301 950.608 252.956 968.031 239.492 980.633C233.975 984.656 221.535 988.108 215.273 987.466C207.111 986.63 163.265 989.061 160.009 986.008C159.413 983.72 159.069 981.374 158.982 979.011C157.952 956.328 159.322 909.597 159.246 885.261C159.242 884.168 161.193 883.152 162.26 882.594ZM192.011 959.999C197.465 960.042 210.137 960.766 214.656 958.443C215.046 957.68 215.809 956.003 215.821 955.247C215.962 946.978 217.052 919.123 215.061 912.864C211.768 908.953 197.1 910.343 191.91 910.459C191.925 926.599 191.608 943.963 192.011 959.999Z"/><path fill="#F9FDFC" transform="scale(0.617188 0.617188)" d="M176.072 895.752C186.664 895.692 220.551 893.209 228.249 900.727C230.699 903.119 232.039 906.92 232.675 910.205C234.401 919.123 233.595 942.08 233.365 952.215C233.205 959.274 233.084 964.913 227.735 970.049C217.924 976.695 187.782 974.546 174.59 974.522C174.531 966.736 174.037 898.508 174.88 896.132L176.072 895.752ZM192.011 959.999C197.465 960.042 210.137 960.766 214.656 958.443C215.046 957.68 215.809 956.003 215.821 955.247C215.962 946.978 217.052 919.123 215.061 912.864C211.768 908.953 197.1 910.343 191.91 910.459C191.925 926.599 191.608 943.963 192.011 959.999Z"/><path fill="#9F6361" transform="scale(0.617188 0.617188)" d="M176.032 897.022C188.118 897.331 217.791 894.431 226.547 901.698C230.349 904.854 231.282 909.101 231.667 913.803C232.226 920.632 231.776 927.678 231.757 934.539C231.733 943.067 232.927 952.975 231.065 961.286C230.404 964.237 229.231 966.169 227.306 968.466C217.111 975.363 188.766 973.032 176.053 972.993C176.303 947.88 176.196 922.15 176.032 897.022ZM192.011 959.999C197.465 960.042 210.137 960.766 214.656 958.443C215.046 957.68 215.809 956.003 215.821 955.247C215.962 946.978 217.052 919.123 215.061 912.864C211.768 908.953 197.1 910.343 191.91 910.459C191.925 926.599 191.608 943.963 192.011 959.999Z"/><path fill="#9F6361" transform="scale(0.617188 0.617188)" d="M271.53 882.724C288.614 882.455 306.106 882.731 322.955 882.723C344.335 882.714 351.214 894.295 349.889 914.287C349.365 922.193 348.563 924.986 342.79 930.394C366.265 936.977 357.793 957.601 359.577 976.369C359.864 979.386 359.426 984.065 357.448 986.446C353.943 988.05 332.636 987.687 328.39 986.945C323.412 981.978 329.237 960.576 324.711 954.871C321.289 953.122 305.336 953.797 300.482 953.853C300.519 960.296 301.575 979.11 300.01 984.305C299.612 985.626 298.892 986.486 297.571 986.973C294.965 987.935 272.566 987.849 269.888 986.741C269.012 986.379 268.771 986.33 268.44 985.402C266.534 980.074 267.606 922.367 267.619 912.409C267.629 904.446 267.071 896.168 267.494 888.257C267.558 887.069 267.668 885.799 268.269 884.744C269.049 883.374 270.137 883.128 271.53 882.724ZM300.449 927.971C305.158 927.984 312.479 928.619 316.3 926.196C317.635 923.756 318.751 918.248 318.517 915.463C317.792 906.825 306.297 908.356 300.353 908.469L300.449 927.971Z"/><path fill="#F9FDFC" transform="scale(0.617188 0.617188)" d="M284.155 895.724C296.112 895.714 309.158 894.959 320.743 896.088C332.45 898.279 333.836 909.962 333.276 919.572C332.735 928.859 334.028 933.793 325.57 939.168C333.926 939.61 341.485 941.675 343.21 950.973C343.781 954.05 344.307 972.622 343.002 974.532C341.175 973.064 342.878 955.605 341.053 948.228C335.801 938.448 321.201 940.547 311.488 940.611L284.856 940.649C284.86 945.046 285.172 971.244 284.446 974.16L283.836 974.458C283.154 973.197 282.688 902.395 283.4 896.271L284.155 895.724ZM300.449 927.971C305.158 927.984 312.479 928.619 316.3 926.196C317.635 923.756 318.751 918.248 318.517 915.463C317.792 906.825 306.297 908.356 300.353 908.469L300.449 927.971Z"/><path fill="#9F6361" transform="scale(0.617188 0.617188)" d="M284.819 897.026C293.94 897.27 317.977 895.189 324.923 899.256C328.398 901.291 330.336 904.528 331.223 908.387C332.865 915.533 332.084 929.315 328.099 935.587C326.655 936.787 324.49 938.21 322.654 938.431C311.399 939.788 296.299 939.142 284.833 939.066L284.819 897.026ZM300.449 927.971C305.158 927.984 312.479 928.619 316.3 926.196C317.635 923.756 318.751 918.248 318.517 915.463C317.792 906.825 306.297 908.356 300.353 908.469L300.449 927.971Z"/><path transform="scale(0.617188 0.617188)" d="M760.493 333.159C770.637 338.424 782.857 348.133 792.829 354.521C799.019 358.486 800.221 365.93 803.643 372.408C819.197 401.857 829.02 431.909 833.72 464.998C845.157 545.517 823.36 627.125 774.272 691.888C735.431 743.132 675.753 784.982 614.265 804.094C589.135 811.905 559.207 817.105 533.175 820.986C537.882 822.793 561.939 828.104 563.536 829.614C564.061 831.605 563.905 831.855 563.505 833.949C561.21 835.386 527.133 825.08 520.285 824.136C511.636 822.944 477.859 835.436 474.666 833.295C474.324 831.589 474.084 831.123 474.699 829.482C478.281 826.712 499.472 822.66 504.754 821.597C494.312 819.162 482.108 817.582 471.437 815.694C460.003 813.58 448.655 811.018 437.422 808.014C365.533 789.249 302.548 745.768 259.517 685.2C212.232 619.956 193.162 538.441 206.596 458.991C206.576 457.616 208.234 448.992 208.592 447.366C213.476 425.172 219.245 405.355 230.614 385.633C226.058 401.1 220.045 414.844 215.985 430.851C201.219 489.064 203.665 549.966 223.887 606.662C250.186 680.395 306.745 745.143 377.392 779.371C412.214 796.242 449.548 807.091 487.58 813.355C496.817 814.438 510.826 818.163 519.888 817.095C551.944 813.316 591.523 806.403 621.668 795.951C697.608 769.619 766.458 711.475 801.611 638.828C831.45 578.064 839.822 508.983 825.361 442.85C820.888 422.521 814.967 406.088 808.128 386.473C797.902 380.355 783.798 374.751 773.378 367.957C769.368 358.501 763.632 342.917 760.493 333.159Z"/><path fill="#9F6361" transform="scale(0.617188 0.617188)" d="M465.206 882.649C472.787 882.597 480.416 882.34 487.992 882.511C490.328 882.563 493.596 882.625 494.866 884.885C498.114 890.664 494.79 921.197 496.22 930.738C497.054 936.304 499.633 941.686 501.44 946.988C502.337 949.62 503.144 954.874 505.338 956.556C506.336 957.321 507.319 957.465 508.521 957.193C511.892 956.428 512.282 951.846 513.218 949.066C515.511 942.258 518.468 935.182 519.187 928.01C519.855 921.343 517.766 886.821 520.587 883.854C521.665 882.722 524.127 882.589 525.578 882.513C528.805 882.344 549.412 882.171 550.969 883.985C553.828 887.315 552.464 910.419 552.442 915.75C552.458 917.728 552.778 931.912 551.859 934.809C546.332 951.936 539.487 970.043 531.201 985.975C529.887 988.501 490.451 987.19 485.764 987.152C484.378 987.141 482.623 985.958 482.024 984.602C475.058 968.829 468.455 952.506 462.756 936.225C461.106 931.225 461.962 893.003 462.283 885.345C462.331 884.212 464.176 883.211 465.206 882.649Z"/><path fill="#F9FDFC" transform="scale(0.617188 0.617188)" d="M478.893 895.26C481.63 898.168 478.727 925.756 480.136 932.097C482.78 944.002 489.454 960.771 496.066 971.167C497.74 973.8 516.35 973.877 518.179 971.512C525.571 961.953 529.874 947.124 534.063 935.733C536.232 929.807 533.692 897.856 535.675 895.705L536.458 896.537C536.492 906.504 536.685 918.186 536.43 928.009C536.134 939.374 526.262 963.689 519.858 972.62C517.338 973.986 515.302 974.609 512.487 974.511C505.351 974.261 497.005 976.86 492.826 969.394C489.784 965.06 488.206 958.582 485.898 954.135C478.295 939.486 477.74 926.761 478.377 910.629C478.549 906.291 477.932 899.716 478.893 895.26Z"/><path fill="#9F6361" transform="scale(0.617188 0.617188)" d="M573.843 882.626C583.218 882.125 598.474 882.743 608.231 882.585C615.422 882.468 641.061 882.126 646.629 883.409C649.717 885.958 649.306 905.887 647.109 908.761C643.169 911.015 610.145 910.02 602.969 909.981L603.047 921.395C612.833 921.151 625.835 920.437 635.246 922.388C637.726 922.902 637.482 945.462 635.824 946.006C627.853 948.621 611.151 947.327 602.97 947.216L603.043 957.125C602.942 958.584 603.122 959.812 603.228 959.838C610.549 961.65 642.873 957.416 647.628 961.813C649.3 965.153 649.67 983.776 646.71 986.505C642.231 988.119 617.579 987.472 611.48 987.31C604.218 987.116 577.688 988.482 572.268 986.316C570.002 982.813 570.716 962.279 570.727 956.599L570.818 915.842C570.84 906.735 570.704 894.866 571.138 885.538C571.198 884.241 572.769 883.409 573.843 882.626Z"/><path fill="#F9FDFC" transform="scale(0.617188 0.617188)" d="M587.656 895.743L618.832 895.682C622.218 895.679 632.678 895.511 635.511 896.129L635.259 896.6C632.302 897.76 594.839 897.06 587.923 897.029C588.1 909.117 587.942 921.593 587.934 933.71C593.203 933.717 620.968 933.093 623.356 934.549C621.158 936.047 594.083 934.822 588.554 935.406C587.623 936.659 587.919 938.091 587.958 939.75L587.928 972.996C595.16 973.001 630.701 972.305 635.165 973.869C631.89 975.118 592.81 974.53 586.469 974.526L586.462 922.374C586.462 915.581 586.092 902.585 586.609 896.276L587.656 895.743Z"/><path fill="#9F6361" transform="scale(0.617188 0.617188)" d="M377.152 882.662C386.798 882.679 440.972 881.467 444.752 883.9C445.675 885.444 446.095 886.802 446.061 888.685C445.629 913.006 449.989 910.578 426.552 910.514C426.91 926.675 426.741 943.78 426.618 959.988C430.913 959.81 439.694 959.261 443.365 960.243C447.648 961.389 446.317 981.548 445.182 985.401C444.812 986.658 443.059 987.051 441.995 987.443C432.177 987.333 380.685 988.497 374.92 986.372C374.271 985.383 373.789 983.95 373.784 982.734C373.701 959.345 368.751 959.141 393.323 959.981C392.795 943.998 393.485 926.965 393.087 910.687C388.516 910.511 377.654 911.542 374.622 908.965C372.678 904.847 373.237 890.535 374.155 885.651C374.494 883.843 375.806 883.357 377.152 882.662Z"/><path fill="#F9FDFC" transform="scale(0.617188 0.617188)" d="M388.159 895.722C394.565 895.648 428.701 895.039 432.476 896.174L432.053 896.686C428.839 897.459 415.001 897.092 410.845 897.057L410.808 972.994C415.779 972.987 428.183 972.671 432.55 973.224L432.943 973.762C431.854 974.796 432.503 974.387 430.625 974.516C423.648 974.511 391.836 975.143 386.655 973.761L386.896 973.324C394.005 972.786 402.068 972.96 409.277 972.97C408.663 948.493 409.191 921.734 409.172 897.062C404.314 897.125 391.436 897.351 386.97 896.849L386.808 896.254L388.159 895.722Z"/><path fill="#9F6361" transform="scale(0.617188 0.617188)" d="M789.178 882.682L841.652 882.66C846.693 882.652 868.668 881.781 871.575 884.045C874.008 887.649 872.795 893.679 873.051 897.939C873.905 912.167 869.18 911.401 857.314 910.559C854.747 910.377 848.983 910.615 846.014 910.674L846.006 964.25C846.002 967.661 847.682 987.309 842.86 987.198C836.097 987.043 818.706 988.783 813.232 986.261C810.9 980.427 812.098 921.791 811.932 910.68C807.43 910.534 790.9 911.134 787.501 909.723C784.119 908.319 785.059 888.057 786.278 884.582C786.696 883.39 788.063 883.111 789.178 882.682Z"/><path fill="#F9FDFC" transform="scale(0.617188 0.617188)" d="M800.221 895.74C806.21 895.726 857.268 894.707 859.714 896.46C858.188 897.533 833.555 897.059 829.885 897.048L829.917 946.75C829.933 950.68 830.328 972.36 829.325 974.429L828.84 974.151C827.61 970.739 828.409 906.313 828.391 897.052C822.838 897.082 803.377 897.489 798.97 896.714L798.744 896.186L800.221 895.74Z"/><path fill="#9F6361" transform="scale(0.617188 0.617188)" d="M340.016 246.848L340.603 247.212C341.167 250.058 335.702 267.308 334.53 271.423C341.068 275.976 349.877 283.5 356.213 287.289C347.406 287.585 338.085 287.518 329.238 287.597C328.199 294.92 325.451 304.747 323.485 311.999C319.666 304.443 316.004 296.808 312.502 289.1L306.817 289.448C299.569 289.433 292.277 289.793 285.031 290.081C291.673 283.769 299.184 277.706 306.282 271.867C302.579 264.243 299.351 255.381 296.462 247.418C303.795 251.571 312.753 256.655 319.571 261.391C326.2 256.402 333.204 251.611 340.016 246.848Z"/><path fill="#9F6361" transform="scale(0.617188 0.617188)" d="M518.468 165.226C520.714 169.147 525.971 184.408 527.746 189.374C536.312 188.869 544.636 189.021 553.199 189.105C547.401 194.678 538.494 201.162 531.856 205.774C534.725 214.733 537.027 223.17 539.572 232.204C532.064 226.809 524.932 221.406 518.05 215.227C512.729 220.343 502.61 227.497 496.372 232.121C499.119 224.553 502.2 213.37 504.528 205.491C496.419 199.808 489.823 194.957 482.078 188.758C491.155 188.674 500.729 188.932 509.844 189.03C512.37 181.294 515.152 172.632 518.468 165.226Z"/><path fill="#9F6361" transform="scale(0.617188 0.617188)" d="M361.985 205.222C367.265 208.193 376.623 218.157 381.181 222.878C387.882 218.763 397.425 214.919 404.73 211.78C401.547 219.14 396.586 227.644 392.583 234.706C398.71 241.116 404.725 247.735 411.155 253.82C403.59 252.515 396.291 251.814 388.549 250.398L386.54 250.174C383.422 251.752 375.435 269.589 373.288 273.99C371.368 267.201 369.34 255.218 368.12 248.064C358.91 246.558 349.74 244.811 340.621 242.828C345.537 240.927 358.946 233.222 365.218 230.22C363.469 223.529 362.676 212.473 361.985 205.222Z"/><path fill="#9F6361" transform="scale(0.617188 0.617188)" d="M696.749 247.161C701.203 249.41 712.575 258.226 716.584 261.513C724.298 257.381 732.292 252.146 740.304 247.747C737.382 255.803 734.408 263.84 731.383 271.858C737.996 277.458 744.971 284.155 751.483 290.012C744.799 290.053 737.134 289.616 730.381 289.373L724.208 288.7C721.163 297.069 718.355 303.308 713.594 310.782C711.547 303.403 709.005 294.985 707.301 287.607C698.476 287.294 690.141 286.925 681.305 287.033C687.36 282.266 696.216 274.899 702.755 271.289C700.176 263.15 698.462 255.49 696.749 247.161Z"/><path fill="#9F6361" transform="scale(0.617188 0.617188)" d="M673.75 205.425L674.303 205.935C674.138 213.297 672.394 223.124 671.264 230.491C679.036 233.879 689.584 240.43 696.967 242.926C687.609 244.712 677.763 246.631 668.34 247.787C667.135 256.681 665.301 265.238 663.624 274.047C660.24 266.943 655.919 257.208 651.41 250.579C650.799 249.682 648.914 250.25 647.68 250.406C640.653 252.262 632.245 253.456 624.888 255.119C631.058 248.614 637.863 241.598 643.6 234.785C639.744 227.03 635.739 219.865 632.045 211.898C638.983 214.316 648.79 219.605 655.699 222.833C660.862 216.852 667.867 210.735 673.75 205.425Z"/><path fill="#9F6361" transform="scale(0.617188 0.617188)" d="M436.175 176.221C439.485 178.729 448.709 193.584 452.123 198.215C458.276 196.159 474.664 192.629 478.83 190.448C473.744 198.132 466.99 205.204 460.524 211.753C465.758 219.145 469.995 227.011 475.087 234.544C468.599 232.511 463.294 230.808 457.098 228.028L450.99 225.096C444.895 231.571 439.562 238.553 433.188 245.091C433.718 236.873 433.841 227.96 434.1 219.681C424.86 216.258 418.085 213.544 409.28 209.171C417.205 207.649 426.504 204.409 434.805 202.43C434.315 195.574 435.592 183.173 436.175 176.221Z"/><path fill="#9F6361" transform="scale(0.617188 0.617188)" d="M600.453 177.142C601.662 179.452 601.901 199.059 601.78 202.725C610.389 205.018 618.941 207.52 627.429 210.228C619.286 213.186 610.525 216.843 602.406 220.039C602.615 226.957 602.915 240.011 604.221 246.595C598.427 239.87 592.71 232.775 586.798 226.202C585.028 225.839 581.044 228.082 579.176 228.991C573.566 231.42 566.588 233.781 560.748 235.895C566.115 228.513 570.807 220.001 576.204 212.368C570.99 205.758 562.634 197.726 558.179 191.131C565.775 193.633 576.619 195.583 585.34 198.296C588.82 192.629 596.168 182.175 600.453 177.142Z"/><path transform="scale(0.617188 0.617188)" d="M216.134 682.8C222.352 687.906 246.963 689.86 255.582 690.017C259.908 696.691 264.859 702.63 269.479 709.039C258.649 708.512 242.913 708.361 232.59 707.016C234.87 710.9 237.563 714.434 240.221 718.065C253.082 719.821 266.072 720.449 279.043 719.941C285.398 725.133 290.16 731.783 297.234 736.882C290.489 737.61 261.964 737.89 258.717 739.283L258.978 740.222L258.531 741.019C253.807 735.145 246.741 728.445 242.425 722.89C233.962 711.998 222.452 696.785 216.066 684.752L216.134 682.8Z"/><path fill="#9F6361" transform="scale(0.617188 0.617188)" d="M697.552 920.173C710.982 919.486 725.258 920.206 738.691 920.205C745.589 920.204 744.228 929.331 744.014 934.36C743.778 939.914 745.932 947.024 740.795 949.952L713.874 950.081C698.122 950.139 692.666 953.496 694.564 934.422C695.079 929.244 692.578 923.313 697.552 920.173Z"/><path fill="#F9FDFC" transform="scale(0.617188 0.617188)" d="M707.149 934.75C711.449 933.923 722.926 934.539 727.811 934.391C729.814 934.331 730.246 934.487 731.282 935.61C731.096 935.653 730.248 935.874 729.759 935.882C722.696 936.001 715.348 936.348 708.317 935.757C707.927 935.421 707.538 935.086 707.149 934.75Z"/><path transform="scale(0.617188 0.617188)" d="M275.548 333.997L275.996 334.116C276.362 336.163 264.615 365.446 263.136 369.084C257.532 373.373 238.556 382.652 231.797 385.512L231.111 385.269C232.308 383.022 232.959 379.98 233.955 377.543C236.904 370.33 239.612 362.034 242.928 355.054C253.685 348.504 264.782 340.147 275.548 333.997Z"/><path transform="scale(0.617188 0.617188)" d="M228.839 320.909C229.935 322.891 232.078 337.84 232.906 341.542C234.342 347.961 234.778 350.16 237.325 356.581C234.204 365.545 229.602 374.847 226.238 384.084C225.332 382.52 224.448 380.797 223.587 379.196C217.758 367.729 215.106 358.689 211.258 346.728C214.922 340.221 224.219 327.192 228.839 320.909Z"/><path transform="scale(0.617188 0.617188)" d="M619.6 809.034C621.775 809.045 654.736 822.852 659.624 824.456C663.731 822.989 667.825 821.482 671.903 819.936C663.506 825.633 653.267 828.786 643.729 831.972C640.564 832.917 637.637 833.636 634.425 834.41C627.837 832.19 618.99 828.044 612.344 825.33C605.758 822.639 597.022 819.444 590.844 816.441C600.116 815.479 610.553 811.858 619.6 809.034Z"/><path transform="scale(0.617188 0.617188)" d="M376.733 792.42C385.353 795.789 394.093 799.87 402.71 802.938C388.969 807.486 374.535 813.278 360.917 818.456C353.975 815.318 342.405 809.212 335.92 805.04L336.314 804.588C340.285 805.048 370.733 794.347 376.733 792.42Z"/><path transform="scale(0.617188 0.617188)" d="M416.363 808.947C425.48 810.506 435.624 816.596 445.284 816.145C443.031 817.238 440.513 818.292 438.195 819.278C426.508 824.247 414.954 830.492 403.034 834.808C398.391 833.548 393.56 832.002 388.936 830.603C376.547 825.385 374.015 826.478 360.537 818.209C365.251 819.726 372.941 823.075 377.74 824.976C389.242 821.552 405.3 813.736 416.363 808.947Z"/><path transform="scale(0.617188 0.617188)" d="M321.415 796.128C311.921 790.832 298.331 780.218 290.873 772.671L290.911 772.271C294.425 774.107 298.828 777.491 302.141 779.879C305.168 779.47 309.381 778.285 312.522 777.679C321.835 775.883 331.376 773.52 340.734 772.082C348.924 776.275 355.91 782.212 364.673 785.565C356.941 787.067 328.315 792.739 321.99 795.381L321.415 796.128Z"/><path transform="scale(0.617188 0.617188)" d="M697.407 770.958C709.886 773.244 725.2 778.496 737.887 778.976C740.394 777.749 743.332 776.065 745.832 774.72C738.314 781.445 729.563 786.819 721.106 792.314L716.69 795.012C707.816 792.206 682.875 786.475 673.72 784.783C682.5 780.291 689.131 776.326 697.407 770.958Z"/><path transform="scale(0.617188 0.617188)" d="M265.418 747.471C269.724 750.636 299.34 747.128 306.486 746.843C314.867 752.652 320.78 758.42 329.872 763.99C321.586 763.58 295.987 767.189 286.252 768.367C281.126 764.875 270.091 752.906 264.959 748.063L265.418 747.471Z"/><path transform="scale(0.617188 0.617188)" d="M731.023 746.513C742.101 747.662 764.652 748.9 775.018 746.219C768.453 753.083 761.739 759.803 754.882 766.376C750.231 767.884 716.397 763.561 710.745 762.124C717.549 757.198 724.284 751.634 731.023 746.513Z"/><path transform="scale(0.617188 0.617188)" d="M801.382 715.21C801.224 717.47 782.358 739.801 779.795 740.167C780.602 739.183 781.089 738.828 781.288 737.597C780.838 737.297 751.46 737.014 748.625 736.967C746.11 736.876 743.494 736.99 740.97 737.051C747.375 730.787 753.628 723.963 759.779 717.419C770.263 719.202 791.703 719.442 801.382 715.21Z"/><path transform="scale(0.617188 0.617188)" d="M660.458 792.138C672.657 795.516 687.392 801.469 699.646 804.347C702.591 803.166 705.697 801.458 708.539 799.989C702.569 805.284 690.066 810.821 682.627 814.297C681.54 814.909 677.109 816.709 675.757 817.289C664.19 812.286 648.084 806.975 635.857 802.409C644.245 799.882 652.329 795.606 660.458 792.138Z"/><path transform="scale(0.617188 0.617188)" d="M809.742 321.704C813.139 323.68 824.87 342.712 827.066 347.051C824.527 355.464 818.954 369.38 815.693 377.722L813.509 382.566C809.948 372.877 805.911 365.282 801.375 356.109C805.404 343.338 806.894 334.638 809.742 321.704Z"/><path transform="scale(0.617188 0.617188)" d="M175.62 430.319C177.106 432.3 178.459 440.761 179.9 443.642C184.373 452.58 192.365 460.627 199.283 467.596C199.027 471.863 198.436 487.722 196.594 490.291L195.531 490.177C186.986 482.848 178.761 474.635 170.254 467.561C172.091 454.718 173.276 443.307 175.62 430.319Z"/><path transform="scale(0.617188 0.617188)" d="M869.142 471.825C871.227 480.596 870.717 497.756 871.415 507.524C862.934 514.443 852.649 522.309 843.391 528.053L842.571 528.198C841.314 526.23 842.165 507.412 842.347 503.932C856.252 494.25 864.382 488.188 869.142 471.825Z"/><path transform="scale(0.617188 0.617188)" d="M845.513 640.308L846.134 641.099C841.443 650.8 836.912 660.485 831.351 669.719C819.647 672.572 802.23 674.913 791.888 678.068C796.326 670.716 800.664 663.304 804.898 655.832C818.999 652.576 828.873 650.631 842.71 645.743C843.674 643.974 844.595 642.107 845.513 640.308Z"/><path transform="scale(0.617188 0.617188)" d="M169.461 472.807C170.44 475.163 170.647 478.881 172.147 481.556C176.777 489.81 189.251 500.436 197.007 505.688C196.947 509.144 197.727 528.471 196.593 530.012C187.596 524.346 176.109 515.247 167.989 508.38C167.944 498.153 168.574 482.816 169.461 472.807Z"/><path transform="scale(0.617188 0.617188)" d="M188.696 393.499L190.179 393.496C189.534 395.7 188.753 399.326 188.701 401.53C188.453 412.137 200.164 425.207 207.184 432.426C204.521 440.168 202.686 448.17 201.708 456.299C195.197 451.673 182.434 436.111 179.316 428.846C179.698 418.671 184.714 402.845 188.696 393.499Z"/><path transform="scale(0.617188 0.617188)" d="M171.428 561.778C172.371 563.872 172.585 566.602 172.923 568.933C182.866 575.091 195.536 581.242 206.217 586.338C208.632 592.945 210.733 601.594 212.671 608.524C201.475 604.604 187.347 598.266 176.246 593.591C174.222 586.607 170.344 568.164 171.428 561.778Z"/><path transform="scale(0.617188 0.617188)" d="M190.882 387.925C194.577 378.891 198.577 368.956 203.187 360.367C206.086 373.642 211.573 383.59 218.833 394.979C216.046 402.824 213.06 411.005 210.523 418.921C206.809 414.111 203.366 409.096 200.213 403.901C199.119 402.07 192.256 388.74 191.625 388.32L190.882 387.925Z"/><path transform="scale(0.617188 0.617188)" d="M870.743 517.863C871.351 521.798 869.788 544.75 869.467 550.269C859.032 556.846 847.877 563.387 837.258 569.702C836.368 565.68 839.24 550 840.209 545.314C843.574 542.799 848.688 539.852 852.342 537.382C858.241 533.393 863.537 529.48 869.22 525.181C869.55 522.311 869.615 520.573 870.743 517.863Z"/><path transform="scale(0.617188 0.617188)" d="M168.314 519.353C169.513 520.964 169.778 523.447 170.197 525.489C176.892 532.504 190.883 541.056 199.385 546.615C199.571 551.907 199.973 555.935 200.841 561.165C201.28 563.807 202.256 568.368 202.238 570.766C197.325 568.086 192.179 564.649 187.302 561.75C181.24 558.147 174.89 554.667 169.063 550.76C169.003 540.276 167.853 529.958 168.314 519.353Z"/><path transform="scale(0.617188 0.617188)" d="M850.66 396.836C854.183 401.425 858.707 422.538 860.725 429.339C853.868 436.67 848.464 443.523 840.906 451.289C839.315 452.78 839.526 453.083 837.761 453.385C836.077 448.518 833.765 436.644 832.541 431.143C841.532 420.596 847.949 410.425 850.66 396.836Z"/><path transform="scale(0.617188 0.617188)" d="M824.531 682.091C824.835 685.326 812.17 701.728 809.58 704.965C796.967 706.698 784.25 707.556 771.52 707.531L771.07 707.071C771.648 704.321 780.653 692.679 782.919 689.6C792.8 689.107 815.925 686.055 824.531 682.091Z"/><path transform="scale(0.617188 0.617188)" d="M765.691 384.755C773.223 387.637 795.101 392.642 803.22 393.961C806.304 402.524 809.541 411.208 812.231 419.889C804.487 417.785 782.021 408.027 774.926 404.709C771.819 398.554 768.127 391.155 765.691 384.755Z"/><path transform="scale(0.617188 0.617188)" d="M834.314 360.29C837.359 362.876 845.657 383.294 847.447 388.038C843.116 396.55 836.328 406.757 831.062 414.72C830.301 415.864 830.347 416.045 829.171 416.674C828.036 414.955 821.721 396.576 820.537 393.235C827.344 381.055 831.087 374.025 834.314 360.29Z"/><path transform="scale(0.617188 0.617188)" d="M862.916 438.277C864.242 439.463 868.009 463.285 868.636 466.6C862.999 470.847 849.856 483.36 843.766 488.639L842.686 489.388L842.057 488.993C841.424 486.035 838.834 467.844 839.5 466.952C846.76 457.241 856.865 449.542 862.916 438.277Z"/><path transform="scale(0.617188 0.617188)" d="M197.023 647.185C203.369 650.064 227.129 655.651 234.366 656.808C238.333 663.505 242.586 670.477 246.012 677.453C239.468 676.135 215.613 671.057 210.026 671.732L209.474 672.23L209.305 672.86C203.993 665.699 200.142 656.908 196.526 648.794L197.023 647.185Z"/><path transform="scale(0.617188 0.617188)" d="M856.325 609.48C857.045 607.37 857.404 605.686 858.85 604.023C856.8 612.795 852.646 625.236 849.198 633.475L848.31 633.387C838.632 634.69 823.403 640.562 812.286 642.704C815.567 636.698 818.808 627.927 820.826 621.218C832.349 617.743 845.168 613.991 856.325 609.48Z"/><path transform="scale(0.617188 0.617188)" d="M867.317 564.417L867.679 564.84C867.5 570.371 863.742 586.372 862.176 592.064C854.773 596.353 836.061 603.59 827.739 606.544L827.431 606.332C827.2 603.334 831.387 588.827 832.344 585.285C833.061 584.968 833.778 584.647 834.492 584.323C843.08 580.418 857.697 573.671 865.452 568.144C866.093 567.686 866.997 565.275 867.317 564.417Z"/><path transform="scale(0.617188 0.617188)" d="M190.358 635.587C189.766 633.26 188.021 630.183 187.236 627.669C185.123 620.9 180.641 611.874 180.432 604.825C181.275 605.525 182.3 608.698 182.794 609.957C192.693 615.046 207.189 619.273 218.142 622.759C221.09 628.577 224.982 637.691 227.585 643.698C216.621 641.605 203.011 636.246 191.789 634.075L191.163 634.734L190.358 635.587Z"/><path transform="scale(0.617188 0.617188)" d="M792.235 521.251C802.516 528.798 813.605 538.312 823.795 546.354C822.368 552.708 821.146 559.937 819.926 566.393C819.654 567.159 819.906 566.854 819.102 567.245C812.049 562.273 796.682 547.112 789.86 540.651C790.489 534.166 791.28 527.697 792.235 521.251Z"/><path transform="scale(0.617188 0.617188)" d="M792.004 487.64C802.947 493.332 813.556 501.435 825.688 507.713C825.506 515.37 825.496 523.192 825.404 530.864C815.054 524.379 802.352 515.317 792.558 507.878C792.688 501.651 792.145 494.043 792.004 487.64Z"/><path transform="scale(0.617188 0.617188)" d="M788.341 453.5C793.387 455.474 800.772 459.535 806.007 461.861C810.039 463.652 819.388 467.599 822.361 469.601C824.326 474.414 824.519 486.44 824.868 492.224C814.894 487.421 799.207 479.88 790.756 472.98C789.865 466.761 788.669 459.697 788.341 453.5Z"/><path transform="scale(0.617188 0.617188)" d="M248.353 454.488L249.158 454.591C249.918 456.97 247.678 471.238 247.244 474.413C236.349 480.28 225.753 486.671 214.804 492.513L214.356 492.38C213.302 490.046 215.209 473.652 215.556 469.956L248.353 454.488Z"/><path transform="scale(0.617188 0.617188)" d="M411.994 754.671C418.748 756.877 424.622 759.258 431.623 761.265C434.666 772.059 441.244 788.555 447.027 797.703C441.926 797.684 427.694 792.513 422.529 790.701C419.133 780.47 413.765 765.058 411.994 754.671Z"/><path transform="scale(0.617188 0.617188)" d="M246.313 520.974C247.596 522.61 248.201 537.274 248.455 540.494C244.482 544.398 223.336 565.297 220.051 567.174L219.413 566.819C218.112 560.23 216.535 553.486 215.072 546.912C226.119 538.36 235.788 530.057 246.313 520.974Z"/><path transform="scale(0.617188 0.617188)" d="M778.898 418.742C791.605 423.29 802.831 428.757 816.262 433.061C817.733 440.295 819.083 447.651 820.476 454.909C817.326 454.19 788.207 441.412 785.39 439.508C782.982 432.696 781.4 425.52 778.898 418.742Z"/><path transform="scale(0.617188 0.617188)" d="M245.957 488.088C246.565 489.724 246.184 504.668 246.187 507.662C237.152 514.909 223.772 524.302 214.211 530.574C213.516 525.774 213.579 513.185 213.47 507.794C225.324 501.7 234.734 495.088 245.957 488.088Z"/><path transform="scale(0.617188 0.617188)" d="M257.268 419.061L257.632 419.432C257.545 422.637 252.923 436.714 251.795 440.23C243.108 444.95 228.519 451.331 219.185 454.52C218.151 452.479 221.101 437.292 221.672 433.782C232.931 429.039 245.914 423.209 257.268 419.061Z"/><path transform="scale(0.617188 0.617188)" d="M352.206 720.832C356.505 723.838 363.451 727.836 368.055 730.556C370.58 746.281 373.171 757.898 377.335 773.146C370.233 769.875 362.773 765.3 355.964 761.303C356.061 748.999 352.316 734.413 352.206 720.832Z"/><path transform="scale(0.617188 0.617188)" d="M624.973 755.057L625.257 755.307C625.89 758.539 617.655 785.571 616.099 790.823C610.277 793.1 599.431 795.964 593.181 797.552L592.815 796.786C594.892 791.464 597.653 786.296 599.794 780.729C601.981 775.041 604.322 767.512 606.832 762.258C611.994 759.502 619.375 756.974 624.973 755.057Z"/><path transform="scale(0.617188 0.617188)" d="M710.953 697.353C711.968 698.443 712.113 699.164 712.238 700.909C713.111 713.17 713.423 724.475 715.302 736.688C709.776 741.01 704.167 745.506 698.467 749.565C696.876 750.503 697.574 750.507 696.182 750.326C697.237 738.094 698.454 719.238 697.566 707.248C701.375 704.999 707.273 700.183 710.953 697.353Z"/><path transform="scale(0.617188 0.617188)" d="M381.835 740.194C387.512 742.993 395.413 746.681 400.445 750.101C403.03 761.501 407.711 775.817 411.122 787.209C403.873 784.573 396.756 781.586 389.796 778.26C386.952 767.467 382.928 750.916 381.835 740.194Z"/><path transform="scale(0.617188 0.617188)" d="M656.29 739.962C657.786 743.548 650.096 772.283 648.574 778.254C643.661 781.809 635.063 784.435 629.167 786.432C628.641 783.044 637.217 754.817 638.43 748.53L656.29 739.962Z"/><path transform="scale(0.617188 0.617188)" d="M268.715 386.56L269.369 386.76C269.728 389.182 263.126 402.577 261.752 405.29C254.663 409.034 234.875 415.834 226.76 418.379L226.207 418.282C226.143 416.95 232.377 398.96 233.383 395.732C245.435 393.299 256.895 389.889 268.715 386.56Z"/><path transform="scale(0.617188 0.617188)" d="M788.149 554.103C790.897 555.421 812.058 578.709 816.585 583.291C815.012 588.761 812.833 594.951 811.035 600.407C810.735 601.088 810.432 601.594 810.072 602.244L809.217 602.235C804.308 598.214 788.55 577.525 784.848 571.516C786.119 566.116 787.789 559.582 788.149 554.103Z"/><path transform="scale(0.617188 0.617188)" d="M267.622 615.331C270.263 619.142 273.843 626.853 275.759 631.149C271.545 640.565 264.871 661.115 262.791 670.812L262.055 670.696L260.608 668.43C256.697 662.178 252.886 655.864 249.178 649.489C256.224 638.044 261.339 627.145 267.622 615.331Z"/><path transform="scale(0.617188 0.617188)" d="M327.02 698.161C330.188 699.611 337.284 705.987 340.23 708.53C339.792 718.271 340.954 729.673 341.949 739.4C342.292 742.745 344.731 750.332 344.036 753.087L342.679 752.57C336.516 748.4 329.005 741.923 323.28 737.151C325.507 729.188 326.802 707.263 327.02 698.161Z"/><path transform="scale(0.617188 0.617188)" d="M753.636 644.871C759.801 656.334 764.338 668.231 770.268 679.655L759.084 693.95C757.79 695.595 757.168 696.767 755.297 697.331C752.057 684.887 748.112 671.836 744.535 659.451C747.576 654.311 750.249 649.795 753.636 644.871Z"/><path transform="scale(0.617188 0.617188)" d="M769.487 615.774C771.757 618.263 776.361 625.831 778.27 628.819C782.276 635.06 786.329 641.27 790.429 647.449C788.855 651.242 782.884 660.7 780.518 664.596C779.766 665.658 779.844 665.655 778.749 666.323C776.53 663.84 764.017 636.082 761.987 631.484C763.086 628.232 767.738 619.27 769.487 615.774Z"/><path transform="scale(0.617188 0.617188)" d="M302.605 672.649C306.882 674.636 311.95 681.205 315.078 684.974C315.063 688.985 312.545 727.376 312.189 728.21L310.437 727.159C306.157 723.374 299.121 716.557 296.086 711.858C297.507 704.947 303.556 677.773 302.605 672.649Z"/><path transform="scale(0.617188 0.617188)" d="M734.157 673.389C736.303 675.9 742.681 704.637 743.91 709.804C740.22 714.407 734.585 719.713 730.323 723.941L726.722 727.193C726.209 718.053 724.988 693.421 722.925 685.344C726.739 681.425 730.484 677.44 734.157 673.389Z"/><path transform="scale(0.617188 0.617188)" d="M685.019 722.423L685.494 722.791C686.405 725.238 684.405 754.346 684.309 759.535C677.252 763.411 670.215 767.325 663.2 771.276L662.735 771.284C662.201 769.831 663.325 766.184 663.757 764.599C666.703 753.809 669.382 742.743 670.658 731.603L685.019 722.423Z"/><path transform="scale(0.617188 0.617188)" d="M283.39 644.799C285.232 646.099 291.737 656.524 293.812 659.401C291.468 672.384 288.011 684.987 285.779 698.385C288.456 701.285 290.148 703.328 292.551 706.465C290.911 705.24 289.267 703.77 287.702 702.43C283.388 698.542 271.435 685.463 269.736 680.346L270.215 680.081L271.732 680.783C273.9 679.526 282.05 649.336 283.39 644.799Z"/><path transform="scale(0.617188 0.617188)" d="M780.447 586.128C784.016 587.607 801.44 611.948 805.904 616.725C803.388 621.973 800.821 627.196 798.201 632.393C797.646 633.694 797.487 634.715 796.527 635.429C794.563 633.696 777.268 605.383 775.677 602.265C777.104 597.011 778.888 591.38 780.447 586.128Z"/><path transform="scale(0.617188 0.617188)" d="M248.731 553.888C250.106 557.825 251.188 567.364 252.038 572.149C245.778 582.094 236.999 593.605 229.994 603.299L229.244 603.284L228.496 601.85C226.318 596.018 223.948 589.205 222.451 583.216C230.825 575.009 241.198 562.765 248.731 553.888Z"/><path transform="scale(0.617188 0.617188)" d="M255.821 585.983C257.368 587.358 261.084 600.269 261.916 603.035C261.34 604.273 258.605 609.477 257.845 610.42C255.012 613.937 244.809 634.379 242.993 635.501L242.041 634.849C239.296 630.186 235.784 621.859 233.632 616.811C239.355 610.454 250.37 593.643 255.821 585.983Z"/><path fill="#161618" fill-opacity="0.89803922" transform="scale(0.617188 0.617188)" d="M321.99 795.381C324.726 797.011 334.662 802.682 336.314 804.588L335.92 805.04C332.042 803.041 325.214 798.54 321.415 796.128L321.99 795.381Z"/><path fill="#161618" fill-opacity="0.96078432" transform="scale(0.617188 0.617188)" d="M191.163 634.734C193.178 640.158 194.328 642.161 197.023 647.185L196.526 648.794C194.418 645.099 191.929 639.446 190.358 635.587L191.163 634.734Z"/><path transform="scale(0.617188 0.617188)" d="M209.474 672.23C210.626 674.14 215.516 681.423 216.134 682.8L216.066 684.752C213.964 681.672 210.901 676.167 209.305 672.86L209.474 672.23Z"/><path fill="#3C3C40" fill-opacity="0.85490197" transform="scale(0.617188 0.617188)" d="M848.31 633.387L849.198 633.475C848.183 636.335 847.492 638.381 846.134 641.099L845.513 640.308C846.595 637.971 847.405 635.786 848.31 633.387Z"/><path transform="scale(0.617188 0.617188)" d="M190.882 387.925L191.625 388.32C190.974 390.294 190.566 391.471 190.179 393.496L188.696 393.499C189.326 391.623 190.13 389.76 190.882 387.925Z"/><path fill="#626265" fill-opacity="0.50588238" transform="scale(0.617188 0.617188)" d="M258.978 740.222C259.562 740.86 261.649 743.064 262.036 743.64L261.997 744.946C260.748 743.865 259.593 742.326 258.531 741.019L258.978 740.222Z"/><path fill="#161618" fill-opacity="0.74509805" transform="scale(0.617188 0.617188)" d="M262.036 743.64C262.848 744.544 264.79 746.586 265.418 747.471L264.959 748.063C264.285 747.463 262.688 745.679 261.997 744.946L262.036 743.64Z"/></svg>