<?xml version="1.0" encoding="utf-8" ?><svg xmlns="http://www.w3.org/2000/svg" xmlns:xlink="http://www.w3.org/1999/xlink" width="1448" height="1086" viewBox="0 0 1448 1086"><path fill="#FEFEFE" d="M796.033 377.235C802.387 376.067 806.668 375.136 812.368 378.959C830.276 387.97 840.582 391.648 858.035 399.27C866.65 394.302 900.273 405.2 905.898 415.038C906.266 415.685 906.626 416.338 906.976 416.995C918.434 423.19 930.308 431.772 937.809 442.767C962.973 479.649 974.937 527.378 988.678 569.45C994.462 587.157 999.739 603.7 1005.91 621.19C1006.35 622.459 1006.78 624.505 1006.83 625.826C1014.4 622.919 1039.27 614.27 1043.44 618.557C1049.21 624.491 1060.21 665.066 1062.93 673.199C1071.27 697.553 1080.4 721.63 1090.29 745.394C1098.86 766.063 1108.21 787.046 1117.85 807.366C1132.99 839.289 1159.34 899.992 1125.77 928.816C1103.12 948.27 1074.06 967.681 1049.02 984.411C1029.67 997.353 1010.07 1009.91 990.22 1022.07C974.798 1031.57 951.037 1046.62 933.736 1051.95C912.465 1058.51 870.547 1064.95 849.734 1054.65C840.226 1049.95 834.051 1040.49 830.012 1030.99C803.478 1034.9 777.14 1038.24 750.314 1039.34C739.624 1039.82 728.924 1040.07 718.223 1040.06C713.098 1040.08 704.152 1039.81 699.292 1040.19L697.732 1039.95C694.97 1039.96 691.677 1039.76 688.873 1039.66C653.532 1039.32 614.393 1034.58 579.785 1027.97C567.025 1025.54 555 1021.79 542.404 1019.06C542.232 1009.32 542.393 999.194 542.411 989.422C527.49 979.028 528.773 974.312 529.751 957.791C533.31 897.648 546.078 840.121 555.82 780.813C513.722 804.873 482.777 781.191 472.417 737.162C464.188 702.187 476.542 675.397 488.353 643.155C494.749 625.704 500.921 608.172 506.868 590.563C513.311 571.489 519.505 552.332 525.447 533.096C531.938 512.498 538.08 494.75 546.286 475.51C563.956 434.079 592.973 425.235 631.543 410.937C639.274 408.071 650.328 400.948 657.654 396.416L661.978 394.086C669.511 390.613 673.323 388.799 681.487 389.114C676.782 395.111 672.345 393.712 668.116 401.18C662.043 411.922 658.328 425.922 654.889 437.833L654.779 439.115C684.299 480.822 750.404 465.389 786.003 439.87L786.711 439.358L787.882 435.305L791.041 426.394L792.972 421.174C795.874 412.277 802.008 392.38 805.648 384.685L804.888 381.087C803.481 381.04 802.512 380.43 801.14 379.848C799.834 379.402 797.34 377.942 796.033 377.235Z"/><path fill="#E6CCB3" d="M858.035 399.27C866.65 394.302 900.273 405.2 905.898 415.038C906.266 415.685 906.626 416.338 906.976 416.995C918.434 423.19 930.308 431.772 937.809 442.767C962.973 479.649 974.937 527.378 988.678 569.45C994.462 587.157 999.739 603.7 1005.91 621.19C1006.35 622.459 1006.78 624.505 1006.83 625.826C1014.4 622.919 1039.27 614.27 1043.44 618.557C1049.21 624.491 1060.21 665.066 1062.93 673.199C1071.27 697.553 1080.4 721.63 1090.29 745.394C1098.86 766.063 1108.21 787.046 1117.85 807.366C1132.99 839.289 1159.34 899.992 1125.77 928.816C1103.12 948.27 1074.06 967.681 1049.02 984.411C1029.67 997.353 1010.07 1009.91 990.22 1022.07C974.798 1031.57 951.037 1046.62 933.736 1051.95C912.465 1058.51 870.547 1064.95 849.734 1054.65C840.226 1049.95 834.051 1040.49 830.012 1030.99C827.756 1024.36 825.669 1017 823.623 1010.26L823.003 1007.96C819.126 991.028 815.489 975.288 812.433 958.19L811.492 954.532C804.205 917.546 794.808 863.822 784.015 828.561C782.137 819.056 771.892 784.17 773.888 777.423C776.695 767.934 799.973 756.507 808.766 751.319C804.047 724.94 796.695 678.439 795.06 652.589C793.831 652.229 792.614 651.831 791.41 651.395C778.788 646.768 770.443 635.799 775.808 622.176C775.368 621.276 774.94 620.371 774.523 619.461C770.58 610.799 771.568 606.984 774.811 598.25C773.132 588.024 770.399 582.141 780.453 574.795C780.396 559.04 783.751 547.86 802.594 550.529C802.3 546.018 804.941 531.146 805.973 526.587C813.83 491.879 829.181 426.317 855.383 401.685L858.035 399.27Z"/><path fill="#D3BBEC" d="M858.035 399.27C866.65 394.302 900.273 405.2 905.898 415.038C906.266 415.685 906.626 416.338 906.976 416.995C918.434 423.19 930.308 431.772 937.809 442.767C962.973 479.649 974.937 527.378 988.678 569.45C994.462 587.157 999.739 603.7 1005.91 621.19C1006.35 622.459 1006.78 624.505 1006.83 625.826L1008.15 628.03C1009.41 631.603 1011.44 636.837 1012.14 640.414L1013.22 642.636C1026.69 682.645 1040.1 725.772 1019.78 766.641C1018.47 769.221 1017.11 771.776 1015.7 774.303C1012.22 778.565 1009.06 782.138 1004.82 785.535C976.233 808.422 934.909 792.047 909.269 772.458C906.795 769.709 904.772 765.375 901.942 763.046C898.982 760.612 895.81 758.136 892.78 755.818C884.811 749.72 879.869 744.859 876.592 735.322L876.273 733.097C874.899 728.344 874.711 724.758 874.353 719.836L874.542 715.967C863.029 706.592 855.3 689.216 840.382 685.231L837.239 683.883C825.47 681.464 817.458 667.541 812.725 664.736C811.549 662.053 811.369 661.155 809.198 659.216C807.57 655.131 803.574 644.346 797.973 645.924C796.729 648.33 797.242 648.744 797.462 651.732L795.06 652.589C793.831 652.229 792.614 651.831 791.41 651.395C778.788 646.768 770.443 635.799 775.808 622.176C775.368 621.276 774.94 620.371 774.523 619.461C770.58 610.799 771.568 606.984 774.811 598.25C773.132 588.024 770.399 582.141 780.453 574.795C780.396 559.04 783.751 547.86 802.594 550.529C802.3 546.018 804.941 531.146 805.973 526.587C813.83 491.879 829.181 426.317 855.383 401.685L858.035 399.27Z"/><path fill="#FEB27E" d="M804.138 550.011C806.974 551.176 808.906 551.392 811.893 551.927L816.192 552.7C818.807 553.318 822.328 554.039 824.82 554.828L827.243 554.836L827.949 553.803L828.657 555.602L830.244 555.899C839.987 559.405 843.002 560.335 847.557 570.067C856.039 588.19 863.288 611.883 872.211 629.334C875.165 633.798 888.033 641.03 892.975 644.028C894.294 644.894 896.102 646.164 897.43 646.924L906.815 651.867L909.259 653.337C910.636 654.228 912.142 655.358 913.641 655.852C915.871 657.997 916.942 658.82 918.335 661.669C933 682.479 926.058 725.205 901.805 736.354L899.2 738.144L896.5 738.723C893.797 738.891 886.952 738.856 885.06 739.33C882.755 738.792 881.783 737.237 879.819 735.385C878.349 731.401 876.483 722.44 876.861 718.276L874.542 715.967C863.029 706.592 855.3 689.216 840.382 685.231L837.239 683.883C825.47 681.464 817.458 667.541 812.725 664.736C811.549 662.053 811.369 661.155 809.198 659.216C807.57 655.131 803.574 644.346 797.973 645.924C796.729 648.33 797.242 648.744 797.462 651.732L795.06 652.589C793.831 652.229 792.614 651.831 791.41 651.395C778.788 646.768 770.443 635.799 775.808 622.176C775.368 621.276 774.94 620.371 774.523 619.461C770.58 610.799 771.568 606.984 774.811 598.25C773.132 588.024 770.399 582.141 780.453 574.795C780.396 559.04 783.751 547.86 802.594 550.529L804.138 550.011Z"/><path fill="#A14F23" d="M804.138 550.011C806.974 551.176 808.906 551.392 811.893 551.927L816.192 552.7C818.807 553.318 822.328 554.039 824.82 554.828L827.243 554.836L827.949 553.803L828.657 555.602L830.244 555.899C839.987 559.405 843.002 560.335 847.557 570.067C856.039 588.19 863.288 611.883 872.211 629.334C875.165 633.798 888.033 641.03 892.975 644.028C894.294 644.894 896.102 646.164 897.43 646.924L906.815 651.867L909.259 653.337C910.636 654.228 912.142 655.358 913.641 655.852C915.871 657.997 916.942 658.82 918.335 661.669C907.627 655.749 897.02 649.65 886.517 643.375C883.234 641.377 875.499 636.864 873.142 633.897C858.262 615.161 853.895 583.017 840.793 563.626C835.807 560.736 829.916 558.492 824.219 557.398C803.932 553.503 782.257 543.04 783.128 574.106C784.033 573.993 795.499 571.999 795.095 571.915C801.08 573.152 813.017 573.569 818.357 575.785L818.394 576.328C802.474 577.938 768.272 567.539 777.296 596.431C784.475 598.26 808.602 594.253 812.175 598.555L811.724 599.479C802.271 602.326 767.514 589.88 775.544 614.267C776.276 616.491 777.047 617.971 778.833 619.497C783.652 619.324 803.113 618.732 806.256 621.254C803.361 627.187 769.293 613.155 777.12 633.871C779.505 640.184 786.667 647.764 793.381 649.059L794.278 648.618C794.317 646.83 794.575 645.63 793.606 644.177C789.42 643.999 790.919 644.444 787.455 641.426L787.21 640.323C793.242 640.759 799.607 643.27 805.309 645.322C812.98 659.378 820.039 673.435 835.62 680.437C839.262 682.073 847.168 683.805 849.506 686.007C859.771 695.68 869.879 707.133 879.646 717.367C883.573 721.482 896.53 734.339 899.2 738.144L896.5 738.723C893.797 738.891 886.952 738.856 885.06 739.33C882.755 738.792 881.783 737.237 879.819 735.385C878.349 731.401 876.483 722.44 876.861 718.276L874.542 715.967C863.029 706.592 855.3 689.216 840.382 685.231L837.239 683.883C825.47 681.464 817.458 667.541 812.725 664.736C811.549 662.053 811.369 661.155 809.198 659.216C807.57 655.131 803.574 644.346 797.973 645.924C796.729 648.33 797.242 648.744 797.462 651.732L795.06 652.589C793.831 652.229 792.614 651.831 791.41 651.395C778.788 646.768 770.443 635.799 775.808 622.176C775.368 621.276 774.94 620.371 774.523 619.461C770.58 610.799 771.568 606.984 774.811 598.25C773.132 588.024 770.399 582.141 780.453 574.795C780.396 559.04 783.751 547.86 802.594 550.529L804.138 550.011Z"/><path fill="#A487CE" d="M879.819 735.385C878.349 731.401 876.483 722.44 876.861 718.276C883.161 725.049 890.569 732.089 896.5 738.723C893.797 738.891 886.952 738.856 885.06 739.33C882.755 738.792 881.783 737.237 879.819 735.385Z"/><path fill="#E6CCB3" d="M858.035 399.27C866.65 394.302 900.273 405.2 905.898 415.038C906.266 415.685 906.626 416.338 906.976 416.995C903.799 415.797 903.478 415.259 901.145 412.8C896.238 412.367 893.631 411.701 888.978 413.288C864.441 433.922 846.553 492.724 838.148 523.138C835.235 533.678 833.096 545.538 830.244 555.899L828.657 555.602L827.949 553.803L827.243 554.836L824.82 554.828C822.328 554.039 818.807 553.318 816.192 552.7L811.893 551.927C808.906 551.392 806.974 551.176 804.138 550.011L802.594 550.529C802.3 546.018 804.941 531.146 805.973 526.587C813.83 491.879 829.181 426.317 855.383 401.685L858.035 399.27Z"/><path fill="#492C1E" d="M858.035 399.27C866.65 394.302 900.273 405.2 905.898 415.038C906.266 415.685 906.626 416.338 906.976 416.995C903.799 415.797 903.478 415.259 901.145 412.8C896.238 412.367 893.631 411.701 888.978 413.288C864.441 433.922 846.553 492.724 838.148 523.138C835.235 533.678 833.096 545.538 830.244 555.899L828.657 555.602L827.949 553.803C833.192 537.648 835.83 518.815 841.381 501.978C848.528 480.3 855.63 461.918 865.255 441.228C870.539 431.885 879.457 413.874 890.573 409.835C891.777 409.397 894.068 410.112 896.159 409.709C890.711 407.149 866.889 398.986 861.989 400.789C849.318 405.452 836.586 434.792 831.713 446.801C822.262 470.776 814.864 495.51 809.6 520.738C807.644 529.957 806.145 541.431 804.138 550.011L802.594 550.529C802.3 546.018 804.941 531.146 805.973 526.587C813.83 491.879 829.181 426.317 855.383 401.685L858.035 399.27Z"/><path fill="#C7A88F" d="M824.82 554.828C826.805 546.866 828.05 538.01 830.081 529.838C837.014 501.947 845.45 475.842 857.669 449.775C859.545 445.774 861.069 442.678 865.255 441.228C855.63 461.918 848.528 480.3 841.381 501.978C835.83 518.815 833.192 537.648 827.949 553.803L827.243 554.836L824.82 554.828Z"/><path fill="#B8957A" d="M811.893 551.927L813.412 551.305C815.695 544.176 821.564 506.148 825.332 503.522C826.796 507.467 822.617 517.394 821.729 521.808C819.706 531.86 817.177 542.498 816.192 552.7L811.893 551.927Z"/><path fill="#C7A88F" d="M873.019 418.304L874.221 419.562C873.735 420.949 868.883 425.781 867.354 427.603C866.757 427.647 867.151 427.676 866.282 427.099C867.387 423.058 869.762 420.69 873.019 418.304Z"/><path fill="#5F4499" d="M901.145 412.8C903.478 415.259 903.799 415.797 906.976 416.995C918.434 423.19 930.308 431.772 937.809 442.767C962.973 479.649 974.937 527.378 988.678 569.45C994.462 587.157 999.739 603.7 1005.91 621.19C1006.35 622.459 1006.78 624.505 1006.83 625.826L1008.15 628.03C1009.41 631.603 1011.44 636.837 1012.14 640.414L1013.22 642.636C1026.69 682.645 1040.1 725.772 1019.78 766.641C1018.47 769.221 1017.11 771.776 1015.7 774.303C1012.22 778.565 1009.06 782.138 1004.82 785.535C976.233 808.422 934.909 792.047 909.269 772.458C906.795 769.709 904.772 765.375 901.942 763.046C898.982 760.612 895.81 758.136 892.78 755.818C884.811 749.72 879.869 744.859 876.592 735.322L876.273 733.097C874.899 728.344 874.711 724.758 874.353 719.836L874.542 715.967L876.861 718.276C876.483 722.44 878.349 731.401 879.819 735.385C882.476 746.453 895.797 753.855 903.442 761.388C908.213 766.089 912.017 771.047 917.627 774.891C925.056 780.336 933.309 784.048 941.589 787.523C974.444 801.314 1007.97 793.358 1020.69 757.467C1026.24 741.809 1028.89 723.628 1026.8 706.666C1022 667.536 1004.82 630.651 993.545 593.098C981.353 554.672 970.07 515.634 954.252 478.68C945.07 457.23 932.153 434.253 911.154 422.782C903.957 418.854 896.609 416.199 888.978 413.288C893.631 411.701 896.238 412.367 901.145 412.8Z"/><path fill="#B598DB" d="M872.342 587.323C875.3 593.799 892.92 638.672 892.975 644.028C888.033 641.03 875.165 633.798 872.211 629.334C874.638 614.287 870.007 600.88 872.342 587.323Z"/><path fill="#B598DB" d="M930.97 653.243C944.385 646.634 984.828 639.412 991.829 656.47C988.674 656.709 983.193 654.879 979.996 653.847C967.201 649.716 952.796 651.184 940.759 657.426C937.878 656.544 933.82 654.545 930.97 653.243Z"/><path fill="#5F4499" d="M913.641 655.852C921.415 656.805 925.36 667.155 926.866 673.735C932.566 698.643 925.956 724.319 904.201 738.793L901.805 736.354C926.058 725.205 933 682.479 918.335 661.669C916.942 658.82 915.871 657.997 913.641 655.852Z"/><path fill="#5F4499" d="M906.815 651.867C915.364 647.961 922.303 650.307 930.97 653.243C933.82 654.545 937.878 656.544 940.759 657.426C950.77 663.02 953.733 661.721 964.769 664.473C971.58 666.172 976.638 668.657 982.667 672.121C980.552 673.05 980.436 672.977 978.072 672.627C969.249 668.365 961.133 665.838 951.487 664.307C935.831 661.822 926.193 648.987 909.259 653.337L906.815 651.867Z"/><path fill="#5F4499" d="M871.487 576.8C879.935 598.206 890.754 624.94 897.43 646.924C896.102 646.164 894.294 644.894 892.975 644.028C892.92 638.672 875.3 593.799 872.342 587.323C871.635 585.015 870.219 581.5 869.36 579.154L871.487 576.8Z"/><path fill="#B598DB" d="M982.667 672.121C989.05 673.586 1000.94 684.086 1002.22 690.348L1001.37 690.781C1001.03 690.641 979.748 674.172 978.072 672.627C980.436 672.977 980.552 673.05 982.667 672.121Z"/><path fill="#B598DB" d="M869.36 579.154C866.876 576.628 861.246 563.101 863.057 559.694C866.153 561.094 870.087 573.152 871.487 576.8L869.36 579.154Z"/><path fill="#5F4499" d="M899.2 738.144L901.805 736.354L904.201 738.793C897.587 741.296 891.697 743.288 885.06 739.33C886.952 738.856 893.797 738.891 896.5 738.723L899.2 738.144Z"/><path fill="#C3A8E4" d="M913.465 735.08C918.54 735.657 936.587 749.692 940.833 753.488C942.866 751.304 944.437 749.376 946.93 747.732L946.954 748.861C943.951 751.95 942.431 753.632 938.918 756.071C933.887 752.384 915.672 739.35 913.465 735.08Z"/><path fill="#C3A8E4" d="M929.314 718.355C935.739 719.456 952.878 727.327 953.895 734.358C951.146 734.095 930.548 720.835 929.314 718.355Z"/><path fill="#B598DB" d="M941.494 673.252C946.454 673.812 952.804 675.386 954.846 680.413C949.78 679.268 943.585 678.433 941.494 673.252Z"/><path fill="#795436" d="M797.462 651.732C797.242 648.744 796.729 648.33 797.973 645.924C803.574 644.346 807.57 655.131 809.198 659.216C811.369 661.155 811.549 662.053 812.725 664.736C817.458 667.541 825.47 681.464 837.239 683.883L840.382 685.231C855.3 689.216 863.029 706.592 874.542 715.967L874.353 719.836C874.711 724.758 874.899 728.344 876.273 733.097L876.592 735.322L872.261 738.176L861.442 744.65C863.919 751.418 866.651 758.485 868.652 765.371C866.007 767.984 858.171 773.803 854.749 774.903C846.773 777.467 843.617 762.594 841.445 756.252C824.653 766.17 811.219 777.382 790.988 778.791C786.972 779.071 782.582 780.953 779.583 778.01L779.543 776.385L780.177 772.912C783.86 768.463 803.64 757.59 808.982 754.586L812.369 752.337C809.137 740.183 807.172 724.633 805.364 712.038C802.298 691.995 799.663 671.888 797.462 651.732Z"/><path fill="#C7A88F" d="M797.462 651.732C797.242 648.744 796.729 648.33 797.973 645.924C803.574 644.346 807.57 655.131 809.198 659.216C810.804 665.456 812.537 672.1 814.527 678.228C821.469 699.603 821.451 722.663 826.573 744.484L828.497 743.855C830.709 749.635 830.269 753.55 831.65 758.709L828.988 760.546C824.586 763.36 819.951 766.446 815.496 769.118L813.969 769.999C812.803 766.368 811.223 756.315 808.982 754.586L812.369 752.337C809.137 740.183 807.172 724.633 805.364 712.038C802.298 691.995 799.663 671.888 797.462 651.732Z"/><path fill="#B8957A" d="M812.369 752.337C813.196 757.17 814.242 764.583 815.496 769.118L813.969 769.999C812.803 766.368 811.223 756.315 808.982 754.586L812.369 752.337Z"/><path fill="#B8957A" d="M826.573 744.484L828.497 743.855C830.709 749.635 830.269 753.55 831.65 758.709L828.988 760.546C828.677 755.904 827.243 749.369 826.573 744.484Z"/><path fill="#E6CCB3" d="M818.434 681.087C821.973 682.474 835.553 695.877 842.442 699.718C849.951 721.577 857.895 743.284 866.272 764.826C860.486 768.808 857.091 770.824 850.832 773.898C849.288 770.264 847.863 766.598 846.56 762.871C837.058 735.691 826.652 708.693 818.434 681.087Z"/><path fill="#B598DB" d="M840.382 685.231C855.3 689.216 863.029 706.592 874.542 715.967L874.353 719.836L873.349 717.656L872.24 717.055C869.223 716.743 857.804 723.977 854.591 725.849C849.734 714.177 844.517 697.397 840.382 685.231Z"/><path fill="#C7A88F" d="M808.982 754.586C811.223 756.315 812.803 766.368 813.969 769.999C804.53 774.311 789.965 778.211 779.543 776.385L780.177 772.912C783.86 768.463 803.64 757.59 808.982 754.586Z"/><path fill="#C7A88F" d="M873.349 717.656L874.353 719.836C874.711 724.758 874.899 728.344 876.273 733.097C871.924 734.878 864.743 739.492 860.483 742.055C858.719 737.524 857.028 732.966 855.409 728.381C859.09 726.451 871.712 720.425 873.349 717.656Z"/><path fill="#C7A88F" d="M812.725 664.736C817.458 667.541 825.47 681.464 837.239 683.883C838.705 688.446 840.715 695.445 842.442 699.718C835.553 695.877 821.973 682.474 818.434 681.087C816.88 677.609 814.08 668.694 812.725 664.736Z"/><path fill="#C7A88F" d="M828.497 743.855C830.804 742.245 832.578 740.955 835.099 739.642C837.149 744.479 838.822 748.589 840.57 753.581L831.65 758.709C830.269 753.55 830.709 749.635 828.497 743.855Z"/><path fill="#B598DB" d="M823.07 705.556C825.326 709.319 832.947 731.978 834.1 736.748L833.287 737.976C831.459 739.164 831.326 739.192 829.256 739.946C827.178 737.758 823.563 710.44 823.07 705.556Z"/><path fill="#795436" d="M1006.83 625.826C1014.4 622.919 1039.27 614.27 1043.44 618.557C1049.21 624.491 1060.21 665.066 1062.93 673.199C1071.27 697.553 1080.4 721.63 1090.29 745.394C1098.86 766.063 1108.21 787.046 1117.85 807.366C1132.99 839.289 1159.34 899.992 1125.77 928.816C1103.12 948.27 1074.06 967.681 1049.02 984.411C1029.67 997.353 1010.07 1009.91 990.22 1022.07C974.798 1031.57 951.037 1046.62 933.736 1051.95C912.465 1058.51 870.547 1064.95 849.734 1054.65C840.226 1049.95 834.051 1040.49 830.012 1030.99C827.756 1024.36 825.669 1017 823.623 1010.26L823.003 1007.96C819.126 991.028 815.489 975.288 812.433 958.19L811.492 954.532C804.205 917.546 794.808 863.822 784.015 828.561C782.137 819.056 771.892 784.17 773.888 777.423C776.695 767.934 799.973 756.507 808.766 751.319C804.047 724.94 796.695 678.439 795.06 652.589L797.462 651.732C799.663 671.888 802.298 691.995 805.364 712.038C807.172 724.633 809.137 740.183 812.369 752.337L808.982 754.586C803.64 757.59 783.86 768.463 780.177 772.912C778.757 774.177 775.616 776.875 775.89 778.564C779.038 797.986 786.463 825.916 790.878 844.24C798.239 875.034 804.846 906.003 810.692 937.12C815.627 962.155 820.321 987.335 826.969 1011.99C829.981 1023.17 833.233 1033.17 840 1042.8C846.123 1051.51 855.631 1055.24 865.965 1056.51C884.843 1058.83 917.341 1055.27 935.174 1048.73C949.953 1043.32 974.186 1028.49 988.104 1019.97C1030.14 994.234 1071.96 966.368 1111.47 936.872C1125.25 926.56 1136.17 917.55 1138.28 899.359C1142.7 861.139 1123.14 826.151 1107.91 792.58C1095.78 766.508 1084.57 740.012 1074.32 713.141C1069.21 699.564 1064.33 685.895 1059.7 672.143C1056.92 663.861 1044.9 623.378 1042.09 619.775C1030 620.76 1019.62 624.256 1008.15 628.03L1006.83 625.826Z"/><path fill="#C7A88F" d="M876.592 735.322C879.869 744.859 884.811 749.72 892.78 755.818C895.81 758.136 898.982 760.612 901.942 763.046C904.772 765.375 906.795 769.709 909.269 772.458C934.909 792.047 976.233 808.422 1004.82 785.535C1009.06 782.138 1012.22 778.565 1015.7 774.303C1012.78 800.868 984.13 817.738 958.654 810.983C920.854 800.96 892.414 770.016 872.261 738.176L876.592 735.322Z"/><path fill="#C7A88F" d="M1008.15 628.03C1019.62 624.256 1030 620.76 1042.09 619.775C1040.3 620.79 1040.57 620.213 1039.74 621.636C1029.34 629.073 1023.64 633.44 1012.14 640.414C1011.44 636.837 1009.41 631.603 1008.15 628.03Z"/><path fill="#795436" d="M1012.14 640.414C1023.64 633.44 1029.34 629.073 1039.74 621.636C1037.87 629.848 1020.49 638.458 1013.22 642.636L1012.14 640.414Z"/><path fill="#C7A88F" d="M910.905 1015.6C906.781 1008.82 900.156 992.593 896.88 984.73L875.435 932.558L846.455 860.964C838.8 842.279 830.465 824.435 824.291 804.948L824.692 804.772C827.838 810.405 829.921 815.908 832.491 821.777C860.227 885.109 884.708 950.086 912.671 1013.32L910.905 1015.6Z"/><path fill="#C7A88F" d="M1113.36 910.577C1114.12 911.107 1113.81 910.725 1114.07 911.877C1111.84 914.501 1085.78 932.136 1081.37 935.054C1043.27 960.276 1004.87 988.222 966.1 1012.1L965.354 1011.32C966.207 1008.24 987.15 995.33 991.135 992.644L1039.6 959.761C1063.41 943.733 1089.1 925.389 1113.36 910.577Z"/><path fill="#C7A88F" d="M912.671 1013.32C916.219 1020.52 923.143 1027.4 924.632 1031.65C918.321 1026.57 914.445 1023.13 910.905 1015.6L912.671 1013.32Z"/><path fill="#D3BBEC" d="M661.978 394.086C669.511 390.613 673.323 388.799 681.487 389.114C676.782 395.111 672.345 393.712 668.116 401.18C662.043 411.922 658.328 425.922 654.889 437.833L654.779 439.115C652.594 448.066 643.987 487.845 644.548 495.042L640.944 497.208C636.729 503.409 631.888 512.405 627.822 517.719C619.968 527.985 611.377 535.611 604.833 547.412C597.206 561.165 593.735 576.1 587.014 590.091C583.849 596.677 576.549 603.852 572.244 610.105C571.423 611.24 570.854 612.18 569.837 613.133C569.18 613.964 567.618 616.164 566.84 616.536C566.182 618.592 565.404 620.606 565.209 622.738C562.822 634.96 567.768 650.817 574.787 660.758C582.809 672.119 589.992 676.809 602.895 680.663L605.981 680.092C607.937 680.222 611.173 680.314 612.947 680.829L616.169 679.217L616.948 679.985C617.926 675.26 618.203 667.394 615.667 663.054L617.261 659.72C621.724 651.812 624.96 640.942 632.369 637.226C632.166 649.681 631.869 662.134 631.48 674.584C631.35 679.311 631.413 688.946 630.758 693.073C630.196 719.076 629.442 745.075 628.497 771.067C628.236 779.918 627.246 797.489 627.765 805.727C628.551 814.337 626.91 821.017 629.212 829.475C629.47 838.51 629.226 852.767 628.21 861.752L628.57 864.145C669.041 872.9 689.805 873.811 730.161 872.272C735.439 871.707 740.726 871.236 746.021 870.86C746.937 873.085 746.812 873.81 746.905 876.279C748.801 905.823 750.928 935.351 753.286 964.862C754.025 973.576 755.788 1010.33 761.277 1014.04C773.866 1022.52 810.352 1013.96 823.623 1010.26C825.669 1017 827.756 1024.36 830.012 1030.99C803.478 1034.9 777.14 1038.24 750.314 1039.34C739.624 1039.82 728.924 1040.07 718.223 1040.06C713.098 1040.08 704.152 1039.81 699.292 1040.19L697.732 1039.95C694.97 1039.96 691.677 1039.76 688.873 1039.66C653.532 1039.32 614.393 1034.58 579.785 1027.97C567.025 1025.54 555 1021.79 542.404 1019.06C542.232 1009.32 542.393 999.194 542.411 989.422C527.49 979.028 528.773 974.312 529.751 957.791C533.31 897.648 546.078 840.121 555.82 780.813C513.722 804.873 482.777 781.191 472.417 737.162C464.188 702.187 476.542 675.397 488.353 643.155C494.749 625.704 500.921 608.172 506.868 590.563C513.311 571.489 519.505 552.332 525.447 533.096C531.938 512.498 538.08 494.75 546.286 475.51C563.956 434.079 592.973 425.235 631.543 410.937C639.274 408.071 650.328 400.948 657.654 396.416L661.978 394.086Z"/><path fill="#223A62" d="M628.57 864.145C669.041 872.9 689.805 873.811 730.161 872.272C735.439 871.707 740.726 871.236 746.021 870.86C746.937 873.085 746.812 873.81 746.905 876.279C748.801 905.823 750.928 935.351 753.286 964.862C754.025 973.576 755.788 1010.33 761.277 1014.04C773.866 1022.52 810.352 1013.96 823.623 1010.26C825.669 1017 827.756 1024.36 830.012 1030.99C803.478 1034.9 777.14 1038.24 750.314 1039.34C739.624 1039.82 728.924 1040.07 718.223 1040.06C713.098 1040.08 704.152 1039.81 699.292 1040.19L697.732 1039.95C694.97 1039.96 691.677 1039.76 688.873 1039.66C653.532 1039.32 614.393 1034.58 579.785 1027.97C567.025 1025.54 555 1021.79 542.404 1019.06C542.232 1009.32 542.393 999.194 542.411 989.422C557.989 1001.32 575.942 1009.72 595.053 1014.07C602.197 1015.62 609.65 1016.71 616.103 1012.58C617.788 1010.11 619.343 1005.38 619.561 1002.39C621.995 969.008 625.019 934.976 626.431 901.533C626.844 895.223 627.116 888.905 627.246 882.583C627.805 878.991 628.133 868.702 628.57 864.145Z"/><path fill="#192E4E" d="M671.072 1007.73C676.682 1010.32 689.824 1017.4 694.77 1020.95C695.419 1027.86 696.009 1033.08 697.732 1039.95C694.97 1039.96 691.677 1039.76 688.873 1039.66C690.883 1038.96 690.222 1039.6 691.119 1037.93C689.612 1030.84 673.754 1015.44 671.072 1007.73Z"/><path fill="#192E4E" d="M746.021 870.86C746.937 873.085 746.812 873.81 746.905 876.279C746.472 882.839 741.155 883.766 735.795 881.334C731.569 879.416 731.28 876.472 730.161 872.272C735.439 871.707 740.726 871.236 746.021 870.86Z"/><defs><linearGradient id="gradient_0" gradientUnits="userSpaceOnUse" x1="678.42047" y1="1024.198" x2="686.87231" y2="1012.674"><stop offset="0" stop-color="#090E1B"/><stop offset="1" stop-color="#12243B"/></linearGradient></defs><path fill="url(#gradient_0)" d="M665.658 1000.76C674.357 1005.63 688.592 1014.63 696.858 1018.69C697.814 1025.37 699.345 1033.61 699.292 1040.19L697.732 1039.95C696.009 1033.08 695.419 1027.86 694.77 1020.95C689.824 1017.4 676.682 1010.32 671.072 1007.73C669.466 1006.02 667.287 1004.64 665.342 1003.26L665.658 1000.76Z"/><path fill="#192E4E" d="M665.342 1003.26C655.881 997.755 640.592 989.364 633.531 981.339C643.565 986.227 656.456 994.46 665.658 1000.76L665.342 1003.26Z"/><path fill="#192E4E" d="M666.973 871.499C669.037 873.225 668.591 879.239 668.625 882.027C669.106 921.036 666.461 963.763 682.91 1000.06C684.787 1004.2 686.872 1008.01 688.475 1012.06L688.687 1012.6C667.135 997.251 663.654 897.182 666.973 871.499Z"/><path fill="#D3BBEC" d="M632.369 637.226C632.166 649.681 631.869 662.134 631.48 674.584C631.35 679.311 631.413 688.946 630.758 693.073C630.196 719.076 629.442 745.075 628.497 771.067C628.236 779.918 627.246 797.489 627.765 805.727C628.551 814.337 626.91 821.017 629.212 829.475C629.47 838.51 629.226 852.767 628.21 861.752L628.57 864.145C628.133 868.702 627.805 878.991 627.246 882.583C626.053 872.607 627.243 859.534 626.33 848.96C624.692 862.878 624.347 887.372 623.525 902.332L619.153 968.674C618.754 974.862 617.858 1010.6 612.678 1011.65C590.045 1016.24 543.247 993.938 531.749 974.026C531.214 964.98 533.63 945.795 534.59 936.281C538.961 893.104 545.508 850.175 554.206 807.658C569.397 794.616 588.934 761.669 590.645 741.667C594.292 734.166 598.345 726.525 600.593 718.528C602.838 697.325 628.405 690.716 617.261 659.72C621.724 651.812 624.96 640.942 632.369 637.226Z"/><path fill="#B598DB" d="M632.369 637.226C632.166 649.681 631.869 662.134 631.48 674.584C631.35 679.311 631.413 688.946 630.758 693.073C630.143 685.452 630.693 676.076 630.934 668.276C623.717 686.987 617.849 705.607 600.593 718.528C602.838 697.325 628.405 690.716 617.261 659.72C621.724 651.812 624.96 640.942 632.369 637.226Z"/><path fill="#5F4499" d="M626.33 848.96C626.316 839.641 626.699 814.42 627.765 805.727C628.551 814.337 626.91 821.017 629.212 829.475C629.47 838.51 629.226 852.767 628.21 861.752L628.57 864.145C628.133 868.702 627.805 878.991 627.246 882.583C626.053 872.607 627.243 859.534 626.33 848.96Z"/><path fill="#B598DB" d="M546.711 934.602C544.244 932.954 542.774 932.231 541.266 929.614L541.882 929.182C544.894 930.305 545.939 931.615 548.382 933.427C564.268 945.21 582.945 952.638 602.137 957.03C604.014 957.459 607.823 958.504 608.918 960.159C605.557 961.714 588.534 956.372 584.276 955.028C584.088 959.276 581.363 995.563 580.517 996.674C578.487 993.005 580.658 962.325 582.088 957.487C582.357 956.559 582.669 955.645 583.021 954.745C580.437 953.705 565.039 947.168 563.595 946.863L561.326 945.611C557.357 942.225 552.936 940.254 548.222 935.921C547.91 935.232 547.523 935.179 546.711 934.602Z"/><path fill="#C3A8E4" d="M546.711 934.602C547.523 935.179 547.91 935.232 548.222 935.921C546.464 943.107 544.405 968.701 542.865 978.8C541.726 970.336 543.122 941.647 546.711 934.602Z"/><path fill="#B598DB" d="M603.291 962.013C603.335 962.138 603.762 963.53 603.758 963.809C603.573 976.478 602.898 989.472 601.951 1002.12C601.385 1002.92 600.936 1003.56 600.604 1004.03C598.592 999.568 601.332 967.007 603.291 962.013Z"/><path fill="#C3A8E4" d="M561.326 945.611L563.595 946.863C563.843 952.36 561.503 983.258 560.161 988.458C558.848 985.752 561.028 950.841 561.326 945.611Z"/><path fill="#5F4499" d="M661.978 394.086C669.511 390.613 673.323 388.799 681.487 389.114C676.782 395.111 672.345 393.712 668.116 401.18C662.043 411.922 658.328 425.922 654.889 437.833L654.779 439.115C652.594 448.066 643.987 487.845 644.548 495.042L640.944 497.208C645.082 472.195 653.199 407.311 673.499 391.985C657.904 397.741 651.206 405.443 639.904 410.478C598.709 428.831 570.707 429.18 549.382 475.496C539.757 496.401 534.007 515.299 526.972 537.283C520.469 557.833 513.766 578.319 506.864 598.738C501.445 614.658 495.799 630.5 489.93 646.26C483.272 664.147 476.046 681.706 473.058 700.317C468.56 728.324 479.911 772.129 507.708 784.178C545.474 800.549 579.702 759.95 593.665 729.166C596.471 722.98 597.416 716.683 599.495 710.315C600.376 707.761 604.113 703.079 605.457 700.596C607.343 698.281 610.396 693.155 612.115 690.439C614.497 686.217 615.293 684.524 616.948 679.985C617.926 675.26 618.203 667.394 615.667 663.054L617.261 659.72C628.405 690.716 602.838 697.325 600.593 718.528C598.345 726.525 594.292 734.166 590.645 741.667C588.934 761.669 569.397 794.616 554.206 807.658C545.508 850.175 538.961 893.104 534.59 936.281C533.63 945.795 531.214 964.98 531.749 974.026C543.247 993.938 590.045 1016.24 612.678 1011.65C617.858 1010.6 618.754 974.862 619.153 968.674L623.525 902.332C624.347 887.372 624.692 862.878 626.33 848.96C627.243 859.534 626.053 872.607 627.246 882.583C627.116 888.905 626.844 895.223 626.431 901.533C625.019 934.976 621.995 969.008 619.561 1002.39C619.343 1005.38 617.788 1010.11 616.103 1012.58C609.65 1016.71 602.197 1015.62 595.053 1014.07C575.942 1009.72 557.989 1001.32 542.411 989.422C527.49 979.028 528.773 974.312 529.751 957.791C533.31 897.648 546.078 840.121 555.82 780.813C513.722 804.873 482.777 781.191 472.417 737.162C464.188 702.187 476.542 675.397 488.353 643.155C494.749 625.704 500.921 608.172 506.868 590.563C513.311 571.489 519.505 552.332 525.447 533.096C531.938 512.498 538.08 494.75 546.286 475.51C563.956 434.079 592.973 425.235 631.543 410.937C639.274 408.071 650.328 400.948 657.654 396.416L661.978 394.086Z"/><path fill="#B598DB" d="M590.645 741.667C588.934 761.669 569.397 794.616 554.206 807.658L558.78 778.835C573.516 767.508 580.934 756.969 590.645 741.667Z"/><path fill="#5F4499" d="M566.332 531.803C567.594 528.841 568.191 526.747 570.53 524.552L570.357 525.567C569.023 533.103 564.857 545.175 562.591 552.918C555.683 576.525 553.959 592.437 556.245 616.508C561.84 612.551 565.108 610.221 572.244 610.105C571.423 611.24 570.854 612.18 569.837 613.133C556.084 615.212 549.376 629.792 539.977 638.59C537.976 640.464 530.745 643.893 528.238 645.967C517.723 654.669 506.116 664.101 497.792 674.895C495.392 678.006 489.607 688.327 488.043 689.229C484.581 680.345 508.711 658.956 515.546 652.853L512.454 652.424C513.884 651.876 513.889 651.801 515.122 650.86C514.667 649.803 514.309 648.888 513.91 647.808C517.011 646.975 519.884 646.436 523.097 646.435C524.111 645.827 527.834 642.61 528.959 641.678C532.829 639.153 534.321 638.023 538.674 636.6C543.643 630.194 548.289 625.057 553.874 619.227C548.159 589.093 557.072 559.946 566.332 531.803Z"/><path fill="#C3A8E4" d="M513.91 647.808C517.011 646.975 519.884 646.436 523.097 646.435L515.546 652.853L512.454 652.424C513.884 651.876 513.889 651.801 515.122 650.86C514.667 649.803 514.309 648.888 513.91 647.808Z"/><path fill="#5F4499" d="M612.947 680.829C608.999 683.81 606.193 683.361 601.504 682.723C575.698 679.21 558.365 646.084 562.783 622.054C563.13 620.17 564.192 616.506 565.812 615.445L566.84 616.536C566.182 618.592 565.404 620.606 565.209 622.738C562.822 634.96 567.768 650.817 574.787 660.758C582.809 672.119 589.992 676.809 602.895 680.663L605.981 680.092C607.937 680.222 611.173 680.314 612.947 680.829Z"/><path fill="#B598DB" d="M498.128 653.001C503.876 644.882 519.743 642.981 528.959 641.678C527.834 642.61 524.111 645.827 523.097 646.435C519.884 646.436 517.011 646.975 513.91 647.808C508.622 650.048 504.248 652.066 498.622 653.423L498.128 653.001Z"/><path fill="#C3A8E4" d="M566.435 522.519C566.148 517.466 565.052 494.009 566.776 490.803C568.515 491.263 568.268 495.879 570.416 498.407C569.541 503.753 566.922 517.934 566.435 522.519Z"/><path fill="#A487CE" d="M570.416 498.407C570.75 507.437 570.909 515.503 570.53 524.552C568.191 526.747 567.594 528.841 566.332 531.803L566.435 522.519C566.922 517.934 569.541 503.753 570.416 498.407Z"/><path fill="#C3A8E4" d="M498.128 653.001L498.622 653.423C504.248 652.066 508.622 650.048 513.91 647.808C514.309 648.888 514.667 649.803 515.122 650.86C513.889 651.801 513.884 651.876 512.454 652.424C508.034 653.489 501.363 658.158 497.372 656.286L497.07 654.33L498.128 653.001Z"/><path fill="#C3A8E4" d="M605.457 700.596C605.382 697.612 606.727 689.44 609.154 687.394C611.365 688.078 610.619 687.747 612.115 690.439C610.396 693.155 607.343 698.281 605.457 700.596Z"/><path fill="#B598DB" d="M536.668 642.979L537.494 643.621C538.772 645.963 536.822 655.331 536.892 659.044C537.369 678.678 547.025 699.391 563.93 710.086C567.653 712.441 576.853 714.446 579.327 717.541C553.275 718.493 532.025 680.96 534.796 657.955C535.482 652.263 534.693 648.759 536.668 642.979Z"/><path fill="#C3A8E4" d="M556.901 646.678L558.125 647.404C557.142 651.256 548.164 658.824 544.897 661.853C544.596 661.769 543.935 661.255 543.634 661.047C543.983 656.624 553.615 649.221 556.901 646.678Z"/><path fill="#D3BBEC" d="M796.033 377.235C802.387 376.067 806.668 375.136 812.368 378.959C830.276 387.97 840.582 391.648 858.035 399.27L855.383 401.685C829.181 426.317 813.83 491.879 805.973 526.587C804.941 531.146 802.3 546.018 802.594 550.529C783.751 547.86 780.396 559.04 780.453 574.795C770.399 582.141 773.132 588.024 774.811 598.25C771.568 606.984 770.58 610.799 774.523 619.461C774.94 620.371 775.368 621.276 775.808 622.176C770.443 635.799 778.788 646.768 791.41 651.395C792.614 651.831 793.831 652.229 795.06 652.589C796.695 678.439 804.047 724.94 808.766 751.319C799.973 756.507 776.695 767.934 773.888 777.423C771.892 784.17 782.137 819.056 784.015 828.561C794.808 863.822 804.205 917.546 811.492 954.532L812.433 958.19C815.489 975.288 819.126 991.028 823.003 1007.96L823.623 1010.26C810.352 1013.96 773.866 1022.52 761.277 1014.04C755.788 1010.33 754.025 973.576 753.286 964.862C750.928 935.351 748.801 905.823 746.905 876.279C746.812 873.81 746.937 873.085 746.021 870.86C747.175 868.075 746.522 863.853 745.983 860.964C745.649 855.937 745.389 850.905 745.205 845.87C745.338 842.921 744.85 840.121 744.473 837.186C744.667 827.562 743.627 813.321 743.242 803.394C742.459 783.484 741.878 763.565 741.499 743.643C740.754 707.649 739.292 651.992 742.695 617.25C747.856 564.572 768.617 489.694 786.711 439.358L787.882 435.305L791.041 426.394L792.972 421.174C795.874 412.277 802.008 392.38 805.648 384.685L804.888 381.087C803.481 381.04 802.512 380.43 801.14 379.848C799.834 379.402 797.34 377.942 796.033 377.235Z"/><path fill="#5F4499" d="M804.888 381.087L807.419 381.226L808.433 382.481C807.649 387.892 802.834 401.059 800.805 406.928C796.028 420.61 791.328 434.318 786.704 448.052C773.029 489.22 758.629 538.265 750.926 580.874C746.907 602.555 744.555 624.511 743.891 646.552C741.025 761.379 749.761 878.462 758.613 992.891C759.749 1007.59 759.404 1015.3 776.605 1014.84C789.138 1014.5 800.364 1013.28 812.664 1010.68C816.223 1009.6 819.383 1008.82 823.003 1007.96L823.623 1010.26C810.352 1013.96 773.866 1022.52 761.277 1014.04C755.788 1010.33 754.025 973.576 753.286 964.862C750.928 935.351 748.801 905.823 746.905 876.279C746.812 873.81 746.937 873.085 746.021 870.86C747.175 868.075 746.522 863.853 745.983 860.964C745.649 855.937 745.389 850.905 745.205 845.87C745.338 842.921 744.85 840.121 744.473 837.186C744.667 827.562 743.627 813.321 743.242 803.394C742.459 783.484 741.878 763.565 741.499 743.643C740.754 707.649 739.292 651.992 742.695 617.25C747.856 564.572 768.617 489.694 786.711 439.358L787.882 435.305L791.041 426.394L792.972 421.174C795.874 412.277 802.008 392.38 805.648 384.685L804.888 381.087Z"/><path fill="#B598DB" d="M784.015 828.561C794.808 863.822 804.205 917.546 811.492 954.532C809.001 955.136 805.025 955.637 803.099 956.635L802.667 956.51C802.518 948.89 799.724 934.446 798.398 926.583L788.662 867.508C786.897 856.36 783.859 839.293 784.015 828.561Z"/><path fill="#B598DB" d="M811.492 954.532L812.433 958.19C815.489 975.288 819.126 991.028 823.003 1007.96C819.383 1008.82 816.223 1009.6 812.664 1010.68C812.713 1004.55 805.091 962.504 802.539 959.525L803.788 959.456L803.099 956.635C805.025 955.637 809.001 955.136 811.492 954.532Z"/><path fill="#A487CE" d="M811.492 954.532L812.433 958.19C809.635 958.592 806.547 958.975 803.788 959.456L803.099 956.635C805.025 955.637 809.001 955.136 811.492 954.532Z"/><path fill="#B598DB" d="M794.466 960.837C788.458 961.695 772.969 962.048 766.849 961.911C767.95 961.094 799.05 956.742 802.667 956.51L803.099 956.635L803.788 959.456L802.539 959.525C801.228 959.804 799.995 960.128 798.699 960.459C795.497 965.858 803.14 992.734 801.172 1002.43L800.459 1002.84C798.553 999.79 795.388 967.557 794.466 960.837Z"/><path fill="#5F4499" d="M796.033 377.235C802.387 376.067 806.668 375.136 812.368 378.959C830.276 387.97 840.582 391.648 858.035 399.27L855.383 401.685C853.467 400.21 838.114 394.427 834.757 393.013C825.433 389.086 817.03 384.386 808.001 379.868C806.591 379.163 802.856 379.667 801.14 379.848C799.834 379.402 797.34 377.942 796.033 377.235Z"/><path fill="#B598DB" d="M772.967 965.636L773.689 966.294C775.355 970.661 778.184 1002.09 777.475 1006.72L776.296 1005.75C774.402 1001.81 771.609 970.319 772.967 965.636Z"/><path fill="#FEB27E" d="M644.548 495.042C655.684 499.425 652.124 511.419 649.576 520.461C662.389 512.746 675.264 505.211 689.308 499.908C698.128 496.578 711.204 491.701 711.32 506.032C722.482 506.915 735.505 496.419 728.215 520.048C738.418 534.862 724.897 536.414 719.588 546.783L720.36 547.136C725.142 549.359 726.937 552.752 724.198 557.881C716.496 572.301 702.402 582.428 691.129 593.936C683.145 602.019 674.679 611.699 665.602 618.479C658.89 623.492 643.402 633.855 635.587 635.701L632.369 637.226C624.96 640.942 621.724 651.812 617.261 659.72L615.667 663.054C618.203 667.394 617.926 675.26 616.948 679.985L616.169 679.217L612.947 680.829C611.173 680.314 607.937 680.222 605.981 680.092L602.895 680.663C589.992 676.809 582.809 672.119 574.787 660.758C567.768 650.817 562.822 634.96 565.209 622.738C565.404 620.606 566.182 618.592 566.84 616.536C567.618 616.164 569.18 613.964 569.837 613.133C570.854 612.18 571.423 611.24 572.244 610.105C576.549 603.852 583.849 596.677 587.014 590.091C593.735 576.1 597.206 561.165 604.833 547.412C611.377 535.611 619.968 527.985 627.822 517.719C631.888 512.405 636.729 503.409 640.944 497.208L644.548 495.042Z"/><path fill="#A14F23" d="M644.548 495.042C655.684 499.425 652.124 511.419 649.576 520.461C662.389 512.746 675.264 505.211 689.308 499.908C698.128 496.578 711.204 491.701 711.32 506.032C722.482 506.915 735.505 496.419 728.215 520.048C738.418 534.862 724.897 536.414 719.588 546.783L720.36 547.136C725.142 549.359 726.937 552.752 724.198 557.881C716.496 572.301 702.402 582.428 691.129 593.936C683.145 602.019 674.679 611.699 665.602 618.479C658.89 623.492 643.402 633.855 635.587 635.701L632.369 637.226C624.96 640.942 621.724 651.812 617.261 659.72L615.667 663.054C618.203 667.394 617.926 675.26 616.948 679.985L616.169 679.217L612.947 680.829C611.173 680.314 607.937 680.222 605.981 680.092L602.895 680.663C604.648 676.19 625.245 638.185 626.879 637.505C651.756 627.153 674.19 609.305 692.863 588.136C701.861 577.934 718.979 567.037 722.617 552.984C721.522 550.75 721.329 550.742 719.062 549.475C707.279 554.046 689.416 574.185 677.302 579.972L677.685 579.666L677.614 578.705C689.624 564.544 727.475 543.048 729.284 525.542C727.293 523.786 727.005 523.455 724.391 523.284C715.782 527.152 708.798 533.692 701.366 538.05C694.726 541.943 673.392 560.169 668.705 560.363L668.905 559.262C679.808 548.795 706.998 530.857 719.92 522.093L719.559 521.095C717.794 519.95 715.109 520.015 712.915 519.835C712.188 516.779 711.506 513.441 710.341 510.547C699.759 515.309 685.873 524.427 675.954 530.657C669.607 534.642 663.608 539.544 656.769 542.809L656.009 542.483C658.51 535.066 698.599 514.906 706.324 508.495C707.803 507.267 708.621 505.16 709.35 503.448C708 500.522 707.179 499.995 704.408 499.04C684.607 501.375 659.251 517.263 642.921 528.299C638.013 531.616 623.487 545.063 619.013 545.505L618.646 544.501C623.16 539.006 638.617 527.963 645.005 523.166C648.273 515.38 653.927 503.506 644.601 497.686C640.754 501.148 638.265 506.444 635.761 511.049C627.159 524.045 616.145 533.929 608.448 546.632C601.401 558.261 596.667 575.83 591.041 587.98C587.024 596.656 571.952 615.32 565.209 622.738C565.404 620.606 566.182 618.592 566.84 616.536C567.618 616.164 569.18 613.964 569.837 613.133C570.854 612.18 571.423 611.24 572.244 610.105C576.549 603.852 583.849 596.677 587.014 590.091C593.735 576.1 597.206 561.165 604.833 547.412C611.377 535.611 619.968 527.985 627.822 517.719C631.888 512.405 636.729 503.409 640.944 497.208L644.548 495.042Z"/><path fill="#E2895B" d="M710.341 510.547C713.623 508.503 717.991 507.187 721.762 506.409C725.613 507.147 726.42 507.682 728.205 511.132C726.879 516.254 724.767 519.551 719.92 522.093L719.559 521.095C717.794 519.95 715.109 520.015 712.915 519.835C712.188 516.779 711.506 513.441 710.341 510.547Z"/><path fill="#E6CCB3" d="M721.762 506.409C725.613 507.147 726.42 507.682 728.205 511.132C724.767 513.601 718.846 518.456 714.987 514.586L715.206 512.682C716.675 509.885 719.231 508.303 721.762 506.409Z"/><path fill="#A487CE" d="M615.667 663.054C618.203 667.394 617.926 675.26 616.948 679.985L616.169 679.217L612.947 680.829C611.173 680.314 607.937 680.222 605.981 680.092C609.031 675.369 612.798 668.127 615.667 663.054Z"/><path fill="#E6CCB3" d="M704.408 499.04C707.179 499.995 708 500.522 709.35 503.448C706.129 505.24 698.145 510.39 695.628 505.744C697.077 502.077 700.836 500.822 704.408 499.04Z"/><path fill="#FEFEFE" d="M724.391 523.284C727.005 523.455 727.293 523.786 729.284 525.542C725.936 528.69 725.335 531.538 720.2 532.264L719.248 531.405C719.587 527.86 721.89 526.117 724.391 523.284Z"/><path fill="#FEFEFE" d="M635.761 511.049C638.265 506.444 640.754 501.148 644.601 497.686C645.028 502.587 642.676 510.355 637.436 511.632L635.761 511.049Z"/><path fill="#FEFEFE" d="M719.062 549.475C721.329 550.742 721.522 550.75 722.617 552.984C721.165 553.872 715.129 559.369 712.812 561.164C714.731 555.671 715.822 554.329 719.062 549.475Z"/><path fill="#503694" d="M632.369 637.226L635.587 635.701C634.823 646.137 634.807 656.452 634.378 666.88C632.156 720.886 632.169 775.553 629.212 829.475C626.91 821.017 628.551 814.337 627.765 805.727C627.246 797.489 628.236 779.918 628.497 771.067C629.442 745.075 630.196 719.076 630.758 693.073C631.413 688.946 631.35 679.311 631.48 674.584C631.869 662.134 632.166 649.681 632.369 637.226Z"/><path fill="#B8BBC6" d="M628.21 861.752C639.958 863.394 651.787 866.013 663.504 867.559C683.635 870.216 704.259 870.746 724.533 869.704C729.169 869.466 741.308 868.947 745.447 867.561C746.224 865.168 746.018 863.472 745.983 860.964C746.522 863.853 747.175 868.075 746.021 870.86C740.726 871.236 735.439 871.707 730.161 872.272C689.805 873.811 669.041 872.9 628.57 864.145L628.21 861.752Z"/><path fill="#B8BBC6" d="M641.447 836.587C648.019 836.231 667.981 839.158 675.954 839.782C701.069 841.747 719.857 840.953 744.473 837.186C744.85 840.121 745.338 842.921 745.205 845.87C745.014 844.745 744.628 842.045 744.044 841.516C742.716 840.312 731.375 842.358 729.288 842.575C699.042 845.722 670.834 843.594 641.447 836.587Z"/><path fill="#5D3726" d="M561.631 238.358C551.228 254.873 545.421 274.653 560.191 290.917C562.52 293.482 567.283 296.541 568.584 299.42C562.185 302.66 547.626 283.98 545.365 278.92C530.66 246.016 563.109 219.64 577.185 193.722C579.014 190.354 579.683 177.589 580.228 172.867C581.179 164.453 583.01 156.163 585.691 148.131C597.771 112.566 633.514 83.6073 665.718 66.3311C693.963 51.1782 742.483 46.9018 758.902 81.1481C806.8 70.1884 837.874 124.884 849.027 163.68C853.058 177.701 851.242 190.922 857.358 205.366C867.456 229.211 896.803 238.998 895.5 267.675C894.868 279.936 890.492 287.68 881.837 295.855C883.055 297.66 884.299 299.513 885.472 301.337C901.165 325.746 892.53 348.707 867.472 360.327C873.843 347.75 873.551 341.616 866.983 329.131C867.618 332.65 868.362 336.573 868.056 340.123C865.583 368.812 843.732 382.078 817.672 381.015C823.016 375.051 823.886 373.351 826.633 365.751C823.092 370.196 817.873 376.673 812.353 378.287L812.368 378.959C806.668 375.136 802.387 376.067 796.033 377.235C797.34 377.942 799.834 379.402 801.14 379.848C802.512 380.43 803.481 381.04 804.888 381.087L805.648 384.685C802.008 392.38 795.874 412.277 792.972 421.174L791.041 426.394L787.882 435.305L786.711 439.358L786.003 439.87C750.404 465.389 684.299 480.822 654.779 439.115L654.889 437.833C658.328 425.922 662.043 411.922 668.116 401.18C672.345 393.712 676.782 395.111 681.487 389.114C673.323 388.799 669.511 390.613 661.978 394.086L657.654 396.416C647.196 392.986 643.729 391.251 635.073 384.57L627.982 376.019C630.014 380.388 631.238 383.167 633.901 387.133C635.96 389.06 639.525 391.429 640.119 393.198C638.759 394.371 638.886 394.401 637.135 394.673L635.455 395.068C632.365 395.327 630.29 395.317 627.189 394.968C616.417 393.719 606.599 388.194 599.94 379.636C591.821 369.204 591.327 359.062 592.848 346.538C589.169 352.432 586.404 357.991 586.621 365.177L586.66 366.23C586.798 370.407 589.819 374.014 591.472 378.371C587.985 380.684 584.242 379.134 580.947 377.147C560.753 364.967 558.548 345.377 569.182 326.135C563.521 326.158 552.988 326.568 550.838 319.833C553.128 315.053 558.77 322.075 564.308 318.464C579.998 308.236 576.351 295.435 567.638 282.035C558.426 267.869 557.207 254.517 561.631 238.358ZM881.572 292.326C888.236 283.228 890.679 276.145 889.28 264.522C888.72 259.865 885.429 251.496 881.968 248.569C885.573 258.498 885.848 269.33 882.752 279.429C881.586 283.258 878.054 289.924 879.948 293.187C880.981 292.819 880.927 293.02 881.572 292.326Z"/><path fill="#FEB27E" d="M692.651 110.573C699.94 110.504 715.289 110.71 717.727 119.415L716.059 122.285L722.46 123.474C725.232 123.706 731.624 124.388 734.096 124.246C735.458 123.965 737.434 123.243 738.329 123.758C747.119 125.473 753.764 129.072 758.505 136.887C768.493 153.354 768.444 160.435 782.043 175.365C798.999 193.98 826.989 187.939 831.567 215.013L830.916 215.797L831.658 216.286L831.594 215.648L831.208 216.306C830.27 214.897 829.52 213.711 828.655 212.257C830.422 230.481 827.299 241.24 816.22 255.922L817.099 258.572C818.236 263.569 818.364 265.917 815.111 270.411L811.32 270.207C806.093 270.584 805.117 269.812 802.734 265.304C802.233 264.874 800.9 264.403 800.215 264.116L799.629 262.373L798.371 261.818C796.919 262.634 793.154 278.487 792.156 281.536C790.579 286.52 788.408 291.297 785.691 295.764C774.466 314.28 750.243 335.833 728.895 340.871C709.455 345.459 696.653 338.649 680.58 328.988C645.241 307.747 640.407 280.411 631.799 243.366C630.603 237.078 629.834 227.367 629.126 220.771C638.789 213.52 643.967 206.695 650.824 197.052C652.776 192.757 655.13 189.079 657.159 184.405C665.039 166.327 667.052 150.69 676.741 130.468L682.045 127.913C680.963 127.106 680.807 127.02 679.931 126.008C681.31 119.824 687.994 114.681 692.651 110.573Z"/><path fill="#060402" d="M738.329 123.758C747.119 125.473 753.764 129.072 758.505 136.887C768.493 153.354 768.444 160.435 782.043 175.365C798.999 193.98 826.989 187.939 831.567 215.013L830.916 215.797L831.658 216.286L831.594 215.648L831.208 216.306C830.27 214.897 829.52 213.711 828.655 212.257C826.541 206.832 823.274 199.39 816.502 198.985C805.847 198.349 805.373 214.535 800.083 218.94L798.707 218.712C795.454 214.641 790.139 190.488 788.929 184.681C781.202 178.402 775.209 172.614 769.957 163.983C758.541 145.223 760.656 134.191 738.791 125.363L738.329 123.758Z"/><path fill="#492C1E" d="M791.413 186.199C800.772 190.866 809.55 192.403 817.105 196.122C813.521 197.3 806.991 200.655 805.915 200.946L805.694 202.087C803.376 207.854 801.885 211.67 800.178 217.705C798.174 212.258 797.086 208.34 795.638 202.801C794.793 200.572 794.22 197.302 793.706 194.901L791.413 186.199Z"/><path fill="#492C1E" d="M795.638 202.801L797.246 201.419C800.108 200.897 802.778 201.599 805.694 202.087C803.376 207.854 801.885 211.67 800.178 217.705C798.174 212.258 797.086 208.34 795.638 202.801Z"/><path fill="#2B1A12" d="M793.706 194.901C797.499 197.431 801.603 199.463 805.915 200.946L805.694 202.087C802.778 201.599 800.108 200.897 797.246 201.419L795.638 202.801C794.793 200.572 794.22 197.302 793.706 194.901Z"/><defs><linearGradient id="gradient_1" gradientUnits="userSpaceOnUse" x1="698.80798" y1="124.46069" x2="697.11731" y2="110.57536"><stop offset="0" stop-color="#1C0F0A"/><stop offset="1" stop-color="#4E2D1E"/></linearGradient></defs><path fill="url(#gradient_1)" d="M692.651 110.573C699.94 110.504 715.289 110.71 717.727 119.415L716.059 122.285C701.194 122.356 695.991 122.452 682.045 127.913C680.963 127.106 680.807 127.02 679.931 126.008C681.31 119.824 687.994 114.681 692.651 110.573Z"/><path fill="#492C1E" d="M657.159 184.405C663.864 182.451 678.642 178.607 683.273 185.767C683.691 189.271 682.323 190.692 678.878 191.749C669.829 194.526 659.701 193.38 650.824 197.052C652.776 192.757 655.13 189.079 657.159 184.405Z"/><path fill="#FDC850" d="M799.629 262.373C804.728 254.746 805.683 247.884 816.22 255.922L817.099 258.572C818.236 263.569 818.364 265.917 815.111 270.411L811.32 270.207C806.093 270.584 805.117 269.812 802.734 265.304C802.233 264.874 800.9 264.403 800.215 264.116L799.629 262.373Z"/><path fill="#CB8414" d="M799.629 262.373C804.728 254.746 805.683 247.884 816.22 255.922L817.099 258.572C818.236 263.569 818.364 265.917 815.111 270.411L811.32 270.207C816.268 265.757 816.691 262.037 812.902 256.529C809.108 255.178 809.015 254.898 805.439 257.091C803.026 260.568 803.267 261.242 802.734 265.304C802.233 264.874 800.9 264.403 800.215 264.116L799.629 262.373Z"/><path fill="#FEEDAB" d="M805.439 257.091C809.015 254.898 809.108 255.178 812.902 256.529C812.369 259.442 812.369 260.341 810.562 262.628L808.807 263.489C805.454 262.133 805.814 260.559 805.439 257.091Z"/><path fill="#E2895B" d="M749.659 273.817L751.487 271.279L752.446 271.477L753.289 273.737C750.496 276.481 749.379 277.407 746.176 279.663C742.519 287.852 734.828 294.603 726.477 297.719C717.079 301.123 706.721 300.716 697.619 296.586C692.367 294.155 690.384 292.429 686.629 288.22L682.366 286.682C680.936 284.929 681.109 285.829 681.222 284.059C683.642 283.541 683.066 283.845 685.912 285.321C691.341 284.926 697.633 282.436 703.269 281.336C716.992 278.656 731.027 278.545 744.319 277.022L749.659 273.817Z"/><path fill="#E2895B" d="M685.912 285.321C691.341 284.926 697.633 282.436 703.269 281.336C716.992 278.656 731.027 278.545 744.319 277.022C739.484 281.776 723.627 285.317 716.53 286.783C708.409 288.46 693.757 288.008 685.912 285.321Z"/><path fill="#A14F23" d="M749.659 273.817L751.487 271.279L752.446 271.477L753.289 273.737C750.496 276.481 749.379 277.407 746.176 279.663C725.459 287.909 709.956 293.351 686.629 288.22L682.366 286.682C680.936 284.929 681.109 285.829 681.222 284.059C683.642 283.541 683.066 283.845 685.912 285.321C693.757 288.008 708.409 288.46 716.53 286.783C723.627 285.317 739.484 281.776 744.319 277.022L749.659 273.817Z"/><path fill="#1B1817" d="M730.954 214.046C731.058 208.909 736.655 202.056 741.614 200.373C752.321 196.741 759.412 200.595 768.898 205.124C770.147 204.739 771.057 204.557 772.329 204.288L773.206 205.348C771.718 207.639 770.102 208.606 767.929 210.26C764.896 213.729 760.624 219.564 755.468 219.218C751.422 221.529 750.85 221.853 746.18 221.219C741.608 221.732 731.187 219.738 730.954 214.046Z"/><path fill="#060402" d="M730.954 214.046C731.058 208.909 736.655 202.056 741.614 200.373C752.321 196.741 759.412 200.595 768.898 205.124C770.147 204.739 771.057 204.557 772.329 204.288L773.206 205.348C771.718 207.639 770.102 208.606 767.929 210.26C763.499 206.643 761.143 205.376 755.934 203.199C752.255 202.19 746.232 201.771 742.806 203.73C737.134 207.235 735.462 209.174 730.954 214.046Z"/><path fill="#FEFEFE" d="M742.806 203.73C739.386 211.489 739.858 215.528 746.18 221.219C741.608 221.732 731.187 219.738 730.954 214.046C735.462 209.174 737.134 207.235 742.806 203.73Z"/><path fill="#FEFEFE" d="M755.934 203.199C761.143 205.376 763.499 206.643 767.929 210.26C764.896 213.729 760.624 219.564 755.468 219.218C759.307 212.317 757.869 210.315 755.934 203.199Z"/><path fill="#1B1817" d="M650.387 226.716C648.571 226.586 646.428 225.398 645.135 224.014L645.444 223.075C655.84 220.114 657.04 203.872 677.358 212.493C680.953 214.588 684.684 217.069 685.05 221.656C684.999 225.725 679.744 229.013 676.362 230.408C672.035 232.411 671.227 232.939 666.356 232.513C659.313 232.845 655.629 231.376 650.387 226.716Z"/><path fill="#FEFEFE" d="M650.387 226.716C648.571 226.586 646.428 225.398 645.135 224.014L645.444 223.075C655.84 220.114 657.04 203.872 677.358 212.493C671.391 214.148 669.035 211.657 663.58 214.522C663.129 215.624 662.694 216.731 662.273 217.844C659.916 224.032 661.614 228.246 666.356 232.513C659.313 232.845 655.629 231.376 650.387 226.716Z"/><path fill="#060402" d="M650.387 226.716C648.571 226.586 646.428 225.398 645.135 224.014L645.444 223.075C655.84 220.114 657.04 203.872 677.358 212.493C671.391 214.148 669.035 211.657 663.58 214.522C656.546 217.909 654.243 219.651 650.387 226.716Z"/><path fill="#FEFEFE" d="M676.362 230.408L676.683 229.724C679.892 223.012 679.369 220.89 676.203 214.377C679.125 216.619 682.195 219.28 685.05 221.656C684.999 225.725 679.744 229.013 676.362 230.408Z"/><path fill="#492C1E" d="M740.886 172.092C756.425 170.707 768.671 175.772 776.692 189.282C771.259 186.882 766.236 184.447 760.463 183.003C750.254 181.301 727.927 188.109 722.817 182.423C721.312 173.29 734.782 172.805 740.886 172.092Z"/><path fill="#E2895B" d="M809.586 243.005L808.496 243.971L807.593 243.506C806.853 240.408 809.985 238.381 809.605 234.354C809.237 230.454 806.891 229.564 806.313 226.501C805.762 223.583 809.486 217.396 811.296 215.119C813.846 211.912 816.028 210.016 820.137 209.514C822.547 210.237 821.747 209.52 822.847 211.454C822.62 213.5 822.955 212.58 821.755 214.3C819.973 212.685 820.564 212.738 818.558 212.429C815.697 214.198 813.998 217 811.995 219.74C822.939 226.53 820.553 237.856 809.586 243.005Z"/><path fill="#C76A3C" d="M809.586 243.005L808.496 243.971L807.593 243.506C806.853 240.408 809.985 238.381 809.605 234.354C809.237 230.454 806.891 229.564 806.313 226.501C805.762 223.583 809.486 217.396 811.296 215.119C813.846 211.912 816.028 210.016 820.137 209.514C822.547 210.237 821.747 209.52 822.847 211.454C822.62 213.5 822.955 212.58 821.755 214.3C819.973 212.685 820.564 212.738 818.558 212.429C815.697 214.198 813.998 217 811.995 219.74C810.972 221.519 808.947 224.442 809.454 226.278C811.428 233.422 814.184 234.337 810.35 241.61C810.101 242.078 809.847 242.544 809.586 243.005Z"/><path fill="#E2895B" d="M749.659 273.817C748.851 271.606 748.058 270.352 748.776 268.259L750.148 267.145C754.091 267.638 755.772 270.21 756.18 274.017L755.398 275.32L754.025 275.076L753.289 273.737L752.446 271.477L751.487 271.279L749.659 273.817Z"/><path fill="#A14F23" d="M695.176 258.389C699.791 259.84 704.673 260.522 705.572 265.823C700.387 265.017 695.829 263.943 695.176 258.389Z"/><path fill="#A14F23" d="M718.702 257.278C720.985 257.202 722.625 256.969 724.301 258.644C722.427 260.114 722.574 259.626 719.66 259.811C717.591 261.066 718.309 261.014 716.157 261.032C716.501 258.981 716.956 259.135 718.702 257.278Z"/><path fill="#FEB27E" d="M688.397 361.787L689.029 360.171C694.414 361.665 699.347 370.14 713.444 371.382C734.757 373.26 752.003 356.594 764.732 341.39C768.141 337.319 773.755 327.118 777.241 324.331L778.424 325.077C778.666 345.991 782.273 377.461 805.648 384.685C802.008 392.38 795.874 412.277 792.972 421.174L791.041 426.394L787.882 435.305L786.711 439.358L786.003 439.87C750.404 465.389 684.299 480.822 654.779 439.115L654.889 437.833C658.328 425.922 662.043 411.922 668.116 401.18C689.438 389.756 689.334 384.727 688.397 361.787Z"/><path fill="#B8BBC6" d="M654.889 437.833C657.943 439.758 661.551 443.07 664.34 445.535C692.96 470.843 738.001 463.506 769.209 446.993C775.371 443.733 780.964 438.977 787.213 435.656L787.882 435.305L786.711 439.358L786.003 439.87C750.404 465.389 684.299 480.822 654.779 439.115L654.889 437.833Z"/><path fill="#E2895B" d="M791.041 426.394C785.35 423.882 751.569 430.932 744.051 432.897C740.734 433.764 734.349 437.769 729.418 438.938L728.707 437.169L729.964 438.801L729.097 436.767C730.396 435.49 735.393 431.177 736.827 430.909C751.683 428.131 778.562 420.495 792.972 421.174L791.041 426.394Z"/><path fill="#A14F23" d="M607.803 236.021C611.346 233.152 615.727 227.737 619.982 229.286C621.75 234.724 625.643 238.616 627.348 242.828L627.703 242.88L629.972 245.378L631.799 243.366C640.407 280.411 645.241 307.747 680.58 328.988C696.653 338.649 709.455 345.459 728.895 340.871C750.243 335.833 774.466 314.28 785.691 295.764C788.408 291.297 790.579 286.52 792.156 281.536C793.154 278.487 796.919 262.634 798.371 261.818L799.629 262.373L800.215 264.116C800.9 264.403 802.233 264.874 802.734 265.304C805.117 269.812 806.093 270.584 811.32 270.207L815.111 270.411C806.628 276.184 803.112 271.371 799.237 263.733C795.851 281.988 791.984 292.21 780.569 307.381C780.471 327.445 780.725 362.514 796.033 377.235C797.34 377.942 799.834 379.402 801.14 379.848C802.512 380.43 803.481 381.04 804.888 381.087L805.648 384.685C782.273 377.461 778.666 345.991 778.424 325.077L777.241 324.331C773.755 327.118 768.141 337.319 764.732 341.39C752.003 356.594 734.757 373.26 713.444 371.382C699.347 370.14 694.414 361.665 689.029 360.171L688.397 361.787C689.334 384.727 689.438 389.756 668.116 401.18C672.345 393.712 676.782 395.111 681.487 389.114C690.302 378.07 684.741 346.295 681.913 332.795C668.85 324.28 654.604 313.732 647.441 299.514C646.232 297.115 643.291 289.732 641.235 288.961C639.357 294.072 637.336 296.469 631.363 295.112C624.222 294.091 626.589 284.347 625.675 283.229C617.006 272.626 601.403 252.205 606.734 236.97L607.803 236.021Z"/><path fill="#E2895B" d="M684.822 334.69C724.603 356.589 750.204 339.894 778.23 310.094C778.066 315.336 778.226 319.864 778.424 325.077L777.241 324.331C773.755 327.118 768.141 337.319 764.732 341.39C752.003 356.594 734.757 373.26 713.444 371.382C699.347 370.14 694.414 361.665 689.029 360.171L688.397 361.787C686.905 356.976 686.223 341.612 684.822 334.69Z"/><path fill="#FEB27E" d="M607.803 236.021C611.346 233.152 615.727 227.737 619.982 229.286C621.75 234.724 625.643 238.616 627.348 242.828L627.703 242.88L629.972 245.378C630.186 246.851 630.567 248.929 630.555 250.346C632.671 258.727 635.382 268.443 637.011 276.821L636.359 277.414C630.924 276.701 630.898 276.301 626.722 279.962C613.176 266.952 608.329 254.588 607.803 236.021Z"/><path fill="#E2895B" d="M623.526 245.66C625.164 247.971 625.613 248.739 627.68 250.604C628.327 248.526 626.888 246.368 627.703 242.88L629.972 245.378C630.186 246.851 630.567 248.929 630.555 250.346L629.989 250.514C625.665 256.285 631.408 262.128 632.208 267.936C626.204 271.471 614.168 257.595 623.526 245.66Z"/><path fill="#C76A3C" d="M623.526 245.66C621.638 243.501 621.011 242.632 618.629 240.937C616.416 240.449 615.735 240.944 613.641 241.768L612.826 241.324C613.092 238.684 612.603 239.679 614.808 237.753C620.639 236.529 622.902 242.835 627.348 242.828L627.703 242.88C626.888 246.368 628.327 248.526 627.68 250.604C625.613 248.739 625.164 247.971 623.526 245.66Z"/><path fill="#FDC850" d="M634.357 277.947C643.13 283.352 638.244 295.763 630.001 291.639C627.257 288.242 627.629 285.765 628.414 281.682C630.813 279.236 631.023 278.845 634.357 277.947Z"/><path fill="#FEEDAB" d="M628.414 281.682C630.813 279.236 631.023 278.845 634.357 277.947C634.64 280.919 635.124 282.297 633.524 284.726L631.993 285.816C629.511 285.101 629.046 284.107 628.414 281.682Z"/><path fill="#492C1E" d="M832.229 219.127C845.381 238.829 838.101 256.693 828.591 276.179C827.029 279.38 822.597 282.589 820.643 285.697C816.81 290.541 814.575 294.507 811.295 299.687C808.972 305.36 806.719 310.185 806.608 316.406C807.935 340.236 823.356 340.422 827.321 358.26C824.323 366.314 823.259 368.089 816.724 374.107C815.437 375.292 813.276 376.88 812.353 378.287L812.368 378.959C806.668 375.136 802.387 376.067 796.033 377.235C780.725 362.514 780.471 327.445 780.569 307.381C791.984 292.21 795.851 281.988 799.237 263.733C803.112 271.371 806.628 276.184 815.111 270.411C818.364 265.917 818.236 263.569 817.099 258.572C828.29 244.455 830.568 236.332 832.229 219.127Z"/><path fill="#2B1A12" d="M806.608 316.406C803.997 313.156 806.44 306.213 807.999 302.727C809.118 300.225 808.891 300.469 811.295 299.687C808.972 305.36 806.719 310.185 806.608 316.406Z"/><path fill="#060402" d="M561.631 238.358C551.228 254.873 545.421 274.653 560.191 290.917C562.52 293.482 567.283 296.541 568.584 299.42C562.185 302.66 547.626 283.98 545.365 278.92C530.66 246.016 563.109 219.64 577.185 193.722C579.014 190.354 579.683 177.589 580.228 172.867C581.179 164.453 583.01 156.163 585.691 148.131C597.771 112.566 633.514 83.6073 665.718 66.3311C693.963 51.1782 742.483 46.9018 758.902 81.1481C806.8 70.1884 837.874 124.884 849.027 163.68C853.058 177.701 851.242 190.922 857.358 205.366C867.456 229.211 896.803 238.998 895.5 267.675C894.868 279.936 890.492 287.68 881.837 295.855C883.055 297.66 884.299 299.513 885.472 301.337C901.165 325.746 892.53 348.707 867.472 360.327C873.843 347.75 873.551 341.616 866.983 329.131C867.618 332.65 868.362 336.573 868.056 340.123C865.583 368.812 843.732 382.078 817.672 381.015C823.016 375.051 823.886 373.351 826.633 365.751C823.092 370.196 817.873 376.673 812.353 378.287C813.276 376.88 815.437 375.292 816.724 374.107C823.259 368.089 824.323 366.314 827.321 358.26C829.305 366.577 826.548 372.037 822.675 378.992C857.081 376.552 873.62 350.816 860.91 318.633C872.275 330.418 876.14 338.755 873.665 355.043C881.713 349.193 887.669 342.797 890.072 332.821C894.246 315.49 883.813 303.659 875.446 289.858C887.903 274.798 882.531 252.96 874.677 237.266C882.354 245.37 890.176 255.692 891.054 267.21L891.753 267.399L893.268 265.893C898.042 248.122 863.219 224.568 856.344 208.806C849.244 192.529 850.49 181.16 847.024 165.55C841.302 139.779 820.922 104.7 798.636 90.2457C785.37 81.6422 773.068 80.6545 758.211 83.995L757.372 83.7079C741.067 49.5597 695.796 53.4157 667.144 68.6622C635.453 85.5264 600.947 113.134 588.399 148.095C585.092 157.883 583.538 166.131 582.318 176.253C581.679 181.554 580.953 191.005 579.216 195.536C577.033 201.228 570.36 209.27 566.686 214.101C551.709 233.799 536.112 257.04 549.434 281.974C550.182 283.375 550.147 283.301 551.226 284.453L552.375 284.356C552.618 280.942 549.72 274.567 548.808 270.659C546.785 261.986 559.775 230.515 567.757 228.533L567.276 229.401C561.869 239.32 559.47 255.48 562.594 266.306C566.982 281.51 583.78 293.477 575.208 310.62C570.689 319.832 565.194 319.855 556.069 322.267L556.132 323.158C564.909 327.885 573.885 320.553 580.669 315.738C564.014 333.321 555.978 357.829 581.172 374.067C582.772 375.099 585.933 376.125 587.813 376.891C580.95 360.457 586.14 351.915 597.182 339.043C590.873 361.788 595.084 381.501 619.892 390.725C624.293 392.361 631.828 392.338 635.455 395.068C632.365 395.327 630.29 395.317 627.189 394.968C616.417 393.719 606.599 388.194 599.94 379.636C591.821 369.204 591.327 359.062 592.848 346.538C589.169 352.432 586.404 357.991 586.621 365.177L586.66 366.23C586.798 370.407 589.819 374.014 591.472 378.371C587.985 380.684 584.242 379.134 580.947 377.147C560.753 364.967 558.548 345.377 569.182 326.135C563.521 326.158 552.988 326.568 550.838 319.833C553.128 315.053 558.77 322.075 564.308 318.464C579.998 308.236 576.351 295.435 567.638 282.035C558.426 267.869 557.207 254.517 561.631 238.358ZM881.572 292.326C888.236 283.228 890.679 276.145 889.28 264.522C888.72 259.865 885.429 251.496 881.968 248.569C885.573 258.498 885.848 269.33 882.752 279.429C881.586 283.258 878.054 289.924 879.948 293.187C880.981 292.819 880.927 293.02 881.572 292.326Z"/><path fill="#060402" d="M626.434 219.485C639.18 209.145 647.089 200.611 653.976 184.892C666.764 155.702 669.665 113.984 704.188 101.264C710.865 98.8037 719.375 98.8143 725.766 102.155C730.384 104.575 733.77 108.825 735.098 113.866C736.083 117.488 735.911 120.952 734.096 124.246C731.624 124.388 725.232 123.706 722.46 123.474L716.059 122.285L717.727 119.415C715.289 110.71 699.94 110.504 692.651 110.573C687.994 114.681 681.31 119.824 679.931 126.008C680.807 127.02 680.963 127.106 682.045 127.913L676.741 130.468C667.052 150.69 665.039 166.327 657.159 184.405C655.13 189.079 652.776 192.757 650.824 197.052C643.967 206.695 638.789 213.52 629.126 220.771C629.834 227.367 630.603 237.078 631.799 243.366L629.972 245.378L627.703 242.88L627.348 242.828C625.643 238.616 621.75 234.724 619.982 229.286L620.563 227.428C622.252 225.573 624.914 224.006 627.052 222.58L626.434 219.485Z"/><path fill="#492C1E" d="M695.8 107.915C707.694 101.17 723.447 97.4553 731.726 111.652C734.818 116.954 732.483 121.279 734.096 124.246C731.624 124.388 725.232 123.706 722.46 123.474L716.059 122.285L717.727 119.415C715.289 110.71 699.94 110.504 692.651 110.573C693.859 109.209 694.353 108.93 695.8 107.915Z"/><path fill="#2B1A12" d="M692.651 110.573C693.859 109.209 694.353 108.93 695.8 107.915C696.091 108.008 696.383 108.102 696.674 108.195C709.881 108.946 719.007 107.944 722.46 123.474L716.059 122.285L717.727 119.415C715.289 110.71 699.94 110.504 692.651 110.573Z"/><path fill="#492C1E" d="M627.052 222.58C628.171 228.996 629.01 235.458 629.565 241.948C623.747 235.349 624.75 233.168 620.563 227.428C622.252 225.573 624.914 224.006 627.052 222.58Z"/><path fill="#492C1E" d="M716.508 77.3862C729.231 77.8856 740.054 81.5446 745.385 94.8309C746.428 97.4293 746.436 101.383 748.326 102.88C751.875 100.665 754.493 88.5297 757.372 83.7079L758.211 83.995C756.898 90.7613 746.734 112.4 742.711 117.381L741.993 117.321C741.44 113.015 747.694 108.305 743.558 98.023C738.446 85.3134 727.579 82.6167 716.508 77.3862Z"/><path fill="#1B1817" d="M626.434 219.485L627.052 222.58C624.914 224.006 622.252 225.573 620.563 227.428L619.982 229.286C615.727 227.737 611.346 233.152 607.803 236.021L606.734 236.97C602.299 239.421 594.281 247.926 591.678 252.834C586.432 262.729 590.287 270.219 593.271 280.098L592.75 281.069L591.739 280.834C589.668 277.797 588.834 274.35 587.832 270.854C582.347 251.721 597.302 240.577 611.302 230.955C612.696 229.978 613.071 228.206 613.711 226.514C617.206 225.005 622.953 221.481 626.434 219.485Z"/><path fill="#1B1817" d="M625.806 364.256C633.269 382.105 641.985 391.825 661.978 394.086L657.654 396.416C647.196 392.986 643.729 391.251 635.073 384.57L627.982 376.019C630.014 380.388 631.238 383.167 633.901 387.133C635.96 389.06 639.525 391.429 640.119 393.198C638.759 394.371 638.886 394.401 637.135 394.673C636.276 390.834 632.591 389.248 630.245 385.769C625.875 379.289 626.066 371.754 625.806 364.256Z"/><path fill="#2B1A12" d="M611.302 230.955C607.345 230.229 596.057 236.003 592.657 232.442C594.661 230.748 599.123 231.22 602.229 230.282C606.152 229.097 609.847 227.848 613.711 226.514C613.071 228.206 612.696 229.978 611.302 230.955Z"/><path fill="#492C1E" d="M760.119 106.315C787.378 107.588 806.73 145.423 815.438 168.085C813.457 165.606 812.105 163.409 810.413 160.737C798.658 144.064 789.993 119.903 770.755 110.779C764.867 107.986 758.684 109.058 752.422 108.704L752.297 108.049C755.093 106.381 756.923 106.513 760.119 106.315Z"/><path fill="#492C1E" d="M827.598 163.03C833.466 165.742 847.528 195.457 848.933 202.591C848.315 202.246 847.698 201.901 847.08 201.556C842.501 192.581 836.814 181.793 832.46 172.957C830.035 168.037 829.209 166.344 827.598 163.03Z"/><path fill="#9CE3C6" d="M391.079 481.641C418.459 478.813 432.612 495.719 430.405 522C429.852 528.592 431.876 537.162 428.26 543.395C423.652 546.21 412.486 545.226 406.72 545.142C398.492 545.059 374.092 546.291 367.834 544.005C366.508 542.845 365.555 540.926 365.433 539.158C363.77 514.984 361.014 487.931 391.079 481.641Z"/><path fill="#9CE3C6" d="M340.544 452.753C350.491 452.086 358.527 454.024 367.041 459.207C369.758 466.611 371.455 470.397 374.922 477.466C356.294 492.288 356.426 498.037 356.383 521.11L340.966 521.052C333.588 520.97 312.88 522.282 307.548 519.751C305.978 517.622 305.068 514.901 304.892 512.22C302.949 482.681 304.387 457.174 340.544 452.753Z"/><path fill="#9CE3C6" d="M450.117 452.818C469.395 451.534 490.65 466.993 490.063 487.435C489.852 494.797 491.993 514.652 487.253 519.775C481.994 522.146 469.024 521.314 462.575 521.24C454.735 521.226 446.895 521.134 439.057 520.965C438.608 500.714 438.021 489.167 419.512 477.611C423.316 470.205 425.118 467.149 427.945 459.342C436.023 454.264 440.614 453.551 450.117 452.818Z"/><path fill="#9CE3C6" d="M450.224 397.055C463.414 396.574 474.509 406.851 475.037 420.039C475.566 433.228 465.329 444.36 452.143 444.936C438.888 445.516 427.686 435.215 427.155 421.958C426.624 408.702 436.966 397.537 450.224 397.055Z"/><path fill="#9CE3C6" d="M341.452 397.061C354.555 395.607 366.36 405.038 367.836 418.138C369.312 431.238 359.902 443.06 346.804 444.559C333.675 446.061 321.818 436.623 320.338 423.49C318.859 410.358 328.317 398.518 341.452 397.061Z"/><path fill="#9CE3C6" d="M395.464 433.485C406.723 432.334 416.833 440.403 418.209 451.637C419.584 462.871 411.719 473.141 400.515 474.74C393.066 475.804 385.623 472.758 381.056 466.777C376.49 460.796 375.513 452.814 378.501 445.908C381.49 439.002 387.978 434.25 395.464 433.485Z"/><path fill="#FEFEFE" fill-opacity="0.027450981" d="M627.982 376.019L635.073 384.57L633.901 387.133C631.238 383.167 630.014 380.388 627.982 376.019Z"/></svg>