<?xml version="1.0" encoding="utf-8" ?><svg xmlns="http://www.w3.org/2000/svg" xmlns:xlink="http://www.w3.org/1999/xlink" width="1448" height="1086" viewBox="0 0 1448 1086"><path fill="#A5E9CB" d="M785.54 389.028C796.728 387.08 805.712 386.218 817.102 386.403C837.88 386.74 865.732 374.342 870.491 405.428C870.944 408.404 871.421 411.724 871.827 414.824C893.865 422.689 902.534 437.795 899.563 460.619C916.534 470.371 925.324 481.65 934.233 498.966C935.568 501.559 939.533 510.134 940.664 511.919C941.866 503.888 943.285 495.891 944.921 487.937C945.244 488.499 946.517 490.653 946.873 490.952C952.166 495.405 968.066 497.525 973.483 493.145C976.446 490.749 976.395 480.145 976.664 476.448C981.867 477.41 999.297 478.244 1003.02 480.066C1007.14 519.139 1019.45 543.409 1049.18 569.269C1079.71 595.832 1094.93 627.92 1097.67 668.102C1101.82 728.79 1074.82 792.178 1032.92 835.641C1029.36 858.188 1026.64 874.453 1002.81 882.924C999.598 884.51 999.747 886.699 998.823 890.236L997.442 888.365C1004.16 854.504 1005.18 823.3 1006.85 789.132C1008.01 784.136 1007.52 779.576 1006.86 774.571C1003.04 782.398 992.138 782.195 984.459 781.791L982.971 786.006C969.226 816.865 950.698 833.315 915.321 826.571L912.899 826.118L911.561 827.014C910.924 830.488 911.452 834.646 910.955 836.719C910.794 835.554 910.539 834.364 910.315 833.204C907.521 832.504 907.061 833.007 904.963 832.537C900.6 831.559 895.63 827.828 891.165 829.638C889.68 831.715 890.19 831.626 890.073 834.723C890.431 841.374 887.983 874.799 886.511 881.375L885.945 881.23C885.22 877.235 885.25 876.534 885.609 872.509C883.478 870.979 881.26 869.435 879.18 867.85C877.139 872.762 874.588 878.956 872.048 883.567C873.313 892.809 876.61 908.58 876.667 916.921L876.461 918.997C874.423 921.348 873.695 922.335 871.039 924.117C872.493 930.405 874.254 937.374 875.463 943.647C877.469 953.075 887.188 1000.33 886.082 1007.45L884.409 1008.65C878.661 1009.38 870.717 1011.53 864.877 1012.94L862.615 1013.25C801.034 1024.49 744.984 1025.58 682.827 1022.41L668.425 1021.34C665.831 1021.15 664.231 1020.95 661.674 1020.48C654.1 1020.29 642.715 1018.6 634.958 1017.52C603.305 1013.13 573.091 1007.3 543.051 996.163C541.736 995.872 542.234 996.029 541.094 995.096C538.745 984.485 547.006 928.732 549.146 916.172C538.826 909.495 541.859 900.982 543.813 890.636C544.949 884.62 546.443 878.574 547.774 872.591C529.089 835.316 547.656 827.07 561.122 794.451C564.445 786.401 570.922 754.39 572.777 744.754C560.139 764.312 545.652 780.787 524.58 791.531C491.482 808.405 463.246 787.013 449.124 756.884C439.796 737.243 437.809 714.911 443.524 693.931C445.616 686.304 448.782 678.487 451.376 670.959C458.105 651.432 457.957 634.159 478.791 624.564C483.543 610.948 482.894 597.41 498.912 592.766C498.879 590.152 502.006 576.181 502.632 572.202C504.101 562.863 505.782 553.14 507.289 543.738C509.54 531.052 512.918 521.514 512.533 508.277C512.276 499.432 503.943 484.605 507.744 476.66C511.189 471.392 520.678 474.387 524.122 477.209C538.247 488.78 536.881 509.185 538.868 525.794C544.305 524.213 550.859 522.113 556.323 521.032C563.637 502.47 573.877 486.008 590.492 474.409C591.661 473.421 603.995 466.323 603.902 465.567C601.772 448.233 601.117 436.904 621.268 427.518C622.158 419.395 622.549 411.5 628.795 405.245C640.17 393.852 659.016 399.53 672.95 399.715C678.875 399.793 684.894 398.839 691.556 398.845L691.586 401.637C692.556 409.601 692.419 421.452 692.458 429.782C687.135 433.227 677.069 438.51 672.991 441.655L674.145 443.153C684.442 454.653 697.251 469.358 706.397 481.63C720.607 463.843 769.683 423.449 790.693 413.261L792.016 411.953C788.427 404.585 787.18 399.823 786.073 391.789L785.54 389.028Z"/><path fill="#A5E9CB" d="M785.54 389.028C796.728 387.08 805.712 386.218 817.102 386.403C837.88 386.74 865.732 374.342 870.491 405.428C870.944 408.404 871.421 411.724 871.827 414.824C893.865 422.689 902.534 437.795 899.563 460.619C916.534 470.371 925.324 481.65 934.233 498.966C935.568 501.559 939.533 510.134 940.664 511.919C941.866 503.888 943.285 495.891 944.921 487.937C945.244 488.499 946.517 490.653 946.873 490.952C952.166 495.405 968.066 497.525 973.483 493.145C976.446 490.749 976.395 480.145 976.664 476.448C981.867 477.41 999.297 478.244 1003.02 480.066C1007.14 519.139 1019.45 543.409 1049.18 569.269C1079.71 595.832 1094.93 627.92 1097.67 668.102C1101.82 728.79 1074.82 792.178 1032.92 835.641C1029.36 858.188 1026.64 874.453 1002.81 882.924C999.598 884.51 999.747 886.699 998.823 890.236L997.442 888.365C1004.16 854.504 1005.18 823.3 1006.85 789.132C1008.01 784.136 1007.52 779.576 1006.86 774.571C1003.04 782.398 992.138 782.195 984.459 781.791L982.971 786.006C969.226 816.865 950.698 833.315 915.321 826.571L912.899 826.118L911.561 827.014C910.924 830.488 911.452 834.646 910.955 836.719C910.794 835.554 910.539 834.364 910.315 833.204C907.521 832.504 907.061 833.007 904.963 832.537C900.6 831.559 895.63 827.828 891.165 829.638C889.68 831.715 890.19 831.626 890.073 834.723C884.846 832.151 876.484 821.183 872.82 816.18L870.758 813.779C863.943 805.658 855.761 792.492 850.315 783.591C847.878 780.889 836.528 761.204 834.649 757.427C834.491 756.653 832.198 751.055 831.775 749.989C831.612 743.601 826.187 729.24 821.804 724.902C818.129 719.001 815.681 719.959 811.301 709.778L810.997 707.291C809.97 704.538 810.383 701.924 810.617 699.049C811.254 696.345 812.036 693.834 812.836 691.182L815.962 692.188L816.791 692.718C815.83 699.921 815.221 702.595 816.843 709.49C821.716 708.498 823.755 709.952 828.882 706.66L830.747 706.421C848.314 695.262 856.409 679.154 857.89 658.634C857.143 655.341 856.76 654.744 855.158 651.883L853.334 650.191L852.167 647.742C850.307 642.719 848.294 635.289 846.718 629.996C842.113 614.073 836.408 589.108 828.858 574.788C827.498 572.207 820.904 568.289 818.12 566.577C819.346 561.428 820.729 556.319 822.266 551.254C831.479 520.314 850.994 471.658 880.638 455.587C885.051 456.863 886.8 457.504 890.969 459.428L893.963 457.73C895.221 458.641 895.129 458.577 896.688 458.679C897.988 456.95 897.575 453.719 897.551 451.369C896.972 433.577 886.56 421.462 869.3 417.263C868.338 400.055 864.73 384.96 843.347 386.88C841.203 387.072 835.684 387.585 834.121 388.828L841.187 390.248L841.489 391.056C838.551 392.999 831.299 395.295 827.711 396.896C821.463 399.685 814.103 402.641 808.154 405.973C773.151 425.578 731.763 455.925 705.977 486.591C689.185 460.958 664.717 440.361 647.015 415.437C644.854 412.394 644.784 411.434 645.578 408.108C651.987 405.216 665.03 408.608 671.26 403.358L670.382 402.48C673.464 403.457 685.801 401.569 691.586 401.637C692.556 409.601 692.419 421.452 692.458 429.782C687.135 433.227 677.069 438.51 672.991 441.655L674.145 443.153C684.442 454.653 697.251 469.358 706.397 481.63C720.607 463.843 769.683 423.449 790.693 413.261L792.016 411.953C788.427 404.585 787.18 399.823 786.073 391.789L785.54 389.028Z"/><path fill="#E9F8F0" d="M976.664 476.448C981.867 477.41 999.297 478.244 1003.02 480.066C1007.14 519.139 1019.45 543.409 1049.18 569.269C1079.71 595.832 1094.93 627.92 1097.67 668.102C1101.82 728.79 1074.82 792.178 1032.92 835.641C1029.36 858.188 1026.64 874.453 1002.81 882.924C999.598 884.51 999.747 886.699 998.823 890.236L997.442 888.365C1004.16 854.504 1005.18 823.3 1006.85 789.132C1008.01 784.136 1007.52 779.576 1006.86 774.571C1003.04 782.398 992.138 782.195 984.459 781.791C989.816 760.881 991.6 747.136 989.693 725.49L989.655 724.374C988.198 714.373 987.076 704.484 985.008 694.567C984.31 691.22 983.524 687.145 983.425 683.787L984.973 682.798L984.616 682.033L985.159 681.211L989.888 681.038C998.569 681.257 999.968 682.078 1006.1 688.135C1006.05 680.96 1004.9 636.103 1006.74 632.874C1006.78 629.723 1005.84 621.152 1004.89 618.187L1004.21 618.745C1002.35 611.803 1001.16 608.565 1000.14 601.093C995.637 568.36 976.432 539.577 945.059 527.198C944.694 526 944.72 524.65 944.642 523.361C943.041 522.083 940.322 513.988 940.664 511.919C941.866 503.888 943.285 495.891 944.921 487.937C945.244 488.499 946.517 490.653 946.873 490.952C952.166 495.405 968.066 497.525 973.483 493.145C976.446 490.749 976.395 480.145 976.664 476.448Z"/><path fill="#050912" d="M1006.74 632.874C1008.65 643.12 1009.01 660.56 1008.96 671.138C1019.68 676.754 1027.53 682.145 1030.41 694.509C1039.26 732.468 1035.03 778.602 1034.32 816.923C1033.85 823.023 1033.23 829.566 1032.92 835.641C1029.36 858.188 1026.64 874.453 1002.81 882.924C999.598 884.51 999.747 886.699 998.823 890.236L997.442 888.365C1004.16 854.504 1005.18 823.3 1006.85 789.132C1008.01 784.136 1007.52 779.576 1006.86 774.571C1003.04 782.398 992.138 782.195 984.459 781.791C989.816 760.881 991.6 747.136 989.693 725.49L989.655 724.374C988.198 714.373 987.076 704.484 985.008 694.567C984.31 691.22 983.524 687.145 983.425 683.787L984.973 682.798L984.616 682.033L985.159 681.211L989.888 681.038C998.569 681.257 999.968 682.078 1006.1 688.135C1006.05 680.96 1004.9 636.103 1006.74 632.874Z"/><path fill="#22395B" d="M1002.81 882.924C1001.45 879.938 1003.86 865.241 1004.35 860.863C1006.7 838.853 1008.43 816.781 1009.54 794.673C1009.79 789.624 1009.1 777.236 1010.87 773.527C1018.65 773.506 1024.43 774.938 1033.12 774.787C1032.99 780.455 1031.46 816.759 1032.93 818.918L1034.32 816.923C1033.85 823.023 1033.23 829.566 1032.92 835.641C1029.36 858.188 1026.64 874.453 1002.81 882.924Z"/><path fill="#22395B" d="M989.693 725.49C996.754 725.59 1000.93 725.655 1007.94 724.897C1008.08 729.595 1007.74 752.744 1008.11 755.371L1007.53 756.69C1007.5 761.934 1007.7 769.587 1006.86 774.571C1003.04 782.398 992.138 782.195 984.459 781.791C989.816 760.881 991.6 747.136 989.693 725.49Z"/><path fill="#0E1D31" d="M1007.53 756.69C1003.2 756.554 995.178 756.484 991.438 754.794C998.281 754.368 1001.38 754.691 1008.11 755.371L1007.53 756.69Z"/><path fill="#22395B" d="M983.425 683.787L984.973 682.798C990.36 683.307 998.927 683.766 1003.11 688.448C1009.05 695.105 1013.26 714.367 1007.08 721.614C1004.16 725.03 992.907 721.895 989.655 724.374C988.198 714.373 987.076 704.484 985.008 694.567C984.31 691.22 983.524 687.145 983.425 683.787Z"/><path fill="#22395B" d="M1009.03 674.367C1034.83 684.421 1031.53 718.643 1033.15 741.187C1033.32 743.497 1033.24 746.031 1032.88 748.316L1031.69 748.991L1010.98 747.99C1010.72 733.631 1011.38 720.345 1012.21 706.041C1012.53 700.537 1008.83 692.164 1008.41 686.496C1008.14 682.88 1008.71 678.025 1009.03 674.367Z"/><path fill="#22395B" d="M1010.75 749.055C1017.57 749.099 1025.89 749.805 1033.27 749.913C1033.56 759.075 1033.46 764.677 1032.96 773.819C1027.16 772.507 1016.18 773.147 1011.93 770.968C1009.04 767.77 1010.57 754.33 1010.75 749.055Z"/><path fill="#050912" d="M944.642 523.361C968.375 534.071 985.545 548.055 995.06 573.214C999.227 584.233 1004.24 606.531 1004.89 618.187L1004.21 618.745C1002.35 611.803 1001.16 608.565 1000.14 601.093C995.637 568.36 976.432 539.577 945.059 527.198C944.694 526 944.72 524.65 944.642 523.361Z"/><path fill="#269D78" d="M785.54 389.028C796.728 387.08 805.712 386.218 817.102 386.403C837.88 386.74 865.732 374.342 870.491 405.428C870.944 408.404 871.421 411.724 871.827 414.824C893.865 422.689 902.534 437.795 899.563 460.619C916.534 470.371 925.324 481.65 934.233 498.966C935.568 501.559 939.533 510.134 940.664 511.919C940.322 513.988 943.041 522.083 944.642 523.361C944.72 524.65 944.694 526 945.059 527.198C976.432 539.577 995.637 568.36 1000.14 601.093C1001.16 608.565 1002.35 611.803 1004.21 618.745L1004.89 618.187C1005.84 621.152 1006.78 629.723 1006.74 632.874C1004.9 636.103 1006.05 680.96 1006.1 688.135C999.968 682.078 998.569 681.257 989.888 681.038L985.159 681.211L984.616 682.033L984.973 682.798L983.425 683.787C983.524 687.145 984.31 691.22 985.008 694.567C987.076 704.484 988.198 714.373 989.655 724.374L989.693 725.49C991.6 747.136 989.816 760.881 984.459 781.791L982.971 786.006C969.226 816.865 950.698 833.315 915.321 826.571L912.899 826.118L911.561 827.014C910.924 830.488 911.452 834.646 910.955 836.719C910.794 835.554 910.539 834.364 910.315 833.204C907.521 832.504 907.061 833.007 904.963 832.537C900.6 831.559 895.63 827.828 891.165 829.638C889.68 831.715 890.19 831.626 890.073 834.723C884.846 832.151 876.484 821.183 872.82 816.18L870.758 813.779C863.943 805.658 855.761 792.492 850.315 783.591C847.878 780.889 836.528 761.204 834.649 757.427C834.491 756.653 832.198 751.055 831.775 749.989C831.612 743.601 826.187 729.24 821.804 724.902C818.129 719.001 815.681 719.959 811.301 709.778L810.997 707.291C809.97 704.538 810.383 701.924 810.617 699.049C811.254 696.345 812.036 693.834 812.836 691.182L815.962 692.188C804.091 710.084 828.211 726.621 837.304 739.911L836.697 740.816C835.585 739.71 835.118 739.082 833.66 738.448C832.457 741.019 834.138 749.87 835.135 752.295C846.647 778.754 870.192 802.897 895.352 816.482C926.821 833.206 959.395 828.27 976.077 794.741C996.873 752.939 985.615 710.269 976.908 666.954C967.47 620.002 956.726 572.603 942.181 526.891C935.967 507.361 925.852 484.155 909.884 470.705C904.03 465.956 897.659 462.827 890.969 459.428L893.963 457.73C895.221 458.641 895.129 458.577 896.688 458.679C897.988 456.95 897.575 453.719 897.551 451.369C896.972 433.577 886.56 421.462 869.3 417.263C868.338 400.055 864.73 384.96 843.347 386.88C841.203 387.072 835.684 387.585 834.121 388.828L841.187 390.248L841.489 391.056C838.551 392.999 831.299 395.295 827.711 396.896C821.463 399.685 814.103 402.641 808.154 405.973C773.151 425.578 731.763 455.925 705.977 486.591C689.185 460.958 664.717 440.361 647.015 415.437C644.854 412.394 644.784 411.434 645.578 408.108C651.987 405.216 665.03 408.608 671.26 403.358L670.382 402.48C673.464 403.457 685.801 401.569 691.586 401.637C692.556 409.601 692.419 421.452 692.458 429.782C687.135 433.227 677.069 438.51 672.991 441.655L674.145 443.153C684.442 454.653 697.251 469.358 706.397 481.63C720.607 463.843 769.683 423.449 790.693 413.261L792.016 411.953C788.427 404.585 787.18 399.823 786.073 391.789L785.54 389.028Z"/><path fill="#22395B" d="M945.059 527.198C976.432 539.577 995.637 568.36 1000.14 601.093C1001.16 608.565 1002.35 611.803 1004.21 618.745L1004.89 618.187C1005.84 621.152 1006.78 629.723 1006.74 632.874C1004.9 636.103 1006.05 680.96 1006.1 688.135C999.968 682.078 998.569 681.257 989.888 681.038L985.159 681.211L984.616 682.033L984.973 682.798L983.425 683.787L982.236 680.192C981.851 675.438 977.264 654.515 976.052 649.122C967.683 611.895 958.511 569.206 946.858 533.1L945.059 527.198Z"/><path fill="#22395B" d="M946.858 533.1C953.007 532.868 962.509 544.74 964.961 549.749C980.241 580.961 984.837 616.884 987.993 651.115C988.672 658.342 988.964 675.864 989.888 681.038L985.159 681.211L984.616 682.033L984.973 682.798L983.425 683.787L982.236 680.192C981.851 675.438 977.264 654.515 976.052 649.122C967.683 611.895 958.511 569.206 946.858 533.1Z"/><path fill="#0E1D31" d="M946.858 533.1C953.007 532.868 962.509 544.74 964.961 549.749C980.241 580.961 984.837 616.884 987.993 651.115C988.672 658.342 988.964 675.864 989.888 681.038L985.159 681.211L984.616 682.033L984.973 682.798L983.425 683.787L982.236 680.192C983.991 680.17 986.195 680.395 987.536 679.462C987.868 675.218 985.378 648.975 984.821 642.261C982.328 612.161 976.706 572.837 960.51 546.638C956.988 540.939 951.735 537.23 946.858 533.1Z"/><path fill="#76D9B3" d="M670.382 402.48C673.464 403.457 685.801 401.569 691.586 401.637C692.556 409.601 692.419 421.452 692.458 429.782C687.135 433.227 677.069 438.51 672.991 441.655C665.168 433.644 659.702 427.858 652.725 419.089C654.882 416.437 656.966 413.379 658.959 410.572C655.613 412.589 653.191 415.687 649.872 415.347C647.381 413.023 647.045 411.256 645.578 408.108C651.987 405.216 665.03 408.608 671.26 403.358L670.382 402.48Z"/><path fill="#76D9B3" d="M786.073 391.789C799.369 389.427 812.722 387.816 826.14 389.988C828.756 390.412 831.359 390.906 834.005 391.086C832.092 392.283 829.174 393.299 826.967 394.081C814.778 398.397 803.394 406.697 792.016 411.953C788.427 404.585 787.18 399.823 786.073 391.789Z"/><path fill="#1B2E4B" d="M873.653 805.174C886.575 815.868 897.246 820.906 912.899 826.118L911.561 827.014C910.924 830.488 911.452 834.646 910.955 836.719C910.794 835.554 910.539 834.364 910.315 833.204C907.521 832.504 907.061 833.007 904.963 832.537C900.6 831.559 895.63 827.828 891.165 829.638C889.68 831.715 890.19 831.626 890.073 834.723C884.846 832.151 876.484 821.183 872.82 816.18C874.294 813.207 873.75 808.663 873.653 805.174Z"/><path fill="#76D9B3" d="M850.315 783.591L851.22 783.43C857.551 790.444 864.194 796.733 870.984 803.277C871.076 806.445 871.394 810.799 870.758 813.779C863.943 805.658 855.761 792.492 850.315 783.591Z"/><path fill="#269D78" d="M846.718 629.996C847.057 624.826 847.458 615.303 848.301 610.557L849.321 610.468L849.448 611.552C853.624 618.432 855.848 637.616 857.541 646.591C867.093 649.76 876.684 661.101 883.029 668.923C895.648 667.393 900.55 669.38 910.597 676.825L917.772 684.04C927.679 694.124 941.051 694.407 949.755 704.223C951.73 707.135 955.202 711.018 956.15 713.81L955.613 715.562C943.624 700.147 934.142 698.424 918.537 688.878C913.706 685.924 908.855 677.462 902.786 674.676C899.079 672.975 889.593 670.753 886.168 671.827C897.393 699.099 873.306 747.224 840.775 741.536C841.983 740.736 845.097 740.336 846.604 740.228C857.009 739.486 865.475 734.244 871.962 725.833C884.899 709.058 888.073 696.349 885.949 676.002C877.207 667.495 865.882 649.43 853.334 650.191L852.167 647.742C850.307 642.719 848.294 635.289 846.718 629.996Z"/><path fill="#76D9B3" d="M846.718 629.996C847.057 624.826 847.458 615.303 848.301 610.557L849.321 610.468L849.448 611.552C847.344 616.299 855.95 639.99 854.207 646.517C853.393 647.006 852.713 647.414 852.167 647.742C850.307 642.719 848.294 635.289 846.718 629.996Z"/><path fill="#76D9B3" d="M910.597 676.825C925.085 673.523 936.867 673.659 950.717 680.956C953.259 682.296 958.272 686.001 959.537 688.663L958.98 689.48C956.807 689.727 951.734 686.925 949.346 685.929C938.769 681.518 928.959 682.448 917.772 684.04L910.597 676.825Z"/><path fill="#269D78" d="M855.158 651.883C858.047 651.393 856.979 651.15 859.265 652.501C867.127 664.712 847.65 701.795 834.594 707.218C830.032 709.112 820.936 714.879 816.843 709.49C821.716 708.498 823.755 709.952 828.882 706.66L830.747 706.421C848.314 695.262 856.409 679.154 857.89 658.634C857.143 655.341 856.76 654.744 855.158 651.883Z"/><path fill="#76D9B3" d="M949.755 704.223C956.637 707.758 965.129 718.166 965.097 726.15L964.239 726.72C961.411 725.024 956.396 718.072 955.613 715.562L956.15 713.81C955.202 711.018 951.73 707.135 949.755 704.223Z"/><path fill="#76D9B3" d="M914.528 497.917C914.996 498.02 914.702 497.904 915.181 498.606C914.184 499.147 911.038 500.699 910.373 501.109C881.813 518.716 864.116 569.294 854.666 598.549L854.494 599.022C853.92 590.124 864.808 561.602 868.862 552.954C878.685 532.003 891.796 506.55 914.528 497.917Z"/><path fill="#A5E9CB" d="M498.912 592.766C498.879 590.152 502.006 576.181 502.632 572.202C504.101 562.863 505.782 553.14 507.289 543.738C509.54 531.052 512.918 521.514 512.533 508.277C512.276 499.432 503.943 484.605 507.744 476.66C511.189 471.392 520.678 474.387 524.122 477.209C538.247 488.78 536.881 509.185 538.868 525.794C544.305 524.213 550.859 522.113 556.323 521.032C557.384 520.942 558.83 520.521 559.906 520.259C566.537 518.769 574.084 516.743 580.202 520.609C586.528 524.605 588.941 532.901 587.864 539.82C589.135 543.147 594.029 544.649 595.616 549.424C597.29 554.466 594.632 559.504 594.898 563.172C595.091 565.839 599.861 570.774 599.823 575.663C599.789 580.256 596.589 583.836 596.411 586.516C596.054 591.899 600.152 596.635 597.24 603.159C595.521 607.011 587.921 611.884 584.374 613.145L581.417 615.026C578.387 637.282 580.905 654.599 581.373 677.269C581.743 695.17 577.686 722 572.769 739.6C571.625 743.692 562.287 755.58 559.165 759.368C538.06 784.978 502.193 809.978 471.542 783.035C454.744 768.286 444.446 745.331 442.81 723.161C442.301 716.072 442.756 708.946 444.163 701.979C446.247 691.324 450.264 681.498 453.742 671.135C457.795 659.059 460.184 644.702 468.554 634.669C470.393 632.465 474.385 628.899 477.237 628.688L477 632.509L477.592 632.972C485.883 625.057 480.605 603.594 497.869 595.947L498.912 592.766Z"/><path fill="#FEC081" d="M498.912 592.766C498.879 590.152 502.006 576.181 502.632 572.202C504.101 562.863 505.782 553.14 507.289 543.738C509.54 531.052 512.918 521.514 512.533 508.277C512.276 499.432 503.943 484.605 507.744 476.66C511.189 471.392 520.678 474.387 524.122 477.209C538.247 488.78 536.881 509.185 538.868 525.794C544.305 524.213 550.859 522.113 556.323 521.032C557.384 520.942 558.83 520.521 559.906 520.259C566.537 518.769 574.084 516.743 580.202 520.609C586.528 524.605 588.941 532.901 587.864 539.82C589.135 543.147 594.029 544.649 595.616 549.424C597.29 554.466 594.632 559.504 594.898 563.172C595.091 565.839 599.861 570.774 599.823 575.663C599.789 580.256 596.589 583.836 596.411 586.516C596.054 591.899 600.152 596.635 597.24 603.159C595.521 607.011 587.921 611.884 584.374 613.145L581.417 615.026C579.937 615.734 574.203 618.484 573.065 619.398C566.402 624.747 562.998 630.83 554.787 634.208L552.371 635.271C552.917 636.898 554.202 640.385 554.527 641.902L553.148 640.973C551.326 642.391 550.943 643.583 549.833 645.683C545.885 646.301 543.698 648.075 540.026 649.274L537.184 650.311C512.063 649.872 499.361 631.109 494.729 608.463C495.15 605.795 496.058 602.135 496.656 599.412L497.869 595.947L498.912 592.766Z"/><path fill="#B96122" d="M498.912 592.766C498.879 590.152 502.006 576.181 502.632 572.202C504.101 562.863 505.782 553.14 507.289 543.738C509.54 531.052 512.918 521.514 512.533 508.277C512.276 499.432 503.943 484.605 507.744 476.66C511.189 471.392 520.678 474.387 524.122 477.209C538.247 488.78 536.881 509.185 538.868 525.794C544.305 524.213 550.859 522.113 556.323 521.032C557.384 520.942 558.83 520.521 559.906 520.259C566.537 518.769 574.084 516.743 580.202 520.609C586.528 524.605 588.941 532.901 587.864 539.82C589.135 543.147 594.029 544.649 595.616 549.424C597.29 554.466 594.632 559.504 594.898 563.172C595.091 565.839 599.861 570.774 599.823 575.663C599.789 580.256 596.589 583.836 596.411 586.516C596.054 591.899 600.152 596.635 597.24 603.159C595.521 607.011 587.921 611.884 584.374 613.145L581.417 615.026C579.937 615.734 574.203 618.484 573.065 619.398C566.402 624.747 562.998 630.83 554.787 634.208L552.371 635.271C552.917 636.898 554.202 640.385 554.527 641.902L553.148 640.973C551.326 642.391 550.943 643.583 549.833 645.683C545.885 646.301 543.698 648.075 540.026 649.274L537.184 650.311C537.666 646.768 540.423 642.81 538.727 640.069L535.241 639.702L534.672 638.961C535.938 637.4 549.67 634.137 553.439 632.327C561.589 628.412 564.659 622.167 571.154 617.517C577.921 613.209 585.649 610.821 591.75 605.485C596.364 601.449 597.906 593.179 593.081 588.679C591.054 588.419 571.248 596.053 568.133 597.281L567.431 596.76C571.565 589.247 605.371 588.311 595.635 570.355C588.9 557.934 570.034 575.914 559.524 573.431L560.002 572.516C568.576 568.379 579.242 565.89 588.433 563.237C590.069 562.764 591.855 562.228 592.318 560.268C599.976 527.837 558.83 553.335 549.388 550.067L549.891 548.876C552.716 546.622 556.516 546.166 560.119 545.363C566.315 544.133 571.369 542.918 577.472 541.286C579.64 541.084 580.83 540.929 582.953 540.457C590.428 534.849 581.709 522.269 573.09 521.054C567.879 521.008 563.45 521.96 558.474 523.53C542.583 526.795 529.995 531.381 516.675 540.66C522.054 531.593 526.926 530.75 536.524 526.877C535.414 521.067 533.32 507.936 533.621 502.042C534.138 491.897 519.749 469.651 509.327 478.501C508.469 481.256 508.402 480.155 509.282 482.726C510.709 487.642 513.156 495.21 514.055 500.046C514.16 504.644 515.177 514.442 514.79 518.336C513.934 526.966 511.106 537.436 509.408 546.249C506.031 563.773 504.161 593.385 494.729 608.463C495.15 605.795 496.058 602.135 496.656 599.412L497.869 595.947L498.912 592.766Z"/><path fill="#76D9B3" d="M542.88 638.841C546.817 637.722 548.613 636.957 552.371 635.271C552.917 636.898 554.202 640.385 554.527 641.902L553.148 640.973C551.326 642.391 550.943 643.583 549.833 645.683C545.885 646.301 543.698 648.075 540.026 649.274C540.753 645.725 541.843 642.313 542.88 638.841Z"/><path fill="#FEFDFE" d="M509.282 482.726L510.496 481.679C516.411 482.29 517.769 495.567 514.055 500.046C513.156 495.21 510.709 487.642 509.282 482.726Z"/><path fill="#FAA26B" d="M560.119 545.363C562.432 543.177 566.536 540.004 569.638 539.382C574.25 538.458 574.22 539.18 577.472 541.286C571.369 542.918 566.315 544.133 560.119 545.363Z"/><path fill="#FCD2A4" d="M558.474 523.53C563.45 521.96 567.879 521.008 573.09 521.054C570.708 524.734 562.554 526.651 559.123 524.43L558.474 523.53Z"/><path fill="#269D78" d="M554.787 634.208C559.182 645.194 555.829 655.247 552.773 666.576C558.666 681.204 558.931 685.815 558.466 701.875L557.401 709.856C557.094 713.542 556.748 717.226 556.365 720.905C555.584 728.131 553.079 748.269 547.439 752.818L546.475 752.431C546.804 751.172 547.247 750.571 547.801 749.469C553.066 738.996 552.218 727.927 553.789 716.645C556.32 698.464 557.038 688.215 551.593 670.565C550.753 673.293 550.471 675.233 548.481 677.215L547.941 676.618C548.722 666.768 553.547 654.456 554.527 641.902C554.202 640.385 552.917 636.898 552.371 635.271L554.787 634.208Z"/><path fill="#269D78" d="M549.833 645.683C535.753 665.27 501.581 642.725 496.401 624.518C494.769 618.783 486.994 602.087 496.656 599.412C496.058 602.135 495.15 605.795 494.729 608.463C499.361 631.109 512.063 649.872 537.184 650.311L540.026 649.274C543.698 648.075 545.885 646.301 549.833 645.683Z"/><path fill="#76D9B3" d="M558.466 701.875C566.283 712.59 566.408 727.677 563.596 740.132C561.402 728.323 562.436 722.831 558.723 710.257L557.401 709.856L558.466 701.875Z"/><path fill="#76D9B3" d="M477.306 635.984C479.38 638.341 479.121 643.03 479.773 646.438C480.641 651.211 482.203 655.831 484.409 660.151C494.941 680.512 517.715 692.305 539.879 681.888C541.597 681.081 542.192 680.642 544.056 680.02L543.996 681.487C542.277 682.576 540.529 683.618 538.755 684.614C509.738 700.863 469.225 663.791 477.306 635.984Z"/><path fill="#789DDA" d="M549.146 916.172L551.791 918.356C555.545 920.517 566.483 925.297 567.562 928.172C567.257 928.743 566.886 929.631 566.46 929.991L568.71 931.161C570.047 928.444 569.243 929.085 571.596 928.02C573.462 928.34 575.015 929.232 575.618 931.131C578.742 929.661 585.905 933.116 590.194 934.278C608.345 939.192 637.293 946.276 655.916 946.684L659.168 947.233C665.585 947.741 678.651 948.264 684.313 949.129L686.98 949.693C693.183 949.046 715.555 949.883 723.878 949.777C744.756 949.387 765.6 947.932 786.33 945.419L787.611 945.214C790.675 944.672 791.654 944.675 794.758 944.685L796.383 943.946C798.136 946.249 800.068 948.946 801.994 951.062C804.2 949.891 818.314 949.359 821.509 948.698C831.429 946.644 841.378 943.732 851.117 941.002L851.265 941.694L853.663 940.711L853.887 940.941C855.082 939.384 867.635 933.682 870.242 932.418L868.765 925.418L871.039 924.117C872.493 930.405 874.254 937.374 875.463 943.647C877.469 953.075 887.188 1000.33 886.082 1007.45L884.409 1008.65C878.661 1009.38 870.717 1011.53 864.877 1012.94L862.615 1013.25C801.034 1024.49 744.984 1025.58 682.827 1022.41L668.425 1021.34C665.831 1021.15 664.231 1020.95 661.674 1020.48C654.1 1020.29 642.715 1018.6 634.958 1017.52C603.305 1013.13 573.091 1007.3 543.051 996.163C541.736 995.872 542.234 996.029 541.094 995.096C538.745 984.485 547.006 928.732 549.146 916.172Z"/><path fill="#789DDA" d="M871.039 924.117C872.493 930.405 874.254 937.374 875.463 943.647C877.469 953.075 887.188 1000.33 886.082 1007.45L884.409 1008.65C878.661 1009.38 870.717 1011.53 864.877 1012.94L862.615 1013.25L857.973 981.277L858.143 980.008C855.58 968.633 853.336 953.439 851.265 941.694L853.663 940.711L853.887 940.941C855.082 939.384 867.635 933.682 870.242 932.418L868.765 925.418L871.039 924.117Z"/><path fill="#22395B" d="M871.039 924.117C872.493 930.405 874.254 937.374 875.463 943.647C877.469 953.075 887.188 1000.33 886.082 1007.45L884.409 1008.65C883.14 1005.84 879.853 981.109 879.03 976.291C876.421 961.605 873.491 946.976 870.242 932.418L868.765 925.418L871.039 924.117Z"/><path fill="#446FAD" d="M853.663 940.711L853.887 940.941C856.542 955.26 859.014 969.612 861.303 983.994C862.588 992.024 864.772 1005.08 864.877 1012.94L862.615 1013.25L857.973 981.277L858.143 980.008C855.58 968.633 853.336 953.439 851.265 941.694L853.663 940.711Z"/><path fill="#789DDA" d="M801.994 951.062C804.2 949.891 818.314 949.359 821.509 948.698C831.429 946.644 841.378 943.732 851.117 941.002L851.265 941.694C853.336 953.439 855.58 968.633 858.143 980.008C832.687 977.934 816.792 972.676 801.994 951.062Z"/><path fill="#5D87C4" d="M686.98 949.693C693.183 949.046 715.555 949.883 723.878 949.777C744.756 949.387 765.6 947.932 786.33 945.419L788.324 952.278C766.264 954.733 706.669 962.041 687.31 957.767L686.98 949.693Z"/><path fill="#5D87C4" d="M568.71 931.161C570.047 928.444 569.243 929.085 571.596 928.02C573.462 928.34 575.015 929.232 575.618 931.131C578.742 929.661 585.905 933.116 590.194 934.278C608.345 939.192 637.293 946.276 655.916 946.684C656.225 950.05 656.66 953.508 656.539 956.87C633.382 952.804 595.662 944.419 574.361 936.469C572.596 939.168 570.627 941.92 568.78 944.578C570.023 941.632 571.155 939.29 572.58 936.447C571.333 935.519 569.182 934.302 567.802 933.461L568.71 931.161Z"/><defs><linearGradient id="gradient_0" gradientUnits="userSpaceOnUse" x1="545.63647" y1="936.53119" x2="560.42535" y2="944.91119"><stop offset="0" stop-color="#93B2ED"/><stop offset="1" stop-color="#557FC1"/></linearGradient></defs><path fill="url(#gradient_0)" d="M551.791 918.356C555.545 920.517 566.483 925.297 567.562 928.172C567.257 928.743 566.886 929.631 566.46 929.991L568.71 931.161L567.802 933.461C562.483 944.215 558.286 950.009 546.638 954.53C546.903 952.148 547.253 949.958 547.636 947.602C548.171 941.77 549.095 931.348 550.749 925.946L550.813 925.285C550.765 923.559 551.47 920.189 551.791 918.356Z"/><path fill="#5D87C4" d="M547.636 947.602C548.171 941.77 549.095 931.348 550.749 925.946C551.109 934.814 556.892 929.105 559.504 936.884C558.554 940.674 552.762 944.561 549.482 946.543C548.874 946.909 548.258 947.262 547.636 947.602Z"/><path fill="#5D87C4" d="M551.791 918.356C555.545 920.517 566.483 925.297 567.562 928.172C567.257 928.743 566.886 929.631 566.46 929.991C566.211 930.623 566.31 930.293 566.159 931.146L566.043 931.832L564.822 932.418L564.954 933.808L564.537 934.075L563.921 931.912C561.793 930.31 553.342 925.442 550.813 925.285C550.765 923.559 551.47 920.189 551.791 918.356Z"/><path fill="#22395B" d="M549.146 916.172L551.791 918.356C551.47 920.189 550.765 923.559 550.813 925.285L550.749 925.946C549.095 931.348 548.171 941.77 547.636 947.602C547.253 949.958 546.903 952.148 546.638 954.53C544.239 963.334 544.562 992.194 543.051 996.163C541.736 995.872 542.234 996.029 541.094 995.096C538.745 984.485 547.006 928.732 549.146 916.172Z"/><path fill="#446FAD" d="M794.758 944.685L796.383 943.946C798.136 946.249 800.068 948.946 801.994 951.062C816.792 972.676 832.687 977.934 858.143 980.008L857.973 981.277C834.093 980.4 812.554 973.622 798.8 952.441C795.778 950.972 794.87 951.095 791.768 952.083C789.959 950.065 788.879 947.635 787.611 945.214C790.675 944.672 791.654 944.675 794.758 944.685Z"/><path fill="#5D87C4" d="M787.611 945.214C790.675 944.672 791.654 944.675 794.758 944.685C795.956 947.293 797.099 950.175 798.8 952.441C795.778 950.972 794.87 951.095 791.768 952.083C789.959 950.065 788.879 947.635 787.611 945.214Z"/><path fill="#446FAD" d="M656.788 1013.31C645.754 1006.82 632.019 998.681 619.704 994.744C618.335 994.307 617.425 993.151 617.092 991.883C621.282 991.636 667.241 1016.86 675.241 1017.92L675.204 1016.46C677.946 1016.48 679.271 1020.35 682.827 1022.41L668.425 1021.34C665.831 1021.15 664.231 1020.95 661.674 1020.48C661.363 1019.45 657.809 1014.9 656.788 1013.31Z"/><path fill="#5D87C4" d="M656.788 1013.31C659.796 1014.65 669.316 1018.48 670.753 1020.66L668.425 1021.34C665.831 1021.15 664.231 1020.95 661.674 1020.48C661.363 1019.45 657.809 1014.9 656.788 1013.31Z"/><path fill="#5D87C4" d="M659.168 947.233C665.585 947.741 678.651 948.264 684.313 949.129L684.426 956.381C676.548 956.138 667.681 956.404 659.722 956.463L659.168 947.233Z"/><path fill="#446FAD" d="M786.33 945.419L787.611 945.214C788.879 947.635 789.959 950.065 791.768 952.083C803.611 974.6 824.823 988.384 850.393 990.079L848.66 991.59C832.958 990.945 815.835 983.402 804.355 972.854C799.531 968.422 790.661 958.605 788.324 952.278L786.33 945.419Z"/><path fill="#446FAD" d="M684.313 949.129L686.98 949.693L687.31 957.767C687.054 969.742 690.394 992.504 689.632 1001.44C686.893 997.037 684.716 962.726 684.426 956.381L684.313 949.129Z"/><path fill="#446FAD" d="M655.916 946.684L659.168 947.233L659.722 956.463L659.636 957.412C658.831 967.145 661.43 976.996 662.439 986.431L661.741 986.804C659.092 983.337 658.353 963.611 656.539 956.87C656.66 953.508 656.225 950.05 655.916 946.684Z"/><path fill="#5D87C4" d="M850.393 990.079C852.86 990.018 855.217 989.64 857.299 990.749C855.209 992.407 851.008 992.491 848.66 991.59L850.393 990.079Z"/><path fill="#FEC081" d="M787.514 552.896C791.184 553.929 792.86 554.315 796.238 556.121L798.096 556.988C804.441 559.92 809.978 562.783 816.155 566.063L818.12 566.577C820.904 568.289 827.498 572.207 828.858 574.788C836.408 589.108 842.113 614.073 846.718 629.996C848.294 635.289 850.307 642.719 852.167 647.742L853.334 650.191L855.158 651.883C856.76 654.744 857.143 655.341 857.89 658.634C856.409 679.154 848.314 695.262 830.747 706.421L828.882 706.66C823.755 709.952 821.716 708.498 816.843 709.49C815.221 702.595 815.83 699.921 816.791 692.718L815.962 692.188L812.836 691.182C802.464 685.367 798.509 677.78 793.11 667.826C792.94 667.038 789.895 660.14 789.38 658.94C788.657 656.616 786.4 651.91 785.316 649.491C781.346 647.663 776.408 644.653 772.433 645.525C770.911 647.427 771.433 647.999 771.423 650.901L768.474 651.33C767.665 650.971 766.868 650.584 766.086 650.169C756.471 645.121 752.493 634.088 758.342 624.712C752.215 609.456 759.947 607.025 757.902 599.804C754.984 587.252 761.573 586.233 761.363 579.881C760.882 565.337 759.914 566.991 775.147 557.809L778.144 556.407C781.933 554.31 783.295 554.013 787.514 552.896Z"/><path fill="#B96122" d="M760.385 598.413L761.717 600.947L762.467 600.789C771.784 599.02 787.025 600.999 796.81 601.797L798.014 602.631L797.916 603.797C790.168 608.235 748.038 590.187 760.244 621.428C764.926 621.283 787.488 622.963 790.491 625.066L790.607 626.115C786.478 629.841 758.43 616.146 758.473 632.212C758.49 638.29 761.377 647.112 768.413 647.91C769.917 645.6 768.169 643.588 766.857 641.373L767.524 640.864C795.855 646.024 788.242 659.02 801.952 678.567C809.748 689.682 825.273 691.019 830.747 706.421L828.882 706.66C823.755 709.952 821.716 708.498 816.843 709.49C815.221 702.595 815.83 699.921 816.791 692.718L815.962 692.188L812.836 691.182C802.464 685.367 798.509 677.78 793.11 667.826C792.94 667.038 789.895 660.14 789.38 658.94C788.657 656.616 786.4 651.91 785.316 649.491C781.346 647.663 776.408 644.653 772.433 645.525C770.911 647.427 771.433 647.999 771.423 650.901L768.474 651.33C767.665 650.971 766.868 650.584 766.086 650.169C756.471 645.121 752.493 634.088 758.342 624.712C752.215 609.456 759.947 607.025 757.902 599.804L760.385 598.413Z"/><path fill="#76D9B3" d="M816.791 692.718C822.755 695.91 825.189 700.982 828.882 706.66C823.755 709.952 821.716 708.498 816.843 709.49C815.221 702.595 815.83 699.921 816.791 692.718Z"/><path fill="#B96122" d="M787.514 552.896C791.184 553.929 792.86 554.315 796.238 556.121L798.096 556.988C804.441 559.92 809.978 562.783 816.155 566.063L818.12 566.577C820.904 568.289 827.498 572.207 828.858 574.788C836.408 589.108 842.113 614.073 846.718 629.996C848.294 635.289 850.307 642.719 852.167 647.742L853.334 650.191L855.158 651.883C856.76 654.744 857.143 655.341 857.89 658.634C842.628 644.01 838.792 604.177 830.56 584.086C824.248 568.681 805.206 562.87 791.362 556.353C787.06 554.652 786.316 554.941 782.122 556.658C774.813 560.953 759.663 567.522 763.618 578.207C768.469 581.852 778.362 576.081 783.214 573.561C787.228 575.599 791.379 577.909 795.539 579.651C798.714 580.98 804.849 580.678 806.803 582.247C797.906 588.809 755.114 567.064 760.385 598.413L757.902 599.804C754.984 587.252 761.573 586.233 761.363 579.881C760.882 565.337 759.914 566.991 775.147 557.809L778.144 556.407C781.933 554.31 783.295 554.013 787.514 552.896Z"/><path fill="#FCD2A4" d="M782.122 556.658C786.316 554.941 787.06 554.652 791.362 556.353C788.443 557.953 786.871 560.058 784.19 560.83C782.474 559.667 782.885 559.28 782.122 556.658Z"/><path fill="#050912" d="M771.423 650.901C771.433 647.999 770.911 647.427 772.433 645.525C776.408 644.653 781.346 647.663 785.316 649.491C786.4 651.91 788.657 656.616 789.38 658.94C789.895 660.14 792.94 667.038 793.11 667.826C798.509 677.78 802.464 685.367 812.836 691.182C812.036 693.834 811.254 696.345 810.617 699.049C810.383 701.924 809.97 704.538 810.997 707.291L811.301 709.778C815.681 719.959 818.129 719.001 821.804 724.902C826.187 729.24 831.612 743.601 831.775 749.989C832.198 751.055 834.491 756.653 834.649 757.427C836.528 761.204 847.878 780.889 850.315 783.591C855.761 792.492 863.943 805.658 870.758 813.779L872.82 816.18C876.484 821.183 884.846 832.151 890.073 834.723C890.431 841.374 887.983 874.799 886.511 881.375L885.945 881.23C885.22 877.235 885.25 876.534 885.609 872.509C883.478 870.979 881.26 869.435 879.18 867.85L876.964 865.882L870.339 859.549C839.001 827.208 809.813 779.566 794.429 737.171C789.808 735.004 788.786 734.133 785.314 730.573C774.238 711.599 769.276 673.194 768.474 651.33L771.423 650.901Z"/><path fill="#22395B" d="M803.395 752.827C811.389 753.199 815.034 762.73 820.754 767.424C829.378 774.501 839.024 776.487 844.906 786.453L846.315 784.915C849.238 789.873 858.591 806.798 863.022 808.788C865.094 810.924 866.187 812.647 867.868 815.066C870.714 820.704 872.693 849.221 868.653 854.217C864.829 849.319 860.362 844.671 856.526 839.766C836.883 814.641 815.511 782.394 803.395 752.827Z"/><path fill="#1B2E4B" d="M771.423 650.901C771.433 647.999 770.911 647.427 772.433 645.525C776.408 644.653 781.346 647.663 785.316 649.491C786.4 651.91 788.657 656.616 789.38 658.94C789.895 660.14 792.94 667.038 793.11 667.826C798.509 677.78 802.464 685.367 812.836 691.182C812.036 693.834 811.254 696.345 810.617 699.049C810.231 698.428 809.847 698.286 809.189 697.804C805.118 697.555 802.785 698.198 798.8 699.004C796.671 699.707 796.709 699.625 794.421 699.515C792.197 699.632 786.527 699.98 786.075 702.078C784.333 710.165 790.652 723.458 790.886 731.207L790.177 731.862C777.374 720.411 771.545 668.423 771.423 650.901Z"/><path fill="#1B2E4B" d="M793.11 667.826C798.509 677.78 802.464 685.367 812.836 691.182C812.036 693.834 811.254 696.345 810.617 699.049C810.231 698.428 809.847 698.286 809.189 697.804C805.118 697.555 802.785 698.198 798.8 699.004L797.286 697.927C795.329 691.43 790.274 674.092 793.11 667.826Z"/><path fill="#0E1D31" d="M794.421 699.515C792.371 690.228 786.071 666.571 789.38 658.94C789.895 660.14 792.94 667.038 793.11 667.826C790.274 674.092 795.329 691.43 797.286 697.927L798.8 699.004C796.671 699.707 796.709 699.625 794.421 699.515Z"/><path fill="#1B2E4B" d="M796.745 737.412C807.465 737.728 814.841 738.777 823.258 731.331C824.473 736.085 828.488 745.614 830.802 750.134L831.775 749.989C832.198 751.055 834.491 756.653 834.649 757.427C832.901 763.904 858.554 800.978 863.022 808.788C858.591 806.798 849.238 789.873 846.315 784.915L844.906 786.453C839.024 776.487 829.378 774.501 820.754 767.424C815.034 762.73 811.389 753.199 803.395 752.827C801.204 747.678 798.987 742.539 796.745 737.412Z"/><path fill="#1B2E4B" d="M867.868 815.066C873.99 821.826 880.972 829.843 887.397 836.164C887.164 841.452 888.084 864.532 885.197 867.575C881.188 867.566 872.327 857.919 869.135 854.705L868.653 854.217C872.693 849.221 870.714 820.704 867.868 815.066Z"/><path fill="#1B2E4B" d="M811.301 709.778C815.681 719.959 818.129 719.001 821.804 724.902L822.05 728.557C816.845 738.806 790.442 737.891 793.513 727.795C797.581 724.178 808.928 723.693 815.144 722.214C808.566 721.831 799.243 723.149 792.353 723.823C790.782 719.992 789.367 714.754 788.145 710.695C793.375 710.277 794.917 711.092 799.883 711.298C802.877 711.423 808.202 710.361 811.301 709.778Z"/><path fill="#22395B" d="M787.533 708.462C787.724 706.163 787.607 705.736 788.809 703.877C793.209 700.446 804.448 700.028 810.617 699.049C810.383 701.924 809.97 704.538 810.997 707.291L811.301 709.778C808.202 710.361 802.877 711.423 799.883 711.298C794.917 711.092 793.375 710.277 788.145 710.695L787.533 708.462Z"/><path fill="#0E1D31" d="M787.533 708.462C797.517 708.541 801.325 708.627 810.997 707.291L811.301 709.778C808.202 710.361 802.877 711.423 799.883 711.298C794.917 711.092 793.375 710.277 788.145 710.695L787.533 708.462Z"/><path fill="#22395B" d="M849.868 451.709C854.474 450.937 858.414 450.553 863.039 450.151C868.85 449.646 874.612 451.751 879.499 449.05L887.079 451.775L890.788 454.447C892.367 455.793 892.772 456.067 893.963 457.73L890.969 459.428C886.8 457.504 885.051 456.863 880.638 455.587C850.994 471.658 831.479 520.314 822.266 551.254C820.729 556.319 819.346 561.428 818.12 566.577L816.155 566.063C809.978 562.783 804.441 559.92 798.096 556.988L796.238 556.121C792.86 554.315 791.184 553.929 787.514 552.896C783.295 554.013 781.933 554.31 778.144 556.407L775.147 557.809C779.522 530.722 793.093 498.865 805.87 474.592C806.715 473.666 811.814 465.698 812.833 464.155C813.628 463.465 815.253 462.532 816.206 461.935C815.716 464.451 814.658 465.38 813.053 467.377C818.315 472.265 828.824 464.61 833.606 467.448C838.242 461.792 842.73 457.897 847.211 452.613L849.868 451.709Z"/><path fill="#22395B" d="M812.833 464.155C813.628 463.465 815.253 462.532 816.206 461.935C815.716 464.451 814.658 465.38 813.053 467.377C818.315 472.265 828.824 464.61 833.606 467.448C814.486 496.583 804.035 521.799 796.238 556.121C792.86 554.315 791.184 553.929 787.514 552.896C783.295 554.013 781.933 554.31 778.144 556.407L775.147 557.809C779.522 530.722 793.093 498.865 805.87 474.592C806.715 473.666 811.814 465.698 812.833 464.155Z"/><path fill="#050912" d="M812.833 464.155C813.628 463.465 815.253 462.532 816.206 461.935C815.716 464.451 814.658 465.38 813.053 467.377C797.041 494.172 783.842 525.611 778.144 556.407L775.147 557.809C779.522 530.722 793.093 498.865 805.87 474.592C806.715 473.666 811.814 465.698 812.833 464.155Z"/><path fill="#050912" d="M881.23 452.912C884.555 453.807 887.456 454.94 890.788 454.447C892.367 455.793 892.772 456.067 893.963 457.73L890.969 459.428C886.8 457.504 885.051 456.863 880.638 455.587C850.994 471.658 831.479 520.314 822.266 551.254C820.729 556.319 819.346 561.428 818.12 566.577L816.155 566.063C816.377 560.929 823.386 537.446 825.558 532C837.319 502.507 851.254 467.547 881.23 452.912Z"/><path fill="#0E1D31" d="M847.211 452.613L849.868 451.709L850.782 452.891C846.475 458.374 836.306 468.109 833.14 472.662C818.792 493.291 803.277 532.476 798.096 556.988L796.238 556.121C804.035 521.799 814.486 496.583 833.606 467.448C838.242 461.792 842.73 457.897 847.211 452.613Z"/><path fill="#269D78" d="M498.912 592.766L497.869 595.947C480.605 603.594 485.883 625.057 477.592 632.972L477 632.509L477.237 628.688C474.385 628.899 470.393 632.465 468.554 634.669C460.184 644.702 457.795 659.059 453.742 671.135C450.264 681.498 446.247 691.324 444.163 701.979C442.756 708.946 442.301 716.072 442.81 723.161C444.446 745.331 454.744 768.286 471.542 783.035C502.193 809.978 538.06 784.978 559.165 759.368C562.287 755.58 571.625 743.692 572.769 739.6C577.686 722 581.743 695.17 581.373 677.269C580.905 654.599 578.387 637.282 581.417 615.026L584.374 613.145C579.785 634.263 584.312 651.769 583.966 672.527C583.296 712.796 574.578 756.441 563.581 795.121C559.254 810.341 544.837 824.541 542.649 840.776C541.106 851.867 546.259 862.934 550.53 872.742C548.728 879.856 542.314 903.63 545.687 908.757C557.203 923.134 590.567 932.59 607.517 936.194C681.391 951.9 761.096 950.765 834.679 934.093C840.328 932.812 873.47 923.755 873.916 917.394C874.521 908.768 871.01 892.548 869.601 883.259C872.812 876.64 874.459 872.901 876.964 865.882L879.18 867.85C877.139 872.762 874.588 878.956 872.048 883.567C873.313 892.809 876.61 908.58 876.667 916.921L876.461 918.997C874.423 921.348 873.695 922.335 871.039 924.117L868.765 925.418L870.242 932.418C867.635 933.682 855.082 939.384 853.887 940.941L853.663 940.711L851.265 941.694L851.117 941.002C841.378 943.732 831.429 946.644 821.509 948.698C818.314 949.359 804.2 949.891 801.994 951.062C800.068 948.946 798.136 946.249 796.383 943.946L794.758 944.685C791.654 944.675 790.675 944.672 787.611 945.214L786.33 945.419C765.6 947.932 744.756 949.387 723.878 949.777C715.555 949.883 693.183 949.046 686.98 949.693L684.313 949.129C678.651 948.264 665.585 947.741 659.168 947.233L655.916 946.684C637.293 946.276 608.345 939.192 590.194 934.278C585.905 933.116 578.742 929.661 575.618 931.131C575.015 929.232 573.462 928.34 571.596 928.02C569.243 929.085 570.047 928.444 568.71 931.161L566.46 929.991C566.886 929.631 567.257 928.743 567.562 928.172C566.483 925.297 555.545 920.517 551.791 918.356L549.146 916.172C538.826 909.495 541.859 900.982 543.813 890.636C544.949 884.62 546.443 878.574 547.774 872.591C529.089 835.316 547.656 827.07 561.122 794.451C564.445 786.401 570.922 754.39 572.777 744.754C560.139 764.312 545.652 780.787 524.58 791.531C491.482 808.405 463.246 787.013 449.124 756.884C439.796 737.243 437.809 714.911 443.524 693.931C445.616 686.304 448.782 678.487 451.376 670.959C458.105 651.432 457.957 634.159 478.791 624.564C483.543 610.948 482.894 597.41 498.912 592.766Z"/><path fill="#5D87C4" d="M849.588 932.767C850.351 935.936 850.687 937.769 851.117 941.002C841.378 943.732 831.429 946.644 821.509 948.698C818.314 949.359 804.2 949.891 801.994 951.062C800.068 948.946 798.136 946.249 796.383 943.946C810.386 943.483 835.768 936.553 849.588 932.767Z"/><path fill="#5D87C4" d="M868.765 925.418L870.242 932.418C867.635 933.682 855.082 939.384 853.887 940.941L853.663 940.711L851.265 941.694L851.117 941.002C850.687 937.769 850.351 935.936 849.588 932.767L851.701 932.152C858.179 930.054 862.533 928.17 868.765 925.418Z"/><path fill="#22395B" d="M851.701 932.152C852.35 934.832 853.219 938.037 853.663 940.711L851.265 941.694L851.117 941.002C850.687 937.769 850.351 935.936 849.588 932.767L851.701 932.152Z"/><path fill="#269D78" d="M724.966 487.91C725.036 487.347 725.114 486.784 725.199 486.222C725.78 482.376 726.316 480.023 729.636 477.564C732.211 477.488 731.233 477.324 733.656 478.926C734.949 480.855 734.464 483.461 734.364 485.96C737.127 486.396 747.856 482.508 751.374 481.359C768.767 475.745 786.089 469.912 803.335 463.861C830.161 454.472 850.58 444.73 879.499 449.05C874.612 451.751 868.85 449.646 863.039 450.151C858.414 450.553 854.474 450.937 849.868 451.709L847.211 452.613C842.73 457.897 838.242 461.792 833.606 467.448C828.824 464.61 818.315 472.265 813.053 467.377C814.658 465.38 815.716 464.451 816.206 461.935C815.253 462.532 813.628 463.465 812.833 464.155C811.814 465.698 806.715 473.666 805.87 474.592C800.072 473.998 775.871 483.218 763.526 481.039C757.697 481.63 740.935 487.738 733.022 489.576C728.692 519.92 723.183 550.393 719.491 580.908C718.576 588.465 725.891 590.648 717.931 598.543C717.687 603.836 718.493 608.982 712.959 611.276C707.557 608.705 709.592 602.916 710.365 597.943C702.884 589.072 710.525 588.9 711.156 582.801C714.315 552.256 719.049 521.911 723.799 491.579C720.768 492.382 718.578 493.251 715.507 492.791L715.341 491.934C717.902 489.742 721.67 488.931 724.966 487.91Z"/><path fill="#76D9B3" d="M763.526 481.039C767.279 478.874 809.4 464.539 812.833 464.155C811.814 465.698 806.715 473.666 805.87 474.592C800.072 473.998 775.871 483.218 763.526 481.039Z"/><path fill="#1B2E4B" d="M816.206 461.935C821.966 459.974 842.099 453.026 847.211 452.613C842.73 457.897 838.242 461.792 833.606 467.448C828.824 464.61 818.315 472.265 813.053 467.377C814.658 465.38 815.716 464.451 816.206 461.935Z"/><path fill="#76D9B3" d="M729.761 479.782C730.268 480.081 731.204 480.85 731.714 481.242C732.017 484.065 727.957 506.44 727.244 510.87C724.483 527.609 721.982 544.391 719.741 561.208C719.17 565.685 717.986 583.12 715.958 585.65C714.986 584.995 713.454 584.294 713.674 582.903C716.086 567.605 723.699 487.257 729.761 479.782Z"/><path fill="#76D9B3" d="M714.198 585.819C717.858 586.907 718.965 588.74 719.197 592.41C717.997 594.723 718.853 593.888 716.59 595.056C714.19 594.941 713.159 595.11 711.128 593.988C709.501 591.711 709.828 592.931 709.991 590.235C711.262 587.747 711.885 587.453 714.198 585.819Z"/><path fill="#269D78" d="M621.268 427.518C622.158 419.395 622.549 411.5 628.795 405.245C640.17 393.852 659.016 399.53 672.95 399.715C678.875 399.793 684.894 398.839 691.556 398.845L691.586 401.637C685.801 401.569 673.464 403.457 670.382 402.48C652.002 400.745 625.541 395.906 624.31 422.818C624.235 424.463 624.468 428.615 623.17 429.387C609.182 437.7 599.984 446.11 607.488 464.095C610.536 462.901 613.99 461.672 616.856 460.16C625.343 463.648 671.413 484.657 676.882 484.711C677.988 482.203 678.506 479.216 680.365 477.945C686.698 477.77 686.466 481.903 685.784 486.783C687.209 488.752 695.95 492.05 699.212 493.957C693.848 492.932 690.168 491.997 684.945 490.532C681.564 509.358 678.411 528.224 675.488 547.126C673.907 557.129 672.315 567.284 670.957 577.332C670.52 580.567 673.46 584.369 673.009 587.64C672.686 589.981 670.602 592.125 669.071 593.88C668.918 598.633 669.682 604.716 664.044 606C659.105 603.193 660.772 597.444 661.383 592.686C655.935 584.695 660.493 585.438 661.542 581.079C668.462 552.351 668.935 516.094 676.811 487.822C668.812 484.978 660.366 482.128 652.578 478.845C650.751 477.751 639.422 473.141 636.834 472.04C630.437 469.063 624.045 466.016 617.536 463.299C586.481 475.812 573.496 489.474 559.906 520.259C558.83 520.521 557.384 520.942 556.323 521.032C563.637 502.47 573.877 486.008 590.492 474.409C591.661 473.421 603.995 466.323 603.902 465.567C601.772 448.233 601.117 436.904 621.268 427.518Z"/><path fill="#76D9B3" d="M680.587 479.477C682.221 480.138 682.33 480.272 683.713 481.253C683.766 483.674 679.376 508.251 678.637 512.794L668.248 580.349C666.549 579.952 666.656 579.955 665.218 578.939C665.016 573.479 668.734 548.564 670.033 541.523C673.462 522.947 675.93 497.22 680.587 479.477Z"/><path fill="#76D9B3" d="M665.186 581.512C667.711 581.158 670.043 582.926 670.383 585.453C670.724 587.98 668.944 590.302 666.415 590.63C663.905 590.955 661.604 589.191 661.266 586.683C660.928 584.174 662.679 581.864 665.186 581.512Z"/><path fill="#A5E9CB" d="M665.076 592.158C667.347 594.984 666.23 601.548 664.158 604.409C662.676 600.956 663.36 595.426 665.076 592.158Z"/><path fill="#76D9B3" d="M785.314 730.573C788.786 734.133 789.808 735.004 794.429 737.171C809.813 779.566 839.001 827.208 870.339 859.549C869.702 859.55 868.155 859.496 867.624 859.275C833.542 845.101 817.105 809.566 802.184 778.278C800.604 774.965 802.223 764.89 800.291 761.03C799.46 760.874 796.016 760.253 795.623 759.79C789.495 752.586 785.544 739.224 785.314 730.573Z"/><path fill="#76D9B3" d="M636.834 472.04C639.422 473.141 650.751 477.751 652.578 478.845L651.743 479.488C650.802 483.366 652.865 481.036 652.785 483.982C648.235 484.918 639.404 475.74 636.834 472.04Z"/><path fill="#76D9B3" d="M887.079 451.775C891.079 448.878 893.401 449.453 897.551 451.369C897.575 453.719 897.988 456.95 896.688 458.679C895.129 458.577 895.221 458.641 893.963 457.73C892.772 456.067 892.367 455.793 890.788 454.447L887.079 451.775Z"/><path fill="#76D9B3" d="M558.073 879.498C561.06 879.6 574.214 886.185 578.171 887.718C588.382 891.675 598.824 894.515 609.598 896.698C671.317 909.203 736.885 908.75 799.185 900.663C812.87 898.886 826.757 896.317 840.12 892.908C844.381 891.822 853.464 887.17 857.072 887.814L857.167 888.902C834.337 898.675 787.961 905.789 762.697 907.586C704.868 911.701 640.119 910.769 584.736 892.571C576.489 889.861 564.457 884.915 558.073 879.498Z"/><path fill="#76D9B3" d="M604.168 763.879C608.875 762.651 624.791 764.436 630.796 764.882C644.422 765.939 658.057 766.863 671.7 767.654C690.4 768.696 709.112 769.534 727.83 770.166C733.87 770.364 755.229 769.353 758.919 772.834C755.976 773.661 752.547 773.58 749.478 773.545C701.675 772.997 653.472 771.467 606.017 765.37C606.017 765.37 604.329 764.01 604.168 763.879Z"/><path fill="#76D9B3" d="M759.865 773.196C762.214 774.925 762.945 778.983 763.638 781.806C770.797 810.956 786.307 838.121 805.184 861.256C805.184 861.256 805.466 863.557 805.493 863.778C791.464 859.151 755.78 788.135 759.865 773.196Z"/><path fill="#76D9B3" d="M601.865 765.457L602.611 766.707C597.292 788.911 574.286 828.559 560.263 846.629L559.119 845.225C559.565 841.299 583.883 808.366 586.398 798.454C587.32 794.822 600.107 767.755 601.865 765.457Z"/><path fill="#76D9B3" d="M858.344 415.211C861.407 414.881 865.11 414.296 867.583 416.138C866.84 417.895 859.284 417.845 856.066 418.443C837.218 421.947 819.065 430.387 801.541 438.029C799.555 439.202 797.416 440.838 795.227 440.735L796.175 440.553L796.299 439.209C796.991 438.713 797.334 438.542 798.113 438.224C818.392 429.96 836.455 419.187 858.344 415.211Z"/><path fill="#FEC081" d="M762.248 72.9232C779.102 57.8375 810.008 66.5614 818.278 87.529C819.635 90.2387 819.623 92.2885 823.965 92.3985C847.698 92.9996 860.951 119.11 843.889 136.785C843.607 136.905 843.325 137.026 843.043 137.146L841.127 139.622L842.722 141.22C842.257 143.1 841.486 145.827 841.201 147.662L838.528 145.498L837.471 145.706C836.701 147.328 835.777 149.497 834.736 150.874L834.343 151.494C830.137 157.994 823.09 158.1 826.426 164.582C828.195 167.626 830.139 171.953 831.201 175.3L831.53 176.181C833.806 182.18 837.071 187.022 839.5 192.73C849.2 215.527 849.297 225.841 844.093 248.657C843.337 251.018 842.593 253.82 841.382 255.928C839.275 257.169 839.434 257.169 838.408 259.364L837.527 261.217C835.291 261.514 836.696 260.884 834.651 260.533C836.337 266.617 837.584 270.505 837.406 276.933C835.924 282.685 834.631 287.807 831.968 293.204C831.33 301.617 831.247 303.852 827.659 311.609L825.666 313.858C825.733 314.413 825.816 315.435 825.969 315.923L823.838 317.643L823.686 318.16C821.122 315.887 816.974 313.873 815.52 312.337C814.456 313.787 815.806 319.829 816.14 322.215C813.498 328.798 812.283 331.944 804.37 330.6C802.415 331.788 789.35 338.821 789.243 339.1C787.964 339.505 786.977 339.344 785.637 339.278L785.066 342.082C783.052 358.331 783.827 372.704 785.54 389.028L786.073 391.789C787.18 399.823 788.427 404.585 792.016 411.953L790.693 413.261C769.683 423.449 720.607 463.843 706.397 481.63C697.251 469.358 684.442 454.653 674.145 443.153L672.991 441.655C677.069 438.51 687.135 433.227 692.458 429.782C692.419 421.452 692.556 409.601 691.586 401.637L691.556 398.845C690.791 394.547 690.417 386.777 690.058 382.191C671 371.9 649.135 347.969 641.151 327.938C631.117 331.568 626.872 320.71 631.544 312.271C625.866 306.191 622.321 293.124 620.49 285.114C617.159 298.868 615.104 309.418 620.424 323.079C617.954 326.717 618.377 327.545 614.545 329.012C610.64 324.163 609.164 321.036 607.011 315.263C608.845 312.832 608.978 311.097 609.577 308.163C612.84 301.636 614.354 286.357 616.057 277.915C615.324 275.409 615.041 275.291 613.164 273.339C614.767 268.466 615.951 264.326 619.927 260.923C584.988 247.588 602.477 215.49 615.787 192.489C618.673 187.502 620.175 175.373 625.439 166.186C629.169 156.001 646.247 139.842 657.006 137.103L659.856 134.431C672.044 120.112 702.625 106.386 721.336 112.838C722.333 113.088 723.336 113.316 724.343 113.521C726.959 114.033 727.888 113.936 729.838 112.616C730.552 108.966 728.092 106.778 728.283 100.618L728.317 99.7538C728.985 97.088 730.196 94.6594 731.316 92.1386L733.919 90.298C734.63 88.6096 735.688 85.869 737.364 85.0462L740.169 86.0578L742.757 83.799L741.435 82.4683C746.162 80.9577 747.901 80.5943 752.776 80.674L755.186 82.4272C757.502 79.0308 760.327 78.0554 762.638 74.2135L762.248 72.9232ZM755.186 82.4272L752.776 80.674C747.901 80.5943 746.162 80.9577 741.435 82.4683L742.757 83.799L740.169 86.0578L737.364 85.0462C735.688 85.869 734.63 88.6096 733.919 90.298L731.316 92.1386C730.196 94.6594 728.985 97.088 728.317 99.7538L728.283 100.618C728.092 106.778 730.552 108.966 729.838 112.616C727.888 113.936 726.959 114.033 724.343 113.521C723.336 113.316 722.333 113.088 721.336 112.838C702.625 106.386 672.044 120.112 659.856 134.431L657.006 137.103C646.247 139.842 629.169 156.001 625.439 166.186C620.175 175.373 618.673 187.502 615.787 192.489C602.477 215.49 584.988 247.588 619.927 260.923C615.951 264.326 614.767 268.466 613.164 273.339C615.041 275.291 615.324 275.409 616.057 277.915C614.354 286.357 612.84 301.636 609.577 308.163C608.978 311.097 608.845 312.832 607.011 315.263C609.164 321.036 610.64 324.163 614.545 329.012C618.377 327.545 617.954 326.717 620.424 323.079C615.104 309.418 617.159 298.868 620.49 285.114L622.412 279.718L624.365 274.717C626.548 278.197 628.931 283.122 632.335 283.664C632.473 283.788 632.611 283.913 632.749 284.038C632.92 282.047 632.74 278.621 632.694 276.517L634.113 276.091C634.344 264.733 633.391 257.046 632.679 245.867C634.816 244.197 637.043 242.237 639.133 240.475C638.549 237.933 650.148 228.638 651.43 221.56C652.294 216.786 656.685 205.112 658.4 199.37L659.246 199.398C659.962 197.201 660.699 195.012 661.455 192.829C665.093 182.363 670.576 167.762 682.888 164.514C685.647 163.786 690.276 164.645 693.285 163.063C695.869 161.705 696.937 156.555 697.85 153.669C698.308 155.416 697.717 159.702 697.534 161.715C705.82 155.346 709.934 161.65 713.73 168.46L713.095 169.282L713.143 170.044C719.774 173.303 739.403 202.385 750.03 210.948L751.616 210.623C757.039 216.814 766.295 228.674 774.602 229.739L774.833 230.549L774.484 230.87C777.664 233.662 786.106 240.082 790.094 240.995L791.894 239.432L794.016 239.92L793.167 242.287C793.435 244.619 793.44 245.844 794.304 247.999C796.869 248.127 798.027 247.962 800.606 247.669L801.292 247.287C804.508 254.804 811.304 250.535 813.713 253.337C818.904 251.145 821.418 249.92 826.693 252.733L829.976 253.772L832.939 257.447C833.484 258.536 833.917 259.582 834.651 260.533C836.696 260.884 835.291 261.514 837.527 261.217L838.408 259.364C839.434 257.169 839.275 257.169 841.382 255.928C842.593 253.82 843.337 251.018 844.093 248.657C849.297 225.841 849.2 215.527 839.5 192.73C837.071 187.022 833.806 182.18 831.53 176.181L831.201 175.3C830.139 171.953 828.195 167.626 826.426 164.582C823.09 158.1 830.137 157.994 834.343 151.494L834.736 150.874C835.777 149.497 836.701 147.328 837.471 145.706L838.528 145.498L841.201 147.662C841.486 145.827 842.257 143.1 842.722 141.22L841.127 139.622L843.043 137.146C843.325 137.026 843.607 136.905 843.889 136.785C860.951 119.11 847.698 92.9996 823.965 92.3985C819.623 92.2885 819.635 90.2387 818.278 87.529C810.008 66.5614 779.102 57.8375 762.248 72.9232L762.638 74.2135C760.327 78.0554 757.502 79.0308 755.186 82.4272Z"/><path fill="#2E190E" d="M762.248 72.9232C779.102 57.8375 810.008 66.5614 818.278 87.529C819.635 90.2387 819.623 92.2885 823.965 92.3985C847.698 92.9996 860.951 119.11 843.889 136.785C843.607 136.905 843.325 137.026 843.043 137.146L841.127 139.622L842.722 141.22C842.257 143.1 841.486 145.827 841.201 147.662L838.528 145.498L837.471 145.706C836.701 147.328 835.777 149.497 834.736 150.874L834.343 151.494C830.137 157.994 823.09 158.1 826.426 164.582C828.195 167.626 830.139 171.953 831.201 175.3L831.53 176.181C833.806 182.18 837.071 187.022 839.5 192.73C849.2 215.527 849.297 225.841 844.093 248.657C843.337 251.018 842.593 253.82 841.382 255.928C839.275 257.169 839.434 257.169 838.408 259.364L837.527 261.217C835.291 261.514 836.696 260.884 834.651 260.533C833.917 259.582 833.484 258.536 832.939 257.447L829.976 253.772L826.693 252.733C821.418 249.92 818.904 251.145 813.713 253.337C811.304 250.535 804.508 254.804 801.292 247.287L800.606 247.669C798.027 247.962 796.869 248.127 794.304 247.999C793.44 245.844 793.435 244.619 793.167 242.287L794.016 239.92L791.894 239.432L790.094 240.995C786.106 240.082 777.664 233.662 774.484 230.87L774.833 230.549L774.602 229.739C766.295 228.674 757.039 216.814 751.616 210.623L750.03 210.948C739.403 202.385 719.774 173.303 713.143 170.044L713.095 169.282L713.73 168.46C709.934 161.65 705.82 155.346 697.534 161.715C697.717 159.702 698.308 155.416 697.85 153.669C696.937 156.555 695.869 161.705 693.285 163.063C690.276 164.645 685.647 163.786 682.888 164.514C670.576 167.762 665.093 182.363 661.455 192.829C660.699 195.012 659.962 197.201 659.246 199.398L658.4 199.37C656.685 205.112 652.294 216.786 651.43 221.56C650.148 228.638 638.549 237.933 639.133 240.475C637.043 242.237 634.816 244.197 632.679 245.867C633.391 257.046 634.344 264.733 634.113 276.091L632.694 276.517C632.74 278.621 632.92 282.047 632.749 284.038C632.611 283.913 632.473 283.788 632.335 283.664C628.931 283.122 626.548 278.197 624.365 274.717L622.412 279.718L620.49 285.114C617.159 298.868 615.104 309.418 620.424 323.079C617.954 326.717 618.377 327.545 614.545 329.012C610.64 324.163 609.164 321.036 607.011 315.263C608.845 312.832 608.978 311.097 609.577 308.163C612.84 301.636 614.354 286.357 616.057 277.915C615.324 275.409 615.041 275.291 613.164 273.339C614.767 268.466 615.951 264.326 619.927 260.923C584.988 247.588 602.477 215.49 615.787 192.489C618.673 187.502 620.175 175.373 625.439 166.186C629.169 156.001 646.247 139.842 657.006 137.103L659.856 134.431C672.044 120.112 702.625 106.386 721.336 112.838C722.333 113.088 723.336 113.316 724.343 113.521C726.959 114.033 727.888 113.936 729.838 112.616C730.552 108.966 728.092 106.778 728.283 100.618L728.317 99.7538C728.985 97.088 730.196 94.6594 731.316 92.1386L733.919 90.298C734.63 88.6096 735.688 85.869 737.364 85.0462L740.169 86.0578L742.757 83.799L741.435 82.4683C746.162 80.9577 747.901 80.5943 752.776 80.674L755.186 82.4272C757.502 79.0308 760.327 78.0554 762.638 74.2135L762.248 72.9232ZM610.87 237.818C608.579 225.677 609.625 217.084 613.075 205.2C602.657 224.552 596.17 241.4 616.704 256.032C615.03 253.046 614.075 251.633 613.285 248.229C611.895 245.211 611.212 241.116 610.87 237.818ZM844.09 131.528C847.547 125.353 849.203 120.056 847.246 112.885C845.662 107.139 841.776 102.301 836.507 99.5147C833.563 97.9454 831.003 97.2132 827.768 96.5486C839.509 108.015 843.664 117.485 841.607 133.863L842.105 134.138L844.09 131.528Z"/><path fill="#2E190E" d="M762.248 72.9232C779.102 57.8375 810.008 66.5614 818.278 87.529C819.635 90.2387 819.623 92.2885 823.965 92.3985C847.698 92.9996 860.951 119.11 843.889 136.785C843.607 136.905 843.325 137.026 843.043 137.146L841.127 139.622L842.722 141.22C842.257 143.1 841.486 145.827 841.201 147.662L838.528 145.498L837.471 145.706C836.701 147.328 835.777 149.497 834.736 150.874L834.343 151.494C830.137 157.994 823.09 158.1 826.426 164.582L825.061 164.923C823.277 162.547 823.636 159.793 822.887 158.767C818.861 153.253 813.877 145.853 808.727 141.614L807.896 141.305L807.643 139.653C806.578 138.197 806.378 138.013 804.681 137.399L804.136 136.094C800.601 131.97 789.437 126.351 784.462 121.459C778.056 120.726 769.002 115.828 763.642 112.392C763.644 114.089 763.942 113.412 762.905 114.558C758.256 113.087 756.412 112.719 751.556 112.035C748.831 98.1383 749.945 95.3622 755.186 82.4272C757.502 79.0308 760.327 78.0554 762.638 74.2135L762.248 72.9232ZM844.09 131.528C847.547 125.353 849.203 120.056 847.246 112.885C845.662 107.139 841.776 102.301 836.507 99.5147C833.563 97.9454 831.003 97.2132 827.768 96.5486C839.509 108.015 843.664 117.485 841.607 133.863L842.105 134.138L844.09 131.528Z"/><path fill="#26140A" d="M817.662 112.602C818.547 110.15 818.784 109.738 818.954 107.189C817.976 106.143 817.422 105.988 816.087 105.494C816.712 104.51 816.486 104.952 818.266 104.532C819.331 101.331 815.853 94.2212 816.144 90.4727C816.271 88.8364 816.679 89.0155 818.278 87.529C819.635 90.2387 819.623 92.2885 823.965 92.3985C847.698 92.9996 860.951 119.11 843.889 136.785C843.607 136.905 843.325 137.026 843.043 137.146L841.127 139.622L842.722 141.22C842.257 143.1 841.486 145.827 841.201 147.662L838.528 145.498L837.471 145.706C836.701 147.328 835.777 149.497 834.736 150.874L834.343 151.494C830.137 157.994 823.09 158.1 826.426 164.582L825.061 164.923C823.277 162.547 823.636 159.793 822.887 158.767C818.861 153.253 813.877 145.853 808.727 141.614L807.896 141.305L807.643 139.653C806.578 138.197 806.378 138.013 804.681 137.399L804.136 136.094C800.601 131.97 789.437 126.351 784.462 121.459L802.316 126.715C806.564 125.464 809.703 124.618 812.984 121.591C815.627 118.544 816.368 116.28 817.662 112.602ZM844.09 131.528C847.547 125.353 849.203 120.056 847.246 112.885C845.662 107.139 841.776 102.301 836.507 99.5147C833.563 97.9454 831.003 97.2132 827.768 96.5486C839.509 108.015 843.664 117.485 841.607 133.863L842.105 134.138L844.09 131.528Z"/><path fill="#26140A" d="M808.727 141.614L808.632 140.356C811.471 139.702 820.739 145.231 825.54 145.369C829.447 145.482 830.493 145.207 834.308 144.613C834.976 146.696 834.289 148.546 834.736 150.874L834.343 151.494C830.137 157.994 823.09 158.1 826.426 164.582L825.061 164.923C823.277 162.547 823.636 159.793 822.887 158.767C818.861 153.253 813.877 145.853 808.727 141.614Z"/><path fill="#130D0B" d="M804.136 136.094C812.603 139.614 823.106 146.49 831.757 142.894C837.006 140.711 837.438 137.263 840.242 133.868C840.473 134.876 840.614 135.564 840.759 136.587L840.034 137.636L840.254 137.884L840.987 137.288L842.014 137.534L843.043 137.146L841.127 139.622L842.722 141.22C842.257 143.1 841.486 145.827 841.201 147.662L838.528 145.498L837.471 145.706C836.701 147.328 835.777 149.497 834.736 150.874C834.289 148.546 834.976 146.696 834.308 144.613C830.493 145.207 829.447 145.482 825.54 145.369C820.739 145.231 811.471 139.702 808.632 140.356L808.727 141.614L807.896 141.305L807.643 139.653C806.578 138.197 806.378 138.013 804.681 137.399L804.136 136.094Z"/><path fill="#4A2411" d="M812.984 121.591C811.865 117.978 811.559 117.43 813.046 114.356C815.018 112.999 815.287 112.902 817.662 112.602C816.368 116.28 815.627 118.544 812.984 121.591Z"/><path fill="#130D0B" d="M806.074 117.061L806.016 117.517C802.513 119.866 786.335 120.275 781.702 120.012L781.599 118.942C785.042 116.446 800.666 117.121 806.074 117.061Z"/><path fill="#4A2411" d="M782.07 82.4394L783.226 83.0221L783.434 84.1476C781.461 87.0616 777.446 90.0277 774.622 92.3402C773.239 92.6396 773.884 92.7128 772.678 91.9518C772.775 87.3815 778.454 84.2107 782.07 82.4394Z"/><defs><linearGradient id="gradient_1" gradientUnits="userSpaceOnUse" x1="726.30121" y1="104.14356" x2="843.59558" y2="241.22466"><stop offset="0" stop-color="#190C07"/><stop offset="1" stop-color="#361F11"/></linearGradient></defs><path fill="url(#gradient_1)" d="M741.435 82.4683C746.162 80.9577 747.901 80.5943 752.776 80.674L755.186 82.4272C749.945 95.3622 748.831 98.1383 751.556 112.035C756.412 112.719 758.256 113.087 762.905 114.558C763.942 113.412 763.644 114.089 763.642 112.392C769.002 115.828 778.056 120.726 784.462 121.459C789.437 126.351 800.601 131.97 804.136 136.094L804.681 137.399C806.378 138.013 806.578 138.197 807.643 139.653L807.896 141.305L808.727 141.614C813.877 145.853 818.861 153.253 822.887 158.767C823.636 159.793 823.277 162.547 825.061 164.923L826.426 164.582C828.195 167.626 830.139 171.953 831.201 175.3L831.53 176.181C833.806 182.18 837.071 187.022 839.5 192.73C849.2 215.527 849.297 225.841 844.093 248.657C843.337 251.018 842.593 253.82 841.382 255.928C839.275 257.169 839.434 257.169 838.408 259.364L837.527 261.217C835.291 261.514 836.696 260.884 834.651 260.533C833.917 259.582 833.484 258.536 832.939 257.447L829.976 253.772L831.596 252.499C827.548 248.773 823.77 249.399 821.262 245.579L825.177 244.531L826.653 244.265C829.131 242.198 829.497 241.918 830.714 238.955L830.086 237.567C810.811 237.824 804.198 223.25 797.19 208.693C791.145 196.136 783.635 177.182 775.573 166.214L775.121 165.609L776.261 165.316C774.765 163.497 773.819 162.285 772.525 160.321C777.163 161.659 787.864 167.797 791.209 163.928C791.371 161.225 790.577 159.93 789.545 157.42L789.803 157.071C792.411 158.041 795.035 158.966 797.675 159.845C800.305 160.693 800.97 160.872 803.197 159.717C804.144 157.196 802.589 155.486 802.486 152.058C803.75 151.637 804.182 151.442 805.378 150.847L805.93 148.87C802.846 137.359 789.515 128.509 779.361 123.986C756.977 114.015 727.296 106.757 710.405 130.04C709.078 131.87 704.296 140.321 703.099 140.752C700.67 129.791 718.999 121.256 722.896 115.536C721.971 114.305 721.945 114.255 721.336 112.838C722.333 113.088 723.336 113.316 724.343 113.521C726.959 114.033 727.888 113.936 729.838 112.616C730.552 108.966 728.092 106.778 728.283 100.618L728.317 99.7538C728.985 97.088 730.196 94.6594 731.316 92.1386L733.919 90.298C734.63 88.6096 735.688 85.869 737.364 85.0462L740.169 86.0578L742.757 83.799L741.435 82.4683Z"/><path fill="#2E190E" d="M742.757 83.799C745.314 83.0597 747.423 82.0395 749.777 82.8969C751.072 86.6592 747.123 93.9476 747.148 99.159C747.176 104.889 747.531 106.167 749.247 111.663C735.789 111.322 731.272 115.113 729.626 100.289L728.317 99.7538C728.985 97.088 730.196 94.6594 731.316 92.1386L733.919 90.298C734.63 88.6096 735.688 85.869 737.364 85.0462L740.169 86.0578L742.757 83.799Z"/><path fill="#26140A" d="M731.316 92.1386L733.919 90.298C734.63 88.6096 735.688 85.869 737.364 85.0462L740.169 86.0578C734.826 91.8495 733.73 93.7098 729.626 100.289L728.317 99.7538C728.985 97.088 730.196 94.6594 731.316 92.1386Z"/><path fill="#050912" d="M837.681 195.209C836.304 201.072 833.478 212.721 828.374 216.437C832.05 207.269 832.71 202.308 831.934 192.35C831.586 187.888 829.375 178.876 831.201 175.3L831.53 176.181C833.806 182.18 837.071 187.022 839.5 192.73C849.2 215.527 849.297 225.841 844.093 248.657C843.237 247.851 843.046 247.896 841.956 247.345C839.633 244.722 842.943 242.014 840.367 236.697C837.998 229.635 848.535 216.754 837.681 195.209Z"/><defs><linearGradient id="gradient_2" gradientUnits="userSpaceOnUse" x1="840.8078" y1="255.18506" x2="835.91205" y2="252.02719"><stop offset="0" stop-color="#0E0501"/><stop offset="1" stop-color="#351C0B"/></linearGradient></defs><path fill="url(#gradient_2)" d="M841.956 247.345C843.046 247.896 843.237 247.851 844.093 248.657C843.337 251.018 842.593 253.82 841.382 255.928C839.275 257.169 839.434 257.169 838.408 259.364L837.527 261.217C835.291 261.514 836.696 260.884 834.651 260.533C833.917 259.582 833.484 258.536 832.939 257.447C833.74 252.216 837.488 249.417 841.956 247.345Z"/><path fill="#130D0B" d="M840.367 236.697C842.943 242.014 839.633 244.722 841.956 247.345C837.488 249.417 833.74 252.216 832.939 257.447L829.976 253.772L831.596 252.499C836.685 251.494 839.206 240.808 840.367 236.697Z"/><path fill="#26140A" d="M622.964 256.119C626.03 255.923 625.884 251.86 627.457 249.13L628.709 248.576C631.512 250.965 629.106 257.476 628.095 260.755L628.214 260.456C629.412 263.397 631.629 267.925 630.931 271.022C631.464 272.761 632.035 274.852 632.694 276.517C632.74 278.621 632.92 282.047 632.749 284.038C632.611 283.913 632.473 283.788 632.335 283.664C628.931 283.122 626.548 278.197 624.365 274.717L622.412 279.718L620.49 285.114C617.159 298.868 615.104 309.418 620.424 323.079C617.954 326.717 618.377 327.545 614.545 329.012C610.64 324.163 609.164 321.036 607.011 315.263C608.845 312.832 608.978 311.097 609.577 308.163C612.84 301.636 614.354 286.357 616.057 277.915C615.324 275.409 615.041 275.291 613.164 273.339C614.767 268.466 615.951 264.326 619.927 260.923L620.081 261.02C621.48 260.368 622.152 257.896 622.964 256.119Z"/><path fill="#DB8345" d="M624.365 274.717C625.239 272.233 626.418 267.911 628.299 266.447C630.19 267.674 630.007 268.541 630.931 271.022C631.464 272.761 632.035 274.852 632.694 276.517C632.74 278.621 632.92 282.047 632.749 284.038C632.611 283.913 632.473 283.788 632.335 283.664C628.931 283.122 626.548 278.197 624.365 274.717Z"/><path fill="#050912" d="M625.439 166.186C627.024 169.318 626.265 169.479 628.857 170.766C642.164 160.046 659.474 139.642 677.913 141.666C676.39 143.119 674.047 143.083 672.187 143.631C640.206 153.05 615.108 187.879 611.57 220.443C611.039 225.332 612.245 233.572 610.87 237.818C608.579 225.677 609.625 217.084 613.075 205.2C602.657 224.552 596.17 241.4 616.704 256.032C615.03 253.046 614.075 251.633 613.285 248.229C617.311 252.061 616.807 256.615 622.964 256.119C622.152 257.896 621.48 260.368 620.081 261.02L619.927 260.923C584.988 247.588 602.477 215.49 615.787 192.489C618.673 187.502 620.175 175.373 625.439 166.186Z"/><path fill="#130D0B" d="M830.086 237.567C829.505 239.196 829.626 239.269 828.392 240.426C825.014 237.918 814.427 237.325 807.314 229.581C801.541 223.676 796.392 214.949 793.444 207.119C783.003 179.397 766.537 151.357 736.686 141.7C727.318 138.669 718.368 140.04 708.906 141.743L709.359 140.779C713.473 137.463 717.152 136.138 722.462 136.525C745.65 138.213 760.216 148.783 775.121 165.609L775.573 166.214C783.635 177.182 791.145 196.136 797.19 208.693C804.198 223.25 810.811 237.824 830.086 237.567Z"/><path fill="#130D0B" d="M794.016 239.92C799.249 242.589 802.996 242.877 808.85 243.378C812.232 246.108 816.617 244.337 821.262 245.579C823.77 249.399 827.548 248.773 831.596 252.499L829.976 253.772L826.693 252.733C821.418 249.92 818.904 251.145 813.713 253.337C811.304 250.535 804.508 254.804 801.292 247.287L800.606 247.669C798.027 247.962 796.869 248.127 794.304 247.999C793.44 245.844 793.435 244.619 793.167 242.287L794.016 239.92Z"/><path fill="#2E190E" d="M793.167 242.287C796.804 243.648 798.513 244.153 800.606 247.669C798.027 247.962 796.869 248.127 794.304 247.999C793.44 245.844 793.435 244.619 793.167 242.287Z"/><path fill="#130D0B" d="M659.856 134.431C666.344 135.069 674.041 132.087 679.909 134.253L680.186 134.996C676.749 136.181 672.947 135.195 668.936 135.901C665.047 136.585 661.079 138.925 657.653 137.898L657.006 137.103L659.856 134.431Z"/><path fill="#050912" d="M808.85 243.378C816.749 240.989 818.609 244.748 824.88 242.338C825.346 242.233 825.811 242.129 826.277 242.025C826.166 243.353 825.953 243.398 825.177 244.531L821.262 245.579C816.617 244.337 812.232 246.108 808.85 243.378Z"/><path fill="#FEC081" d="M663.657 177.508C663.576 178.176 660.314 185.776 659.763 187.418C655.655 199.651 652.621 211.055 647.065 222.72C643.914 224.296 640.745 226.925 637.899 229.104C639.535 217.333 654.636 186.412 663.657 177.508Z"/><path fill="#4A2411" d="M695.936 116.907L697.415 117.485C699.615 119.788 701.112 123.857 702.44 126.899C695.104 127.264 696.554 129.568 692.399 130.1C689.157 129.312 686.507 128.306 684.24 125.834C682.532 119.834 691.482 118.185 695.936 116.907Z"/><path fill="#FEC081" d="M780.649 356.672C780.615 360.563 780.713 362.602 781.159 366.464C781.552 379.063 782.11 403.956 790.693 413.261C769.683 423.449 720.607 463.843 706.397 481.63C697.251 469.358 684.442 454.653 674.145 443.153C679.75 440.032 684.989 436.957 690.81 434.219L691.638 434.622L691.489 437.925L692.426 437.846C696.279 432.318 694.944 411.261 694.358 403.931C697.768 404.407 702.779 412.216 714.059 410.679C740.832 407.029 764.887 376.098 780.649 356.672Z"/><path fill="#DB8345" d="M754.46 365.035C755.353 364.257 761.04 360.417 762.706 359.19C770.56 353.402 775.261 348.655 781.598 341.377C781.982 349.286 781.406 358.423 781.159 366.464C780.713 362.602 780.615 360.563 780.649 356.672C764.887 376.098 740.832 407.029 714.059 410.679C702.779 412.216 697.768 404.407 694.358 403.931C693.935 399.688 691.973 386.143 692.884 383.156C703.553 387.341 709.721 386.254 720.982 384.376C728.006 383.205 752.331 371.04 755.129 366.602L754.46 365.035Z"/><path fill="#B96122" d="M624.365 274.717C626.548 278.197 628.931 283.122 632.335 283.664C632.473 283.788 632.611 283.913 632.749 284.038C632.92 282.047 632.74 278.621 632.694 276.517L634.113 276.091C639.308 327.445 645.826 346.057 688.017 377.964C688.898 380.656 690.047 381.142 692.429 383.185L692.884 383.156C691.973 386.143 693.935 399.688 694.358 403.931C694.944 411.261 696.279 432.318 692.426 437.846L691.489 437.925L691.638 434.622L690.81 434.219C684.989 436.957 679.75 440.032 674.145 443.153L672.991 441.655C677.069 438.51 687.135 433.227 692.458 429.782C692.419 421.452 692.556 409.601 691.586 401.637L691.556 398.845C690.791 394.547 690.417 386.777 690.058 382.191C671 371.9 649.135 347.969 641.151 327.938C631.117 331.568 626.872 320.71 631.544 312.271C625.866 306.191 622.321 293.124 620.49 285.114L622.412 279.718L624.365 274.717Z"/><path fill="#FAA26B" d="M624.365 274.717C626.548 278.197 628.931 283.122 632.335 283.664C632.473 283.788 632.611 283.913 632.749 284.038C632.502 291.583 635.692 305.238 634.526 309.248C633.752 308.834 630.695 307.452 630.409 307.02C625.153 299.095 623.2 288.114 622.412 279.718L624.365 274.717Z"/><path fill="#FED02C" d="M631.544 312.271C634.078 316.545 631.023 319.659 633.363 323.408C634.803 325.715 638.509 325.474 641.151 327.938C631.117 331.568 626.872 320.71 631.544 312.271Z"/><defs><linearGradient id="gradient_3" gradientUnits="userSpaceOnUse" x1="730.41504" y1="205.3485" x2="743.44342" y2="195.58417"><stop offset="0" stop-color="black"/><stop offset="1" stop-color="#231207"/></linearGradient></defs><path fill="url(#gradient_3)" d="M697.534 161.715C705.82 155.346 709.934 161.65 713.73 168.46L713.095 169.282L713.143 170.044C719.774 173.303 739.403 202.385 750.03 210.948L751.616 210.623C757.039 216.814 766.295 228.674 774.602 229.739L774.833 230.549L774.484 230.87C770.711 230.954 762.611 228.202 758.624 227.047C762.211 229.045 772.138 232.876 773.681 235.217C767.498 237.588 756.065 227.882 750.391 225.735C749.049 225.227 745.764 225.069 744.253 224.997L746.567 223.261C746.64 219.809 739.996 215.478 737.298 213.38C724.419 202.51 713.315 181.519 707.92 165.534C704.065 163.782 701.602 162.982 697.534 161.715Z"/><path fill="#FEC081" d="M713.143 170.044C719.774 173.303 739.403 202.385 750.03 210.948L755.34 216.453C750.809 215.179 746.698 214.538 742.087 213.756C728.486 200.414 720.615 187.348 713.143 170.044Z"/><path fill="#B96122" d="M809.013 314.311C810.542 312.613 810.593 312.727 810.989 310.542L810.296 309.706C808.08 310.161 808.131 310.161 805.881 309.942C805.415 308.285 805.591 308.765 806.447 306.753C811.282 303.285 811.923 307.006 813.819 310.2C816.142 310.03 816.553 309.158 818.659 307.565C817.438 309.818 817.157 310.413 815.52 312.337C814.456 313.787 815.806 319.829 816.14 322.215C813.498 328.798 812.283 331.944 804.37 330.6C802.415 331.788 789.35 338.821 789.243 339.1C787.964 339.505 786.977 339.344 785.637 339.278L785.066 342.082C783.052 358.331 783.827 372.704 785.54 389.028L786.073 391.789C787.18 399.823 788.427 404.585 792.016 411.953L790.693 413.261C782.11 403.956 781.552 379.063 781.159 366.464C781.406 358.423 781.982 349.286 781.598 341.377C787.565 332.938 792.456 321.223 796.179 311.664C801.693 315.254 802.363 315.072 809.013 314.311Z"/><path fill="#FAA90A" d="M809.013 314.311C810.542 312.613 810.593 312.727 810.989 310.542L810.296 309.706C808.08 310.161 808.131 310.161 805.881 309.942C805.415 308.285 805.591 308.765 806.447 306.753C811.282 303.285 811.923 307.006 813.819 310.2C816.142 310.03 816.553 309.158 818.659 307.565C817.438 309.818 817.157 310.413 815.52 312.337C814.456 313.787 815.806 319.829 816.14 322.215C813.498 328.798 812.283 331.944 804.37 330.6C799.754 324.605 800.114 323.574 800.397 315.938C804.576 317.062 802.924 319.224 803.576 322.998C803.585 320.645 803.398 319.703 804.316 317.61C806.091 316.013 809.296 315.924 811.854 315.54L809.013 314.311Z"/><path fill="#2E190E" d="M803.576 322.998C803.585 320.645 803.398 319.703 804.316 317.61C806.091 316.013 809.296 315.924 811.854 315.54C811.463 319.481 811.381 325.284 806.51 325.643C804.85 324.588 804.802 324.656 803.576 322.998Z"/><path fill="#26140A" d="M785.637 339.278C788.425 333.613 793.618 321.281 797.354 315.837C797.822 315.155 799.252 315.715 800.397 315.938C800.114 323.574 799.754 324.605 804.37 330.6C802.415 331.788 789.35 338.821 789.243 339.1C787.964 339.505 786.977 339.344 785.637 339.278Z"/><path fill="#FEC081" d="M813.713 253.337C818.904 251.145 821.418 249.92 826.693 252.733L829.976 253.772L832.939 257.447C833.484 258.536 833.917 259.582 834.651 260.533C836.337 266.617 837.584 270.505 837.406 276.933C835.924 282.685 834.631 287.807 831.968 293.204L828.547 296.618C829.408 293.278 829.143 291.269 828.976 287.837C827.351 278.615 824.742 273.916 818.855 266.69L816.422 264.252L808.996 258.406L813.713 253.337Z"/><path fill="#B96122" d="M826.693 252.733L829.976 253.772L832.939 257.447C833.484 258.536 833.917 259.582 834.651 260.533C836.337 266.617 837.584 270.505 837.406 276.933C835.924 282.685 834.631 287.807 831.968 293.204L828.547 296.618C829.408 293.278 829.143 291.269 828.976 287.837L829.897 288.272C832.612 285.328 834.39 275.938 834.431 271.919C834.519 263.485 832.286 258.651 826.693 252.733Z"/><path fill="#DB8345" d="M816.422 264.252C819.451 262.177 823.759 260.307 827.048 263.25C825.312 266.484 822.011 265.303 818.855 266.69L816.422 264.252Z"/><path fill="#26140A" d="M639.133 240.475C638.549 237.933 650.148 228.638 651.43 221.56C652.294 216.786 656.685 205.112 658.4 199.37L659.246 199.398C657.498 207.295 655.861 212.897 652.574 220.452C658.13 219.362 686.266 214.459 678.36 228.127C674.142 231.003 662.133 229.812 656.511 230.65C652.349 231.271 650.492 231.634 646.274 232.815C643.12 236.879 643.12 238.154 641.22 240.867L639.133 240.475Z"/><path fill="#26140A" d="M737.298 213.38C739.996 215.478 746.64 219.809 746.567 223.261L744.253 224.997C737.894 224.997 725.788 227.545 721.093 225.707C720.344 224.885 719.383 223.916 719.295 222.77C718.615 213.922 731.604 213.817 737.298 213.38Z"/><defs><linearGradient id="gradient_4" gradientUnits="userSpaceOnUse" x1="822.47662" y1="267.79251" x2="803.68445" y2="273.37646"><stop offset="0" stop-color="black"/><stop offset="1" stop-color="#2C170B"/></linearGradient></defs><path fill="url(#gradient_4)" d="M800.606 247.669L801.292 247.287C804.508 254.804 811.304 250.535 813.713 253.337L808.996 258.406L816.422 264.252L818.855 266.69C824.742 273.916 827.351 278.615 828.976 287.837C829.143 291.269 829.408 293.278 828.547 296.618C827.786 295.091 827.537 294.501 826.971 292.891C825.938 284.391 824.744 278.81 819.748 271.778C818.232 269.91 816.37 268.588 814.485 267.077C812.167 265.361 809.224 262.748 806.569 262.216C806.076 261.532 806.311 261.753 805.603 261.227C800.595 257.503 797.602 253.211 794.304 247.999C796.869 248.127 798.027 247.962 800.606 247.669Z"/><path fill="#DB8345" d="M807.493 281.222C810.615 278.849 810.054 275.105 813.008 273.784C818.569 278.965 822.497 286.19 815.51 292.558C813.44 294.445 810.504 297.046 807.729 297.424C803.45 293.326 810.814 288.286 807.493 281.222Z"/><path fill="#050912" d="M790.094 240.995L791.894 239.432L794.016 239.92L793.167 242.287C793.435 244.619 793.44 245.844 794.304 247.999C797.602 253.211 800.595 257.503 805.603 261.227C806.311 261.753 806.076 261.532 806.569 262.216C805.286 265.083 802.45 272.46 800.937 274.483C799.147 273.88 799.572 273.803 798.215 271.867C796.706 268.253 795.929 266.209 794.867 262.454C793.396 255.575 792.719 247.594 790.094 240.995Z"/><defs><linearGradient id="gradient_5" gradientUnits="userSpaceOnUse" x1="801.70691" y1="260.83673" x2="795.73218" y2="265.36572"><stop offset="0" stop-color="#2D1506"/><stop offset="1" stop-color="#180B04"/></linearGradient></defs><path fill="url(#gradient_5)" d="M794.867 262.454C795.545 259.754 795.374 258.258 797.207 256.871C799.809 257.474 802.545 260.815 804.924 262.792C802.819 266.951 802.076 269.199 798.215 271.867C796.706 268.253 795.929 266.209 794.867 262.454Z"/><path fill="#B96122" d="M754.46 365.035L755.129 366.602C752.331 371.04 728.006 383.205 720.982 384.376C709.721 386.254 703.553 387.341 692.884 383.156L692.429 383.185C690.047 381.142 688.898 380.656 688.017 377.964C712.54 390.781 733.429 377.713 754.46 365.035Z"/><path fill="#130D0B" d="M826.971 292.891C827.537 294.501 827.786 295.091 828.547 296.618L831.968 293.204C831.33 301.617 831.247 303.852 827.659 311.609L825.666 313.858C825.733 314.413 825.816 315.435 825.969 315.923L823.838 317.643L823.686 318.16C821.122 315.887 816.974 313.873 815.52 312.337C817.157 310.413 817.438 309.818 818.659 307.565C821.723 302.038 826.05 301.715 826.971 292.891Z"/><path fill="#B96122" d="M814.485 267.077C816.37 268.588 818.232 269.91 819.748 271.778C817.857 272.368 814.846 273.416 813.008 273.784C810.054 275.105 810.615 278.849 807.493 281.222C807.444 275.08 810.83 271.696 814.485 267.077Z"/><path fill="#FEFDFE" d="M676.447 320.274C681.85 318.939 700.82 315.601 705.927 315.684C720.438 315.921 727.739 316.061 742.379 313.473C739.616 315.243 738.668 315.722 735.698 317.018C735.036 321.67 734.717 322.917 732.847 327.279L736.379 325.783C731.024 340.455 711.67 352.601 696.021 346.554C687.743 343.355 684.491 337.482 680.775 329.88C683.151 331.374 682.935 331.822 685.113 331.609L685.585 331.056L681.584 321.779C680.788 321.441 677.469 320.569 676.447 320.274Z"/><path fill="#FAA26B" d="M732.847 327.279L736.379 325.783C731.024 340.455 711.67 352.601 696.021 346.554C687.743 343.355 684.491 337.482 680.775 329.88C683.151 331.374 682.935 331.822 685.113 331.609L685.585 331.056L685.914 332.287C697.947 343.738 722.031 337.055 732.847 327.279Z"/><path fill="#FAA26B" d="M676.447 320.274C681.85 318.939 700.82 315.601 705.927 315.684C720.438 315.921 727.739 316.061 742.379 313.473C739.616 315.243 738.668 315.722 735.698 317.018C719.223 320.55 698.394 321.744 681.584 321.779C680.788 321.441 677.469 320.569 676.447 320.274Z"/><path fill="#130D0B" d="M727.911 255.857C728.286 245.289 741.301 241.461 750.021 242.514C758.835 243.578 760.412 249.306 769.727 251.354L769.841 252.265C767.865 253.79 767.003 254.314 764.804 255.505C761.881 258.636 759.005 262.033 754.811 263.243L754.153 262.908C750.486 265.443 749.278 266.442 744.691 265.595C744.021 265.477 743.354 265.342 742.691 265.19C738.707 266.408 729.866 263.349 727.679 259.754C726.706 258.155 727.389 257.51 727.911 255.857Z"/><path fill="#050912" d="M727.911 255.857C728.286 245.289 741.301 241.461 750.021 242.514C758.835 243.578 760.412 249.306 769.727 251.354L769.841 252.265C767.865 253.79 767.003 254.314 764.804 255.505C760.733 251.619 759.601 250.505 754.709 247.699L754.334 247.307C750.336 246.243 746.339 245.488 742.236 246.459C734.763 249.251 733.038 249.887 727.911 255.857Z"/><path fill="#FEFDFE" d="M742.236 246.459C737.668 253.136 736.726 258.772 742.691 265.19C738.707 266.408 729.866 263.349 727.679 259.754C726.706 258.155 727.389 257.51 727.911 255.857C733.038 249.887 734.763 249.251 742.236 246.459Z"/><path fill="#FEFDFE" d="M754.709 247.699C759.601 250.505 760.733 251.619 764.804 255.505C761.881 258.636 759.005 262.033 754.811 263.243L754.153 262.908C758.019 256.451 756.164 254.234 754.709 247.699Z"/><path fill="#130D0B" d="M648.38 260.197C646.362 260.258 643.224 258.508 641.943 256.948C642.768 254.893 645.096 256.188 645.961 255.524C655.456 248.242 659.17 243.364 671.556 248.487C676.415 251.117 679.621 253.18 679.583 259.142L679.461 258.828C678.22 266.323 673.888 269.325 666.739 269.089C657.983 268.971 654.066 266.503 648.38 260.197Z"/><path fill="#FEFDFE" d="M648.38 260.197C646.362 260.258 643.224 258.508 641.943 256.948C642.768 254.893 645.096 256.188 645.961 255.524C655.456 248.242 659.17 243.364 671.556 248.487C667.744 250.12 666.904 249.096 664.266 250.023C660.723 258.527 658.599 262.07 666.739 269.089C657.983 268.971 654.066 266.503 648.38 260.197Z"/><path fill="#050912" d="M648.38 260.197C646.362 260.258 643.224 258.508 641.943 256.948C642.768 254.893 645.096 256.188 645.961 255.524C655.456 248.242 659.17 243.364 671.556 248.487C667.744 250.12 666.904 249.096 664.266 250.023C655.6 251.666 653.889 253.248 648.38 260.197Z"/><path fill="#FAA26B" d="M688.746 241.015C690.616 243.202 690.605 244.081 691.363 246.894C695.3 261.504 695.456 274.784 687.76 288.144L686.939 288.18C686.354 285.993 690.961 277.37 691.556 272.835C693.185 260.41 691.666 252.722 688.746 241.015Z"/><path fill="#4A2411" d="M680.775 329.88C678.422 326.359 673.795 322.817 672.647 319.936L673.667 319.259L676.447 320.274C677.469 320.569 680.788 321.441 681.584 321.779L685.585 331.056L685.113 331.609C682.935 331.822 683.151 331.374 680.775 329.88Z"/><path fill="#4A2411" d="M742.379 313.473L743.867 313.219C745.343 317.085 738.211 322.539 736.379 325.783L732.847 327.279C734.717 322.917 735.036 321.67 735.698 317.018C738.668 315.722 739.616 315.243 742.379 313.473Z"/><path fill="#974717" d="M686.592 296.822C689.39 297.389 693.356 300.095 694.082 302.994C692.936 304.767 693.732 304.079 691.313 304.725C689.254 303.464 688.446 302.869 686.606 301.303L686.537 299.569L687.274 299.117L686.592 296.822Z"/><path fill="#B96122" d="M703.929 297.063C706.639 296.954 710.321 296.488 712.135 298.68L711.155 299.561C709.961 299.62 708.765 299.672 707.57 299.714C704.868 299.799 704.577 300.155 703.109 298.777L703.929 297.063Z"/><path fill="#76D9B3" d="M498.629 276.805C519.03 276.327 553.056 269.196 553.377 298.572C553.804 337.746 555.918 377.468 554.849 416.592C554.246 438.658 514.484 434.656 499.526 434.825C485.525 435.041 471.524 435.33 457.526 435.69C436.648 436.757 405.003 443.202 404.894 412.987C404.754 374.175 402.446 335.184 403.286 296.393C403.415 290.43 410.97 280.525 417.158 279.468C427.949 277.519 439.749 277.953 450.785 277.78C466.735 277.592 482.684 277.267 498.629 276.805Z"/><path fill="#E9F8F0" d="M514.959 281.787C519.061 281.601 523.164 281.448 527.268 281.329C553.41 280.649 547.29 299.155 548.66 318.256C548.863 321.086 548.789 324.08 548.854 326.929L549.974 387.7C550.126 397.231 550.637 407.228 549.787 416.686C549.414 420.832 542.641 427.961 538.336 428.631C527.197 430.365 515.148 429.839 503.818 430.032L442.187 431.27C426.578 431.718 410.551 434.303 410.097 412.795C409.373 378.471 408.917 344.129 408.101 309.807C407.939 302.997 407.022 293.682 412.425 288.704C413.809 287.42 416.735 284.801 418.443 284.529C428.635 282.907 441.08 283.291 451.293 283.096L514.959 281.787Z"/><path fill="#76D9B3" d="M446.106 309.157C451.519 308.915 461.702 307.819 466.27 310.035C468.575 314.416 469.136 370.599 469.407 379.908C478.408 380.395 509.761 377.838 514.308 381.69C515.924 385.167 515.234 390.541 515.702 394.499C516.108 397.947 516.186 400.012 513.828 402.65L473.84 403.088C467.116 403.224 453.867 403.923 447.64 403.174C445.726 401.582 444.955 397.085 444.935 394.588C444.726 367.747 443.165 340.824 443.577 314.005C443.613 311.666 444.713 310.819 446.106 309.157Z"/><path fill="#CCBCF5" d="M966.851 402.216L967.162 401.646C973.205 390.641 985.152 365.698 996.987 363.451C1016.62 359.723 1062.47 364.886 1080.52 373.228C1092.35 378.699 1097.9 405.63 1101.41 417.903C1104.62 418.104 1110.74 418.203 1113.41 419.686C1127.59 427.569 1120.75 434.768 1108.4 436.438C1112.45 447.734 1109.65 458.342 1108.48 469.909C1107.94 477.374 1105.5 484.22 1103.87 491.405C1102.53 497.286 1104.43 502.631 1100.33 507.919C1094.94 511.24 1079.33 509.908 1074.46 505.729C1072.08 500.945 1073.69 492.622 1074.77 487.387C1066.49 485.805 1050.04 484.502 1041.23 483.553C1031.17 482.47 1012.52 479.991 1003.02 480.066C999.297 478.244 981.867 477.41 976.664 476.448C976.395 480.145 976.446 490.749 973.483 493.145C968.066 497.525 952.166 495.405 946.873 490.952C946.517 490.653 945.244 488.499 944.921 487.937C948.533 466.261 944.923 437.109 955.198 418.969C950.878 417.82 944.947 413.685 944.686 408.801C947.416 399.637 959.752 401.332 966.851 402.216Z"/><path fill="#FEFDFE" d="M1003.47 373.381C1018.11 372.927 1064.65 375.269 1077.1 384.705C1081.83 388.29 1086.84 411.581 1088.65 419.166C1061.12 416.207 1031.41 413.238 1004.1 409.534C995.993 408.573 987.177 407.696 979.208 406.217C982.279 399.428 985.842 392.786 989.571 386.341C993.542 379.48 995.66 375.682 1003.47 373.381Z"/><path fill="#E9F8F0" d="M979.208 406.217C982.279 399.428 985.842 392.786 989.571 386.341C993.542 379.48 995.66 375.682 1003.47 373.381C1004.48 384.075 1004.99 398.802 1004.1 409.534C995.993 408.573 987.177 407.696 979.208 406.217Z"/><path fill="#FEFDFE" d="M1081.02 442.891C1083.34 442.636 1085.63 442.401 1087.94 442.313C1097.9 441.933 1101.87 453.848 1093.68 459.617C1089.65 462.457 1086.91 461.436 1082.3 460.797C1076.52 460.285 1065.09 460.084 1065.08 452.498C1065.08 445.201 1076.03 443.318 1081.02 442.891Z"/><path fill="#E9F8F0" d="M967.749 429.044C977.228 428.629 1004.84 436.952 989.31 449.833C982.081 449.622 970.051 449.576 964.464 444.538C959.504 440.065 963.931 432.76 967.749 429.044Z"/><path fill="#22395B" d="M1006.86 774.571C1007.52 779.576 1008.01 784.136 1006.85 789.132C1005.18 823.3 1004.16 854.504 997.442 888.365L998.823 890.236C991.592 910.457 980.891 922.329 961.037 931.415C935.784 942.972 902.862 946.728 875.463 943.647C874.254 937.374 872.493 930.405 871.039 924.117C873.695 922.335 874.423 921.348 876.461 918.997L876.667 916.921C876.61 908.58 873.313 892.809 872.048 883.567C874.588 878.956 877.139 872.762 879.18 867.85C881.26 869.435 883.478 870.979 885.609 872.509C885.25 876.534 885.22 877.235 885.945 881.23L886.511 881.375C887.983 874.799 890.431 841.374 890.073 834.723C890.19 831.626 889.68 831.715 891.165 829.638C895.63 827.828 900.6 831.559 904.963 832.537C907.061 833.007 907.521 832.504 910.315 833.204C910.539 834.364 910.794 835.554 910.955 836.719C911.452 834.646 910.924 830.488 911.561 827.014L912.899 826.118L915.321 826.571C950.698 833.315 969.226 816.865 982.971 786.006L984.459 781.791C992.138 782.195 1003.04 782.398 1006.86 774.571Z"/><path fill="#1B2E4B" d="M997.442 888.365L998.823 890.236C991.592 910.457 980.891 922.329 961.037 931.415C935.784 942.972 902.862 946.728 875.463 943.647C874.254 937.374 872.493 930.405 871.039 924.117C873.695 922.335 874.423 921.348 876.461 918.997L877.611 919.633C891.876 918.126 903.353 903.917 907.233 890.843C916.372 895.622 925.016 896.69 935.061 898.231L935.908 896.424C955.525 897.293 958.632 897.867 978.606 894.169L980.615 893.494C985.852 895.36 993.902 892.667 997.442 888.365Z"/><path fill="#0E1D31" d="M978.606 894.169C975.597 901.516 942.405 899.386 935.061 898.231L935.908 896.424C955.525 897.293 958.632 897.867 978.606 894.169Z"/><path fill="#22395B" d="M910.955 836.719C911.452 834.646 910.924 830.488 911.561 827.014L912.899 826.118L915.321 826.571C912.493 833.631 912.559 850.705 911.624 859.116C910.556 868.727 909.776 879.906 907.523 889.366C918.685 893.029 924.257 894.798 935.908 896.424L935.061 898.231C925.016 896.69 916.372 895.622 907.233 890.843C903.353 903.917 891.876 918.126 877.611 919.633L876.461 918.997L876.667 916.921C876.61 908.58 873.313 892.809 872.048 883.567C874.588 878.956 877.139 872.762 879.18 867.85C881.26 869.435 883.478 870.979 885.609 872.509C885.25 876.534 885.22 877.235 885.945 881.23L886.511 881.375C887.983 874.799 890.431 841.374 890.073 834.723C890.19 831.626 889.68 831.715 891.165 829.638C895.63 827.828 900.6 831.559 904.963 832.537C907.061 833.007 907.521 832.504 910.315 833.204C910.539 834.364 910.794 835.554 910.955 836.719Z"/><path fill="#0E1D31" d="M910.955 836.719C911.452 834.646 910.924 830.488 911.561 827.014L912.899 826.118L915.321 826.571C912.493 833.631 912.559 850.705 911.624 859.116C910.556 868.727 909.776 879.906 907.523 889.366C918.685 893.029 924.257 894.798 935.908 896.424L935.061 898.231C925.016 896.69 916.372 895.622 907.233 890.843C903.353 903.917 891.876 918.126 877.611 919.633L876.461 918.997L876.667 916.921C912.573 908.972 908.45 865.632 910.955 836.719Z"/><path fill="#0E1D31" d="M1006.86 774.571C1007.52 779.576 1008.01 784.136 1006.85 789.132C1006.76 786.966 1007.14 781.265 1006.14 780.239C998.045 785.626 992.651 785.666 982.971 786.006L984.459 781.791C992.138 782.195 1003.04 782.398 1006.86 774.571Z"/><path fill="#CCBCF5" d="M1036.01 248.363C1047.85 248.09 1052.5 254.128 1055.33 264.622C1056.23 263.89 1057.15 263.178 1058.08 262.486C1062.32 259.365 1067.68 257.774 1072.91 258.713C1077.04 259.436 1080.69 261.839 1082.97 265.35C1092.12 279.238 1079.05 291.185 1068.17 297.642C1059.7 302.047 1052.18 305.631 1043.26 308.943C1030.25 295.689 1006.83 257.251 1036.01 248.363Z"/><path fill="#76D9B3" d="M399.207 205.644C404.898 207.152 427.916 219.024 432.954 223.656C435.213 225.733 435.278 226.706 435.316 229.283C434.333 231.69 433.641 231.822 431.279 233.273C424.866 231.349 402.521 220.319 397.064 215.167C395.078 213.291 395.117 212.075 395.171 209.79C396.392 207.342 396.841 207.246 399.207 205.644Z"/><path fill="#76D9B3" d="M434.381 175.159C435.54 175.28 437.662 175.887 438.309 176.698C442.328 181.736 454.511 207.795 454.6 212.697C453.69 215.042 452.513 215.379 450.236 216.706C449.112 216.39 447.121 215.825 446.441 214.964C442.364 209.805 429.867 184.723 429.984 179.36C430.869 177.096 432.3 176.52 434.381 175.159Z"/><path fill="#76D9B3" d="M413.779 247.174C420.066 246.662 432.419 244.328 427.807 255.221C424.785 257.787 408.326 258.059 403.009 258.469C400.497 258.647 390.275 259.782 388.733 257.88C379.166 246.083 407.466 247.431 413.779 247.174Z"/><path fill="#050912" d="M731.114 82.2523C734.201 65.4043 749.734 62.3027 762.248 72.9232L762.638 74.2135C760.327 78.0554 757.502 79.0308 755.186 82.4272L752.776 80.674L758.86 74.4938C747.432 67.9705 739.722 69.3601 734.499 82.1698L741.435 82.4683L742.757 83.799L740.169 86.0578L737.364 85.0462C735.688 85.869 734.63 88.6096 733.919 90.298L731.316 92.1386C731.123 89.6072 731.482 87.8383 730.057 86.3194C717.28 88.233 721.051 98.1698 721.315 106.672L720.33 106.537C716.879 103.285 715.56 97.2988 717.322 92.8504C719.662 86.9415 725.672 84.5432 731.114 82.2523Z"/><path fill="#050912" d="M614.545 329.012C618.377 327.545 617.954 326.717 620.424 323.079C627.719 335.814 640.137 346.175 635.447 362.314C634.277 366.339 631.592 372.838 627.026 373.59L626.401 372.965C627.269 370.144 628.643 368.37 629.828 365.802C634.851 354.919 630.177 343.979 622.184 336.035C619.876 333.741 616.539 331.358 614.545 329.012Z"/><path fill="#2E190E" d="M816.14 322.215C815.806 319.829 814.456 313.787 815.52 312.337C816.974 313.873 821.122 315.887 823.686 318.16L823.838 317.643C830.226 323.597 833.448 333.781 834.543 342.26C832.918 341.322 830.424 341.134 828.499 340.837C825.636 333.003 821.387 328.737 816.14 322.215Z"/><path fill="#050912" d="M834.651 260.533C836.696 260.884 835.291 261.514 837.527 261.217L838.408 259.364C839.434 257.169 839.275 257.169 841.382 255.928C840.025 259.325 839.082 261.383 837.379 264.619C845.727 282.862 846.333 305.752 825.969 315.923C825.816 315.435 825.733 314.413 825.666 313.858L827.659 311.609C838.739 302.048 841.062 291.063 837.406 276.933C837.584 270.505 836.337 266.617 834.651 260.533Z"/><path fill="#050912" fill-opacity="0.98823529" d="M613.164 273.339C615.041 275.291 615.324 275.409 616.057 277.915C609.418 289.329 608.996 295.624 609.577 308.163C608.978 311.097 608.845 312.832 607.011 315.263C602.163 300.46 607.527 286.735 613.164 273.339Z"/><path fill="#2E190E" d="M842.722 141.22C847.78 144.131 851.469 148.938 852.972 154.577C853.633 157.14 853.905 160.077 853.865 162.712C849.99 161.967 851.477 162.612 848.243 159.908C846.215 154.356 844.723 152.329 841.201 147.662C841.486 145.827 842.257 143.1 842.722 141.22Z"/><path fill="#050912" d="M828.499 340.837C830.424 341.134 832.918 341.322 834.543 342.26C833.728 349.286 829.188 365.665 819.69 364.519C819.14 362.768 821.014 361.681 822.6 359.57C828.259 352.038 828.825 349.911 828.499 340.837Z"/><path fill="#050912" d="M785.637 339.278C786.977 339.344 787.964 339.505 789.243 339.1C797.162 340.062 809.703 351.126 803.695 359.126L802.81 359.087C798.53 348.123 798.549 344.227 785.066 342.082L785.637 339.278Z"/><path fill="#050912" fill-opacity="0.98823529" d="M848.243 159.908C851.477 162.612 849.99 161.967 853.865 162.712C853.027 169.749 849.999 176.266 842.93 178.879C842.419 175.302 848.876 171.533 848.297 160.832L848.243 159.908Z"/></svg>