<?xml version="1.0" encoding="utf-8" ?><svg xmlns="http://www.w3.org/2000/svg" xmlns:xlink="http://www.w3.org/1999/xlink" width="1024" height="1536" viewBox="0 0 1024 1536"><path fill="#24445B" d="M176.8 637.69C152.224 632.93 150.624 621.841 150.606 598.694C150.601 592.163 150.587 585.368 150.593 578.807L150.565 521.093L150.546 450.405C150.558 387.196 147.623 388.062 211.197 388.482L274.82 388.584L372.902 388.557C390.113 388.534 407.174 388.016 424.39 388.68C447.455 389.57 449.143 400.416 452.194 420.247C463.412 419.066 474.574 417.642 485.808 416.959C579.388 411.27 676.536 441.824 747.254 503.939C749.133 505.589 751.008 507.484 753.007 508.97C758.858 512.911 769.227 523.693 774.551 529.212C816.528 572.729 841.82 621.029 861.988 677.309C864.254 689.302 868.993 702.52 871.275 714.744C879.565 758.34 880.374 803.028 873.665 846.895C872.088 856.725 871.38 864.404 866.128 872.975C867.74 887.615 850.365 926.308 844.092 941.222C841.77 946.149 839.136 952.132 836.478 956.789C832.743 964.45 824.694 978.602 819.169 985.037C812.222 994.581 804.034 1006.41 796.327 1015.14C752.565 1071.4 680.873 1115.76 612.604 1135.05C518.117 1161.31 417.06 1148.85 331.782 1100.43C251.993 1055.72 187.512 976.878 162.51 888.605C150.341 862.321 142.232 774.123 150.596 746.854C148.672 737.43 154.647 712.655 157.026 702.481C158.493 698.423 161.568 684.616 163.386 678.694C166.871 667.337 174.701 648.343 176.8 637.69Z"/><path fill="#D5EFF3" d="M176.8 637.69C152.224 632.93 150.624 621.841 150.606 598.694C150.601 592.163 150.587 585.368 150.593 578.807L150.565 521.093L150.546 450.405C150.558 387.196 147.623 388.062 211.197 388.482L274.82 388.584L372.902 388.557C390.113 388.534 407.174 388.016 424.39 388.68C447.455 389.57 449.143 400.416 452.194 420.247C463.412 419.066 474.574 417.642 485.808 416.959C579.388 411.27 676.536 441.824 747.254 503.939C749.133 505.589 751.008 507.484 753.007 508.97C758.858 512.911 769.227 523.693 774.551 529.212C816.528 572.729 841.82 621.029 861.988 677.309C836.274 715.793 810.21 754.043 783.802 792.054C770.367 787.729 756.152 785.262 742.376 781.445C730.419 816.388 667.538 835.98 660.006 788.957L660.165 787.501L660.356 784.418L659.326 776.724L658.956 776.417C655.943 777.383 650.098 777.552 646.836 777.689C602.546 779.542 592.838 774.051 592.662 728.408C577.613 727.665 562.23 728.58 547.239 727.808C497.817 725.261 448.568 727.736 399.162 727.991C397.256 700.263 398.991 686.168 367.81 680.995C367.342 651.115 342.188 639.125 315.527 639.003L299.25 638.977L297.948 637.43C275.422 635.802 240.079 636.656 217.271 637.321C203.182 637.239 190.9 637.006 176.8 637.69Z"/><path fill="#97BAD1" d="M176.8 637.69C152.224 632.93 150.624 621.841 150.606 598.694C150.601 592.163 150.587 585.368 150.593 578.807L150.565 521.093L150.546 450.405C150.558 387.196 147.623 388.062 211.197 388.482L274.82 388.584L372.902 388.557C390.113 388.534 407.174 388.016 424.39 388.68C447.455 389.57 449.143 400.416 452.194 420.247C449.244 423.739 450.588 484.755 450.961 494.181C450.642 509.038 450.394 526.087 450.845 540.88L451.125 585.016C451.175 594.19 451.75 611.324 449.742 619.876C448.859 623.647 446.952 627.1 444.231 629.855C436.08 638.158 418.544 637.478 407.493 637.585C379.019 637.859 348.895 636.523 320.558 637.576L315.527 639.003L299.25 638.977L297.948 637.43C275.422 635.802 240.079 636.656 217.271 637.321C203.182 637.239 190.9 637.006 176.8 637.69Z"/><path fill="#FEFEFE" d="M297.948 637.43C306.098 637.186 312.467 636.973 320.558 637.576L315.527 639.003L299.25 638.977L297.948 637.43Z"/><path fill="#FEFEFE" d="M174.415 628.702C163.62 626.647 159.179 621.292 158.44 610.307C157.802 600.847 158.373 591.129 158.386 581.624L158.348 526.267L158.25 454.67C158.232 439.521 157.354 423.221 159.814 408.275C161.143 400.205 168.628 397.882 175.721 397.591C193.515 397.177 211.352 397.281 229.158 397.276L326.96 397.274L390.109 397.298C397.016 397.302 432.595 396.474 436.309 399.907C446.322 409.165 443.659 439.663 443.422 453.061C443.29 464.936 443.25 476.812 443.302 488.688L443.29 568.107C443.303 583.385 446.204 601.993 441.967 616.673C440.913 620.324 439.11 624.221 435.708 626.222C426.569 631.595 382.762 629.179 369.491 629.091C358.243 629.733 342.502 629.244 330.91 629.207L257.109 629.004L208.252 629.415C198.14 629.513 184.245 629.916 174.415 628.702Z"/><path fill="#D5EFF3" d="M174.415 628.702L175.32 628.692C188.927 628.463 195.193 601.082 212.038 617.14C215.593 620.529 218.109 624.554 220.652 628.713C254.759 627.721 290.025 628.708 324.25 628.425C330.916 628.37 365.204 628.206 369.491 629.091C358.243 629.733 342.502 629.244 330.91 629.207L257.109 629.004L208.252 629.415C198.14 629.513 184.245 629.916 174.415 628.702Z"/><path fill="#BEDFE9" d="M220.523 435.765C220.502 429.372 220.271 421.999 228.299 421.143C234.966 423.47 234.833 429.854 234.878 435.816L314.253 435.737C314.365 430.122 314.552 422.001 322.412 422.456C328.656 425.1 328.011 429.937 327.993 435.714C359.176 435.858 356.595 444.673 356.325 472.898L356.386 536.105C356.394 550.055 357.109 566.706 354.683 580.378C354.247 582.832 352.349 584.979 350.573 586.74C349.693 587.6 348.779 588.426 347.835 589.216C333.222 591.11 309.398 590.41 293.823 590.393L204.895 590.299C200.183 587.168 198.074 585.293 195.066 580.429C194.852 544.484 194.07 509.301 195.039 473.326C193.938 464.019 192.216 447.458 199.556 440.308C205.186 434.823 213.253 435.593 220.523 435.765Z"/><path fill="#265EF7" d="M220.523 435.765C220.502 429.372 220.271 421.999 228.299 421.143C234.966 423.47 234.833 429.854 234.878 435.816L314.253 435.737C314.365 430.122 314.552 422.001 322.412 422.456C328.656 425.1 328.011 429.937 327.993 435.714C359.176 435.858 356.595 444.673 356.325 472.898C333.95 474.3 312.567 474.009 290.182 473.915L195.039 473.326C193.938 464.019 192.216 447.458 199.556 440.308C205.186 434.823 213.253 435.593 220.523 435.765Z"/><path fill="#97BAD1" d="M220.523 435.765C220.502 429.372 220.271 421.999 228.299 421.143C234.966 423.47 234.833 429.854 234.878 435.816C234.908 442.603 235.765 455.017 227.447 457.185C219.827 455.03 220.523 441.942 220.523 435.765Z"/><path fill="#97BAD1" d="M314.253 435.737C314.365 430.122 314.552 422.001 322.412 422.456C328.656 425.1 328.011 429.937 327.993 435.714C328.201 441.538 329.123 451.491 321.909 453.603C313.283 452.046 314.203 442.515 314.253 435.737Z"/><path fill="#97BAD1" d="M263.982 492.054C270.117 491.825 280.584 490.61 285.659 494.105C292.205 498.612 289.633 518.702 285.84 524.221C261.871 525.265 257.01 525.697 260.912 497.819C261.251 495.403 262.442 493.86 263.982 492.054Z"/><path fill="#97BAD1" d="M220.529 492.084C238.155 491.432 248.21 488.868 245.696 511.497C245.095 516.908 244.642 519.483 241.879 524.227C235.828 524.509 226.044 525.585 220.795 522.658C212.474 518.017 216.304 498.442 220.529 492.084Z"/><path fill="#97BAD1" d="M307.302 492.074C329.217 491.011 335.079 491.049 332.451 516.318C332.121 519.492 330.641 521.636 328.933 524.224C314.134 524.842 301.874 527.864 303.335 508.507C303.833 501.91 303.967 497.949 307.302 492.074Z"/><path fill="#97BAD1" d="M263.892 536.29C269.772 536.075 276.786 535.34 282.335 537.441C294.205 541.933 289.587 559.666 285.966 568.432C268.022 569.022 258.009 571.676 260.188 548.512C260.751 542.53 260.245 541.471 263.892 536.29Z"/><path fill="#FEAB44" d="M220.775 536.386C240.824 535.767 249.249 534.598 245.095 560.357C244.579 563.557 243.41 565.512 241.38 568.028C236.156 568.389 223.652 569.694 219.994 566.125C213.232 559.528 215.76 543.259 220.775 536.386Z"/><path fill="#97BAD1" d="M309.105 536.538C314.196 536.26 326.04 534.97 329.523 538.692C336.138 545.76 333.81 561.689 327.686 568.392C310.352 568.885 300.9 570.767 303.99 547.659C304.733 542.106 304.541 539.908 309.105 536.538Z"/><path fill="#265EF7" d="M390.579 546.385C407.407 545.133 422.056 557.778 423.27 574.606C424.483 591.433 411.801 606.049 394.966 607.223C378.187 608.393 363.627 595.764 362.417 578.992C361.208 562.22 373.805 547.634 390.579 546.385Z"/><path fill="#FEFEFE" d="M404.208 563.722C405.87 563.881 406.295 564.333 407.668 565.252C410.744 573.103 393.864 585.63 388.079 590.074L382.721 585.502C379.188 582.34 376.861 580.557 378.134 575.765C382.599 572.733 385.317 576.229 388.465 579.337C393.384 574.137 399.062 568.77 404.208 563.722Z"/><path fill="#BEDFE9" d="M452.194 420.247C463.412 419.066 474.574 417.642 485.808 416.959C579.388 411.27 676.536 441.824 747.254 503.939C749.133 505.589 751.008 507.484 753.007 508.97C758.858 512.911 769.227 523.693 774.551 529.212C816.528 572.729 841.82 621.029 861.988 677.309C836.274 715.793 810.21 754.043 783.802 792.054C770.367 787.729 756.152 785.262 742.376 781.445L738.308 777.621C740.854 777.638 743.399 777.639 745.945 777.624C792.016 777.319 792.362 763.639 791.569 721.085C792.284 723.837 792.277 727.595 792.409 730.515L821.382 730.483C809.022 691.357 793.307 603.128 765.255 576.437C752.96 564.739 735.889 557.904 719.653 553.76C690.81 546.399 660.016 545.221 630.398 543.504C570.602 540.345 510.707 539.47 450.845 540.88C450.394 526.087 450.642 509.038 450.961 494.181C450.588 484.755 449.244 423.739 452.194 420.247Z"/><path fill="#D5EFF3" d="M452.194 420.247C463.412 419.066 474.574 417.642 485.808 416.959C579.388 411.27 676.536 441.824 747.254 503.939C749.133 505.589 751.008 507.484 753.007 508.97C748.65 510.813 665.094 505.128 657.51 504.119C632.419 500.781 455.824 503.672 451.322 500.292C451.35 498.08 451.167 496.354 450.961 494.181C450.588 484.755 449.244 423.739 452.194 420.247Z"/><path fill="#FEC4AC" d="M619.951 633.953C651.641 641.144 680.349 639.558 711.059 628.5C711.879 651.282 713.944 669.951 728.574 688.69C735.92 677.095 742.302 665.36 757.746 673.477C759.42 675.957 761.35 678.563 762.437 681.325C786.183 688.389 791.223 696.018 791.569 721.085C792.362 763.639 792.016 777.319 745.945 777.624C743.399 777.639 740.854 777.638 738.308 777.621L742.376 781.445C730.419 816.388 667.538 835.98 660.006 788.957L660.165 787.501L660.356 784.418L659.326 776.724L658.956 776.417C655.943 777.383 650.098 777.552 646.836 777.689C602.546 779.542 592.838 774.051 592.662 728.408C592.484 705.698 592.985 689.863 617.4 682.018C617.49 676.472 617.902 668.776 616.321 663.691C617.672 660.286 619.043 639.864 619.951 633.953Z"/><path fill="#97BAD1" d="M762.437 681.325C786.183 688.389 791.223 696.018 791.569 721.085C792.362 763.639 792.016 777.319 745.945 777.624C743.399 777.639 740.854 777.638 738.308 777.621C735.92 755.541 735.25 739.544 734.898 717.346C758.19 715.498 760.667 701.779 762.437 681.325Z"/><path fill="#97BAD1" d="M617.4 682.018C617.839 709.732 619.967 746.163 640.907 767.142C647.795 774.043 652.205 772.877 658.956 776.417C655.943 777.383 650.098 777.552 646.836 777.689C602.546 779.542 592.838 774.051 592.662 728.408C592.484 705.698 592.985 689.863 617.4 682.018Z"/><path fill="#FE987C" d="M659.326 776.724C663.572 774.805 670.569 775.446 675.524 774.506C692.667 771.255 704.491 762.783 717.124 751.841C703.101 776.274 689.333 786.594 660.356 784.418L659.326 776.724Z"/><path fill="#FE987C" d="M651.522 684.539C655.4 692.161 645.461 704.67 646.114 712.977C646.72 720.682 653.577 718.828 658.045 722.558L657.116 723.377C631.166 719.106 643.51 699.692 651.522 684.539Z"/><path fill="#26292E" d="M674.052 654.094C680.3 653.854 695.359 653.375 696.923 661.523L695.488 662.445C690.039 662.207 674.869 662.704 671.655 658.018C671.899 655.574 671.866 656.316 674.052 654.094Z"/><path fill="#FE987C" d="M683.703 731.07C684.386 731.184 685.795 731.809 686.51 732.094L686.744 732.967C681.964 739.55 664.292 741.19 656.554 742.021C655.058 741.225 654.855 741.286 654.05 739.769C657.085 736.3 675.181 735.703 683.703 731.07Z"/><path fill="#26292E" d="M676.932 677.493C687.635 680.169 686.869 684.378 682.57 692.718C671.46 690.72 672.733 685.744 676.932 677.493Z"/><path fill="#26292E" d="M631.307 654.83C635.583 654.577 643.229 653.957 642.861 660.256C640.145 663.043 637.65 662.154 634.077 661.671C630.283 662.33 624.891 663.865 622.673 659.801C623.948 656.833 628.445 655.729 631.307 654.83Z"/><path fill="#26292E" d="M631.407 677.667C641.513 680.11 640.689 684.845 636.714 692.695C635.98 692.571 635.25 692.432 634.522 692.276C631.428 691.603 630.115 691.055 628.432 688.404C627.38 683.843 629.13 681.704 631.407 677.667Z"/><path fill="#FE987C" d="M744.358 682.95L746.326 683.565C747.1 686.693 740.821 695.891 738.828 699.734L738.453 700.117L737.57 699.635C737.318 693.954 741.004 687.352 744.358 682.95Z"/><path fill="#26292E" d="M610.409 629.434C603.492 621.477 599.768 613.704 600.751 602.963C603.953 567.979 642.908 566.581 669.895 567.763C705.51 569.323 727.399 567.536 748.72 600.264C780.945 614.419 772.791 648.991 757.746 673.477C742.302 665.36 735.92 677.095 728.574 688.69C713.944 669.951 711.879 651.282 711.059 628.5C680.349 639.558 651.641 641.144 619.951 633.953C619.043 639.864 617.672 660.286 616.321 663.691C611.958 650.715 611.924 642.832 610.409 629.434Z"/><path fill="#F63E3F" d="M861.988 677.309C864.254 689.302 868.993 702.52 871.275 714.744C879.565 758.34 880.374 803.028 873.665 846.895C872.088 856.725 871.38 864.404 866.128 872.975C867.74 887.615 850.365 926.308 844.092 941.222C839.481 941.432 835.423 941.664 830.805 942.149C821.179 924.373 806.205 891.348 782.379 909.574C775.25 915.445 767.235 921.987 760.91 928.748C749.233 922.158 738.917 916.88 726.1 912.944L692.931 952.685C688.202 958.383 677.922 970.268 674.265 976.087C664.829 977.307 659.863 978.26 650.691 980.693C645.146 982.164 630.911 986.479 626.035 986.706C620.274 988.32 615.977 989.285 610.111 990.422L604.41 991.178L597.583 992.758C593.454 993.347 589.804 993.825 585.652 994.17L584.529 993.904C573.084 993.846 564.101 993.273 553.071 989.463C550.885 998.258 548.384 1007.54 548.116 1016.62C536.571 1020.8 527.025 1022.66 514.919 1024.97C518.239 1009.72 520.469 992.625 524.273 977.744C528.986 959.301 536.052 941.701 539.557 922.688C540.216 916.378 543.292 907.876 545.336 901.745C552.381 884.603 557.614 867.037 565.324 849.659C585.645 803.857 619.941 804.056 660.006 788.957C667.538 835.98 730.419 816.388 742.376 781.445C756.152 785.262 770.367 787.729 783.802 792.054C810.21 754.043 836.274 715.793 861.988 677.309Z"/><path fill="#24445B" d="M861.988 677.309C864.254 689.302 868.993 702.52 871.275 714.744C879.565 758.34 880.374 803.028 873.665 846.895C872.088 856.725 871.38 864.404 866.128 872.975C867.74 887.615 850.365 926.308 844.092 941.222C839.481 941.432 835.423 941.664 830.805 942.149C821.179 924.373 806.205 891.348 782.379 909.574C770.792 901.41 758.136 894.879 744.768 890.164C736.873 888.609 722.616 884.06 714.54 881.607C737.978 852.029 761.067 822.175 783.802 792.054C810.21 754.043 836.274 715.793 861.988 677.309Z"/><path fill="#F63E3F" d="M813.482 800.079C826.89 807.78 834.388 812.717 843.504 825.989C845.185 828.437 850.118 835.896 851.783 837.918C854.654 844.64 863.13 868.607 866.128 872.975C867.74 887.615 850.365 926.308 844.092 941.222C839.481 941.432 835.423 941.664 830.805 942.149C821.179 924.373 806.205 891.348 782.379 909.574C770.792 901.41 758.136 894.879 744.768 890.164C768.484 860.763 791.397 830.723 813.482 800.079Z"/><path fill="#BEDFE9" d="M871.275 714.744C879.565 758.34 880.374 803.028 873.665 846.895C872.088 856.725 871.38 864.404 866.128 872.975C863.13 868.607 854.654 844.64 851.783 837.918C850.118 835.896 845.185 828.437 843.504 825.989C834.388 812.717 826.89 807.78 813.482 800.079L817.24 795.018C835.501 768.853 853.554 741.311 871.275 714.744Z"/><path fill="#97BAD1" d="M813.482 800.079L817.24 795.018C831.801 801.374 841.785 807.166 848.437 822.893C849.939 826.442 851.843 834.103 851.783 837.918C850.118 835.896 845.185 828.437 843.504 825.989C834.388 812.717 826.89 807.78 813.482 800.079Z"/><path fill="#FEC4AC" d="M557.225 931.779C568.59 911.527 574.946 906.04 594.7 920.696C600.467 925.601 607.756 931.781 612.744 937.517C614.208 943.88 614.981 960.486 603.815 954.845L602.255 955.716C603.153 959.727 598.24 986.299 597.583 992.758C593.454 993.347 589.804 993.825 585.652 994.17L584.529 993.904C573.084 993.846 564.101 993.273 553.071 989.463C550.885 998.258 548.384 1007.54 548.116 1016.62C536.571 1020.8 527.025 1022.66 514.919 1024.97C518.239 1009.72 520.469 992.625 524.273 977.744C528.986 959.301 536.052 941.701 539.557 922.688C544.058 924.736 546.963 926.322 551.237 928.83L557.225 931.779Z"/><path fill="#FE987C" d="M551.237 928.83L557.225 931.779C550.931 942.252 546.581 955.865 541.147 966.952C536.141 977.163 529.282 985.946 522.712 995.194C527.644 982.895 534.481 974.034 539.538 962.28C543.97 951.979 546.032 939.255 551.237 928.83Z"/><path fill="#FE987C" d="M602.255 955.716C594.349 948.18 585.039 941.483 577.846 933.123C588.982 938.841 595.834 945.324 603.815 954.845L602.255 955.716Z"/><path fill="#FE987C" d="M584.529 993.904C584.34 975.98 568.532 982.381 563.473 974.271C572.711 977.186 577.309 979.143 586.1 983.299L585.652 994.17L584.529 993.904Z"/><path fill="#FE987C" d="M571.842 954.649C578.368 955.923 596.768 968.864 599.13 975.426C593.191 975.18 576.004 959.054 571.842 954.649Z"/><path fill="#F63E3F" d="M612.744 937.517C634.115 923.708 664.345 907.045 690.525 908.535C703.17 911.113 715.074 910.913 726.1 912.944L692.931 952.685C688.202 958.383 677.922 970.268 674.265 976.087C664.829 977.307 659.863 978.26 650.691 980.693C645.146 982.164 630.911 986.479 626.035 986.706C620.274 988.32 615.977 989.285 610.111 990.422L604.41 991.178L597.583 992.758C598.24 986.299 603.153 959.727 602.255 955.716L603.815 954.845C614.981 960.486 614.208 943.88 612.744 937.517Z"/><path fill="#24445B" d="M690.525 908.535C703.17 911.113 715.074 910.913 726.1 912.944L692.931 952.685C688.202 958.383 677.922 970.268 674.265 976.087C664.829 977.307 659.863 978.26 650.691 980.693C645.146 982.164 630.911 986.479 626.035 986.706C645.237 959.995 670.851 935.819 690.525 908.535Z"/><path fill="#F22929" d="M607.283 960.071C610.278 972.13 609.958 977.983 610.111 990.422L604.41 991.178C605.598 980.609 606.746 970.713 607.283 960.071Z"/><path fill="#26292E" d="M608.537 908.175C643.736 883.885 672.184 876.609 714.54 881.607C722.616 884.06 736.873 888.609 744.768 890.164C758.136 894.879 770.792 901.41 782.379 909.574C775.25 915.445 767.235 921.987 760.91 928.748C749.233 922.158 738.917 916.88 726.1 912.944C715.074 910.913 703.17 911.113 690.525 908.535C664.345 907.045 634.115 923.708 612.744 937.517C607.756 931.781 600.467 925.601 594.7 920.696L602.416 913.661L608.537 908.175Z"/><path fill="#F22929" d="M609.258 867.439C609.211 875.325 606.275 902.737 608.537 908.175L602.416 913.661C602.182 893.975 602.534 886.389 609.258 867.439Z"/><path fill="#BEDFE9" d="M399.162 727.991C448.568 727.736 497.817 725.261 547.239 727.808C562.23 728.58 577.613 727.665 592.662 728.408C592.838 774.051 602.546 779.542 646.836 777.689C650.098 777.552 655.943 777.383 658.956 776.417L659.326 776.724L660.356 784.418L660.165 787.501L660.006 788.957C619.941 804.056 585.645 803.857 565.324 849.659C557.614 867.037 552.381 884.603 545.336 901.745C543.292 907.876 540.216 916.378 539.557 922.688C536.052 941.701 528.986 959.301 524.273 977.744C520.469 992.625 518.239 1009.72 514.919 1024.97C507.349 1026.29 456.744 1035.86 452.234 1033.5C451.451 1030.53 451.393 1029.09 451.179 1026.1C449.067 1013.2 436.765 917.284 433.869 913.533L434.204 912.3C443.746 903.167 438.403 898.3 429.712 892.152C435.815 889.114 442.055 885.771 448.13 882.626C455.82 878.639 482.083 869.444 477.89 858.125C470.579 851.892 453.823 859.936 446.436 863.421C440.336 865.873 434.218 868.28 428.083 870.641C418.824 839.168 403.851 826.994 372.604 818.48C361.955 815.579 351.482 812.352 341.965 806.701L342.773 806.393C353.167 802.386 355.55 797.159 359.782 787.471L361.157 778.019C398.474 777.155 398.443 760.301 399.162 727.991Z"/><path fill="#97BAD1" d="M359.782 787.471C384.603 787.292 408.506 785.482 428.089 804.493C443.738 819.686 445.983 842.681 446.436 863.421C440.336 865.873 434.218 868.28 428.083 870.641C418.824 839.168 403.851 826.994 372.604 818.48C361.955 815.579 351.482 812.352 341.965 806.701L342.773 806.393C353.167 802.386 355.55 797.159 359.782 787.471Z"/><path fill="#97BAD1" d="M545.336 901.745C544.605 898.866 544.345 890.976 544.502 887.878C545.935 859.54 541.236 825.15 563.501 803.62C569.774 797.618 577.408 793.225 585.751 790.818C602.503 785.873 641.087 787.298 660.165 787.501L660.006 788.957C619.941 804.056 585.645 803.857 565.324 849.659C557.614 867.037 552.381 884.603 545.336 901.745Z"/><path fill="#97BAD1" d="M429.712 892.152C435.815 889.114 442.055 885.771 448.13 882.626C449.637 912.094 450.876 941.574 451.847 971.064C452.176 980.661 454.67 1019.54 451.179 1026.1C449.067 1013.2 436.765 917.284 433.869 913.533L434.204 912.3C443.746 903.167 438.403 898.3 429.712 892.152Z"/><path fill="#FEC4AC" d="M217.271 637.321C240.079 636.656 275.422 635.802 297.948 637.43L299.25 638.977L315.527 639.003C342.188 639.125 367.342 651.115 367.81 680.995C398.991 686.168 397.256 700.263 399.162 727.991C398.443 760.301 398.474 777.155 361.157 778.019L359.782 787.471C355.55 797.159 353.167 802.386 342.773 806.393L341.965 806.701L339.947 807.356L334.383 809.288C330.478 812.494 327.116 815.359 322.83 818.094C313.642 822.483 305.713 822.595 296.166 818.819C283.841 813.876 273.919 804.34 268.494 792.223L269.297 787.645C253.784 786.188 234.03 787.471 217.809 787.504C197.026 759.996 177.928 730.374 157.026 702.481C158.493 698.423 161.568 684.616 163.386 678.694C166.871 667.337 174.701 648.343 176.8 637.69C190.9 637.006 203.182 637.239 217.271 637.321Z"/><path fill="#BEDFE9" d="M217.271 637.321C240.079 636.656 275.422 635.802 297.948 637.43L299.25 638.977C273.904 641.753 265.018 648.137 247.245 666.988C243.721 670.724 241.689 676.31 240.397 681.311C241.428 694.723 243.127 704.836 248.909 717.296C238.978 734.619 243.201 759.685 266.132 760.681C266.578 766.129 266.937 772.416 267.661 777.772C267.974 780.049 268.626 785.777 269.297 787.645C253.784 786.188 234.03 787.471 217.809 787.504C197.026 759.996 177.928 730.374 157.026 702.481C158.493 698.423 161.568 684.616 163.386 678.694C166.871 667.337 174.701 648.343 176.8 637.69C190.9 637.006 203.182 637.239 217.271 637.321Z"/><path fill="#D5EFF3" d="M217.271 637.321C240.079 636.656 275.422 635.802 297.948 637.43L299.25 638.977C273.904 641.753 265.018 648.137 247.245 666.988C243.721 670.724 241.689 676.31 240.397 681.311C217.836 690.123 214.965 698.392 214.323 722.426C213.223 724.559 213.608 728.615 213.628 731.233L186.951 731.281C191.535 719.163 195.523 703.436 199.415 690.744C205.057 672.834 211.01 655.024 217.271 637.321Z"/><path fill="#97BAD1" d="M214.323 722.426C214.965 698.392 217.836 690.123 240.397 681.311C241.428 694.723 243.127 704.836 248.909 717.296C238.978 734.619 243.201 759.685 266.132 760.681C266.578 766.129 266.937 772.416 267.661 777.772L264.826 777.791C218.016 778.042 213.397 769.514 214.323 722.426Z"/><path fill="#8DA0A5" d="M315.527 639.003C342.188 639.125 367.342 651.115 367.81 680.995C366.892 685.1 364.031 698.762 361.996 701.877C359.63 691.9 357.82 683.113 353.515 673.698C331.726 678.79 301.95 680.297 280.196 674.486C276.561 694.277 273.556 705.916 266.998 725.068C260.943 717.991 259.096 715.081 248.909 717.296C243.127 704.836 241.428 694.723 240.397 681.311C241.689 676.31 243.721 670.724 247.245 666.988C265.018 648.137 273.904 641.753 299.25 638.977L315.527 639.003Z"/><path fill="#97BAD1" d="M367.81 680.995C398.991 686.168 397.256 700.263 399.162 727.991C398.443 760.301 398.474 777.155 361.157 778.019C365.389 750.439 363.962 729.352 361.996 701.877C364.031 698.762 366.892 685.1 367.81 680.995Z"/><path fill="#FE987C" d="M283.448 792.987C302.865 804.237 310.919 808.363 334.383 809.288C330.478 812.494 327.116 815.359 322.83 818.094C305.433 807.518 293.321 817.727 283.448 792.987Z"/><path fill="#26292E" d="M311.471 774.101C316.506 773.879 326.577 772.66 330.447 775.958C332.37 777.598 331.992 779.045 332.138 781.396C322.934 782.124 314.548 784.832 311.471 774.101Z"/><path fill="#8DA0A5" d="M297.471 704.424C302.947 704.041 313.734 703.365 317.453 708.373L316.956 709.849C315.925 710.234 314.909 710.152 313.761 710.199C308.462 710.545 297.523 711.77 293.793 708.005C294.573 705.756 295.144 705.965 297.471 704.424Z"/><path fill="#FE987C" d="M329.836 729.338C335.676 731.848 340.835 744.54 338.838 750.703C337.045 756.239 335.817 756.905 331.341 759.827C329.866 759.608 329.79 759.44 328.44 758.815L328.66 758.075C339.978 751.076 333.403 739.887 329.836 729.338Z"/><path fill="#26292E" d="M304.902 721.835C307.904 722.456 310.242 723.229 312.036 725.731C313.429 729.843 311.631 732.387 309.736 736.224C299.35 734.192 301.126 729.375 304.902 721.835Z"/><path fill="#8DA0A5" d="M332.313 704.347C339.197 704.175 350.802 702.195 353.035 710.079C345.059 710.825 334.878 713.791 332.313 704.347Z"/><path fill="#26292E" d="M343.022 721.865C344.4 722.327 345.712 722.963 346.928 723.758C352.36 727.259 347.958 733.224 345.542 736.968C337.166 731.898 337.762 729.607 343.022 721.865Z"/><path fill="#FE987C" d="M251.013 727.195C263.153 727.842 262.724 741.327 262.372 750.2C260.785 748.213 259.979 740.633 259.388 737.411C255.378 733.711 252.747 732.191 251.013 727.195Z"/><path fill="#FE987C" d="M300.914 771.442C301.958 773.718 301.323 779.201 301.213 782.084C298.326 777.577 299.205 776.145 300.914 771.442Z"/><path fill="#F63E3F" d="M782.379 909.574C806.205 891.348 821.179 924.373 830.805 942.149C835.423 941.664 839.481 941.432 844.092 941.222C841.77 946.149 839.136 952.132 836.478 956.789C832.743 964.45 824.694 978.602 819.169 985.037C813.694 986.408 810.487 987.147 804.826 987.894L804.951 998.962C791.89 997.084 771.206 994.343 759.258 990.174C726.615 978.784 709.468 974.195 674.265 976.087C677.922 970.268 688.202 958.383 692.931 952.685L726.1 912.944C738.917 916.88 749.233 922.158 760.91 928.748C767.235 921.987 775.25 915.445 782.379 909.574Z"/><path fill="#FEC4AC" d="M782.379 909.574C806.205 891.348 821.179 924.373 830.805 942.149C835.423 941.664 839.481 941.432 844.092 941.222C841.77 946.149 839.136 952.132 836.478 956.789C832.743 964.45 824.694 978.602 819.169 985.037C813.694 986.408 810.487 987.147 804.826 987.894C795.195 987.547 794.992 986.45 790.344 978.249C772.371 969.918 782.697 962.488 793.355 954.608L791.396 953.398C781.941 960.916 770.109 967.084 770.413 949.059L769.108 949.254C756.143 950.693 758.235 937.037 760.91 928.748C767.235 921.987 775.25 915.445 782.379 909.574Z"/><path fill="#FE987C" d="M830.805 942.149C835.423 941.664 839.481 941.432 844.092 941.222C841.77 946.149 839.136 952.132 836.478 956.789C833.933 952.527 832.348 946.925 830.805 942.149Z"/><path fill="#FE987C" d="M797.159 924.634C788.367 931.999 777.881 940.541 770.413 949.059L769.108 949.254C773.921 937.605 786.243 929.811 797.159 924.634Z"/><path fill="#FE987C" d="M806.3 943.349C802.284 947.648 798.446 951.556 793.355 954.608L791.396 953.398C796.624 949.15 800.13 946.458 806.3 943.349Z"/><path fill="#FE987C" d="M813.042 965.357L813.545 965.704C811.07 968.95 797.345 974.64 793.188 976.505L792.667 976.046L792.91 975.031C798.006 970.912 806.811 967.769 813.042 965.357Z"/><path fill="#26292E" d="M674.265 976.087C709.468 974.195 726.615 978.784 759.258 990.174C771.206 994.343 791.89 997.084 804.951 998.962L804.826 987.894C810.487 987.147 813.694 986.408 819.169 985.037C812.222 994.581 804.034 1006.41 796.327 1015.14C785.074 1011.34 774.96 1013.1 763.425 1011.82C752.464 1010.59 741.65 1008.95 730.63 1008.03C681.68 1003.75 632.414 1004.69 583.662 1010.83C574.857 1012.01 556.328 1014.3 548.116 1016.62C548.384 1007.54 550.885 998.258 553.071 989.463C564.101 993.273 573.084 993.846 584.529 993.904L585.652 994.17C589.804 993.825 593.454 993.347 597.583 992.758L604.41 991.178L610.111 990.422C615.977 989.285 620.274 988.32 626.035 986.706C630.911 986.479 645.146 982.164 650.691 980.693C659.863 978.26 664.829 977.307 674.265 976.087Z"/><path fill="#FEC4AC" d="M446.436 863.421C453.823 859.936 470.579 851.892 477.89 858.125C482.083 869.444 455.82 878.639 448.13 882.626C442.055 885.771 435.815 889.114 429.712 892.152C438.403 898.3 443.746 903.167 434.204 912.3L433.869 913.533C433.575 921.15 433.562 923.825 428.416 929.829L427.453 932.829C427.048 934.659 426.599 936.478 426.103 938.285C422.714 950.195 412.1 946.969 403.629 944.219C390.784 953.022 386.691 953.864 371.583 954.264C369.265 936.996 367.446 930.829 358.272 916.018C390.594 892.103 387.229 885.106 428.083 870.641C434.218 868.28 440.336 865.873 446.436 863.421Z"/><path fill="#FE987C" d="M427.453 932.829C426.232 928.271 419.468 919.8 420.037 917.622C425.312 921.422 425.858 924.036 428.416 929.829L427.453 932.829Z"/><path fill="#FE987C" d="M433.869 913.533C431.038 912.19 421.784 905.218 422.114 902.071C425.732 903.379 431.313 909.414 434.204 912.3L433.869 913.533Z"/><path fill="#FE987C" d="M417.125 888.099C421.961 888.153 423.657 888.136 427.249 891.669C422.557 891.637 420.303 892.029 417.125 888.099Z"/><path fill="#D5EFF3" d="M262.241 800.338C263.132 796.324 265.535 794.965 268.494 792.223C273.919 804.34 283.841 813.876 296.166 818.819C305.713 822.595 313.642 822.483 322.83 818.094C327.116 815.359 330.478 812.494 334.383 809.288L339.947 807.356C339.196 837.096 336.498 866.866 334.654 896.554C334.405 900.554 333.965 905.022 334.015 909.003L332.058 910.41C327.093 892.022 324.399 870.604 319.771 851.337L324.9 836.773C321.155 832.214 316.643 827.281 312.721 822.792C308.451 828.067 304.468 833.71 300.475 839.207C302.603 843.839 306.146 849.965 308.661 854.591C303.002 868.484 302.128 880.127 301.561 894.816C298.673 891.442 287.233 878.254 285.578 874.829C276.987 857.043 264.897 819.186 262.241 800.338Z"/><path fill="#BEDFE9" d="M150.596 746.854L151.3 745.922C163.593 762.013 177.115 781.964 188.878 798.73C178.404 806.464 174.088 808.98 169.318 821.354C163.908 835.387 162.913 848.369 162.097 863.241C161.907 866.72 161.453 874.969 164.968 876.829C164.506 880.826 163.975 884.821 162.51 888.605C150.341 862.321 142.232 774.123 150.596 746.854Z"/><path fill="#97BAD1" d="M188.878 798.73C195.085 807.499 201.204 816.33 207.233 825.222C181.157 837.645 170.957 847.922 164.968 876.829C161.453 874.969 161.907 866.72 162.097 863.241C162.913 848.369 163.908 835.387 169.318 821.354C174.088 808.98 178.404 806.464 188.878 798.73Z"/><path fill="#97BAD1" d="M217.809 787.504C234.03 787.471 253.784 786.188 269.297 787.645L268.494 792.223C265.535 794.965 263.132 796.324 262.241 800.338L261.42 798.471C258.497 798.489 255.511 801.951 253.399 804.042L238.004 815.424C232.932 806.808 224.018 795.654 217.809 787.504Z"/><path fill="#26292E" d="M253.399 804.042C253.693 808.421 252.801 813.762 252.511 818.31C252.093 824.858 252.432 830.027 252.969 836.55C247.444 829.242 242.956 823.112 238.004 815.424L253.399 804.042Z"/><path fill="#BEDFE9" d="M334.015 909.003C333.814 910.971 334.106 912.01 333.035 913.114C332.668 912.207 332.261 911.356 332.058 910.41L334.015 909.003Z"/></svg>