<?xml version="1.0" encoding="utf-8" ?><svg xmlns="http://www.w3.org/2000/svg" xmlns:xlink="http://www.w3.org/1999/xlink" width="1024" height="1024" viewBox="0 0 1024 1024"><path fill="#FEFEFE" d="M0 0L1024 0L1024 1024L0 1024L0 0Z"/><path fill="#4C3763" d="M470.677 106.151C519.984 65.5626 598.861 62.451 652.906 94.8927C656.168 96.8508 667.881 105.906 670 106.373L719.194 106.364C746.976 106.315 768.614 102.768 790.511 124.267C801.633 135.186 807.658 151.517 807.586 167.058C807.432 183.698 800.587 199.576 788.592 211.11C774.305 225.125 758.646 228.623 739.386 228.428C741.356 236.239 746.682 243.802 751.125 250.484C768.89 277.199 787.334 296.458 814.98 312.981C830.026 321.974 846.578 328.15 861.468 337.431C869.649 342.531 877.771 347.848 885.28 353.906C925.404 386.278 952.674 432.771 965.405 482.357C981.549 545.239 968.313 610.701 935.507 665.933C931.639 672.446 910.662 705.083 905.147 706.568C904.869 706.643 904.585 706.692 904.306 706.761C904.069 706.819 903.834 706.889 903.596 706.95C903.436 706.991 903.273 707.028 903.112 707.067C907.739 725.33 912.262 745.551 917.52 763.446C920.537 755.061 928.011 729.855 931.966 723.894C933.65 721.356 936.006 719.334 938.772 718.056C941.192 716.921 943.814 716.326 946.466 716.076C954.578 715.31 963.21 715.914 971.376 715.934C977.044 715.948 982.864 715.454 988.502 715.779C990.462 715.893 992.438 716.232 994.269 716.958C996.681 717.915 999.699 719.939 1000.67 722.451C1002.82 727.994 1002.55 770.428 1001.8 778.401C1001.54 781.112 1001.14 783.607 999.969 786.101C997.101 792.184 991.812 797.609 985.331 799.707C976.2 802.662 939.128 800.913 926.804 801.179C929.886 809.989 935.065 813.412 941.041 820.269C967.58 850.719 986.087 888.673 995.163 927.965C996.167 932.311 999.528 947.101 998.191 950.627C995.541 952.5 977.595 951.643 973.233 951.627L929.023 951.53L789.896 951.518L202.528 951.597L72.7601 951.618L40.7488 951.686C37.7619 951.696 27.8417 952.424 25.97 950.52C24.6967 947.01 26.2052 940.772 26.882 936.982C30.5353 916.042 36.9416 895.678 45.9342 876.418C58.0755 850.996 74.8696 828.071 95.4484 808.83C96.0891 806.013 96.7116 803.14 97.3843 800.336C85.4256 800.155 73.4651 800.112 61.5054 800.207C56.5373 800.211 45.1194 800.817 41.0868 799.575C25.948 794.913 20.6629 783.525 21.4509 768.412C22.107 755.829 21.261 742.919 21.4265 730.31C21.2727 723.449 25.4834 717.242 32.678 716.241C48.3053 714.969 64.9392 716.513 80.5855 715.695C78.7802 710.701 74.7661 704.262 72.8624 699.2C69.322 689.786 65.1658 679.902 61.9423 670.43C45.7806 622.938 37.1419 576.593 40.5272 526.544C45.2617 449.522 81.7904 376.654 137.793 324.365C181.784 283.293 227.021 260.152 286.025 249.692C302.071 246.848 357.766 238.17 368.278 228.986L368 228.153C344.763 227.771 321.125 228.272 298.068 228.1C272.131 227.949 251.479 231.168 230.42 212.584C194.305 180.715 209.405 119.095 256.714 108.56C267.976 106.052 277.239 106.437 288.611 106.421L318.69 106.444L421.109 106.463C435.567 106.415 456.654 107.055 470.677 106.151Z"/><path fill="#F6F6F6" d="M470.677 106.151C519.984 65.5626 598.861 62.451 652.906 94.8927C656.168 96.8508 667.881 105.906 670 106.373L719.194 106.364C746.976 106.315 768.614 102.768 790.511 124.267C801.633 135.186 807.658 151.517 807.586 167.058C807.432 183.698 800.587 199.576 788.592 211.11C774.305 225.125 758.646 228.623 739.386 228.428C741.356 236.239 746.682 243.802 751.125 250.484C768.89 277.199 787.334 296.458 814.98 312.981C830.026 321.974 846.578 328.15 861.468 337.431C869.649 342.531 877.771 347.848 885.28 353.906C925.404 386.278 952.674 432.771 965.405 482.357C981.549 545.239 968.313 610.701 935.507 665.933C931.639 672.446 910.662 705.083 905.147 706.568C904.869 706.643 904.585 706.692 904.306 706.761C904.069 706.819 903.834 706.889 903.596 706.95C903.436 706.991 903.273 707.028 903.112 707.067C892.026 661.141 879.525 615.594 868.092 569.809L855.988 522.309C853.399 511.947 850.089 495.544 845.713 486.382C840.316 475.323 831.882 466.03 821.397 459.589C814.241 455.236 804.626 451.507 796.202 451.166C783.399 450.647 770.127 450.797 757.292 450.758L686.992 450.59L467.826 450.609L299.976 450.726L261.047 450.837C252.473 450.85 243.8 450.708 235.28 451.08C211.838 452.103 191.157 465.261 179.355 485.38C172.35 497.32 170.195 511.282 166.89 524.595L157.602 561.909L120.249 709.663C116.002 725.971 111.763 744.816 107.072 760.737C104.726 754.013 102.509 747.245 100.423 740.436C97.8737 732.253 95.8807 721.554 87.5485 717.218C85.992 716.408 82.3514 715.416 80.5855 715.695C78.7802 710.701 74.7661 704.262 72.8624 699.2C69.322 689.786 65.1658 679.902 61.9423 670.43C45.7806 622.938 37.1419 576.593 40.5272 526.544C45.2617 449.522 81.7904 376.654 137.793 324.365C181.784 283.293 227.021 260.152 286.025 249.692C302.071 246.848 357.766 238.17 368.278 228.986L368 228.153C344.763 227.771 321.125 228.272 298.068 228.1C272.131 227.949 251.479 231.168 230.42 212.584C194.305 180.715 209.405 119.095 256.714 108.56C267.976 106.052 277.239 106.437 288.611 106.421L318.69 106.444L421.109 106.463C435.567 106.415 456.654 107.055 470.677 106.151Z"/><path fill="#5BE1FA" d="M470.677 106.151C519.984 65.5626 598.861 62.451 652.906 94.8927C656.168 96.8508 667.881 105.906 670 106.373L719.194 106.364C746.976 106.315 768.614 102.768 790.511 124.267C801.633 135.186 807.658 151.517 807.586 167.058C807.432 183.698 800.587 199.576 788.592 211.11C774.305 225.125 758.646 228.623 739.386 228.428L481.221 228.468L409.288 228.34C395.802 228.325 381.402 228.589 368 228.153C344.763 227.771 321.125 228.272 298.068 228.1C272.131 227.949 251.479 231.168 230.42 212.584C194.305 180.715 209.405 119.095 256.714 108.56C267.976 106.052 277.239 106.437 288.611 106.421L318.69 106.444L421.109 106.463C435.567 106.415 456.654 107.055 470.677 106.151Z"/><path fill="#F6F6F6" d="M470.677 106.151C519.984 65.5626 598.861 62.451 652.906 94.8927C656.168 96.8508 667.881 105.906 670 106.373C603.56 106.929 537.116 106.855 470.677 106.151Z"/><path fill="#FEFEFE" d="M266.387 110.198C275.506 109.2 289.634 109.942 299.096 109.956L360.973 110.043L556.334 110.024L691.181 109.976L733.078 109.867C739.8 109.852 749.292 109.36 755.81 110.197C780.682 113.393 802.217 136.791 803.947 161.342C805.199 177.026 800.124 192.56 789.854 204.48C778.482 217.501 765.119 223.684 748.124 224.773C742.6 225.353 728.825 225.167 722.441 225.236C702.241 225.366 682.041 225.385 661.841 225.293L495.433 225.151L341.29 225.177L292.886 225.163C272.031 225.131 253.449 226.856 236.345 213.065C194.652 179.448 213.439 116.387 266.387 110.198Z"/><path fill="#34234D" d="M645.999 144.369C659.222 143.791 670.423 154.016 671.048 167.237C671.674 180.458 661.489 191.695 648.271 192.368C634.985 193.045 623.678 182.797 623.049 169.509C622.42 156.22 632.708 144.951 645.999 144.369Z"/><path fill="#F6F6F6" d="M645.972 152.596C664.682 152.039 667.8 179.365 649.046 183.733C627.965 183.813 626.701 156.691 645.972 152.596Z"/><path fill="#34234D" d="M678.877 145.535C682.877 145.506 688.886 145.698 692.751 145.458C707.274 144.555 719.782 149.099 716.008 166.358C715.036 170.801 710.921 172.945 707.207 175.093C708.973 178.211 716.015 188.347 716.82 191.191C715.443 191.744 712.967 191.519 711.338 191.51C710.168 191.526 709.466 191.433 708.298 191.304C704.735 188.707 700.59 180.743 697.988 176.656L688.471 176.671L688.465 191.154L678.875 191.146C678.959 175.943 678.96 160.739 678.877 145.535Z"/><path fill="#F6F6F6" d="M688.556 153.247C694.734 153.158 707.809 151.24 707.998 160.26C708.069 163.631 707.722 164.489 705.456 166.895C699.885 170.081 694.736 169.407 688.463 169.297C688.422 163.916 688.344 158.628 688.556 153.247Z"/><path fill="#34234D" d="M448 145.524C455.671 145.494 463.688 145.147 471.3 145.725C480.629 146.434 488.018 154.075 485.947 163.689C484.724 169.368 480.199 172.239 475.675 175.073C479.114 179.656 483.178 186.706 486.409 191.763L479.877 191.749L477.284 191.519C474.356 189.704 468.576 179.361 466.393 175.838L457.32 175.846L457.233 191.575L447.959 191.556L448 145.524Z"/><path fill="#F6F6F6" d="M457.27 152.849C462.881 152.695 469.544 151.986 474.326 155.48C478.548 158.563 476.612 163.344 473.813 166.715C469.151 169.757 462.841 168.893 457.29 168.681C457.152 163.495 457.253 158.056 457.27 152.849Z"/><path fill="#34234D" d="M351.954 145.115L360.492 145.065L360.597 191.092L353.252 191.563C344.103 181.193 336.917 170.407 328.034 160.087L328.074 191.529L319.396 191.52C319.474 176.05 319.44 160.58 319.293 145.111L326.818 145.118C333.687 154.599 344.49 167.259 352.025 176.916L351.954 145.115Z"/><path fill="#34234D" d="M523.94 145.357L533.31 145.369L533.043 153.263C532.887 161.331 533.636 170.198 532.392 178.115C529.995 193.362 508.167 195.995 498.405 186.518C496.261 184.455 494.729 181.839 493.979 178.96C492.649 173.697 493.247 152.207 493.299 145.379L502.855 145.397C502.791 151.593 500.913 178.096 506.192 181.288C528.578 194.822 523.939 157.04 523.94 145.357Z"/><path fill="#34234D" d="M383.073 145.103C390.33 144.485 395.918 145.809 402.169 149.397C400.91 152.076 400.151 153.773 398.185 156.034C394.997 154.314 380.487 147.87 378.596 157.315C378.057 160.009 385.279 163.487 387.968 164.143C400.119 167.104 410.24 174.488 400.648 187.316C397.87 190.992 390.545 192.126 385.621 192.263C378.893 191.625 373.036 189.453 367.458 185.697C368.277 183.951 370.257 180.941 371.329 179.198C376.744 182.008 387.948 187.953 393.898 182.243C395.065 181.122 395.489 179.946 395.411 178.302C394.072 175.266 388.533 172.855 385.512 172.433C367.018 169.847 362.251 149.484 383.073 145.103Z"/><path fill="#34234D" d="M559.561 145.082C570.141 144.185 574.33 145.598 582.699 151.959C580.268 154.114 578.264 155.822 575.693 157.802C571.451 153.592 565.99 150.748 559.958 153.135C540.601 160.793 551.549 191.742 571.228 182.726L576.128 179.538C578.466 181.538 580.75 182.019 580.902 185.32C579.467 187.957 574.978 190.272 572.126 191.113C540.425 200.46 525.656 153.395 559.561 145.082Z"/><path fill="#34234D" d="M583.945 145.483L621.817 145.451L621.756 153.17L607.392 153.139L607.465 176.25L607.488 191.035L598.088 191.199L597.913 153.07L583.887 153.065L583.945 145.483Z"/><path fill="#34234D" d="M405.602 145.489L442.896 145.507L442.758 152.7L428.721 152.773L428.626 176.875L428.634 191.449L419.092 191.497L419.017 152.887L405.144 152.689L405.602 145.489Z"/><path fill="#34234D" d="M298.987 145.115L308.188 145.182L308.038 191.506L298.988 191.471L298.987 145.115Z"/><path fill="#E5E5E6" d="M399.413 289.124C414.313 286.716 428.326 296.899 430.636 311.815C432.947 326.73 422.673 340.676 407.742 342.889C392.949 345.081 379.16 334.922 376.871 320.144C374.581 305.366 384.65 291.51 399.413 289.124Z"/><path fill="#F6F6F6" d="M402.311 296.843C412.855 296.098 422.019 304.011 422.821 314.55C423.623 325.09 415.761 334.297 405.226 335.156C394.609 336.022 385.315 328.085 384.507 317.465C383.699 306.844 391.686 297.593 402.311 296.843Z"/><path fill="#E5E5E6" d="M639.547 355.007C649.667 354.68 725.477 354.196 728.12 355.839C729.059 356.424 729.832 357.697 729.948 358.785C730.198 361.119 728.673 363.138 727.431 364.946C707.809 365.123 688.185 365.159 668.562 365.053C659.707 365.019 650.759 365.288 641.928 364.877C635.577 364.582 636.337 358.805 639.547 355.007Z"/><path fill="#E5E5E6" d="M710.029 380.035C717.288 379.636 794.747 380.107 796.684 381.266C797.603 381.816 798.235 383.022 798.31 384.065C798.454 386.065 797.464 387.661 796.324 389.192C791.232 389.573 785.004 389.109 779.792 389.123C758.071 389.181 736.338 389.069 714.619 388.945C707.876 388.906 705.355 385.382 710.029 380.035Z"/><path fill="#E5E5E6" d="M520.61 287.6C528.929 285.729 537.183 290.983 539.011 299.312C540.839 307.641 535.543 315.867 527.205 317.652C518.927 319.424 510.773 314.175 508.958 305.907C507.144 297.638 512.351 289.457 520.61 287.6Z"/><path fill="#F6F6F6" d="M522.801 295.091C525.627 294.665 528.462 295.807 530.206 298.072C531.95 300.337 532.328 303.369 531.195 305.993C530.061 308.617 527.593 310.42 524.749 310.703C520.501 311.125 516.691 308.083 516.162 303.846C515.634 299.61 518.579 295.725 522.801 295.091Z"/><path fill="#E5E5E6" d="M272.479 348.536C280.644 348.458 339.297 347.549 342.331 349.458C343.216 350.014 343.968 351.087 344.122 352.122C344.429 354.178 343.283 355.616 342.07 357.092C335.022 357.73 275.668 357.453 272.724 356.275C270.457 353.936 271.177 351.177 272.479 348.536Z"/><path fill="#E5E5E6" d="M207.281 376.442C214.623 375.862 263.828 375.668 267.367 377.522C269.539 380.258 268.58 382.201 266.357 384.47C258.198 384.658 211.311 386.235 207.484 384.357C206.54 383.893 205.834 382.705 205.67 381.698C205.345 379.694 206.175 378.022 207.281 376.442Z"/><path fill="#E5E5E6" d="M746.928 355.066C756.095 354.708 765.482 355.013 774.67 354.882C778.05 354.834 782.235 355.13 784.364 358.092C785.026 360.531 783.869 363.196 781.688 364.453C776.336 364.481 747.793 365.339 744.709 363.467C743.244 361.224 743.231 359.879 743.678 357.28C744.545 355.811 745.326 355.709 746.928 355.066Z"/><path fill="#E5E5E6" d="M227.021 348.689C235.188 348.565 243.722 348.337 251.89 348.477C254.344 348.519 256.412 349.208 258.031 351.092C259.207 354.283 257.682 356.41 254.761 357.413C246.447 357.523 237.285 357.826 228.973 357.484C226.925 357.4 225.052 356.465 223.775 354.779C222.714 351.47 224.029 349.632 227.021 348.689Z"/><path fill="#E5E5E6" d="M162.148 376.224C169.8 376.22 177.57 376.107 185.224 376.253C188.316 376.312 190.887 376.829 191.955 379.954C191.489 384.085 189.67 384.432 186.125 384.643C179.837 384.433 157.053 387.084 155.094 380.337C155.937 376.469 158.865 376.505 162.148 376.224Z"/><path fill="#E5E5E6" d="M814.15 380.538C820.77 380.411 849.063 376.731 839.443 389.501C833.598 389.572 802.864 392.929 814.15 380.538Z"/><path fill="#E5E5E6" d="M799.433 354.606C804.149 354.451 808.676 354.323 811.28 359.021C811.519 362.498 809.278 364.159 806.221 365.502C804.64 365.538 800.555 365.769 799.196 365.209C792.332 362.384 792.214 356.933 799.433 354.606Z"/><path fill="#E5E5E6" d="M199.613 348.752C204.056 348.528 208.241 347.803 210.964 352.183C211.315 355.537 208.993 356.809 205.985 357.429C204.761 357.496 200.962 357.803 199.972 357.525C194.066 355.865 193.066 350.184 199.613 348.752Z"/><path fill="#FEFEFE" d="M265.307 455.756C303.338 455.326 342.08 455.68 380.169 455.69L608.268 455.658L734.364 455.709L772.171 455.814C779.838 455.833 788.413 455.541 795.977 456.329C816.676 458.484 834.494 473.033 842.326 492.08C845.364 499.467 846.962 508.185 848.917 515.883L859.613 557.755L900.09 716.385L914.099 771.71C916.375 780.936 919.806 796.102 922.688 804.7C925.062 811.784 939.631 826.244 945.599 833.978C970.825 866.946 987.24 905.795 993.296 946.863C974.346 947.046 955.023 946.711 936.016 946.733L757.25 946.67L302.053 946.694L131.172 946.693L67.4862 946.81C55.3857 946.834 42.2934 947.1 30.2589 946.714C35.0649 907.547 53.0373 866.187 77.711 835.233C83.5342 827.928 97.6863 815.815 100.875 807.611C102.547 803.308 104.729 792.259 105.966 787.257C109.554 772.54 113.248 757.85 117.049 743.186L162.352 564.34L172.637 522.4C174.543 514.559 177.056 502.764 179.882 495.673C183.026 487.855 187.747 480.77 193.749 474.857C215.209 453.375 237.644 455.892 265.307 455.756Z"/><path fill="#4C3763" d="M241.859 485.24L602.33 485.251L734.853 485.285L772.022 485.309C783.331 485.297 797.09 483.557 806.565 489.912C812.944 494.191 818.369 500.602 821.063 507.807C826.784 523.109 830.419 539.235 834.429 555.047L850.122 615.142C866.295 677.898 884.375 739.891 897.65 803.4L782.15 803.408L126.278 803.684C132.034 784.448 137.352 759.646 142.513 739.55L179.95 592.024C184.551 573.627 188.415 554.956 193.605 536.697C197.344 523.541 198.707 509.674 208.472 499.392C218.188 489.162 228.047 485.767 241.859 485.24Z"/><path fill="#FEFEFE" d="M520.126 490.319C538.459 489.824 558.806 490.248 577.314 490.262L684.168 490.241L755.259 490.226C767.368 490.23 782.457 489.701 794.267 490.591C817.112 492.313 822.776 531.148 827.215 548.198L843.412 610.757L876.767 738.099C882.014 758.921 886.968 777.426 891.271 798.51C887.714 798.549 879.426 798.833 876.349 798.228C872.085 797.9 864.937 798.231 860.459 798.328C837.434 798.507 814.408 798.549 791.383 798.455L786.19 798.468C768.366 798.976 747.748 798.505 729.814 798.449L609.469 798.093C602.206 798.785 589.386 798.432 581.78 798.43C565.688 798.473 549.596 798.414 533.506 798.253C515.623 798.104 497.74 798.049 479.857 798.087L476.479 797.984L445.86 798.003C441.849 797.987 422.147 798.592 419.299 797.602C415.903 796.873 413.545 796.936 411.896 793.68C406.773 797.279 406.198 798.372 400.131 797.956C380.061 798.247 358.85 797.814 338.678 797.808L256.3 798.014C254.461 798.003 253.715 798.367 252.645 797.459C253.977 793.089 255.605 792.827 252.506 788.901L252.342 788.692C250.407 791.922 248.558 789.738 245.375 793.975C240.164 793.359 238.238 793.129 233.324 790.812L232.025 791.306C229.575 793.722 228.184 794.993 226.614 798.194C220.137 798.268 211.106 797.989 204.984 798.376C194.22 798.781 181.74 798.536 170.84 798.546C162.642 798.525 154.445 798.558 146.248 798.644C141.786 798.942 137.074 798.912 132.584 798.96C138.009 775.782 144.406 752.47 150.315 729.405L177.589 621.253L195.552 549.51C198.476 538.04 201.196 525.721 204.836 514.546C208.815 502.327 223.385 491.21 236.233 490.617C245.381 490.194 254.698 490.312 263.838 490.322L318.36 490.35L503.399 490.355L503.383 513.398C491.257 513.4 479.13 513.219 466.971 513.261C455.464 513.306 451.604 517.894 449.447 528.822C447.477 538.805 440.247 551.271 452.246 558.535C454.127 559.674 463.23 559.787 465.529 559.771C497.649 559.541 529.748 559.828 561.866 559.84C574.822 559.845 579.866 551.844 576.267 539.711C573.535 531.571 573.773 514.987 562.236 513.856C549.12 512.57 533.499 513.278 520.095 513.242L520.126 490.319Z"/><path fill="#FE5168" d="M678.773 633.593C679.57 634.384 683.168 637.846 683.61 638.516C700.775 648.649 709.392 648.892 724.311 634.569L725.085 633.642C725.543 636.926 726.048 641.456 726.748 644.588C727.116 647.78 728.165 660.765 729.817 662.6C730.663 663.001 731.447 663.415 732.332 663.713C739.307 664.496 748.276 665.826 755.169 667.33L760.938 668.7C800.153 676.566 812.279 703.56 832.413 734.427C835.543 739.226 839.086 747.283 842.584 751.436C843.5 753.18 844.167 754.511 845.274 756.132L847.306 759.603C848.057 760.88 848.226 761.03 848.078 762.562C847.184 763.937 846.983 763.889 845.539 764.618C849.906 773.292 856.757 789.153 860.459 798.328C837.434 798.507 814.408 798.549 791.383 798.455L786.19 798.468C768.366 798.976 747.748 798.505 729.814 798.449L609.469 798.093C602.206 798.785 589.386 798.432 581.78 798.43C565.688 798.473 549.596 798.414 533.506 798.253C540.366 786.601 546.94 774.783 553.222 762.809C556.752 756.582 559.97 749.134 563.369 742.715C585.461 700.994 599.774 676.604 649.293 666.733L649.368 661.923C649.51 656.406 649.446 650.534 649.477 644.989C651.077 644.926 653.022 644.784 654.592 644.874C661.561 645.223 670.085 645.019 677.168 645.028C677.863 641.039 678.32 637.621 678.773 633.593Z"/><path fill="#FEA69E" d="M678.773 633.593C679.57 634.384 683.168 637.846 683.61 638.516C700.775 648.649 709.392 648.892 724.311 634.569L725.085 633.642C725.543 636.926 726.048 641.456 726.748 644.588C727.116 647.78 728.165 660.765 729.817 662.6C730.663 663.001 731.447 663.415 732.332 663.713C730.087 663.987 728.468 668.53 726.946 670.957C721.14 680.218 711.405 689.458 702.24 695.229C690.7 688.125 679.037 676.04 674.693 662.937L674.737 662.104C675.599 661.047 676.76 647.61 677.168 645.028C677.863 641.039 678.32 637.621 678.773 633.593Z"/><path fill="#FE5168" d="M724.311 634.569C724.186 637.348 723.275 638.51 721.516 640.738C712.658 651.957 699.891 658.262 688.375 645.922C686.764 644.195 684.356 640.743 683.61 638.516C700.775 648.649 709.392 648.892 724.311 634.569Z"/><path fill="#FEA69E" d="M533.506 798.253C540.366 786.601 546.94 774.783 553.222 762.809C572.002 769.064 590.732 775.47 609.41 782.024L609.469 798.093C602.206 798.785 589.386 798.432 581.78 798.43C565.688 798.473 549.596 798.414 533.506 798.253Z"/><path fill="#FEA69E" d="M787.059 781.126C802.841 780.426 820.422 775.372 835.098 769.69C838.633 768.321 841.873 766.118 845.539 764.618C849.906 773.292 856.757 789.153 860.459 798.328C837.434 798.507 814.408 798.549 791.383 798.455L786.19 798.468C786.355 795.372 786.458 793.076 786.972 790.011L787.059 781.126Z"/><path fill="#FFAF61" d="M786.972 790.011C787.923 791.737 791.122 796.944 791.383 798.455L786.19 798.468C786.355 795.372 786.458 793.076 786.972 790.011Z"/><path fill="#FEFEFE" d="M649.477 644.989C651.077 644.926 653.022 644.784 654.592 644.874C661.561 645.223 670.085 645.019 677.168 645.028C676.76 647.61 675.599 661.047 674.737 662.104C668.166 661.808 661.232 661.91 654.621 661.909L654.635 665.941L649.293 666.733L649.368 661.923C649.51 656.406 649.446 650.534 649.477 644.989Z"/><path fill="#34234D" d="M649.477 644.989C651.077 644.926 653.022 644.784 654.592 644.874L654.621 661.909L654.635 665.941L649.293 666.733L649.368 661.923C649.51 656.406 649.446 650.534 649.477 644.989Z"/><path fill="#00B4F3" d="M654.621 661.909C661.232 661.91 668.166 661.808 674.737 662.104L674.693 662.937C668.625 664.199 660.909 665.036 654.635 665.941L654.621 661.909Z"/><path fill="#EB3752" d="M599.044 739.269C603.521 741.802 616.202 756.28 620.337 760.789C619.5 763.783 618.791 767.329 618.105 770.399C617.936 770.914 617.622 771.344 617.332 771.83C616.04 771.054 601.142 742.989 599.044 739.269Z"/><path fill="#EB3752" d="M791.599 746.193C793.649 746.632 792.831 746.165 794.27 747.404C796.455 753.461 791.509 768.293 789.048 774.141L788.432 774.939L787.911 774.984C786.335 769.982 788.88 751.433 791.599 746.193Z"/><path fill="#5BE1FA" d="M354.062 681.705C357.33 680.884 363.497 675.729 367.41 675.725C378.151 676.537 383.825 677.371 394.315 680.587C398.734 681.745 403.706 684.79 407.465 687.384C426.31 700.384 440.474 719.927 451.92 739.48C460.637 754.371 468.151 768.499 474.647 784.471C476.17 788.217 479.029 794.264 479.857 798.087L476.479 797.984L445.86 798.003C441.849 797.987 422.147 798.592 419.299 797.602C415.903 796.873 413.545 796.936 411.896 793.68C406.773 797.279 406.198 798.372 400.131 797.956C380.061 798.247 358.85 797.814 338.678 797.808L256.3 798.014C254.461 798.003 253.715 798.367 252.645 797.459C253.977 793.089 255.605 792.827 252.506 788.901L252.342 788.692C250.407 791.922 248.558 789.738 245.375 793.975C240.164 793.359 238.238 793.129 233.324 790.812L232.025 791.306C229.575 793.722 228.184 794.993 226.614 798.194C220.137 798.268 211.106 797.989 204.984 798.376C194.22 798.781 181.74 798.536 170.84 798.546C171.134 794.082 172.303 791.746 174.256 787.882C182.219 769.386 191.371 755.374 203.239 739.196C207.551 733.318 211.719 726.68 216.351 721.086C217.589 719.243 218.786 717.633 220.127 715.917C240.043 690.444 249.441 681.274 282.021 677.095C284.709 676.693 287.724 676.17 290.401 675.906C292.349 677.637 295.294 680.606 297.657 681.337L298.045 681.939C301.894 683.171 305.921 686.065 309.774 687.662C321.24 692.34 334.156 691.916 345.29 686.496C348.087 685.16 351.351 683.28 354.062 681.705Z"/><path fill="#5BE1FA" d="M280.481 765.836C294.284 754.605 321.162 749.845 338.674 752.11C353.418 754.017 366.057 759.253 378.31 767.961C380.969 769.85 383.48 773.409 385.448 774.156C385.986 773.343 385.83 773.771 385.968 772.892C387.038 775.759 386.915 775.839 389.937 777.108C392.533 778.586 394.513 778.037 397.62 777.75C395.746 781.35 392.17 785.477 395.855 788.505C401.471 787.873 399.44 788.877 404.006 790.682C403.065 792.219 400.389 796.394 400.131 797.956C380.061 798.247 358.85 797.814 338.678 797.808L256.3 798.014C256.792 795.142 256.749 792.536 257.902 789.827C260.73 783.179 270.203 787.674 267.733 778.836C266.187 777.202 265.149 776.551 264.867 774.3C266.34 773.714 266.641 773.714 267.81 772.618C268.317 771.322 268.673 770.923 269.425 769.76C272.716 768.928 277.571 767.473 280.481 765.836Z"/><path fill="#FEA69E" d="M247.011 739.977C253.336 740.966 254.901 742.526 260.028 746.332C261.587 747.539 263.163 748.724 264.755 749.886C268.814 753.147 273.156 756.299 277.055 759.71L277.049 759.901C278.943 761.794 278.982 762.05 279.96 764.509L280.293 765.335C280.356 765.502 280.418 765.669 280.481 765.836C277.571 767.473 272.716 768.928 269.425 769.76C268.673 770.923 268.317 771.322 267.81 772.618C266.641 773.714 266.34 773.714 264.867 774.3C265.149 776.551 266.187 777.202 267.733 778.836C270.203 787.674 260.73 783.179 257.902 789.827C256.749 792.536 256.792 795.142 256.3 798.014C254.461 798.003 253.715 798.367 252.645 797.459C253.977 793.089 255.605 792.827 252.506 788.901L252.342 788.692C250.407 791.922 248.558 789.738 245.375 793.975C240.164 793.359 238.238 793.129 233.324 790.812L232.025 791.306C229.575 793.722 228.184 794.993 226.614 798.194C220.137 798.268 211.106 797.989 204.984 798.376L204.988 798.124C205.018 794.601 206.215 790.203 207.253 786.84C207.947 783.957 208.343 781.076 208.795 778.147C213.176 773.283 212.83 768.608 216.672 765.119C218.132 760.408 219.98 757.707 223.744 754.611C226.82 749.284 231.341 750.527 235.515 747.803C237.364 746.596 240.377 742.78 242.998 740.75C244.875 740.688 245.291 740.681 247.011 739.977Z"/><path fill="#491F47" d="M258.003 766.045L257.675 766.423C255.624 767.166 248.143 759.915 245.044 758.872C240.618 757.384 241.116 759.768 237.108 759.718L236.648 759.09C240.546 747.729 251.72 762.805 257.055 764.913L256.65 765.81L258.003 766.045Z"/><path fill="#FEFEFE" d="M216.672 765.119C217.984 773.852 210.438 775.576 208.331 786.546L207.253 786.84C207.947 783.957 208.343 781.076 208.795 778.147C213.176 773.283 212.83 768.608 216.672 765.119Z"/><path fill="#FEFEFE" d="M277.049 759.901C278.943 761.794 278.982 762.05 279.96 764.509L280.293 765.335C280.356 765.502 280.418 765.669 280.481 765.836C277.571 767.473 272.716 768.928 269.425 769.76C270.714 768.694 271.294 768.099 272.444 766.873C273.137 765.136 272.673 764.356 272.133 762.536C273.693 763.16 274.996 763.636 276.588 764.168C276.417 763.127 275.806 762.992 274.726 762.1L277.049 759.901Z"/><path fill="#2E1821" d="M252.342 788.692C243.677 784.937 233.575 778.713 225.505 775.72L225.467 775.143L226.27 774.704C228.983 775.692 255.057 788.763 255.891 789.8C254.532 789.506 253.86 789.344 252.506 788.901L252.342 788.692Z"/><path fill="#34234D" d="M257.055 764.913L258.517 764.288C260.491 765.569 266.088 770.768 267.81 772.618C266.641 773.714 266.34 773.714 264.867 774.3C262.895 771.093 260.677 771.579 258.965 768.723C259.155 767.827 259.182 767.667 259.282 766.719L258.003 766.045L256.65 765.81L257.055 764.913Z"/><path fill="#593739" d="M272.133 762.536C268.565 761.113 251.627 752.745 250.231 750.257C252.906 750.05 264.156 758.231 267.728 759.723C270.71 760.968 271.48 761.272 274.726 762.1C275.806 762.992 276.417 763.127 276.588 764.168C274.996 763.636 273.693 763.16 272.133 762.536Z"/><path fill="#F6F6F6" d="M204.988 798.124C205.018 794.601 206.215 790.203 207.253 786.84L208.331 786.546C208.886 790.627 210.603 797.034 204.988 798.124Z"/><path fill="#FEFEFE" d="M223.744 754.611C222.618 758.51 221.692 765.111 216.672 765.119C218.132 760.408 219.98 757.707 223.744 754.611Z"/><path fill="#491F47" d="M232.025 791.306C228.725 790.115 221.66 787.313 219.617 784.645L219.791 783.766L220.723 783.394C226.062 787.249 227.179 788.036 233.324 790.812L232.025 791.306Z"/><path fill="#2E1821" d="M233.932 765.995C239.31 765.992 252.317 774.611 258.065 777.614C253.653 777.091 238.434 768.546 233.932 765.995Z"/><path fill="#34234D" d="M264.755 749.886C270.171 746.524 275.194 743.35 281.023 740.655C314.88 725.003 354.802 727.795 385.837 748.615C390.675 751.86 395.067 756.155 399.808 759.388C396.509 762.723 392.763 765.918 389.646 769.23C388.45 770.396 387.077 771.674 385.968 772.892C385.83 773.771 385.986 773.343 385.448 774.156C383.48 773.409 380.969 769.85 378.31 767.961C366.057 759.253 353.418 754.017 338.674 752.11C321.162 749.845 294.284 754.605 280.481 765.836C280.418 765.669 280.356 765.502 280.293 765.335L279.96 764.509C278.982 762.05 278.943 761.794 277.049 759.901L277.055 759.71C273.156 756.299 268.814 753.147 264.755 749.886Z"/><path fill="#00B4F3" d="M277.055 759.71C310.995 735.726 359.993 740.376 389.646 769.23C388.45 770.396 387.077 771.674 385.968 772.892C385.83 773.771 385.986 773.343 385.448 774.156C383.48 773.409 380.969 769.85 378.31 767.961C366.057 759.253 353.418 754.017 338.674 752.11C321.162 749.845 294.284 754.605 280.481 765.836C280.418 765.669 280.356 765.502 280.293 765.335L279.96 764.509C278.982 762.05 278.943 761.794 277.049 759.901L277.055 759.71Z"/><defs><linearGradient id="gradient_0" gradientUnits="userSpaceOnUse" x1="343.85034" y1="784.70526" x2="353.90668" y2="674.97925"><stop offset="0" stop-color="#ADF0FC"/><stop offset="1" stop-color="#F4FDFD"/></linearGradient></defs><path fill="url(#gradient_0)" d="M354.062 681.705C357.33 680.884 363.497 675.729 367.41 675.725C378.151 676.537 383.825 677.371 394.315 680.587C398.734 681.745 403.706 684.79 407.465 687.384C426.31 700.384 440.474 719.927 451.92 739.48C460.637 754.371 468.151 768.499 474.647 784.471C476.17 788.217 479.029 794.264 479.857 798.087L476.479 797.984C458.677 761.612 443.858 724.729 411.723 698.021C397.302 686.034 382.427 681.748 363.723 683.515C337.389 702.032 313.01 704.059 287.708 682.034C262.659 685.847 248.357 689.493 231.349 710.454C227.547 715.141 224.109 720.426 220.411 725.121C218.759 726.915 218.087 728.188 215.591 728.181C213.839 725.933 215.569 724.093 216.126 721.971L216.351 721.086C217.589 719.243 218.786 717.633 220.127 715.917C240.043 690.444 249.441 681.274 282.021 677.095C284.709 676.693 287.724 676.17 290.401 675.906C292.349 677.637 295.294 680.606 297.657 681.337L298.045 681.939C301.894 683.171 305.921 686.065 309.774 687.662C321.24 692.34 334.156 691.916 345.29 686.496C348.087 685.16 351.351 683.28 354.062 681.705Z"/><path fill="#98F0FB" d="M298.045 681.939C301.894 683.171 305.921 686.065 309.774 687.662C321.24 692.34 334.156 691.916 345.29 686.496C348.087 685.16 351.351 683.28 354.062 681.705C353.965 681.985 353.661 682.922 353.494 683.07C339.097 695.898 317.676 695.625 301.506 686.004C299.412 684.758 298.513 683.919 298.045 681.939Z"/><path fill="#FEA69E" d="M399.808 759.388C404.852 755.094 415.185 749.092 421.402 746.905C430.2 756.644 447.352 776.045 446.717 789.149C446.557 792.111 446.271 795.066 445.86 798.003C441.849 797.987 422.147 798.592 419.299 797.602C415.903 796.873 413.545 796.936 411.896 793.68C406.773 797.279 406.198 798.372 400.131 797.956C400.389 796.394 403.065 792.219 404.006 790.682C399.44 788.877 401.471 787.873 395.855 788.505C392.17 785.477 395.746 781.35 397.62 777.75C394.513 778.037 392.533 778.586 389.937 777.108C386.915 775.839 387.038 775.759 385.968 772.892C387.077 771.674 388.45 770.396 389.646 769.23C392.763 765.918 396.509 762.723 399.808 759.388Z"/><path fill="#491F47" d="M389.937 777.108C395.984 773.333 415.823 758.255 422.555 758.623C418.14 761.06 412.366 763.757 408.225 766.05C405.776 767.406 399.748 775.193 397.62 777.75C394.513 778.037 392.533 778.586 389.937 777.108Z"/><path fill="#34234D" d="M411.896 793.68C419.356 787.595 422.506 785.246 431.755 782.183C422.844 787.119 421.521 787.654 419.299 797.602C415.903 796.873 413.545 796.936 411.896 793.68Z"/><path fill="#34234D" d="M406.596 781.043L409.268 781.409C407.686 785.364 406.533 787.161 404.006 790.682C399.44 788.877 401.471 787.873 395.855 788.505C400.071 786.756 403.119 783.944 406.596 781.043Z"/><path fill="#491F47" d="M406.596 781.043C412.172 776.554 416.127 774.308 422.841 771.556L423.331 771.797C418.527 774.796 412.857 777.085 409.268 781.409L406.596 781.043Z"/><path fill="#98F0FB" d="M216.351 721.086L216.126 721.971C215.569 724.093 213.839 725.933 215.591 728.181C218.087 728.188 218.759 726.915 220.411 725.121C216.231 732.337 207.304 743.753 202.055 750.931C194.364 761.486 187.068 772.323 180.183 783.42C179.249 784.919 174.046 792.718 173.725 793.63L173.399 793.239C173.686 791.577 174.155 789.5 174.256 787.882C182.219 769.386 191.371 755.374 203.239 739.196C207.551 733.318 211.719 726.68 216.351 721.086Z"/><path fill="#F6F6F6" d="M247.011 739.977C255.726 733.726 258.634 736.446 260.028 746.332C254.901 742.526 253.336 740.966 247.011 739.977Z"/><path fill="#34234D" d="M278.669 579.954C281.91 564.262 287.657 546.996 301.666 537.654C310.244 531.934 325.987 528.167 336.059 529.574C336.865 530.543 336.831 530.562 337.331 531.736C340.117 532.454 343.435 532.603 346.386 533.229C370.322 538.31 374.794 559.689 379.969 580.481C380.309 581.669 381.241 583.881 381.44 584.791C385.609 603.887 382.973 627.566 387.723 646.517C388.454 651.687 389.124 656.234 390.165 661.368C391.502 667.784 392.886 674.19 394.315 680.587C383.825 677.371 378.151 676.537 367.41 675.725C363.497 675.729 357.33 680.884 354.062 681.705C351.351 683.28 348.087 685.16 345.29 686.496C334.156 691.916 321.24 692.34 309.774 687.662C305.921 686.065 301.894 683.171 298.045 681.939L297.657 681.337C295.294 680.606 292.349 677.637 290.401 675.906C287.724 676.17 284.709 676.693 282.021 677.095L280.793 675.503C274.984 675.319 266.302 675.811 260.11 675.867C262.236 670.749 263.251 666.758 264.326 661.368C265.462 657.342 266.521 650.939 267.36 646.68C271.805 624.717 274.14 602.07 278.669 579.954Z"/><path fill="#FEA69E" d="M335.342 550.89C343.073 567.902 352.773 585.751 363.917 600.797C364.932 603.182 371.56 606.227 372.45 607.92C379.453 619.365 364.258 625.014 364.398 624.539C361.386 634.793 354.955 642.865 343.484 651.003C343.54 653.733 343.512 657.355 343.809 659.978C344.956 667.35 344.258 671.85 351.842 674.401L356.221 679.051C355.52 679.8 354.329 680.849 354.062 681.705C351.351 683.28 348.087 685.16 345.29 686.496C334.156 691.916 321.24 692.34 309.774 687.662C305.921 686.065 301.894 683.171 298.045 681.939L297.657 681.337C298.321 679.359 302.469 677.282 304.847 674.933C306.699 667.78 307.388 655.003 308.032 647.164C298.218 639.419 296.341 634.276 291.647 623.021C291.775 623.33 284.981 621.34 283.258 619.551C279.185 615.319 278.88 598.55 286.719 599.11C287.973 599.976 289.049 601.006 290.48 600.989L291.195 599.964C290.991 597.493 290.281 596.576 290.231 593.487C293.678 590.771 299.325 588.189 303.178 585.421C317.667 575.015 326.226 565.773 335.342 550.89Z"/><path fill="#FE5168" d="M310.931 651.497C324.8 657.711 329.649 657.666 343.484 651.003C343.54 653.733 343.512 657.355 343.809 659.978C329.277 661.118 322.305 662.338 310.931 651.497Z"/><path fill="#FEFEFE" d="M339.427 632.034L339.757 632.445C339.094 635.005 334.575 637.438 332.034 637.786C327.151 638.456 323.432 637.928 319.364 635.135C319.014 633.807 319.039 634.317 319.365 632.959C323.38 631.972 325.945 640.482 339.427 632.034Z"/><path fill="#34234D" d="M344.114 600.858C346.137 600.513 348.072 601.825 348.5 603.832C348.928 605.84 347.697 607.827 345.709 608.338C344.348 608.687 342.905 608.263 341.95 607.232C340.995 606.202 340.681 604.731 341.133 603.4C341.585 602.07 342.729 601.094 344.114 600.858Z"/><path fill="#34234D" d="M312.238 601.444C314.049 600.529 316.26 601.233 317.208 603.027C318.157 604.821 317.493 607.044 315.717 608.026C314.538 608.677 313.1 608.641 311.955 607.932C310.811 607.222 310.138 605.95 310.197 604.605C310.256 603.26 311.036 602.051 312.238 601.444Z"/><path fill="#FE5168" d="M328.32 606.174L329.18 606.622C329.897 608.001 329.55 610.816 329.487 612.506C331.433 615.766 334.674 617.981 332.746 621.32C328.307 619.017 324.264 610.629 328.32 606.174Z"/><path fill="#491F47" d="M308.727 588.565C311.343 588.283 315.652 587.922 317.661 589.923C316.178 590.665 311.397 590.557 309.284 590.679C307.618 591.368 304.04 593.304 302.547 592.21C303.897 590.129 306.493 589.295 308.727 588.565Z"/><path fill="#491F47" d="M338.348 589.195C342.955 588.994 349.885 588.58 352.319 593.221C345.583 590.949 342.49 591.7 338.671 590.557L338.348 589.195Z"/><path fill="#5BE1FA" d="M280.793 675.503C288.806 675.138 296.826 674.948 304.847 674.933C302.469 677.282 298.321 679.359 297.657 681.337C295.294 680.606 292.349 677.637 290.401 675.906C287.724 676.17 284.709 676.693 282.021 677.095L280.793 675.503Z"/><path fill="#5BE1FA" d="M351.842 674.401C357.339 674.721 361.931 675.09 367.41 675.725C363.497 675.729 357.33 680.884 354.062 681.705C354.329 680.849 355.52 679.8 356.221 679.051L351.842 674.401Z"/><path fill="#00B4F3" d="M390.165 661.368C455.667 661.414 445.008 659.077 462.17 717.648L565.051 717.598C566.837 704.31 570.961 687.824 576.118 675.505C582.456 660.365 601.618 661.873 614.598 661.878L649.368 661.923L649.293 666.733C599.774 676.604 585.461 700.994 563.369 742.715C559.97 749.134 556.752 756.582 553.222 762.809C546.94 774.783 540.366 786.601 533.506 798.253C515.623 798.104 497.74 798.049 479.857 798.087C479.029 794.264 476.17 788.217 474.647 784.471C468.151 768.499 460.637 754.371 451.92 739.48C440.474 719.927 426.31 700.384 407.465 687.384C403.706 684.79 398.734 681.745 394.315 680.587C392.886 674.19 391.502 667.784 390.165 661.368Z"/><path fill="#FEA69E" d="M671.684 585.892C671.571 576.548 671.096 555.812 672.475 546.909L673.198 546.381C673.113 546.372 675.702 546.65 675.188 546.756C679.627 545.837 681.986 542.8 687.428 542.428C698.917 541.641 708.711 548.403 719.472 551.423C722.381 552.239 731.723 552.993 733.38 554.312C732.632 555.551 732.37 555.807 732.038 557.228C732.584 560.408 733.547 560.359 734.507 563.13C734.602 563.94 734.724 564.002 734.519 564.708C736.49 570.437 734.461 577.744 736.573 580.602C737.783 580.444 737.364 580.57 738.423 579.987C738.771 579.223 740.49 577.59 741.179 576.878C742.665 578.475 742.86 578.811 744.719 579.846C749.605 588.088 745.207 598.692 735.759 600.357C735.189 614.159 734.686 622.771 725.085 633.642L724.311 634.569C709.392 648.892 700.775 648.649 683.61 638.516C683.168 637.846 679.57 634.384 678.773 633.593C677.735 631.872 675.193 628.656 673.834 626.555C668.403 618.164 669.034 610.536 668.802 600.925C658.541 598.424 656.957 589.269 658.639 580.099C659.068 579.16 663.649 575.055 664.848 573.875C666.246 577.839 668.697 582.916 671.684 585.892Z"/><path fill="#34234D" d="M668.802 600.925C668.664 596.376 668.347 591.693 668.097 587.139C673.141 596.006 673.887 600.454 681.796 608.037C699.547 600.414 705.885 601.436 723.322 607.903C728.957 603.015 732.638 596.081 735.89 589.485L736.62 589.604C736.298 593.128 735.899 596.838 735.759 600.357C735.189 614.159 734.686 622.771 725.085 633.642L724.311 634.569C709.392 648.892 700.775 648.649 683.61 638.516C683.168 637.846 679.57 634.384 678.773 633.593C677.735 631.872 675.193 628.656 673.834 626.555C668.403 618.164 669.034 610.536 668.802 600.925Z"/><path fill="#FEA69E" d="M709.889 611.703C711.203 611.51 712.03 611.211 713.165 611.832L713.144 612.92C709.468 619.151 701.818 620.548 695.414 617.895C692.27 615.763 691.174 614.717 688.782 611.973C696.533 612.291 702.118 612.623 709.889 611.703Z"/><path fill="#491F47" d="M734.519 564.708C726.898 562.637 712.058 561.181 705.969 557.316C715.633 558.197 725.191 560.497 734.507 563.13C734.602 563.94 734.724 564.002 734.519 564.708Z"/><path fill="#FE5168" d="M739.199 581.232C739.435 583.226 737.483 587.742 736.62 589.604L735.89 589.485C736.771 586.881 737.719 583.439 739.199 581.232Z"/><path fill="#FE5168" d="M700.688 586.245L701.58 586.945C703.527 591.05 705.376 597.072 702.031 600.848C699.865 600.893 700.376 601.206 698.901 600.178C697.314 596.136 699.442 590.388 700.688 586.245Z"/><path fill="#34234D" d="M685.635 579.366C687.612 578.668 689.782 579.684 690.514 581.648C691.246 583.612 690.269 585.8 688.319 586.567C687.026 587.075 685.559 586.845 684.483 585.967C683.407 585.088 682.889 583.698 683.128 582.329C683.366 580.961 684.325 579.828 685.635 579.366Z"/><path fill="#34234D" d="M717.928 579.354C719.968 579.066 721.867 580.451 722.215 582.481C722.563 584.511 721.234 586.45 719.215 586.857C717.856 587.132 716.454 586.646 715.557 585.587C714.66 584.529 714.409 583.067 714.902 581.77C715.396 580.474 716.555 579.548 717.928 579.354Z"/><path fill="#491F47" d="M688.771 570.68C689.134 570.702 690.278 571.093 690.682 571.216C691.728 572.61 691.544 571.873 691.496 573.423C689.107 575.481 685.338 573.491 680.195 575.327L679.659 575.525C678.234 576.255 678.116 576.437 676.491 576.561L676.307 575.79C679.398 572.201 684.324 571.117 688.771 570.68Z"/><path fill="#491F47" d="M711.364 571.562C715.688 571.386 726.816 570.938 726.822 577.031C719.939 573.914 719.852 574.895 712.482 574.56C711.201 573.447 711.611 573.808 711.364 571.562Z"/><path fill="#00B4F3" d="M181.385 754.86C182.434 744.392 185.871 729.4 187.6 718.632C188.812 711.082 191.813 693.032 194.084 686.85C196.007 681.523 199.064 676.678 203.044 672.649C214.981 660.701 226.738 661.273 242.011 661.299L264.326 661.368C263.251 666.758 262.236 670.749 260.11 675.867C266.302 675.811 274.984 675.319 280.793 675.503L282.021 677.095C249.441 681.274 240.043 690.444 220.127 715.917C218.786 717.633 217.589 719.243 216.351 721.086C211.719 726.68 207.551 733.318 203.239 739.196C191.371 755.374 182.219 769.386 174.256 787.882C172.303 791.746 171.134 794.082 170.84 798.546C162.642 798.525 154.445 798.558 146.248 798.644C149.409 786.012 152.445 773.11 155.297 760.391C155.644 758.844 156.676 757.112 157.809 755.965C163.282 753.933 175.027 754.756 181.385 754.86Z"/><path fill="#00B4F3" d="M744.719 579.846C776.697 580.18 783.499 575.987 781.552 614.908C781.144 623.076 783.589 635.903 776.915 641.856C775.831 642.834 774.659 643.709 773.412 644.468C768.937 644.764 765.483 644.718 760.979 644.618L760.965 661.846L760.938 668.7L755.169 667.33C748.276 665.826 739.307 664.496 732.332 663.713C731.447 663.415 730.663 663.001 729.817 662.6C728.165 660.765 727.116 647.78 726.748 644.588C726.048 641.456 725.543 636.926 725.085 633.642C734.686 622.771 735.189 614.159 735.759 600.357C745.207 598.692 749.605 588.088 744.719 579.846Z"/><path fill="#FEFEFE" d="M726.748 644.588L755.55 644.575L760.979 644.618L760.965 661.846L760.938 668.7L755.169 667.33C748.276 665.826 739.307 664.496 732.332 663.713C731.447 663.415 730.663 663.001 729.817 662.6C728.165 660.765 727.116 647.78 726.748 644.588Z"/><path fill="#34234D" d="M755.55 644.575L760.979 644.618L760.965 661.846L760.938 668.7L755.169 667.33C755.842 665.763 755.627 663.752 755.598 661.982L755.55 644.575Z"/><path fill="#00B4F3" d="M729.817 662.6C733.59 661.503 751.038 661.938 755.598 661.982C755.627 663.752 755.842 665.763 755.169 667.33C748.276 665.826 739.307 664.496 732.332 663.713C731.447 663.415 730.663 663.001 729.817 662.6Z"/><path fill="#34234D" d="M664.848 573.875C661.022 562.42 655.145 550.491 660.79 538.528C663.057 533.725 666.892 532.893 667.655 531.471C678.684 510.918 695.206 523.037 712.819 523.02C717.194 523.016 729.022 518.801 733.456 520.28C735.468 523.341 733.18 528.099 732.083 531.446C747.555 530.744 746.664 531.242 750.552 546.417C748.839 548.576 748.203 549.138 746.087 550.932C745.751 559.248 744.635 569.205 741.179 576.878C740.49 577.59 738.771 579.223 738.423 579.987C737.364 580.57 737.783 580.444 736.573 580.602C734.461 577.744 736.49 570.437 734.519 564.708C734.724 564.002 734.602 563.94 734.507 563.13C733.547 560.359 732.584 560.408 732.038 557.228C732.37 555.807 732.632 555.551 733.38 554.312C731.723 552.993 722.381 552.239 719.472 551.423C708.711 548.403 698.917 541.641 687.428 542.428C681.986 542.8 679.627 545.837 675.188 546.756C675.702 546.65 673.113 546.372 673.198 546.381L672.475 546.909C671.096 555.812 671.571 576.548 671.684 585.892C668.697 582.916 666.246 577.839 664.848 573.875Z"/><path fill="#00B4F3" d="M649.477 644.989C639.535 646.628 626.966 647.096 627.221 633.648C627.493 619.3 626.604 604.635 627.849 590.339C627.981 588.82 630.075 585.786 631.174 584.722C637.477 578.549 650.441 580.036 658.639 580.099C656.957 589.269 658.541 598.424 668.802 600.925C669.034 610.536 668.403 618.164 673.834 626.555C675.193 628.656 677.735 631.872 678.773 633.593C678.32 637.621 677.863 641.039 677.168 645.028C670.085 645.019 661.561 645.223 654.592 644.874C653.022 644.784 651.077 644.926 649.477 644.989Z"/><path fill="#00B4F3" d="M760.965 661.846L789.455 661.857C795.587 661.835 808.642 661.131 814.214 662.891C833.72 669.052 833.743 695.739 836.535 711.77C838.899 725.344 841.384 738.583 842.584 751.436C839.086 747.283 835.543 739.226 832.413 734.427C812.279 703.56 800.153 676.566 760.938 668.7L760.965 661.846Z"/><path fill="#00B4F3" d="M267.36 646.68C256.578 646.904 240.606 650.44 241.17 633.732C241.787 619.022 242.521 603.148 245.025 588.68C247.1 576.694 270.004 579.827 278.669 579.954C274.14 602.07 271.805 624.717 267.36 646.68Z"/><path fill="#00B4F3" d="M379.969 580.481C397.017 579.635 410.193 578.372 410.02 600.364C409.936 611.094 410.346 622.297 410.101 633.096C409.718 649.944 400.119 646.253 387.723 646.517C382.973 627.566 385.609 603.887 381.44 584.791C381.241 583.881 380.309 581.669 379.969 580.481Z"/><path fill="#00B4F3" d="M845.274 756.132C853.032 758.514 863.668 754.722 868.053 764.632C872.375 774.397 873.997 787.697 876.349 798.228C872.085 797.9 864.937 798.231 860.459 798.328C856.757 789.153 849.906 773.292 845.539 764.618C846.983 763.889 847.184 763.937 848.078 762.562C848.226 761.03 848.057 760.88 847.306 759.603L845.274 756.132Z"/><path fill="#4C3763" d="M808.869 878.007L809.231 878.542C803.891 891.437 784.755 915.601 775.004 925.95L774.724 925.553C777.216 911.894 798.104 887.14 808.869 878.007Z"/><path fill="#34234D" d="M213.623 880.822C216.203 881.766 221.44 885.497 223.698 887.263C236.229 897.065 243.998 908.512 245.951 924.557C234.212 906.088 227.895 897.239 213.623 880.822Z"/><path fill="#FEFEFE" d="M62.1119 720.753C71.0621 720.7 86.2993 717.67 90.4958 727.352C96.294 740.731 99.1085 755.957 104.593 769.457L104.85 770.083C103.095 778.237 100.798 787.233 98.7958 795.347L68.75 795.343C56.9657 795.306 41.6408 798.223 32.8734 789.024C24.658 780.403 26.4414 770.437 26.4521 759.431C26.4397 748.645 26.4861 737.859 26.5914 727.073C28.2652 723.99 29.1222 723.132 31.9465 721.073C40.4204 720.413 53.316 720.774 62.1119 720.753Z"/><path fill="#FEFEFE" d="M943.47 721.097C943.939 721.052 944.409 721.013 944.88 720.981C948.391 720.73 952.546 720.741 956.187 720.837C967.67 721.177 979.726 720.139 991.119 721.429C995.477 721.923 997.229 727.107 997.081 730.749C996.825 737.074 997.281 744.272 996.881 750.514C996.33 759.085 998.298 771.778 996.579 779.886C995.807 783.675 993.993 787.174 991.342 789.989C986.341 795.269 980.889 796.101 974.125 796.144L925.803 796.267C923.826 789.267 921.346 778.36 920.048 771.34C924.528 759.18 928.431 747.083 932.592 734.829C934.711 728.589 937.343 723.963 943.47 721.097Z"/></svg>