<?xml version="1.0" encoding="utf-8" ?><svg xmlns="http://www.w3.org/2000/svg" xmlns:xlink="http://www.w3.org/1999/xlink" width="1024" height="1024" viewBox="0 0 1024 1024"><path fill="#FEFEFE" d="M0 0L1024 0L1024 1024L0 1024L0 0Z"/><path fill="#E5E5E6" d="M116.53 884.638C115.503 881.06 112.686 876.935 110.876 873.601C79.6437 816.084 60.3235 756.527 52.6773 691.36C43.6436 610.808 61.4194 529.525 103.252 460.098C110.646 447.779 118.225 436.069 127.172 424.77C180.104 356.685 255.506 309.624 339.923 291.984C359.353 287.735 379.251 285.451 398.977 283.16C399.313 289.574 400.335 295.331 401.942 301.451C403.691 308.107 418.39 339.552 422.201 343.807C417.24 346.704 414.162 349.153 412.616 355.247C411.358 360.389 412.253 365.82 415.092 370.287C419.922 377.793 425.926 378.627 433.934 377.36C435.2 399.395 439.782 415.643 452.966 434.231C455.539 437.86 461.734 443.2 463.362 445.555L453.256 482.16C452.723 484.025 450.808 491.399 450.08 492.725L450.268 493.674C447.905 498.997 446.665 512.953 440.981 516.423C440.859 516.586 440.737 516.749 440.615 516.912C443.145 527.568 446.53 538.002 450.737 548.114C463.025 549.226 471.955 547.001 483.844 546.391C485.461 538.517 491.656 508.256 495.058 503.414C499.508 499.687 503.051 500.634 506.168 505.416L506.699 505.103C510.057 503.093 511.708 500.822 515.964 501.954C518.374 502.595 521.13 504.217 522.383 506.453C524.69 510.568 529.802 547.008 530.985 554.395C531.824 559.221 535.186 580.05 536.507 583.522C536.819 585.621 536.583 585.759 535.575 587.927L537.152 593.404L540.193 606.594C543.652 620.861 546.485 635.302 550.074 649.521C564.962 658.442 583.486 665.843 598.231 674.526L596.58 677.822C584.755 695.238 574.783 711.106 559.502 726.266C548.731 717.219 537.181 709.196 526.009 700.653C523.674 698.867 521.381 697.015 518.894 695.445C513.876 692.346 510.344 689.437 505.827 685.627C501.091 689.301 496.689 692.78 491.693 696.11C488.989 697.388 477.037 706.415 473.874 708.816C467.603 713.577 454.412 721.413 449.305 726.419C450.426 727.794 451.34 728.816 452.222 730.374C422.288 763.873 368.403 823.431 326.622 838.6C327.22 841.636 327.033 850.464 327.035 853.909C326.99 864.19 327.01 874.471 327.094 884.752C307.462 884.142 285.199 884.825 265.259 884.759L116.53 884.638Z"/><path fill="#FE5168" d="M252.304 829.332C233.826 814.63 222.569 792.909 221.654 769.318C221.048 753.674 225.239 743.831 229.929 729.461C234.11 716.497 238.417 703.573 242.848 690.691C259.132 643.259 272.445 596.464 307.17 558.534C336.842 526.123 376.418 513.594 417.251 501.507C425.094 499.185 442.876 493.043 450.08 492.725L450.268 493.674C447.905 498.997 446.665 512.953 440.981 516.423C440.859 516.586 440.737 516.749 440.615 516.912C443.145 527.568 446.53 538.002 450.737 548.114C463.025 549.226 471.955 547.001 483.844 546.391C485.461 538.517 491.656 508.256 495.058 503.414C499.508 499.687 503.051 500.634 506.168 505.416L506.699 505.103C510.057 503.093 511.708 500.822 515.964 501.954C518.374 502.595 521.13 504.217 522.383 506.453C524.69 510.568 529.802 547.008 530.985 554.395C531.824 559.221 535.186 580.05 536.507 583.522C536.819 585.621 536.583 585.759 535.575 587.927L537.152 593.404L540.193 606.594C543.652 620.861 546.485 635.302 550.074 649.521C564.962 658.442 583.486 665.843 598.231 674.526L596.58 677.822C584.755 695.238 574.783 711.106 559.502 726.266C548.731 717.219 537.181 709.196 526.009 700.653C523.674 698.867 521.381 697.015 518.894 695.445C513.876 692.346 510.344 689.437 505.827 685.627C501.091 689.301 496.689 692.78 491.693 696.11C488.989 697.388 477.037 706.415 473.874 708.816C467.603 713.577 454.412 721.413 449.305 726.419C450.426 727.794 451.34 728.816 452.222 730.374C422.288 763.873 368.403 823.431 326.622 838.6C317.728 841.947 310.431 843.593 300.998 844.369C285.463 845.648 264.071 839.803 252.304 829.332Z"/><path fill="#EF7B7A" d="M495.058 503.414C499.508 499.687 503.051 500.634 506.168 505.416L506.699 505.103C510.057 503.093 511.708 500.822 515.964 501.954C518.374 502.595 521.13 504.217 522.383 506.453C524.69 510.568 529.802 547.008 530.985 554.395C531.824 559.221 535.186 580.05 536.507 583.522C536.819 585.621 536.583 585.759 535.575 587.927L537.152 593.404L540.193 606.594C543.652 620.861 546.485 635.302 550.074 649.521C564.962 658.442 583.486 665.843 598.231 674.526L596.58 677.822C584.755 695.238 574.783 711.106 559.502 726.266C548.731 717.219 537.181 709.196 526.009 700.653C523.674 698.867 521.381 697.015 518.894 695.445C513.876 692.346 510.344 689.437 505.827 685.627C501.091 689.301 496.689 692.78 491.693 696.11C488.989 697.388 477.037 706.415 473.874 708.816C467.603 713.577 454.412 721.413 449.305 726.419C436.455 712.226 423.783 693.266 413.7 677.118C429.83 668.341 444.651 659.772 461.15 651.138C462.994 642.547 464.909 633.972 466.894 625.413C467.891 621.131 469.64 614.51 470.176 610.409C472.079 602.868 474.102 594.577 475.711 586.981L474.35 586.498C475.558 582.531 476.832 576.057 477.824 571.77L483.844 546.391C485.461 538.517 491.656 508.256 495.058 503.414Z"/><path fill="#34234D" d="M495.058 503.414C499.508 499.687 503.051 500.634 506.168 505.416L506.699 505.103C510.057 503.093 511.708 500.822 515.964 501.954C518.374 502.595 521.13 504.217 522.383 506.453C524.69 510.568 529.802 547.008 530.985 554.395C531.824 559.221 535.186 580.05 536.507 583.522C536.819 585.621 536.583 585.759 535.575 587.927C532.141 572.295 529.027 556.594 526.236 540.835C524.361 530.146 523.015 517.816 520.257 507.507C519.464 504.543 509.289 500.553 507.228 509.871C507.69 512.636 507.502 524.312 507.497 527.576L507.471 565.05L507.566 641.757C507.585 649.524 508.598 676.167 506.854 681.869L506.261 682.119C504.464 677.814 505.354 626.294 505.35 618.27L504.882 508.086C502.256 503.846 500.678 502.296 495.929 505.031L495.058 503.414Z"/><path fill="#0C0118" d="M483.844 546.391C485.461 538.517 491.656 508.256 495.058 503.414L495.929 505.031C494.425 507.249 493.772 509.177 493.161 511.745C487.226 536.708 482.136 562.138 475.711 586.981L474.35 586.498C475.558 582.531 476.832 576.057 477.824 571.77L483.844 546.391Z"/><path fill="#34234D" d="M349.379 626.241C349.628 620.765 350.828 597.729 352.284 593.864L353.115 593.618C354.938 595.728 353.707 603.609 353.474 606.825L349.875 653.434C349.152 662.803 348.498 674.475 347.335 683.627C347.366 684.601 347.017 687.568 346.917 688.656L411.28 673.546L413.7 677.118C423.783 693.266 436.455 712.226 449.305 726.419C450.426 727.794 451.34 728.816 452.222 730.374C422.288 763.873 368.403 823.431 326.622 838.6C317.728 841.947 310.431 843.593 300.998 844.369C285.463 845.648 264.071 839.803 252.304 829.332C252.788 829.036 254.495 828.051 254.933 828.304C258.113 830.14 261.99 832.507 265.179 834.152C276.154 839.859 288.478 842.463 300.823 841.684C352.274 838.522 416.339 767.003 448.773 730.227C437.951 717.255 427.747 704.414 418.667 690.138C416.246 686.331 412.597 680.258 409.733 677.005C397.36 679.207 381.07 683.386 368.535 686.378L291.119 705.328C286.405 706.489 260.048 713.835 257.385 712.734C259.221 709.339 267.416 708.295 271.01 707.392C277.661 705.665 284.327 703.993 291.006 702.378L344.379 689.248C344.446 686.322 344.498 684.701 344.951 681.743C345.72 665.854 347.101 647.435 348.61 631.532C346.362 627.634 332.355 605.218 332.233 602.606L332.908 602.056C334.502 602.502 334.738 602.421 335.732 604.169C339.95 611.581 344.444 619.298 349.379 626.241Z"/><path fill="#FEFEFE" d="M450.737 548.114C463.025 549.226 471.955 547.001 483.844 546.391L477.824 571.77C476.832 576.057 475.558 582.531 474.35 586.498C466.701 579.551 455.219 557.808 450.737 548.114Z"/><path fill="#34234D" d="M473.409 590.897C456.031 566.257 442.724 542.888 436.903 512.905C436.171 509.131 434.216 504.049 435.183 500.197L435.823 499.976C437.929 501.744 439.851 513.395 440.615 516.912C443.145 527.568 446.53 538.002 450.737 548.114C455.219 557.808 466.701 579.551 474.35 586.498L475.711 586.981C474.102 594.577 472.079 602.868 470.176 610.409C450.583 591.415 436.503 561.702 428.812 535.831C427.822 532.502 423.439 519.148 425.645 516.964C428.131 518.614 429.095 525.408 429.857 528.452C437.019 557.078 449.994 584.082 470.258 605.877C471.252 600.872 472.303 595.878 473.409 590.897Z"/><path fill="#FEFEFE" d="M298.534 417.668C322.646 415.801 338.69 429.176 345.48 451.744C354.786 449.027 363.503 449.222 372.181 453.714C384.911 460.302 389.696 470.644 393.902 483.542L301.764 483.473C270.244 483.322 238.724 483.461 207.207 483.89C212.299 456.448 234.652 445.612 260.416 454.141C264.665 433.904 278.146 420.873 298.534 417.668Z"/><path fill="#FEFEFE" d="M143.577 568.156C168.257 565.796 190.215 583.801 192.734 608.466C195.254 633.131 177.391 655.205 152.743 657.884C127.868 660.588 105.547 642.525 103.004 617.633C100.461 592.741 118.669 570.537 143.577 568.156Z"/><path fill="#E5E5E6" d="M603.758 267.002C611.792 267.001 623.161 268.442 631.332 269.471C659.579 273.03 687.453 278.068 714.98 285.357C719.71 286.61 733.052 289.584 736.631 292.125C768.106 281.577 798.807 281.136 829.11 296.343C855.72 309.658 875.926 333.03 885.256 361.285C890.665 377.79 892.273 398.398 888.342 415.433C942.259 475.023 978.745 549.543 972.791 631.118C969.823 671.774 958.302 711.005 940.705 747.765C938.112 753.201 933.936 762.069 930.7 766.652C932.105 767.334 932.061 767.026 933.309 767.415C936.201 767.707 938.636 768.021 941.333 769.249C957.705 775.41 948.056 796.936 939.232 805.311C937.757 806.711 934.606 810.626 932.936 811.563C926.726 818.703 916.189 825.791 908.336 831.399C914.468 830.325 920.906 829.42 927.137 830.271C936.475 831.663 951.82 837.797 948.226 849.9C945.417 858.019 935.867 867.5 929.05 872.385C925.679 876.234 916.642 881.75 912.114 884.418L912.765 884.462C917.165 884.733 929.777 884.349 932.746 885.013L933.42 885.799C933.163 886.743 933.403 886.738 932.646 887.102C929.371 888.679 800.088 888.435 787.375 887.919C789.607 887.418 793.115 887.548 794.879 886.899C792.636 886.395 790.398 885.873 788.164 885.333C785.662 884.706 762.568 885.032 758.52 885.029L684.48 884.799C684.212 880.414 684.446 873.248 684.449 868.679L684.411 838.36C634.113 817.422 592.117 769.767 556.603 729.762C557.54 728.518 558.491 727.446 559.502 726.266C574.783 711.106 584.755 695.238 596.58 677.822L598.231 674.526C583.486 665.843 564.962 658.442 550.074 649.521C546.485 635.302 543.652 620.861 540.193 606.594L537.152 593.404L535.575 587.927C536.583 585.759 536.819 585.621 536.507 583.522C535.186 580.05 531.824 559.221 530.985 554.395C542.043 551.491 550.119 546.795 559.298 540.048C565.402 524.562 569.3 507.64 571.686 491.21C559.742 488.446 555.412 482.945 553.406 471.283C552.012 463.181 551.551 455.272 550.434 447.188C570.444 425.227 577.142 408.496 578.664 378.632C582.499 379.466 585.067 379.979 589.035 378.969C593.728 377.81 597.75 374.796 600.181 370.617C604.327 363.477 602.61 355.184 596.827 349.446C594.998 347.632 591.476 345.927 589.142 344.731C597.468 331.276 612.624 303.786 613.487 287.919C613.925 279.857 609.191 272.655 603.758 267.002Z"/><path fill="#00B4F3" d="M571.686 491.21L573.867 492.138C591.136 498.319 608.34 504.675 625.479 511.207C635.56 515.044 647.956 519.365 657.4 524.26C697.165 544.867 725.683 575.641 744.16 616.297C752.769 635.237 758.068 651.697 764.369 671.459C769.953 688.58 775.237 705.797 780.217 723.103C783.293 733.9 788.668 751.098 789.751 761.552C790.796 771.915 789.463 782.38 785.853 792.15C781.202 804.882 771.317 819.687 760.593 828.143C745.563 840.47 727.37 845.704 708.034 843.846C702.124 843.278 689.906 840.786 684.411 838.36C634.113 817.422 592.117 769.767 556.603 729.762C557.54 728.518 558.491 727.446 559.502 726.266C574.783 711.106 584.755 695.238 596.58 677.822L598.231 674.526C583.486 665.843 564.962 658.442 550.074 649.521C546.485 635.302 543.652 620.861 540.193 606.594L537.152 593.404L535.575 587.927C536.583 585.759 536.819 585.621 536.507 583.522C535.186 580.05 531.824 559.221 530.985 554.395C542.043 551.491 550.119 546.795 559.298 540.048C565.402 524.562 569.3 507.64 571.686 491.21Z"/><path fill="#23165A" d="M571.686 491.21L573.867 492.138C568.554 530.731 557.884 555.659 536.602 588.076L537.918 593.056C538.858 596.491 539.527 599.537 540.257 603.028C540.402 602.873 540.548 602.718 540.694 602.563C554.018 586.351 564.871 568.5 572.517 548.947C577.529 536.129 580.551 523.977 583.079 510.488C583.33 509.15 583.751 508.7 584.753 507.926L585.415 508.064C585.974 510.162 584.811 515.793 584.332 518.285C580.385 538.477 573.13 557.878 562.859 575.705C557.819 584.37 547.327 599.844 540.193 606.594L537.152 593.404L535.575 587.927C536.583 585.759 536.819 585.621 536.507 583.522C535.186 580.05 531.824 559.221 530.985 554.395C542.043 551.491 550.119 546.795 559.298 540.048C565.402 524.562 569.3 507.64 571.686 491.21Z"/><path fill="#FEFEFE" d="M559.298 540.048C553.29 555.856 545.678 569.362 536.507 583.522C535.186 580.05 531.824 559.221 530.985 554.395C542.043 551.491 550.119 546.795 559.298 540.048Z"/><path fill="#23165A" d="M596.58 677.822C598.036 677.02 598.878 676.729 600.406 676.16C588.587 696.435 575.92 712.393 560.29 729.795C584.904 759.63 612.061 786.585 641.914 810.33C676.46 837.808 719.319 855.629 758.822 827C759.514 826.498 760.236 827.725 760.593 828.143C745.563 840.47 727.37 845.704 708.034 843.846C702.124 843.278 689.906 840.786 684.411 838.36C634.113 817.422 592.117 769.767 556.603 729.762C557.54 728.518 558.491 727.446 559.502 726.266C574.783 711.106 584.755 695.238 596.58 677.822Z"/><path fill="#23165A" d="M666.704 689.391C663.384 667.922 660.82 644.693 658.138 623.05L655.783 604.073C655.445 601.431 654.181 595.192 655.09 592.952L655.843 592.305C656.963 593.027 656.943 593.222 657.22 595.063C658.776 605.417 660.022 616.212 661.27 626.595L670.987 610.332C672.98 606.956 673.51 603.749 677.303 602.179L677.997 602.351C678.005 604.591 664.198 626.849 661.825 630.409C664.095 649.499 667.457 671.425 669.179 690.087C686.544 694.433 703.872 698.932 721.158 703.583C727.219 705.159 749.061 709.786 752.886 712.762L752.867 713.365C748.031 713.95 718.13 705.474 711.324 703.665L617.086 679.373C612.568 678.231 606.494 676.63 601.85 675.229C601.585 675.149 600.673 675.896 600.406 676.16C598.878 676.729 598.036 677.02 596.58 677.822L598.231 674.526C599.484 672.764 599.172 672.546 600.775 672.091C622.718 678.211 644.662 683.635 666.704 689.391Z"/><path fill="#4E3649" d="M736.631 292.125C768.106 281.577 798.807 281.136 829.11 296.343C855.72 309.658 875.926 333.03 885.256 361.285C890.665 377.79 892.273 398.398 888.342 415.433C884.081 436.214 875.222 454.053 860.631 469.586C840.264 491.287 812.103 503.996 782.356 504.912C747.748 505.991 721.162 492.616 696.648 469.492C686.965 469.474 675.584 471.259 666.244 471.526C658.412 471.75 626.529 475.95 621.554 472.744C620.63 471.223 620.813 472.007 620.821 470.355C623.677 466.259 637.752 455.999 642.592 452.211L673.05 428.211C654.895 371.334 681.411 314.76 736.631 292.125Z"/><path fill="#FEFEFE" d="M776.566 287.233C794.254 287.515 806.766 289.753 823.298 296.879C849.344 308.269 869.78 329.567 880.085 356.061C890.416 382.267 889.834 411.518 878.467 437.292C866.702 463.555 845.061 484.123 818.235 494.539C790.772 505.201 760.16 504.275 733.392 491.972C720.427 486.061 707.306 477.161 698.026 466.316L653.325 469.613C644.503 470.31 631.4 471.73 622.876 471.228C624.826 469.254 626.732 467.94 628.919 466.25C644.748 454.023 661.06 442.033 676.257 429.033C672.768 417.011 670.637 408.825 670.097 396.136C669.168 368.75 679.14 342.113 697.826 322.07C718.673 299.616 746.229 288.296 776.566 287.233Z"/><path fill="#4E3649" d="M764.288 372.142C770.794 371.886 772.95 373.724 777.245 378.053C791.257 362.428 815.784 379.242 788.23 407.566C784.283 411.415 781.825 413.513 777.06 416.255C767.528 410.41 756.659 400.29 753.828 389.081C751.782 380.981 755.918 373.701 764.288 372.142Z"/><path fill="#00B4F3" d="M854.647 759.302C861.203 742.103 891.626 660.876 918.986 679.666C925.82 682.948 931.073 688.806 933.594 695.956C941.72 718.385 920.676 752.429 910.476 772.124C919.297 768.598 923.735 767.145 933.309 767.415C936.201 767.707 938.636 768.021 941.333 769.249C957.705 775.41 948.056 796.936 939.232 805.311C937.757 806.711 934.606 810.626 932.936 811.563C926.726 818.703 916.189 825.791 908.336 831.399C914.468 830.325 920.906 829.42 927.137 830.271C936.475 831.663 951.82 837.797 948.226 849.9C945.417 858.019 935.867 867.5 929.05 872.385C925.679 876.234 916.642 881.75 912.114 884.418L912.765 884.462C917.165 884.733 929.777 884.349 932.746 885.013L933.42 885.799C933.163 886.743 933.403 886.738 932.646 887.102C929.371 888.679 800.088 888.435 787.375 887.919C789.607 887.418 793.115 887.548 794.879 886.899C792.636 886.395 790.398 885.873 788.164 885.333L789.81 884.422C791.176 885.153 791.178 885.194 792.672 885.534C792.349 883.345 791.498 880.74 790.875 878.574C788.954 868.796 786.261 859.31 784.31 848.883C783.711 844.875 783.268 840.805 782.672 836.773C782.246 836.037 781.886 835.369 781.493 834.615L781.124 834.389C780.688 832.521 780.761 832.44 779.674 830.774C779.135 818.479 778.857 803.099 792.855 798.324C793.234 798.214 793.614 798.111 793.997 798.015C801.258 796.224 809.481 800.246 815.546 803.882C815.373 802.052 815.235 800.218 815.13 798.383C814.326 783.654 816.373 752.653 837.722 751.517C844.06 751.179 850.127 755.027 854.647 759.302Z"/><path fill="#00B4F3" d="M796.459 800.127C822.647 803.024 847.066 838.169 851.876 862.009C852.629 860.653 853.062 860.182 854.001 858.964L854.355 859.066C855.156 861.043 855.166 860.959 856.63 862.562C854.859 865.152 850.663 880.799 849.475 884.817L846.565 884.946C841.899 884.388 825.434 885.186 819.943 885.188C815.537 885.19 795.854 884.941 792.672 885.534C792.349 883.345 791.498 880.74 790.875 878.574C788.954 868.796 786.261 859.31 784.31 848.883C783.711 844.875 783.268 840.805 782.672 836.773C781.907 823.024 779.106 803.632 796.459 800.127Z"/><path fill="#34234D" d="M854.001 858.964L854.355 859.066C855.156 861.043 855.166 860.959 856.63 862.562C854.859 865.152 850.663 880.799 849.475 884.817L846.565 884.946C848.593 878.368 852.644 868.484 851.876 862.009C852.629 860.653 853.062 860.182 854.001 858.964Z"/><path fill="#00B4F3" d="M921.482 832.413C933.019 832.936 949.217 836.254 944.896 851.633C946.667 850.631 945.571 850.516 948.226 849.9C945.417 858.019 935.867 867.5 929.05 872.385C925.679 876.234 916.642 881.75 912.114 884.418L912.765 884.462C917.165 884.733 929.777 884.349 932.746 885.013L933.42 885.799C933.163 886.743 933.403 886.738 932.646 887.102C929.371 888.679 800.088 888.435 787.375 887.919C789.607 887.418 793.115 887.548 794.879 886.899C792.636 886.395 790.398 885.873 788.164 885.333L789.81 884.422C791.176 885.153 791.178 885.194 792.672 885.534C795.854 884.941 815.537 885.19 819.943 885.188C825.434 885.186 841.899 884.388 846.565 884.946L849.475 884.817C850.663 880.799 854.859 865.152 856.63 862.562C865.715 857.506 875.762 851.577 884.433 845.941C898.548 836.764 904.278 832.946 921.482 832.413Z"/><path fill="#58456B" d="M789.81 884.422C791.176 885.153 791.178 885.194 792.672 885.534C795.854 884.941 815.537 885.19 819.943 885.188C825.434 885.186 841.899 884.388 846.565 884.946L849.475 884.817C852.906 885.125 857.261 885.026 860.77 885.002C876.425 884.897 892.364 885.485 907.972 884.36C909.35 884.396 910.741 884.464 912.114 884.418L912.765 884.462C917.165 884.733 929.777 884.349 932.746 885.013L933.42 885.799C933.163 886.743 933.403 886.738 932.646 887.102C929.371 888.679 800.088 888.435 787.375 887.919C789.607 887.418 793.115 887.548 794.879 886.899C792.636 886.395 790.398 885.873 788.164 885.333L789.81 884.422Z"/><path fill="#34234D" d="M944.896 851.633C946.667 850.631 945.571 850.516 948.226 849.9C945.417 858.019 935.867 867.5 929.05 872.385C925.679 876.234 916.642 881.75 912.114 884.418C910.741 884.464 909.35 884.396 907.972 884.36C917.141 878.695 923.354 874.075 931.368 867.034C937.266 861.12 939.996 858.921 944.896 851.633Z"/><path fill="#23165A" d="M854.647 759.302C861.203 742.103 891.626 660.876 918.986 679.666C920.473 681.52 922.413 682.51 923.436 683.962L922.369 684.552C917.985 681.688 912.756 678.65 907.277 679.927C897.448 682.219 889.037 694.559 884.188 702.659C876.405 715.658 869.973 729.382 863.93 743.236C861.468 748.879 858.797 758.026 856.115 762.769C851.494 761.907 842.072 748.356 829.694 756.694C822.966 761.226 819.934 771.807 818.694 779.424C817.298 788.01 817.608 796.814 818.024 805.493C837.092 822.514 845.738 834.569 854.001 858.964C853.062 860.182 852.629 860.653 851.876 862.009C847.066 838.169 822.647 803.024 796.459 800.127C779.106 803.632 781.907 823.024 782.672 836.773C782.246 836.037 781.886 835.369 781.493 834.615L781.124 834.389C780.688 832.521 780.761 832.44 779.674 830.774C779.135 818.479 778.857 803.099 792.855 798.324C793.234 798.214 793.614 798.111 793.997 798.015C801.258 796.224 809.481 800.246 815.546 803.882C815.373 802.052 815.235 800.218 815.13 798.383C814.326 783.654 816.373 752.653 837.722 751.517C844.06 751.179 850.127 755.027 854.647 759.302Z"/><path fill="#23165A" d="M854.355 859.066C856.638 853.236 858.449 844.356 860.283 838.05C868.192 810.858 876.553 783.805 884.422 756.605C884.802 755.29 885.61 753.871 886.829 753.186L887.633 753.726C886.178 762.113 879.299 783.432 876.635 792.352C869.928 814.73 863.352 837.147 856.908 859.602C864.942 855.069 874.073 849.205 882.131 844.336C902.845 831.822 920.738 822.05 937.056 803.717L938.539 803.809C937.715 806.71 932.406 808.757 932.936 811.563C926.726 818.703 916.189 825.791 908.336 831.399C914.468 830.325 920.906 829.42 927.137 830.271C936.475 831.663 951.82 837.797 948.226 849.9C945.571 850.516 946.667 850.631 944.896 851.633C949.217 836.254 933.019 832.936 921.482 832.413C904.278 832.946 898.548 836.764 884.433 845.941C875.762 851.577 865.715 857.506 856.63 862.562C855.166 860.959 855.156 861.043 854.355 859.066Z"/><path fill="#23165A" d="M918.986 679.666C925.82 682.948 931.073 688.806 933.594 695.956C941.72 718.385 920.676 752.429 910.476 772.124C919.297 768.598 923.735 767.145 933.309 767.415C936.201 767.707 938.636 768.021 941.333 769.249C944.66 772.269 947.32 774.656 948.784 779.104L948.545 779.397L946.609 777.153C946.391 776.894 946.173 776.634 945.955 776.374C939.469 766.598 923.377 769.313 914.185 773.353C911.438 774.56 907.054 777.781 904.862 777.396C904.166 774.616 908.337 769.956 909.863 767.061C919.567 748.637 932.178 728.281 932.933 706.952C933.267 697.508 928.822 690.793 922.369 684.552L923.436 683.962C922.413 682.51 920.473 681.52 918.986 679.666Z"/><path fill="#34234D" d="M941.333 769.249C957.705 775.41 948.056 796.936 939.232 805.311C937.757 806.711 934.606 810.626 932.936 811.563C932.406 808.757 937.715 806.71 938.539 803.809L937.056 803.717C944.315 795.046 948.874 789.053 946.609 777.153L948.545 779.397L948.784 779.104C947.32 774.656 944.66 772.269 941.333 769.249Z"/><path fill="#34234D" d="M781.056 845.336C782.334 847.15 782.611 847.456 784.31 848.883C786.261 859.31 788.954 868.796 790.875 878.574C791.498 880.74 792.349 883.345 792.672 885.534C791.178 885.194 791.176 885.153 789.81 884.422C789.165 882.558 788.729 880.489 788.268 878.558C785.161 867.649 782.752 856.552 781.056 845.336Z"/><path fill="#23165A" d="M779.674 830.774C780.761 832.44 780.688 832.521 781.124 834.389L781.493 834.615C781.886 835.369 782.246 836.037 782.672 836.773C783.268 840.805 783.711 844.875 784.31 848.883C782.611 847.456 782.334 847.15 781.056 845.336C780.43 840.324 780.046 835.787 779.674 830.774Z"/><path fill="#FEFEFE" d="M848.783 560.665C865.575 560.3 879.458 573.668 879.726 590.462C879.995 607.256 866.547 621.061 849.752 621.233C833.093 621.404 819.423 608.088 819.157 591.431C818.891 574.773 832.127 561.027 848.783 560.665Z"/><path fill="#E5E5E6" d="M845.464 563.713C860.53 561.47 874.566 571.856 876.825 586.921C879.083 601.985 868.71 616.032 853.648 618.305C838.565 620.582 824.494 610.192 822.232 595.106C819.971 580.019 830.375 565.959 845.464 563.713Z"/><path fill="#EF7B7A" d="M398.977 283.16C398.929 278.044 399.935 272.973 401.932 268.263C408.07 253.795 419.367 249.248 431.438 241.098C434.185 239.243 439.264 233.725 442.024 231.202C474.204 201.775 523.63 189.128 564.693 206.217C575.793 210.844 587.498 219.121 592.064 230.87C596.264 241.678 592.967 249.348 588.572 259.213C595.72 261.884 597.34 262.493 603.758 267.002C609.191 272.655 613.925 279.857 613.487 287.919C612.624 303.786 597.468 331.276 589.142 344.731C591.476 345.927 594.998 347.632 596.827 349.446C602.61 355.184 604.327 363.477 600.181 370.617C597.75 374.796 593.728 377.81 589.035 378.969C585.067 379.979 582.499 379.466 578.664 378.632C577.142 408.496 570.444 425.227 550.434 447.188C551.551 455.272 552.012 463.181 553.406 471.283C555.412 482.945 559.742 488.446 571.686 491.21C569.3 507.64 565.402 524.562 559.298 540.048C550.119 546.795 542.043 551.491 530.985 554.395C529.802 547.008 524.69 510.568 522.383 506.453C521.13 504.217 518.374 502.595 515.964 501.954C511.708 500.822 510.057 503.093 506.699 505.103L506.168 505.416C503.051 500.634 499.508 499.687 495.058 503.414C491.656 508.256 485.461 538.517 483.844 546.391C471.955 547.001 463.025 549.226 450.737 548.114C446.53 538.002 443.145 527.568 440.615 516.912C440.737 516.749 440.859 516.586 440.981 516.423C446.665 512.953 447.905 498.997 450.268 493.674L450.08 492.725C450.808 491.399 452.723 484.025 453.256 482.16L463.362 445.555C461.734 443.2 455.539 437.86 452.966 434.231C439.782 415.643 435.2 399.395 433.934 377.36C425.926 378.627 419.922 377.793 415.092 370.287C412.253 365.82 411.358 360.389 412.616 355.247C414.162 349.153 417.24 346.704 422.201 343.807C418.39 339.552 403.691 308.107 401.942 301.451C400.335 295.331 399.313 289.574 398.977 283.16Z"/><path fill="#4E3649" d="M398.977 283.16C398.929 278.044 399.935 272.973 401.932 268.263C408.07 253.795 419.367 249.248 431.438 241.098C434.185 239.243 439.264 233.725 442.024 231.202C474.204 201.775 523.63 189.128 564.693 206.217C575.793 210.844 587.498 219.121 592.064 230.87C596.264 241.678 592.967 249.348 588.572 259.213C595.72 261.884 597.34 262.493 603.758 267.002C609.191 272.655 613.925 279.857 613.487 287.919C612.624 303.786 597.468 331.276 589.142 344.731C585.157 344.468 581.524 347.83 578.273 350.186C571.249 341.657 568.309 330.297 566.353 318.829C564.26 307.582 567.511 292.432 559.82 283.061C557.958 280.792 549.446 283.407 546.851 283.892C543.856 284.45 540.639 284.766 537.554 285.088C523.18 286.718 508.685 286.997 494.26 285.92C485.939 285.302 478.226 284.428 470.09 282.557C467.714 282.01 460.171 280.482 458.049 281.092C445.539 284.684 447.926 303.928 446.23 314.067C444.314 327.584 442.935 340.028 434.847 351.209C430.631 349.145 425.998 345.218 422.201 343.807C418.39 339.552 403.691 308.107 401.942 301.451C400.335 295.331 399.313 289.574 398.977 283.16Z"/><path fill="#4E3649" d="M463.362 445.555C475.288 457.235 492.958 465.694 509.801 465.34C521.569 465.094 532.264 460.603 541.388 453.32C543.486 451.678 543.483 451.497 545.081 452.748C545.048 456.232 529.302 464.358 525.97 466.474C520.746 469.79 515.285 473.131 509.966 476.312C494.631 484.604 467.699 493.677 450.268 493.674L450.08 492.725C450.808 491.399 452.723 484.025 453.256 482.16L463.362 445.555Z"/><path fill="#4E3649" d="M535.918 315.678C543.956 316.027 557.502 318.261 559.731 329.019C559.988 330.262 559.23 331.064 558.498 331.923C556.69 332.529 556.688 332.649 554.735 332.359C553.199 331.231 548.016 327.507 546.284 327.033C542.13 325.898 536.39 325.7 532.362 323.757C530.61 322.912 530.332 322.081 529.787 320.512C530.408 316.35 532.305 316.293 535.918 315.678Z"/><path fill="#4E3649" d="M473.088 315.667C476.362 315.389 484.534 315.193 483.283 320.49C480.125 324.274 473.14 324.295 468.534 326.113C465.765 327.206 464.704 327.866 462.21 329.401C459.467 331.407 455.856 333.975 453.516 330.079C452.587 321.044 465.821 316.594 473.088 315.667Z"/><path fill="#34234D" d="M473.27 393.623C475.385 394.412 474.854 394.096 475.834 396.004C484.835 413.515 508.833 416.535 525.083 408.155C525.759 407.807 526.035 408.261 526.657 408.696L526.77 409.796C514.127 417.952 494.958 416.404 482.729 408.305C478.009 405.179 472.397 399.772 473.27 393.623Z"/><path fill="#34234D" d="M507.737 348.74L509.443 349.092C510.616 350.449 512.937 355.68 513.663 357.585C520.922 376.624 537.225 386.962 505.123 388.827C503.627 388.731 504.274 388.993 503.13 387.98C503.809 383.575 524.541 388.518 520.889 378.46C518.268 371.239 507.533 356.183 507.737 348.74Z"/><path fill="#34234D" d="M422.631 354.872C428.471 356.341 431.351 362.425 431.819 368.156C431.977 370.092 430.938 370.97 429.666 372.258C422.769 371.646 417.276 360.346 422.631 354.872Z"/><path fill="#EF7B7A" d="M423.22 357.693C427.447 359.767 429.5 365.377 429.287 369.847C424.441 368.964 422.413 361.994 423.22 357.693Z"/><path fill="#34234D" d="M587.628 356.34C602.815 356.348 583.383 377.422 579.225 371.417L579.673 370.298C583.868 368.995 593.081 364.509 589.583 359.117C587.612 359.906 587.545 362.066 585.493 362.935C584.397 361.989 584.786 362.565 584.539 361.034C585.485 358.656 585.915 358.341 587.628 356.34Z"/><path fill="#34234D" d="M552.762 347.662C554.662 348.864 554.227 348.08 554.687 349.746C553.62 354.445 548.752 357.862 543.963 357.857C540.096 357.854 538.029 356.006 535.513 353.314C534.623 351.567 534.234 351.092 534.414 349.118C538.246 348.503 543.994 364.725 552.762 347.662Z"/><path fill="#34234D" d="M464.768 347.638L466.048 348.168C476.711 364.905 479.575 350.074 484.268 348.432L485.322 349.166L485.471 350.27C484.154 352.293 482.975 354.109 480.988 355.552C478.467 357.367 475.313 358.074 472.258 357.508C467.806 356.665 463.468 352.258 464.768 347.638Z"/><path fill="#FE5168" d="M505.827 685.627C510.344 689.437 513.876 692.346 518.894 695.445C521.381 697.015 523.674 698.867 526.009 700.653C537.181 709.196 548.731 717.219 559.502 726.266C558.491 727.446 557.54 728.518 556.603 729.762C592.117 769.767 634.113 817.422 684.411 838.36L684.449 868.679C684.446 873.248 684.212 880.414 684.48 884.799L758.52 885.029C762.568 885.032 785.662 884.706 788.164 885.333C790.398 885.873 792.636 886.395 794.879 886.899C793.115 887.548 789.607 887.418 787.375 887.919C768.423 888.577 746.248 887.909 727.028 887.951L594.122 887.991L192.328 887.481L123.125 887.579C112.505 887.615 101.889 887.688 91.2708 887.813C89.746 887.831 87.9378 887.059 87.8185 885.366C90.3806 883.791 111.856 884.582 116.53 884.638L265.259 884.759C285.199 884.825 307.462 884.142 327.094 884.752C327.01 874.471 326.99 864.19 327.035 853.909C327.033 850.464 327.22 841.636 326.622 838.6C368.403 823.431 422.288 763.873 452.222 730.374C451.34 728.816 450.426 727.794 449.305 726.419C454.412 721.413 467.603 713.577 473.874 708.816C477.037 706.415 488.989 697.388 491.693 696.11C496.689 692.78 501.091 689.301 505.827 685.627Z"/><path fill="#FE5168" d="M449.305 726.419C454.412 721.413 467.603 713.577 473.874 708.816C477.037 706.415 488.989 697.388 491.693 696.11L491.546 804.12C491.502 830.975 491.05 858.124 491.297 884.942C448.961 885.956 405.908 884.289 363.501 884.956C351.618 885.142 338.92 885.217 327.094 884.752C327.01 874.471 326.99 864.19 327.035 853.909C327.033 850.464 327.22 841.636 326.622 838.6C368.403 823.431 422.288 763.873 452.222 730.374C451.34 728.816 450.426 727.794 449.305 726.419Z"/><path fill="#FEFEFE" d="M505.827 685.627C510.344 689.437 513.876 692.346 518.894 695.445L519.104 816.935L519.138 862.001C519.13 868.371 519.428 878.636 519.042 884.743C510.633 885.116 499.956 884.842 491.297 884.942C491.05 858.124 491.502 830.975 491.546 804.12L491.693 696.11C496.689 692.78 501.091 689.301 505.827 685.627Z"/><path fill="#4E3649" d="M787.375 887.919C768.423 888.577 746.248 887.909 727.028 887.951L594.122 887.991L192.328 887.481L123.125 887.579C112.505 887.615 101.889 887.688 91.2708 887.813C89.746 887.831 87.9378 887.059 87.8185 885.366C90.3806 883.791 111.856 884.582 116.53 884.638L265.259 884.759C285.199 884.825 307.462 884.142 327.094 884.752C338.92 885.217 351.618 885.142 363.501 884.956C405.908 884.289 448.961 885.956 491.297 884.942C499.956 884.842 510.633 885.116 519.042 884.743C536.845 885.567 560.139 884.936 578.415 884.925L684.48 884.799L758.52 885.029C762.568 885.032 785.662 884.706 788.164 885.333C790.398 885.873 792.636 886.395 794.879 886.899C793.115 887.548 789.607 887.418 787.375 887.919Z"/><path fill="#00B4F3" d="M179.255 258.823C190.31 257.348 200.45 265.164 201.838 276.231C203.226 287.298 195.33 297.376 184.253 298.677C173.297 299.963 163.355 292.174 161.982 281.229C160.61 270.284 168.321 260.281 179.255 258.823Z"/><path fill="#4E3649" d="M42.4621 884.546C46.0606 884.231 61.1114 883.692 64.8966 885.179C65.4703 885.404 65.5254 886.636 65.7146 887.494C62.3073 887.808 46.7803 888.292 43.1199 886.798C42.5493 886.565 42.594 885.417 42.4621 884.546Z"/><path fill="#4E3649" d="M960.307 884.551C964.547 884.522 980.904 883.652 983.303 885.508L983.379 887.297C980.066 887.646 964.539 888.182 960.882 886.795C960.3 886.575 960.409 885.466 960.307 884.551Z"/></svg>