<?xml version="1.0" encoding="utf-8" ?><svg xmlns="http://www.w3.org/2000/svg" xmlns:xlink="http://www.w3.org/1999/xlink" width="1254" height="1254" viewBox="0 0 1254 1254"><path fill="#1691F6" d="M569.207 105.048C570.383 105.539 573.011 107.025 572.42 108.656C558.353 147.45 542.828 186.447 532.655 226.363C532.487 227.022 533.772 227.57 534.228 227.861C537.512 227.954 563.186 207.843 567.947 204.626C607.031 178.217 647.868 156.739 692.189 140.436C699.009 137.927 730.891 125.794 736.226 128.252C736.965 129.6 737.124 130.183 736.174 131.619C727.937 144.066 664.659 200.136 661.979 210.905L662.971 211.604C667.571 211.929 708.857 199.926 718.102 197.736C772.962 184.394 829.31 178.162 885.76 179.194C890.022 179.27 908.518 178.221 908.933 183.056C907.782 184.853 906.291 186.013 904.353 186.943C872.265 202.332 839.809 217.366 809.619 236.315C805.232 239.069 800.059 241.37 796.387 245.008C795.289 246.095 795.613 246.414 795.771 247.75C797.917 250.071 823.161 252.3 827.651 252.869C844.592 255.021 861.471 257.632 878.27 260.7C929.32 270.381 980.06 284.272 1027.81 304.908C1032.47 306.921 1047.77 312.28 1048.11 317.245C1047.22 318.521 1046.04 319.347 1044.5 319.501C1031.01 320.845 1016.95 322.029 1003.48 323.259C982.017 325.281 960.644 328.176 939.416 331.936C936.01 332.556 923.494 333.849 923.509 337.457C926.503 342.257 947.37 352.367 953.733 355.907C968.935 364.437 983.905 373.371 998.628 382.702C1033.39 404.685 1069.83 432.294 1099.27 461.699C1102.64 465.07 1111.95 472.997 1112.02 477.392C1111.26 478.211 1110.53 479.009 1109.11 478.834C1104.04 478.211 1095 475.4 1090.56 474.372C1077.56 471.363 1009.5 451.843 1001.14 454L1000.62 455.281C1000.99 458.832 1019.37 476.54 1023.22 480.586C1034.73 492.761 1045.95 505.216 1056.85 517.939C1080.57 545.723 1102.27 575.176 1121.77 606.07C1124.84 610.897 1137.96 629.007 1136.87 632.935C1134.74 633.484 1132.58 632.846 1130.7 631.713C1105.89 616.766 1081.66 600.671 1056.49 586.292C1053.16 584.393 1045.02 578.23 1042.03 581.121C1041.9 583.624 1067.08 635.771 1070.07 642.793C1090.72 691.241 1106.69 740.674 1115.19 792.736C1116.22 799.069 1117.54 805.608 1118.09 811.961C1118.23 813.663 1118.21 815.84 1117.03 817.159C1112.86 817.269 1106.73 808.094 1104.33 804.831C1096.44 794.108 1030.69 713.982 1022.36 712.542C1019.04 716.121 1024.53 740.782 1025.57 747.206C1027.41 759.22 1029.08 771.261 1030.56 783.324C1036.18 827.255 1037.05 875.02 1032.61 919.1C1032.06 924.555 1030.28 943.064 1028.46 947.136C1026.82 948.479 1027.73 948.141 1025.63 948.205C1022.75 946.842 1013.18 925.902 1011.03 921.583C1002.16 903.6 992.777 885.875 982.89 868.429C980.181 863.695 972.345 847.959 967.996 847.125C964.929 849.355 965.342 852.738 964.54 856.293C950.517 918.514 930.857 980.473 898.769 1035.9C896.225 1040.3 890.752 1050.9 886.884 1053.49C884.625 1053.62 885.625 1053.87 883.737 1052.89C881.716 1047.28 881.454 999.261 880.92 989.551C880.179 976.692 879.325 963.84 878.36 950.995C878.048 946.697 877.766 931.189 874.935 928.654C874.099 928.617 873.439 928.423 872.649 929.359C866.053 937.181 858.88 946.494 852.585 954.399C815.64 1001.59 773.535 1044.5 727.055 1082.33C718.97 1088.51 691.271 1111.2 683.638 1114.47C681.414 1114.38 682.371 1114.76 680.675 1113.3C680.005 1109.65 692.649 1083.86 695.142 1078.31C703.548 1059.86 711.481 1041.2 718.932 1022.34C720.948 1017.25 730.606 996.101 728.156 992.199C724.595 993.358 713.397 1000.76 709.688 1003.01C696.87 1010.78 683.968 1018.41 670.985 1025.9C619.006 1055.28 563.704 1080.66 505.939 1096.23C501.336 1097.47 485.802 1103.2 482.917 1099.29C483.076 1097.59 483.742 1096.29 484.951 1095.1C493.984 1086.18 503.044 1077.11 511.883 1068.02C529.017 1050.38 545.728 1032.34 562.002 1013.9C564.582 1010.99 574.985 1001.13 573.711 997.797C570.964 996.442 550.653 1000.49 546.184 1001.15C528.653 1003.69 511.064 1005.83 493.434 1007.57C440.734 1013.12 387.58 1012.77 334.957 1006.53C324.692 1005.38 312.601 1004.12 302.545 1001.55C300.741 1001.09 300.488 1000.28 299.763 998.956C300.261 996.811 301.158 996.377 303.108 995.414C313.469 990.294 329.041 986.578 340.322 982.627C352.464 978.375 419.712 952.411 426.098 945.246C426.874 944.376 426.62 944.24 426.562 943.156C424.015 940.591 409.922 938.983 405.366 938.07C390.505 935.071 375.709 931.756 360.989 928.128C302.312 913.701 244.996 894.213 189.685 869.884C186.56 868.538 182.481 867.148 181.246 864.072C183.792 859.347 207.468 859.297 213.538 858.19C227.267 855.685 320.233 847.856 327.659 841.937L327.665 840.644C325.603 837.594 299.115 821.151 293.827 817.582C267.219 799.446 241.629 779.861 217.17 758.916C204.473 747.973 192.018 736.751 179.816 725.258C171.512 717.412 115.72 662.549 115.771 656.694C115.778 655.82 116.261 655.671 116.843 655.125C121.28 654.28 142.628 662.086 148.291 663.873C171.083 670.938 194.013 677.55 217.067 683.706C221.989 685.016 247.366 692.573 250.374 690.405C251.106 687.621 247.795 684.068 246.202 681.819C233.503 663.893 221.399 645.075 210.055 626.287C187.664 589.99 167.675 552.264 150.217 513.352C147.359 506.933 138.168 488.171 138.84 482.615C140.511 480.68 142.386 481.325 144.589 482.762C153.966 488.878 163.377 495.479 172.665 501.708C191.066 514.027 209.61 526.131 228.293 538.018C233.629 541.429 253.72 555.534 258.652 554.615C260.098 552.521 258.416 548.37 257.778 545.878C255.261 536.041 252.69 526.202 250.409 516.307C236.729 457.513 228.167 397.645 224.819 337.373C224.405 330.824 222.675 313.079 223.952 307.755C225.537 306.093 224.575 306.661 227.088 306.279C230.396 307.942 245.476 332.32 248.63 337.14C259.792 354.348 271.239 371.369 282.965 388.198C286.594 393.4 291.423 401.01 296.003 405.421C297.313 406.683 297.556 406.326 299.004 406.115C300.92 404.2 301.814 391.251 302.228 387.843C305.233 364.892 309.276 342.089 314.346 319.504C324.203 275.394 337.401 235.876 356.867 194.944C358.022 192.515 360.037 188.319 362.572 187.477C363.281 187.548 365.288 187.676 365.467 188.559C367.19 197.081 368.315 209.152 369.399 217.388C372.534 240.372 376.166 263.285 380.29 286.112C381.475 292.752 384.4 314.228 387.858 318.002C388.289 318.083 388.719 318.165 389.149 318.247C393.896 313.978 402.025 298.283 405.192 293.156C442.777 232.294 489.076 177.126 541.709 128.764C548.333 122.677 562.473 109.545 569.207 105.048ZM589.376 690.892C568.016 668.858 545.509 646.773 523.87 624.788L498.72 599.317C493.171 593.718 486.808 586.54 480.493 582.069C464.127 570.482 441.229 572.898 427.309 586.779C419.395 594.704 414.908 605.417 414.812 616.616C414.828 635.129 426.942 646.294 438.94 658.424L458.985 678.63L529.521 749.826C536.713 757.103 544.097 764.568 551.242 771.854C562.58 783.413 571.388 792.49 588.708 792.292C605.364 792.101 613.257 785.186 624.277 774.064L806.806 587.155L853.405 539.31C862.638 529.935 873.915 519.382 881.897 509.195C886.532 503.281 889.247 492.124 889.231 484.589C889.173 473.487 884.716 462.86 876.835 455.04C868.758 447.121 858.316 443.14 847.045 443.356C846.041 443.377 845.038 443.411 844.034 443.458C835.539 444.77 827.235 447.481 820.835 453.387C810.679 462.759 800.988 473.363 791.384 483.3L738.095 537.992L647.791 630.679C628.436 650.469 608.213 670.691 589.376 690.892Z"/></svg>