<?xml version="1.0" encoding="utf-8" ?><svg xmlns="http://www.w3.org/2000/svg" xmlns:xlink="http://www.w3.org/1999/xlink" width="1535" height="1024" viewBox="0 0 1535 1024"><path fill="#0297FE" d="M755.898 46.0237C765.781 44.3457 785.422 46.5799 795.18 49.6877C821.205 57.9764 836.893 72.8039 849.479 96.1392C902.36 71.5518 965.523 74.9638 1001.31 127.018C1012.25 142.928 1015.26 157.532 1017.06 176.482C1041.12 176.351 1056.87 177.441 1079.28 187.55C1106.56 200.031 1127.87 222.704 1138.65 250.711C1147.49 274.246 1147.68 299.727 1137.27 322.776C1157.94 332.403 1174.46 343.538 1188.17 362.211C1207.08 388.371 1214.78 420.985 1209.59 452.841C1205.91 476.134 1194.08 496.446 1174.9 510.343C1188.64 525.671 1197.34 548.348 1199.9 568.607C1203.74 600.071 1195.1 631.785 1175.85 656.963C1158.24 679.592 1137.82 690.83 1109.48 694.371C1117.74 775.064 1040.8 856.524 958.538 825.349C951.12 844.25 939.671 861.306 924.988 875.33C899.674 898.882 866.156 911.6 831.593 910.769C802.703 909.826 781.796 898.961 762.39 878.272L761.128 876.69C758.968 876.897 751.321 883.195 748.848 884.969C742.495 889.497 735.86 893.617 728.984 897.303C720.282 901.949 705.901 905.778 696.151 907.876C638.95 920.184 572.9 891.521 560.439 829.944C535.372 834.479 514.881 834.998 490.037 827.937C436.746 812.792 392.479 756.21 409.707 699.524C384.935 693.402 366.027 684.411 347.602 665.943C314.593 632.86 303.94 581.647 325.583 539.494C330.87 529.197 337.236 522.662 345.363 514.62C332.651 500.895 323.882 487.812 317.688 469.997C307.714 441.728 309.325 410.661 322.171 383.576C334.86 357.39 353.62 342.651 380.591 333.255C375.059 314.135 372.269 297.303 375.239 277.286C379.801 248.195 395.526 222.03 419.072 204.353C443.283 186.4 468.586 181.352 498.011 185.796C503.352 163.987 508.069 150.093 521.867 131.723C540.561 106.837 567.842 90.3984 598.746 86.1245C619.163 83.301 645.297 87.0355 661.895 99.7815C664.017 97.0758 666.165 94.391 668.339 91.7273C691.151 63.8532 720.311 49.5573 755.898 46.0237ZM666.387 134.079C660.27 126.217 653.248 117.29 644.233 112.667C615.826 98.0982 579.294 106.772 555.164 125.957C526.932 148.405 515.492 181.031 515.504 216.17C513.127 214.666 510.525 212.935 508.049 211.63C472.04 192.651 429.149 212.458 409.038 244.739C395.784 265.738 391.407 291.141 396.871 315.366C399.807 327.843 404.918 338.332 410.584 349.729C363.881 349.272 332.167 384.64 331.968 430.147C331.869 456.742 342.366 482.281 361.139 501.117C367.253 507.255 373.488 511.99 380.523 517.05C362.048 524.782 348.175 535.574 340.924 554.823C322.033 604.973 352.055 656.547 399.326 675.051C412.704 680.274 426.929 682.99 441.29 683.065C412.318 719.687 428.86 764.023 462.281 790.157C485.229 807.926 514.34 815.754 543.103 811.889C557.698 810.062 568.216 806.549 582.013 801.649C580.741 809.416 579.555 816.11 580.673 824.054C585.828 860.673 619.329 883.168 653.63 888.447C684.713 893.231 715.463 884.82 740.525 866.049C751.666 857.737 756.943 852.219 766.191 841.819L767.117 841.434C768.626 845.703 770.19 850.457 772.201 854.478C791.085 892.233 837.396 895.849 872.773 883.202C900.916 873.069 923.818 852.067 936.347 824.903C941.623 813.81 945.333 802.039 947.372 789.926C960.141 803.255 971.891 811.769 991.413 811.869C1048.22 812.16 1088.04 760.43 1089.51 706.682C1089.84 694.405 1086.89 682.584 1083.7 671.076C1103.84 676.007 1119.21 675.405 1137.71 664.361C1158.81 651.761 1171.69 630.11 1177.27 606.616C1183.32 581.053 1178.95 554.137 1165.14 531.795C1158.24 520.612 1150.96 513 1141.17 504.46C1148.62 501.77 1155.61 498.997 1162.11 494.339C1193.13 472.135 1196.5 426.986 1181.9 394.257C1167.02 360.914 1138.31 341.462 1103.31 334.241C1136.29 300.979 1127.19 257.282 1096.86 226.334C1069.27 198.171 1027.57 191.988 990.678 202.934C997.372 183.279 997.753 167.088 988.446 148.045C964.967 100.004 903.551 91.7083 859.478 114.089C851.108 118.341 844.704 122.959 837.327 128.712C836.804 125.107 836.34 121.278 835.522 117.74C827.025 81.0149 792.38 63.4975 757.171 66.1971C712.387 72.2998 684.781 92.1956 666.387 134.079Z"/><path fill="#0297FE" d="M758.55 84.2449C782.592 83.7225 803.719 89.6409 815.776 112.58C830.621 140.824 804.804 178.24 773.051 167.096C759.168 162.224 752.128 147.825 757.244 134.553C761.181 120.982 780.49 120.116 783.784 129.557C783.228 137.752 770.628 139.492 772.912 147.559C787.123 162.633 814.213 135.922 793.517 114.562C787.866 108.778 780.114 105.531 772.029 105.561C762.816 105.561 754.578 109.58 748.244 116.165C741.053 123.726 737.198 133.857 737.542 144.287C737.953 155.776 742.915 166.631 751.334 174.458C759.905 182.527 773.346 187.335 784.955 186.817C809.734 185.712 821.583 171.041 836.533 154.236C854.276 134.291 876.446 121.632 903.552 120.593C923.66 119.728 944.73 124.875 959.792 138.835C978.057 155.761 985.743 187.924 966.729 207.294C959.281 214.833 949.132 219.087 938.534 219.113C921.852 219.03 907.549 206.979 906.949 189.068C906.404 172.799 925.936 159.861 938.934 172.635C941.266 174.927 942.435 176.699 942.302 180.135C938.254 186.681 925.155 181.707 923.935 190.84C931.82 216.511 977.859 189.888 951.309 160.516C945.467 154.041 937.257 150.201 928.544 149.867C907.512 149.226 888.545 168.021 888.722 188.917C888.831 201.779 894.166 213.956 903.319 222.923C909.124 228.666 916.28 232.857 924.13 235.108C956.559 244.402 988.721 214.012 1023.92 216.395C1049.1 218.099 1064.49 220.827 1084.14 239.706C1105 259.746 1116.43 297.695 1093.31 319.913C1085.64 327.292 1075.33 331.292 1064.69 331.019C1044.72 330.428 1031.35 316.323 1031.93 296.864C1032.61 273.894 1070.15 265.089 1069.94 291.949C1069.92 293.916 1068.55 294.611 1067.19 295.461C1061.05 296.208 1055.2 290.581 1049.8 294.075C1041.27 305.562 1065.23 322.235 1080.61 306.101C1085.16 301.306 1087.61 294.892 1087.41 288.283C1086.45 257.621 1046.36 246.469 1024.44 271.195C1016.77 279.858 1012.91 291.239 1013.72 302.779C1015.32 324.199 1033.94 345.591 1054.47 347.818C1088.15 351.475 1116.4 348.796 1144.2 373.341C1160.68 387.994 1170.57 408.664 1171.65 430.694C1173.16 459.03 1158.43 487.273 1127.31 488.336C1117.36 488.685 1107.69 485.036 1100.46 478.204C1088.46 466.867 1084.26 447.6 1097.24 433.796C1107.12 420.878 1134.67 425.161 1134.4 442.959C1134.04 465.502 1118.27 444.089 1111.98 443.378C1103.63 446.301 1106.4 460.233 1113.31 465.536C1117.96 469.103 1123.84 470.674 1129.64 469.901C1136.17 469.02 1142.07 465.555 1146.01 460.285C1150.73 453.851 1152.66 445.79 1151.37 437.916C1148.03 416.923 1127.3 404.699 1106.96 408.64C1095.3 410.988 1085.07 417.928 1078.57 427.899C1071.67 438.4 1069.37 451.738 1072.17 463.841C1078.82 492.523 1100.33 498.496 1121.38 512.269C1142.02 526.679 1153.89 543.731 1159.86 568.203C1171.16 614.564 1127.58 680.65 1077.26 647.753C1045.04 626.683 1068.29 569.105 1106.15 592C1110.68 594.743 1113.31 601.509 1113.74 606.462C1114.47 612.664 1110.47 620.063 1103.84 620.927C1094.84 622.206 1097.54 601.428 1088.99 604.107C1081.53 607.149 1078.45 614.097 1080.42 621.595C1083.54 633.513 1099.4 641.044 1110.87 636.751C1127.07 630.688 1135.67 612.747 1129.76 595.943C1126.02 585.392 1118.13 576.828 1107.93 572.234C1097.41 567.397 1085.37 567.076 1074.61 571.347C1063.07 575.868 1052.77 586.662 1047.98 597.849C1035.56 626.844 1054.48 647.31 1064.76 672.626C1075.16 697.546 1071.92 720.07 1062.27 744.113C1049.95 774.811 1008.63 805.708 975.301 790.197C965.395 785.595 957.771 777.182 954.163 766.871C947.574 747.758 957.181 724.27 976.818 718.051C984.142 715.718 992.098 716.435 998.887 720.042C1024.83 734.09 1004.32 764.696 989.463 755.758C985.748 749.443 992.411 745.174 991.939 737.486C991.194 736.061 990.828 734.984 989.036 734.658C972.187 731.593 966.115 751.72 974.016 763.462C983.285 777.236 999.184 778.22 1012.21 769.541C1020.62 763.965 1026.42 755.227 1028.3 745.31C1035.33 707.468 985.668 684.136 956.233 708.977C929.658 731.406 935.228 748.722 931.548 778.847C924.871 833.507 882.158 877.753 824.794 871.079C812.23 869.626 799.189 862.787 791.676 852.272C785.209 843.363 782.575 832.237 784.361 821.374C786.092 811.09 791.826 801.91 800.31 795.846C814.024 786.193 834.378 786.297 844.826 801.111C851.275 811.339 850.06 825.314 839.368 832.121C834.199 835.412 823.614 836.012 820.184 830.631C820.033 823.047 833.24 817.76 830.159 811.556C825.518 803.478 812.761 806.765 808.236 812.875C796.258 829.05 805.05 844.289 822.165 851.04C829.09 852.18 834.001 852.475 840.872 850.412C850.238 847.543 858.033 840.984 862.461 832.245C867.404 822.71 867.897 811.573 864.569 801.433C860.843 790.278 852.776 781.097 842.194 775.969C833.697 771.804 822.308 769.801 812.94 771.549C778.495 777.978 771.841 807.177 752.49 830.201C739.005 846.271 721.89 859.583 701.845 866.477C667.501 878.288 613.717 868.841 600.409 830.615C593.258 810.075 603.922 785.748 625.68 779.668C642.719 774.908 661.587 780.022 667.104 798.501C668.959 804.583 668.248 811.159 665.134 816.703C659.093 827.613 640.451 834.333 634.1 818.597C630.965 810.83 651.845 811.864 650.731 803.127C645.69 795.342 636.666 793.212 628.693 797.81C606.221 810.771 619.677 841.106 641.397 844.39C677.544 849.856 698.211 808.686 677.856 780.427C663.71 760.788 641.376 755.491 619.216 762.846C608.716 766.903 598.284 772.973 588.504 778.57C544.561 803.718 485.676 801.045 454.968 756.507C440.523 735.555 438.722 703.499 462.35 687.501C470.431 682.03 484.49 679.306 493.981 681.504C502.552 683.503 509.962 688.859 514.55 696.37C525.827 714.893 516.629 740.631 491.651 736.031C484.861 734.78 477.883 726.692 480.751 719.779C483.769 712.508 493.816 721.091 500.903 717.54C502.046 715.816 502.619 715.107 502.344 712.876C500.327 695.094 478.483 696.154 469.085 707.194C455.725 722.889 466.353 746.05 484.643 752.295C513.475 762.292 540.994 736.17 537.129 706.909C534.065 683.707 514.57 664.547 491.019 662.637C481.973 661.904 469.898 663.886 460.596 664.693C433.538 667.039 406.792 662.5 384.723 645.809C367.743 633.231 356.645 614.256 354.005 593.288C350.445 565.12 364.238 535.994 394.96 531.464C424.128 527.164 448.322 563.444 428.176 585.823C423.672 590.836 417.33 593.809 410.596 594.066C399.032 594.53 384.243 583.016 393.324 568.567C396.454 563.585 405.629 575.731 412.87 575.528C424.202 571.334 414.599 554.305 404.905 551.889C380.318 545.761 365.29 573.509 377.655 593.557C383.081 602.355 389.981 608.015 400.106 610.745C410.681 613.514 421.928 611.855 431.253 606.149C462.832 587.255 458.121 539.236 429.665 522.887C402.432 507.239 379.175 502.031 361.424 472.373C350.645 454.47 347.448 433.007 352.542 412.738C359.581 385.502 385.693 360.415 415.337 368.71C425.503 371.614 434.1 378.436 439.24 387.676C443.602 395.647 444.988 405.505 442.285 414.248C440.001 421.851 434.781 428.229 427.782 431.972C415.569 438.394 402.545 434.996 395.547 423.076C391.484 416.155 393.524 406.027 401.453 403.294C410.171 400.29 408.742 414.112 415.157 417.551C417.636 417.849 419.23 417.227 421.161 415.679C428.382 409.886 426.014 400.07 420.85 394.238C410.747 382.826 395.932 383.845 385.425 393.924C379.608 399.558 376.287 407.286 376.203 415.384C376.12 425.175 380.464 434.671 387.341 441.539C394.774 449.11 404.999 453.282 415.605 453.069C427.938 452.789 439.652 447.617 448.169 438.691C464.801 421.355 465.356 395.683 452.887 375.904C448.433 368.785 442.736 362.211 437.259 355.81C408.913 322.681 402.902 274.362 435.267 241.084C453.822 222.005 489.002 212.925 509.733 234.632C516.769 241.952 520.593 251.778 520.358 261.93C519.132 298.963 467.419 307.131 465.579 269.328C465.341 264.433 474.531 255.433 480.338 256.123C486.243 260.49 481.401 273.957 489.212 276.071C494.28 277.443 499.286 272.686 500.771 267.662C502.387 262.339 501.758 256.588 499.029 251.74C482.255 222.406 429.159 253.437 453.471 292.197C459.562 301.847 469.264 308.655 480.41 311.098C492.418 313.701 506.993 310.4 516.714 303.226C547.783 280.296 536.164 250.534 534.067 221.574C533.314 211.432 533.947 201.234 535.947 191.263C544.342 150.323 580.833 116.88 624.764 124.518C648.202 129.669 660.543 150.675 656.247 173.53C649.671 208.524 593.796 210.255 600.579 170.534C601.932 162.614 612.037 157.374 619.094 160.357C626.606 163.533 615.277 174.249 618.138 181.124C619.873 182.772 621.652 183.449 624.019 183.252C642.922 181.677 642.365 158.343 631.109 148.334C625.985 143.785 619.242 141.495 612.408 141.983C603.876 142.549 595.502 147.554 589.987 153.927C583.825 161.102 580.765 170.43 581.478 179.861C581.746 183.563 582.53 187.348 583.883 190.719C599.498 233.817 664.026 221.783 672.412 181.27C679.438 147.324 687.871 115.946 719.362 96.2116C731.447 88.638 744.231 85.5366 758.55 84.2449Z"/><path fill="#FEFEFE" d="M932.758 339.139C945.275 338.44 958.262 343.732 967.406 352.139C977.153 361.042 982.864 373.524 983.23 386.722C983.418 394.053 981.318 406.26 977.375 412.406C967.307 428.1 952.467 443.252 939.958 457.422L875.393 530.223C853.522 554.731 831.818 579.387 810.282 604.19C799.013 617.076 787.768 630.214 776.221 642.825C760.86 659.603 730.986 663.981 711.89 651.178C700.571 643.588 689.459 631.929 679.632 622.373L636.37 580.275C616.866 561.182 585.061 537.367 584.166 509.073C583.742 495.772 588.724 482.866 597.974 473.3C607.283 463.501 620.176 457.907 633.691 457.805C658.758 457.68 672.596 474.56 689.235 490.459C704.933 505.469 720.473 520.646 735.85 535.985C737.29 534.205 738.746 532.438 740.218 530.683C772.288 492.592 809.087 453.053 842.291 415.666L875.971 377.652C893.662 357.694 904.049 341.581 932.758 339.139Z"/></svg>