<?xml version="1.0" encoding="utf-8" ?><svg xmlns="http://www.w3.org/2000/svg" xmlns:xlink="http://www.w3.org/1999/xlink" width="1024" height="1024" viewBox="0 0 1024 1024"><path fill="#FEFEFE" d="M0 0L1024 0L1024 1024L0 1024L0 0Z"/><path fill="#FEFEFE" d="M214.95 295.194C218.054 289.526 224.94 280.679 229.1 275.46C341.547 134.383 562.922 74.5308 720.871 173.318C727.263 177.315 745.471 193.194 751.035 194.112C776.746 194.593 801.103 205.727 818.289 224.856C835.475 243.985 843.947 269.391 841.681 295.006L873.395 294.999C876.563 295 886.7 294.852 889.165 295.37C904.184 295.571 919.866 302.565 930.319 313.328C938.926 322.194 944.778 333.365 947.166 345.489C949.05 355.3 948.514 369.593 948.504 379.928L948.457 425.824L948.469 516.433C948.482 532.339 948.532 548.333 948.453 564.195C948.356 583.902 942.288 601.196 927.813 614.994C912.225 629.851 895.653 634.202 874.545 634.073C874.265 644.825 874.023 655.496 874.801 666.082C877.638 704.686 896.226 737.007 923.402 764.112C958.964 799.58 1002.31 843.395 952.715 890.431C951.884 891.217 951.04 891.989 950.183 892.746C957.69 893.13 966.419 892.426 973.588 893.079C983.269 893.277 998.583 892.497 1008.48 893.491C1009.62 893.605 1010.08 894.888 1010.5 895.816C1009.73 901.062 997.372 899.037 992.916 899.034L961.87 899.116L858.84 899.273L232.951 899.265L102.556 899.019C87.952 899.056 73.2108 899.446 58.6003 899.499C56.0031 899.508 53.5887 899.034 52.2534 896.676C52.3765 895.008 52.4325 895.106 53.3041 893.645C56.3627 891.796 75.1559 892.9 80.7405 892.634C76.674 882.909 71.81 871.906 68.6561 861.994C63.7242 861.867 53.6514 863.378 50.3642 859.813C49.1214 856.496 50.349 855.206 53.0383 853.573C57.2377 852.928 76.9714 853.308 82.1978 853.292C74.1597 843.98 59.4798 825.057 54.9503 814.222C50.5194 809.852 49.7477 808.3 48.5678 802.527C48.5463 802.453 48.5083 802.382 48.5031 802.305C48.2268 798.219 41.8297 785.771 39.9379 780.42C36.7967 771.77 34.3603 762.88 32.6524 753.837C24.2537 709.612 35.106 668.554 65.547 635.402C76.0933 623.916 87.6147 613.642 98.018 602.099C105.79 593.477 113.44 582.972 119.972 573.38C119.129 569.504 119.275 552.849 119.377 547.942C119.545 539.897 119.011 528.085 119.596 520.303C117.172 513.825 117.439 510.402 119.319 503.994C119.717 492.122 119.326 478.747 119.312 466.685L119.27 395.312C119.26 382.096 118.326 356.484 121.232 344.34C123.948 333.204 129.64 323.017 137.7 314.867C160.512 291.663 185.54 295.314 214.95 295.194Z"/><path fill="#E5E5E6" d="M48.5678 802.527C48.5463 802.453 48.5083 802.382 48.5031 802.305C48.2268 798.219 41.8297 785.771 39.9379 780.42C36.7967 771.77 34.3603 762.88 32.6524 753.837C24.2537 709.612 35.106 668.554 65.547 635.402C76.0933 623.916 87.6147 613.642 98.018 602.099C105.79 593.477 113.44 582.972 119.972 573.38C123.304 592.769 133.459 609.954 149.715 621.127C168.588 634.097 181.127 634.126 202.559 634.13C212.078 634.109 221.598 634.135 231.117 634.209L231.668 633.331L237.248 633.384L237.534 634.414L786.593 634.052L786.463 788.634L786.528 834.823C786.548 840.232 786.295 853.14 786.927 858.173L786.97 877.895C782.168 877.874 755.146 877.097 752.618 878.833C751.297 881.669 751.684 886.181 751.736 889.395C748.282 889.35 738.231 888.708 736.131 890.46C736.521 892.742 736.105 892.648 737.448 893.826C746.372 894.625 842.862 894.671 845.198 893.571C855.228 892.77 869.663 893.322 880.139 893.299L940.606 893.132C949.655 893.186 965.26 893.96 973.588 893.079C983.269 893.277 998.583 892.497 1008.48 893.491C1009.62 893.605 1010.08 894.888 1010.5 895.816C1009.73 901.062 997.372 899.037 992.916 899.034L961.87 899.116L858.84 899.273L232.951 899.265L102.556 899.019C87.952 899.056 73.2108 899.446 58.6003 899.499C56.0031 899.508 53.5887 899.034 52.2534 896.676C52.3765 895.008 52.4325 895.106 53.3041 893.645C56.3627 891.796 75.1559 892.9 80.7405 892.634C76.674 882.909 71.81 871.906 68.6561 861.994C63.7242 861.867 53.6514 863.378 50.3642 859.813C49.1214 856.496 50.349 855.206 53.0383 853.573C57.2377 852.928 76.9714 853.308 82.1978 853.292C74.1597 843.98 59.4798 825.057 54.9503 814.222C50.5194 809.852 49.7477 808.3 48.5678 802.527Z"/><path fill="#E5E5E6" d="M48.5678 802.527C48.5463 802.453 48.5083 802.382 48.5031 802.305C48.2268 798.219 41.8297 785.771 39.9379 780.42C36.7967 771.77 34.3603 762.88 32.6524 753.837C24.2537 709.612 35.106 668.554 65.547 635.402C76.0933 623.916 87.6147 613.642 98.018 602.099C105.79 593.477 113.44 582.972 119.972 573.38C123.304 592.769 133.459 609.954 149.715 621.127C168.588 634.097 181.127 634.126 202.559 634.13C212.078 634.109 221.598 634.135 231.117 634.209L231.668 633.331L237.248 633.384L237.534 634.414L237.751 878.492C242.632 878.463 266.563 877.858 269.609 879.142C271.001 881.503 270.573 885.683 270.509 888.536C275.029 888.49 282.14 887.523 285.591 889.533C286.54 890.764 286.349 891.814 286.381 893.41C281.597 894.179 182.114 894.421 179.233 893.535C175.572 892.859 165.351 893.262 161.185 893.231C148.308 893.135 134.889 893.723 122.041 893.078C108.704 892.859 93.9249 893.343 80.7405 892.634C76.674 882.909 71.81 871.906 68.6561 861.994C63.7242 861.867 53.6514 863.378 50.3642 859.813C49.1214 856.496 50.349 855.206 53.0383 853.573C57.2377 852.928 76.9714 853.308 82.1978 853.292C74.1597 843.98 59.4798 825.057 54.9503 814.222C50.5194 809.852 49.7477 808.3 48.5678 802.527Z"/><path fill="#157EFC" d="M48.5678 802.527C49.7096 794.35 51.8791 790.257 58.807 785.05C67.2968 779.02 74.9554 773.682 76.2333 762.382C77.7171 749.261 72.2337 732.542 84.5489 723.024C97.3121 713.16 114.168 718.021 122.85 730.76C125.878 735.202 130.089 742.446 129.931 748.242C128.99 753.91 113.606 754.267 117.997 763.891C118.767 765.58 120.722 766.879 122.471 767.251C130.602 768.985 140.517 765.127 146.053 773.974C148.226 777.447 148.365 784.621 146.883 788.495C144.683 794.242 143.882 795.251 138.901 797.92C133.681 800.717 124.318 800.482 120.8 803.76C119.943 807.31 129.007 817.075 117.102 824.978C111.904 828.429 106.912 828.145 100.886 827.856L98.5599 827.47L98.4818 827.129C82.0209 823.944 69.6249 822.679 54.9503 814.222C50.5194 809.852 49.7477 808.3 48.5678 802.527Z"/><path fill="#03002F" d="M98.9499 740.966L99.8108 740.399L100.434 740.764C100.993 744.456 100.737 757.189 100.746 761.677L100.73 805.091C100.728 811.443 100.415 821.753 100.886 827.856L98.5599 827.47L98.4818 827.129L98.7208 823.386C99.1678 822.589 99.3938 746.964 98.9499 740.966Z"/><path fill="#10208B" d="M98.9499 740.966C99.3938 746.964 99.1678 822.589 98.7208 823.386C98.4249 817.133 98.632 809.768 98.682 803.424C94.8567 802.256 78.9675 797.309 77.016 794.245C79.5255 793.591 95.1784 799.724 98.5953 800.942L98.5487 762.758C98.5485 756.826 98.2991 746.558 98.9499 740.966Z"/><path fill="#261935" d="M231.668 633.331L237.248 633.384L237.534 634.414L237.751 878.492C242.632 878.463 266.563 877.858 269.609 879.142C271.001 881.503 270.573 885.683 270.509 888.536C275.029 888.49 282.14 887.523 285.591 889.533C286.54 890.764 286.349 891.814 286.381 893.41C281.597 894.179 182.114 894.421 179.233 893.535C179.465 891.853 179.402 890.945 180.508 889.676C183.885 887.931 191.637 888.792 196.096 888.7C196.127 884.946 196.203 882.219 196.57 878.496C207.961 878.334 219.748 878.486 231.17 878.487L231.117 634.209L231.668 633.331Z"/><path fill="#157EFC" d="M68.6561 861.994L133.995 862.449C129.828 871.352 125.492 883.716 122.041 893.078C108.704 892.859 93.9249 893.343 80.7405 892.634C76.674 882.909 71.81 871.906 68.6561 861.994Z"/><path fill="#E5E5E6" d="M54.9503 814.222C69.6249 822.679 82.0209 823.944 98.4818 827.129L98.5599 827.47L98.6043 831.72C98.5234 839.136 98.4944 846.553 98.5174 853.97L69.2734 853.91C65.2815 853.899 56.5948 854.068 53.0383 853.573C57.2377 852.928 76.9714 853.308 82.1978 853.292C74.1597 843.98 59.4798 825.057 54.9503 814.222Z"/><path fill="#34234D" d="M98.6043 831.72C99.7736 837.087 98.3256 849.473 99.4837 853.572C100.528 854.005 100.054 853.929 100.867 853.961C107.926 853.182 116.035 853.847 123.207 853.626C129.658 853.427 136.377 853.583 142.826 853.683C146.321 853.738 149.531 858.537 146.307 860.931C143.126 862.934 137.62 862.5 133.995 862.449L68.6561 861.994C63.7242 861.867 53.6514 863.378 50.3642 859.813C49.1214 856.496 50.349 855.206 53.0383 853.573C56.5948 854.068 65.2815 853.899 69.2734 853.91L98.5174 853.97C98.4944 846.553 98.5234 839.136 98.6043 831.72Z"/><path fill="#261935" d="M98.5599 827.47L100.886 827.856C101.028 834.321 101.363 847.688 100.867 853.961C100.054 853.929 100.528 854.005 99.4837 853.572C98.3256 849.473 99.7736 837.087 98.6043 831.72L98.5599 827.47Z"/><path fill="#34234D" d="M163.907 661.764C170.264 660.146 176.721 664.02 178.285 670.39C179.849 676.76 175.921 683.184 169.538 684.694C163.231 686.187 156.9 682.315 155.354 676.021C153.808 669.727 157.626 663.363 163.907 661.764Z"/><path fill="#E5E5E6" d="M165.061 663.768C168.463 663.162 171.925 664.445 174.111 667.12C176.298 669.795 176.865 673.443 175.595 676.656C174.325 679.869 171.416 682.142 167.991 682.599C162.854 683.284 158.11 679.738 157.314 674.617C156.517 669.495 159.958 664.676 165.061 663.768Z"/><path fill="#968793" d="M736.131 890.46C736.521 892.742 736.105 892.648 737.448 893.826C746.372 894.625 842.862 894.671 845.198 893.571C855.228 892.77 869.663 893.322 880.139 893.299L940.606 893.132C949.655 893.186 965.26 893.96 973.588 893.079C983.269 893.277 998.583 892.497 1008.48 893.491C1009.62 893.605 1010.08 894.888 1010.5 895.816C1009.73 901.062 997.372 899.037 992.916 899.034L961.87 899.116L858.84 899.273L232.951 899.265L102.556 899.019C87.952 899.056 73.2108 899.446 58.6003 899.499C56.0031 899.508 53.5887 899.034 52.2534 896.676C52.3765 895.008 52.4325 895.106 53.3041 893.645C56.3627 891.796 75.1559 892.9 80.7405 892.634C93.9249 893.343 108.704 892.859 122.041 893.078C134.889 893.723 148.308 893.135 161.185 893.231C165.351 893.262 175.572 892.859 179.233 893.535C182.114 894.421 281.597 894.179 286.381 893.41C295.584 892.89 309.203 893.317 318.855 893.322L381.714 893.364L619.438 893.361L697.171 893.358C708.886 893.362 724.065 893.947 735.43 893.325C736.273 892.398 736.001 892.047 736.131 890.46Z"/><path fill="#E5E5E6" d="M214.95 295.194C218.054 289.526 224.94 280.679 229.1 275.46C341.547 134.383 562.922 74.5308 720.871 173.318C727.263 177.315 745.471 193.194 751.035 194.112C724.64 193.619 699.285 204.398 681.326 223.748C663.367 243.098 654.506 269.185 656.964 295.47C638.123 294.809 617.206 295.18 598.275 295.178L488.685 295.318L214.95 295.194Z"/><path fill="#E5E5E6" d="M787.03 633.551L792.625 633.552C792.6 638.578 792.312 651.256 792.927 655.827C793.365 653.019 793.084 637.798 793.066 634.016L874.545 634.073C874.265 644.825 874.023 655.496 874.801 666.082C877.638 704.686 896.226 737.007 923.402 764.112C958.964 799.58 1002.31 843.395 952.715 890.431C951.884 891.217 951.04 891.989 950.183 892.746C957.69 893.13 966.419 892.426 973.588 893.079C965.26 893.96 949.655 893.186 940.606 893.132L880.139 893.299C869.663 893.322 855.228 892.77 845.198 893.571C842.862 894.671 746.372 894.625 737.448 893.826C736.105 892.648 736.521 892.742 736.131 890.46C738.231 888.708 748.282 889.35 751.736 889.395C751.684 886.181 751.297 881.669 752.618 878.833C755.146 877.097 782.168 877.874 786.97 877.895L786.927 858.173C787.389 851.006 787.032 840.14 787.005 832.713L786.941 787.048L787.03 633.551Z"/><path fill="#261935" d="M787.03 633.551L792.625 633.552C792.6 638.578 792.312 651.256 792.927 655.827L793.054 877.75C799.195 877.769 826.306 877.251 829.518 878.702C831.023 881.161 830.557 885.972 830.496 888.979C834.526 888.938 841.606 887.993 844.512 889.942C845.266 891.293 845.15 892.03 845.198 893.571C842.862 894.671 746.372 894.625 737.448 893.826C736.105 892.648 736.521 892.742 736.131 890.46C738.231 888.708 748.282 889.35 751.736 889.395C751.684 886.181 751.297 881.669 752.618 878.833C755.146 877.097 782.168 877.874 786.97 877.895L786.927 858.173C787.389 851.006 787.032 840.14 787.005 832.713L786.941 787.048L787.03 633.551Z"/><path fill="#A66B7B" d="M862.977 830.748C866.49 831.731 869.096 838.815 870.938 842.145C874.335 840.591 877.722 838.205 881.284 838.068C883.026 838.94 882.387 838.291 883.187 840.159C882.073 843.948 878.205 843.7 874.575 846.794C873.012 851.398 877.248 851.2 877.811 856.499C877.064 858.679 877.415 857.936 875.512 859.599C872.67 857.377 870.497 852.313 868.826 849.027L864.5 850.953C862.32 851.938 857.666 853.867 855.745 851.79C856.83 848.132 862.287 845.821 865.468 844.262C863.465 838.758 858.937 835.465 862.977 830.748Z"/><path fill="#2BF1D1" d="M751.035 194.112C776.746 194.593 801.103 205.727 818.289 224.856C835.475 243.985 843.947 269.391 841.681 295.006C841.667 295.161 841.653 295.315 841.639 295.47C841.619 295.678 841.599 295.885 841.579 296.093C836.833 343.405 797.072 379.463 749.523 379.576C701.973 379.689 662.041 343.822 657.07 296.533C657.033 296.179 656.997 295.825 656.964 295.47C654.506 269.185 663.367 243.098 681.326 223.748C699.285 204.398 724.64 193.619 751.035 194.112Z"/><path fill="#FEFEFE" d="M738.904 290.039C746.56 280.027 756.238 270.529 764.263 260.758C769.093 255.268 774.652 247.93 782.999 249.504C793.425 251.471 796.195 259.683 794.372 268.91C794.944 272.588 794.908 276.82 792.523 279.935C789.053 284.466 785.258 288.779 781.42 293.05C771.328 304.265 761.822 316.04 751.604 327.128C750.228 328.621 744.969 333.242 743.144 333.45C731.55 334.772 722.409 319.913 713.988 313.606C707.549 308.784 704.638 304.206 705.133 296.399C702.911 290.561 703.885 283.804 708.276 279.219C710.669 276.672 714.017 275.24 717.512 275.269C725.774 275.324 733.12 284.33 738.904 290.039Z"/><path fill="#12B0A2" d="M794.372 268.91C794.944 272.588 794.908 276.82 792.523 279.935C789.053 284.466 785.258 288.779 781.42 293.05C771.328 304.265 761.822 316.04 751.604 327.128C750.228 328.621 744.969 333.242 743.144 333.45C731.55 334.772 722.409 319.913 713.988 313.606C707.549 308.784 704.638 304.206 705.133 296.399C711.665 303.385 719.299 309.925 725.897 316.898C728.072 319.404 731.143 321.473 733.772 323.231C738.089 326.117 746.162 325.016 749.336 320.687C758.564 308.104 787.938 281.187 794.372 268.91Z"/><path fill="#968793" d="M841.681 295.006L873.395 294.999C876.563 295 886.7 294.852 889.165 295.37C904.184 295.571 919.866 302.565 930.319 313.328C938.926 322.194 944.778 333.365 947.166 345.489C949.05 355.3 948.514 369.593 948.504 379.928L948.457 425.824L948.469 516.433C948.482 532.339 948.532 548.333 948.453 564.195C948.356 583.902 942.288 601.196 927.813 614.994C912.225 629.851 895.653 634.202 874.545 634.073L793.066 634.016C793.084 637.798 793.365 653.019 792.927 655.827C792.312 651.256 792.6 638.578 792.625 633.552L787.03 633.551L786.941 787.048L787.005 832.713C787.032 840.14 787.389 851.006 786.927 858.173C786.295 853.14 786.548 840.232 786.528 834.823L786.463 788.634L786.593 634.052L237.534 634.414L237.248 633.384C282.741 632.829 329.281 633.223 374.86 633.184L728.899 633.212L819.241 632.968L854.578 633C869.881 633.035 888.956 634.091 903.246 629.122C919.834 623.17 933.419 610.937 941.071 595.061C949.173 577.986 947.437 557.376 947.42 538.777L947.251 479.915L947.5 394.889C947.508 382.286 947.571 369.591 947.443 356.992C947.413 354.022 946.663 344.21 945.755 341.656C941.82 330.596 938.049 321.646 929.39 313.273C911.478 295.954 893.889 296.174 871.169 296.157L841.579 296.093C841.599 295.885 841.619 295.678 841.639 295.47C841.653 295.315 841.667 295.161 841.681 295.006Z"/><path fill="#A3A1A3" d="M841.681 295.006L873.395 294.999C876.563 295 886.7 294.852 889.165 295.37C873.496 295.629 857.156 294.958 841.639 295.47C841.653 295.315 841.667 295.161 841.681 295.006Z"/><path fill="#968793" d="M214.95 295.194L488.685 295.318L598.275 295.178C617.206 295.18 638.123 294.809 656.964 295.47C656.997 295.825 657.033 296.179 657.07 296.533C647.13 295.866 634.928 296.126 624.827 296.116L572.396 296.098L398.972 296.361L247.721 296.08L204.337 296.378C180.528 296.458 161.455 294.856 142.09 311.98C129.802 322.846 121.813 337.167 120.71 353.896C120.223 369.199 120.476 385.646 120.477 401.115L120.536 489.709L120.484 542.697C120.469 569.372 118.838 588.225 138.311 609.85C150.804 623.661 168.253 631.97 186.85 632.965C201.491 633.627 216.919 632.675 231.668 633.331L231.117 634.209C221.598 634.135 212.078 634.109 202.559 634.13C181.127 634.126 168.588 634.097 149.715 621.127C133.459 609.954 123.304 592.769 119.972 573.38C119.129 569.504 119.275 552.849 119.377 547.942C119.545 539.897 119.011 528.085 119.596 520.303C117.172 513.825 117.439 510.402 119.319 503.994C119.717 492.122 119.326 478.747 119.312 466.685L119.27 395.312C119.26 382.096 118.326 356.484 121.232 344.34C123.948 333.204 129.64 323.017 137.7 314.867C160.512 291.663 185.54 295.314 214.95 295.194Z"/><path fill="#261935" d="M119.319 503.994C120.768 505.866 120.383 517.814 119.596 520.303C117.172 513.825 117.439 510.402 119.319 503.994Z"/><path fill="#FE5F76" d="M344.625 446.935C352.591 409.955 384.573 391.36 420.804 391.935C427.567 392.094 434.306 392.809 440.951 394.075C448.987 395.575 468.521 400.826 475.446 406.701C476.789 407.84 476.65 409.826 476.52 411.429C476.493 414.917 476.192 415.997 475.204 419.317C478.293 425.639 469.241 437.794 466.474 444.161C472.954 444.493 479.263 444.82 479.679 452.811C480.084 460.602 480.235 468.967 479.983 476.765C479.637 487.496 480.555 499.448 479.577 510.05C479.514 511.731 479.502 514.053 479.239 515.665C480.029 521.667 476.454 528.826 471.558 532.286C452.815 545.529 425.806 549.437 403.476 546.978C385.33 544.98 366.39 536.463 355.254 521.747C346.279 509.985 343.635 500.33 342.82 485.779C342.541 480.79 342.159 476.129 342.793 471.093C342.761 461.866 342.837 455.951 344.625 446.935Z"/><path fill="#FE5168" d="M344.625 446.935C352.591 409.955 384.573 391.36 420.804 391.935C427.567 392.094 434.306 392.809 440.951 394.075C448.987 395.575 468.521 400.826 475.446 406.701C476.789 407.84 476.65 409.826 476.52 411.429C472.165 418.929 464.244 435.026 457.491 438.524C452.727 438.895 444.388 433.902 439.608 432.028C422.97 425.508 400.632 426.953 394.149 446.888C389.657 445.855 350.297 446.27 344.625 446.935Z"/><path fill="#00B4F3" d="M342.793 471.093L343.131 471.534C346.93 491.682 352.733 505.067 370.446 517.695C396.857 536.524 457.466 535.351 479.577 510.05C479.514 511.731 479.502 514.053 479.239 515.665C480.029 521.667 476.454 528.826 471.558 532.286C452.815 545.529 425.806 549.437 403.476 546.978C385.33 544.98 366.39 536.463 355.254 521.747C346.279 509.985 343.635 500.33 342.82 485.779C342.541 480.79 342.159 476.129 342.793 471.093Z"/><path fill="#10208B" d="M343.131 471.534C346.93 491.682 352.733 505.067 370.446 517.695C396.857 536.524 457.466 535.351 479.577 510.05C479.514 511.731 479.502 514.053 479.239 515.665C466.296 533.109 431.556 536.923 411.413 536.075C382.864 534.873 356.234 521.34 346.704 493.045C343.875 484.645 342.58 480.516 343.131 471.534Z"/><path fill="#10208B" d="M476.52 411.429C476.493 414.917 476.192 415.997 475.204 419.317C478.293 425.639 469.241 437.794 466.474 444.161C463.746 444.295 461.219 444.221 458.498 444.162C455.569 444.381 454.443 444.488 451.44 444.141C442.598 445.388 430.277 443.008 419.609 444.613C407.646 447.175 397.317 450.941 393.08 463.848C392.621 465.476 392.365 466.209 392.226 467.93C389.811 464.12 393.076 451.004 394.149 446.888C400.632 426.953 422.97 425.508 439.608 432.028C444.388 433.902 452.727 438.895 457.491 438.524C464.244 435.026 472.165 418.929 476.52 411.429Z"/><path fill="#00B4F3" d="M393.08 463.848C392.522 458.437 395.393 449.755 398.533 445.371C411.088 427.842 436.516 433.892 451.44 444.141C442.598 445.388 430.277 443.008 419.609 444.613C407.646 447.175 397.317 450.941 393.08 463.848Z"/><path fill="#00B4F3" d="M475.204 419.317C478.293 425.639 469.241 437.794 466.474 444.161C463.746 444.295 461.219 444.221 458.498 444.162C466.29 437.721 470.388 428.213 475.204 419.317Z"/><path fill="#FEFEFE" d="M393.08 463.848C397.317 450.941 407.646 447.175 419.609 444.613C416.331 447.656 416.257 449.917 416.071 454.524C415.825 460.576 416.166 466.982 416.086 473.089C415.933 480.691 415.039 488.216 418.404 495.079C403.362 494.559 391.498 483.409 392.226 467.93C392.365 466.209 392.621 465.476 393.08 463.848Z"/><path fill="#00B4F3" d="M416.488 473.048C417.774 475.901 418.555 478.265 421.79 479.377C426.714 481.07 434.444 479.978 439.945 479.977C439.977 482.75 440.278 489.411 439.559 491.704C433.501 494.766 425.094 495.169 418.404 495.079C415.039 488.216 415.933 480.691 416.086 473.089L416.488 473.048Z"/><path fill="#10208B" d="M416.488 473.048C417.774 475.901 418.555 478.265 421.79 479.377C426.714 481.07 434.444 479.978 439.945 479.977C439.977 482.75 440.278 489.411 439.559 491.704C438.797 489.654 438.989 487.526 438.977 485.296C433.704 486.143 422.872 487.95 418.641 483.721C415.808 480.889 416.282 476.743 416.488 473.048Z"/><path fill="#FE5F76" d="M162.23 450.708C160.204 444.27 159.711 435.059 160.936 428.642C169.054 386.114 230.303 386.038 261.547 399.358C266.791 401.594 271.053 402.704 274.384 407.546C274.829 411.713 273.329 416.762 271.564 420.516C273.599 424.387 272.811 428.873 271.379 432.799C269.181 438.823 266.133 449.798 262.605 454.863C271.291 461.803 277.258 468.236 278.646 479.884C279.029 483.105 278.668 495.801 277.656 498.037C277.496 500.039 277.38 502.377 277.063 504.328C277.887 509.656 276.401 514.624 274.684 519.604C262 556.407 202.901 549.932 173.841 540.826C164.268 537.827 154.533 534.59 161.672 523.396C157.433 520.094 158.072 517.227 159.244 512.432C161.203 507.637 169.17 489.317 172.651 486.492C173.244 486.014 174.279 484.829 174.845 484.224C163.731 483.463 160.926 459.164 162.23 450.708Z"/><path fill="#00B4F3" d="M161.672 523.396C163.568 524.465 165.523 525.425 167.528 526.274C189.986 535.976 227.876 540.229 251.314 531.076C265.231 525.641 271.487 517.539 277.063 504.328C277.887 509.656 276.401 514.624 274.684 519.604C262 556.407 202.901 549.932 173.841 540.826C164.268 537.827 154.533 534.59 161.672 523.396Z"/><path fill="#10208B" d="M160.076 514.738C161.183 516.551 163.142 518.459 165.166 519.364C195.417 532.892 252.004 540.137 272.87 507.514C274.908 504.327 275.828 500.994 277.656 498.037C277.496 500.039 277.38 502.377 277.063 504.328C271.487 517.539 265.231 525.641 251.314 531.076C227.876 540.229 189.986 535.976 167.528 526.274C165.523 525.425 163.568 524.465 161.672 523.396C157.433 520.094 158.072 517.227 159.244 512.432C159.751 513.504 160.001 513.663 160.076 514.738Z"/><path fill="#00B4F3" d="M271.564 420.516C273.599 424.387 272.811 428.873 271.379 432.799C269.181 438.823 266.133 449.798 262.605 454.863C251.708 448.67 238.615 446.288 226.488 443.85C220.149 442.575 211.16 441.793 206.545 437.175C210.858 431.746 232.839 435.935 239.086 437.53C245.006 439.041 254.685 443.919 259.962 442.877C264.708 439.839 269.138 426.489 271.564 420.516Z"/><path fill="#00B4F3" d="M162.23 450.708C162.473 451.152 163.292 452.551 163.377 452.941C167.519 473.17 180.689 479.839 199.544 484.445C207.685 486.434 220.438 486.501 226.736 491.703C216.271 496.592 194.306 489.559 183.958 485.961C180.523 484.766 178.655 483.776 174.845 484.224C163.731 483.463 160.926 459.164 162.23 450.708Z"/><path fill="#10208B" d="M274.384 407.546C274.829 411.713 273.329 416.762 271.564 420.516C269.138 426.489 264.708 439.839 259.962 442.877C254.685 443.919 245.006 439.041 239.086 437.53C232.839 435.935 210.858 431.746 206.545 437.175C206.248 436.895 206.004 436.703 205.811 436.312C205.19 435.054 205.071 433.157 205.765 431.91C209.822 424.627 239.138 431.513 245.606 433.645C248.8 434.698 251.584 436.631 254.741 437.629C255.861 437.983 257.236 438.142 258.355 437.712C263.929 435.568 271.496 413.657 274.384 407.546Z"/><path fill="#10208B" d="M163.377 452.941C176.088 477.458 197.139 478.176 221.745 482.603C226.397 483.44 233.177 487.556 226.736 491.703C220.438 486.501 207.685 486.434 199.544 484.445C180.689 479.839 167.519 473.17 163.377 452.941Z"/><path fill="#261935" d="M159.244 512.432C161.203 507.637 169.17 489.317 172.651 486.492C170.024 492.926 161.065 509.6 160.076 514.738C160.001 513.663 159.751 513.504 159.244 512.432Z"/><path fill="#FE5F76" d="M493.436 398.741C493.85 395.782 495.875 392.997 499.003 393.158C507.831 393.612 524.036 392.202 532.146 393.715C538.937 394.982 554.487 419.549 559.169 425.825C563.247 431.292 569.9 440.44 572.894 445.92C575.33 449.546 577.234 452.886 579.392 456.663L579.417 446.67C584.806 446.306 620.297 447.019 621.932 446.042L621.718 502.882C621.691 506.883 621.913 521.714 621.231 524.585C621.027 526.768 620.803 528.949 620.561 531.128C621.314 545.858 618.324 545.169 604.624 544.977C597.53 544.878 588.923 545.839 582.012 544.255C577.473 540.533 539.392 490.22 537.596 485.754C537.595 492.127 537.989 521.445 537.217 524.872C537.188 526.265 537.07 528.607 537.216 529.897C537.497 532.856 538.003 541.431 534.998 543.686C532.146 545.613 526.198 545.503 522.837 545.472C514.967 545.4 507.009 545.538 499.187 544.879C492.538 544.318 493.685 535.813 493.972 531.166C493.792 528.585 493.633 526.002 493.496 523.419C492.955 515.599 493.178 504.346 493.145 496.337L493.076 446.707L493.063 416.492C493.062 411.691 492.814 403.237 493.436 398.741Z"/><path fill="#FE5168" d="M493.436 398.741C493.85 395.782 495.875 392.997 499.003 393.158C507.831 393.612 524.036 392.202 532.146 393.715C538.937 394.982 554.487 419.549 559.169 425.825C563.247 431.292 569.9 440.44 572.894 445.92C570.21 446.709 556.406 446.266 552.485 446.267L493.69 446.119C493.494 432.848 494.531 411.328 493.436 398.741Z"/><path fill="#00B4F3" d="M537.686 477.465C545.849 488.519 554.132 499.484 562.531 510.36C567.177 516.441 576.365 529.977 582.585 533.341C592.223 533.437 607.915 534.066 617.788 533.082C618.548 533.006 619.927 531.732 620.561 531.128C621.314 545.858 618.324 545.169 604.624 544.977C597.53 544.878 588.923 545.839 582.012 544.255C577.473 540.533 539.392 490.22 537.596 485.754C537.52 482.772 537.556 480.439 537.686 477.465Z"/><path fill="#10208B" d="M537.686 477.465L537.616 470.633C548.484 483.411 557.935 498.265 568.69 511.193C573.722 517.241 578.554 527.766 587.267 527.729C596.799 527.689 607.794 528.578 617.182 527.337C618.302 526.342 619.671 524.888 620.97 524.436L621.231 524.585C621.027 526.768 620.803 528.949 620.561 531.128C619.927 531.732 618.548 533.006 617.788 533.082C607.915 534.066 592.223 533.437 582.585 533.341C576.365 529.977 567.177 516.441 562.531 510.36C554.132 499.484 545.849 488.519 537.686 477.465Z"/><path fill="#00B4F3" d="M493.972 531.166C494.978 531.921 496.606 533.109 497.959 533.225C508.69 534.146 520.333 533.616 531.136 533.496C534.31 533.46 535.412 531.999 537.216 529.897C537.497 532.856 538.003 541.431 534.998 543.686C532.146 545.613 526.198 545.503 522.837 545.472C514.967 545.4 507.009 545.538 499.187 544.879C492.538 544.318 493.685 535.813 493.972 531.166Z"/><path fill="#10208B" d="M498.087 527.617C506.198 528.456 514.905 527.63 523.093 527.974C529.058 528.223 532.409 528.597 536.884 524.186L537.217 524.872C537.188 526.265 537.07 528.607 537.216 529.897C535.412 531.999 534.31 533.46 531.136 533.496C520.333 533.616 508.69 534.146 497.959 533.225C496.606 533.109 494.978 531.921 493.972 531.166C493.792 528.585 493.633 526.002 493.496 523.419C495.298 525.599 495.777 525.949 498.087 527.617Z"/><path fill="#FE5F76" d="M806.414 430.985C806.138 422.391 806.228 413.675 806.273 405.079C806.309 398.352 805.535 393.675 813.691 393.568C832.271 393.323 850.851 393.569 869.434 393.554C895.371 393.43 913.072 407.535 914.23 434.06C914.415 438.285 913.936 443.188 914.361 447.348C914.341 450.409 914.404 453.146 913.996 456.189C914.926 487.143 890.952 500.473 863.013 500.982C858.337 501.03 853.661 501.018 848.986 500.945L848.915 521.063C848.792 523.575 848.713 526.282 848.491 528.771C848.609 530.203 848.71 531.637 848.793 533.072C848.921 535.387 848.756 542.41 846.658 543.107C836.932 546.078 825.016 543.897 814.977 544.567C804.519 545.266 806.061 536.524 806.484 528.614L806.447 521.908C805.922 518.634 805.987 492.914 806.129 488.585C806.721 470.548 805.336 448.655 806.414 430.985Z"/><path fill="#FE5168" d="M806.414 430.985C806.138 422.391 806.228 413.675 806.273 405.079C806.309 398.352 805.535 393.675 813.691 393.568C832.271 393.323 850.851 393.569 869.434 393.554C895.371 393.43 913.072 407.535 914.23 434.06C914.415 438.285 913.936 443.188 914.361 447.348L913.733 446.699L913.328 448.32C913.306 448.064 913.243 447.15 913.148 446.937C911.427 443.066 873.938 447.592 868.134 444.955C866.079 446.885 865 447.555 862.12 447.88C858.984 448.235 852.33 448.844 849.501 447.572L849.054 446.678C846.362 445.54 811.546 445.976 806.695 446.317C806.713 441.611 806.908 435.557 806.414 430.985Z"/><path fill="#00B4F3" d="M849.159 437.484C855.369 437.196 866.304 435.312 869.317 442.07L868.134 444.955C866.079 446.885 865 447.555 862.12 447.88C858.984 448.235 852.33 448.844 849.501 447.572L849.054 446.678C849.3 444.551 849.17 439.841 849.159 437.484Z"/><path fill="#10208B" d="M849.074 431.385C856.279 431.346 873.112 429.58 869.317 442.07C866.304 435.312 855.369 437.196 849.159 437.484L849.074 431.385Z"/><path fill="#00B4F3" d="M849.06 490.537C880.953 490.921 902.582 489.876 913.996 456.189C914.926 487.143 890.952 500.473 863.013 500.982C858.337 501.03 853.661 501.018 848.986 500.945L849.06 490.537Z"/><path fill="#00B4F3" d="M806.484 528.614C807.475 529.971 808.764 531.853 809.864 533.064C820.012 533.803 832.227 533.22 842.519 533.213C845.344 533.211 846.932 530.94 848.491 528.771C848.609 530.203 848.71 531.637 848.793 533.072C848.921 535.387 848.756 542.41 846.658 543.107C836.932 546.078 825.016 543.897 814.977 544.567C804.519 545.266 806.061 536.524 806.484 528.614Z"/><path fill="#10208B" d="M913.328 448.32L913.733 446.699L914.361 447.348C914.341 450.409 914.404 453.146 913.996 456.189C902.582 489.876 880.953 490.921 849.06 490.537L849.083 484.467C880.08 484.803 905.655 483.97 913.328 448.32Z"/><path fill="#10208B" d="M848.915 521.063C848.792 523.575 848.713 526.282 848.491 528.771C846.932 530.94 845.344 533.211 842.519 533.213C832.227 533.22 820.012 533.803 809.864 533.064C808.764 531.853 807.475 529.971 806.484 528.614L806.447 521.908C806.741 522.352 808.651 525.24 809.034 525.384C816.998 528.379 832.947 526.763 841.681 526.634C845.228 526.582 847.459 523.052 848.915 521.063Z"/><path fill="#FE5F76" d="M672.444 398.459C672.675 396.696 673.051 395.604 674.539 394.517C675.727 393.648 677.603 393.419 679.019 393.278C682.407 392.941 712.508 393.037 715.004 393.716C716.109 394.017 716.791 394.425 717.347 395.462C720.171 400.733 718.602 437.463 718.705 446.424C718.749 463.554 712.928 499.301 740.81 491.892C756.203 487.802 751.392 459.473 751.788 446.193C765.016 445.901 783.931 445.533 797.004 446.306C796.996 453.764 797.03 461.222 797.105 468.68C797.207 474.361 797.646 480.381 797.218 485.999C796.939 489.292 796.739 492.599 796.109 495.841C796.02 522.594 777.907 540.742 752.232 545.373C716.752 551.773 675.077 540.436 672.707 498.418C672.671 497.792 672.784 496.959 672.896 496.333C672.506 493.97 672.406 490.655 672.257 488.194C671.878 484.183 672.092 476.732 672.101 472.502L672.139 443.259L672.128 414.881C672.129 410.399 671.925 402.675 672.444 398.459Z"/><path fill="#FE5168" d="M672.444 398.459C672.675 396.696 673.051 395.604 674.539 394.517C675.727 393.648 677.603 393.419 679.019 393.278C682.407 392.941 712.508 393.037 715.004 393.716C716.109 394.017 716.791 394.425 717.347 395.462C720.171 400.733 718.602 437.463 718.705 446.424C713.653 445.886 704.027 446.278 698.791 446.288C690.248 446.304 681.182 446.158 672.694 446.474L672.714 416.772C672.718 411.048 672.926 404.024 672.444 398.459Z"/><path fill="#00B4F3" d="M672.896 496.333L674.603 501.092C687.789 537.269 732.741 540.287 765.067 530.598C775.931 527.343 786.688 517.501 791.365 507.344C792.955 503.89 794.077 500.127 795.677 496.738L796.109 495.841C796.02 522.594 777.907 540.742 752.232 545.373C716.752 551.773 675.077 540.436 672.707 498.418C672.671 497.792 672.784 496.959 672.896 496.333Z"/><path fill="#10208B" d="M672.257 488.194L672.612 486.595C673.192 487.177 675.046 494.829 675.657 496.347C684.457 517.959 702.832 526.638 724.942 528.772C758.981 532.056 793.039 520.5 796.702 482.013C797.321 482.865 797.153 484.69 797.218 485.999C796.939 489.292 796.739 492.599 796.109 495.841L795.677 496.738C794.077 500.127 792.955 503.89 791.365 507.344C786.688 517.501 775.931 527.343 765.067 530.598C732.741 540.287 687.789 537.269 674.603 501.092L672.896 496.333C672.506 493.97 672.406 490.655 672.257 488.194Z"/><path fill="#FE5F76" d="M287.441 398.292C287.696 396.066 289.32 393.2 291.831 393.128C303.617 392.789 315.612 392.776 327.392 393.266C332.391 393.474 332.601 400.193 332.384 403.706C332.513 430.964 332.438 458.221 332.161 485.478C332.088 497.924 332.467 511.827 332.098 524.111C331.948 526.17 331.888 527.997 331.43 530.016C332.503 536.284 333.193 545.04 324.139 544.54C317.104 544.152 293.655 546.404 288.703 542.651C286.504 538.948 287.237 534.678 287.409 530.261C286.912 527.23 287.012 525.604 287.082 522.587L287.046 434.805C287.066 427.625 286.577 404.057 287.441 398.292Z"/><path fill="#FE5168" d="M287.441 398.292C287.696 396.066 289.32 393.2 291.831 393.128C303.617 392.789 315.612 392.776 327.392 393.266C332.391 393.474 332.601 400.193 332.384 403.706C331.426 406.984 331.854 440.657 331.847 446.662C318.441 445.972 300.94 446.356 287.334 446.579C287.868 433.904 287.624 421.197 287.712 408.514C287.736 405.102 287.72 401.694 287.441 398.292Z"/><path fill="#00B4F3" d="M331.43 530.016C332.503 536.284 333.193 545.04 324.139 544.54C317.104 544.152 293.655 546.404 288.703 542.651C286.504 538.948 287.237 534.678 287.409 530.261C288.286 531.161 289.857 532.548 291.169 532.725C302.355 534.235 314.12 533.259 325.424 533.529C328.499 533.603 329.614 532.145 331.43 530.016Z"/><path fill="#10208B" d="M287.082 522.587C288.34 524.716 289.232 526.699 291.842 527.317C295.77 528.248 326.275 528.775 329.237 526.772C330.276 526.069 331.226 525.01 332.098 524.111C331.948 526.17 331.888 527.997 331.43 530.016C329.614 532.145 328.499 533.603 325.424 533.529C314.12 533.259 302.355 534.235 291.169 532.725C289.857 532.548 288.286 531.161 287.409 530.261C286.912 527.23 287.012 525.604 287.082 522.587Z"/><path fill="#FE5168" d="M751.788 446.193C751.875 436.284 751.897 426.375 751.856 416.466C751.848 411.417 750.946 398.371 753.915 394.585C755.273 393.874 756.426 393.594 757.953 393.43C762.079 392.987 791.262 392.996 793.848 393.899C794.961 394.288 795.424 394.805 795.898 395.845C798.186 400.861 796.975 438.044 797.004 446.306C783.931 445.533 765.016 445.901 751.788 446.193Z"/><path fill="#FE5168" d="M579.417 446.67L579.467 416.651C579.464 407.236 576.198 390.598 589.766 393.237C597.255 394.693 612.903 391.659 619.483 394.37C622.963 397.938 621.928 410.074 621.929 415.208L621.932 446.042C620.297 447.019 584.806 446.306 579.417 446.67Z"/><path fill="#968793" d="M10.1297 893.052C16.3425 892.94 22.6522 892.748 28.8678 892.845C31.5455 892.887 33.5929 893.15 35.1282 895.41C35.1249 897.594 35.2673 896.78 33.9287 898.81C31.2616 899.256 26.5904 899.212 23.703 899.241C19.3916 899.284 12.4294 900.582 9.5599 897.066C9.28405 895.115 9.42607 894.97 10.1297 893.052Z"/></svg>