<?xml version="1.0" encoding="utf-8" ?><svg xmlns="http://www.w3.org/2000/svg" xmlns:xlink="http://www.w3.org/1999/xlink" width="1024" height="1024" viewBox="0 0 1024 1024"><path fill="#FEFEFE" d="M0 0L1024 0L1024 1024L0 1024L0 0Z"/><path fill="#FE5168" d="M126.84 394.119C127.041 393.916 127.243 393.713 127.444 393.51C162.008 373.161 202.87 364.939 242.652 365.605C255.151 365.814 263.12 366.604 273.254 366.985C336.649 369.368 393.651 328.144 422.892 273.784C431.435 259.869 436.732 244.203 444.067 229.794C473.711 171.561 535.657 136.32 600.366 138.522C647.043 140.338 691.133 160.44 723.115 194.485C755.841 229.418 771.613 276.939 766.269 324.508C765.635 330.271 764.594 336.617 763.323 342.276C762.449 346.162 758.94 353.798 758.815 357.624L759.904 358.232C786.128 356.599 812.367 355.204 838.617 354.048C847.228 353.653 863.939 352.326 871.872 352.503C877.532 355.783 878.028 356.713 879.915 362.864C889.895 362.223 896.504 359.765 901.38 370.115C900.323 384.649 897.106 404.498 895.22 419.355C895.924 421.762 904.175 427.788 906.631 429.719C989.539 494.915 1015.24 607.123 963.174 700.143C944.64 733.257 925.963 751.919 896.235 775.289C900.369 775.288 933.312 774.914 934.871 775.815C937.032 775.832 938.98 775.594 940.834 776.559C941.9 778.049 941.589 777.23 941.697 779.141C940.169 781.54 938.142 781.957 935.349 781.964C927.249 781.986 919.141 781.784 911.038 781.825C882.502 782.074 853.964 782.145 825.427 782.041L498.458 782.047L258.352 782.072C241.297 782.01 224.242 782.038 207.187 782.158C202.266 782.185 184.946 782.571 181.3 781.757C175.816 781.875 150.414 782.654 146.625 781.664C147.568 779.886 147.744 778.745 146.794 776.937C144.319 774.802 133.126 775.597 129.357 775.611C119.572 775.712 109.785 775.706 99.9994 775.593C99.7175 774.318 94.3533 763.16 93.5243 761.338C88.3347 749.83 83.2352 738.282 78.2263 726.694C64.7476 695.78 53.0891 664.104 43.3106 631.829C22.8984 565.118 29.2879 507.725 66.8364 448.061C70.7189 441.891 76.5447 434.311 81.278 428.864C87.5714 421.622 92.6087 418.679 97.3055 409.843C96.5769 406.19 96.5538 404.885 96.4902 401.142C98.3887 399.815 100.104 398.54 102.246 397.621C105.653 396.159 109.583 396.309 112.596 394.347L113.012 395.002C115.377 395.176 124.519 394.612 126.84 394.119Z"/><path fill="#E5E5E6" d="M97.3055 409.843C99.2319 415.353 100.482 419.285 105.741 422.321C113.299 480.728 119.256 540.065 126.353 598.605C127.971 611.866 129.458 625.142 130.816 638.432C131.605 645.88 132.246 653.347 133.402 660.745C134.317 666.604 137.048 667.851 141.811 670.38C144.09 670.165 155.012 668.613 156.023 669.019L156.156 669.393L156.475 672.697C156.059 690.672 167.542 688.41 180.701 686.76C191.811 685.367 203.125 684.106 214.258 682.769L294.517 673.46L681.705 628.195L807.438 613.999C825.632 611.95 843.844 610.048 862.033 607.962C864.391 607.657 866.586 607.122 868.496 605.668C873.589 601.792 873.67 595.864 874.249 590.069C874.537 587.193 874.828 584.267 875.134 581.373C876.097 572.538 877.189 563.717 878.407 554.914C884.353 509.837 889.014 464.164 895.22 419.355C895.924 421.762 904.175 427.788 906.631 429.719C989.539 494.915 1015.24 607.123 963.174 700.143C944.64 733.257 925.963 751.919 896.235 775.289C900.369 775.288 933.312 774.914 934.871 775.815C937.032 775.832 938.98 775.594 940.834 776.559C941.9 778.049 941.589 777.23 941.697 779.141C940.169 781.54 938.142 781.957 935.349 781.964C927.249 781.986 919.141 781.784 911.038 781.825C882.502 782.074 853.964 782.145 825.427 782.041L498.458 782.047L258.352 782.072C241.297 782.01 224.242 782.038 207.187 782.158C202.266 782.185 184.946 782.571 181.3 781.757C175.816 781.875 150.414 782.654 146.625 781.664C147.568 779.886 147.744 778.745 146.794 776.937C144.319 774.802 133.126 775.597 129.357 775.611C119.572 775.712 109.785 775.706 99.9994 775.593C99.7175 774.318 94.3533 763.16 93.5243 761.338C88.3347 749.83 83.2352 738.282 78.2263 726.694C64.7476 695.78 53.0891 664.104 43.3106 631.829C22.8984 565.118 29.2879 507.725 66.8364 448.061C70.7189 441.891 76.5447 434.311 81.278 428.864C87.5714 421.622 92.6087 418.679 97.3055 409.843Z"/><path fill="#6B467A" d="M181.3 781.757C180.378 779.609 180.178 778.924 181.246 776.897C184.115 774.688 204.42 775.59 209.148 775.604L252.257 775.635L393.54 775.628L748.477 775.607C810.142 775.656 873.349 776.653 934.871 775.815C937.032 775.832 938.98 775.594 940.834 776.559C941.9 778.049 941.589 777.23 941.697 779.141C940.169 781.54 938.142 781.957 935.349 781.964C927.249 781.986 919.141 781.784 911.038 781.825C882.502 782.074 853.964 782.145 825.427 782.041L498.458 782.047L258.352 782.072C241.297 782.01 224.242 782.038 207.187 782.158C202.266 782.185 184.946 782.571 181.3 781.757Z"/><path fill="#000001" d="M912.078 594.967C913.624 594.992 914.332 595.082 915.303 596.233L915.117 597.609C912.071 601.465 891.785 608.749 886.134 611.005C884.945 611.138 884.975 611.087 883.763 610.99C882.649 610.017 882.778 609.995 882.424 608.521C882.576 608.142 882.728 607.762 882.88 607.382C890.229 603.869 905.279 597.973 912.078 594.967Z"/><path fill="#000001" d="M881.72 650.215C882.308 650.291 883.926 650.454 884.376 650.762C889.594 654.336 908.532 662.867 912.212 666.18C912.535 668.118 912.362 667.617 911.346 669.774C907.661 669.428 883.845 656.466 880.776 653.795C880.49 651.875 880.678 652.334 881.72 650.215Z"/><path fill="#000001" d="M847.757 678.69L849.527 679.133C852.48 681.386 857.719 704.994 859.249 709.838C859.599 710.947 858.713 712.303 858.207 713.332C854.916 712.782 854.62 710.385 853.753 707.468C851.901 700.922 849.994 694.356 848.299 687.768C847.377 684.185 845.961 682.023 847.757 678.69Z"/><path fill="#E5E5E6" d="M126.84 394.119C127.041 393.916 127.243 393.713 127.444 393.51C162.008 373.161 202.87 364.939 242.652 365.605C255.151 365.814 263.12 366.604 273.254 366.985C336.649 369.368 393.651 328.144 422.892 273.784C431.435 259.869 436.732 244.203 444.067 229.794C473.711 171.561 535.657 136.32 600.366 138.522C647.043 140.338 691.133 160.44 723.115 194.485C755.841 229.418 771.613 276.939 766.269 324.508C765.635 330.271 764.594 336.617 763.323 342.276C762.449 346.162 758.94 353.798 758.815 357.624L759.904 358.232C748.755 359.414 733.518 359.776 722.027 360.375L655.313 364.062L429.743 376.896L235.55 388.226L165.968 392.219C154.092 392.883 138.476 394.208 126.84 394.119Z"/><defs><linearGradient id="gradient_0" gradientUnits="userSpaceOnUse" x1="503.56644" y1="638.66589" x2="501.02277" y2="620.47211"><stop offset="0" stop-color="#000423"/><stop offset="1" stop-color="#0A073F"/></linearGradient></defs><path fill="url(#gradient_0)" d="M156.156 669.393L156.418 668.562C157.596 667.599 212.889 661.443 219.027 660.71L364.496 643.436L844.447 587.652L846.031 588.764C847.119 588.529 846.571 588.605 847.675 588.535C847.747 589.896 847.749 589.797 847.09 590.997L847.342 591.685C839.201 593.301 819.455 594.985 810.383 595.995L736.041 604.287L503.236 631.301L273.816 658.803L192.549 668.578C183.135 669.67 165.131 672.44 156.475 672.697L156.156 669.393Z"/><path fill="#000001" d="M844.447 587.652C846.758 587.452 847.868 587.729 849.608 586.551C850.413 584.524 852.788 560.921 853.192 557.279L863.406 471.558L866.046 448.64C866.483 444.609 866.088 436.793 869.799 434.72C873.348 436.486 869.17 460.078 868.633 464.79C866.696 483.12 864.589 501.431 862.313 519.722L856.492 569.091C855.682 575.802 854.979 584.513 853.907 590.912C851.519 591.282 849.777 591.577 847.342 591.685L847.09 590.997C847.749 589.797 847.747 589.896 847.675 588.535C846.571 588.605 847.119 588.529 846.031 588.764L844.447 587.652Z"/><path fill="#6CD1FC" d="M558.148 431.717C558.741 429.112 558.251 429.555 559.847 427.868C563.237 426.964 594.856 426.499 598.017 427.726C598.277 428.015 598.537 428.305 598.797 428.595C597.923 462.94 599.384 522.279 598.367 554.389L598.325 555.192L598.561 555.743C599.191 559.283 598.196 564.497 597.378 568.005C586.67 568.428 575.953 568.586 565.236 568.479C550.981 553.166 534.949 536.756 520.197 521.883C520.206 527.857 521.026 555.383 520.087 558.666L520.122 558.915C521.212 562.427 520.533 567.414 519.704 570.925C514.947 571.558 480.653 573.039 478.686 571.933C476.904 569.653 477.041 566.244 477.383 563.452C477.566 558.975 477.569 554.178 477.656 549.672C477.642 513.584 477.106 477.698 477.615 441.597C477.553 438.474 476.911 432.469 478.881 430.388C483.286 428.251 505.522 428.477 511.382 428.867C521.708 440.232 532.581 451.109 542.941 462.454C547.778 467.751 553.448 473.203 557.671 478.952C558.028 475.706 557.841 466.974 557.856 463.187C557.843 452.696 557.94 442.205 558.148 431.717Z"/><path fill="#6D1457" d="M519.817 514.351C535.916 529.075 550.196 545.857 565.184 561.66C574.969 561.242 586.129 561.043 595.938 560.091C597.128 559.976 598.241 556.837 598.561 555.743C599.191 559.283 598.196 564.497 597.378 568.005C586.67 568.428 575.953 568.586 565.236 568.479C550.981 553.166 534.949 536.756 520.197 521.883C520 519.374 519.92 516.865 519.817 514.351Z"/><path fill="#239BE8" d="M519.302 506.456C534.242 522.287 552.74 539.764 566.635 555.827C571.408 555.579 589.359 555.27 594.823 553.96C595.13 553.886 596.13 552.15 596.39 551.714L596.68 551.688C598.511 554.656 595.105 552.427 598.325 555.192L598.561 555.743C598.241 556.837 597.128 559.976 595.938 560.091C586.129 561.043 574.969 561.242 565.184 561.66C550.196 545.857 535.916 529.075 519.817 514.351C519.17 512.635 519.325 508.49 519.302 506.456Z"/><path fill="#FEFEFE" d="M477.615 441.597C477.553 438.474 476.911 432.469 478.881 430.388C483.286 428.251 505.522 428.477 511.382 428.867C521.708 440.232 532.581 451.109 542.941 462.454C547.778 467.751 553.448 473.203 557.671 478.952L557.729 481.175L557.178 481.655C546.364 472.328 533.951 457.785 523.643 447.516C518.802 442.695 514.137 436.819 508.774 432.572C498.711 433.094 488.247 432.965 478.11 433.228L477.615 441.597Z"/><path fill="#6D1457" d="M520.122 558.915C521.212 562.427 520.533 567.414 519.704 570.925C514.947 571.558 480.653 573.039 478.686 571.933C476.904 569.653 477.041 566.244 477.383 563.452C482.169 565.054 511.12 563.551 518.283 563.492L520.122 558.915Z"/><path fill="#FEFEFE" d="M558.148 431.717C558.741 429.112 558.251 429.555 559.847 427.868C563.237 426.964 594.856 426.499 598.017 427.726C598.277 428.015 598.537 428.305 598.797 428.595C597.923 462.94 599.384 522.279 598.367 554.389C597.005 549.475 598.31 539.577 598.111 533.848C596.92 499.735 597.96 465.58 597.074 431.441C584.061 431.282 571.144 431.748 558.148 431.717Z"/><path fill="#239BE8" d="M477.656 549.672L477.95 549.559C477.999 552.369 477.592 556.057 478.274 558.345C479.574 559.092 478.88 558.822 480.51 558.817C482.724 559.117 491.337 558.62 493.947 558.52C501.754 558.19 509.566 557.984 517.379 557.9L519.465 558.434L520.087 558.666L520.122 558.915L518.283 563.492C511.12 563.551 482.169 565.054 477.383 563.452C477.566 558.975 477.569 554.178 477.656 549.672Z"/><path fill="#00B4F3" d="M477.95 549.559C477.924 543.784 477.534 496.907 478.447 495.51C478.753 500.258 478.117 506.437 478.756 510.6C479.663 507.926 478.991 495.667 479.652 493.521C480.3 515.28 480.586 537.048 480.51 558.817C478.88 558.822 479.574 559.092 478.274 558.345C477.592 556.057 477.999 552.369 477.95 549.559Z"/><path fill="#00B4F3" d="M517.379 557.9C517.52 553.189 517.258 539.098 517.742 535.866L517.819 536.489C518.008 537.921 518.392 539.544 518.695 540.971C519.072 540.505 518.901 540.803 519.08 540.014C519.517 546.318 519.121 552.401 519.465 558.434L517.379 557.9Z"/><path fill="#6CD1FC" d="M795.414 428.165C795.587 426.494 795.483 425.775 796.58 424.517C799.27 423.183 832.868 422.893 837.297 423.037C837.389 439.216 837.308 455.395 837.056 471.572C836.977 477.33 837.159 489.759 836.537 494.758C836.7 509.063 836.05 523.763 835.914 538.147C835.922 542.104 835.956 546.061 836.017 550.018C836.13 552.611 836.067 555.461 836.066 558.078C827.604 558.951 809.182 559.256 800.21 559.505C795.312 555.304 787.436 546.091 782.773 541.002C774.55 532.149 766.279 523.342 757.958 514.581C757.937 511.96 757.873 510.021 757.651 507.38C757.464 520.542 756.948 534.905 757.326 547.953L757.518 549.098C757.536 553.879 757.519 557.109 756.838 561.852C748.257 562.029 725.39 563.316 716.222 562.457C714.762 562.32 714.239 552.812 715.068 550.339L715.122 550.053C714.859 547.572 714.874 544.236 714.866 541.716C714.775 515.504 713.61 489.085 714.007 462.89C713.299 457.005 713.887 438.768 713.962 432.1C713.988 429.773 713.778 428.733 714.821 426.753C717.207 424.881 722.227 425.393 725.388 425.362C733.625 425.281 741.85 424.844 750.081 424.832C754.634 429.67 793.292 471.064 794.895 471.444L794.734 466.427C794.28 456.949 794.588 437.797 795.414 428.165Z"/><path fill="#6D1457" d="M757.66 506.871C759.812 508.184 762.625 511.821 764.392 513.773C772.461 522.687 780.793 531.374 789.008 540.153C792.596 543.988 795.946 548.393 799.637 552.049C804.717 551.808 833.328 551.069 835.456 550.082L836.017 550.018C836.13 552.611 836.067 555.461 836.066 558.078C827.604 558.951 809.182 559.256 800.21 559.505C795.312 555.304 787.436 546.091 782.773 541.002C774.55 532.149 766.279 523.342 757.958 514.581C757.937 511.96 757.873 510.021 757.651 507.38L757.66 506.871Z"/><path fill="#239BE8" d="M756.944 498.641C771.651 514.466 786.549 531.611 801.338 547.139C811.394 546.074 822.863 545.827 833.033 545.416C833.79 547.108 833.691 547.453 833.625 549.233C834.535 550.188 833.995 549.811 835.456 550.082C833.328 551.069 804.717 551.808 799.637 552.049C795.946 548.393 792.596 543.988 789.008 540.153C780.793 531.374 772.461 522.687 764.392 513.773C762.625 511.821 759.812 508.184 757.66 506.871L756.944 498.641Z"/><path fill="#FEFEFE" d="M713.962 432.1C713.988 429.773 713.778 428.733 714.821 426.753C717.207 424.881 722.227 425.393 725.388 425.362C733.625 425.281 741.85 424.844 750.081 424.832C754.634 429.67 793.292 471.064 794.895 471.444C795.11 473.335 795.11 476.438 795.175 478.43C790.262 472.275 777.745 460.289 772.058 454.108C768.163 449.875 751.607 431.854 747.997 429.363C743.555 429.428 716.163 429.165 714.517 429.998L713.962 432.1Z"/><path fill="#6D1457" d="M715.068 550.339C715.726 552.61 715.482 553.474 716.923 554.884C723.121 555.495 747.3 554.29 754.881 553.543C756.294 553.404 757.103 550.587 757.518 549.098C757.536 553.879 757.519 557.109 756.838 561.852C748.257 562.029 725.39 563.316 716.222 562.457C714.762 562.32 714.239 552.812 715.068 550.339Z"/><path fill="#FEFEFE" d="M795.414 428.165C795.587 426.494 795.483 425.775 796.58 424.517C799.27 423.183 832.868 422.893 837.297 423.037C837.389 439.216 837.308 455.395 837.056 471.572C836.977 477.33 837.159 489.759 836.537 494.758C835.915 491.993 835.852 480.837 835.787 477.272C835.588 460.815 835.511 444.356 835.556 427.898C822.56 427.896 808.921 427.722 795.982 428.028L795.414 428.165Z"/><defs><linearGradient id="gradient_1" gradientUnits="userSpaceOnUse" x1="736.59564" y1="554.09961" x2="734.72888" y2="527.94696"><stop offset="0" stop-color="#1E9BE9"/><stop offset="1" stop-color="#3DBFF1"/></linearGradient></defs><path fill="url(#gradient_1)" d="M753.156 548.095C754.014 540.479 754.116 529.604 755.709 522.71C755.945 528.578 755.166 543.855 757.326 547.953L757.518 549.098C757.103 550.587 756.294 553.404 754.881 553.543C747.3 554.29 723.121 555.495 716.923 554.884C715.482 553.474 715.726 552.61 715.068 550.339L715.122 550.053L715.577 549.902L717.463 549.199C720.839 549.924 748.447 548.447 753.156 548.095Z"/><path fill="#51C1F5" d="M714.007 462.89C714.663 465.951 714.313 467.722 715.173 470.431L715.252 469.316C716.956 479.864 716.177 497.053 716.581 508.249C716.748 512.866 717.769 531.269 717.394 534.421C717.536 538.714 717.942 545.097 717.463 549.199L715.577 549.902L715.122 550.053C714.859 547.572 714.874 544.236 714.866 541.716C714.775 515.504 713.61 489.085 714.007 462.89Z"/><path fill="#00B4F3" d="M717.394 534.421C717.536 538.714 717.942 545.097 717.463 549.199L715.577 549.902C716.277 545.169 716.077 539.17 717.394 534.421Z"/><path fill="#89EDFF" d="M795.414 428.165L795.982 428.028C796.753 434.055 797.503 462.902 794.734 466.427C794.28 456.949 794.588 437.797 795.414 428.165Z"/><path fill="#00B4F3" d="M833.033 545.416C832.954 539.091 833.412 529.415 834.935 523.499C835.472 527.972 835.54 533.48 835.914 538.147C835.922 542.104 835.956 546.061 836.017 550.018L835.456 550.082C833.995 549.811 834.535 550.188 833.625 549.233C833.691 547.453 833.79 547.108 833.033 545.416Z"/><path fill="#6CD1FC" d="M349.848 482.556C352.111 472.867 356.659 464.143 362.696 456.094C381.155 431.486 412.426 422.704 441.942 427.747C446.946 428.602 453.335 428.444 457.182 432.16C458.223 433.166 457.803 435.301 457.648 436.625C457.391 439.052 457.058 441.676 456.877 444.09C458.777 452.811 454.897 463.82 454.15 472.493C453.145 484.16 447.814 482.011 438.457 480.673C417.27 477.644 399.15 481.848 392.611 504.536C393.092 507.756 393.46 509.76 394.259 512.922C397.905 520.083 400.794 523.298 408.962 526.096C415.575 528.361 425.995 528.45 432.489 525.778L432.064 523.737C428.86 523.212 427.084 523.994 423.224 523.073C422.412 517.018 422.912 499.433 422.97 492.601C423.181 490.162 422.769 490.689 424.095 489.144C427.037 488.039 464.985 486.945 468.359 488.235C469.007 493.135 468.803 499.895 468.483 504.903C467.619 518.392 469.434 534.345 468.037 547.567L467.969 550.172L468.132 550.486C468.765 552.947 468.495 555.771 468.424 558.363C459.366 573.753 433.487 577.311 417.492 577.777C398.272 578.227 378.784 572.974 364.839 559.176C352.772 547.237 347.583 533.201 347.56 516.478C347.248 510.944 346.843 505.689 347.361 500.166C347.29 493.696 348.124 488.715 349.848 482.556Z"/><path fill="#6D1457" d="M347.56 516.478C361.182 593.096 464.13 571.192 468.132 550.486C468.765 552.947 468.495 555.771 468.424 558.363C459.366 573.753 433.487 577.311 417.492 577.777C398.272 578.227 378.784 572.974 364.839 559.176C352.772 547.237 347.583 533.201 347.56 516.478Z"/><defs><linearGradient id="gradient_2" gradientUnits="userSpaceOnUse" x1="402.55127" y1="568.1828" x2="409.44333" y2="504.10913"><stop offset="0" stop-color="#219AE8"/><stop offset="1" stop-color="#27BFF5"/></linearGradient></defs><path fill="url(#gradient_2)" d="M347.361 500.166L348.269 498.182C349.343 499.294 349.851 511.779 350.5 515.004C357.181 548.233 382.589 563.626 415.132 563.951C430.933 564.108 451.99 561.258 463.738 550.013C464.161 549.606 464.569 549.183 464.962 548.746C465.11 545.741 465.075 544.095 465.983 541.172L466.817 541L466.366 540.217C467.559 541.897 465.93 547.595 467.969 550.172L468.132 550.486C464.13 571.192 361.182 593.096 347.56 516.478C347.248 510.944 346.843 505.689 347.361 500.166Z"/><path fill="#6D1457" d="M456.877 444.09C458.777 452.811 454.897 463.82 454.15 472.493C453.145 484.16 447.814 482.011 438.457 480.673C417.27 477.644 399.15 481.848 392.611 504.536C392.406 497.585 393.092 494.732 395.706 488.559C412.58 460.136 445.448 477.759 450.301 473.92C453.518 471.374 456.392 449.131 456.61 444.289L456.877 444.09Z"/><path fill="#FEFEFE" d="M349.848 482.556C352.111 472.867 356.659 464.143 362.696 456.094C381.155 431.486 412.426 422.704 441.942 427.747C446.946 428.602 453.335 428.444 457.182 432.16C458.223 433.166 457.803 435.301 457.648 436.625C447.156 430.202 418.042 429.643 405.779 432.919C385.283 438.395 370.278 447.805 359.031 466.335C356.817 469.981 351.804 480.159 349.848 482.556Z"/><path fill="#00B4F3" d="M450.01 468.655C452.501 461.535 452.614 447.791 456.61 444.289C456.392 449.131 453.518 471.374 450.301 473.92C445.448 477.759 412.58 460.136 395.706 488.559C394.784 489.116 395.277 488.982 394.234 488.988C391.337 484.514 398.853 477.104 402.073 474.5C416.725 462.65 432.871 466.386 450.01 468.655Z"/><path fill="#FEFEFE" d="M422.97 492.601C423.181 490.162 422.769 490.689 424.095 489.144C427.037 488.039 464.985 486.945 468.359 488.235C469.007 493.135 468.803 499.895 468.483 504.903C467.619 518.392 469.434 534.345 468.037 547.567C467.454 542.803 467.822 533.6 467.829 528.538C467.88 516.135 467.771 503.731 467.502 491.331C462.115 491.17 425.687 491.762 422.97 492.601Z"/><path fill="#FEFEFE" d="M394.259 512.922C397.905 520.083 400.794 523.298 408.962 526.096C415.575 528.361 425.995 528.45 432.489 525.778C433.156 527.227 432.995 526.467 432.84 528.166C431.582 529.573 429.407 530.096 427.593 530.369C414.437 532.345 396.857 528.19 394.259 512.922Z"/><path fill="#239BE8" d="M423.224 523.073C423.341 520.871 422.992 520.308 424.027 518.777C426.793 517.866 431.968 516.922 432.968 520.607C432.673 521.885 432.604 522.536 432.064 523.737C428.86 523.212 427.084 523.994 423.224 523.073Z"/><path fill="#6CD1FC" d="M185.773 470.594C187.043 461.547 191.068 453.111 197.3 446.432C215.73 426.753 245.37 426.313 269.533 433.336C273.249 434.416 275.587 435.51 278.396 438.194C278.08 441.04 278.02 444.263 277.894 447.15C277.895 452.937 277.402 458.501 276.672 464.239C276.419 467.209 276.127 470.19 276.011 473.166L276.001 477.564C276.007 480.307 276.393 482.692 274.473 484.671C269.662 486.263 245.015 473.308 234.554 477.501C238.917 480.253 247.571 482.443 252.723 484.252C266.932 489.24 279.077 498.52 283.085 513.559C284.487 518.897 285.033 524.424 284.704 529.934C284.577 532.036 284.488 535.348 284.234 537.34L284.069 539.817C284.032 543.526 283.361 546.441 282.302 549.988C271.554 585.983 227.395 587.919 196.955 580.514C192.951 579.54 189.138 578.238 185.495 576.353C185.289 573.737 185.075 571.331 185.064 568.698C184.445 557.839 184.987 542.744 184.88 531.399C185.24 529.375 185.188 529.442 186.212 527.681C188.859 526.313 219.325 540.67 234.79 533.5C232.089 532.33 226.579 531.022 223.495 530.376C197.29 524.883 181.759 507.321 184.769 479.879C184.949 476.777 185.387 473.679 185.773 470.594Z"/><path fill="#239BE8" d="M184.769 479.879L184.917 480.239C188.5 483.153 188.255 500.448 203.877 509.229C208.008 511.55 212.309 513.879 216.745 515.551C222.437 517.697 238.741 519.611 239.326 526.909C239.485 528.902 238.343 530.471 237.126 531.901L236.484 532.685L234.79 533.5C232.089 532.33 226.579 531.022 223.495 530.376C197.29 524.883 181.759 507.321 184.769 479.879Z"/><path fill="#6D1457" d="M184.769 479.879L184.917 480.239C184.319 490.342 187.811 500.261 194.607 507.761C206.746 521.242 219.706 521.094 234.755 528.194C235.816 528.694 236.742 530.76 237.126 531.901L236.484 532.685L234.79 533.5C232.089 532.33 226.579 531.022 223.495 530.376C197.29 524.883 181.759 507.321 184.769 479.879Z"/><path fill="#6D1457" d="M185.064 568.698C187.293 570.247 189.328 571.118 191.916 571.894C211.53 577.775 240.87 579.147 259.44 569.547C271.295 563.33 280.165 552.622 284.069 539.817C284.032 543.526 283.361 546.441 282.302 549.988C271.554 585.983 227.395 587.919 196.955 580.514C192.951 579.54 189.138 578.238 185.495 576.353C185.289 573.737 185.075 571.331 185.064 568.698Z"/><path fill="#239BE8" d="M184.88 531.399L186.796 531.681C187.734 542.669 187.149 552.394 187.63 563.07C218.346 575.47 263.409 575.58 279.433 542.177C280.121 540.743 283.207 533.489 283.764 533.156C284.336 534.849 284.232 535.58 284.234 537.34L284.069 539.817C280.165 552.622 271.295 563.33 259.44 569.547C240.87 579.147 211.53 577.775 191.916 571.894C189.328 571.118 187.293 570.247 185.064 568.698C184.445 557.839 184.987 542.744 184.88 531.399Z"/><path fill="#239BE8" d="M231.507 476.218C231.071 476.087 230.402 475.564 229.977 475.278C229.317 473.648 229.41 472.248 230.114 470.617C235.801 457.435 264.457 468.085 272.292 470.999C273.651 471.718 274.806 472.224 276.011 473.166L276.001 477.564C276.007 480.307 276.393 482.692 274.473 484.671C269.662 486.263 245.015 473.308 234.554 477.501L232.919 476.069L231.507 476.218Z"/><path fill="#6D1457" d="M232.919 476.069C239.928 459.889 272.608 481.343 276.001 477.564C276.007 480.307 276.393 482.692 274.473 484.671C269.662 486.263 245.015 473.308 234.554 477.501L232.919 476.069Z"/><path fill="#FEFEFE" d="M185.773 470.594C187.043 461.547 191.068 453.111 197.3 446.432C215.73 426.753 245.37 426.313 269.533 433.336C273.249 434.416 275.587 435.51 278.396 438.194C278.08 441.04 278.02 444.263 277.894 447.15C277.735 445.443 277.814 442.421 276.257 441.177C273.921 439.311 271.559 438.36 268.586 437.489C244.556 430.445 214.199 430.632 196.642 451.193C191.722 456.956 188.99 463.84 185.773 470.594Z"/><path fill="#FEFEFE" d="M231.507 476.218L232.919 476.069L234.554 477.501C238.917 480.253 247.571 482.443 252.723 484.252C266.932 489.24 279.077 498.52 283.085 513.559C284.487 518.897 285.033 524.424 284.704 529.934C283.087 506.447 268.369 493.101 246.723 486.463C242.479 485.162 236.762 483.668 233.097 481.111C231.449 479.962 231.497 478.024 231.507 476.218Z"/><path fill="#FEFEFE" d="M184.88 531.399C185.24 529.375 185.188 529.442 186.212 527.681C188.859 526.313 219.325 540.67 234.79 533.5L236.484 532.685C237.343 534.006 237.113 533.278 237.013 534.993C229.445 545.668 197.329 534.39 186.796 531.681L184.88 531.399Z"/><path fill="#00B4F3" d="M272.292 470.999C273.041 467.931 272.982 463.948 274.291 461.483L275.192 461.577L275.903 460.518L276.15 460.814L275.886 460.803C276.63 462.016 276.5 462.716 276.672 464.239C276.419 467.209 276.127 470.19 276.011 473.166C274.806 472.224 273.651 471.718 272.292 470.999Z"/><path fill="#6CD1FC" d="M292.892 443.057C292.896 440.672 292.371 437.121 294.168 435.301C295.696 433.753 331.215 433.793 334.823 434.014C335.814 434.074 338.382 434.073 338.989 434.875C340.664 437.09 339.856 442.59 339.783 445.272C339.925 475.487 339.712 505.704 339.141 535.914C338.938 543.558 339.36 559.366 338.593 566.081L338.537 568.256C338.252 570.524 338.219 573.876 338.121 576.242C333.036 577.312 297.232 579.29 293.48 577.799C291.543 575.021 292.071 570.024 292.087 566.439L292.177 526.012C292.222 499.361 291.812 469.547 292.892 443.057Z"/><path fill="#239BE8" d="M292.177 526.012L292.906 525.842C293.532 527.814 292.955 541.353 293.561 545.934L294.017 546.122C294.028 543.733 293.928 539.886 294.211 537.629C294.489 546.525 294.886 555.674 294.986 564.554C300.678 564.649 331.133 564.242 334.693 562.635C337.003 558.279 335.409 547.589 336.441 542.93C336.603 544.602 336.309 544.883 337.229 545.763C337.958 543.739 337.168 540.777 337.743 540.027C339.16 545.421 337.748 559.557 338.593 566.081L338.537 568.256C338.252 570.524 338.219 573.876 338.121 576.242C333.036 577.312 297.232 579.29 293.48 577.799C291.543 575.021 292.071 570.024 292.087 566.439L292.177 526.012Z"/><path fill="#6D1457" d="M292.087 566.439C292.327 568.229 292.268 569.622 293.42 570.933C296.835 571.719 335.743 569.693 338.537 568.256C338.252 570.524 338.219 573.876 338.121 576.242C333.036 577.312 297.232 579.29 293.48 577.799C291.543 575.021 292.071 570.024 292.087 566.439Z"/><path fill="#FEFEFE" d="M292.892 443.057C292.896 440.672 292.371 437.121 294.168 435.301C295.696 433.753 331.215 433.793 334.823 434.014C335.814 434.074 338.382 434.073 338.989 434.875C340.664 437.09 339.856 442.59 339.783 445.272C339.263 442.917 338.868 440.282 337.739 438.209C333.791 437.822 296.982 437.905 295.393 439.162C294.654 441.196 294.65 441.814 292.892 443.057Z"/><path fill="#6CD1FC" d="M658.857 430.466C659.305 428.738 659.321 428.076 660.555 426.77C664.222 425.843 698.626 426.198 702.991 426.587L702.88 494.48C702.879 504.152 703.404 521.314 702.615 530.529C702.644 536.523 702.915 545.928 702.352 551.609L702.385 551.934C702.479 555.248 702.877 560.584 701.937 563.624C696.783 565.665 666.924 564.757 660.276 564.596C658.359 564.549 658.464 556.555 658.461 554.839C658.813 547.938 658.659 539.756 658.692 532.758L658.467 470.272C658.442 457.585 658.171 443.046 658.857 430.466Z"/><defs><linearGradient id="gradient_3" gradientUnits="userSpaceOnUse" x1="681.28821" y1="559.047" x2="670.40613" y2="510.07648"><stop offset="0" stop-color="#1A97E5"/><stop offset="1" stop-color="#5DD1FC"/></linearGradient></defs><path fill="url(#gradient_3)" d="M658.692 532.758L658.755 532.128C659.04 529.007 659.079 506.222 659.426 505.737C659.638 508.044 659.193 510.846 659.916 512.209C660.89 511.303 660.554 507.733 660.519 506.272L660.868 506.273C661.996 519.051 661.967 539.025 661.839 552.007C667.233 551.894 695.539 551.564 699.28 550.766C699.756 549.56 699.692 549.458 699.784 548.141C700.892 549.908 701.449 549.704 702.352 551.609L702.385 551.934C702.479 555.248 702.877 560.584 701.937 563.624C696.783 565.665 666.924 564.757 660.276 564.596C658.359 564.549 658.464 556.555 658.461 554.839C658.813 547.938 658.659 539.756 658.692 532.758Z"/><path fill="#6D1457" d="M702.385 551.934C702.479 555.248 702.877 560.584 701.937 563.624C696.783 565.665 666.924 564.757 660.276 564.596C658.359 564.549 658.464 556.555 658.461 554.839C658.794 555.538 659.49 557.201 660.062 557.252C665.82 557.761 697.041 556.965 700.585 556.201C701.902 554.954 701.959 553.732 702.385 551.934Z"/><path fill="#FEFEFE" d="M658.857 430.466C659.305 428.738 659.321 428.076 660.555 426.77C664.222 425.843 698.626 426.198 702.991 426.587L702.88 494.48C702.879 504.152 703.404 521.314 702.615 530.529C702.125 524.182 702.233 514.818 702.105 508.318C701.729 494.714 701.544 481.105 701.549 467.496C701.538 455.537 701.798 442.394 701.278 430.527C687.145 430.412 673.049 430.636 658.857 430.466Z"/><path fill="#000001" d="M876.897 369.886C878.515 369.931 878.86 369.78 880.224 370.635C881.322 373.931 877.506 399.804 876.08 403.786C874.059 403.161 873.652 403.153 872.683 401.662C872.767 397.224 875.802 374.001 876.897 369.886Z"/><path fill="#E5E5E6" d="M305.157 224.69C328.567 222.166 349.615 239.039 352.245 262.438C354.874 285.837 338.097 306.961 314.71 309.697C291.173 312.45 269.884 295.541 267.237 271.992C264.59 248.442 281.595 227.23 305.157 224.69Z"/><path fill="#6B467A" d="M99.9994 775.593C109.785 775.706 119.572 775.712 129.357 775.611C133.126 775.597 144.319 774.802 146.794 776.937C147.744 778.745 147.568 779.886 146.625 781.664C143.232 782.551 35.8458 782.616 32.685 781.724C31.1498 781.29 29.5089 780.502 28.8321 778.967C28.4978 778.209 28.8091 777.941 29.0792 777.226C32.6879 774.54 49.2092 775.542 54.6361 775.546L99.9994 775.593Z"/><path fill="#000001" d="M140.579 296.308C142.193 296.338 144.102 296.146 144.621 298.078C147.402 308.425 149.677 319.09 151.714 329.612C151.853 330.326 151.267 331.645 150.998 332.272C150.037 332.183 149.519 332.043 148.574 331.841C148.161 331.5 147.457 330.829 147.377 330.314C146.503 324.658 139.019 300.447 140.579 296.308Z"/><path fill="#6B467A" d="M972.13 775.607C978.977 775.529 986.002 775.353 992.848 775.559C995.715 775.646 998.05 775.859 998.776 778.823C998.408 780.397 998.351 780.287 997.191 781.46C990.216 781.454 979.728 782.239 972.792 781.014C971.466 780.78 971.183 779.865 970.703 778.873C970.854 777.04 971.034 777.039 972.13 775.607Z"/><path fill="#000001" d="M84.5786 333.291C88.0262 333.413 109.077 346.792 111.839 349.224C112.58 351.072 112.357 350.472 111.864 352.77C111.015 352.755 109.505 352.734 108.785 352.289C103.196 348.831 88.4641 340.813 84.3302 336.922C83.8008 334.893 83.9452 335.563 84.5786 333.291Z"/><defs><linearGradient id="gradient_4" gradientUnits="userSpaceOnUse" x1="94.034149" y1="405.34537" x2="95.957352" y2="390.71927"><stop offset="0" stop-color="black"/><stop offset="1" stop-color="#050115"/></linearGradient></defs><path fill="url(#gradient_4)" d="M96.4902 401.142C93.1062 402.257 81.6803 406.293 79.2264 403.956C78.8062 402.316 78.7329 403.083 79.3988 401.573C80.7236 400.704 107.863 391.951 109.824 391.637C111.686 392.523 111.217 392.445 112.596 394.347C109.583 396.309 105.653 396.159 102.246 397.621C100.104 398.54 98.3887 399.815 96.4902 401.142Z"/></svg>