<?xml version="1.0" encoding="utf-8" ?><svg xmlns="http://www.w3.org/2000/svg" xmlns:xlink="http://www.w3.org/1999/xlink" width="1254" height="1254" viewBox="0 0 1254 1254"><path fill="#0072FE" d="M569.174 105.107C570.018 105.667 570.588 106.167 571.372 106.806C571.935 108.983 571.908 108.728 571.016 111.27C567.485 121.333 563.71 131.413 560.119 141.449C552.121 163.48 544.568 185.671 537.466 208.007C536.281 211.813 530.946 225.289 533.562 227.783C539.663 225.886 557.964 211.39 564.719 206.887C573.036 201.342 581.486 195.322 590.208 189.973C619.26 171.999 649.912 156.751 681.772 144.423C689.051 141.618 730.569 125.904 736.067 128.344C736.462 129.239 737.12 130.943 736.341 131.925C726.805 143.953 664.195 201.094 662.275 210.179C662.504 210.606 662.733 211.033 662.963 211.461C665.076 212.36 674.292 209.413 675.728 208.994C742.673 189.442 812.118 177.967 881.999 179.385C890.615 179.56 900.259 178.724 908.507 180.688C909.293 180.876 909.378 182.077 909.599 182.806C908.831 184.943 908.203 184.992 905.627 186.26C896.541 190.732 887.292 194.99 878.182 199.414C858.964 208.573 840.085 218.426 821.582 228.954C813.923 233.354 805.506 238.225 798.319 243.388C796.275 244.856 795.866 245.384 795.65 247.441C798.012 249.992 812.098 250.66 816.247 251.16C827.682 252.556 839.092 254.145 850.474 255.926C915.179 266.114 986.942 283.569 1046.12 313.527C1047.7 314.323 1048 315.13 1048.31 316.678C1047.73 317.763 1046.55 319.178 1045.32 319.277C1037.57 319.906 1024.77 321.631 1017.35 321.923C1004.58 322.427 929.497 331.599 923.901 335.909C923.73 336.718 923.332 337.638 923.759 338.065C929.195 342.872 936.485 346.168 943.017 349.775C1003.89 383.396 1064.25 422.496 1111.18 474.38C1112.03 475.316 1111.74 475.848 1111.48 476.839C1105.34 480.905 1063.38 466.171 1054.3 464.575C1045.61 463.049 1008.31 451.979 1001.04 454.269C1000.46 456.054 1000.72 456.808 1002.25 458.623C1006.82 463.998 1012.34 469.289 1017.29 474.376C1024.97 482.328 1032.5 490.419 1039.89 498.643C1075.24 537.853 1105.79 578.778 1133.4 623.693C1134.89 626.118 1137.91 630.04 1136.67 632.677C1135.49 633.24 1134.78 633.805 1133.36 633.13C1127.89 630.538 1119.78 624.817 1115.1 622.048C1103.99 615.477 1052.84 581.617 1043.19 579.935C1040.75 582.55 1049.17 597.389 1051.07 601.214C1080.49 660.517 1103.09 723.071 1114.67 788.369C1115.6 793.638 1118.68 811.109 1117.9 815.515C1116.67 817.13 1117.44 816.592 1115.51 817.201C1111.58 814.994 1095.42 793.349 1091.51 788.426C1074.16 766.627 1055.83 745.631 1036.57 725.504C1033.95 722.763 1025.13 712.091 1021.66 712.781C1020.75 714.331 1020.89 715.652 1021.19 717.428C1033.85 790.83 1041.17 865.555 1030.21 939.695C1029.7 943.148 1029.73 947.834 1025.61 947.993C1022.24 945.618 1012.4 924.025 1009.59 918.408C1001.87 902.843 993.789 887.459 985.355 872.268C982.856 867.798 972.364 847.738 968.308 847.233C965.751 849.387 963.197 864.326 962.249 868.318C959.87 878.007 957.371 887.666 954.751 897.292C940.178 950.321 920.21 1002.91 890.856 1049.72C889.564 1051.78 887.892 1053.56 885.436 1053.98C881.913 1051.5 882.147 1017.37 881.915 1010.51C881.29 989.994 880.095 969.5 878.331 949.052C877.998 944.845 877.53 932.224 875.545 929.305C874.365 929.171 873.204 929.346 872.401 930.356C828.18 986.013 782.452 1039.45 725.822 1083.51C719.355 1088.68 685.068 1117.63 680.493 1113.87C680.106 1112.09 680.213 1110.86 681.001 1109.2C687.072 1096.36 692.979 1083.39 698.794 1070.45C707.111 1051.92 714.918 1033.18 722.206 1014.22C723.984 1009.71 730.22 997.368 728.436 993.261C725.809 992.098 720.228 996.6 717.262 998.455C650.047 1040.48 578.641 1077.34 501.663 1097.69C496.902 1098.95 484.981 1102.8 482.369 1099.31C483.755 1095.21 508.908 1071.05 513.611 1066.22C529.263 1050.06 544.581 1033.59 559.555 1016.8C562.583 1013.41 574.886 1001.62 573.406 997.683C570.68 997.171 520.969 1004.84 513.614 1005.72C455.958 1013.03 397.648 1013.62 339.857 1007.48C333.389 1006.8 302.14 1004.16 299.53 999.139C299.75 998.081 300.142 996.83 301.337 996.445C315.366 991.923 425.633 952.607 426.303 943.534C425.635 942.515 425.501 942.071 424.082 941.843C411.63 939.845 399.369 937.249 387.056 934.552C325.679 921.122 265.672 902.061 207.795 877.61C200.371 874.551 188.248 870.207 181.848 865.697C181.103 865.172 181.366 864.767 181.38 863.654C182.453 862.464 182.824 861.876 184.666 861.591C196.118 859.817 208.19 858.774 219.726 857.551C244.509 855.09 269.232 852.067 293.877 848.484C303.563 847.091 313.706 845.752 323.319 843.977C325.733 843.531 326.347 842.992 327.404 841.217C326.419 837.772 317.443 833.367 314.036 831.18C305.31 825.593 296.689 819.842 288.179 813.93C232.823 775.623 182.369 730.814 136.63 681.533C132.141 676.696 118.104 662.613 115.938 658.074C116.091 655.754 115.622 656.655 117.195 655.186C119.46 654.827 121.033 655.34 122.999 655.909C136.387 659.783 243.825 694.418 250.078 690.499C250.212 689.085 249.9 687.7 249.094 686.539C242.121 676.496 235.237 666.199 228.547 655.983C196.362 607.23 168.493 555.762 145.255 502.164C143.366 497.864 137.441 485.994 139.086 481.765C140.232 481.405 141.44 480.986 142.528 481.636C152.633 487.675 163.61 495.637 173.312 502.211C193.766 516.044 214.415 529.586 235.253 542.832C239.552 545.53 254.291 556.218 258.342 554.496C259.469 552.16 251.647 523.031 250.418 517.704C234.592 449.112 225.483 378.326 223.602 308.021C223.565 306.656 225.069 306.113 226.042 305.651C227.972 306.024 228.34 306.262 229.765 308.4C235.72 317.33 241.651 326.549 247.52 335.516C259.255 353.684 271.332 371.628 283.745 389.34C287.114 394.151 292.21 402.103 296.584 406.093C297.348 406.79 297.586 406.464 298.824 406.239C300.572 404.533 302.669 382.392 303.247 378.515C311.925 320.382 325.671 263.049 350.101 209.383C352.161 204.858 358.746 186.33 364.015 187.358C366.188 189.543 366.304 193.169 366.71 196.268C367.87 205.138 368.933 214.015 370.16 222.878C373.302 245.149 376.802 267.367 380.659 289.525C381.697 295.225 383.992 315.69 388.634 318.083C391.536 315.949 408.109 287.61 411.411 282.517C417.661 273.067 424.045 263.705 430.559 254.434C463.489 208.019 501.344 165.303 543.464 127.034C549.231 121.781 562.814 109.209 569.174 105.107Z"/><path fill="#FEFEFE" d="M844.819 443.527C845.496 443.491 846.173 443.464 846.851 443.446C857.83 443.155 868.471 447.263 876.406 454.856C884.472 462.521 889.171 473.071 889.474 484.194C889.872 507.207 871.785 520.619 856.965 535.702L811.119 582.48L627.004 771.183C615.36 783.108 607.086 792.251 589.062 792.551C571.04 792.851 561.404 782.153 549.745 770.225C543.127 763.455 536.259 756.561 529.589 749.813L458.843 678.393C448.156 667.138 436.599 656.557 426.1 645.106C411.027 628.666 410.721 603.75 426.415 587.579C434.278 579.491 445.068 574.911 456.348 574.871C474.71 574.86 484.457 585.357 496.396 597.58C503.968 605.334 511.745 613.103 519.374 620.83L589.126 690.948C606.161 672.531 625.622 653.407 643.252 635.374L740.466 535.712L794.039 480.687C798.074 476.53 802.306 472.225 806.271 468.034C818.682 454.915 826.095 445.749 844.819 443.527Z"/></svg>